M48
; DRILL file {KiCad 8.0.0} date 2024-06-27T16:52:43+0200
; FORMAT={-:-/ absolute / metric / decimal}
; #@! TF.CreationDate,2024-06-27T16:52:43+02:00
; #@! TF.GenerationSoftware,Kicad,Pcbnew,8.0.0
; #@! TF.FileFunction,Plated,1,2,PTH
FMAT,2
METRIC
; #@! TA.AperFunction,Plated,PTH,ViaDrill
T1C0.300
; #@! TA.AperFunction,Plated,PTH,ComponentDrill
T2C0.700
; #@! TA.AperFunction,Plated,PTH,ComponentDrill
T3C1.200
%
G90
G05
T1
X61.976Y-39.37
X61.976Y-41.91
X61.976Y-44.45
X61.976Y-46.99
X61.976Y-49.53
X61.976Y-52.07
X61.976Y-54.61
X61.976Y-57.15
X61.976Y-59.69
X61.976Y-62.23
X61.976Y-64.77
X61.976Y-67.31
X61.976Y-69.85
X61.976Y-72.39
X61.976Y-74.93
X61.976Y-77.47
X61.976Y-80.01
X61.976Y-82.55
X61.976Y-85.09
X61.976Y-87.63
X67.056Y-39.37
X67.056Y-41.91
X67.056Y-44.45
X67.056Y-46.99
X67.056Y-49.53
X67.056Y-52.07
X67.056Y-54.61
X67.056Y-57.15
X67.056Y-59.69
X67.056Y-62.23
X67.056Y-64.77
X67.056Y-67.31
X67.056Y-69.85
X67.056Y-72.39
X67.056Y-74.93
X67.056Y-77.47
X67.056Y-80.01
X67.056Y-82.55
X67.056Y-85.09
X67.056Y-87.63
X72.136Y-39.37
X72.136Y-44.45
X72.136Y-46.99
X72.136Y-49.53
X72.136Y-72.39
X72.136Y-74.93
X72.136Y-77.47
X72.136Y-80.01
X72.136Y-82.55
X72.136Y-85.09
X72.136Y-87.884
X73.406Y-62.23
X73.7Y-54.85
X73.7Y-67.85
X74.168Y-64.516
X74.422Y-83.312
X74.676Y-72.644
X74.93Y-74.93
X74.93Y-77.47
X75.225Y-64.475
X75.375Y-58.8
X75.375Y-59.775
X75.438Y-42.418
X75.438Y-45.466
X75.946Y-85.852
X75.946Y-87.884
X76.925Y-58.8
X76.925Y-59.8
X76.962Y-72.644
X76.962Y-74.93
X76.962Y-77.47
X77.45Y-62.85
X77.47Y-38.1
X77.47Y-40.132
X77.47Y-42.418
X77.47Y-53.086
X77.65Y-68.95
X77.978Y-80.518
X78.55Y-74.0
X78.6Y-71.75
X78.75Y-63.95
X78.85Y-76.2
X78.994Y-85.852
X78.994Y-87.884
X79.248Y-69.342
X80.518Y-38.1
X80.518Y-40.132
X80.518Y-42.418
X81.026Y-85.852
X81.026Y-87.884
X81.28Y-45.974
X81.28Y-48.006
X81.5Y-68.9
X82.5Y-54.55
X83.3Y-49.6
X83.3Y-52.8
X83.312Y-85.852
X83.312Y-87.884
X83.82Y-38.1
X83.82Y-42.418
X83.82Y-45.974
X83.82Y-48.006
X83.82Y-62.484
X83.82Y-64.262
X83.82Y-69.342
X83.82Y-72.136
X83.82Y-74.422
X83.825Y-59.925
X83.85Y-58.8
X84.8Y-71.1
X84.9Y-59.95
X84.95Y-58.775
X85.344Y-80.518
X85.344Y-83.058
X86.106Y-38.1
X86.106Y-41.148
X86.106Y-44.196
X86.106Y-48.006
X86.106Y-51.054
X86.106Y-53.848
X86.106Y-60.198
X86.106Y-62.484
X86.106Y-65.786
X86.106Y-69.342
T3
X75.7Y-70.67
X75.7Y-80.83
T2
X74.251Y-85.714G85X74.251Y-87.514
G05
X85.951Y-85.714G85X85.951Y-87.514
G05
M30
