G04 #@! TF.GenerationSoftware,KiCad,Pcbnew,8.0.0*
G04 #@! TF.CreationDate,2024-06-28T14:42:45+02:00*
G04 #@! TF.ProjectId,BatteryBridge,42617474-6572-4794-9272-696467652e6b,rev?*
G04 #@! TF.SameCoordinates,Original*
G04 #@! TF.FileFunction,Copper,L1,Top*
G04 #@! TF.FilePolarity,Positive*
%FSLAX46Y46*%
G04 Gerber Fmt 4.6, Leading zero omitted, Abs format (unit mm)*
G04 Created by KiCad (PCBNEW 8.0.0) date 2024-06-28 14:42:45*
%MOMM*%
%LPD*%
G01*
G04 APERTURE LIST*
G04 Aperture macros list*
%AMRoundRect*
0 Rectangle with rounded corners*
0 $1 Rounding radius*
0 $2 $3 $4 $5 $6 $7 $8 $9 X,Y pos of 4 corners*
0 Add a 4 corners polygon primitive as box body*
4,1,4,$2,$3,$4,$5,$6,$7,$8,$9,$2,$3,0*
0 Add four circle primitives for the rounded corners*
1,1,$1+$1,$2,$3*
1,1,$1+$1,$4,$5*
1,1,$1+$1,$6,$7*
1,1,$1+$1,$8,$9*
0 Add four rect primitives between the rounded corners*
20,1,$1+$1,$2,$3,$4,$5,0*
20,1,$1+$1,$4,$5,$6,$7,0*
20,1,$1+$1,$6,$7,$8,$9,0*
20,1,$1+$1,$8,$9,$2,$3,0*%
G04 Aperture macros list end*
G04 #@! TA.AperFunction,ComponentPad*
%ADD10R,2.400000X2.400000*%
G04 #@! TD*
G04 #@! TA.AperFunction,ComponentPad*
%ADD11O,2.400000X2.400000*%
G04 #@! TD*
G04 #@! TA.AperFunction,SMDPad,CuDef*
%ADD12RoundRect,0.243750X-0.243750X-0.456250X0.243750X-0.456250X0.243750X0.456250X-0.243750X0.456250X0*%
G04 #@! TD*
G04 #@! TA.AperFunction,SMDPad,CuDef*
%ADD13RoundRect,0.250000X0.475000X-0.250000X0.475000X0.250000X-0.475000X0.250000X-0.475000X-0.250000X0*%
G04 #@! TD*
G04 #@! TA.AperFunction,SMDPad,CuDef*
%ADD14RoundRect,0.243750X0.243750X0.456250X-0.243750X0.456250X-0.243750X-0.456250X0.243750X-0.456250X0*%
G04 #@! TD*
G04 #@! TA.AperFunction,SMDPad,CuDef*
%ADD15RoundRect,0.250000X-0.262500X-0.450000X0.262500X-0.450000X0.262500X0.450000X-0.262500X0.450000X0*%
G04 #@! TD*
G04 #@! TA.AperFunction,SMDPad,CuDef*
%ADD16RoundRect,0.150000X0.150000X-0.587500X0.150000X0.587500X-0.150000X0.587500X-0.150000X-0.587500X0*%
G04 #@! TD*
G04 #@! TA.AperFunction,SMDPad,CuDef*
%ADD17RoundRect,0.150000X-0.150000X0.512500X-0.150000X-0.512500X0.150000X-0.512500X0.150000X0.512500X0*%
G04 #@! TD*
G04 #@! TA.AperFunction,SMDPad,CuDef*
%ADD18R,1.425000X0.450000*%
G04 #@! TD*
G04 #@! TA.AperFunction,SMDPad,CuDef*
%ADD19RoundRect,0.250000X0.250000X1.500000X-0.250000X1.500000X-0.250000X-1.500000X0.250000X-1.500000X0*%
G04 #@! TD*
G04 #@! TA.AperFunction,SMDPad,CuDef*
%ADD20RoundRect,0.250001X0.499999X1.449999X-0.499999X1.449999X-0.499999X-1.449999X0.499999X-1.449999X0*%
G04 #@! TD*
G04 #@! TA.AperFunction,SMDPad,CuDef*
%ADD21RoundRect,0.250000X-0.475000X0.250000X-0.475000X-0.250000X0.475000X-0.250000X0.475000X0.250000X0*%
G04 #@! TD*
G04 #@! TA.AperFunction,SMDPad,CuDef*
%ADD22RoundRect,0.300000X-0.300000X0.700000X-0.300000X-0.700000X0.300000X-0.700000X0.300000X0.700000X0*%
G04 #@! TD*
G04 #@! TA.AperFunction,ComponentPad*
%ADD23O,1.300000X3.200000*%
G04 #@! TD*
G04 #@! TA.AperFunction,SMDPad,CuDef*
%ADD24R,3.000000X1.000000*%
G04 #@! TD*
G04 #@! TA.AperFunction,SMDPad,CuDef*
%ADD25RoundRect,0.150000X0.512500X0.150000X-0.512500X0.150000X-0.512500X-0.150000X0.512500X-0.150000X0*%
G04 #@! TD*
G04 #@! TA.AperFunction,SMDPad,CuDef*
%ADD26RoundRect,0.250000X0.262500X0.450000X-0.262500X0.450000X-0.262500X-0.450000X0.262500X-0.450000X0*%
G04 #@! TD*
G04 #@! TA.AperFunction,SMDPad,CuDef*
%ADD27RoundRect,0.250000X0.450000X-0.262500X0.450000X0.262500X-0.450000X0.262500X-0.450000X-0.262500X0*%
G04 #@! TD*
G04 #@! TA.AperFunction,SMDPad,CuDef*
%ADD28RoundRect,0.250000X-0.250000X-0.475000X0.250000X-0.475000X0.250000X0.475000X-0.250000X0.475000X0*%
G04 #@! TD*
G04 #@! TA.AperFunction,SMDPad,CuDef*
%ADD29RoundRect,0.250000X-1.000000X-0.650000X1.000000X-0.650000X1.000000X0.650000X-1.000000X0.650000X0*%
G04 #@! TD*
G04 #@! TA.AperFunction,SMDPad,CuDef*
%ADD30RoundRect,0.250000X0.250000X0.475000X-0.250000X0.475000X-0.250000X-0.475000X0.250000X-0.475000X0*%
G04 #@! TD*
G04 #@! TA.AperFunction,ViaPad*
%ADD31C,0.600000*%
G04 #@! TD*
G04 #@! TA.AperFunction,Conductor*
%ADD32C,0.508000*%
G04 #@! TD*
G04 #@! TA.AperFunction,Conductor*
%ADD33C,0.300000*%
G04 #@! TD*
G04 #@! TA.AperFunction,Conductor*
%ADD34C,0.200000*%
G04 #@! TD*
G04 APERTURE END LIST*
D10*
X75700000Y-70670000D03*
D11*
X75700000Y-80830000D03*
D12*
X74052500Y-53350000D03*
X75927500Y-53350000D03*
D13*
X84662500Y-57412500D03*
X84662500Y-55512500D03*
D14*
X80137500Y-61575000D03*
X78262500Y-61575000D03*
D15*
X78312500Y-59400000D03*
X80137500Y-59400000D03*
D16*
X83550000Y-78437500D03*
X85450000Y-78437500D03*
X84500000Y-76562500D03*
D13*
X75662500Y-57412500D03*
X75662500Y-55512500D03*
D17*
X81700000Y-76205500D03*
X80750000Y-76205500D03*
X79800000Y-76205500D03*
X79800000Y-78480500D03*
X80750000Y-78480500D03*
X81700000Y-78480500D03*
D18*
X77388000Y-65975000D03*
X77388000Y-66625000D03*
X77388000Y-67275000D03*
X77388000Y-67925000D03*
X81812000Y-67925000D03*
X81812000Y-67275000D03*
X81812000Y-66625000D03*
X81812000Y-65975000D03*
D19*
X79946000Y-45374000D03*
X77946000Y-45374000D03*
D20*
X82296000Y-39624000D03*
X75596000Y-39624000D03*
D21*
X84045000Y-66000000D03*
X84045000Y-67900000D03*
D22*
X83601000Y-84014000D03*
X81101000Y-84014000D03*
X79101000Y-84014000D03*
X76601000Y-84014000D03*
D23*
X85951000Y-86614000D03*
X74251000Y-86614000D03*
D24*
X69591000Y-39243000D03*
X64551000Y-39243000D03*
X69591000Y-41783000D03*
X64551000Y-41783000D03*
X69591000Y-44323000D03*
X64551000Y-44323000D03*
X69591000Y-46863000D03*
X64551000Y-46863000D03*
X69591000Y-49403000D03*
X64551000Y-49403000D03*
X69591000Y-51943000D03*
X64551000Y-51943000D03*
X69591000Y-54483000D03*
X64551000Y-54483000D03*
X69591000Y-57023000D03*
X64551000Y-57023000D03*
X69591000Y-59563000D03*
X64551000Y-59563000D03*
X69591000Y-62103000D03*
X64551000Y-62103000D03*
X69591000Y-64643000D03*
X64551000Y-64643000D03*
X69591000Y-67183000D03*
X64551000Y-67183000D03*
X69591000Y-69723000D03*
X64551000Y-69723000D03*
X69591000Y-72263000D03*
X64551000Y-72263000D03*
X69591000Y-74803000D03*
X64551000Y-74803000D03*
X69591000Y-77343000D03*
X64551000Y-77343000D03*
X69591000Y-79883000D03*
X64551000Y-79883000D03*
X69591000Y-82423000D03*
X64551000Y-82423000D03*
X69591000Y-84963000D03*
X64551000Y-84963000D03*
X69591000Y-87503000D03*
X64551000Y-87503000D03*
D25*
X82400000Y-57412500D03*
X82400000Y-56462500D03*
X82400000Y-55512500D03*
X80125000Y-55512500D03*
X80125000Y-57412500D03*
D13*
X77912500Y-57412500D03*
X77912500Y-55512500D03*
D21*
X75208000Y-65959000D03*
X75208000Y-67859000D03*
D26*
X81662500Y-80650000D03*
X79837500Y-80650000D03*
D27*
X82350000Y-61062500D03*
X82350000Y-59237500D03*
D28*
X79800000Y-71750000D03*
X81700000Y-71750000D03*
X79800000Y-74000000D03*
X81700000Y-74000000D03*
D29*
X79300000Y-51250000D03*
X83300000Y-51250000D03*
D28*
X74073500Y-48968000D03*
X75973500Y-48968000D03*
D15*
X74087500Y-51250000D03*
X75912500Y-51250000D03*
D30*
X81873000Y-63988000D03*
X79973000Y-63988000D03*
D31*
X77450000Y-62850000D03*
X86106000Y-65786000D03*
X67056000Y-85090000D03*
X83820000Y-38100000D03*
X67056000Y-62230000D03*
X61976000Y-87630000D03*
X86106000Y-41148000D03*
X75946000Y-85852000D03*
X61976000Y-64770000D03*
X74422000Y-83312000D03*
X86106000Y-62484000D03*
X85344000Y-80518000D03*
X67056000Y-59690000D03*
X86106000Y-60198000D03*
X80518000Y-40132000D03*
X74930000Y-74930000D03*
X83820000Y-45974000D03*
X67056000Y-64770000D03*
X72136000Y-77470000D03*
X61976000Y-82550000D03*
X83820000Y-62484000D03*
X67056000Y-54610000D03*
X76925000Y-58800000D03*
X81280000Y-48006000D03*
X72136000Y-46990000D03*
X77470000Y-42418000D03*
X77470000Y-38100000D03*
X61976000Y-77470000D03*
X67056000Y-82550000D03*
X84900000Y-59950000D03*
X77470000Y-40132000D03*
X61976000Y-44450000D03*
X83820000Y-48006000D03*
X67056000Y-77470000D03*
X75946000Y-87884000D03*
X86106000Y-53848000D03*
X77470000Y-53086000D03*
X73700000Y-54850000D03*
X76962000Y-72644000D03*
X67056000Y-46990000D03*
X86106000Y-44196000D03*
X78994000Y-85852000D03*
X72136000Y-44450000D03*
X75438000Y-45466000D03*
X77978000Y-80518000D03*
X81026000Y-87884000D03*
X86106000Y-48006000D03*
X72136000Y-39370000D03*
X78550000Y-74000000D03*
X85344000Y-83058000D03*
X73406000Y-62230000D03*
X78850000Y-76200000D03*
X72136000Y-82550000D03*
X79248000Y-69342000D03*
X81280000Y-45974000D03*
X74168000Y-64516000D03*
X75438000Y-42418000D03*
X61976000Y-46990000D03*
X67056000Y-80010000D03*
X61976000Y-72390000D03*
X76962000Y-77470000D03*
X83820000Y-42418000D03*
X74676000Y-72644000D03*
X83312000Y-87884000D03*
X61976000Y-39370000D03*
X76962000Y-74930000D03*
X61976000Y-85090000D03*
X72136000Y-49530000D03*
X72136000Y-72390000D03*
X76925000Y-59800000D03*
X83820000Y-64262000D03*
X75375000Y-58800000D03*
X83300000Y-52800000D03*
X80518000Y-42418000D03*
X78994000Y-87884000D03*
X61976000Y-59690000D03*
X83825000Y-59925000D03*
X78750000Y-63950000D03*
X61976000Y-74930000D03*
X61976000Y-62230000D03*
X84950000Y-58775000D03*
X67056000Y-49530000D03*
X61976000Y-80010000D03*
X67056000Y-52070000D03*
X61976000Y-52070000D03*
X67056000Y-87630000D03*
X75375000Y-59775000D03*
X61976000Y-54610000D03*
X86106000Y-69342000D03*
X61976000Y-69850000D03*
X86106000Y-38100000D03*
X83820000Y-69342000D03*
X67056000Y-57150000D03*
X78600000Y-71750000D03*
X80518000Y-38100000D03*
X83300000Y-49600000D03*
X61976000Y-57150000D03*
X67056000Y-69850000D03*
X83820000Y-74422000D03*
X61976000Y-49530000D03*
X72136000Y-85090000D03*
X73700000Y-67850000D03*
X67056000Y-72390000D03*
X72136000Y-74930000D03*
X61976000Y-67310000D03*
X81500000Y-68900000D03*
X83820000Y-72136000D03*
X83312000Y-85852000D03*
X67056000Y-41910000D03*
X67056000Y-74930000D03*
X86106000Y-51054000D03*
X61976000Y-41910000D03*
X83850000Y-58800000D03*
X77650000Y-68950000D03*
X67056000Y-39370000D03*
X74930000Y-77470000D03*
X67056000Y-67310000D03*
X67056000Y-44450000D03*
X81026000Y-85852000D03*
X72136000Y-80010000D03*
X72136000Y-87884000D03*
X84800000Y-71100000D03*
X82500000Y-54550000D03*
X75225000Y-64475000D03*
D32*
X81662500Y-80650000D02*
X81662500Y-78518000D01*
X74350000Y-61575000D02*
X78262500Y-61575000D01*
X75662500Y-55512500D02*
X74762500Y-55512500D01*
X78262500Y-62037500D02*
X77450000Y-62850000D01*
X73700000Y-56575000D02*
X73700000Y-60925000D01*
X81662500Y-80650000D02*
X81662500Y-81887500D01*
X81662500Y-81887500D02*
X81450000Y-82100000D01*
X81450000Y-82100000D02*
X76970000Y-82100000D01*
X81662500Y-78518000D02*
X81700000Y-78480500D01*
X80125000Y-54125000D02*
X79300000Y-53300000D01*
X73700000Y-60925000D02*
X74350000Y-61575000D01*
X78262500Y-61575000D02*
X78262500Y-62037500D01*
X79300000Y-53300000D02*
X79300000Y-51250000D01*
X83601000Y-84014000D02*
X83601000Y-81351000D01*
X80125000Y-55512500D02*
X80125000Y-54125000D01*
X83601000Y-81351000D02*
X82900000Y-80650000D01*
X76970000Y-82100000D02*
X75700000Y-80830000D01*
X74762500Y-55512500D02*
X73700000Y-56575000D01*
X82900000Y-80650000D02*
X81662500Y-80650000D01*
D33*
X81812000Y-68588000D02*
X81500000Y-68900000D01*
D32*
X79800000Y-71750000D02*
X78600000Y-71750000D01*
X74052500Y-53350000D02*
X74052500Y-54497500D01*
D34*
X79800000Y-76205500D02*
X78855500Y-76205500D01*
D33*
X78788000Y-63988000D02*
X78750000Y-63950000D01*
X79973000Y-63988000D02*
X78788000Y-63988000D01*
D34*
X80680000Y-45374000D02*
X81280000Y-45974000D01*
X78855500Y-76205500D02*
X78850000Y-76200000D01*
D33*
X77388000Y-67925000D02*
X77388000Y-68688000D01*
D32*
X83300000Y-51250000D02*
X83300000Y-52800000D01*
D34*
X79946000Y-45374000D02*
X80680000Y-45374000D01*
D33*
X75208000Y-67859000D02*
X73709000Y-67859000D01*
X77388000Y-68688000D02*
X77650000Y-68950000D01*
D32*
X79800000Y-74000000D02*
X78550000Y-74000000D01*
D34*
X80750000Y-76205500D02*
X79800000Y-76205500D01*
D33*
X73709000Y-67859000D02*
X73700000Y-67850000D01*
D32*
X83300000Y-51250000D02*
X83300000Y-49600000D01*
D33*
X81812000Y-67925000D02*
X81812000Y-68588000D01*
D32*
X74052500Y-54497500D02*
X73700000Y-54850000D01*
X72600000Y-69150000D02*
X72600000Y-51850000D01*
X73533000Y-43053000D02*
X64770000Y-43053000D01*
X64551000Y-42834000D02*
X64551000Y-41783000D01*
X85450000Y-78437500D02*
X85450000Y-71750000D01*
X73200000Y-51250000D02*
X74087500Y-51250000D01*
X64551000Y-41783000D02*
X64551000Y-39243000D01*
X74073500Y-43593500D02*
X73533000Y-43053000D01*
X64770000Y-43053000D02*
X64551000Y-42834000D01*
X74120000Y-70670000D02*
X72600000Y-69150000D01*
X74073500Y-48968000D02*
X74073500Y-51236000D01*
X75700000Y-70670000D02*
X74120000Y-70670000D01*
X74073500Y-51236000D02*
X74087500Y-51250000D01*
X72600000Y-51850000D02*
X73200000Y-51250000D01*
X85450000Y-71750000D02*
X84800000Y-71100000D01*
X74073500Y-48968000D02*
X74073500Y-43593500D01*
D34*
X80137500Y-61575000D02*
X80650000Y-61062500D01*
X80650000Y-61062500D02*
X82350000Y-61062500D01*
X75927500Y-51265000D02*
X75912500Y-51250000D01*
X75927500Y-53350000D02*
X75927500Y-51265000D01*
D33*
X80200000Y-66400000D02*
X80200000Y-68750000D01*
D32*
X82800000Y-76200000D02*
X82794500Y-76205500D01*
D33*
X81700000Y-71750000D02*
X81700000Y-74000000D01*
D32*
X82794500Y-76205500D02*
X81700000Y-76205500D01*
D33*
X81700000Y-70250000D02*
X81700000Y-71750000D01*
X81812000Y-65975000D02*
X77388000Y-65975000D01*
D32*
X84137500Y-76200000D02*
X82800000Y-76200000D01*
D33*
X81812000Y-65975000D02*
X80625000Y-65975000D01*
X80200000Y-68750000D02*
X81700000Y-70250000D01*
D32*
X84500000Y-76562500D02*
X84137500Y-76200000D01*
D33*
X80625000Y-65975000D02*
X80200000Y-66400000D01*
X81812000Y-64049000D02*
X81873000Y-63988000D01*
X81700000Y-76205500D02*
X81700000Y-74000000D01*
X81812000Y-65975000D02*
X81812000Y-64049000D01*
X79946000Y-48421000D02*
X78647000Y-48421000D01*
X77388000Y-66625000D02*
X75874000Y-66625000D01*
X77946000Y-47720000D02*
X77946000Y-45374000D01*
X75208000Y-64492000D02*
X75225000Y-64475000D01*
X81275000Y-49750000D02*
X79946000Y-48421000D01*
X75208000Y-65959000D02*
X75208000Y-64492000D01*
X75874000Y-66625000D02*
X75208000Y-65959000D01*
X82500000Y-54550000D02*
X81275000Y-53325000D01*
X81275000Y-53325000D02*
X81275000Y-49750000D01*
X78647000Y-48421000D02*
X77946000Y-47720000D01*
X77388000Y-66625000D02*
X77388000Y-67275000D01*
D34*
X81812000Y-66625000D02*
X83420000Y-66625000D01*
X83420000Y-66625000D02*
X84045000Y-66000000D01*
X81812000Y-67275000D02*
X83420000Y-67275000D01*
X83420000Y-67275000D02*
X84045000Y-67900000D01*
X83350000Y-77300000D02*
X83550000Y-77500000D01*
X80750000Y-78480500D02*
X80750000Y-77600000D01*
X83550000Y-77500000D02*
X83550000Y-78437500D01*
X81050000Y-77300000D02*
X83350000Y-77300000D01*
X80750000Y-77600000D02*
X81050000Y-77300000D01*
X80125000Y-57412500D02*
X80125000Y-59387500D01*
X80125000Y-59387500D02*
X80137500Y-59400000D01*
X79800000Y-80612500D02*
X79837500Y-80650000D01*
X79800000Y-78480500D02*
X79800000Y-80612500D01*
X82350000Y-57462500D02*
X82400000Y-57412500D01*
X82350000Y-59237500D02*
X82350000Y-57462500D01*
G04 #@! TA.AperFunction,Conductor*
G36*
X85015677Y-53969685D02*
G01*
X85036319Y-53986319D01*
X85358709Y-54308709D01*
X85392194Y-54370032D01*
X85387210Y-54439724D01*
X85345338Y-54495657D01*
X85279874Y-54520074D01*
X85258425Y-54519748D01*
X85187486Y-54512500D01*
X84912500Y-54512500D01*
X84912500Y-55638500D01*
X84892815Y-55705539D01*
X84840011Y-55751294D01*
X84788500Y-55762500D01*
X83910792Y-55762500D01*
X83843753Y-55742815D01*
X83836483Y-55737768D01*
X83791561Y-55704141D01*
X83791073Y-55703840D01*
X83789589Y-55703064D01*
X83665279Y-55635189D01*
X83524687Y-55604608D01*
X83524682Y-55604607D01*
X83454994Y-55599625D01*
X83454993Y-55599625D01*
X83311479Y-55609893D01*
X83176676Y-55660175D01*
X83176673Y-55660176D01*
X83176672Y-55660177D01*
X83159799Y-55669391D01*
X83091526Y-55684242D01*
X83065778Y-55679634D01*
X83015073Y-55664902D01*
X83015067Y-55664901D01*
X82978201Y-55662000D01*
X82978194Y-55662000D01*
X82274000Y-55662000D01*
X82206961Y-55642315D01*
X82161206Y-55589511D01*
X82150000Y-55538000D01*
X82150000Y-55262500D01*
X82650000Y-55262500D01*
X84412500Y-55262500D01*
X84412500Y-54512500D01*
X84137529Y-54512500D01*
X84137512Y-54512501D01*
X84034802Y-54522994D01*
X83868380Y-54578141D01*
X83868375Y-54578143D01*
X83719154Y-54670184D01*
X83595183Y-54794155D01*
X83595180Y-54794159D01*
X83550935Y-54865892D01*
X83498987Y-54912617D01*
X83430025Y-54923838D01*
X83365943Y-54895995D01*
X83357716Y-54888476D01*
X83314061Y-54844821D01*
X83314052Y-54844814D01*
X83172696Y-54761217D01*
X83172693Y-54761216D01*
X83014995Y-54715400D01*
X83014989Y-54715399D01*
X82978149Y-54712500D01*
X82650000Y-54712500D01*
X82650000Y-55262500D01*
X82150000Y-55262500D01*
X82150000Y-54712500D01*
X81920126Y-54712500D01*
X81853087Y-54692815D01*
X81807332Y-54640011D01*
X81797723Y-54608335D01*
X81792830Y-54578141D01*
X81791114Y-54567552D01*
X81740832Y-54432743D01*
X81707347Y-54371420D01*
X81707346Y-54371418D01*
X81706353Y-54369600D01*
X81691502Y-54301327D01*
X81715919Y-54235863D01*
X81727485Y-54222514D01*
X81963683Y-53986316D01*
X82025004Y-53952834D01*
X82051362Y-53950000D01*
X84948638Y-53950000D01*
X85015677Y-53969685D01*
G37*
G04 #@! TD.AperFunction*
G04 #@! TA.AperFunction,Conductor*
G36*
X73559703Y-61852173D02*
G01*
X73566181Y-61858205D01*
X73759600Y-62051624D01*
X73759621Y-62051647D01*
X73869031Y-62161057D01*
X73901536Y-62182776D01*
X73901535Y-62182776D01*
X73992600Y-62243623D01*
X73992602Y-62243624D01*
X73992611Y-62243630D01*
X74026288Y-62257579D01*
X74026289Y-62257580D01*
X74026290Y-62257580D01*
X74129920Y-62300505D01*
X74129922Y-62300505D01*
X74129924Y-62300506D01*
X74154104Y-62305315D01*
X74154110Y-62305316D01*
X74275686Y-62329501D01*
X74275688Y-62329501D01*
X74430426Y-62329501D01*
X74430446Y-62329500D01*
X76609277Y-62329500D01*
X76676316Y-62349185D01*
X76722071Y-62401989D01*
X76732015Y-62471147D01*
X76726318Y-62494455D01*
X76664633Y-62670737D01*
X76664630Y-62670750D01*
X76644435Y-62849996D01*
X76644435Y-62850003D01*
X76664630Y-63029249D01*
X76664631Y-63029254D01*
X76724211Y-63199523D01*
X76820184Y-63352262D01*
X76947738Y-63479816D01*
X77100478Y-63575789D01*
X77270745Y-63635368D01*
X77270750Y-63635369D01*
X77449996Y-63655565D01*
X77450000Y-63655565D01*
X77450004Y-63655565D01*
X77629249Y-63635369D01*
X77629252Y-63635368D01*
X77629255Y-63635368D01*
X77799522Y-63575789D01*
X77952262Y-63479816D01*
X78079816Y-63352262D01*
X78175789Y-63199522D01*
X78175789Y-63199520D01*
X78179494Y-63193625D01*
X78180299Y-63194131D01*
X78198382Y-63168641D01*
X78564391Y-62802631D01*
X78625712Y-62769148D01*
X78639448Y-62766959D01*
X78657775Y-62765087D01*
X78822925Y-62710362D01*
X78971003Y-62619026D01*
X79094026Y-62496003D01*
X79094458Y-62495301D01*
X79094881Y-62494921D01*
X79098507Y-62490336D01*
X79099290Y-62490955D01*
X79146402Y-62448575D01*
X79215364Y-62437349D01*
X79279448Y-62465188D01*
X79301342Y-62490455D01*
X79301493Y-62490336D01*
X79304143Y-62493687D01*
X79305540Y-62495299D01*
X79305972Y-62495999D01*
X79305975Y-62496004D01*
X79434104Y-62624133D01*
X79433166Y-62625070D01*
X79469121Y-62675850D01*
X79472259Y-62745649D01*
X79437162Y-62806064D01*
X79409887Y-62824628D01*
X79410025Y-62824851D01*
X79405082Y-62827899D01*
X79404240Y-62828473D01*
X79403882Y-62828639D01*
X79254654Y-62920684D01*
X79130684Y-63044654D01*
X79038643Y-63193875D01*
X79038641Y-63193880D01*
X78983494Y-63360302D01*
X78983493Y-63360309D01*
X78973000Y-63463013D01*
X78973000Y-63738000D01*
X80099000Y-63738000D01*
X80166039Y-63757685D01*
X80211794Y-63810489D01*
X80223000Y-63862000D01*
X80223000Y-64114000D01*
X80203315Y-64181039D01*
X80150511Y-64226794D01*
X80099000Y-64238000D01*
X78973001Y-64238000D01*
X78973001Y-64512986D01*
X78983494Y-64615697D01*
X79038641Y-64782119D01*
X79038643Y-64782124D01*
X79130684Y-64931345D01*
X79254654Y-65055315D01*
X79318930Y-65094961D01*
X79365654Y-65146909D01*
X79376877Y-65215872D01*
X79349033Y-65279954D01*
X79290965Y-65318810D01*
X79253833Y-65324500D01*
X78407987Y-65324500D01*
X78348558Y-65309331D01*
X78342830Y-65306203D01*
X78207982Y-65255908D01*
X78207983Y-65255908D01*
X78148383Y-65249501D01*
X78148381Y-65249500D01*
X78148373Y-65249500D01*
X78148364Y-65249500D01*
X76627629Y-65249500D01*
X76627623Y-65249501D01*
X76568015Y-65255909D01*
X76433596Y-65306043D01*
X76363904Y-65311027D01*
X76302582Y-65277541D01*
X76284726Y-65254958D01*
X76281359Y-65249500D01*
X76275712Y-65240344D01*
X76151656Y-65116288D01*
X76002334Y-65024186D01*
X76002333Y-65024185D01*
X75995791Y-65021136D01*
X75996776Y-65019023D01*
X75948530Y-64985621D01*
X75921707Y-64921105D01*
X75934022Y-64852329D01*
X75939988Y-64841711D01*
X75945843Y-64832393D01*
X75950789Y-64824522D01*
X76010368Y-64654255D01*
X76014701Y-64615797D01*
X76030565Y-64475003D01*
X76030565Y-64474996D01*
X76010369Y-64295750D01*
X76010368Y-64295745D01*
X75986241Y-64226794D01*
X75950789Y-64125478D01*
X75931719Y-64095129D01*
X75854815Y-63972737D01*
X75727262Y-63845184D01*
X75574523Y-63749211D01*
X75404254Y-63689631D01*
X75404249Y-63689630D01*
X75225004Y-63669435D01*
X75224996Y-63669435D01*
X75045750Y-63689630D01*
X75045745Y-63689631D01*
X74875476Y-63749211D01*
X74722737Y-63845184D01*
X74595184Y-63972737D01*
X74499211Y-64125476D01*
X74439631Y-64295745D01*
X74439630Y-64295750D01*
X74419435Y-64474996D01*
X74419435Y-64475003D01*
X74439630Y-64654249D01*
X74439631Y-64654254D01*
X74499212Y-64824527D01*
X74504155Y-64832393D01*
X74523154Y-64899630D01*
X74502784Y-64966465D01*
X74449515Y-65011677D01*
X74438166Y-65016067D01*
X74413672Y-65024183D01*
X74413663Y-65024187D01*
X74264342Y-65116289D01*
X74140289Y-65240342D01*
X74048187Y-65389663D01*
X74048186Y-65389666D01*
X73993001Y-65556203D01*
X73993001Y-65556204D01*
X73993000Y-65556204D01*
X73982500Y-65658983D01*
X73982500Y-66259001D01*
X73982501Y-66259019D01*
X73993000Y-66361796D01*
X73993001Y-66361799D01*
X74048185Y-66528331D01*
X74048187Y-66528336D01*
X74083069Y-66584888D01*
X74140288Y-66677656D01*
X74264344Y-66801712D01*
X74267628Y-66803737D01*
X74267653Y-66803753D01*
X74269445Y-66805746D01*
X74270011Y-66806193D01*
X74269934Y-66806289D01*
X74314379Y-66855699D01*
X74325603Y-66924661D01*
X74297761Y-66988744D01*
X74267665Y-67014826D01*
X74264660Y-67016679D01*
X74264655Y-67016683D01*
X74140684Y-67140654D01*
X74048643Y-67289875D01*
X74048641Y-67289880D01*
X73993494Y-67456302D01*
X73993493Y-67456309D01*
X73983000Y-67559013D01*
X73983000Y-67609000D01*
X76095879Y-67609000D01*
X76162918Y-67628685D01*
X76208673Y-67681489D01*
X76212061Y-67689667D01*
X76231702Y-67742328D01*
X76231706Y-67742335D01*
X76317952Y-67857544D01*
X76317955Y-67857547D01*
X76410376Y-67926734D01*
X76452247Y-67982668D01*
X76457231Y-68052359D01*
X76423745Y-68113682D01*
X76362422Y-68147166D01*
X76336065Y-68150000D01*
X76224862Y-68150000D01*
X76157823Y-68130315D01*
X76137181Y-68113681D01*
X76132500Y-68109000D01*
X73983001Y-68109000D01*
X73983001Y-68158986D01*
X73993494Y-68261697D01*
X74048641Y-68428119D01*
X74048643Y-68428124D01*
X74140684Y-68577345D01*
X74264654Y-68701315D01*
X74374455Y-68769041D01*
X74421179Y-68820989D01*
X74432402Y-68889952D01*
X74404558Y-68954034D01*
X74352692Y-68990762D01*
X74257669Y-69026203D01*
X74257664Y-69026206D01*
X74142455Y-69112452D01*
X74142452Y-69112455D01*
X74056206Y-69227664D01*
X74056203Y-69227669D01*
X74039008Y-69273773D01*
X73997136Y-69329706D01*
X73931672Y-69354123D01*
X73863399Y-69339271D01*
X73835145Y-69318120D01*
X73390819Y-68873794D01*
X73357334Y-68812471D01*
X73354500Y-68786113D01*
X73354500Y-61945886D01*
X73374185Y-61878847D01*
X73426989Y-61833092D01*
X73496147Y-61823148D01*
X73559703Y-61852173D01*
G37*
G04 #@! TD.AperFunction*
G04 #@! TA.AperFunction,Conductor*
G36*
X75325000Y-60500000D02*
G01*
X77554130Y-60500000D01*
X77552975Y-60516150D01*
X77524474Y-60560497D01*
X77430975Y-60653995D01*
X77430974Y-60653997D01*
X77364604Y-60761598D01*
X77312658Y-60808321D01*
X77259067Y-60820500D01*
X74713886Y-60820500D01*
X74646847Y-60800815D01*
X74626210Y-60784185D01*
X74490817Y-60648792D01*
X74457334Y-60587471D01*
X74454500Y-60561113D01*
X74454500Y-59629500D01*
X75325000Y-60500000D01*
G37*
G04 #@! TD.AperFunction*
G04 #@! TA.AperFunction,Conductor*
G36*
X83868166Y-56447314D02*
G01*
X83876272Y-56450000D01*
X83850000Y-56450000D01*
X83813750Y-56413750D01*
X83868166Y-56447314D01*
G37*
G04 #@! TD.AperFunction*
G04 #@! TA.AperFunction,Conductor*
G36*
X79381978Y-56272924D02*
G01*
X79509926Y-56310097D01*
X79509929Y-56310097D01*
X79509931Y-56310098D01*
X79546806Y-56313000D01*
X79546814Y-56313000D01*
X80703186Y-56313000D01*
X80703194Y-56313000D01*
X80712752Y-56312247D01*
X80700000Y-56325000D01*
X78917199Y-56325000D01*
X78922152Y-56324103D01*
X78923184Y-56323953D01*
X78923209Y-56323951D01*
X78959788Y-56318659D01*
X78977623Y-56315409D01*
X79013754Y-56307448D01*
X79085076Y-56277608D01*
X79132935Y-56268000D01*
X79347383Y-56268000D01*
X79381978Y-56272924D01*
G37*
G04 #@! TD.AperFunction*
G04 #@! TA.AperFunction,Conductor*
G36*
X74245539Y-53119685D02*
G01*
X74291294Y-53172489D01*
X74302500Y-53224000D01*
X74302500Y-54383569D01*
X74301684Y-54394968D01*
X74301816Y-54394978D01*
X74301500Y-54399395D01*
X74301500Y-54509812D01*
X74299117Y-54534004D01*
X74294314Y-54558150D01*
X74287257Y-54581414D01*
X74277832Y-54604166D01*
X74266376Y-54625599D01*
X74252699Y-54646069D01*
X74237276Y-54664862D01*
X74090944Y-54811192D01*
X74036082Y-54876169D01*
X74005784Y-54918880D01*
X74004080Y-54921074D01*
X74004105Y-54921093D01*
X74001236Y-54925006D01*
X73997980Y-54929879D01*
X73995141Y-54933881D01*
X73992383Y-54939153D01*
X73991000Y-54941354D01*
X73990998Y-54941356D01*
X73933266Y-55070366D01*
X73918231Y-55122552D01*
X73918230Y-55122556D01*
X73914259Y-55136334D01*
X73914257Y-55136345D01*
X73894180Y-55278549D01*
X73865317Y-55342179D01*
X73859079Y-55348895D01*
X73566181Y-55641794D01*
X73504858Y-55675279D01*
X73435167Y-55670295D01*
X73379233Y-55628424D01*
X73354816Y-55562959D01*
X73354500Y-55554113D01*
X73354500Y-54610966D01*
X73374185Y-54543927D01*
X73426989Y-54498172D01*
X73496147Y-54488228D01*
X73517504Y-54493260D01*
X73657326Y-54539592D01*
X73759184Y-54549999D01*
X73759197Y-54550000D01*
X73802500Y-54550000D01*
X73802500Y-53224000D01*
X73822185Y-53156961D01*
X73874989Y-53111206D01*
X73926500Y-53100000D01*
X74178500Y-53100000D01*
X74245539Y-53119685D01*
G37*
G04 #@! TD.AperFunction*
G04 #@! TA.AperFunction,Conductor*
G36*
X74351987Y-37738685D02*
G01*
X74397742Y-37791489D01*
X74407686Y-37860647D01*
X74402654Y-37882004D01*
X74356494Y-38021303D01*
X74356493Y-38021310D01*
X74346000Y-38124014D01*
X74346000Y-39374000D01*
X76846000Y-39374000D01*
X76846000Y-38124027D01*
X76845999Y-38124014D01*
X76835506Y-38021310D01*
X76835505Y-38021303D01*
X76789346Y-37882004D01*
X76786944Y-37812175D01*
X76822676Y-37752134D01*
X76885197Y-37720941D01*
X76907052Y-37719000D01*
X80984948Y-37719000D01*
X81051987Y-37738685D01*
X81097742Y-37791489D01*
X81107686Y-37860647D01*
X81102654Y-37882004D01*
X81056494Y-38021303D01*
X81056493Y-38021310D01*
X81046000Y-38124014D01*
X81046000Y-39374000D01*
X83546000Y-39374000D01*
X83546000Y-38124027D01*
X83545999Y-38124014D01*
X83535506Y-38021310D01*
X83535505Y-38021303D01*
X83489346Y-37882004D01*
X83486944Y-37812175D01*
X83522676Y-37752134D01*
X83585197Y-37720941D01*
X83607052Y-37719000D01*
X86617000Y-37719000D01*
X86684039Y-37738685D01*
X86729794Y-37791489D01*
X86741000Y-37843000D01*
X86741000Y-84573772D01*
X86721315Y-84640811D01*
X86668511Y-84686566D01*
X86599353Y-84696510D01*
X86558513Y-84681776D01*
X86558072Y-84682644D01*
X86392447Y-84598252D01*
X86392441Y-84598250D01*
X86220295Y-84542318D01*
X86220285Y-84542315D01*
X86201000Y-84539260D01*
X86201000Y-85469025D01*
X86165905Y-85433930D01*
X86086095Y-85387852D01*
X85997078Y-85364000D01*
X85904922Y-85364000D01*
X85815905Y-85387852D01*
X85736095Y-85433930D01*
X85701000Y-85469025D01*
X85701000Y-84539260D01*
X85681714Y-84542315D01*
X85681704Y-84542318D01*
X85509558Y-84598250D01*
X85509552Y-84598252D01*
X85348265Y-84680434D01*
X85201830Y-84786823D01*
X85073823Y-84914830D01*
X84967434Y-85061265D01*
X84885252Y-85222552D01*
X84885251Y-85222555D01*
X84829317Y-85394706D01*
X84801000Y-85573493D01*
X84801000Y-86364000D01*
X85601000Y-86364000D01*
X85601000Y-86864000D01*
X84801000Y-86864000D01*
X84801000Y-87654506D01*
X84829317Y-87833293D01*
X84885251Y-88005444D01*
X84885252Y-88005447D01*
X84967434Y-88166734D01*
X85073823Y-88313169D01*
X85201830Y-88441176D01*
X85348265Y-88547565D01*
X85509552Y-88629747D01*
X85509555Y-88629748D01*
X85596719Y-88658069D01*
X85654394Y-88697506D01*
X85681593Y-88761865D01*
X85669679Y-88830711D01*
X85622435Y-88882187D01*
X85558401Y-88900000D01*
X74643599Y-88900000D01*
X74576560Y-88880315D01*
X74530805Y-88827511D01*
X74520861Y-88758353D01*
X74549886Y-88694797D01*
X74605281Y-88658069D01*
X74692444Y-88629748D01*
X74692447Y-88629747D01*
X74853734Y-88547565D01*
X75000169Y-88441176D01*
X75128176Y-88313169D01*
X75234565Y-88166734D01*
X75316747Y-88005447D01*
X75316748Y-88005444D01*
X75372682Y-87833293D01*
X75401000Y-87654506D01*
X75401000Y-86864000D01*
X74601000Y-86864000D01*
X74601000Y-86693240D01*
X77046500Y-86693240D01*
X77077414Y-86848656D01*
X77077416Y-86848664D01*
X77138059Y-86995071D01*
X77138064Y-86995080D01*
X77226103Y-87126838D01*
X77226106Y-87126842D01*
X77338157Y-87238893D01*
X77338161Y-87238896D01*
X77469919Y-87326935D01*
X77469925Y-87326938D01*
X77469926Y-87326939D01*
X77616336Y-87387584D01*
X77771759Y-87418499D01*
X77771763Y-87418500D01*
X77771764Y-87418500D01*
X77930237Y-87418500D01*
X77930238Y-87418499D01*
X78085664Y-87387584D01*
X78232074Y-87326939D01*
X78363839Y-87238896D01*
X78475896Y-87126839D01*
X78563939Y-86995074D01*
X78624584Y-86848664D01*
X78655499Y-86693240D01*
X81546500Y-86693240D01*
X81577414Y-86848656D01*
X81577416Y-86848664D01*
X81638059Y-86995071D01*
X81638064Y-86995080D01*
X81726103Y-87126838D01*
X81726106Y-87126842D01*
X81838157Y-87238893D01*
X81838161Y-87238896D01*
X81969919Y-87326935D01*
X81969925Y-87326938D01*
X81969926Y-87326939D01*
X82116336Y-87387584D01*
X82271759Y-87418499D01*
X82271763Y-87418500D01*
X82271764Y-87418500D01*
X82430237Y-87418500D01*
X82430238Y-87418499D01*
X82585664Y-87387584D01*
X82732074Y-87326939D01*
X82863839Y-87238896D01*
X82975896Y-87126839D01*
X83063939Y-86995074D01*
X83124584Y-86848664D01*
X83155500Y-86693236D01*
X83155500Y-86534764D01*
X83124584Y-86379336D01*
X83063939Y-86232926D01*
X83063938Y-86232925D01*
X83063935Y-86232919D01*
X82975896Y-86101161D01*
X82975893Y-86101157D01*
X82863842Y-85989106D01*
X82863838Y-85989103D01*
X82732080Y-85901064D01*
X82732071Y-85901059D01*
X82585664Y-85840416D01*
X82585656Y-85840414D01*
X82430240Y-85809500D01*
X82430236Y-85809500D01*
X82271764Y-85809500D01*
X82271759Y-85809500D01*
X82116343Y-85840414D01*
X82116335Y-85840416D01*
X81969928Y-85901059D01*
X81969919Y-85901064D01*
X81838161Y-85989103D01*
X81838157Y-85989106D01*
X81726106Y-86101157D01*
X81726103Y-86101161D01*
X81638064Y-86232919D01*
X81638059Y-86232928D01*
X81577416Y-86379335D01*
X81577414Y-86379343D01*
X81546500Y-86534759D01*
X81546500Y-86693240D01*
X78655499Y-86693240D01*
X78655500Y-86693236D01*
X78655500Y-86534764D01*
X78624584Y-86379336D01*
X78563939Y-86232926D01*
X78563938Y-86232925D01*
X78563935Y-86232919D01*
X78475896Y-86101161D01*
X78475893Y-86101157D01*
X78363842Y-85989106D01*
X78363838Y-85989103D01*
X78232080Y-85901064D01*
X78232071Y-85901059D01*
X78085664Y-85840416D01*
X78085656Y-85840414D01*
X77930240Y-85809500D01*
X77930236Y-85809500D01*
X77771764Y-85809500D01*
X77771759Y-85809500D01*
X77616343Y-85840414D01*
X77616335Y-85840416D01*
X77469928Y-85901059D01*
X77469919Y-85901064D01*
X77338161Y-85989103D01*
X77338157Y-85989106D01*
X77226106Y-86101157D01*
X77226103Y-86101161D01*
X77138064Y-86232919D01*
X77138059Y-86232928D01*
X77077416Y-86379335D01*
X77077414Y-86379343D01*
X77046500Y-86534759D01*
X77046500Y-86693240D01*
X74601000Y-86693240D01*
X74601000Y-86364000D01*
X75401000Y-86364000D01*
X75401000Y-85573493D01*
X75372682Y-85394706D01*
X75316748Y-85222555D01*
X75316747Y-85222552D01*
X75234565Y-85061265D01*
X75128176Y-84914830D01*
X75000169Y-84786823D01*
X74853734Y-84680434D01*
X74692447Y-84598252D01*
X74692441Y-84598250D01*
X74520295Y-84542318D01*
X74520285Y-84542315D01*
X74501000Y-84539260D01*
X74501000Y-85469025D01*
X74465905Y-85433930D01*
X74386095Y-85387852D01*
X74297078Y-85364000D01*
X74204922Y-85364000D01*
X74115905Y-85387852D01*
X74036095Y-85433930D01*
X74001000Y-85469025D01*
X74001000Y-84539260D01*
X73981714Y-84542315D01*
X73981704Y-84542318D01*
X73809558Y-84598250D01*
X73809552Y-84598252D01*
X73648265Y-84680434D01*
X73501830Y-84786823D01*
X73373823Y-84914830D01*
X73267434Y-85061265D01*
X73185252Y-85222552D01*
X73185251Y-85222555D01*
X73129317Y-85394706D01*
X73101000Y-85573493D01*
X73101000Y-86364000D01*
X73901000Y-86364000D01*
X73901000Y-86864000D01*
X73101000Y-86864000D01*
X73101000Y-87654506D01*
X73129317Y-87833293D01*
X73185251Y-88005444D01*
X73185252Y-88005447D01*
X73267434Y-88166734D01*
X73373823Y-88313169D01*
X73501830Y-88441176D01*
X73648265Y-88547565D01*
X73809552Y-88629747D01*
X73809555Y-88629748D01*
X73896719Y-88658069D01*
X73954394Y-88697506D01*
X73981593Y-88761865D01*
X73969679Y-88830711D01*
X73922435Y-88882187D01*
X73858401Y-88900000D01*
X61465000Y-88900000D01*
X61397961Y-88880315D01*
X61352206Y-88827511D01*
X61341000Y-88776000D01*
X61341000Y-88050870D01*
X62550500Y-88050870D01*
X62550501Y-88050876D01*
X62556908Y-88110483D01*
X62607202Y-88245328D01*
X62607206Y-88245335D01*
X62693452Y-88360544D01*
X62693455Y-88360547D01*
X62808664Y-88446793D01*
X62808671Y-88446797D01*
X62943517Y-88497091D01*
X62943516Y-88497091D01*
X62950444Y-88497835D01*
X63003127Y-88503500D01*
X66098872Y-88503499D01*
X66158483Y-88497091D01*
X66293331Y-88446796D01*
X66408546Y-88360546D01*
X66494796Y-88245331D01*
X66545091Y-88110483D01*
X66551500Y-88050873D01*
X66551500Y-87753000D01*
X67591000Y-87753000D01*
X67591000Y-88050844D01*
X67597401Y-88110372D01*
X67597403Y-88110379D01*
X67647645Y-88245086D01*
X67647649Y-88245093D01*
X67733809Y-88360187D01*
X67733812Y-88360190D01*
X67848906Y-88446350D01*
X67848913Y-88446354D01*
X67983620Y-88496596D01*
X67983627Y-88496598D01*
X68043155Y-88502999D01*
X68043172Y-88503000D01*
X69341000Y-88503000D01*
X69341000Y-87753000D01*
X69841000Y-87753000D01*
X69841000Y-88503000D01*
X71138828Y-88503000D01*
X71138844Y-88502999D01*
X71198372Y-88496598D01*
X71198379Y-88496596D01*
X71333086Y-88446354D01*
X71333093Y-88446350D01*
X71448187Y-88360190D01*
X71448190Y-88360187D01*
X71534350Y-88245093D01*
X71534354Y-88245086D01*
X71584596Y-88110379D01*
X71584598Y-88110372D01*
X71590999Y-88050844D01*
X71591000Y-88050827D01*
X71591000Y-87753000D01*
X69841000Y-87753000D01*
X69341000Y-87753000D01*
X67591000Y-87753000D01*
X66551500Y-87753000D01*
X66551499Y-87253000D01*
X67591000Y-87253000D01*
X69341000Y-87253000D01*
X69341000Y-86503000D01*
X69841000Y-86503000D01*
X69841000Y-87253000D01*
X71591000Y-87253000D01*
X71591000Y-86955172D01*
X71590999Y-86955155D01*
X71584598Y-86895627D01*
X71584596Y-86895620D01*
X71534354Y-86760913D01*
X71534350Y-86760906D01*
X71448190Y-86645812D01*
X71448187Y-86645809D01*
X71333093Y-86559649D01*
X71333086Y-86559645D01*
X71198379Y-86509403D01*
X71198372Y-86509401D01*
X71138844Y-86503000D01*
X69841000Y-86503000D01*
X69341000Y-86503000D01*
X68043155Y-86503000D01*
X67983627Y-86509401D01*
X67983620Y-86509403D01*
X67848913Y-86559645D01*
X67848906Y-86559649D01*
X67733812Y-86645809D01*
X67733809Y-86645812D01*
X67647649Y-86760906D01*
X67647645Y-86760913D01*
X67597403Y-86895620D01*
X67597401Y-86895627D01*
X67591000Y-86955155D01*
X67591000Y-87253000D01*
X66551499Y-87253000D01*
X66551499Y-86955128D01*
X66545091Y-86895517D01*
X66529156Y-86852794D01*
X66494797Y-86760671D01*
X66494793Y-86760664D01*
X66408547Y-86645455D01*
X66408544Y-86645452D01*
X66293335Y-86559206D01*
X66293328Y-86559202D01*
X66158482Y-86508908D01*
X66158483Y-86508908D01*
X66098883Y-86502501D01*
X66098881Y-86502500D01*
X66098873Y-86502500D01*
X66098864Y-86502500D01*
X63003129Y-86502500D01*
X63003123Y-86502501D01*
X62943516Y-86508908D01*
X62808671Y-86559202D01*
X62808664Y-86559206D01*
X62693455Y-86645452D01*
X62693452Y-86645455D01*
X62607206Y-86760664D01*
X62607202Y-86760671D01*
X62556908Y-86895517D01*
X62550501Y-86955116D01*
X62550501Y-86955123D01*
X62550500Y-86955135D01*
X62550500Y-88050870D01*
X61341000Y-88050870D01*
X61341000Y-85510870D01*
X62550500Y-85510870D01*
X62550501Y-85510876D01*
X62556908Y-85570483D01*
X62607202Y-85705328D01*
X62607206Y-85705335D01*
X62693452Y-85820544D01*
X62693455Y-85820547D01*
X62808664Y-85906793D01*
X62808671Y-85906797D01*
X62943517Y-85957091D01*
X62943516Y-85957091D01*
X62950444Y-85957835D01*
X63003127Y-85963500D01*
X66098872Y-85963499D01*
X66158483Y-85957091D01*
X66293331Y-85906796D01*
X66408546Y-85820546D01*
X66494796Y-85705331D01*
X66545091Y-85570483D01*
X66551500Y-85510873D01*
X66551500Y-85510870D01*
X67590500Y-85510870D01*
X67590501Y-85510876D01*
X67596908Y-85570483D01*
X67647202Y-85705328D01*
X67647206Y-85705335D01*
X67733452Y-85820544D01*
X67733455Y-85820547D01*
X67848664Y-85906793D01*
X67848671Y-85906797D01*
X67983517Y-85957091D01*
X67983516Y-85957091D01*
X67990444Y-85957835D01*
X68043127Y-85963500D01*
X71138872Y-85963499D01*
X71198483Y-85957091D01*
X71333331Y-85906796D01*
X71448546Y-85820546D01*
X71534796Y-85705331D01*
X71585091Y-85570483D01*
X71591500Y-85510873D01*
X71591499Y-84415128D01*
X71585091Y-84355517D01*
X71550957Y-84264000D01*
X75501000Y-84264000D01*
X75501000Y-84758930D01*
X75516122Y-84893141D01*
X75575663Y-85063301D01*
X75671577Y-85215948D01*
X75799051Y-85343422D01*
X75951698Y-85439336D01*
X76121858Y-85498877D01*
X76256069Y-85513999D01*
X76256070Y-85514000D01*
X76351000Y-85514000D01*
X76351000Y-84264000D01*
X76851000Y-84264000D01*
X76851000Y-85514000D01*
X76945930Y-85514000D01*
X76945930Y-85513999D01*
X77080141Y-85498877D01*
X77250301Y-85439336D01*
X77402948Y-85343422D01*
X77530422Y-85215948D01*
X77626336Y-85063301D01*
X77685877Y-84893141D01*
X77700999Y-84758930D01*
X77701000Y-84758930D01*
X77701000Y-84264000D01*
X76851000Y-84264000D01*
X76351000Y-84264000D01*
X75501000Y-84264000D01*
X71550957Y-84264000D01*
X71534797Y-84220671D01*
X71534793Y-84220664D01*
X71448547Y-84105455D01*
X71448544Y-84105452D01*
X71333335Y-84019206D01*
X71333328Y-84019202D01*
X71198482Y-83968908D01*
X71198483Y-83968908D01*
X71138883Y-83962501D01*
X71138881Y-83962500D01*
X71138873Y-83962500D01*
X71138864Y-83962500D01*
X68043129Y-83962500D01*
X68043123Y-83962501D01*
X67983516Y-83968908D01*
X67848671Y-84019202D01*
X67848664Y-84019206D01*
X67733455Y-84105452D01*
X67733452Y-84105455D01*
X67647206Y-84220664D01*
X67647202Y-84220671D01*
X67596908Y-84355517D01*
X67590501Y-84415116D01*
X67590501Y-84415123D01*
X67590500Y-84415135D01*
X67590500Y-85510870D01*
X66551500Y-85510870D01*
X66551499Y-84415128D01*
X66545091Y-84355517D01*
X66510957Y-84264000D01*
X66494797Y-84220671D01*
X66494793Y-84220664D01*
X66408547Y-84105455D01*
X66408544Y-84105452D01*
X66293335Y-84019206D01*
X66293328Y-84019202D01*
X66158482Y-83968908D01*
X66158483Y-83968908D01*
X66098883Y-83962501D01*
X66098881Y-83962500D01*
X66098873Y-83962500D01*
X66098864Y-83962500D01*
X63003129Y-83962500D01*
X63003123Y-83962501D01*
X62943516Y-83968908D01*
X62808671Y-84019202D01*
X62808664Y-84019206D01*
X62693455Y-84105452D01*
X62693452Y-84105455D01*
X62607206Y-84220664D01*
X62607202Y-84220671D01*
X62556908Y-84355517D01*
X62550501Y-84415116D01*
X62550501Y-84415123D01*
X62550500Y-84415135D01*
X62550500Y-85510870D01*
X61341000Y-85510870D01*
X61341000Y-82970870D01*
X62550500Y-82970870D01*
X62550501Y-82970876D01*
X62556908Y-83030483D01*
X62607202Y-83165328D01*
X62607206Y-83165335D01*
X62693452Y-83280544D01*
X62693455Y-83280547D01*
X62808664Y-83366793D01*
X62808671Y-83366797D01*
X62943517Y-83417091D01*
X62943516Y-83417091D01*
X62950444Y-83417835D01*
X63003127Y-83423500D01*
X66098872Y-83423499D01*
X66158483Y-83417091D01*
X66293331Y-83366796D01*
X66408546Y-83280546D01*
X66494796Y-83165331D01*
X66545091Y-83030483D01*
X66551500Y-82970873D01*
X66551500Y-82970870D01*
X67590500Y-82970870D01*
X67590501Y-82970876D01*
X67596908Y-83030483D01*
X67647202Y-83165328D01*
X67647206Y-83165335D01*
X67733452Y-83280544D01*
X67733455Y-83280547D01*
X67848664Y-83366793D01*
X67848671Y-83366797D01*
X67983517Y-83417091D01*
X67983516Y-83417091D01*
X67990444Y-83417835D01*
X68043127Y-83423500D01*
X71138872Y-83423499D01*
X71198483Y-83417091D01*
X71333331Y-83366796D01*
X71448546Y-83280546D01*
X71534796Y-83165331D01*
X71585091Y-83030483D01*
X71591500Y-82970873D01*
X71591499Y-81875128D01*
X71585091Y-81815517D01*
X71534796Y-81680669D01*
X71534795Y-81680668D01*
X71534793Y-81680664D01*
X71448547Y-81565455D01*
X71448544Y-81565452D01*
X71333335Y-81479206D01*
X71333328Y-81479202D01*
X71198482Y-81428908D01*
X71198483Y-81428908D01*
X71138883Y-81422501D01*
X71138881Y-81422500D01*
X71138873Y-81422500D01*
X71138864Y-81422500D01*
X68043129Y-81422500D01*
X68043123Y-81422501D01*
X67983516Y-81428908D01*
X67848671Y-81479202D01*
X67848664Y-81479206D01*
X67733455Y-81565452D01*
X67733452Y-81565455D01*
X67647206Y-81680664D01*
X67647202Y-81680671D01*
X67596908Y-81815517D01*
X67590501Y-81875116D01*
X67590501Y-81875123D01*
X67590500Y-81875135D01*
X67590500Y-82970870D01*
X66551500Y-82970870D01*
X66551499Y-81875128D01*
X66545091Y-81815517D01*
X66494796Y-81680669D01*
X66494795Y-81680668D01*
X66494793Y-81680664D01*
X66408547Y-81565455D01*
X66408544Y-81565452D01*
X66293335Y-81479206D01*
X66293328Y-81479202D01*
X66158482Y-81428908D01*
X66158483Y-81428908D01*
X66098883Y-81422501D01*
X66098881Y-81422500D01*
X66098873Y-81422500D01*
X66098864Y-81422500D01*
X63003129Y-81422500D01*
X63003123Y-81422501D01*
X62943516Y-81428908D01*
X62808671Y-81479202D01*
X62808664Y-81479206D01*
X62693455Y-81565452D01*
X62693452Y-81565455D01*
X62607206Y-81680664D01*
X62607202Y-81680671D01*
X62556908Y-81815517D01*
X62550501Y-81875116D01*
X62550501Y-81875123D01*
X62550500Y-81875135D01*
X62550500Y-82970870D01*
X61341000Y-82970870D01*
X61341000Y-80133000D01*
X62551000Y-80133000D01*
X62551000Y-80430844D01*
X62557401Y-80490372D01*
X62557403Y-80490379D01*
X62607645Y-80625086D01*
X62607649Y-80625093D01*
X62693809Y-80740187D01*
X62693812Y-80740190D01*
X62808906Y-80826350D01*
X62808913Y-80826354D01*
X62943620Y-80876596D01*
X62943627Y-80876598D01*
X63003155Y-80882999D01*
X63003172Y-80883000D01*
X64301000Y-80883000D01*
X64301000Y-80133000D01*
X64801000Y-80133000D01*
X64801000Y-80883000D01*
X66098828Y-80883000D01*
X66098844Y-80882999D01*
X66158372Y-80876598D01*
X66158379Y-80876596D01*
X66293086Y-80826354D01*
X66293093Y-80826350D01*
X66408187Y-80740190D01*
X66408190Y-80740187D01*
X66494350Y-80625093D01*
X66494354Y-80625086D01*
X66544596Y-80490379D01*
X66544598Y-80490372D01*
X66550996Y-80430870D01*
X67590500Y-80430870D01*
X67590501Y-80430876D01*
X67596908Y-80490483D01*
X67647202Y-80625328D01*
X67647206Y-80625335D01*
X67733452Y-80740544D01*
X67733455Y-80740547D01*
X67848664Y-80826793D01*
X67848671Y-80826797D01*
X67983517Y-80877091D01*
X67983516Y-80877091D01*
X67990444Y-80877835D01*
X68043127Y-80883500D01*
X71138872Y-80883499D01*
X71198483Y-80877091D01*
X71333331Y-80826796D01*
X71448546Y-80740546D01*
X71534796Y-80625331D01*
X71585091Y-80490483D01*
X71591500Y-80430873D01*
X71591499Y-79335128D01*
X71585091Y-79275517D01*
X71576841Y-79253398D01*
X71534797Y-79140671D01*
X71534793Y-79140664D01*
X71448547Y-79025455D01*
X71448544Y-79025452D01*
X71333335Y-78939206D01*
X71333328Y-78939202D01*
X71198482Y-78888908D01*
X71198483Y-78888908D01*
X71138883Y-78882501D01*
X71138881Y-78882500D01*
X71138873Y-78882500D01*
X71138864Y-78882500D01*
X68043129Y-78882500D01*
X68043123Y-78882501D01*
X67983516Y-78888908D01*
X67848671Y-78939202D01*
X67848664Y-78939206D01*
X67733455Y-79025452D01*
X67733452Y-79025455D01*
X67647206Y-79140664D01*
X67647202Y-79140671D01*
X67596908Y-79275517D01*
X67590501Y-79335116D01*
X67590501Y-79335123D01*
X67590500Y-79335135D01*
X67590500Y-80430870D01*
X66550996Y-80430870D01*
X66550999Y-80430844D01*
X66551000Y-80430827D01*
X66551000Y-80133000D01*
X64801000Y-80133000D01*
X64301000Y-80133000D01*
X62551000Y-80133000D01*
X61341000Y-80133000D01*
X61341000Y-79633000D01*
X62551000Y-79633000D01*
X64301000Y-79633000D01*
X64301000Y-78883000D01*
X64801000Y-78883000D01*
X64801000Y-79633000D01*
X66551000Y-79633000D01*
X66551000Y-79335172D01*
X66550999Y-79335155D01*
X66544598Y-79275627D01*
X66544596Y-79275620D01*
X66494354Y-79140913D01*
X66494350Y-79140906D01*
X66408190Y-79025812D01*
X66408187Y-79025809D01*
X66293093Y-78939649D01*
X66293086Y-78939645D01*
X66158379Y-78889403D01*
X66158372Y-78889401D01*
X66098844Y-78883000D01*
X64801000Y-78883000D01*
X64301000Y-78883000D01*
X63003155Y-78883000D01*
X62943627Y-78889401D01*
X62943620Y-78889403D01*
X62808913Y-78939645D01*
X62808906Y-78939649D01*
X62693812Y-79025809D01*
X62693809Y-79025812D01*
X62607649Y-79140906D01*
X62607645Y-79140913D01*
X62557403Y-79275620D01*
X62557401Y-79275627D01*
X62551000Y-79335155D01*
X62551000Y-79633000D01*
X61341000Y-79633000D01*
X61341000Y-77890870D01*
X62550500Y-77890870D01*
X62550501Y-77890876D01*
X62556908Y-77950483D01*
X62607202Y-78085328D01*
X62607206Y-78085335D01*
X62693452Y-78200544D01*
X62693455Y-78200547D01*
X62808664Y-78286793D01*
X62808671Y-78286797D01*
X62943517Y-78337091D01*
X62943516Y-78337091D01*
X62950444Y-78337835D01*
X63003127Y-78343500D01*
X66098872Y-78343499D01*
X66158483Y-78337091D01*
X66293331Y-78286796D01*
X66408546Y-78200546D01*
X66494796Y-78085331D01*
X66545091Y-77950483D01*
X66551500Y-77890873D01*
X66551500Y-77890870D01*
X67590500Y-77890870D01*
X67590501Y-77890876D01*
X67596908Y-77950483D01*
X67647202Y-78085328D01*
X67647206Y-78085335D01*
X67733452Y-78200544D01*
X67733455Y-78200547D01*
X67848664Y-78286793D01*
X67848671Y-78286797D01*
X67983517Y-78337091D01*
X67983516Y-78337091D01*
X67990444Y-78337835D01*
X68043127Y-78343500D01*
X71138872Y-78343499D01*
X71198483Y-78337091D01*
X71333331Y-78286796D01*
X71448546Y-78200546D01*
X71534796Y-78085331D01*
X71585091Y-77950483D01*
X71591500Y-77890873D01*
X71591499Y-76795128D01*
X71585091Y-76735517D01*
X71534796Y-76600669D01*
X71534795Y-76600668D01*
X71534793Y-76600664D01*
X71448547Y-76485455D01*
X71448544Y-76485452D01*
X71333335Y-76399206D01*
X71333328Y-76399202D01*
X71198482Y-76348908D01*
X71198483Y-76348908D01*
X71138883Y-76342501D01*
X71138881Y-76342500D01*
X71138873Y-76342500D01*
X71138864Y-76342500D01*
X68043129Y-76342500D01*
X68043123Y-76342501D01*
X67983516Y-76348908D01*
X67848671Y-76399202D01*
X67848664Y-76399206D01*
X67733455Y-76485452D01*
X67733452Y-76485455D01*
X67647206Y-76600664D01*
X67647202Y-76600671D01*
X67596908Y-76735517D01*
X67593270Y-76769360D01*
X67590501Y-76795123D01*
X67590500Y-76795135D01*
X67590500Y-77890870D01*
X66551500Y-77890870D01*
X66551499Y-76795128D01*
X66545091Y-76735517D01*
X66494796Y-76600669D01*
X66494795Y-76600668D01*
X66494793Y-76600664D01*
X66408547Y-76485455D01*
X66408544Y-76485452D01*
X66293335Y-76399206D01*
X66293328Y-76399202D01*
X66158482Y-76348908D01*
X66158483Y-76348908D01*
X66098883Y-76342501D01*
X66098881Y-76342500D01*
X66098873Y-76342500D01*
X66098864Y-76342500D01*
X63003129Y-76342500D01*
X63003123Y-76342501D01*
X62943516Y-76348908D01*
X62808671Y-76399202D01*
X62808664Y-76399206D01*
X62693455Y-76485452D01*
X62693452Y-76485455D01*
X62607206Y-76600664D01*
X62607202Y-76600671D01*
X62556908Y-76735517D01*
X62553270Y-76769360D01*
X62550501Y-76795123D01*
X62550500Y-76795135D01*
X62550500Y-77890870D01*
X61341000Y-77890870D01*
X61341000Y-75053000D01*
X62551000Y-75053000D01*
X62551000Y-75350844D01*
X62557401Y-75410372D01*
X62557403Y-75410379D01*
X62607645Y-75545086D01*
X62607649Y-75545093D01*
X62693809Y-75660187D01*
X62693812Y-75660190D01*
X62808906Y-75746350D01*
X62808913Y-75746354D01*
X62943620Y-75796596D01*
X62943627Y-75796598D01*
X63003155Y-75802999D01*
X63003172Y-75803000D01*
X64301000Y-75803000D01*
X64301000Y-75053000D01*
X64801000Y-75053000D01*
X64801000Y-75803000D01*
X66098828Y-75803000D01*
X66098844Y-75802999D01*
X66158372Y-75796598D01*
X66158379Y-75796596D01*
X66293086Y-75746354D01*
X66293093Y-75746350D01*
X66408187Y-75660190D01*
X66408190Y-75660187D01*
X66494350Y-75545093D01*
X66494354Y-75545086D01*
X66544596Y-75410379D01*
X66544598Y-75410372D01*
X66550996Y-75350870D01*
X67590500Y-75350870D01*
X67590501Y-75350876D01*
X67596908Y-75410483D01*
X67647202Y-75545328D01*
X67647206Y-75545335D01*
X67733452Y-75660544D01*
X67733455Y-75660547D01*
X67848664Y-75746793D01*
X67848671Y-75746797D01*
X67983517Y-75797091D01*
X67983516Y-75797091D01*
X67990444Y-75797835D01*
X68043127Y-75803500D01*
X71138872Y-75803499D01*
X71198483Y-75797091D01*
X71333331Y-75746796D01*
X71448546Y-75660546D01*
X71534796Y-75545331D01*
X71585091Y-75410483D01*
X71591500Y-75350873D01*
X71591499Y-74255128D01*
X71590948Y-74250000D01*
X78800001Y-74250000D01*
X78800001Y-74524986D01*
X78810494Y-74627697D01*
X78865641Y-74794119D01*
X78865643Y-74794124D01*
X78957684Y-74943345D01*
X79081655Y-75067316D01*
X79081657Y-75067317D01*
X79118136Y-75089818D01*
X79164861Y-75141766D01*
X79176084Y-75210728D01*
X79148240Y-75274811D01*
X79140724Y-75283035D01*
X79132323Y-75291436D01*
X79132314Y-75291447D01*
X79048717Y-75432803D01*
X79048716Y-75432806D01*
X79002900Y-75590504D01*
X79002899Y-75590510D01*
X79000000Y-75627350D01*
X79000000Y-75955500D01*
X79550000Y-75955500D01*
X79550000Y-74250000D01*
X78800001Y-74250000D01*
X71590948Y-74250000D01*
X71585091Y-74195517D01*
X71534884Y-74060906D01*
X71534797Y-74060671D01*
X71534793Y-74060664D01*
X71448547Y-73945455D01*
X71448544Y-73945452D01*
X71333335Y-73859206D01*
X71333328Y-73859202D01*
X71198482Y-73808908D01*
X71198483Y-73808908D01*
X71138883Y-73802501D01*
X71138881Y-73802500D01*
X71138873Y-73802500D01*
X71138864Y-73802500D01*
X68043129Y-73802500D01*
X68043123Y-73802501D01*
X67983516Y-73808908D01*
X67848671Y-73859202D01*
X67848664Y-73859206D01*
X67733455Y-73945452D01*
X67733452Y-73945455D01*
X67647206Y-74060664D01*
X67647202Y-74060671D01*
X67596908Y-74195517D01*
X67591051Y-74250000D01*
X67590501Y-74255123D01*
X67590500Y-74255135D01*
X67590500Y-75350870D01*
X66550996Y-75350870D01*
X66550999Y-75350844D01*
X66551000Y-75350827D01*
X66551000Y-75053000D01*
X64801000Y-75053000D01*
X64301000Y-75053000D01*
X62551000Y-75053000D01*
X61341000Y-75053000D01*
X61341000Y-74553000D01*
X62551000Y-74553000D01*
X64301000Y-74553000D01*
X64301000Y-73803000D01*
X64801000Y-73803000D01*
X64801000Y-74553000D01*
X66551000Y-74553000D01*
X66551000Y-74255172D01*
X66550999Y-74255155D01*
X66544598Y-74195627D01*
X66544596Y-74195620D01*
X66494354Y-74060913D01*
X66494350Y-74060906D01*
X66408190Y-73945812D01*
X66408187Y-73945809D01*
X66293093Y-73859649D01*
X66293086Y-73859645D01*
X66158379Y-73809403D01*
X66158372Y-73809401D01*
X66098844Y-73803000D01*
X64801000Y-73803000D01*
X64301000Y-73803000D01*
X63003155Y-73803000D01*
X62943627Y-73809401D01*
X62943620Y-73809403D01*
X62808913Y-73859645D01*
X62808906Y-73859649D01*
X62693812Y-73945809D01*
X62693809Y-73945812D01*
X62607649Y-74060906D01*
X62607645Y-74060913D01*
X62557403Y-74195620D01*
X62557401Y-74195627D01*
X62551000Y-74255155D01*
X62551000Y-74553000D01*
X61341000Y-74553000D01*
X61341000Y-73750000D01*
X78800000Y-73750000D01*
X79550000Y-73750000D01*
X79550000Y-72000000D01*
X78800001Y-72000000D01*
X78800001Y-72274986D01*
X78810494Y-72377697D01*
X78865641Y-72544119D01*
X78865643Y-72544124D01*
X78957684Y-72693345D01*
X79051658Y-72787319D01*
X79085143Y-72848642D01*
X79080159Y-72918334D01*
X79051658Y-72962681D01*
X78957684Y-73056654D01*
X78865643Y-73205875D01*
X78865641Y-73205880D01*
X78810494Y-73372302D01*
X78810493Y-73372309D01*
X78800000Y-73475013D01*
X78800000Y-73750000D01*
X61341000Y-73750000D01*
X61341000Y-72810870D01*
X62550500Y-72810870D01*
X62550501Y-72810876D01*
X62556908Y-72870483D01*
X62607202Y-73005328D01*
X62607206Y-73005335D01*
X62693452Y-73120544D01*
X62693455Y-73120547D01*
X62808664Y-73206793D01*
X62808671Y-73206797D01*
X62943517Y-73257091D01*
X62943516Y-73257091D01*
X62950444Y-73257835D01*
X63003127Y-73263500D01*
X66098872Y-73263499D01*
X66158483Y-73257091D01*
X66293331Y-73206796D01*
X66408546Y-73120546D01*
X66494796Y-73005331D01*
X66545091Y-72870483D01*
X66551500Y-72810873D01*
X66551500Y-72810870D01*
X67590500Y-72810870D01*
X67590501Y-72810876D01*
X67596908Y-72870483D01*
X67647202Y-73005328D01*
X67647206Y-73005335D01*
X67733452Y-73120544D01*
X67733455Y-73120547D01*
X67848664Y-73206793D01*
X67848671Y-73206797D01*
X67983517Y-73257091D01*
X67983516Y-73257091D01*
X67990444Y-73257835D01*
X68043127Y-73263500D01*
X71138872Y-73263499D01*
X71198483Y-73257091D01*
X71333331Y-73206796D01*
X71448546Y-73120546D01*
X71534796Y-73005331D01*
X71585091Y-72870483D01*
X71591500Y-72810873D01*
X71591499Y-71715128D01*
X71585091Y-71655517D01*
X71565228Y-71602262D01*
X71534797Y-71520671D01*
X71534793Y-71520664D01*
X71448547Y-71405455D01*
X71448544Y-71405452D01*
X71333335Y-71319206D01*
X71333328Y-71319202D01*
X71198482Y-71268908D01*
X71198483Y-71268908D01*
X71138883Y-71262501D01*
X71138881Y-71262500D01*
X71138873Y-71262500D01*
X71138864Y-71262500D01*
X68043129Y-71262500D01*
X68043123Y-71262501D01*
X67983516Y-71268908D01*
X67848671Y-71319202D01*
X67848664Y-71319206D01*
X67733455Y-71405452D01*
X67733452Y-71405455D01*
X67647206Y-71520664D01*
X67647202Y-71520671D01*
X67596908Y-71655517D01*
X67594740Y-71675688D01*
X67590501Y-71715123D01*
X67590500Y-71715135D01*
X67590500Y-72810870D01*
X66551500Y-72810870D01*
X66551499Y-71715128D01*
X66545091Y-71655517D01*
X66525228Y-71602262D01*
X66494797Y-71520671D01*
X66494793Y-71520664D01*
X66408547Y-71405455D01*
X66408544Y-71405452D01*
X66293335Y-71319206D01*
X66293328Y-71319202D01*
X66158482Y-71268908D01*
X66158483Y-71268908D01*
X66098883Y-71262501D01*
X66098881Y-71262500D01*
X66098873Y-71262500D01*
X66098864Y-71262500D01*
X63003129Y-71262500D01*
X63003123Y-71262501D01*
X62943516Y-71268908D01*
X62808671Y-71319202D01*
X62808664Y-71319206D01*
X62693455Y-71405452D01*
X62693452Y-71405455D01*
X62607206Y-71520664D01*
X62607202Y-71520671D01*
X62556908Y-71655517D01*
X62554740Y-71675688D01*
X62550501Y-71715123D01*
X62550500Y-71715135D01*
X62550500Y-72810870D01*
X61341000Y-72810870D01*
X61341000Y-70270870D01*
X62550500Y-70270870D01*
X62550501Y-70270876D01*
X62556908Y-70330483D01*
X62607202Y-70465328D01*
X62607206Y-70465335D01*
X62693452Y-70580544D01*
X62693455Y-70580547D01*
X62808664Y-70666793D01*
X62808671Y-70666797D01*
X62943517Y-70717091D01*
X62943516Y-70717091D01*
X62950444Y-70717835D01*
X63003127Y-70723500D01*
X66098872Y-70723499D01*
X66158483Y-70717091D01*
X66293331Y-70666796D01*
X66408546Y-70580546D01*
X66494796Y-70465331D01*
X66545091Y-70330483D01*
X66551500Y-70270873D01*
X66551500Y-69973000D01*
X67591000Y-69973000D01*
X67591000Y-70270844D01*
X67597401Y-70330372D01*
X67597403Y-70330379D01*
X67647645Y-70465086D01*
X67647649Y-70465093D01*
X67733809Y-70580187D01*
X67733812Y-70580190D01*
X67848906Y-70666350D01*
X67848913Y-70666354D01*
X67983620Y-70716596D01*
X67983627Y-70716598D01*
X68043155Y-70722999D01*
X68043172Y-70723000D01*
X69341000Y-70723000D01*
X69341000Y-69973000D01*
X69841000Y-69973000D01*
X69841000Y-70723000D01*
X71138828Y-70723000D01*
X71138844Y-70722999D01*
X71198372Y-70716598D01*
X71198379Y-70716596D01*
X71333086Y-70666354D01*
X71333093Y-70666350D01*
X71448187Y-70580190D01*
X71448190Y-70580187D01*
X71534350Y-70465093D01*
X71534354Y-70465086D01*
X71584596Y-70330379D01*
X71584598Y-70330372D01*
X71590999Y-70270844D01*
X71591000Y-70270827D01*
X71591000Y-69973000D01*
X69841000Y-69973000D01*
X69341000Y-69973000D01*
X67591000Y-69973000D01*
X66551500Y-69973000D01*
X66551499Y-69473000D01*
X67591000Y-69473000D01*
X69341000Y-69473000D01*
X69341000Y-68723000D01*
X69841000Y-68723000D01*
X69841000Y-69473000D01*
X71591000Y-69473000D01*
X71591000Y-69175172D01*
X71590999Y-69175155D01*
X71584598Y-69115627D01*
X71584596Y-69115620D01*
X71534354Y-68980913D01*
X71534350Y-68980906D01*
X71448190Y-68865812D01*
X71448187Y-68865809D01*
X71333093Y-68779649D01*
X71333086Y-68779645D01*
X71198379Y-68729403D01*
X71198372Y-68729401D01*
X71138844Y-68723000D01*
X69841000Y-68723000D01*
X69341000Y-68723000D01*
X68043155Y-68723000D01*
X67983627Y-68729401D01*
X67983620Y-68729403D01*
X67848913Y-68779645D01*
X67848906Y-68779649D01*
X67733812Y-68865809D01*
X67733809Y-68865812D01*
X67647649Y-68980906D01*
X67647645Y-68980913D01*
X67597403Y-69115620D01*
X67597401Y-69115627D01*
X67591000Y-69175155D01*
X67591000Y-69473000D01*
X66551499Y-69473000D01*
X66551499Y-69175128D01*
X66545091Y-69115517D01*
X66523685Y-69058125D01*
X66494797Y-68980671D01*
X66494793Y-68980664D01*
X66408547Y-68865455D01*
X66408544Y-68865452D01*
X66293335Y-68779206D01*
X66293328Y-68779202D01*
X66158482Y-68728908D01*
X66158483Y-68728908D01*
X66098883Y-68722501D01*
X66098881Y-68722500D01*
X66098873Y-68722500D01*
X66098864Y-68722500D01*
X63003129Y-68722500D01*
X63003123Y-68722501D01*
X62943516Y-68728908D01*
X62808671Y-68779202D01*
X62808664Y-68779206D01*
X62693455Y-68865452D01*
X62693452Y-68865455D01*
X62607206Y-68980664D01*
X62607202Y-68980671D01*
X62556908Y-69115517D01*
X62551624Y-69164669D01*
X62550501Y-69175123D01*
X62550500Y-69175135D01*
X62550500Y-70270870D01*
X61341000Y-70270870D01*
X61341000Y-67730870D01*
X62550500Y-67730870D01*
X62550501Y-67730876D01*
X62556908Y-67790483D01*
X62607202Y-67925328D01*
X62607206Y-67925335D01*
X62693452Y-68040544D01*
X62693455Y-68040547D01*
X62808664Y-68126793D01*
X62808671Y-68126797D01*
X62943517Y-68177091D01*
X62943516Y-68177091D01*
X62950444Y-68177835D01*
X63003127Y-68183500D01*
X66098872Y-68183499D01*
X66158483Y-68177091D01*
X66293331Y-68126796D01*
X66408546Y-68040546D01*
X66494796Y-67925331D01*
X66545091Y-67790483D01*
X66551500Y-67730873D01*
X66551500Y-67730870D01*
X67590500Y-67730870D01*
X67590501Y-67730876D01*
X67596908Y-67790483D01*
X67647202Y-67925328D01*
X67647206Y-67925335D01*
X67733452Y-68040544D01*
X67733455Y-68040547D01*
X67848664Y-68126793D01*
X67848671Y-68126797D01*
X67983517Y-68177091D01*
X67983516Y-68177091D01*
X67990444Y-68177835D01*
X68043127Y-68183500D01*
X71138872Y-68183499D01*
X71198483Y-68177091D01*
X71333331Y-68126796D01*
X71448546Y-68040546D01*
X71534796Y-67925331D01*
X71585091Y-67790483D01*
X71591500Y-67730873D01*
X71591499Y-66635128D01*
X71585091Y-66575517D01*
X71534796Y-66440669D01*
X71534795Y-66440668D01*
X71534793Y-66440664D01*
X71448547Y-66325455D01*
X71448544Y-66325452D01*
X71333335Y-66239206D01*
X71333328Y-66239202D01*
X71198482Y-66188908D01*
X71198483Y-66188908D01*
X71138883Y-66182501D01*
X71138881Y-66182500D01*
X71138873Y-66182500D01*
X71138864Y-66182500D01*
X68043129Y-66182500D01*
X68043123Y-66182501D01*
X67983516Y-66188908D01*
X67848671Y-66239202D01*
X67848664Y-66239206D01*
X67733455Y-66325452D01*
X67733452Y-66325455D01*
X67647206Y-66440664D01*
X67647202Y-66440671D01*
X67596908Y-66575517D01*
X67591535Y-66625500D01*
X67590501Y-66635123D01*
X67590500Y-66635135D01*
X67590500Y-67730870D01*
X66551500Y-67730870D01*
X66551499Y-66635128D01*
X66545091Y-66575517D01*
X66494796Y-66440669D01*
X66494795Y-66440668D01*
X66494793Y-66440664D01*
X66408547Y-66325455D01*
X66408544Y-66325452D01*
X66293335Y-66239206D01*
X66293328Y-66239202D01*
X66158482Y-66188908D01*
X66158483Y-66188908D01*
X66098883Y-66182501D01*
X66098881Y-66182500D01*
X66098873Y-66182500D01*
X66098864Y-66182500D01*
X63003129Y-66182500D01*
X63003123Y-66182501D01*
X62943516Y-66188908D01*
X62808671Y-66239202D01*
X62808664Y-66239206D01*
X62693455Y-66325452D01*
X62693452Y-66325455D01*
X62607206Y-66440664D01*
X62607202Y-66440671D01*
X62556908Y-66575517D01*
X62551535Y-66625500D01*
X62550501Y-66635123D01*
X62550500Y-66635135D01*
X62550500Y-67730870D01*
X61341000Y-67730870D01*
X61341000Y-65190870D01*
X62550500Y-65190870D01*
X62550501Y-65190876D01*
X62556908Y-65250483D01*
X62607202Y-65385328D01*
X62607206Y-65385335D01*
X62693452Y-65500544D01*
X62693455Y-65500547D01*
X62808664Y-65586793D01*
X62808671Y-65586797D01*
X62943517Y-65637091D01*
X62943516Y-65637091D01*
X62950444Y-65637835D01*
X63003127Y-65643500D01*
X66098872Y-65643499D01*
X66158483Y-65637091D01*
X66293331Y-65586796D01*
X66408546Y-65500546D01*
X66494796Y-65385331D01*
X66545091Y-65250483D01*
X66551500Y-65190873D01*
X66551500Y-65190870D01*
X67590500Y-65190870D01*
X67590501Y-65190876D01*
X67596908Y-65250483D01*
X67647202Y-65385328D01*
X67647206Y-65385335D01*
X67733452Y-65500544D01*
X67733455Y-65500547D01*
X67848664Y-65586793D01*
X67848671Y-65586797D01*
X67983517Y-65637091D01*
X67983516Y-65637091D01*
X67990444Y-65637835D01*
X68043127Y-65643500D01*
X71138872Y-65643499D01*
X71198483Y-65637091D01*
X71333331Y-65586796D01*
X71448546Y-65500546D01*
X71534796Y-65385331D01*
X71585091Y-65250483D01*
X71591500Y-65190873D01*
X71591499Y-64095128D01*
X71585091Y-64035517D01*
X71534796Y-63900669D01*
X71534795Y-63900668D01*
X71534793Y-63900664D01*
X71448547Y-63785455D01*
X71448544Y-63785452D01*
X71333335Y-63699206D01*
X71333328Y-63699202D01*
X71198482Y-63648908D01*
X71198483Y-63648908D01*
X71138883Y-63642501D01*
X71138881Y-63642500D01*
X71138873Y-63642500D01*
X71138864Y-63642500D01*
X68043129Y-63642500D01*
X68043123Y-63642501D01*
X67983516Y-63648908D01*
X67848671Y-63699202D01*
X67848664Y-63699206D01*
X67733455Y-63785452D01*
X67733452Y-63785455D01*
X67647206Y-63900664D01*
X67647202Y-63900671D01*
X67596908Y-64035517D01*
X67590501Y-64095116D01*
X67590501Y-64095123D01*
X67590500Y-64095135D01*
X67590500Y-65190870D01*
X66551500Y-65190870D01*
X66551499Y-64095128D01*
X66545091Y-64035517D01*
X66494796Y-63900669D01*
X66494795Y-63900668D01*
X66494793Y-63900664D01*
X66408547Y-63785455D01*
X66408544Y-63785452D01*
X66293335Y-63699206D01*
X66293328Y-63699202D01*
X66158482Y-63648908D01*
X66158483Y-63648908D01*
X66098883Y-63642501D01*
X66098881Y-63642500D01*
X66098873Y-63642500D01*
X66098864Y-63642500D01*
X63003129Y-63642500D01*
X63003123Y-63642501D01*
X62943516Y-63648908D01*
X62808671Y-63699202D01*
X62808664Y-63699206D01*
X62693455Y-63785452D01*
X62693452Y-63785455D01*
X62607206Y-63900664D01*
X62607202Y-63900671D01*
X62556908Y-64035517D01*
X62550501Y-64095116D01*
X62550501Y-64095123D01*
X62550500Y-64095135D01*
X62550500Y-65190870D01*
X61341000Y-65190870D01*
X61341000Y-62353000D01*
X62551000Y-62353000D01*
X62551000Y-62650844D01*
X62557401Y-62710372D01*
X62557403Y-62710379D01*
X62607645Y-62845086D01*
X62607649Y-62845093D01*
X62693809Y-62960187D01*
X62693812Y-62960190D01*
X62808906Y-63046350D01*
X62808913Y-63046354D01*
X62943620Y-63096596D01*
X62943627Y-63096598D01*
X63003155Y-63102999D01*
X63003172Y-63103000D01*
X64301000Y-63103000D01*
X64301000Y-62353000D01*
X64801000Y-62353000D01*
X64801000Y-63103000D01*
X66098828Y-63103000D01*
X66098844Y-63102999D01*
X66158372Y-63096598D01*
X66158379Y-63096596D01*
X66293086Y-63046354D01*
X66293093Y-63046350D01*
X66408187Y-62960190D01*
X66408190Y-62960187D01*
X66494350Y-62845093D01*
X66494354Y-62845086D01*
X66544596Y-62710379D01*
X66544598Y-62710372D01*
X66550996Y-62650870D01*
X67590500Y-62650870D01*
X67590501Y-62650876D01*
X67596908Y-62710483D01*
X67647202Y-62845328D01*
X67647206Y-62845335D01*
X67733452Y-62960544D01*
X67733455Y-62960547D01*
X67848664Y-63046793D01*
X67848671Y-63046797D01*
X67983517Y-63097091D01*
X67983516Y-63097091D01*
X67990444Y-63097835D01*
X68043127Y-63103500D01*
X71138872Y-63103499D01*
X71198483Y-63097091D01*
X71333331Y-63046796D01*
X71448546Y-62960546D01*
X71534796Y-62845331D01*
X71585091Y-62710483D01*
X71591500Y-62650873D01*
X71591499Y-61555128D01*
X71585091Y-61495517D01*
X71540144Y-61375009D01*
X71534797Y-61360671D01*
X71534793Y-61360664D01*
X71448547Y-61245455D01*
X71448544Y-61245452D01*
X71333335Y-61159206D01*
X71333328Y-61159202D01*
X71198482Y-61108908D01*
X71198483Y-61108908D01*
X71138883Y-61102501D01*
X71138881Y-61102500D01*
X71138873Y-61102500D01*
X71138864Y-61102500D01*
X68043129Y-61102500D01*
X68043123Y-61102501D01*
X67983516Y-61108908D01*
X67848671Y-61159202D01*
X67848664Y-61159206D01*
X67733455Y-61245452D01*
X67733452Y-61245455D01*
X67647206Y-61360664D01*
X67647202Y-61360671D01*
X67596908Y-61495517D01*
X67590501Y-61555116D01*
X67590501Y-61555123D01*
X67590500Y-61555135D01*
X67590500Y-62650870D01*
X66550996Y-62650870D01*
X66550999Y-62650844D01*
X66551000Y-62650827D01*
X66551000Y-62353000D01*
X64801000Y-62353000D01*
X64301000Y-62353000D01*
X62551000Y-62353000D01*
X61341000Y-62353000D01*
X61341000Y-61853000D01*
X62551000Y-61853000D01*
X64301000Y-61853000D01*
X64301000Y-61103000D01*
X64801000Y-61103000D01*
X64801000Y-61853000D01*
X66551000Y-61853000D01*
X66551000Y-61555172D01*
X66550999Y-61555155D01*
X66544598Y-61495627D01*
X66544596Y-61495620D01*
X66494354Y-61360913D01*
X66494350Y-61360906D01*
X66408190Y-61245812D01*
X66408187Y-61245809D01*
X66293093Y-61159649D01*
X66293086Y-61159645D01*
X66158379Y-61109403D01*
X66158372Y-61109401D01*
X66098844Y-61103000D01*
X64801000Y-61103000D01*
X64301000Y-61103000D01*
X63003155Y-61103000D01*
X62943627Y-61109401D01*
X62943620Y-61109403D01*
X62808913Y-61159645D01*
X62808906Y-61159649D01*
X62693812Y-61245809D01*
X62693809Y-61245812D01*
X62607649Y-61360906D01*
X62607645Y-61360913D01*
X62557403Y-61495620D01*
X62557401Y-61495627D01*
X62551000Y-61555155D01*
X62551000Y-61853000D01*
X61341000Y-61853000D01*
X61341000Y-60110870D01*
X62550500Y-60110870D01*
X62550501Y-60110876D01*
X62556908Y-60170483D01*
X62607202Y-60305328D01*
X62607206Y-60305335D01*
X62693452Y-60420544D01*
X62693455Y-60420547D01*
X62808664Y-60506793D01*
X62808671Y-60506797D01*
X62943517Y-60557091D01*
X62943516Y-60557091D01*
X62950444Y-60557835D01*
X63003127Y-60563500D01*
X66098872Y-60563499D01*
X66158483Y-60557091D01*
X66293331Y-60506796D01*
X66408546Y-60420546D01*
X66494796Y-60305331D01*
X66545091Y-60170483D01*
X66551500Y-60110873D01*
X66551500Y-60110870D01*
X67590500Y-60110870D01*
X67590501Y-60110876D01*
X67596908Y-60170483D01*
X67647202Y-60305328D01*
X67647206Y-60305335D01*
X67733452Y-60420544D01*
X67733455Y-60420547D01*
X67848664Y-60506793D01*
X67848671Y-60506797D01*
X67983517Y-60557091D01*
X67983516Y-60557091D01*
X67990444Y-60557835D01*
X68043127Y-60563500D01*
X71138872Y-60563499D01*
X71198483Y-60557091D01*
X71333331Y-60506796D01*
X71448546Y-60420546D01*
X71534796Y-60305331D01*
X71585091Y-60170483D01*
X71591500Y-60110873D01*
X71591499Y-59015128D01*
X71585091Y-58955517D01*
X71573708Y-58924998D01*
X71534797Y-58820671D01*
X71534793Y-58820664D01*
X71448547Y-58705455D01*
X71448544Y-58705452D01*
X71333335Y-58619206D01*
X71333328Y-58619202D01*
X71198482Y-58568908D01*
X71198483Y-58568908D01*
X71138883Y-58562501D01*
X71138881Y-58562500D01*
X71138873Y-58562500D01*
X71138864Y-58562500D01*
X68043129Y-58562500D01*
X68043123Y-58562501D01*
X67983516Y-58568908D01*
X67848671Y-58619202D01*
X67848664Y-58619206D01*
X67733455Y-58705452D01*
X67733452Y-58705455D01*
X67647206Y-58820664D01*
X67647202Y-58820671D01*
X67596908Y-58955517D01*
X67590501Y-59015116D01*
X67590501Y-59015123D01*
X67590500Y-59015135D01*
X67590500Y-60110870D01*
X66551500Y-60110870D01*
X66551499Y-59015128D01*
X66545091Y-58955517D01*
X66533708Y-58924998D01*
X66494797Y-58820671D01*
X66494793Y-58820664D01*
X66408547Y-58705455D01*
X66408544Y-58705452D01*
X66293335Y-58619206D01*
X66293328Y-58619202D01*
X66158482Y-58568908D01*
X66158483Y-58568908D01*
X66098883Y-58562501D01*
X66098881Y-58562500D01*
X66098873Y-58562500D01*
X66098864Y-58562500D01*
X63003129Y-58562500D01*
X63003123Y-58562501D01*
X62943516Y-58568908D01*
X62808671Y-58619202D01*
X62808664Y-58619206D01*
X62693455Y-58705452D01*
X62693452Y-58705455D01*
X62607206Y-58820664D01*
X62607202Y-58820671D01*
X62556908Y-58955517D01*
X62550501Y-59015116D01*
X62550501Y-59015123D01*
X62550500Y-59015135D01*
X62550500Y-60110870D01*
X61341000Y-60110870D01*
X61341000Y-57570870D01*
X62550500Y-57570870D01*
X62550501Y-57570876D01*
X62556908Y-57630483D01*
X62607202Y-57765328D01*
X62607206Y-57765335D01*
X62693452Y-57880544D01*
X62693455Y-57880547D01*
X62808664Y-57966793D01*
X62808671Y-57966797D01*
X62943517Y-58017091D01*
X62943516Y-58017091D01*
X62950444Y-58017835D01*
X63003127Y-58023500D01*
X66098872Y-58023499D01*
X66158483Y-58017091D01*
X66293331Y-57966796D01*
X66408546Y-57880546D01*
X66494796Y-57765331D01*
X66545091Y-57630483D01*
X66551500Y-57570873D01*
X66551500Y-57570870D01*
X67590500Y-57570870D01*
X67590501Y-57570876D01*
X67596908Y-57630483D01*
X67647202Y-57765328D01*
X67647206Y-57765335D01*
X67733452Y-57880544D01*
X67733455Y-57880547D01*
X67848664Y-57966793D01*
X67848671Y-57966797D01*
X67983517Y-58017091D01*
X67983516Y-58017091D01*
X67990444Y-58017835D01*
X68043127Y-58023500D01*
X71138872Y-58023499D01*
X71198483Y-58017091D01*
X71333331Y-57966796D01*
X71448546Y-57880546D01*
X71534796Y-57765331D01*
X71585091Y-57630483D01*
X71591500Y-57570873D01*
X71591499Y-56475128D01*
X71585091Y-56415517D01*
X71560451Y-56349455D01*
X71534797Y-56280671D01*
X71534793Y-56280664D01*
X71448547Y-56165455D01*
X71448544Y-56165452D01*
X71333335Y-56079206D01*
X71333328Y-56079202D01*
X71198482Y-56028908D01*
X71198483Y-56028908D01*
X71138883Y-56022501D01*
X71138881Y-56022500D01*
X71138873Y-56022500D01*
X71138864Y-56022500D01*
X68043129Y-56022500D01*
X68043123Y-56022501D01*
X67983516Y-56028908D01*
X67848671Y-56079202D01*
X67848664Y-56079206D01*
X67733455Y-56165452D01*
X67733452Y-56165455D01*
X67647206Y-56280664D01*
X67647202Y-56280671D01*
X67596908Y-56415517D01*
X67593490Y-56447314D01*
X67590501Y-56475123D01*
X67590500Y-56475135D01*
X67590500Y-57570870D01*
X66551500Y-57570870D01*
X66551499Y-56475128D01*
X66545091Y-56415517D01*
X66520451Y-56349455D01*
X66494797Y-56280671D01*
X66494793Y-56280664D01*
X66408547Y-56165455D01*
X66408544Y-56165452D01*
X66293335Y-56079206D01*
X66293328Y-56079202D01*
X66158482Y-56028908D01*
X66158483Y-56028908D01*
X66098883Y-56022501D01*
X66098881Y-56022500D01*
X66098873Y-56022500D01*
X66098864Y-56022500D01*
X63003129Y-56022500D01*
X63003123Y-56022501D01*
X62943516Y-56028908D01*
X62808671Y-56079202D01*
X62808664Y-56079206D01*
X62693455Y-56165452D01*
X62693452Y-56165455D01*
X62607206Y-56280664D01*
X62607202Y-56280671D01*
X62556908Y-56415517D01*
X62553490Y-56447314D01*
X62550501Y-56475123D01*
X62550500Y-56475135D01*
X62550500Y-57570870D01*
X61341000Y-57570870D01*
X61341000Y-54733000D01*
X62551000Y-54733000D01*
X62551000Y-55030844D01*
X62557401Y-55090372D01*
X62557403Y-55090379D01*
X62607645Y-55225086D01*
X62607649Y-55225093D01*
X62693809Y-55340187D01*
X62693812Y-55340190D01*
X62808906Y-55426350D01*
X62808913Y-55426354D01*
X62943620Y-55476596D01*
X62943627Y-55476598D01*
X63003155Y-55482999D01*
X63003172Y-55483000D01*
X64301000Y-55483000D01*
X64301000Y-54733000D01*
X64801000Y-54733000D01*
X64801000Y-55483000D01*
X66098828Y-55483000D01*
X66098844Y-55482999D01*
X66158372Y-55476598D01*
X66158379Y-55476596D01*
X66293086Y-55426354D01*
X66293093Y-55426350D01*
X66408187Y-55340190D01*
X66408190Y-55340187D01*
X66494350Y-55225093D01*
X66494354Y-55225086D01*
X66544596Y-55090379D01*
X66544598Y-55090372D01*
X66550996Y-55030870D01*
X67590500Y-55030870D01*
X67590501Y-55030876D01*
X67596908Y-55090483D01*
X67647202Y-55225328D01*
X67647206Y-55225335D01*
X67733452Y-55340544D01*
X67733455Y-55340547D01*
X67848664Y-55426793D01*
X67848671Y-55426797D01*
X67983517Y-55477091D01*
X67983516Y-55477091D01*
X67990444Y-55477835D01*
X68043127Y-55483500D01*
X71138872Y-55483499D01*
X71198483Y-55477091D01*
X71333331Y-55426796D01*
X71448546Y-55340546D01*
X71534796Y-55225331D01*
X71585091Y-55090483D01*
X71591500Y-55030873D01*
X71591499Y-53935128D01*
X71585091Y-53875517D01*
X71574737Y-53847757D01*
X71534797Y-53740671D01*
X71534793Y-53740664D01*
X71448547Y-53625455D01*
X71448544Y-53625452D01*
X71333335Y-53539206D01*
X71333328Y-53539202D01*
X71198482Y-53488908D01*
X71198483Y-53488908D01*
X71138883Y-53482501D01*
X71138881Y-53482500D01*
X71138873Y-53482500D01*
X71138864Y-53482500D01*
X68043129Y-53482500D01*
X68043123Y-53482501D01*
X67983516Y-53488908D01*
X67848671Y-53539202D01*
X67848664Y-53539206D01*
X67733455Y-53625452D01*
X67733452Y-53625455D01*
X67647206Y-53740664D01*
X67647202Y-53740671D01*
X67596908Y-53875517D01*
X67592594Y-53915647D01*
X67590501Y-53935123D01*
X67590500Y-53935135D01*
X67590500Y-55030870D01*
X66550996Y-55030870D01*
X66550999Y-55030844D01*
X66551000Y-55030827D01*
X66551000Y-54733000D01*
X64801000Y-54733000D01*
X64301000Y-54733000D01*
X62551000Y-54733000D01*
X61341000Y-54733000D01*
X61341000Y-54233000D01*
X62551000Y-54233000D01*
X64301000Y-54233000D01*
X64301000Y-53483000D01*
X64801000Y-53483000D01*
X64801000Y-54233000D01*
X66551000Y-54233000D01*
X66551000Y-53935172D01*
X66550999Y-53935155D01*
X66544598Y-53875627D01*
X66544596Y-53875620D01*
X66494354Y-53740913D01*
X66494350Y-53740906D01*
X66408190Y-53625812D01*
X66408187Y-53625809D01*
X66293093Y-53539649D01*
X66293086Y-53539645D01*
X66158379Y-53489403D01*
X66158372Y-53489401D01*
X66098844Y-53483000D01*
X64801000Y-53483000D01*
X64301000Y-53483000D01*
X63003155Y-53483000D01*
X62943627Y-53489401D01*
X62943620Y-53489403D01*
X62808913Y-53539645D01*
X62808906Y-53539649D01*
X62693812Y-53625809D01*
X62693809Y-53625812D01*
X62607649Y-53740906D01*
X62607645Y-53740913D01*
X62557403Y-53875620D01*
X62557401Y-53875627D01*
X62551000Y-53935155D01*
X62551000Y-54233000D01*
X61341000Y-54233000D01*
X61341000Y-52490870D01*
X62550500Y-52490870D01*
X62550501Y-52490876D01*
X62556908Y-52550483D01*
X62607202Y-52685328D01*
X62607206Y-52685335D01*
X62693452Y-52800544D01*
X62693455Y-52800547D01*
X62808664Y-52886793D01*
X62808671Y-52886797D01*
X62943517Y-52937091D01*
X62943516Y-52937091D01*
X62950444Y-52937835D01*
X63003127Y-52943500D01*
X66098872Y-52943499D01*
X66158483Y-52937091D01*
X66293331Y-52886796D01*
X66408546Y-52800546D01*
X66494796Y-52685331D01*
X66545091Y-52550483D01*
X66551500Y-52490873D01*
X66551500Y-52490870D01*
X67590500Y-52490870D01*
X67590501Y-52490876D01*
X67596908Y-52550483D01*
X67647202Y-52685328D01*
X67647206Y-52685335D01*
X67733452Y-52800544D01*
X67733455Y-52800547D01*
X67848664Y-52886793D01*
X67848671Y-52886797D01*
X67983517Y-52937091D01*
X67983516Y-52937091D01*
X67990444Y-52937835D01*
X68043127Y-52943500D01*
X71138872Y-52943499D01*
X71198483Y-52937091D01*
X71333331Y-52886796D01*
X71448546Y-52800546D01*
X71534796Y-52685331D01*
X71585091Y-52550483D01*
X71591500Y-52490873D01*
X71591499Y-51395128D01*
X71585091Y-51335517D01*
X71534796Y-51200669D01*
X71534795Y-51200668D01*
X71534793Y-51200664D01*
X71448547Y-51085455D01*
X71448544Y-51085452D01*
X71333335Y-50999206D01*
X71333328Y-50999202D01*
X71198482Y-50948908D01*
X71198483Y-50948908D01*
X71138883Y-50942501D01*
X71138881Y-50942500D01*
X71138873Y-50942500D01*
X71138864Y-50942500D01*
X68043129Y-50942500D01*
X68043123Y-50942501D01*
X67983516Y-50948908D01*
X67848671Y-50999202D01*
X67848664Y-50999206D01*
X67733455Y-51085452D01*
X67733452Y-51085455D01*
X67647206Y-51200664D01*
X67647202Y-51200671D01*
X67596908Y-51335517D01*
X67593305Y-51369034D01*
X67590501Y-51395123D01*
X67590500Y-51395135D01*
X67590500Y-52490870D01*
X66551500Y-52490870D01*
X66551499Y-51395128D01*
X66545091Y-51335517D01*
X66494796Y-51200669D01*
X66494795Y-51200668D01*
X66494793Y-51200664D01*
X66408547Y-51085455D01*
X66408544Y-51085452D01*
X66293335Y-50999206D01*
X66293328Y-50999202D01*
X66158482Y-50948908D01*
X66158483Y-50948908D01*
X66098883Y-50942501D01*
X66098881Y-50942500D01*
X66098873Y-50942500D01*
X66098864Y-50942500D01*
X63003129Y-50942500D01*
X63003123Y-50942501D01*
X62943516Y-50948908D01*
X62808671Y-50999202D01*
X62808664Y-50999206D01*
X62693455Y-51085452D01*
X62693452Y-51085455D01*
X62607206Y-51200664D01*
X62607202Y-51200671D01*
X62556908Y-51335517D01*
X62553305Y-51369034D01*
X62550501Y-51395123D01*
X62550500Y-51395135D01*
X62550500Y-52490870D01*
X61341000Y-52490870D01*
X61341000Y-49950870D01*
X62550500Y-49950870D01*
X62550501Y-49950876D01*
X62556908Y-50010483D01*
X62607202Y-50145328D01*
X62607206Y-50145335D01*
X62693452Y-50260544D01*
X62693455Y-50260547D01*
X62808664Y-50346793D01*
X62808671Y-50346797D01*
X62943517Y-50397091D01*
X62943516Y-50397091D01*
X62950444Y-50397835D01*
X63003127Y-50403500D01*
X66098872Y-50403499D01*
X66158483Y-50397091D01*
X66293331Y-50346796D01*
X66408546Y-50260546D01*
X66494796Y-50145331D01*
X66545091Y-50010483D01*
X66551500Y-49950873D01*
X66551500Y-49653000D01*
X67591000Y-49653000D01*
X67591000Y-49950844D01*
X67597401Y-50010372D01*
X67597403Y-50010379D01*
X67647645Y-50145086D01*
X67647649Y-50145093D01*
X67733809Y-50260187D01*
X67733812Y-50260190D01*
X67848906Y-50346350D01*
X67848913Y-50346354D01*
X67983620Y-50396596D01*
X67983627Y-50396598D01*
X68043155Y-50402999D01*
X68043172Y-50403000D01*
X69341000Y-50403000D01*
X69341000Y-49653000D01*
X69841000Y-49653000D01*
X69841000Y-50403000D01*
X71138828Y-50403000D01*
X71138844Y-50402999D01*
X71198372Y-50396598D01*
X71198379Y-50396596D01*
X71333086Y-50346354D01*
X71333093Y-50346350D01*
X71448187Y-50260190D01*
X71448190Y-50260187D01*
X71534350Y-50145093D01*
X71534354Y-50145086D01*
X71584596Y-50010379D01*
X71584598Y-50010372D01*
X71590999Y-49950844D01*
X71591000Y-49950827D01*
X71591000Y-49653000D01*
X69841000Y-49653000D01*
X69341000Y-49653000D01*
X67591000Y-49653000D01*
X66551500Y-49653000D01*
X66551499Y-49153000D01*
X67591000Y-49153000D01*
X69341000Y-49153000D01*
X69341000Y-48403000D01*
X69841000Y-48403000D01*
X69841000Y-49153000D01*
X71591000Y-49153000D01*
X71591000Y-48855172D01*
X71590999Y-48855155D01*
X71584598Y-48795627D01*
X71584596Y-48795620D01*
X71534354Y-48660913D01*
X71534350Y-48660906D01*
X71448190Y-48545812D01*
X71448187Y-48545809D01*
X71333093Y-48459649D01*
X71333086Y-48459645D01*
X71198379Y-48409403D01*
X71198372Y-48409401D01*
X71138844Y-48403000D01*
X69841000Y-48403000D01*
X69341000Y-48403000D01*
X68043155Y-48403000D01*
X67983627Y-48409401D01*
X67983620Y-48409403D01*
X67848913Y-48459645D01*
X67848906Y-48459649D01*
X67733812Y-48545809D01*
X67733809Y-48545812D01*
X67647649Y-48660906D01*
X67647645Y-48660913D01*
X67597403Y-48795620D01*
X67597401Y-48795627D01*
X67591000Y-48855155D01*
X67591000Y-49153000D01*
X66551499Y-49153000D01*
X66551499Y-48855128D01*
X66545091Y-48795517D01*
X66494884Y-48660906D01*
X66494797Y-48660671D01*
X66494793Y-48660664D01*
X66408547Y-48545455D01*
X66408544Y-48545452D01*
X66293335Y-48459206D01*
X66293328Y-48459202D01*
X66158482Y-48408908D01*
X66158483Y-48408908D01*
X66098883Y-48402501D01*
X66098881Y-48402500D01*
X66098873Y-48402500D01*
X66098864Y-48402500D01*
X63003129Y-48402500D01*
X63003123Y-48402501D01*
X62943516Y-48408908D01*
X62808671Y-48459202D01*
X62808664Y-48459206D01*
X62693455Y-48545452D01*
X62693452Y-48545455D01*
X62607206Y-48660664D01*
X62607202Y-48660671D01*
X62556908Y-48795517D01*
X62550501Y-48855116D01*
X62550501Y-48855123D01*
X62550500Y-48855135D01*
X62550500Y-49950870D01*
X61341000Y-49950870D01*
X61341000Y-47410870D01*
X62550500Y-47410870D01*
X62550501Y-47410876D01*
X62556908Y-47470483D01*
X62607202Y-47605328D01*
X62607206Y-47605335D01*
X62693452Y-47720544D01*
X62693455Y-47720547D01*
X62808664Y-47806793D01*
X62808671Y-47806797D01*
X62943517Y-47857091D01*
X62943516Y-47857091D01*
X62950444Y-47857835D01*
X63003127Y-47863500D01*
X66098872Y-47863499D01*
X66158483Y-47857091D01*
X66293331Y-47806796D01*
X66408546Y-47720546D01*
X66494796Y-47605331D01*
X66545091Y-47470483D01*
X66551500Y-47410873D01*
X66551500Y-47410870D01*
X67590500Y-47410870D01*
X67590501Y-47410876D01*
X67596908Y-47470483D01*
X67647202Y-47605328D01*
X67647206Y-47605335D01*
X67733452Y-47720544D01*
X67733455Y-47720547D01*
X67848664Y-47806793D01*
X67848671Y-47806797D01*
X67983517Y-47857091D01*
X67983516Y-47857091D01*
X67990444Y-47857835D01*
X68043127Y-47863500D01*
X71138872Y-47863499D01*
X71198483Y-47857091D01*
X71333331Y-47806796D01*
X71448546Y-47720546D01*
X71534796Y-47605331D01*
X71585091Y-47470483D01*
X71591500Y-47410873D01*
X71591499Y-46315128D01*
X71585091Y-46255517D01*
X71534796Y-46120669D01*
X71534795Y-46120668D01*
X71534793Y-46120664D01*
X71448547Y-46005455D01*
X71448544Y-46005452D01*
X71333335Y-45919206D01*
X71333328Y-45919202D01*
X71198482Y-45868908D01*
X71198483Y-45868908D01*
X71138883Y-45862501D01*
X71138881Y-45862500D01*
X71138873Y-45862500D01*
X71138864Y-45862500D01*
X68043129Y-45862500D01*
X68043123Y-45862501D01*
X67983516Y-45868908D01*
X67848671Y-45919202D01*
X67848664Y-45919206D01*
X67733455Y-46005452D01*
X67733452Y-46005455D01*
X67647206Y-46120664D01*
X67647202Y-46120671D01*
X67596908Y-46255517D01*
X67590501Y-46315116D01*
X67590501Y-46315123D01*
X67590500Y-46315135D01*
X67590500Y-47410870D01*
X66551500Y-47410870D01*
X66551499Y-46315128D01*
X66545091Y-46255517D01*
X66494796Y-46120669D01*
X66494795Y-46120668D01*
X66494793Y-46120664D01*
X66408547Y-46005455D01*
X66408544Y-46005452D01*
X66293335Y-45919206D01*
X66293328Y-45919202D01*
X66158482Y-45868908D01*
X66158483Y-45868908D01*
X66098883Y-45862501D01*
X66098881Y-45862500D01*
X66098873Y-45862500D01*
X66098864Y-45862500D01*
X63003129Y-45862500D01*
X63003123Y-45862501D01*
X62943516Y-45868908D01*
X62808671Y-45919202D01*
X62808664Y-45919206D01*
X62693455Y-46005452D01*
X62693452Y-46005455D01*
X62607206Y-46120664D01*
X62607202Y-46120671D01*
X62556908Y-46255517D01*
X62550501Y-46315116D01*
X62550501Y-46315123D01*
X62550500Y-46315135D01*
X62550500Y-47410870D01*
X61341000Y-47410870D01*
X61341000Y-44573000D01*
X62551000Y-44573000D01*
X62551000Y-44870844D01*
X62557401Y-44930372D01*
X62557403Y-44930379D01*
X62607645Y-45065086D01*
X62607649Y-45065093D01*
X62693809Y-45180187D01*
X62693812Y-45180190D01*
X62808906Y-45266350D01*
X62808913Y-45266354D01*
X62943620Y-45316596D01*
X62943627Y-45316598D01*
X63003155Y-45322999D01*
X63003172Y-45323000D01*
X64301000Y-45323000D01*
X64301000Y-44573000D01*
X64801000Y-44573000D01*
X64801000Y-45323000D01*
X66098828Y-45323000D01*
X66098844Y-45322999D01*
X66158372Y-45316598D01*
X66158379Y-45316596D01*
X66293086Y-45266354D01*
X66293093Y-45266350D01*
X66408187Y-45180190D01*
X66408190Y-45180187D01*
X66494350Y-45065093D01*
X66494354Y-45065086D01*
X66544596Y-44930379D01*
X66544598Y-44930372D01*
X66550999Y-44870844D01*
X66551000Y-44870827D01*
X66551000Y-44573000D01*
X64801000Y-44573000D01*
X64301000Y-44573000D01*
X62551000Y-44573000D01*
X61341000Y-44573000D01*
X61341000Y-42330870D01*
X62550500Y-42330870D01*
X62550501Y-42330876D01*
X62556908Y-42390483D01*
X62607202Y-42525328D01*
X62607206Y-42525335D01*
X62693452Y-42640544D01*
X62693455Y-42640547D01*
X62808664Y-42726793D01*
X62808671Y-42726797D01*
X62943517Y-42777091D01*
X62943516Y-42777091D01*
X62950444Y-42777835D01*
X63003127Y-42783500D01*
X63672499Y-42783499D01*
X63739538Y-42803183D01*
X63785293Y-42855987D01*
X63795368Y-42902304D01*
X63795902Y-42902252D01*
X63796352Y-42906824D01*
X63796499Y-42907499D01*
X63796499Y-42908312D01*
X63796499Y-42908314D01*
X63796498Y-42908314D01*
X63825493Y-43054073D01*
X63825496Y-43054083D01*
X63865867Y-43151548D01*
X63873336Y-43221017D01*
X63842060Y-43283496D01*
X63781971Y-43319148D01*
X63751306Y-43323000D01*
X63003155Y-43323000D01*
X62943627Y-43329401D01*
X62943620Y-43329403D01*
X62808913Y-43379645D01*
X62808906Y-43379649D01*
X62693812Y-43465809D01*
X62693809Y-43465812D01*
X62607649Y-43580906D01*
X62607645Y-43580913D01*
X62557403Y-43715620D01*
X62557401Y-43715627D01*
X62551000Y-43775155D01*
X62551000Y-44073000D01*
X66551000Y-44073000D01*
X66551000Y-43931500D01*
X66570685Y-43864461D01*
X66623489Y-43818706D01*
X66675000Y-43807500D01*
X67466500Y-43807500D01*
X67533539Y-43827185D01*
X67579294Y-43879989D01*
X67590500Y-43931500D01*
X67590500Y-44870870D01*
X67590501Y-44870876D01*
X67596908Y-44930483D01*
X67647202Y-45065328D01*
X67647206Y-45065335D01*
X67733452Y-45180544D01*
X67733455Y-45180547D01*
X67848664Y-45266793D01*
X67848671Y-45266797D01*
X67983517Y-45317091D01*
X67983516Y-45317091D01*
X67990444Y-45317835D01*
X68043127Y-45323500D01*
X71138872Y-45323499D01*
X71198483Y-45317091D01*
X71333331Y-45266796D01*
X71448546Y-45180546D01*
X71534796Y-45065331D01*
X71585091Y-44930483D01*
X71591500Y-44870873D01*
X71591499Y-43931499D01*
X71611183Y-43864461D01*
X71663987Y-43818706D01*
X71715499Y-43807500D01*
X73169112Y-43807500D01*
X73236151Y-43827185D01*
X73256792Y-43843817D01*
X73282680Y-43869704D01*
X73316166Y-43931027D01*
X73319000Y-43957387D01*
X73319000Y-47884770D01*
X73299315Y-47951809D01*
X73282681Y-47972451D01*
X73230789Y-48024342D01*
X73138687Y-48173663D01*
X73138685Y-48173668D01*
X73138615Y-48173880D01*
X73083501Y-48340203D01*
X73083501Y-48340204D01*
X73083500Y-48340204D01*
X73073000Y-48442983D01*
X73073000Y-49493001D01*
X73073001Y-49493019D01*
X73083500Y-49595796D01*
X73083501Y-49595799D01*
X73117746Y-49699142D01*
X73138686Y-49762334D01*
X73230596Y-49911345D01*
X73230789Y-49911657D01*
X73282681Y-49963549D01*
X73316166Y-50024872D01*
X73319000Y-50051230D01*
X73319000Y-50193270D01*
X73299315Y-50260309D01*
X73282681Y-50280951D01*
X73232289Y-50331342D01*
X73160146Y-50448305D01*
X73108198Y-50495030D01*
X73078800Y-50504825D01*
X73018284Y-50516863D01*
X73004105Y-50519684D01*
X72979920Y-50524495D01*
X72842608Y-50581371D01*
X72719035Y-50663939D01*
X72719034Y-50663940D01*
X72666488Y-50716487D01*
X72613941Y-50769034D01*
X72613939Y-50769036D01*
X72013943Y-51369030D01*
X72013942Y-51369031D01*
X71931368Y-51492612D01*
X71898052Y-51573047D01*
X71883831Y-51607383D01*
X71883827Y-51607393D01*
X71874495Y-51629918D01*
X71874493Y-51629925D01*
X71845499Y-51775685D01*
X71845499Y-51930425D01*
X71845500Y-51930446D01*
X71845500Y-69070552D01*
X71845499Y-69070578D01*
X71845499Y-69224314D01*
X71865819Y-69326465D01*
X71865819Y-69326466D01*
X71874493Y-69370073D01*
X71874495Y-69370081D01*
X71896054Y-69422128D01*
X71931366Y-69507381D01*
X71931372Y-69507392D01*
X72013942Y-69630968D01*
X72013943Y-69630969D01*
X73529600Y-71146624D01*
X73529621Y-71146647D01*
X73639031Y-71256057D01*
X73673751Y-71279256D01*
X73673750Y-71279256D01*
X73762600Y-71338623D01*
X73762604Y-71338625D01*
X73762611Y-71338630D01*
X73843043Y-71371945D01*
X73843044Y-71371946D01*
X73866603Y-71381704D01*
X73899920Y-71395505D01*
X73899926Y-71395506D01*
X73905758Y-71397276D01*
X73905401Y-71398449D01*
X73961594Y-71427837D01*
X73996174Y-71488549D01*
X73999500Y-71517077D01*
X73999500Y-71917870D01*
X73999501Y-71917876D01*
X74005908Y-71977483D01*
X74056202Y-72112328D01*
X74056206Y-72112335D01*
X74142452Y-72227544D01*
X74142455Y-72227547D01*
X74257664Y-72313793D01*
X74257671Y-72313797D01*
X74392517Y-72364091D01*
X74392516Y-72364091D01*
X74399444Y-72364835D01*
X74452127Y-72370500D01*
X76947872Y-72370499D01*
X77007483Y-72364091D01*
X77142331Y-72313796D01*
X77257546Y-72227546D01*
X77343796Y-72112331D01*
X77394091Y-71977483D01*
X77400500Y-71917873D01*
X77400500Y-71500000D01*
X78800000Y-71500000D01*
X79550000Y-71500000D01*
X79550000Y-70525000D01*
X79549999Y-70524999D01*
X79500029Y-70525000D01*
X79500011Y-70525001D01*
X79397302Y-70535494D01*
X79230880Y-70590641D01*
X79230875Y-70590643D01*
X79081654Y-70682684D01*
X78957684Y-70806654D01*
X78865643Y-70955875D01*
X78865641Y-70955880D01*
X78810494Y-71122302D01*
X78810493Y-71122309D01*
X78800000Y-71225013D01*
X78800000Y-71500000D01*
X77400500Y-71500000D01*
X77400499Y-69422128D01*
X77394091Y-69362517D01*
X77390960Y-69354123D01*
X77343797Y-69227671D01*
X77343793Y-69227664D01*
X77257547Y-69112455D01*
X77257544Y-69112452D01*
X77142335Y-69026206D01*
X77142328Y-69026202D01*
X77007482Y-68975908D01*
X77007483Y-68975908D01*
X76947883Y-68969501D01*
X76947881Y-68969500D01*
X76947873Y-68969500D01*
X76947865Y-68969500D01*
X76153787Y-68969500D01*
X76086748Y-68949815D01*
X76040993Y-68897011D01*
X76031049Y-68827853D01*
X76060074Y-68764297D01*
X76088691Y-68739961D01*
X76151341Y-68701318D01*
X76257866Y-68594793D01*
X76319189Y-68561308D01*
X76388881Y-68566292D01*
X76419862Y-68583209D01*
X76433410Y-68593351D01*
X76568123Y-68643597D01*
X76568127Y-68643598D01*
X76627655Y-68649999D01*
X76627672Y-68650000D01*
X77163000Y-68650000D01*
X77163000Y-68124499D01*
X77182685Y-68057460D01*
X77235489Y-68011705D01*
X77286997Y-68000499D01*
X77489001Y-68000499D01*
X77556039Y-68020184D01*
X77601794Y-68072988D01*
X77613000Y-68124499D01*
X77613000Y-68650000D01*
X78148328Y-68650000D01*
X78148344Y-68649999D01*
X78207872Y-68643598D01*
X78207879Y-68643596D01*
X78342586Y-68593354D01*
X78342593Y-68593350D01*
X78457687Y-68507190D01*
X78457690Y-68507187D01*
X78543850Y-68392093D01*
X78543854Y-68392086D01*
X78594096Y-68257379D01*
X78594098Y-68257372D01*
X78600499Y-68197844D01*
X78600500Y-68197827D01*
X78600500Y-68150000D01*
X78439935Y-68150000D01*
X78372896Y-68130315D01*
X78327141Y-68077511D01*
X78317197Y-68008353D01*
X78346222Y-67944797D01*
X78365624Y-67926734D01*
X78423932Y-67883083D01*
X78458046Y-67857546D01*
X78538789Y-67749688D01*
X78586605Y-67713894D01*
X78600500Y-67700000D01*
X78600500Y-67652182D01*
X78600499Y-67652164D01*
X78596568Y-67615602D01*
X78596568Y-67589094D01*
X78601000Y-67547873D01*
X78600999Y-67002128D01*
X78600998Y-67002111D01*
X78596820Y-66963253D01*
X78596820Y-66936747D01*
X78601000Y-66897873D01*
X78601000Y-66749500D01*
X78620685Y-66682461D01*
X78673489Y-66636706D01*
X78725000Y-66625500D01*
X79425500Y-66625500D01*
X79492539Y-66645185D01*
X79538294Y-66697989D01*
X79549500Y-66749500D01*
X79549500Y-68814070D01*
X79552242Y-68827853D01*
X79566693Y-68900500D01*
X79574499Y-68939744D01*
X79610311Y-69026203D01*
X79623535Y-69058127D01*
X79661950Y-69115620D01*
X79694726Y-69164673D01*
X79694727Y-69164674D01*
X81013181Y-70483127D01*
X81046666Y-70544450D01*
X81049500Y-70570808D01*
X81049500Y-70571042D01*
X81029815Y-70638081D01*
X80990598Y-70676580D01*
X80981344Y-70682287D01*
X80857288Y-70806343D01*
X80857283Y-70806349D01*
X80855241Y-70809661D01*
X80853247Y-70811453D01*
X80852807Y-70812011D01*
X80852711Y-70811935D01*
X80803291Y-70856383D01*
X80734328Y-70867602D01*
X80670247Y-70839755D01*
X80644168Y-70809656D01*
X80642319Y-70806659D01*
X80642316Y-70806655D01*
X80518345Y-70682684D01*
X80369124Y-70590643D01*
X80369119Y-70590641D01*
X80202697Y-70535494D01*
X80202690Y-70535493D01*
X80099986Y-70525000D01*
X80050000Y-70525000D01*
X80050000Y-75955500D01*
X80775500Y-75955500D01*
X80842539Y-75975185D01*
X80888294Y-76027989D01*
X80899500Y-76079500D01*
X80899500Y-76331500D01*
X80879815Y-76398539D01*
X80827011Y-76444294D01*
X80775500Y-76455500D01*
X79000000Y-76455500D01*
X79000000Y-76783649D01*
X79002899Y-76820489D01*
X79002900Y-76820495D01*
X79048716Y-76978193D01*
X79048717Y-76978196D01*
X79132314Y-77119552D01*
X79132321Y-77119561D01*
X79248438Y-77235678D01*
X79248447Y-77235685D01*
X79248939Y-77235976D01*
X79249245Y-77236304D01*
X79254607Y-77240463D01*
X79253936Y-77241327D01*
X79296624Y-77287044D01*
X79309129Y-77355786D01*
X79282484Y-77420376D01*
X79254141Y-77444937D01*
X79254298Y-77445139D01*
X79250592Y-77448012D01*
X79248953Y-77449434D01*
X79248142Y-77449913D01*
X79248129Y-77449923D01*
X79131923Y-77566129D01*
X79131917Y-77566137D01*
X79048255Y-77707603D01*
X79048254Y-77707606D01*
X79002402Y-77865426D01*
X79002401Y-77865432D01*
X78999500Y-77902298D01*
X78999500Y-79058701D01*
X79002401Y-79095567D01*
X79002402Y-79095573D01*
X79048254Y-79253393D01*
X79048255Y-79253396D01*
X79048256Y-79253398D01*
X79067181Y-79285398D01*
X79131917Y-79394862D01*
X79131923Y-79394870D01*
X79142654Y-79405601D01*
X79176139Y-79466924D01*
X79171155Y-79536616D01*
X79129283Y-79592549D01*
X79120075Y-79598818D01*
X79106343Y-79607288D01*
X78982289Y-79731342D01*
X78890187Y-79880663D01*
X78890186Y-79880666D01*
X78835001Y-80047203D01*
X78835001Y-80047204D01*
X78835000Y-80047204D01*
X78824500Y-80149983D01*
X78824500Y-81150001D01*
X78824501Y-81150017D01*
X78828938Y-81193445D01*
X78830001Y-81203853D01*
X78830517Y-81208898D01*
X78817748Y-81277591D01*
X78769867Y-81328475D01*
X78707159Y-81345500D01*
X77482064Y-81345500D01*
X77415025Y-81325815D01*
X77369270Y-81273011D01*
X77359326Y-81203853D01*
X77361173Y-81193908D01*
X77386222Y-81084157D01*
X77386222Y-81084155D01*
X77405268Y-80830004D01*
X77405268Y-80829995D01*
X77389931Y-80625335D01*
X77386222Y-80575843D01*
X77329508Y-80327363D01*
X77236393Y-80090112D01*
X77108959Y-79869388D01*
X76950050Y-79670123D01*
X76763217Y-79496768D01*
X76552634Y-79353195D01*
X76552630Y-79353193D01*
X76552627Y-79353191D01*
X76552626Y-79353190D01*
X76323006Y-79242612D01*
X76323008Y-79242612D01*
X76079466Y-79167489D01*
X76079462Y-79167488D01*
X76079458Y-79167487D01*
X75958231Y-79149214D01*
X75827440Y-79129500D01*
X75827435Y-79129500D01*
X75572565Y-79129500D01*
X75572559Y-79129500D01*
X75415609Y-79153157D01*
X75320542Y-79167487D01*
X75320539Y-79167488D01*
X75320533Y-79167489D01*
X75076992Y-79242612D01*
X74847373Y-79353190D01*
X74847372Y-79353191D01*
X74636782Y-79496768D01*
X74449952Y-79670121D01*
X74449950Y-79670123D01*
X74291041Y-79869388D01*
X74163608Y-80090109D01*
X74070492Y-80327362D01*
X74070490Y-80327369D01*
X74013777Y-80575845D01*
X73994732Y-80829995D01*
X73994732Y-80830004D01*
X74013777Y-81084154D01*
X74056882Y-81273011D01*
X74070492Y-81332637D01*
X74163607Y-81569888D01*
X74291041Y-81790612D01*
X74449950Y-81989877D01*
X74636783Y-82163232D01*
X74847366Y-82306805D01*
X74847371Y-82306807D01*
X74847372Y-82306808D01*
X74847373Y-82306809D01*
X74969328Y-82365538D01*
X75076992Y-82417387D01*
X75076993Y-82417387D01*
X75076996Y-82417389D01*
X75320542Y-82492513D01*
X75572565Y-82530500D01*
X75653767Y-82530500D01*
X75720806Y-82550185D01*
X75766561Y-82602989D01*
X75776505Y-82672147D01*
X75747480Y-82735703D01*
X75741448Y-82742181D01*
X75671577Y-82812051D01*
X75575663Y-82964698D01*
X75516122Y-83134858D01*
X75501000Y-83269069D01*
X75501000Y-83764000D01*
X77701000Y-83764000D01*
X77701000Y-83269070D01*
X77700999Y-83269069D01*
X77685878Y-83134859D01*
X77645496Y-83019455D01*
X77641935Y-82949676D01*
X77676664Y-82889048D01*
X77738657Y-82856821D01*
X77762538Y-82854500D01*
X77938932Y-82854500D01*
X78005971Y-82874185D01*
X78051726Y-82926989D01*
X78061670Y-82996147D01*
X78055973Y-83019455D01*
X78015633Y-83134737D01*
X78015630Y-83134750D01*
X78000500Y-83269039D01*
X78000500Y-84758960D01*
X78015630Y-84893249D01*
X78015631Y-84893254D01*
X78075211Y-85063523D01*
X78100999Y-85104564D01*
X78171184Y-85216262D01*
X78298738Y-85343816D01*
X78451478Y-85439789D01*
X78620342Y-85498877D01*
X78621745Y-85499368D01*
X78621750Y-85499369D01*
X78712246Y-85509565D01*
X78756040Y-85514499D01*
X78756043Y-85514500D01*
X78756046Y-85514500D01*
X79445957Y-85514500D01*
X79445958Y-85514499D01*
X79513104Y-85506934D01*
X79580249Y-85499369D01*
X79580252Y-85499368D01*
X79580255Y-85499368D01*
X79750522Y-85439789D01*
X79903262Y-85343816D01*
X80013319Y-85233759D01*
X80074642Y-85200274D01*
X80144334Y-85205258D01*
X80188681Y-85233759D01*
X80298738Y-85343816D01*
X80451478Y-85439789D01*
X80620342Y-85498877D01*
X80621745Y-85499368D01*
X80621750Y-85499369D01*
X80712246Y-85509565D01*
X80756040Y-85514499D01*
X80756043Y-85514500D01*
X80756046Y-85514500D01*
X81445957Y-85514500D01*
X81445958Y-85514499D01*
X81513104Y-85506934D01*
X81580249Y-85499369D01*
X81580252Y-85499368D01*
X81580255Y-85499368D01*
X81750522Y-85439789D01*
X81903262Y-85343816D01*
X82030816Y-85216262D01*
X82126789Y-85063522D01*
X82186368Y-84893255D01*
X82201500Y-84758954D01*
X82201500Y-83269046D01*
X82186368Y-83134745D01*
X82126789Y-82964478D01*
X82030816Y-82811738D01*
X82005732Y-82786654D01*
X81972247Y-82725331D01*
X81977231Y-82655639D01*
X82005728Y-82611295D01*
X82143463Y-82473560D01*
X82143466Y-82473559D01*
X82248559Y-82368466D01*
X82331129Y-82244890D01*
X82388005Y-82107580D01*
X82417000Y-81961812D01*
X82417000Y-81720730D01*
X82436685Y-81653691D01*
X82453319Y-81633049D01*
X82459163Y-81627205D01*
X82517712Y-81568656D01*
X82524623Y-81557451D01*
X82576566Y-81510727D01*
X82645529Y-81499503D01*
X82709612Y-81527344D01*
X82717842Y-81534866D01*
X82810181Y-81627205D01*
X82843666Y-81688528D01*
X82846500Y-81714886D01*
X82846500Y-82586380D01*
X82826815Y-82653419D01*
X82803568Y-82679166D01*
X82803662Y-82679260D01*
X82801840Y-82681081D01*
X82799815Y-82683325D01*
X82798738Y-82684183D01*
X82671184Y-82811737D01*
X82575211Y-82964476D01*
X82515631Y-83134745D01*
X82515630Y-83134750D01*
X82500500Y-83269039D01*
X82500500Y-84758960D01*
X82515630Y-84893249D01*
X82515631Y-84893254D01*
X82575211Y-85063523D01*
X82600999Y-85104564D01*
X82671184Y-85216262D01*
X82798738Y-85343816D01*
X82951478Y-85439789D01*
X83120342Y-85498877D01*
X83121745Y-85499368D01*
X83121750Y-85499369D01*
X83212246Y-85509565D01*
X83256040Y-85514499D01*
X83256043Y-85514500D01*
X83256046Y-85514500D01*
X83945957Y-85514500D01*
X83945958Y-85514499D01*
X84013104Y-85506934D01*
X84080249Y-85499369D01*
X84080252Y-85499368D01*
X84080255Y-85499368D01*
X84250522Y-85439789D01*
X84403262Y-85343816D01*
X84530816Y-85216262D01*
X84626789Y-85063522D01*
X84686368Y-84893255D01*
X84701500Y-84758954D01*
X84701500Y-83269046D01*
X84686368Y-83134745D01*
X84626789Y-82964478D01*
X84530816Y-82811738D01*
X84403262Y-82684184D01*
X84403261Y-82684183D01*
X84402185Y-82683325D01*
X84401671Y-82682593D01*
X84398338Y-82679260D01*
X84398922Y-82678675D01*
X84362046Y-82626136D01*
X84355500Y-82586380D01*
X84355500Y-81431446D01*
X84355501Y-81431425D01*
X84355501Y-81276685D01*
X84326507Y-81130928D01*
X84326502Y-81130914D01*
X84326337Y-81130515D01*
X84326289Y-81130401D01*
X84307134Y-81084157D01*
X84302946Y-81074045D01*
X84269630Y-80993611D01*
X84218180Y-80916611D01*
X84187059Y-80870034D01*
X84081966Y-80764941D01*
X84081965Y-80764940D01*
X84077635Y-80760610D01*
X84077624Y-80760600D01*
X83380969Y-80063943D01*
X83380968Y-80063942D01*
X83339773Y-80036417D01*
X83257389Y-79981370D01*
X83257386Y-79981368D01*
X83257385Y-79981368D01*
X83176955Y-79948053D01*
X83120080Y-79924495D01*
X83095894Y-79919684D01*
X82974314Y-79895499D01*
X82974312Y-79895499D01*
X82825688Y-79895499D01*
X82819574Y-79895499D01*
X82819554Y-79895500D01*
X82688171Y-79895500D01*
X82621132Y-79875815D01*
X82582632Y-79836597D01*
X82575000Y-79824223D01*
X82517712Y-79731344D01*
X82453319Y-79666951D01*
X82419834Y-79605628D01*
X82417000Y-79579270D01*
X82417000Y-79346069D01*
X82434268Y-79282948D01*
X82451744Y-79253398D01*
X82497598Y-79095569D01*
X82500500Y-79058694D01*
X82500500Y-78024500D01*
X82520185Y-77957461D01*
X82572989Y-77911706D01*
X82624500Y-77900500D01*
X82625500Y-77900500D01*
X82692539Y-77920185D01*
X82738294Y-77972989D01*
X82749500Y-78024500D01*
X82749500Y-79090701D01*
X82752401Y-79127567D01*
X82752402Y-79127573D01*
X82798254Y-79285393D01*
X82798255Y-79285396D01*
X82881917Y-79426862D01*
X82881923Y-79426870D01*
X82998129Y-79543076D01*
X82998133Y-79543079D01*
X82998135Y-79543081D01*
X83139602Y-79626744D01*
X83161135Y-79633000D01*
X83297426Y-79672597D01*
X83297429Y-79672597D01*
X83297431Y-79672598D01*
X83334306Y-79675500D01*
X83334314Y-79675500D01*
X83765686Y-79675500D01*
X83765694Y-79675500D01*
X83802569Y-79672598D01*
X83802571Y-79672597D01*
X83802573Y-79672597D01*
X83844191Y-79660505D01*
X83960398Y-79626744D01*
X84101865Y-79543081D01*
X84218081Y-79426865D01*
X84301744Y-79285398D01*
X84343723Y-79140906D01*
X84347597Y-79127573D01*
X84347598Y-79127567D01*
X84350116Y-79095569D01*
X84350500Y-79090694D01*
X84350500Y-77924500D01*
X84370185Y-77857461D01*
X84422989Y-77811706D01*
X84474500Y-77800500D01*
X84525500Y-77800500D01*
X84592539Y-77820185D01*
X84638294Y-77872989D01*
X84649500Y-77924500D01*
X84649500Y-79090701D01*
X84652401Y-79127567D01*
X84652402Y-79127573D01*
X84698254Y-79285393D01*
X84698255Y-79285396D01*
X84781917Y-79426862D01*
X84781923Y-79426870D01*
X84898129Y-79543076D01*
X84898133Y-79543079D01*
X84898135Y-79543081D01*
X85039602Y-79626744D01*
X85061135Y-79633000D01*
X85197426Y-79672597D01*
X85197429Y-79672597D01*
X85197431Y-79672598D01*
X85234306Y-79675500D01*
X85234314Y-79675500D01*
X85665686Y-79675500D01*
X85665694Y-79675500D01*
X85702569Y-79672598D01*
X85702571Y-79672597D01*
X85702573Y-79672597D01*
X85744191Y-79660505D01*
X85860398Y-79626744D01*
X86001865Y-79543081D01*
X86118081Y-79426865D01*
X86201744Y-79285398D01*
X86243723Y-79140906D01*
X86247597Y-79127573D01*
X86247598Y-79127567D01*
X86250116Y-79095569D01*
X86250500Y-79090694D01*
X86250500Y-77784306D01*
X86247598Y-77747431D01*
X86209424Y-77616036D01*
X86204500Y-77581441D01*
X86204500Y-71830446D01*
X86204501Y-71830425D01*
X86204501Y-71675685D01*
X86175506Y-71529926D01*
X86175505Y-71529925D01*
X86175505Y-71529921D01*
X86170185Y-71517077D01*
X86118633Y-71392618D01*
X86118632Y-71392617D01*
X86118630Y-71392611D01*
X86042888Y-71279255D01*
X86036059Y-71269034D01*
X85930966Y-71163941D01*
X85930965Y-71163940D01*
X85926635Y-71159610D01*
X85926624Y-71159600D01*
X85548385Y-70781360D01*
X85530298Y-70755868D01*
X85529494Y-70756374D01*
X85455165Y-70638081D01*
X85429816Y-70597738D01*
X85302262Y-70470184D01*
X85294149Y-70465086D01*
X85149523Y-70374211D01*
X84979254Y-70314631D01*
X84979249Y-70314630D01*
X84800004Y-70294435D01*
X84799996Y-70294435D01*
X84620750Y-70314630D01*
X84620745Y-70314631D01*
X84450476Y-70374211D01*
X84297737Y-70470184D01*
X84170184Y-70597737D01*
X84074211Y-70750476D01*
X84014631Y-70920745D01*
X84014630Y-70920750D01*
X83994435Y-71099996D01*
X83994435Y-71100003D01*
X84014631Y-71279252D01*
X84074211Y-71449523D01*
X84118917Y-71520671D01*
X84170184Y-71602262D01*
X84297738Y-71729816D01*
X84386320Y-71785476D01*
X84456374Y-71829494D01*
X84455868Y-71830298D01*
X84481360Y-71848385D01*
X84659181Y-72026205D01*
X84692666Y-72087528D01*
X84695500Y-72113886D01*
X84695500Y-75200500D01*
X84675815Y-75267539D01*
X84623011Y-75313294D01*
X84571500Y-75324500D01*
X84284298Y-75324500D01*
X84247432Y-75327401D01*
X84247426Y-75327402D01*
X84089606Y-75373254D01*
X84089603Y-75373255D01*
X83996643Y-75428232D01*
X83933522Y-75445500D01*
X82725687Y-75445500D01*
X82710018Y-75448617D01*
X82685825Y-75451000D01*
X82533353Y-75451000D01*
X82466314Y-75431315D01*
X82426621Y-75390121D01*
X82367768Y-75290605D01*
X82350500Y-75227484D01*
X82350500Y-75178957D01*
X82370185Y-75111918D01*
X82409407Y-75073416D01*
X82418656Y-75067712D01*
X82542712Y-74943656D01*
X82634814Y-74794334D01*
X82689999Y-74627797D01*
X82700500Y-74525009D01*
X82700499Y-73474992D01*
X82689999Y-73372203D01*
X82634814Y-73205666D01*
X82542712Y-73056344D01*
X82449049Y-72962681D01*
X82415564Y-72901358D01*
X82420548Y-72831666D01*
X82449049Y-72787319D01*
X82542712Y-72693656D01*
X82634814Y-72544334D01*
X82689999Y-72377797D01*
X82700500Y-72275009D01*
X82700499Y-71224992D01*
X82689999Y-71122203D01*
X82634814Y-70955666D01*
X82542712Y-70806344D01*
X82418656Y-70682288D01*
X82418655Y-70682287D01*
X82409402Y-70676580D01*
X82362678Y-70624632D01*
X82350500Y-70571042D01*
X82350500Y-70185928D01*
X82325502Y-70060261D01*
X82325501Y-70060260D01*
X82325501Y-70060256D01*
X82276465Y-69941873D01*
X82276463Y-69941870D01*
X82251493Y-69904499D01*
X82251492Y-69904499D01*
X82205276Y-69835330D01*
X82205274Y-69835328D01*
X82205272Y-69835325D01*
X82205271Y-69835324D01*
X81231627Y-68861681D01*
X81198142Y-68800358D01*
X81203126Y-68730667D01*
X81244998Y-68674733D01*
X81310462Y-68650316D01*
X81319308Y-68650000D01*
X81587000Y-68650000D01*
X81587000Y-68124499D01*
X81606685Y-68057460D01*
X81659489Y-68011705D01*
X81710997Y-68000499D01*
X81913001Y-68000499D01*
X81980039Y-68020184D01*
X82025794Y-68072988D01*
X82037000Y-68124499D01*
X82037000Y-68650000D01*
X82572328Y-68650000D01*
X82572344Y-68649999D01*
X82631872Y-68643598D01*
X82631879Y-68643596D01*
X82766586Y-68593354D01*
X82766590Y-68593352D01*
X82791433Y-68574754D01*
X82856896Y-68550335D01*
X82925170Y-68565185D01*
X82971286Y-68608925D01*
X82977286Y-68618654D01*
X82977288Y-68618656D01*
X83101344Y-68742712D01*
X83250666Y-68834814D01*
X83417203Y-68889999D01*
X83519991Y-68900500D01*
X84570008Y-68900499D01*
X84570016Y-68900498D01*
X84570019Y-68900498D01*
X84626302Y-68894748D01*
X84672797Y-68889999D01*
X84839334Y-68834814D01*
X84988656Y-68742712D01*
X85112712Y-68618656D01*
X85204814Y-68469334D01*
X85259999Y-68302797D01*
X85270500Y-68200009D01*
X85270499Y-67599992D01*
X85259999Y-67497203D01*
X85204814Y-67330666D01*
X85112712Y-67181344D01*
X84988656Y-67057288D01*
X84985819Y-67055538D01*
X84984283Y-67053830D01*
X84982989Y-67052807D01*
X84983163Y-67052585D01*
X84939096Y-67003594D01*
X84927872Y-66934632D01*
X84955713Y-66870549D01*
X84985817Y-66844462D01*
X84988656Y-66842712D01*
X85112712Y-66718656D01*
X85204814Y-66569334D01*
X85259999Y-66402797D01*
X85270500Y-66300009D01*
X85270499Y-65699992D01*
X85259999Y-65597203D01*
X85204814Y-65430666D01*
X85112712Y-65281344D01*
X84988656Y-65157288D01*
X84839334Y-65065186D01*
X84672797Y-65010001D01*
X84672795Y-65010000D01*
X84570010Y-64999500D01*
X83519998Y-64999500D01*
X83519980Y-64999501D01*
X83417203Y-65010000D01*
X83417200Y-65010001D01*
X83250668Y-65065185D01*
X83250663Y-65065187D01*
X83101342Y-65157289D01*
X82977288Y-65281343D01*
X82977283Y-65281349D01*
X82971544Y-65290654D01*
X82919594Y-65337376D01*
X82850631Y-65348595D01*
X82791699Y-65324819D01*
X82766835Y-65306206D01*
X82766828Y-65306202D01*
X82637581Y-65257997D01*
X82581647Y-65216126D01*
X82557230Y-65150662D01*
X82572081Y-65082389D01*
X82593227Y-65054140D01*
X82715712Y-64931656D01*
X82807814Y-64782334D01*
X82862999Y-64615797D01*
X82873500Y-64513009D01*
X82873499Y-63462992D01*
X82862999Y-63360203D01*
X82807814Y-63193666D01*
X82715712Y-63044344D01*
X82591656Y-62920288D01*
X82469745Y-62845093D01*
X82442336Y-62828187D01*
X82442331Y-62828185D01*
X82375574Y-62806064D01*
X82275797Y-62773001D01*
X82275795Y-62773000D01*
X82173010Y-62762500D01*
X81572998Y-62762500D01*
X81572980Y-62762501D01*
X81470203Y-62773000D01*
X81470200Y-62773001D01*
X81303668Y-62828185D01*
X81303663Y-62828187D01*
X81154342Y-62920289D01*
X81030288Y-63044343D01*
X81030283Y-63044349D01*
X81028241Y-63047661D01*
X81026247Y-63049453D01*
X81025807Y-63050011D01*
X81025711Y-63049935D01*
X80976291Y-63094383D01*
X80907328Y-63105602D01*
X80843247Y-63077755D01*
X80817168Y-63047656D01*
X80815319Y-63044659D01*
X80815316Y-63044655D01*
X80691344Y-62920683D01*
X80685677Y-62916202D01*
X80687256Y-62914204D01*
X80648525Y-62871147D01*
X80637300Y-62802185D01*
X80665141Y-62738101D01*
X80695247Y-62712013D01*
X80697922Y-62710362D01*
X80697925Y-62710362D01*
X80846003Y-62619026D01*
X80969026Y-62496003D01*
X81060362Y-62347925D01*
X81115087Y-62182775D01*
X81125500Y-62080848D01*
X81125500Y-61911230D01*
X81145185Y-61844191D01*
X81197989Y-61798436D01*
X81267147Y-61788492D01*
X81330703Y-61817517D01*
X81337181Y-61823549D01*
X81431344Y-61917712D01*
X81580666Y-62009814D01*
X81747203Y-62064999D01*
X81849991Y-62075500D01*
X82850008Y-62075499D01*
X82850016Y-62075498D01*
X82850019Y-62075498D01*
X82906302Y-62069748D01*
X82952797Y-62064999D01*
X83119334Y-62009814D01*
X83268656Y-61917712D01*
X83392712Y-61793656D01*
X83484814Y-61644334D01*
X83539999Y-61477797D01*
X83550500Y-61375009D01*
X83550499Y-60749992D01*
X83539999Y-60647203D01*
X83491221Y-60500000D01*
X85025000Y-60500000D01*
X85825000Y-59700000D01*
X85825000Y-56800000D01*
X85475000Y-56450000D01*
X85448728Y-56450000D01*
X85456834Y-56447314D01*
X85606156Y-56355212D01*
X85730212Y-56231156D01*
X85822314Y-56081834D01*
X85877499Y-55915297D01*
X85888000Y-55812509D01*
X85887999Y-55212492D01*
X85877499Y-55109703D01*
X85822314Y-54943166D01*
X85821198Y-54941356D01*
X85785072Y-54882786D01*
X85778593Y-54859109D01*
X85769979Y-54843333D01*
X85770869Y-54830880D01*
X85766632Y-54815394D01*
X85773554Y-54793338D01*
X85774963Y-54773641D01*
X85786168Y-54753147D01*
X85787555Y-54748730D01*
X85791378Y-54743334D01*
X85791880Y-54742664D01*
X85791886Y-54742656D01*
X85860839Y-54616375D01*
X85891422Y-54475783D01*
X85896406Y-54406091D01*
X85895610Y-54394968D01*
X85894795Y-54383569D01*
X85886142Y-54262580D01*
X85835860Y-54127771D01*
X85802375Y-54066448D01*
X85716151Y-53951267D01*
X85716146Y-53951262D01*
X85716141Y-53951256D01*
X85393776Y-53628892D01*
X85393761Y-53628877D01*
X85390346Y-53625809D01*
X85353519Y-53592728D01*
X85353507Y-53592718D01*
X85332856Y-53576076D01*
X85288974Y-53544433D01*
X85158100Y-53484663D01*
X85150737Y-53482501D01*
X85091058Y-53464977D01*
X85091060Y-53464977D01*
X85091055Y-53464976D01*
X85038083Y-53457360D01*
X84948638Y-53444500D01*
X84948636Y-53444500D01*
X82365808Y-53444500D01*
X82298769Y-53424815D01*
X82278127Y-53408181D01*
X81961819Y-53091873D01*
X81928334Y-53030550D01*
X81925500Y-53004192D01*
X81925500Y-52737727D01*
X81945185Y-52670688D01*
X81997989Y-52624933D01*
X82067147Y-52614989D01*
X82088504Y-52620021D01*
X82147302Y-52639505D01*
X82147309Y-52639506D01*
X82250019Y-52649999D01*
X83049999Y-52649999D01*
X83050000Y-52649998D01*
X83050000Y-51500000D01*
X83550000Y-51500000D01*
X83550000Y-52649999D01*
X84349972Y-52649999D01*
X84349986Y-52649998D01*
X84452697Y-52639505D01*
X84619119Y-52584358D01*
X84619124Y-52584356D01*
X84768345Y-52492315D01*
X84892315Y-52368345D01*
X84984356Y-52219124D01*
X84984358Y-52219119D01*
X85039505Y-52052697D01*
X85039506Y-52052690D01*
X85049999Y-51949986D01*
X85050000Y-51949973D01*
X85050000Y-51500000D01*
X83550000Y-51500000D01*
X83050000Y-51500000D01*
X83050000Y-49850000D01*
X83550000Y-49850000D01*
X83550000Y-51000000D01*
X85049999Y-51000000D01*
X85049999Y-50550028D01*
X85049998Y-50550013D01*
X85039505Y-50447302D01*
X84984358Y-50280880D01*
X84984356Y-50280875D01*
X84892315Y-50131654D01*
X84768345Y-50007684D01*
X84619124Y-49915643D01*
X84619119Y-49915641D01*
X84452697Y-49860494D01*
X84452690Y-49860493D01*
X84349986Y-49850000D01*
X83550000Y-49850000D01*
X83050000Y-49850000D01*
X82250028Y-49850000D01*
X82250012Y-49850001D01*
X82147302Y-49860494D01*
X82088504Y-49879978D01*
X82018675Y-49882380D01*
X81958634Y-49846648D01*
X81927441Y-49784127D01*
X81925500Y-49762272D01*
X81925500Y-49685928D01*
X81900502Y-49560261D01*
X81900501Y-49560260D01*
X81900501Y-49560256D01*
X81851465Y-49441873D01*
X81780277Y-49335331D01*
X81780275Y-49335329D01*
X81780273Y-49335326D01*
X80360671Y-47915724D01*
X80253272Y-47843963D01*
X80208467Y-47790351D01*
X80199760Y-47721026D01*
X80229914Y-47657999D01*
X80289357Y-47621279D01*
X80309564Y-47617503D01*
X80348696Y-47613506D01*
X80515119Y-47558358D01*
X80515124Y-47558356D01*
X80664345Y-47466315D01*
X80788315Y-47342345D01*
X80880356Y-47193124D01*
X80880358Y-47193119D01*
X80935505Y-47026697D01*
X80935506Y-47026690D01*
X80945999Y-46923986D01*
X80946000Y-46923973D01*
X80946000Y-45624000D01*
X79820000Y-45624000D01*
X79752961Y-45604315D01*
X79707206Y-45551511D01*
X79696000Y-45500000D01*
X79696000Y-43124000D01*
X80196000Y-43124000D01*
X80196000Y-45124000D01*
X80945999Y-45124000D01*
X80945999Y-43824028D01*
X80945998Y-43824013D01*
X80935505Y-43721302D01*
X80880358Y-43554880D01*
X80880356Y-43554875D01*
X80788315Y-43405654D01*
X80664345Y-43281684D01*
X80515124Y-43189643D01*
X80515119Y-43189641D01*
X80348697Y-43134494D01*
X80348690Y-43134493D01*
X80245986Y-43124000D01*
X80196000Y-43124000D01*
X79696000Y-43124000D01*
X79695999Y-43123999D01*
X79646029Y-43124000D01*
X79646011Y-43124001D01*
X79543302Y-43134494D01*
X79376880Y-43189641D01*
X79376875Y-43189643D01*
X79227654Y-43281684D01*
X79103682Y-43405656D01*
X79051831Y-43489720D01*
X78999883Y-43536444D01*
X78930920Y-43547665D01*
X78866838Y-43519822D01*
X78840754Y-43489718D01*
X78788712Y-43405344D01*
X78664657Y-43281289D01*
X78664656Y-43281288D01*
X78515334Y-43189186D01*
X78348797Y-43134001D01*
X78348795Y-43134000D01*
X78246010Y-43123500D01*
X77645998Y-43123500D01*
X77645980Y-43123501D01*
X77543203Y-43134000D01*
X77543200Y-43134001D01*
X77376668Y-43189185D01*
X77376663Y-43189187D01*
X77227342Y-43281289D01*
X77103289Y-43405342D01*
X77011187Y-43554663D01*
X77011185Y-43554668D01*
X76983349Y-43638670D01*
X76956001Y-43721203D01*
X76956001Y-43721204D01*
X76956000Y-43721204D01*
X76945500Y-43823983D01*
X76945500Y-46924001D01*
X76945501Y-46924018D01*
X76956000Y-47026796D01*
X76956001Y-47026799D01*
X77011115Y-47193119D01*
X77011186Y-47193334D01*
X77103288Y-47342656D01*
X77227344Y-47466712D01*
X77236591Y-47472416D01*
X77283318Y-47524360D01*
X77295500Y-47577957D01*
X77295500Y-47784071D01*
X77318618Y-47900288D01*
X77318619Y-47900292D01*
X77320498Y-47909742D01*
X77369344Y-48027665D01*
X77369535Y-48028127D01*
X77440723Y-48134669D01*
X77440726Y-48134673D01*
X78232326Y-48926273D01*
X78232329Y-48926275D01*
X78232331Y-48926277D01*
X78338873Y-48997465D01*
X78457256Y-49046501D01*
X78457260Y-49046501D01*
X78457261Y-49046502D01*
X78582928Y-49071500D01*
X78582931Y-49071500D01*
X78711069Y-49071500D01*
X79625192Y-49071500D01*
X79692231Y-49091185D01*
X79712873Y-49107819D01*
X80242873Y-49637819D01*
X80276358Y-49699142D01*
X80271374Y-49768834D01*
X80229502Y-49824767D01*
X80164038Y-49849184D01*
X80155192Y-49849500D01*
X78249998Y-49849500D01*
X78249981Y-49849501D01*
X78147203Y-49860000D01*
X78147200Y-49860001D01*
X77980668Y-49915185D01*
X77980663Y-49915187D01*
X77831342Y-50007289D01*
X77707289Y-50131342D01*
X77615187Y-50280663D01*
X77615185Y-50280668D01*
X77598393Y-50331344D01*
X77560001Y-50447203D01*
X77560001Y-50447204D01*
X77560000Y-50447204D01*
X77549500Y-50549983D01*
X77549500Y-51950001D01*
X77549501Y-51950018D01*
X77560000Y-52052796D01*
X77560001Y-52052799D01*
X77598393Y-52168656D01*
X77615186Y-52219334D01*
X77707288Y-52368656D01*
X77831344Y-52492712D01*
X77980666Y-52584814D01*
X78147203Y-52639999D01*
X78249991Y-52650500D01*
X78421500Y-52650499D01*
X78488539Y-52670183D01*
X78534294Y-52722987D01*
X78545500Y-52774499D01*
X78545500Y-53220552D01*
X78545499Y-53220578D01*
X78545499Y-53320500D01*
X78525814Y-53387539D01*
X78473010Y-53433294D01*
X78421499Y-53444500D01*
X77039500Y-53444500D01*
X76972461Y-53424815D01*
X76926706Y-53372011D01*
X76915500Y-53320500D01*
X76915500Y-52844157D01*
X76915499Y-52844144D01*
X76908384Y-52774499D01*
X76905087Y-52742225D01*
X76850362Y-52577075D01*
X76850358Y-52577069D01*
X76850357Y-52577066D01*
X76759028Y-52429000D01*
X76759025Y-52428996D01*
X76720879Y-52390850D01*
X76687394Y-52329527D01*
X76692378Y-52259835D01*
X76720878Y-52215489D01*
X76767712Y-52168656D01*
X76859814Y-52019334D01*
X76914999Y-51852797D01*
X76925500Y-51750009D01*
X76925499Y-50749992D01*
X76914999Y-50647203D01*
X76859814Y-50480666D01*
X76767712Y-50331344D01*
X76666566Y-50230198D01*
X76633081Y-50168875D01*
X76638065Y-50099183D01*
X76679937Y-50043250D01*
X76689152Y-50036977D01*
X76691845Y-50035315D01*
X76815815Y-49911345D01*
X76907856Y-49762124D01*
X76907858Y-49762119D01*
X76963005Y-49595697D01*
X76963006Y-49595690D01*
X76973499Y-49492986D01*
X76973500Y-49492973D01*
X76973500Y-49218000D01*
X75847500Y-49218000D01*
X75780461Y-49198315D01*
X75734706Y-49145511D01*
X75723500Y-49094000D01*
X75723500Y-47743000D01*
X76223500Y-47743000D01*
X76223500Y-48718000D01*
X76973499Y-48718000D01*
X76973499Y-48443028D01*
X76973498Y-48443013D01*
X76963005Y-48340302D01*
X76907858Y-48173880D01*
X76907856Y-48173875D01*
X76815815Y-48024654D01*
X76691845Y-47900684D01*
X76542624Y-47808643D01*
X76542619Y-47808641D01*
X76376197Y-47753494D01*
X76376190Y-47753493D01*
X76273486Y-47743000D01*
X76223500Y-47743000D01*
X75723500Y-47743000D01*
X75723499Y-47742999D01*
X75673529Y-47743000D01*
X75673511Y-47743001D01*
X75570802Y-47753494D01*
X75404380Y-47808641D01*
X75404375Y-47808643D01*
X75255154Y-47900684D01*
X75131183Y-48024655D01*
X75131179Y-48024660D01*
X75129326Y-48027665D01*
X75127518Y-48029290D01*
X75126702Y-48030323D01*
X75126525Y-48030183D01*
X75077374Y-48074385D01*
X75008411Y-48085601D01*
X74944331Y-48057752D01*
X74918253Y-48027653D01*
X74918237Y-48027628D01*
X74916212Y-48024344D01*
X74864319Y-47972451D01*
X74830834Y-47911128D01*
X74828000Y-47884770D01*
X74828000Y-43519187D01*
X74827999Y-43519183D01*
X74805417Y-43405656D01*
X74799005Y-43373420D01*
X74742129Y-43236110D01*
X74732044Y-43221017D01*
X74659560Y-43112535D01*
X74659554Y-43112528D01*
X74550147Y-43003121D01*
X74550124Y-43003100D01*
X74013969Y-42466943D01*
X74013968Y-42466942D01*
X73972773Y-42439417D01*
X73890389Y-42384370D01*
X73890386Y-42384368D01*
X73890385Y-42384368D01*
X73809955Y-42351053D01*
X73753080Y-42327495D01*
X73728894Y-42322684D01*
X73607314Y-42298499D01*
X73607312Y-42298499D01*
X73458688Y-42298499D01*
X73452574Y-42298499D01*
X73452554Y-42298500D01*
X71715500Y-42298500D01*
X71648461Y-42278815D01*
X71602706Y-42226011D01*
X71591500Y-42174500D01*
X71591499Y-41235129D01*
X71591498Y-41235123D01*
X71591497Y-41235116D01*
X71585091Y-41175517D01*
X71534796Y-41040669D01*
X71534795Y-41040668D01*
X71534793Y-41040664D01*
X71448547Y-40925455D01*
X71448544Y-40925452D01*
X71333335Y-40839206D01*
X71333328Y-40839202D01*
X71198482Y-40788908D01*
X71198483Y-40788908D01*
X71138883Y-40782501D01*
X71138881Y-40782500D01*
X71138873Y-40782500D01*
X71138864Y-40782500D01*
X68043129Y-40782500D01*
X68043123Y-40782501D01*
X67983516Y-40788908D01*
X67848671Y-40839202D01*
X67848664Y-40839206D01*
X67733455Y-40925452D01*
X67733452Y-40925455D01*
X67647206Y-41040664D01*
X67647202Y-41040671D01*
X67596908Y-41175517D01*
X67591407Y-41226689D01*
X67590500Y-41235127D01*
X67590500Y-41758358D01*
X67590501Y-42174500D01*
X67570817Y-42241539D01*
X67518013Y-42287294D01*
X67466501Y-42298500D01*
X66675500Y-42298500D01*
X66608461Y-42278815D01*
X66562706Y-42226011D01*
X66551500Y-42174500D01*
X66551499Y-41235129D01*
X66551498Y-41235123D01*
X66551497Y-41235116D01*
X66545091Y-41175517D01*
X66494796Y-41040669D01*
X66494795Y-41040668D01*
X66494793Y-41040664D01*
X66408547Y-40925455D01*
X66408544Y-40925452D01*
X66293335Y-40839206D01*
X66293328Y-40839202D01*
X66158482Y-40788908D01*
X66158483Y-40788908D01*
X66098883Y-40782501D01*
X66098881Y-40782500D01*
X66098873Y-40782500D01*
X66098865Y-40782500D01*
X65429500Y-40782500D01*
X65362461Y-40762815D01*
X65316706Y-40710011D01*
X65305500Y-40658500D01*
X65305500Y-40367499D01*
X65325185Y-40300460D01*
X65377989Y-40254705D01*
X65429500Y-40243499D01*
X66098871Y-40243499D01*
X66098872Y-40243499D01*
X66158483Y-40237091D01*
X66293331Y-40186796D01*
X66408546Y-40100546D01*
X66494796Y-39985331D01*
X66545091Y-39850483D01*
X66551500Y-39790873D01*
X66551500Y-39790870D01*
X67590500Y-39790870D01*
X67590501Y-39790876D01*
X67596908Y-39850483D01*
X67647202Y-39985328D01*
X67647206Y-39985335D01*
X67733452Y-40100544D01*
X67733455Y-40100547D01*
X67848664Y-40186793D01*
X67848671Y-40186797D01*
X67983517Y-40237091D01*
X67983516Y-40237091D01*
X67990444Y-40237835D01*
X68043127Y-40243500D01*
X71138872Y-40243499D01*
X71198483Y-40237091D01*
X71333331Y-40186796D01*
X71448546Y-40100546D01*
X71534796Y-39985331D01*
X71576320Y-39874000D01*
X74346000Y-39874000D01*
X74346000Y-41123985D01*
X74356493Y-41226689D01*
X74356494Y-41226696D01*
X74411641Y-41393118D01*
X74411643Y-41393123D01*
X74503684Y-41542344D01*
X74627655Y-41666315D01*
X74776876Y-41758356D01*
X74776881Y-41758358D01*
X74943303Y-41813505D01*
X74943310Y-41813506D01*
X75046014Y-41823999D01*
X75046027Y-41824000D01*
X75346000Y-41824000D01*
X75346000Y-39874000D01*
X75846000Y-39874000D01*
X75846000Y-41824000D01*
X76145973Y-41824000D01*
X76145985Y-41823999D01*
X76248689Y-41813506D01*
X76248696Y-41813505D01*
X76415118Y-41758358D01*
X76415123Y-41758356D01*
X76564344Y-41666315D01*
X76688315Y-41542344D01*
X76780356Y-41393123D01*
X76780358Y-41393118D01*
X76835505Y-41226696D01*
X76835506Y-41226689D01*
X76845999Y-41123985D01*
X76846000Y-41123972D01*
X76846000Y-39874000D01*
X81046000Y-39874000D01*
X81046000Y-41123985D01*
X81056493Y-41226689D01*
X81056494Y-41226696D01*
X81111641Y-41393118D01*
X81111643Y-41393123D01*
X81203684Y-41542344D01*
X81327655Y-41666315D01*
X81476876Y-41758356D01*
X81476881Y-41758358D01*
X81643303Y-41813505D01*
X81643310Y-41813506D01*
X81746014Y-41823999D01*
X81746027Y-41824000D01*
X82046000Y-41824000D01*
X82046000Y-39874000D01*
X82546000Y-39874000D01*
X82546000Y-41824000D01*
X82845973Y-41824000D01*
X82845985Y-41823999D01*
X82948689Y-41813506D01*
X82948696Y-41813505D01*
X83115118Y-41758358D01*
X83115123Y-41758356D01*
X83264344Y-41666315D01*
X83388315Y-41542344D01*
X83480356Y-41393123D01*
X83480358Y-41393118D01*
X83535505Y-41226696D01*
X83535506Y-41226689D01*
X83545999Y-41123985D01*
X83546000Y-41123972D01*
X83546000Y-39874000D01*
X82546000Y-39874000D01*
X82046000Y-39874000D01*
X81046000Y-39874000D01*
X76846000Y-39874000D01*
X75846000Y-39874000D01*
X75346000Y-39874000D01*
X74346000Y-39874000D01*
X71576320Y-39874000D01*
X71585091Y-39850483D01*
X71591500Y-39790873D01*
X71591499Y-38695128D01*
X71585091Y-38635517D01*
X71534796Y-38500669D01*
X71534795Y-38500668D01*
X71534793Y-38500664D01*
X71448547Y-38385455D01*
X71448544Y-38385452D01*
X71333335Y-38299206D01*
X71333328Y-38299202D01*
X71198482Y-38248908D01*
X71198483Y-38248908D01*
X71138883Y-38242501D01*
X71138881Y-38242500D01*
X71138873Y-38242500D01*
X71138864Y-38242500D01*
X68043129Y-38242500D01*
X68043123Y-38242501D01*
X67983516Y-38248908D01*
X67848671Y-38299202D01*
X67848664Y-38299206D01*
X67733455Y-38385452D01*
X67733452Y-38385455D01*
X67647206Y-38500664D01*
X67647202Y-38500671D01*
X67596908Y-38635517D01*
X67590501Y-38695116D01*
X67590501Y-38695123D01*
X67590500Y-38695135D01*
X67590500Y-39790870D01*
X66551500Y-39790870D01*
X66551499Y-38695128D01*
X66545091Y-38635517D01*
X66494796Y-38500669D01*
X66494795Y-38500668D01*
X66494793Y-38500664D01*
X66408547Y-38385455D01*
X66408544Y-38385452D01*
X66293335Y-38299206D01*
X66293328Y-38299202D01*
X66158482Y-38248908D01*
X66158483Y-38248908D01*
X66098883Y-38242501D01*
X66098881Y-38242500D01*
X66098873Y-38242500D01*
X66098864Y-38242500D01*
X63003129Y-38242500D01*
X63003123Y-38242501D01*
X62943516Y-38248908D01*
X62808671Y-38299202D01*
X62808664Y-38299206D01*
X62693455Y-38385452D01*
X62693452Y-38385455D01*
X62607206Y-38500664D01*
X62607202Y-38500671D01*
X62556908Y-38635517D01*
X62550501Y-38695116D01*
X62550501Y-38695123D01*
X62550500Y-38695135D01*
X62550500Y-39790870D01*
X62550501Y-39790876D01*
X62556908Y-39850483D01*
X62607202Y-39985328D01*
X62607206Y-39985335D01*
X62693452Y-40100544D01*
X62693455Y-40100547D01*
X62808664Y-40186793D01*
X62808671Y-40186797D01*
X62943517Y-40237091D01*
X62943516Y-40237091D01*
X62950444Y-40237835D01*
X63003127Y-40243500D01*
X63672500Y-40243499D01*
X63739539Y-40263183D01*
X63785294Y-40315987D01*
X63796500Y-40367499D01*
X63796500Y-40658500D01*
X63776815Y-40725539D01*
X63724011Y-40771294D01*
X63672500Y-40782500D01*
X63003129Y-40782500D01*
X63003123Y-40782501D01*
X62943516Y-40788908D01*
X62808671Y-40839202D01*
X62808664Y-40839206D01*
X62693455Y-40925452D01*
X62693452Y-40925455D01*
X62607206Y-41040664D01*
X62607202Y-41040671D01*
X62556908Y-41175517D01*
X62551407Y-41226689D01*
X62550501Y-41235123D01*
X62550500Y-41235135D01*
X62550500Y-42330870D01*
X61341000Y-42330870D01*
X61341000Y-37843000D01*
X61360685Y-37775961D01*
X61413489Y-37730206D01*
X61465000Y-37719000D01*
X74284948Y-37719000D01*
X74351987Y-37738685D01*
G37*
G04 #@! TD.AperFunction*
G04 #@! TA.AperFunction,Conductor*
G36*
X81340167Y-56030506D02*
G01*
X81364355Y-56058421D01*
X81364639Y-56058202D01*
X81368679Y-56063411D01*
X81369232Y-56064048D01*
X81369419Y-56064365D01*
X81369421Y-56064367D01*
X81369423Y-56064370D01*
X81485629Y-56180576D01*
X81485633Y-56180579D01*
X81485635Y-56180581D01*
X81627102Y-56264244D01*
X81668724Y-56276336D01*
X81784926Y-56310097D01*
X81784929Y-56310097D01*
X81784931Y-56310098D01*
X81821806Y-56313000D01*
X81821814Y-56313000D01*
X82978186Y-56313000D01*
X82978194Y-56313000D01*
X83015069Y-56310098D01*
X83015071Y-56310097D01*
X83015073Y-56310097D01*
X83056691Y-56298005D01*
X83172898Y-56264244D01*
X83314365Y-56180581D01*
X83357622Y-56137323D01*
X83418942Y-56103838D01*
X83488634Y-56108821D01*
X83544569Y-56150692D01*
X83550836Y-56159899D01*
X83594788Y-56231156D01*
X83718844Y-56355212D01*
X83813750Y-56413750D01*
X83850000Y-56450000D01*
X83876272Y-56450000D01*
X84034703Y-56502499D01*
X84137491Y-56513000D01*
X85187508Y-56512999D01*
X85187516Y-56512998D01*
X85187519Y-56512998D01*
X85243802Y-56507248D01*
X85290297Y-56502499D01*
X85448728Y-56450000D01*
X85475000Y-56450000D01*
X85825000Y-56800000D01*
X85825000Y-59700000D01*
X85025000Y-60500000D01*
X83491221Y-60500000D01*
X83484814Y-60480666D01*
X83392712Y-60331344D01*
X83299049Y-60237681D01*
X83265564Y-60176358D01*
X83270548Y-60106666D01*
X83299049Y-60062319D01*
X83319038Y-60042330D01*
X83392712Y-59968656D01*
X83484814Y-59819334D01*
X83539999Y-59652797D01*
X83550500Y-59550009D01*
X83550499Y-58924992D01*
X83547947Y-58900013D01*
X83539999Y-58822203D01*
X83539998Y-58822200D01*
X83531715Y-58797203D01*
X83484814Y-58655666D01*
X83392712Y-58506344D01*
X83268656Y-58382288D01*
X83216036Y-58349831D01*
X83169313Y-58297885D01*
X83158090Y-58228922D01*
X83185934Y-58164840D01*
X83218007Y-58137566D01*
X83314365Y-58080581D01*
X83430581Y-57964365D01*
X83514244Y-57822898D01*
X83560098Y-57665069D01*
X83563000Y-57628194D01*
X83563000Y-57196806D01*
X83560098Y-57159931D01*
X83514244Y-57002102D01*
X83430581Y-56860635D01*
X83430579Y-56860633D01*
X83430576Y-56860629D01*
X83314370Y-56744423D01*
X83314362Y-56744417D01*
X83172896Y-56660755D01*
X83172893Y-56660754D01*
X83015073Y-56614902D01*
X83015067Y-56614901D01*
X82978201Y-56612000D01*
X82978194Y-56612000D01*
X81821806Y-56612000D01*
X81821798Y-56612000D01*
X81784932Y-56614901D01*
X81784926Y-56614902D01*
X81627106Y-56660754D01*
X81627103Y-56660755D01*
X81485637Y-56744417D01*
X81485629Y-56744423D01*
X81369423Y-56860629D01*
X81369414Y-56860640D01*
X81369229Y-56860955D01*
X81369019Y-56861150D01*
X81364639Y-56866798D01*
X81363727Y-56866091D01*
X81318157Y-56908636D01*
X81249415Y-56921137D01*
X81184827Y-56894488D01*
X81160643Y-56866578D01*
X81160361Y-56866798D01*
X81156323Y-56861592D01*
X81155771Y-56860955D01*
X81155585Y-56860640D01*
X81155576Y-56860629D01*
X81039370Y-56744423D01*
X81039362Y-56744417D01*
X80897896Y-56660755D01*
X80897893Y-56660754D01*
X80740073Y-56614902D01*
X80740067Y-56614901D01*
X80703201Y-56612000D01*
X80703194Y-56612000D01*
X79546806Y-56612000D01*
X79546798Y-56612000D01*
X79509932Y-56614901D01*
X79509926Y-56614902D01*
X79352106Y-56660754D01*
X79352103Y-56660755D01*
X79210637Y-56744417D01*
X79210629Y-56744423D01*
X79094423Y-56860629D01*
X79094417Y-56860637D01*
X79010755Y-57002103D01*
X79010754Y-57002106D01*
X78964902Y-57159926D01*
X78964901Y-57159932D01*
X78962000Y-57196798D01*
X78962000Y-57628201D01*
X78964901Y-57665067D01*
X78964902Y-57665073D01*
X79010754Y-57822893D01*
X79010755Y-57822896D01*
X79094232Y-57964050D01*
X79094418Y-57964364D01*
X79094423Y-57964370D01*
X79210629Y-58080576D01*
X79210633Y-58080579D01*
X79210635Y-58080581D01*
X79255935Y-58107371D01*
X79352102Y-58164244D01*
X79357248Y-58166471D01*
X79410955Y-58211163D01*
X79431973Y-58277796D01*
X79413631Y-58345215D01*
X79395679Y-58367952D01*
X79312327Y-58451304D01*
X79251004Y-58484789D01*
X79181312Y-58479805D01*
X79136965Y-58451304D01*
X79043345Y-58357684D01*
X78894124Y-58265643D01*
X78894119Y-58265641D01*
X78727697Y-58210494D01*
X78727690Y-58210493D01*
X78624986Y-58200000D01*
X78562500Y-58200000D01*
X78562500Y-59526000D01*
X78542815Y-59593039D01*
X78490011Y-59638794D01*
X78438500Y-59650000D01*
X77300001Y-59650000D01*
X77300001Y-59899986D01*
X77310494Y-60002697D01*
X77365641Y-60169119D01*
X77365643Y-60169124D01*
X77457684Y-60318345D01*
X77524474Y-60385135D01*
X77557959Y-60446458D01*
X77554130Y-60500000D01*
X75325000Y-60500000D01*
X74454500Y-59629500D01*
X74454500Y-59150000D01*
X77300000Y-59150000D01*
X78062500Y-59150000D01*
X78062500Y-58200000D01*
X78062499Y-58199999D01*
X78000028Y-58200000D01*
X78000011Y-58200001D01*
X77897302Y-58210494D01*
X77730880Y-58265641D01*
X77730875Y-58265643D01*
X77581654Y-58357684D01*
X77457684Y-58481654D01*
X77365643Y-58630875D01*
X77365641Y-58630880D01*
X77310494Y-58797302D01*
X77310493Y-58797309D01*
X77300000Y-58900013D01*
X77300000Y-59150000D01*
X74454500Y-59150000D01*
X74454500Y-56938885D01*
X74474185Y-56871846D01*
X74490815Y-56851208D01*
X74834020Y-56508002D01*
X74895343Y-56474518D01*
X74960704Y-56477977D01*
X75034703Y-56502499D01*
X75137491Y-56513000D01*
X76187508Y-56512999D01*
X76187516Y-56512998D01*
X76187519Y-56512998D01*
X76243802Y-56507248D01*
X76290297Y-56502499D01*
X76456834Y-56447314D01*
X76606156Y-56355212D01*
X76636368Y-56325000D01*
X76938632Y-56325000D01*
X76968844Y-56355212D01*
X77118166Y-56447314D01*
X77284703Y-56502499D01*
X77387491Y-56513000D01*
X78437508Y-56512999D01*
X78437516Y-56512998D01*
X78437519Y-56512998D01*
X78493802Y-56507248D01*
X78540297Y-56502499D01*
X78706834Y-56447314D01*
X78856156Y-56355212D01*
X78886368Y-56325000D01*
X80700000Y-56325000D01*
X80712751Y-56312247D01*
X80740069Y-56310098D01*
X80740071Y-56310097D01*
X80740073Y-56310097D01*
X80781691Y-56298005D01*
X80897898Y-56264244D01*
X81039365Y-56180581D01*
X81155581Y-56064365D01*
X81155767Y-56064049D01*
X81155977Y-56063853D01*
X81160361Y-56058202D01*
X81161272Y-56058909D01*
X81206836Y-56016366D01*
X81275577Y-56003862D01*
X81340167Y-56030506D01*
G37*
G04 #@! TD.AperFunction*
G04 #@! TA.AperFunction,Conductor*
G36*
X80615677Y-53969685D02*
G01*
X80636319Y-53986319D01*
X81263681Y-54613681D01*
X81297166Y-54675004D01*
X81300000Y-54701362D01*
X81300000Y-54806398D01*
X81280315Y-54873437D01*
X81227511Y-54919192D01*
X81158353Y-54929136D01*
X81094797Y-54900111D01*
X81088319Y-54894079D01*
X81039061Y-54844821D01*
X81039052Y-54844814D01*
X80897696Y-54761217D01*
X80897693Y-54761216D01*
X80739995Y-54715400D01*
X80739989Y-54715399D01*
X80703149Y-54712500D01*
X80375000Y-54712500D01*
X80375000Y-55638500D01*
X80355315Y-55705539D01*
X80302511Y-55751294D01*
X80251000Y-55762500D01*
X78965203Y-55762500D01*
X78946962Y-55782232D01*
X78887000Y-55818098D01*
X78869165Y-55821348D01*
X78778914Y-55831052D01*
X78778909Y-55831053D01*
X78644107Y-55881332D01*
X78644104Y-55881334D01*
X78567032Y-55939030D01*
X78557819Y-55945302D01*
X78504084Y-55978446D01*
X78477992Y-55990612D01*
X78446738Y-56000969D01*
X78420349Y-56006621D01*
X78419931Y-56006663D01*
X78418057Y-56006855D01*
X78405445Y-56007498D01*
X77419565Y-56007498D01*
X77407009Y-56006861D01*
X77405411Y-56006698D01*
X77404707Y-56006626D01*
X77378263Y-56000970D01*
X77347010Y-55990614D01*
X77320915Y-55978446D01*
X77279258Y-55952751D01*
X77266549Y-55943764D01*
X77211928Y-55899747D01*
X77211923Y-55899744D01*
X77081051Y-55839976D01*
X77081046Y-55839975D01*
X76938632Y-55819500D01*
X76636368Y-55819500D01*
X76636351Y-55819500D01*
X76528914Y-55831052D01*
X76528909Y-55831053D01*
X76394107Y-55881332D01*
X76394104Y-55881334D01*
X76317032Y-55939030D01*
X76307819Y-55945302D01*
X76254084Y-55978446D01*
X76227992Y-55990612D01*
X76196738Y-56000969D01*
X76170349Y-56006621D01*
X76169931Y-56006663D01*
X76168057Y-56006855D01*
X76155445Y-56007498D01*
X75169565Y-56007498D01*
X75157014Y-56006861D01*
X75154714Y-56006627D01*
X75128259Y-56000969D01*
X75119713Y-55998137D01*
X75119711Y-55998136D01*
X74987421Y-55973183D01*
X74922061Y-55969724D01*
X74922059Y-55969724D01*
X74922057Y-55969724D01*
X74881925Y-55972968D01*
X74787900Y-55980568D01*
X74787894Y-55980569D01*
X74653097Y-56030844D01*
X74653091Y-56030847D01*
X74593718Y-56063266D01*
X74592242Y-56064036D01*
X74589141Y-56065952D01*
X74587779Y-56066325D01*
X74586808Y-56066811D01*
X74586711Y-56066617D01*
X74521757Y-56084421D01*
X74455084Y-56063526D01*
X74410292Y-56009903D01*
X74400000Y-55960441D01*
X74400000Y-55276288D01*
X74403973Y-55262498D01*
X78965204Y-55262498D01*
X78965205Y-55262500D01*
X79875000Y-55262500D01*
X79875000Y-54712500D01*
X79546850Y-54712500D01*
X79510010Y-54715399D01*
X79510004Y-54715400D01*
X79352306Y-54761216D01*
X79352303Y-54761217D01*
X79210947Y-54844814D01*
X79210938Y-54844821D01*
X79094821Y-54960938D01*
X79094814Y-54960947D01*
X79011218Y-55102301D01*
X78965399Y-55260013D01*
X78965204Y-55262498D01*
X74403973Y-55262498D01*
X74419009Y-55210312D01*
X74429497Y-55193622D01*
X74430302Y-55194127D01*
X74448381Y-55168641D01*
X74533463Y-55083560D01*
X74533466Y-55083559D01*
X74638559Y-54978466D01*
X74721129Y-54854890D01*
X74778005Y-54717580D01*
X74807000Y-54571812D01*
X74807000Y-54399391D01*
X74826685Y-54332352D01*
X74843319Y-54311710D01*
X74884026Y-54271003D01*
X74884458Y-54270301D01*
X74884881Y-54269921D01*
X74888507Y-54265336D01*
X74889290Y-54265955D01*
X74936402Y-54223575D01*
X75005364Y-54212349D01*
X75069448Y-54240188D01*
X75091342Y-54265455D01*
X75091493Y-54265336D01*
X75094143Y-54268687D01*
X75095540Y-54270299D01*
X75095972Y-54270999D01*
X75095975Y-54271004D01*
X75218996Y-54394025D01*
X75219000Y-54394028D01*
X75367066Y-54485357D01*
X75367069Y-54485358D01*
X75367075Y-54485362D01*
X75532225Y-54540087D01*
X75634152Y-54550500D01*
X75634157Y-54550500D01*
X76220843Y-54550500D01*
X76220848Y-54550500D01*
X76322775Y-54540087D01*
X76487925Y-54485362D01*
X76636003Y-54394026D01*
X76759026Y-54271003D01*
X76850362Y-54122925D01*
X76879499Y-54034994D01*
X76919270Y-53977551D01*
X76983786Y-53950728D01*
X76997204Y-53950000D01*
X80548638Y-53950000D01*
X80615677Y-53969685D01*
G37*
G04 #@! TD.AperFunction*
M02*
