G04 #@! TF.GenerationSoftware,KiCad,Pcbnew,8.0.0*
G04 #@! TF.CreationDate,2024-06-28T14:42:45+02:00*
G04 #@! TF.ProjectId,BatteryBridge,42617474-6572-4794-9272-696467652e6b,rev?*
G04 #@! TF.SameCoordinates,Original*
G04 #@! TF.FileFunction,Paste,Top*
G04 #@! TF.FilePolarity,Positive*
%FSLAX46Y46*%
G04 Gerber Fmt 4.6, Leading zero omitted, Abs format (unit mm)*
G04 Created by KiCad (PCBNEW 8.0.0) date 2024-06-28 14:42:45*
%MOMM*%
%LPD*%
G01*
G04 APERTURE LIST*
G04 Aperture macros list*
%AMRoundRect*
0 Rectangle with rounded corners*
0 $1 Rounding radius*
0 $2 $3 $4 $5 $6 $7 $8 $9 X,Y pos of 4 corners*
0 Add a 4 corners polygon primitive as box body*
4,1,4,$2,$3,$4,$5,$6,$7,$8,$9,$2,$3,0*
0 Add four circle primitives for the rounded corners*
1,1,$1+$1,$2,$3*
1,1,$1+$1,$4,$5*
1,1,$1+$1,$6,$7*
1,1,$1+$1,$8,$9*
0 Add four rect primitives between the rounded corners*
20,1,$1+$1,$2,$3,$4,$5,0*
20,1,$1+$1,$4,$5,$6,$7,0*
20,1,$1+$1,$6,$7,$8,$9,0*
20,1,$1+$1,$8,$9,$2,$3,0*%
G04 Aperture macros list end*
%ADD10RoundRect,0.243750X-0.243750X-0.456250X0.243750X-0.456250X0.243750X0.456250X-0.243750X0.456250X0*%
%ADD11RoundRect,0.250000X0.475000X-0.250000X0.475000X0.250000X-0.475000X0.250000X-0.475000X-0.250000X0*%
%ADD12RoundRect,0.243750X0.243750X0.456250X-0.243750X0.456250X-0.243750X-0.456250X0.243750X-0.456250X0*%
%ADD13RoundRect,0.250000X-0.262500X-0.450000X0.262500X-0.450000X0.262500X0.450000X-0.262500X0.450000X0*%
%ADD14RoundRect,0.150000X0.150000X-0.587500X0.150000X0.587500X-0.150000X0.587500X-0.150000X-0.587500X0*%
%ADD15RoundRect,0.150000X-0.150000X0.512500X-0.150000X-0.512500X0.150000X-0.512500X0.150000X0.512500X0*%
%ADD16R,1.425000X0.450000*%
%ADD17RoundRect,0.250000X0.250000X1.500000X-0.250000X1.500000X-0.250000X-1.500000X0.250000X-1.500000X0*%
%ADD18RoundRect,0.250001X0.499999X1.449999X-0.499999X1.449999X-0.499999X-1.449999X0.499999X-1.449999X0*%
%ADD19RoundRect,0.250000X-0.475000X0.250000X-0.475000X-0.250000X0.475000X-0.250000X0.475000X0.250000X0*%
%ADD20RoundRect,0.300000X-0.300000X0.700000X-0.300000X-0.700000X0.300000X-0.700000X0.300000X0.700000X0*%
%ADD21R,3.000000X1.000000*%
%ADD22RoundRect,0.150000X0.512500X0.150000X-0.512500X0.150000X-0.512500X-0.150000X0.512500X-0.150000X0*%
%ADD23RoundRect,0.250000X0.262500X0.450000X-0.262500X0.450000X-0.262500X-0.450000X0.262500X-0.450000X0*%
%ADD24RoundRect,0.250000X0.450000X-0.262500X0.450000X0.262500X-0.450000X0.262500X-0.450000X-0.262500X0*%
%ADD25RoundRect,0.250000X-0.250000X-0.475000X0.250000X-0.475000X0.250000X0.475000X-0.250000X0.475000X0*%
%ADD26RoundRect,0.250000X-1.000000X-0.650000X1.000000X-0.650000X1.000000X0.650000X-1.000000X0.650000X0*%
%ADD27RoundRect,0.250000X0.250000X0.475000X-0.250000X0.475000X-0.250000X-0.475000X0.250000X-0.475000X0*%
G04 APERTURE END LIST*
D10*
X74052500Y-53350000D03*
X75927500Y-53350000D03*
D11*
X84662500Y-57412500D03*
X84662500Y-55512500D03*
D12*
X80137500Y-61575000D03*
X78262500Y-61575000D03*
D13*
X78312500Y-59400000D03*
X80137500Y-59400000D03*
D14*
X83550000Y-78437500D03*
X85450000Y-78437500D03*
X84500000Y-76562500D03*
D11*
X75662500Y-57412500D03*
X75662500Y-55512500D03*
D15*
X81700000Y-76205500D03*
X80750000Y-76205500D03*
X79800000Y-76205500D03*
X79800000Y-78480500D03*
X80750000Y-78480500D03*
X81700000Y-78480500D03*
D16*
X77388000Y-65975000D03*
X77388000Y-66625000D03*
X77388000Y-67275000D03*
X77388000Y-67925000D03*
X81812000Y-67925000D03*
X81812000Y-67275000D03*
X81812000Y-66625000D03*
X81812000Y-65975000D03*
D17*
X79946000Y-45374000D03*
X77946000Y-45374000D03*
D18*
X82296000Y-39624000D03*
X75596000Y-39624000D03*
D19*
X84045000Y-66000000D03*
X84045000Y-67900000D03*
D20*
X83601000Y-84014000D03*
X81101000Y-84014000D03*
X79101000Y-84014000D03*
X76601000Y-84014000D03*
D21*
X69591000Y-39243000D03*
X64551000Y-39243000D03*
X69591000Y-41783000D03*
X64551000Y-41783000D03*
X69591000Y-44323000D03*
X64551000Y-44323000D03*
X69591000Y-46863000D03*
X64551000Y-46863000D03*
X69591000Y-49403000D03*
X64551000Y-49403000D03*
X69591000Y-51943000D03*
X64551000Y-51943000D03*
X69591000Y-54483000D03*
X64551000Y-54483000D03*
X69591000Y-57023000D03*
X64551000Y-57023000D03*
X69591000Y-59563000D03*
X64551000Y-59563000D03*
X69591000Y-62103000D03*
X64551000Y-62103000D03*
X69591000Y-64643000D03*
X64551000Y-64643000D03*
X69591000Y-67183000D03*
X64551000Y-67183000D03*
X69591000Y-69723000D03*
X64551000Y-69723000D03*
X69591000Y-72263000D03*
X64551000Y-72263000D03*
X69591000Y-74803000D03*
X64551000Y-74803000D03*
X69591000Y-77343000D03*
X64551000Y-77343000D03*
X69591000Y-79883000D03*
X64551000Y-79883000D03*
X69591000Y-82423000D03*
X64551000Y-82423000D03*
X69591000Y-84963000D03*
X64551000Y-84963000D03*
X69591000Y-87503000D03*
X64551000Y-87503000D03*
D22*
X82400000Y-57412500D03*
X82400000Y-56462500D03*
X82400000Y-55512500D03*
X80125000Y-55512500D03*
X80125000Y-57412500D03*
D11*
X77912500Y-57412500D03*
X77912500Y-55512500D03*
D19*
X75208000Y-65959000D03*
X75208000Y-67859000D03*
D23*
X81662500Y-80650000D03*
X79837500Y-80650000D03*
D24*
X82350000Y-61062500D03*
X82350000Y-59237500D03*
D25*
X79800000Y-71750000D03*
X81700000Y-71750000D03*
X79800000Y-74000000D03*
X81700000Y-74000000D03*
D26*
X79300000Y-51250000D03*
X83300000Y-51250000D03*
D25*
X74073500Y-48968000D03*
X75973500Y-48968000D03*
D13*
X74087500Y-51250000D03*
X75912500Y-51250000D03*
D27*
X81873000Y-63988000D03*
X79973000Y-63988000D03*
M02*
