G04 #@! TF.GenerationSoftware,KiCad,Pcbnew,8.0.0*
G04 #@! TF.CreationDate,2024-06-28T14:42:45+02:00*
G04 #@! TF.ProjectId,BatteryBridge,42617474-6572-4794-9272-696467652e6b,rev?*
G04 #@! TF.SameCoordinates,Original*
G04 #@! TF.FileFunction,Copper,L2,Bot*
G04 #@! TF.FilePolarity,Positive*
%FSLAX46Y46*%
G04 Gerber Fmt 4.6, Leading zero omitted, Abs format (unit mm)*
G04 Created by KiCad (PCBNEW 8.0.0) date 2024-06-28 14:42:45*
%MOMM*%
%LPD*%
G01*
G04 APERTURE LIST*
G04 #@! TA.AperFunction,ComponentPad*
%ADD10R,2.400000X2.400000*%
G04 #@! TD*
G04 #@! TA.AperFunction,ComponentPad*
%ADD11O,2.400000X2.400000*%
G04 #@! TD*
G04 #@! TA.AperFunction,ComponentPad*
%ADD12O,1.300000X3.200000*%
G04 #@! TD*
G04 #@! TA.AperFunction,ViaPad*
%ADD13C,0.600000*%
G04 #@! TD*
G04 #@! TA.AperFunction,Conductor*
%ADD14C,0.508000*%
G04 #@! TD*
G04 #@! TA.AperFunction,Conductor*
%ADD15C,0.300000*%
G04 #@! TD*
G04 APERTURE END LIST*
D10*
X75700000Y-70670000D03*
D11*
X75700000Y-80830000D03*
D12*
X85951000Y-86614000D03*
X74251000Y-86614000D03*
D13*
X77450000Y-62850000D03*
X86106000Y-65786000D03*
X67056000Y-85090000D03*
X83820000Y-38100000D03*
X67056000Y-62230000D03*
X61976000Y-87630000D03*
X86106000Y-41148000D03*
X75946000Y-85852000D03*
X61976000Y-64770000D03*
X74422000Y-83312000D03*
X86106000Y-62484000D03*
X85344000Y-80518000D03*
X67056000Y-59690000D03*
X86106000Y-60198000D03*
X80518000Y-40132000D03*
X74930000Y-74930000D03*
X83820000Y-45974000D03*
X67056000Y-64770000D03*
X72136000Y-77470000D03*
X61976000Y-82550000D03*
X83820000Y-62484000D03*
X67056000Y-54610000D03*
X76925000Y-58800000D03*
X81280000Y-48006000D03*
X72136000Y-46990000D03*
X77470000Y-42418000D03*
X77470000Y-38100000D03*
X61976000Y-77470000D03*
X67056000Y-82550000D03*
X84900000Y-59950000D03*
X77470000Y-40132000D03*
X61976000Y-44450000D03*
X83820000Y-48006000D03*
X67056000Y-77470000D03*
X75946000Y-87884000D03*
X86106000Y-53848000D03*
X77470000Y-53086000D03*
X73700000Y-54850000D03*
X76962000Y-72644000D03*
X67056000Y-46990000D03*
X86106000Y-44196000D03*
X78994000Y-85852000D03*
X72136000Y-44450000D03*
X75438000Y-45466000D03*
X77978000Y-80518000D03*
X81026000Y-87884000D03*
X86106000Y-48006000D03*
X72136000Y-39370000D03*
X78550000Y-74000000D03*
X85344000Y-83058000D03*
X73406000Y-62230000D03*
X78850000Y-76200000D03*
X72136000Y-82550000D03*
X79248000Y-69342000D03*
X81280000Y-45974000D03*
X74168000Y-64516000D03*
X75438000Y-42418000D03*
X61976000Y-46990000D03*
X67056000Y-80010000D03*
X61976000Y-72390000D03*
X76962000Y-77470000D03*
X83820000Y-42418000D03*
X74676000Y-72644000D03*
X83312000Y-87884000D03*
X61976000Y-39370000D03*
X76962000Y-74930000D03*
X61976000Y-85090000D03*
X72136000Y-49530000D03*
X72136000Y-72390000D03*
X76925000Y-59800000D03*
X83820000Y-64262000D03*
X75375000Y-58800000D03*
X83300000Y-52800000D03*
X80518000Y-42418000D03*
X78994000Y-87884000D03*
X61976000Y-59690000D03*
X83825000Y-59925000D03*
X78750000Y-63950000D03*
X61976000Y-74930000D03*
X61976000Y-62230000D03*
X84950000Y-58775000D03*
X67056000Y-49530000D03*
X61976000Y-80010000D03*
X67056000Y-52070000D03*
X61976000Y-52070000D03*
X67056000Y-87630000D03*
X75375000Y-59775000D03*
X61976000Y-54610000D03*
X86106000Y-69342000D03*
X61976000Y-69850000D03*
X86106000Y-38100000D03*
X83820000Y-69342000D03*
X67056000Y-57150000D03*
X78600000Y-71750000D03*
X80518000Y-38100000D03*
X83300000Y-49600000D03*
X61976000Y-57150000D03*
X67056000Y-69850000D03*
X83820000Y-74422000D03*
X61976000Y-49530000D03*
X72136000Y-85090000D03*
X73700000Y-67850000D03*
X67056000Y-72390000D03*
X72136000Y-74930000D03*
X61976000Y-67310000D03*
X81500000Y-68900000D03*
X83820000Y-72136000D03*
X83312000Y-85852000D03*
X67056000Y-41910000D03*
X67056000Y-74930000D03*
X86106000Y-51054000D03*
X61976000Y-41910000D03*
X83850000Y-58800000D03*
X77650000Y-68950000D03*
X67056000Y-39370000D03*
X74930000Y-77470000D03*
X67056000Y-67310000D03*
X67056000Y-44450000D03*
X81026000Y-85852000D03*
X72136000Y-80010000D03*
X72136000Y-87884000D03*
X84800000Y-71100000D03*
X82500000Y-54550000D03*
X75225000Y-64475000D03*
D14*
X77450000Y-62850000D02*
X74350000Y-62850000D01*
X72946000Y-78076000D02*
X75700000Y-80830000D01*
X72946000Y-64254000D02*
X72946000Y-78076000D01*
X74350000Y-62850000D02*
X72946000Y-64254000D01*
X84370000Y-70670000D02*
X75700000Y-70670000D01*
X84800000Y-71100000D02*
X84370000Y-70670000D01*
D15*
X76950000Y-64475000D02*
X82500000Y-58925000D01*
X75225000Y-64475000D02*
X76950000Y-64475000D01*
X82500000Y-58925000D02*
X82500000Y-54550000D01*
G04 #@! TA.AperFunction,Conductor*
G36*
X86684039Y-37738685D02*
G01*
X86729794Y-37791489D01*
X86741000Y-37843000D01*
X86741000Y-84573772D01*
X86721315Y-84640811D01*
X86668511Y-84686566D01*
X86599353Y-84696510D01*
X86558513Y-84681776D01*
X86558072Y-84682644D01*
X86392447Y-84598252D01*
X86392441Y-84598250D01*
X86220295Y-84542318D01*
X86220285Y-84542315D01*
X86201000Y-84539260D01*
X86201000Y-85469025D01*
X86165905Y-85433930D01*
X86086095Y-85387852D01*
X85997078Y-85364000D01*
X85904922Y-85364000D01*
X85815905Y-85387852D01*
X85736095Y-85433930D01*
X85701000Y-85469025D01*
X85701000Y-84539260D01*
X85681714Y-84542315D01*
X85681704Y-84542318D01*
X85509558Y-84598250D01*
X85509552Y-84598252D01*
X85348265Y-84680434D01*
X85201830Y-84786823D01*
X85073823Y-84914830D01*
X84967434Y-85061265D01*
X84885252Y-85222552D01*
X84885251Y-85222555D01*
X84829317Y-85394706D01*
X84801000Y-85573493D01*
X84801000Y-86364000D01*
X85601000Y-86364000D01*
X85601000Y-86864000D01*
X84801000Y-86864000D01*
X84801000Y-87654506D01*
X84829317Y-87833293D01*
X84885251Y-88005444D01*
X84885252Y-88005447D01*
X84967434Y-88166734D01*
X85073823Y-88313169D01*
X85201830Y-88441176D01*
X85348265Y-88547565D01*
X85509552Y-88629747D01*
X85509555Y-88629748D01*
X85596719Y-88658069D01*
X85654394Y-88697506D01*
X85681593Y-88761865D01*
X85669679Y-88830711D01*
X85622435Y-88882187D01*
X85558401Y-88900000D01*
X74643599Y-88900000D01*
X74576560Y-88880315D01*
X74530805Y-88827511D01*
X74520861Y-88758353D01*
X74549886Y-88694797D01*
X74605281Y-88658069D01*
X74692444Y-88629748D01*
X74692447Y-88629747D01*
X74853734Y-88547565D01*
X75000169Y-88441176D01*
X75128176Y-88313169D01*
X75234565Y-88166734D01*
X75316747Y-88005447D01*
X75316748Y-88005444D01*
X75372682Y-87833293D01*
X75401000Y-87654506D01*
X75401000Y-86864000D01*
X74601000Y-86864000D01*
X74601000Y-86693240D01*
X77046500Y-86693240D01*
X77077414Y-86848656D01*
X77077416Y-86848664D01*
X77138059Y-86995071D01*
X77138064Y-86995080D01*
X77226103Y-87126838D01*
X77226106Y-87126842D01*
X77338157Y-87238893D01*
X77338161Y-87238896D01*
X77469919Y-87326935D01*
X77469925Y-87326938D01*
X77469926Y-87326939D01*
X77616336Y-87387584D01*
X77771759Y-87418499D01*
X77771763Y-87418500D01*
X77771764Y-87418500D01*
X77930237Y-87418500D01*
X77930238Y-87418499D01*
X78085664Y-87387584D01*
X78232074Y-87326939D01*
X78363839Y-87238896D01*
X78475896Y-87126839D01*
X78563939Y-86995074D01*
X78624584Y-86848664D01*
X78655499Y-86693240D01*
X81546500Y-86693240D01*
X81577414Y-86848656D01*
X81577416Y-86848664D01*
X81638059Y-86995071D01*
X81638064Y-86995080D01*
X81726103Y-87126838D01*
X81726106Y-87126842D01*
X81838157Y-87238893D01*
X81838161Y-87238896D01*
X81969919Y-87326935D01*
X81969925Y-87326938D01*
X81969926Y-87326939D01*
X82116336Y-87387584D01*
X82271759Y-87418499D01*
X82271763Y-87418500D01*
X82271764Y-87418500D01*
X82430237Y-87418500D01*
X82430238Y-87418499D01*
X82585664Y-87387584D01*
X82732074Y-87326939D01*
X82863839Y-87238896D01*
X82975896Y-87126839D01*
X83063939Y-86995074D01*
X83124584Y-86848664D01*
X83155500Y-86693236D01*
X83155500Y-86534764D01*
X83124584Y-86379336D01*
X83063939Y-86232926D01*
X83063938Y-86232925D01*
X83063935Y-86232919D01*
X82975896Y-86101161D01*
X82975893Y-86101157D01*
X82863842Y-85989106D01*
X82863838Y-85989103D01*
X82732080Y-85901064D01*
X82732071Y-85901059D01*
X82585664Y-85840416D01*
X82585656Y-85840414D01*
X82430240Y-85809500D01*
X82430236Y-85809500D01*
X82271764Y-85809500D01*
X82271759Y-85809500D01*
X82116343Y-85840414D01*
X82116335Y-85840416D01*
X81969928Y-85901059D01*
X81969919Y-85901064D01*
X81838161Y-85989103D01*
X81838157Y-85989106D01*
X81726106Y-86101157D01*
X81726103Y-86101161D01*
X81638064Y-86232919D01*
X81638059Y-86232928D01*
X81577416Y-86379335D01*
X81577414Y-86379343D01*
X81546500Y-86534759D01*
X81546500Y-86693240D01*
X78655499Y-86693240D01*
X78655500Y-86693236D01*
X78655500Y-86534764D01*
X78624584Y-86379336D01*
X78563939Y-86232926D01*
X78563938Y-86232925D01*
X78563935Y-86232919D01*
X78475896Y-86101161D01*
X78475893Y-86101157D01*
X78363842Y-85989106D01*
X78363838Y-85989103D01*
X78232080Y-85901064D01*
X78232071Y-85901059D01*
X78085664Y-85840416D01*
X78085656Y-85840414D01*
X77930240Y-85809500D01*
X77930236Y-85809500D01*
X77771764Y-85809500D01*
X77771759Y-85809500D01*
X77616343Y-85840414D01*
X77616335Y-85840416D01*
X77469928Y-85901059D01*
X77469919Y-85901064D01*
X77338161Y-85989103D01*
X77338157Y-85989106D01*
X77226106Y-86101157D01*
X77226103Y-86101161D01*
X77138064Y-86232919D01*
X77138059Y-86232928D01*
X77077416Y-86379335D01*
X77077414Y-86379343D01*
X77046500Y-86534759D01*
X77046500Y-86693240D01*
X74601000Y-86693240D01*
X74601000Y-86364000D01*
X75401000Y-86364000D01*
X75401000Y-85573493D01*
X75372682Y-85394706D01*
X75316748Y-85222555D01*
X75316747Y-85222552D01*
X75234565Y-85061265D01*
X75128176Y-84914830D01*
X75000169Y-84786823D01*
X74853734Y-84680434D01*
X74692447Y-84598252D01*
X74692441Y-84598250D01*
X74520295Y-84542318D01*
X74520285Y-84542315D01*
X74501000Y-84539260D01*
X74501000Y-85469025D01*
X74465905Y-85433930D01*
X74386095Y-85387852D01*
X74297078Y-85364000D01*
X74204922Y-85364000D01*
X74115905Y-85387852D01*
X74036095Y-85433930D01*
X74001000Y-85469025D01*
X74001000Y-84539260D01*
X73981714Y-84542315D01*
X73981704Y-84542318D01*
X73809558Y-84598250D01*
X73809552Y-84598252D01*
X73648265Y-84680434D01*
X73501830Y-84786823D01*
X73373823Y-84914830D01*
X73267434Y-85061265D01*
X73185252Y-85222552D01*
X73185251Y-85222555D01*
X73129317Y-85394706D01*
X73101000Y-85573493D01*
X73101000Y-86364000D01*
X73901000Y-86364000D01*
X73901000Y-86864000D01*
X73101000Y-86864000D01*
X73101000Y-87654506D01*
X73129317Y-87833293D01*
X73185251Y-88005444D01*
X73185252Y-88005447D01*
X73267434Y-88166734D01*
X73373823Y-88313169D01*
X73501830Y-88441176D01*
X73648265Y-88547565D01*
X73809552Y-88629747D01*
X73809555Y-88629748D01*
X73896719Y-88658069D01*
X73954394Y-88697506D01*
X73981593Y-88761865D01*
X73969679Y-88830711D01*
X73922435Y-88882187D01*
X73858401Y-88900000D01*
X61465000Y-88900000D01*
X61397961Y-88880315D01*
X61352206Y-88827511D01*
X61341000Y-88776000D01*
X61341000Y-78150314D01*
X72191498Y-78150314D01*
X72220493Y-78296073D01*
X72220496Y-78296083D01*
X72277366Y-78433381D01*
X72277372Y-78433392D01*
X72359942Y-78556968D01*
X72359943Y-78556969D01*
X74033153Y-80230177D01*
X74066638Y-80291500D01*
X74066363Y-80345451D01*
X74013777Y-80575844D01*
X73994732Y-80829995D01*
X73994732Y-80830004D01*
X74013777Y-81084154D01*
X74013778Y-81084157D01*
X74070492Y-81332637D01*
X74163607Y-81569888D01*
X74291041Y-81790612D01*
X74449950Y-81989877D01*
X74636783Y-82163232D01*
X74847366Y-82306805D01*
X74847371Y-82306807D01*
X74847372Y-82306808D01*
X74847373Y-82306809D01*
X74969328Y-82365538D01*
X75076992Y-82417387D01*
X75076993Y-82417387D01*
X75076996Y-82417389D01*
X75320542Y-82492513D01*
X75572565Y-82530500D01*
X75827435Y-82530500D01*
X76079458Y-82492513D01*
X76323004Y-82417389D01*
X76552634Y-82306805D01*
X76763217Y-82163232D01*
X76950050Y-81989877D01*
X77108959Y-81790612D01*
X77236393Y-81569888D01*
X77329508Y-81332637D01*
X77386222Y-81084157D01*
X77405268Y-80830000D01*
X77386222Y-80575843D01*
X77329508Y-80327363D01*
X77236393Y-80090112D01*
X77108959Y-79869388D01*
X76950050Y-79670123D01*
X76763217Y-79496768D01*
X76552634Y-79353195D01*
X76552630Y-79353193D01*
X76552627Y-79353191D01*
X76552626Y-79353190D01*
X76323006Y-79242612D01*
X76323008Y-79242612D01*
X76079466Y-79167489D01*
X76079462Y-79167488D01*
X76079458Y-79167487D01*
X75958231Y-79149214D01*
X75827440Y-79129500D01*
X75827435Y-79129500D01*
X75572565Y-79129500D01*
X75572559Y-79129500D01*
X75415609Y-79153157D01*
X75320542Y-79167487D01*
X75320539Y-79167488D01*
X75320529Y-79167490D01*
X75226835Y-79196391D01*
X75156972Y-79197341D01*
X75102605Y-79165581D01*
X73736819Y-77799794D01*
X73703334Y-77738471D01*
X73700500Y-77712113D01*
X73700500Y-71917870D01*
X73999500Y-71917870D01*
X73999501Y-71917876D01*
X74005908Y-71977483D01*
X74056202Y-72112328D01*
X74056206Y-72112335D01*
X74142452Y-72227544D01*
X74142455Y-72227547D01*
X74257664Y-72313793D01*
X74257671Y-72313797D01*
X74392517Y-72364091D01*
X74392516Y-72364091D01*
X74399444Y-72364835D01*
X74452127Y-72370500D01*
X76947872Y-72370499D01*
X77007483Y-72364091D01*
X77142331Y-72313796D01*
X77257546Y-72227546D01*
X77343796Y-72112331D01*
X77394091Y-71977483D01*
X77400500Y-71917873D01*
X77400500Y-71548500D01*
X77420185Y-71481461D01*
X77472989Y-71435706D01*
X77524500Y-71424500D01*
X83989956Y-71424500D01*
X84056995Y-71444185D01*
X84094950Y-71482528D01*
X84170184Y-71602262D01*
X84297738Y-71729816D01*
X84450478Y-71825789D01*
X84620745Y-71885368D01*
X84620750Y-71885369D01*
X84799996Y-71905565D01*
X84800000Y-71905565D01*
X84800004Y-71905565D01*
X84979249Y-71885369D01*
X84979252Y-71885368D01*
X84979255Y-71885368D01*
X85149522Y-71825789D01*
X85302262Y-71729816D01*
X85429816Y-71602262D01*
X85525789Y-71449522D01*
X85585368Y-71279255D01*
X85605565Y-71100000D01*
X85585368Y-70920745D01*
X85525789Y-70750478D01*
X85429816Y-70597738D01*
X85302262Y-70470184D01*
X85149522Y-70374211D01*
X85149521Y-70374210D01*
X85143627Y-70370507D01*
X85144131Y-70369704D01*
X85118640Y-70351615D01*
X84850969Y-70083943D01*
X84850968Y-70083942D01*
X84809773Y-70056417D01*
X84727389Y-70001370D01*
X84727386Y-70001368D01*
X84727385Y-70001368D01*
X84646955Y-69968053D01*
X84590080Y-69944495D01*
X84565894Y-69939684D01*
X84444314Y-69915499D01*
X84444312Y-69915499D01*
X84295688Y-69915499D01*
X84289574Y-69915499D01*
X84289554Y-69915500D01*
X77524499Y-69915500D01*
X77457460Y-69895815D01*
X77411705Y-69843011D01*
X77400499Y-69791500D01*
X77400499Y-69422129D01*
X77400498Y-69422123D01*
X77400497Y-69422116D01*
X77394091Y-69362517D01*
X77343796Y-69227669D01*
X77343795Y-69227668D01*
X77343793Y-69227664D01*
X77257547Y-69112455D01*
X77257544Y-69112452D01*
X77142335Y-69026206D01*
X77142328Y-69026202D01*
X77007482Y-68975908D01*
X77007483Y-68975908D01*
X76947883Y-68969501D01*
X76947881Y-68969500D01*
X76947873Y-68969500D01*
X76947864Y-68969500D01*
X74452129Y-68969500D01*
X74452123Y-68969501D01*
X74392516Y-68975908D01*
X74257671Y-69026202D01*
X74257664Y-69026206D01*
X74142455Y-69112452D01*
X74142452Y-69112455D01*
X74056206Y-69227664D01*
X74056202Y-69227671D01*
X74005908Y-69362517D01*
X73999501Y-69422116D01*
X73999501Y-69422123D01*
X73999500Y-69422135D01*
X73999500Y-71917870D01*
X73700500Y-71917870D01*
X73700500Y-64617886D01*
X73720185Y-64550847D01*
X73736819Y-64530205D01*
X73971279Y-64295745D01*
X74325704Y-63941319D01*
X74387025Y-63907836D01*
X74456716Y-63912820D01*
X74512650Y-63954691D01*
X74537067Y-64020156D01*
X74522215Y-64088429D01*
X74518378Y-64094973D01*
X74499211Y-64125477D01*
X74439631Y-64295745D01*
X74439630Y-64295750D01*
X74419435Y-64474996D01*
X74419435Y-64475003D01*
X74439630Y-64654249D01*
X74439631Y-64654254D01*
X74499211Y-64824523D01*
X74595184Y-64977262D01*
X74722738Y-65104816D01*
X74875478Y-65200789D01*
X75045739Y-65260366D01*
X75045745Y-65260368D01*
X75045750Y-65260369D01*
X75224996Y-65280565D01*
X75225000Y-65280565D01*
X75225004Y-65280565D01*
X75404249Y-65260369D01*
X75404251Y-65260368D01*
X75404255Y-65260368D01*
X75404258Y-65260366D01*
X75404262Y-65260366D01*
X75494377Y-65228832D01*
X75574522Y-65200789D01*
X75664096Y-65144505D01*
X75730068Y-65125500D01*
X77014071Y-65125500D01*
X77098615Y-65108682D01*
X77139744Y-65100501D01*
X77258127Y-65051465D01*
X77364669Y-64980277D01*
X83005276Y-59339670D01*
X83076465Y-59233127D01*
X83125501Y-59114744D01*
X83150500Y-58989069D01*
X83150500Y-55055067D01*
X83169507Y-54989094D01*
X83225788Y-54899524D01*
X83285368Y-54729254D01*
X83285369Y-54729249D01*
X83305565Y-54550003D01*
X83305565Y-54549996D01*
X83285369Y-54370750D01*
X83285368Y-54370745D01*
X83225788Y-54200476D01*
X83129815Y-54047737D01*
X83002262Y-53920184D01*
X82849523Y-53824211D01*
X82679254Y-53764631D01*
X82679249Y-53764630D01*
X82500004Y-53744435D01*
X82499996Y-53744435D01*
X82320750Y-53764630D01*
X82320745Y-53764631D01*
X82150476Y-53824211D01*
X81997737Y-53920184D01*
X81870184Y-54047737D01*
X81774211Y-54200476D01*
X81714631Y-54370745D01*
X81714630Y-54370750D01*
X81694435Y-54549996D01*
X81694435Y-54550003D01*
X81714630Y-54729249D01*
X81714631Y-54729254D01*
X81774211Y-54899524D01*
X81830493Y-54989094D01*
X81849500Y-55055067D01*
X81849500Y-58604191D01*
X81829815Y-58671230D01*
X81813181Y-58691872D01*
X78206246Y-62298806D01*
X78144923Y-62332291D01*
X78075231Y-62327307D01*
X78030884Y-62298806D01*
X77952262Y-62220184D01*
X77799523Y-62124211D01*
X77629254Y-62064631D01*
X77629249Y-62064630D01*
X77450004Y-62044435D01*
X77449996Y-62044435D01*
X77270750Y-62064630D01*
X77270737Y-62064633D01*
X77202415Y-62088541D01*
X77161460Y-62095500D01*
X74430446Y-62095500D01*
X74430426Y-62095499D01*
X74424312Y-62095499D01*
X74275688Y-62095499D01*
X74275686Y-62095499D01*
X74154105Y-62119684D01*
X74139540Y-62122581D01*
X74129918Y-62124495D01*
X74129917Y-62124495D01*
X74073045Y-62148052D01*
X74073045Y-62148053D01*
X73992611Y-62181370D01*
X73992609Y-62181371D01*
X73869033Y-62263941D01*
X73834169Y-62298806D01*
X73763941Y-62369034D01*
X73763939Y-62369036D01*
X72359943Y-63773030D01*
X72359942Y-63773031D01*
X72277372Y-63896607D01*
X72277366Y-63896618D01*
X72220496Y-64033916D01*
X72220493Y-64033926D01*
X72191499Y-64179685D01*
X72191499Y-64334425D01*
X72191500Y-64334446D01*
X72191500Y-77996552D01*
X72191499Y-77996578D01*
X72191499Y-78001688D01*
X72191499Y-78150312D01*
X72191499Y-78150314D01*
X72191498Y-78150314D01*
X61341000Y-78150314D01*
X61341000Y-37843000D01*
X61360685Y-37775961D01*
X61413489Y-37730206D01*
X61465000Y-37719000D01*
X86617000Y-37719000D01*
X86684039Y-37738685D01*
G37*
G04 #@! TD.AperFunction*
M02*
