G04 #@! TF.GenerationSoftware,KiCad,Pcbnew,8.0.0*
G04 #@! TF.CreationDate,2024-08-05T13:19:55+02:00*
G04 #@! TF.ProjectId,BatteryBridge,42617474-6572-4794-9272-696467652e6b,rev?*
G04 #@! TF.SameCoordinates,Original*
G04 #@! TF.FileFunction,Copper,L4,Bot*
G04 #@! TF.FilePolarity,Positive*
%FSLAX46Y46*%
G04 Gerber Fmt 4.6, Leading zero omitted, Abs format (unit mm)*
G04 Created by KiCad (PCBNEW 8.0.0) date 2024-08-05 13:19:55*
%MOMM*%
%LPD*%
G01*
G04 APERTURE LIST*
G04 #@! TA.AperFunction,ComponentPad*
%ADD10C,0.800000*%
G04 #@! TD*
G04 #@! TA.AperFunction,ComponentPad*
%ADD11C,6.400000*%
G04 #@! TD*
G04 #@! TA.AperFunction,ComponentPad*
%ADD12R,2.200000X2.200000*%
G04 #@! TD*
G04 #@! TA.AperFunction,ComponentPad*
%ADD13O,2.200000X2.200000*%
G04 #@! TD*
G04 #@! TA.AperFunction,ComponentPad*
%ADD14C,2.600000*%
G04 #@! TD*
G04 #@! TA.AperFunction,ViaPad*
%ADD15C,0.800000*%
G04 #@! TD*
G04 #@! TA.AperFunction,ViaPad*
%ADD16C,0.600000*%
G04 #@! TD*
G04 #@! TA.AperFunction,Conductor*
%ADD17C,0.250000*%
G04 #@! TD*
G04 APERTURE END LIST*
D10*
X145860000Y-92770000D03*
X146562944Y-91072944D03*
X146562944Y-94467056D03*
X148260000Y-90370000D03*
D11*
X148260000Y-92770000D03*
D10*
X148260000Y-95170000D03*
X149957056Y-91072944D03*
X149957056Y-94467056D03*
X150660000Y-92770000D03*
D12*
X124900000Y-86300000D03*
D13*
X117280000Y-86300000D03*
D14*
X110000000Y-80000000D03*
D15*
X118364000Y-79248000D03*
X141224000Y-93827600D03*
X138530000Y-85550000D03*
X147828000Y-83820000D03*
X150368000Y-83820000D03*
X120396000Y-85852000D03*
X108712000Y-91440000D03*
X111252000Y-95351600D03*
X149520000Y-87120000D03*
X137120000Y-94650000D03*
X127508000Y-78740000D03*
X128860000Y-85230000D03*
X111252000Y-86360000D03*
X108712000Y-86360000D03*
X139660000Y-90470000D03*
D16*
X127508000Y-95402400D03*
D15*
X138684000Y-93827600D03*
X138510000Y-86690000D03*
D16*
X132080000Y-95402400D03*
X117906800Y-84378800D03*
D15*
X111252000Y-93472000D03*
X113792000Y-95351600D03*
X108712000Y-88900000D03*
X126700000Y-91130000D03*
X111252000Y-88900000D03*
X141800000Y-84600000D03*
X129540000Y-78740000D03*
X144272000Y-78740000D03*
D16*
X116600000Y-83700000D03*
D15*
X120396000Y-87376000D03*
X125476000Y-80772000D03*
X113792000Y-83820000D03*
X143764000Y-91440000D03*
X128890000Y-83970000D03*
D16*
X117551200Y-83362800D03*
D15*
X116070000Y-87850000D03*
X139770000Y-79520000D03*
X121412000Y-79248000D03*
X130020000Y-86490000D03*
D16*
X116300000Y-81500000D03*
D15*
X143000000Y-85380000D03*
D16*
X116600000Y-82700000D03*
D15*
X113792000Y-81280000D03*
X127508000Y-88900000D03*
X130010000Y-85290000D03*
D16*
X118800000Y-81200000D03*
D15*
X140170000Y-85510000D03*
X141224000Y-95300800D03*
X111252000Y-91440000D03*
D16*
X129540000Y-95402400D03*
D15*
X108712000Y-93472000D03*
X128890000Y-86450000D03*
X140380000Y-84040000D03*
X136144000Y-88900000D03*
X108712000Y-95351600D03*
X126770000Y-92810000D03*
D16*
X121000000Y-91980000D03*
D15*
X123530000Y-81520000D03*
X142240000Y-88900000D03*
X113792000Y-78740000D03*
X130556000Y-88900000D03*
D16*
X117551200Y-82143600D03*
D15*
X134112000Y-89916000D03*
X131160000Y-86460000D03*
X144000000Y-84590000D03*
X146304000Y-88900000D03*
X143764000Y-95300800D03*
X150368000Y-88392000D03*
D16*
X132990000Y-90730000D03*
D15*
X145000000Y-85350000D03*
X150368000Y-80772000D03*
X111252000Y-83820000D03*
X138684000Y-95300800D03*
X140210000Y-86690000D03*
X127508000Y-80772000D03*
X147828000Y-80772000D03*
X125476000Y-78740000D03*
X108712000Y-83820000D03*
X139192000Y-88900000D03*
X125476000Y-82296000D03*
X122936000Y-87376000D03*
X141224000Y-78740000D03*
X147010000Y-78890000D03*
X143764000Y-93827600D03*
D16*
X117900000Y-81200000D03*
D15*
X143764000Y-86868000D03*
X131100000Y-85350000D03*
D16*
X122070000Y-92040000D03*
X117740000Y-93780000D03*
X121780000Y-91150000D03*
D17*
X117740000Y-92680000D02*
X119000000Y-91420000D01*
X119000000Y-91420000D02*
X119270000Y-91150000D01*
X119270000Y-91150000D02*
X121780000Y-91150000D01*
X117740000Y-93780000D02*
X117740000Y-92680000D01*
M02*
