M48
; DRILL file {KiCad 8.0.0} date 2024-08-05T13:20:11+0200
; FORMAT={-:-/ absolute / metric / decimal}
; #@! TF.CreationDate,2024-08-05T13:20:11+02:00
; #@! TF.GenerationSoftware,Kicad,Pcbnew,8.0.0
; #@! TF.FileFunction,Plated,1,4,PTH
FMAT,2
METRIC
; #@! TA.AperFunction,Plated,PTH,ViaDrill
T1C0.300
; #@! TA.AperFunction,Plated,PTH,ViaDrill
T2C0.400
; #@! TA.AperFunction,Plated,PTH,ComponentDrill
T3C0.500
; #@! TA.AperFunction,Plated,PTH,ComponentDrill
T4C1.100
; #@! TA.AperFunction,Plated,PTH,ComponentDrill
T5C2.200
; #@! TA.AperFunction,Plated,PTH,ComponentDrill
T6C3.200
%
G90
G05
T1
X116.3Y-81.5
X116.6Y-82.7
X116.6Y-83.7
X117.551Y-82.144
X117.551Y-83.363
X117.74Y-93.78
X117.9Y-81.2
X117.907Y-84.379
X118.8Y-81.2
X121.0Y-91.98
X121.78Y-91.15
X122.07Y-92.04
X127.508Y-95.402
X129.54Y-95.402
X132.08Y-95.402
X132.99Y-90.73
T2
X108.712Y-83.82
X108.712Y-86.36
X108.712Y-88.9
X108.712Y-91.44
X108.712Y-93.472
X108.712Y-95.352
X111.252Y-83.82
X111.252Y-86.36
X111.252Y-88.9
X111.252Y-91.44
X111.252Y-93.472
X111.252Y-95.352
X113.792Y-78.74
X113.792Y-81.28
X113.792Y-83.82
X113.792Y-95.352
X116.07Y-87.85
X118.364Y-79.248
X120.396Y-85.852
X120.396Y-87.376
X121.412Y-79.248
X122.936Y-87.376
X123.53Y-81.52
X125.476Y-78.74
X125.476Y-80.772
X125.476Y-82.296
X126.7Y-91.13
X126.77Y-92.81
X127.508Y-78.74
X127.508Y-80.772
X127.508Y-88.9
X128.86Y-85.23
X128.89Y-83.97
X128.89Y-86.45
X129.54Y-78.74
X130.01Y-85.29
X130.02Y-86.49
X130.556Y-88.9
X131.1Y-85.35
X131.16Y-86.46
X134.112Y-89.916
X136.144Y-88.9
X137.12Y-94.65
X138.51Y-86.69
X138.53Y-85.55
X138.684Y-93.828
X138.684Y-95.301
X139.192Y-88.9
X139.66Y-90.47
X139.77Y-79.52
X140.17Y-85.51
X140.21Y-86.69
X140.38Y-84.04
X141.224Y-78.74
X141.224Y-93.828
X141.224Y-95.301
X141.8Y-84.6
X142.24Y-88.9
X143.0Y-85.38
X143.764Y-86.868
X143.764Y-91.44
X143.764Y-93.828
X143.764Y-95.301
X144.0Y-84.59
X144.272Y-78.74
X145.0Y-85.35
X146.304Y-88.9
X147.01Y-78.89
X147.828Y-80.772
X147.828Y-83.82
X149.52Y-87.12
X150.368Y-80.772
X150.368Y-83.82
X150.368Y-88.392
T3
X145.86Y-92.77
X146.563Y-91.073
X146.563Y-94.467
X148.26Y-90.37
X148.26Y-95.17
X149.957Y-91.073
X149.957Y-94.467
X150.66Y-92.77
T4
X117.28Y-86.3
X124.9Y-86.3
T5
X110.0Y-80.0
T6
X148.26Y-92.77
M30
