G04 #@! TF.GenerationSoftware,KiCad,Pcbnew,8.0.0*
G04 #@! TF.CreationDate,2024-08-05T13:19:55+02:00*
G04 #@! TF.ProjectId,BatteryBridge,42617474-6572-4794-9272-696467652e6b,rev?*
G04 #@! TF.SameCoordinates,Original*
G04 #@! TF.FileFunction,Copper,L2,Inr*
G04 #@! TF.FilePolarity,Positive*
%FSLAX46Y46*%
G04 Gerber Fmt 4.6, Leading zero omitted, Abs format (unit mm)*
G04 Created by KiCad (PCBNEW 8.0.0) date 2024-08-05 13:19:55*
%MOMM*%
%LPD*%
G01*
G04 APERTURE LIST*
G04 #@! TA.AperFunction,ComponentPad*
%ADD10C,0.800000*%
G04 #@! TD*
G04 #@! TA.AperFunction,ComponentPad*
%ADD11C,6.400000*%
G04 #@! TD*
G04 #@! TA.AperFunction,ComponentPad*
%ADD12R,2.200000X2.200000*%
G04 #@! TD*
G04 #@! TA.AperFunction,ComponentPad*
%ADD13O,2.200000X2.200000*%
G04 #@! TD*
G04 #@! TA.AperFunction,ComponentPad*
%ADD14C,2.600000*%
G04 #@! TD*
G04 #@! TA.AperFunction,ViaPad*
%ADD15C,0.800000*%
G04 #@! TD*
G04 #@! TA.AperFunction,ViaPad*
%ADD16C,0.600000*%
G04 #@! TD*
G04 APERTURE END LIST*
D10*
X145860000Y-92770000D03*
X146562944Y-91072944D03*
X146562944Y-94467056D03*
X148260000Y-90370000D03*
D11*
X148260000Y-92770000D03*
D10*
X148260000Y-95170000D03*
X149957056Y-91072944D03*
X149957056Y-94467056D03*
X150660000Y-92770000D03*
D12*
X124900000Y-86300000D03*
D13*
X117280000Y-86300000D03*
D14*
X110000000Y-80000000D03*
D15*
X118364000Y-79248000D03*
X141224000Y-93827600D03*
X138530000Y-85550000D03*
X147828000Y-83820000D03*
X150368000Y-83820000D03*
X120396000Y-85852000D03*
X108712000Y-91440000D03*
X111252000Y-95351600D03*
X149520000Y-87120000D03*
X137120000Y-94650000D03*
X127508000Y-78740000D03*
X128860000Y-85230000D03*
X111252000Y-86360000D03*
X108712000Y-86360000D03*
X139660000Y-90470000D03*
D16*
X127508000Y-95402400D03*
D15*
X138684000Y-93827600D03*
X138510000Y-86690000D03*
D16*
X132080000Y-95402400D03*
X117906800Y-84378800D03*
D15*
X111252000Y-93472000D03*
X113792000Y-95351600D03*
X108712000Y-88900000D03*
X126700000Y-91130000D03*
X111252000Y-88900000D03*
X141800000Y-84600000D03*
X129540000Y-78740000D03*
X144272000Y-78740000D03*
D16*
X116600000Y-83700000D03*
D15*
X120396000Y-87376000D03*
X125476000Y-80772000D03*
X113792000Y-83820000D03*
X143764000Y-91440000D03*
X128890000Y-83970000D03*
D16*
X117551200Y-83362800D03*
D15*
X116070000Y-87850000D03*
X139770000Y-79520000D03*
X121412000Y-79248000D03*
X130020000Y-86490000D03*
D16*
X116300000Y-81500000D03*
D15*
X143000000Y-85380000D03*
D16*
X116600000Y-82700000D03*
D15*
X113792000Y-81280000D03*
X127508000Y-88900000D03*
X130010000Y-85290000D03*
D16*
X118800000Y-81200000D03*
D15*
X140170000Y-85510000D03*
X141224000Y-95300800D03*
X111252000Y-91440000D03*
D16*
X129540000Y-95402400D03*
D15*
X108712000Y-93472000D03*
X128890000Y-86450000D03*
X140380000Y-84040000D03*
X136144000Y-88900000D03*
X108712000Y-95351600D03*
X126770000Y-92810000D03*
D16*
X121000000Y-91980000D03*
D15*
X123530000Y-81520000D03*
X142240000Y-88900000D03*
X113792000Y-78740000D03*
X130556000Y-88900000D03*
D16*
X117551200Y-82143600D03*
D15*
X134112000Y-89916000D03*
X131160000Y-86460000D03*
X144000000Y-84590000D03*
X146304000Y-88900000D03*
X143764000Y-95300800D03*
X150368000Y-88392000D03*
D16*
X132990000Y-90730000D03*
D15*
X145000000Y-85350000D03*
X150368000Y-80772000D03*
X111252000Y-83820000D03*
X138684000Y-95300800D03*
X140210000Y-86690000D03*
X127508000Y-80772000D03*
X147828000Y-80772000D03*
X125476000Y-78740000D03*
X108712000Y-83820000D03*
X139192000Y-88900000D03*
X125476000Y-82296000D03*
X122936000Y-87376000D03*
X141224000Y-78740000D03*
X147010000Y-78890000D03*
X143764000Y-93827600D03*
D16*
X117900000Y-81200000D03*
D15*
X143764000Y-86868000D03*
X131100000Y-85350000D03*
D16*
X122070000Y-92040000D03*
X117740000Y-93780000D03*
X121780000Y-91150000D03*
G04 #@! TA.AperFunction,Conductor*
G36*
X151212539Y-78090185D02*
G01*
X151258294Y-78142989D01*
X151269500Y-78194500D01*
X151269500Y-90256105D01*
X151249815Y-90323144D01*
X151197011Y-90368899D01*
X151127853Y-90378843D01*
X151064297Y-90349818D01*
X151049134Y-90334141D01*
X151013784Y-90290488D01*
X151013781Y-90290484D01*
X150739516Y-90016219D01*
X150438084Y-89772124D01*
X150438082Y-89772122D01*
X150112793Y-89560877D01*
X149767197Y-89384787D01*
X149405094Y-89245788D01*
X149405087Y-89245786D01*
X149030433Y-89145398D01*
X149030429Y-89145397D01*
X149030428Y-89145397D01*
X148647339Y-89084722D01*
X148260001Y-89064422D01*
X148259999Y-89064422D01*
X147872660Y-89084722D01*
X147489572Y-89145397D01*
X147489570Y-89145397D01*
X147114905Y-89245788D01*
X146752802Y-89384787D01*
X146407206Y-89560877D01*
X146081917Y-89772122D01*
X145780488Y-90016215D01*
X145780480Y-90016222D01*
X145506222Y-90290480D01*
X145506215Y-90290488D01*
X145262122Y-90591917D01*
X145050877Y-90917206D01*
X144874787Y-91262802D01*
X144735788Y-91624905D01*
X144635397Y-91999570D01*
X144635397Y-91999572D01*
X144574722Y-92382662D01*
X144554422Y-92770000D01*
X144574722Y-93157338D01*
X144635398Y-93540433D01*
X144699590Y-93780003D01*
X144735788Y-93915094D01*
X144874787Y-94277197D01*
X145050877Y-94622793D01*
X145262122Y-94948082D01*
X145262124Y-94948084D01*
X145506219Y-95249516D01*
X145780484Y-95523781D01*
X145780488Y-95523784D01*
X145824141Y-95559134D01*
X145863852Y-95616621D01*
X145866180Y-95686452D01*
X145830384Y-95746456D01*
X145767831Y-95777582D01*
X145746105Y-95779500D01*
X108164500Y-95779500D01*
X108097461Y-95759815D01*
X108051706Y-95707011D01*
X108040500Y-95655500D01*
X108040500Y-93780003D01*
X116934435Y-93780003D01*
X116954630Y-93959249D01*
X116954631Y-93959254D01*
X117014211Y-94129523D01*
X117107000Y-94277194D01*
X117110184Y-94282262D01*
X117237738Y-94409816D01*
X117390478Y-94505789D01*
X117560745Y-94565368D01*
X117560750Y-94565369D01*
X117739996Y-94585565D01*
X117740000Y-94585565D01*
X117740004Y-94585565D01*
X117919249Y-94565369D01*
X117919252Y-94565368D01*
X117919255Y-94565368D01*
X118089522Y-94505789D01*
X118242262Y-94409816D01*
X118369816Y-94282262D01*
X118465789Y-94129522D01*
X118525368Y-93959255D01*
X118530344Y-93915094D01*
X118545565Y-93780003D01*
X118545565Y-93779996D01*
X118525369Y-93600750D01*
X118525368Y-93600745D01*
X118504264Y-93540433D01*
X118465789Y-93430478D01*
X118369816Y-93277738D01*
X118242262Y-93150184D01*
X118089523Y-93054211D01*
X117919254Y-92994631D01*
X117919249Y-92994630D01*
X117740004Y-92974435D01*
X117739996Y-92974435D01*
X117560750Y-92994630D01*
X117560745Y-92994631D01*
X117390476Y-93054211D01*
X117237737Y-93150184D01*
X117110184Y-93277737D01*
X117014211Y-93430476D01*
X116954631Y-93600745D01*
X116954630Y-93600750D01*
X116934435Y-93779996D01*
X116934435Y-93780003D01*
X108040500Y-93780003D01*
X108040500Y-91150003D01*
X120974435Y-91150003D01*
X120994630Y-91329249D01*
X120994631Y-91329254D01*
X121054211Y-91499523D01*
X121132994Y-91624905D01*
X121150184Y-91652262D01*
X121277738Y-91779816D01*
X121430478Y-91875789D01*
X121600745Y-91935368D01*
X121600750Y-91935369D01*
X121779996Y-91955565D01*
X121780000Y-91955565D01*
X121780004Y-91955565D01*
X121959249Y-91935369D01*
X121959252Y-91935368D01*
X121959255Y-91935368D01*
X122129522Y-91875789D01*
X122282262Y-91779816D01*
X122409816Y-91652262D01*
X122505789Y-91499522D01*
X122565368Y-91329255D01*
X122572855Y-91262806D01*
X122585565Y-91150003D01*
X122585565Y-91149996D01*
X122565369Y-90970750D01*
X122565368Y-90970745D01*
X122505788Y-90800476D01*
X122409815Y-90647737D01*
X122282262Y-90520184D01*
X122129523Y-90424211D01*
X121959254Y-90364631D01*
X121959249Y-90364630D01*
X121780004Y-90344435D01*
X121779996Y-90344435D01*
X121600750Y-90364630D01*
X121600745Y-90364631D01*
X121430476Y-90424211D01*
X121277737Y-90520184D01*
X121150184Y-90647737D01*
X121054211Y-90800476D01*
X120994631Y-90970745D01*
X120994630Y-90970750D01*
X120974435Y-91149996D01*
X120974435Y-91150003D01*
X108040500Y-91150003D01*
X108040500Y-86300000D01*
X115674551Y-86300000D01*
X115694317Y-86551151D01*
X115753126Y-86796110D01*
X115849533Y-87028859D01*
X115981160Y-87243653D01*
X115981161Y-87243656D01*
X115981164Y-87243659D01*
X116144776Y-87435224D01*
X116293066Y-87561875D01*
X116336343Y-87598838D01*
X116336346Y-87598839D01*
X116551140Y-87730466D01*
X116783889Y-87826873D01*
X117028852Y-87885683D01*
X117280000Y-87905449D01*
X117531148Y-87885683D01*
X117776111Y-87826873D01*
X118008859Y-87730466D01*
X118223659Y-87598836D01*
X118400417Y-87447870D01*
X123299500Y-87447870D01*
X123299501Y-87447876D01*
X123305908Y-87507483D01*
X123356202Y-87642328D01*
X123356206Y-87642335D01*
X123442452Y-87757544D01*
X123442455Y-87757547D01*
X123557664Y-87843793D01*
X123557671Y-87843797D01*
X123692517Y-87894091D01*
X123692516Y-87894091D01*
X123699444Y-87894835D01*
X123752127Y-87900500D01*
X126047872Y-87900499D01*
X126107483Y-87894091D01*
X126242331Y-87843796D01*
X126357546Y-87757546D01*
X126443796Y-87642331D01*
X126494091Y-87507483D01*
X126500500Y-87447873D01*
X126500499Y-85152128D01*
X126494091Y-85092517D01*
X126460017Y-85001161D01*
X126443797Y-84957671D01*
X126443793Y-84957664D01*
X126357547Y-84842455D01*
X126357544Y-84842452D01*
X126242335Y-84756206D01*
X126242328Y-84756202D01*
X126107482Y-84705908D01*
X126107483Y-84705908D01*
X126047883Y-84699501D01*
X126047881Y-84699500D01*
X126047873Y-84699500D01*
X126047864Y-84699500D01*
X123752129Y-84699500D01*
X123752123Y-84699501D01*
X123692516Y-84705908D01*
X123557671Y-84756202D01*
X123557664Y-84756206D01*
X123442455Y-84842452D01*
X123442452Y-84842455D01*
X123356206Y-84957664D01*
X123356202Y-84957671D01*
X123305908Y-85092517D01*
X123299501Y-85152116D01*
X123299501Y-85152123D01*
X123299500Y-85152135D01*
X123299500Y-87447870D01*
X118400417Y-87447870D01*
X118415224Y-87435224D01*
X118578836Y-87243659D01*
X118710466Y-87028859D01*
X118806873Y-86796111D01*
X118865683Y-86551148D01*
X118885449Y-86300000D01*
X118865683Y-86048852D01*
X118806873Y-85803889D01*
X118710466Y-85571141D01*
X118710466Y-85571140D01*
X118578839Y-85356346D01*
X118578838Y-85356343D01*
X118541875Y-85313066D01*
X118415224Y-85164776D01*
X118288571Y-85056604D01*
X118223656Y-85001161D01*
X118223653Y-85001160D01*
X118008859Y-84869533D01*
X117776110Y-84773126D01*
X117531151Y-84714317D01*
X117280000Y-84694551D01*
X117028848Y-84714317D01*
X116783889Y-84773126D01*
X116551140Y-84869533D01*
X116336346Y-85001160D01*
X116336343Y-85001161D01*
X116144776Y-85164776D01*
X115981161Y-85356343D01*
X115981160Y-85356346D01*
X115849533Y-85571140D01*
X115753126Y-85803889D01*
X115694317Y-86048848D01*
X115674551Y-86300000D01*
X108040500Y-86300000D01*
X108040500Y-80590904D01*
X108060185Y-80523865D01*
X108112989Y-80478110D01*
X108182147Y-80468166D01*
X108245703Y-80497191D01*
X108279928Y-80545602D01*
X108373254Y-80783392D01*
X108373256Y-80783396D01*
X108373257Y-80783398D01*
X108508185Y-81017102D01*
X108644080Y-81187509D01*
X108676442Y-81228089D01*
X108863183Y-81401358D01*
X108874259Y-81411635D01*
X109097226Y-81563651D01*
X109340359Y-81680738D01*
X109598228Y-81760280D01*
X109598229Y-81760280D01*
X109598232Y-81760281D01*
X109865063Y-81800499D01*
X109865068Y-81800499D01*
X109865071Y-81800500D01*
X109865072Y-81800500D01*
X110134928Y-81800500D01*
X110134929Y-81800500D01*
X110134936Y-81800499D01*
X110401767Y-81760281D01*
X110401768Y-81760280D01*
X110401772Y-81760280D01*
X110659641Y-81680738D01*
X110902775Y-81563651D01*
X111125741Y-81411635D01*
X111323561Y-81228085D01*
X111491815Y-81017102D01*
X111626743Y-80783398D01*
X111725334Y-80532195D01*
X111785383Y-80269103D01*
X111805549Y-80000000D01*
X111785383Y-79730897D01*
X111725334Y-79467805D01*
X111626743Y-79216602D01*
X111491815Y-78982898D01*
X111323561Y-78771915D01*
X111323560Y-78771914D01*
X111323557Y-78771910D01*
X111125741Y-78588365D01*
X111113806Y-78580228D01*
X110902775Y-78436349D01*
X110902771Y-78436347D01*
X110902768Y-78436345D01*
X110902767Y-78436344D01*
X110659644Y-78319263D01*
X110659641Y-78319262D01*
X110639307Y-78312989D01*
X110581050Y-78274421D01*
X110552892Y-78210476D01*
X110563776Y-78141459D01*
X110610244Y-78089282D01*
X110675859Y-78070500D01*
X151145500Y-78070500D01*
X151212539Y-78090185D01*
G37*
G04 #@! TD.AperFunction*
M02*
