G04 #@! TF.GenerationSoftware,KiCad,Pcbnew,8.0.0*
G04 #@! TF.CreationDate,2024-08-05T13:19:55+02:00*
G04 #@! TF.ProjectId,BatteryBridge,42617474-6572-4794-9272-696467652e6b,rev?*
G04 #@! TF.SameCoordinates,Original*
G04 #@! TF.FileFunction,Copper,L1,Top*
G04 #@! TF.FilePolarity,Positive*
%FSLAX46Y46*%
G04 Gerber Fmt 4.6, Leading zero omitted, Abs format (unit mm)*
G04 Created by KiCad (PCBNEW 8.0.0) date 2024-08-05 13:19:55*
%MOMM*%
%LPD*%
G01*
G04 APERTURE LIST*
G04 Aperture macros list*
%AMRoundRect*
0 Rectangle with rounded corners*
0 $1 Rounding radius*
0 $2 $3 $4 $5 $6 $7 $8 $9 X,Y pos of 4 corners*
0 Add a 4 corners polygon primitive as box body*
4,1,4,$2,$3,$4,$5,$6,$7,$8,$9,$2,$3,0*
0 Add four circle primitives for the rounded corners*
1,1,$1+$1,$2,$3*
1,1,$1+$1,$4,$5*
1,1,$1+$1,$6,$7*
1,1,$1+$1,$8,$9*
0 Add four rect primitives between the rounded corners*
20,1,$1+$1,$2,$3,$4,$5,0*
20,1,$1+$1,$4,$5,$6,$7,0*
20,1,$1+$1,$6,$7,$8,$9,0*
20,1,$1+$1,$8,$9,$2,$3,0*%
G04 Aperture macros list end*
G04 #@! TA.AperFunction,SMDPad,CuDef*
%ADD10RoundRect,0.250000X-0.475000X0.250000X-0.475000X-0.250000X0.475000X-0.250000X0.475000X0.250000X0*%
G04 #@! TD*
G04 #@! TA.AperFunction,SMDPad,CuDef*
%ADD11RoundRect,0.250000X0.475000X-0.250000X0.475000X0.250000X-0.475000X0.250000X-0.475000X-0.250000X0*%
G04 #@! TD*
G04 #@! TA.AperFunction,SMDPad,CuDef*
%ADD12RoundRect,0.250000X0.450000X-0.262500X0.450000X0.262500X-0.450000X0.262500X-0.450000X-0.262500X0*%
G04 #@! TD*
G04 #@! TA.AperFunction,ComponentPad*
%ADD13C,0.800000*%
G04 #@! TD*
G04 #@! TA.AperFunction,ComponentPad*
%ADD14C,6.400000*%
G04 #@! TD*
G04 #@! TA.AperFunction,SMDPad,CuDef*
%ADD15R,1.425000X0.450000*%
G04 #@! TD*
G04 #@! TA.AperFunction,SMDPad,CuDef*
%ADD16RoundRect,0.150000X0.587500X0.150000X-0.587500X0.150000X-0.587500X-0.150000X0.587500X-0.150000X0*%
G04 #@! TD*
G04 #@! TA.AperFunction,SMDPad,CuDef*
%ADD17RoundRect,0.250000X-1.000000X-0.650000X1.000000X-0.650000X1.000000X0.650000X-1.000000X0.650000X0*%
G04 #@! TD*
G04 #@! TA.AperFunction,SMDPad,CuDef*
%ADD18RoundRect,0.250000X-0.250000X-0.475000X0.250000X-0.475000X0.250000X0.475000X-0.250000X0.475000X0*%
G04 #@! TD*
G04 #@! TA.AperFunction,ComponentPad*
%ADD19R,2.200000X2.200000*%
G04 #@! TD*
G04 #@! TA.AperFunction,ComponentPad*
%ADD20O,2.200000X2.200000*%
G04 #@! TD*
G04 #@! TA.AperFunction,SMDPad,CuDef*
%ADD21RoundRect,0.150000X0.150000X0.700000X-0.150000X0.700000X-0.150000X-0.700000X0.150000X-0.700000X0*%
G04 #@! TD*
G04 #@! TA.AperFunction,SMDPad,CuDef*
%ADD22RoundRect,0.250000X0.250000X1.100000X-0.250000X1.100000X-0.250000X-1.100000X0.250000X-1.100000X0*%
G04 #@! TD*
G04 #@! TA.AperFunction,SMDPad,CuDef*
%ADD23RoundRect,0.250000X1.500000X-0.250000X1.500000X0.250000X-1.500000X0.250000X-1.500000X-0.250000X0*%
G04 #@! TD*
G04 #@! TA.AperFunction,SMDPad,CuDef*
%ADD24RoundRect,0.250001X1.449999X-0.499999X1.449999X0.499999X-1.449999X0.499999X-1.449999X-0.499999X0*%
G04 #@! TD*
G04 #@! TA.AperFunction,SMDPad,CuDef*
%ADD25RoundRect,0.150000X0.512500X0.150000X-0.512500X0.150000X-0.512500X-0.150000X0.512500X-0.150000X0*%
G04 #@! TD*
G04 #@! TA.AperFunction,SMDPad,CuDef*
%ADD26RoundRect,0.243750X0.243750X0.456250X-0.243750X0.456250X-0.243750X-0.456250X0.243750X-0.456250X0*%
G04 #@! TD*
G04 #@! TA.AperFunction,SMDPad,CuDef*
%ADD27RoundRect,0.243750X-0.456250X0.243750X-0.456250X-0.243750X0.456250X-0.243750X0.456250X0.243750X0*%
G04 #@! TD*
G04 #@! TA.AperFunction,ComponentPad*
%ADD28C,2.600000*%
G04 #@! TD*
G04 #@! TA.AperFunction,ConnectorPad*
%ADD29C,4.400000*%
G04 #@! TD*
G04 #@! TA.AperFunction,SMDPad,CuDef*
%ADD30RoundRect,0.250000X-0.262500X-0.450000X0.262500X-0.450000X0.262500X0.450000X-0.262500X0.450000X0*%
G04 #@! TD*
G04 #@! TA.AperFunction,SMDPad,CuDef*
%ADD31RoundRect,0.250000X-0.450000X0.262500X-0.450000X-0.262500X0.450000X-0.262500X0.450000X0.262500X0*%
G04 #@! TD*
G04 #@! TA.AperFunction,ViaPad*
%ADD32C,0.800000*%
G04 #@! TD*
G04 #@! TA.AperFunction,ViaPad*
%ADD33C,0.600000*%
G04 #@! TD*
G04 #@! TA.AperFunction,Conductor*
%ADD34C,0.508000*%
G04 #@! TD*
G04 #@! TA.AperFunction,Conductor*
%ADD35C,0.350000*%
G04 #@! TD*
G04 #@! TA.AperFunction,Conductor*
%ADD36C,0.300000*%
G04 #@! TD*
G04 #@! TA.AperFunction,Conductor*
%ADD37C,0.250000*%
G04 #@! TD*
G04 APERTURE END LIST*
D10*
X125350000Y-92810000D03*
X125350000Y-94710000D03*
D11*
X138860000Y-84065000D03*
X138860000Y-82165000D03*
D12*
X116340000Y-94692500D03*
X116340000Y-92867500D03*
D11*
X130430000Y-84075000D03*
X130430000Y-82175000D03*
D10*
X123300000Y-92830000D03*
X123300000Y-94730000D03*
D13*
X145860000Y-92770000D03*
X146562944Y-91072944D03*
X146562944Y-94467056D03*
X148260000Y-90370000D03*
D14*
X148260000Y-92770000D03*
D13*
X148260000Y-95170000D03*
X149957056Y-91072944D03*
X149957056Y-94467056D03*
X150660000Y-92770000D03*
D15*
X136052000Y-92685000D03*
X136052000Y-92035000D03*
X136052000Y-91385000D03*
X136052000Y-90735000D03*
X131628000Y-90735000D03*
X131628000Y-91385000D03*
X131628000Y-92035000D03*
X131628000Y-92685000D03*
D16*
X123135000Y-91150000D03*
X123135000Y-89250000D03*
X121260000Y-90200000D03*
D11*
X138090000Y-92350000D03*
X138090000Y-90450000D03*
D17*
X133632500Y-79512500D03*
X137632500Y-79512500D03*
D18*
X133860000Y-94650000D03*
X135760000Y-94650000D03*
D19*
X124900000Y-86300000D03*
D20*
X117280000Y-86300000D03*
D11*
X129520000Y-92690000D03*
X129520000Y-90790000D03*
D21*
X121100000Y-82680000D03*
X119850000Y-82680000D03*
X118600000Y-82680000D03*
D22*
X122950000Y-79480000D03*
X116750000Y-79480000D03*
D23*
X143760000Y-83260000D03*
X143760000Y-81260000D03*
D24*
X149510000Y-85610000D03*
X149510000Y-78910000D03*
D25*
X136807500Y-84075000D03*
X136807500Y-83125000D03*
X136807500Y-82175000D03*
X134532500Y-82175000D03*
X134532500Y-84075000D03*
D26*
X134407500Y-87892500D03*
X132532500Y-87892500D03*
D12*
X136730000Y-87535000D03*
X136730000Y-85710000D03*
D27*
X116380000Y-89252500D03*
X116380000Y-91127500D03*
D28*
X110000000Y-80000000D03*
D29*
X110000000Y-80000000D03*
D25*
X121297500Y-94732500D03*
X121297500Y-93782500D03*
X121297500Y-92832500D03*
X119022500Y-92832500D03*
X119022500Y-93782500D03*
X119022500Y-94732500D03*
D30*
X132537500Y-85892500D03*
X134362500Y-85892500D03*
D31*
X118390000Y-89287500D03*
X118390000Y-91112500D03*
D11*
X132480000Y-84095000D03*
X132480000Y-82195000D03*
D10*
X125207500Y-89237500D03*
X125207500Y-91137500D03*
D32*
X118364000Y-79248000D03*
X141224000Y-93827600D03*
X138530000Y-85550000D03*
X147828000Y-83820000D03*
X150368000Y-83820000D03*
X120396000Y-85852000D03*
X108712000Y-91440000D03*
X111252000Y-95351600D03*
X149520000Y-87120000D03*
X137120000Y-94650000D03*
X127508000Y-78740000D03*
X128860000Y-85230000D03*
X111252000Y-86360000D03*
X108712000Y-86360000D03*
X139660000Y-90470000D03*
D33*
X127508000Y-95402400D03*
D32*
X138684000Y-93827600D03*
X138510000Y-86690000D03*
D33*
X132080000Y-95402400D03*
X117906800Y-84378800D03*
D32*
X111252000Y-93472000D03*
X113792000Y-95351600D03*
X108712000Y-88900000D03*
X126700000Y-91130000D03*
X111252000Y-88900000D03*
X141800000Y-84600000D03*
X129540000Y-78740000D03*
X144272000Y-78740000D03*
D33*
X116600000Y-83700000D03*
D32*
X120396000Y-87376000D03*
X125476000Y-80772000D03*
X113792000Y-83820000D03*
X143764000Y-91440000D03*
X128890000Y-83970000D03*
D33*
X117551200Y-83362800D03*
D32*
X116070000Y-87850000D03*
X139770000Y-79520000D03*
X121412000Y-79248000D03*
X130020000Y-86490000D03*
D33*
X116300000Y-81500000D03*
D32*
X143000000Y-85380000D03*
D33*
X116600000Y-82700000D03*
D32*
X113792000Y-81280000D03*
X127508000Y-88900000D03*
X130010000Y-85290000D03*
D33*
X118800000Y-81200000D03*
D32*
X140170000Y-85510000D03*
X141224000Y-95300800D03*
X111252000Y-91440000D03*
D33*
X129540000Y-95402400D03*
D32*
X108712000Y-93472000D03*
X128890000Y-86450000D03*
X140380000Y-84040000D03*
X136144000Y-88900000D03*
X108712000Y-95351600D03*
X126770000Y-92810000D03*
D33*
X121000000Y-91980000D03*
D32*
X123530000Y-81520000D03*
X142240000Y-88900000D03*
X113792000Y-78740000D03*
X130556000Y-88900000D03*
D33*
X117551200Y-82143600D03*
D32*
X134112000Y-89916000D03*
X131160000Y-86460000D03*
X144000000Y-84590000D03*
X146304000Y-88900000D03*
X143764000Y-95300800D03*
X150368000Y-88392000D03*
D33*
X132990000Y-90730000D03*
D32*
X145000000Y-85350000D03*
X150368000Y-80772000D03*
X111252000Y-83820000D03*
X138684000Y-95300800D03*
X140210000Y-86690000D03*
X127508000Y-80772000D03*
X147828000Y-80772000D03*
X125476000Y-78740000D03*
X108712000Y-83820000D03*
X139192000Y-88900000D03*
X125476000Y-82296000D03*
X122936000Y-87376000D03*
X141224000Y-78740000D03*
X147010000Y-78890000D03*
X143764000Y-93827600D03*
D33*
X117900000Y-81200000D03*
D32*
X143764000Y-86868000D03*
X131100000Y-85350000D03*
D33*
X122070000Y-92040000D03*
X117740000Y-93780000D03*
X121780000Y-91150000D03*
D34*
X116380000Y-88160000D02*
X116070000Y-87850000D01*
X116380000Y-89252500D02*
X116380000Y-88160000D01*
X114882500Y-94692500D02*
X116340000Y-94692500D01*
X114240000Y-94050000D02*
X114882500Y-94692500D01*
X115980000Y-86300000D02*
X114240000Y-88040000D01*
X117280000Y-86300000D02*
X115980000Y-86300000D01*
X114240000Y-88040000D02*
X114240000Y-94050000D01*
X119850000Y-82680000D02*
X119850000Y-81440000D01*
X119850000Y-81440000D02*
X120150000Y-81140000D01*
X121700000Y-81140000D02*
X124170000Y-83610000D01*
X120150000Y-81140000D02*
X121700000Y-81140000D01*
X124170000Y-83610000D02*
X127650000Y-83610000D01*
X116380000Y-94732500D02*
X116340000Y-94692500D01*
X127650000Y-82710000D02*
X128185000Y-82175000D01*
X119022500Y-94732500D02*
X116380000Y-94732500D01*
X132532500Y-87892500D02*
X128542500Y-87892500D01*
X128185000Y-82175000D02*
X130430000Y-82175000D01*
X117850000Y-86300000D02*
X117280000Y-86300000D01*
X127650000Y-87000000D02*
X127650000Y-83610000D01*
X128542500Y-87892500D02*
X127650000Y-87000000D01*
X119850000Y-82680000D02*
X119850000Y-84300000D01*
X119850000Y-84300000D02*
X117850000Y-86300000D01*
X127650000Y-83610000D02*
X127650000Y-82710000D01*
D35*
X136052000Y-90735000D02*
X137805000Y-90735000D01*
X139640000Y-90450000D02*
X139660000Y-90470000D01*
D34*
X125327500Y-92832500D02*
X125350000Y-92810000D01*
D35*
X132985000Y-90735000D02*
X132990000Y-90730000D01*
D34*
X135760000Y-94650000D02*
X137120000Y-94650000D01*
D35*
X137805000Y-90735000D02*
X138090000Y-90450000D01*
D34*
X121297500Y-92832500D02*
X125327500Y-92832500D01*
X149520000Y-87120000D02*
X149520000Y-85620000D01*
X147030000Y-78910000D02*
X147010000Y-78890000D01*
X149520000Y-85620000D02*
X149510000Y-85610000D01*
D35*
X131628000Y-90735000D02*
X132985000Y-90735000D01*
D36*
X116750000Y-79480000D02*
X116750000Y-81050000D01*
D34*
X125207500Y-91137500D02*
X126692500Y-91137500D01*
D36*
X122950000Y-80940000D02*
X123530000Y-81520000D01*
D34*
X126692500Y-91137500D02*
X126700000Y-91130000D01*
X139762500Y-79512500D02*
X139770000Y-79520000D01*
D36*
X116750000Y-81050000D02*
X116300000Y-81500000D01*
X122950000Y-79480000D02*
X122950000Y-80940000D01*
D35*
X138090000Y-90450000D02*
X139640000Y-90450000D01*
D34*
X149510000Y-78910000D02*
X147030000Y-78910000D01*
X137632500Y-79512500D02*
X139762500Y-79512500D01*
X125350000Y-92810000D02*
X126770000Y-92810000D01*
X125195000Y-89250000D02*
X125207500Y-89237500D01*
X124900000Y-88930000D02*
X125207500Y-89237500D01*
D36*
X118390000Y-89287500D02*
X123097500Y-89287500D01*
D34*
X122850000Y-86300000D02*
X124900000Y-86300000D01*
X123135000Y-89250000D02*
X125195000Y-89250000D01*
X121100000Y-82680000D02*
X121100000Y-84550000D01*
X125207500Y-86522500D02*
X125460000Y-86270000D01*
X121100000Y-84550000D02*
X122850000Y-86300000D01*
X124900000Y-86300000D02*
X124900000Y-88930000D01*
D36*
X123097500Y-89287500D02*
X123135000Y-89250000D01*
X116380000Y-91127500D02*
X118375000Y-91127500D01*
X118375000Y-91127500D02*
X118390000Y-91112500D01*
D37*
X136372500Y-87892500D02*
X136730000Y-87535000D01*
D36*
X134407500Y-87892500D02*
X136372500Y-87892500D01*
D35*
X133860000Y-94650000D02*
X133860000Y-92685000D01*
X121380000Y-94650000D02*
X121297500Y-94732500D01*
X133860000Y-92685000D02*
X136052000Y-92685000D01*
X121297500Y-94732500D02*
X120422500Y-94732500D01*
X120422500Y-94732500D02*
X120150000Y-94460000D01*
X120380000Y-90200000D02*
X121260000Y-90200000D01*
X120150000Y-94460000D02*
X120150000Y-90430000D01*
X120150000Y-90430000D02*
X120380000Y-90200000D01*
X131628000Y-92685000D02*
X133860000Y-92685000D01*
X133860000Y-94650000D02*
X121380000Y-94650000D01*
X136052000Y-92035000D02*
X134961000Y-92035000D01*
X136052000Y-92035000D02*
X137775000Y-92035000D01*
D34*
X140900000Y-92350000D02*
X146820000Y-86430000D01*
X146820000Y-81780000D02*
X146300000Y-81260000D01*
X146820000Y-86430000D02*
X146820000Y-81780000D01*
X146300000Y-81260000D02*
X143760000Y-81260000D01*
D35*
X137775000Y-92035000D02*
X138090000Y-92350000D01*
X134961000Y-92035000D02*
X134800000Y-91874000D01*
X134979800Y-91385000D02*
X136052000Y-91385000D01*
X134800000Y-91874000D02*
X134800000Y-91564800D01*
D34*
X138090000Y-92350000D02*
X140900000Y-92350000D01*
D35*
X134800000Y-91564800D02*
X134979800Y-91385000D01*
X131628000Y-92035000D02*
X130175000Y-92035000D01*
X130175000Y-92035000D02*
X129520000Y-92690000D01*
X130115000Y-91385000D02*
X129520000Y-90790000D01*
X131628000Y-91385000D02*
X130115000Y-91385000D01*
D37*
X119022500Y-93782500D02*
X117742500Y-93782500D01*
X121780000Y-91150000D02*
X123135000Y-91150000D01*
X117742500Y-93782500D02*
X117740000Y-93780000D01*
D36*
X134532500Y-84075000D02*
X134532500Y-85722500D01*
D37*
X134532500Y-85722500D02*
X134362500Y-85892500D01*
D34*
X116375000Y-92832500D02*
X116340000Y-92867500D01*
X119022500Y-92832500D02*
X116375000Y-92832500D01*
D37*
X136730000Y-84152500D02*
X136807500Y-84075000D01*
D36*
X136730000Y-85710000D02*
X136730000Y-84152500D01*
G04 #@! TA.AperFunction,Conductor*
G36*
X145655677Y-80009685D02*
G01*
X145676319Y-80026319D01*
X146063681Y-80413681D01*
X146097166Y-80475004D01*
X146100000Y-80501362D01*
X146100000Y-81756755D01*
X146080315Y-81823794D01*
X146027511Y-81869549D01*
X145958353Y-81879493D01*
X145924488Y-81869549D01*
X145848103Y-81834664D01*
X145848098Y-81834662D01*
X145848097Y-81834662D01*
X145781058Y-81814977D01*
X145781060Y-81814977D01*
X145781055Y-81814976D01*
X145733582Y-81808150D01*
X145638638Y-81794500D01*
X141081362Y-81794500D01*
X141081360Y-81794500D01*
X141027311Y-81797397D01*
X141027310Y-81797397D01*
X141000977Y-81800229D01*
X141000950Y-81800232D01*
X140947554Y-81808885D01*
X140947552Y-81808885D01*
X140812747Y-81859166D01*
X140751422Y-81892651D01*
X140636240Y-81978876D01*
X140636228Y-81978886D01*
X140061935Y-82553181D01*
X140000612Y-82586666D01*
X139974254Y-82589500D01*
X139688859Y-82589500D01*
X139608348Y-82595954D01*
X139569353Y-82602246D01*
X139541830Y-82608980D01*
X139490863Y-82621452D01*
X139490857Y-82621454D01*
X139394237Y-82653470D01*
X139367850Y-82659120D01*
X139365556Y-82659355D01*
X139352946Y-82659998D01*
X138367062Y-82659998D01*
X138354506Y-82659361D01*
X138353469Y-82659255D01*
X138352203Y-82659126D01*
X138325759Y-82653470D01*
X138279017Y-82637981D01*
X138230341Y-82607957D01*
X138165364Y-82542980D01*
X138132371Y-82512784D01*
X138115556Y-82498710D01*
X138080000Y-82471533D01*
X138078808Y-82470934D01*
X137951435Y-82406947D01*
X137951426Y-82406944D01*
X137919254Y-82396185D01*
X137885168Y-82384786D01*
X137885162Y-82384784D01*
X137885159Y-82384783D01*
X137885155Y-82384782D01*
X137885156Y-82384782D01*
X137743602Y-82359035D01*
X137612448Y-82372948D01*
X137564773Y-82368716D01*
X137422573Y-82327402D01*
X137422567Y-82327401D01*
X137385701Y-82324500D01*
X137385694Y-82324500D01*
X136254514Y-82324500D01*
X136187475Y-82304815D01*
X136141720Y-82252011D01*
X136131776Y-82182854D01*
X136150000Y-82056104D01*
X136150000Y-82022012D01*
X136154925Y-81987413D01*
X136160500Y-81968223D01*
X136160503Y-81968213D01*
X136175532Y-81898407D01*
X136180456Y-81863811D01*
X136185500Y-81792582D01*
X136185500Y-81045862D01*
X136205185Y-80978823D01*
X136221819Y-80958181D01*
X136273745Y-80906255D01*
X136335068Y-80872770D01*
X136400428Y-80876229D01*
X136479703Y-80902499D01*
X136582491Y-80913000D01*
X138682508Y-80912999D01*
X138785297Y-80902499D01*
X138951834Y-80847314D01*
X138973501Y-80833949D01*
X138998613Y-80818461D01*
X139063709Y-80800000D01*
X140380000Y-80800000D01*
X141153681Y-80026319D01*
X141215004Y-79992834D01*
X141241362Y-79990000D01*
X145588638Y-79990000D01*
X145655677Y-80009685D01*
G37*
G04 #@! TD.AperFunction*
G04 #@! TA.AperFunction,Conductor*
G36*
X126875677Y-90019685D02*
G01*
X126896319Y-90036319D01*
X127253681Y-90393681D01*
X127287166Y-90455004D01*
X127290000Y-90481362D01*
X127290000Y-93308638D01*
X127270315Y-93375677D01*
X127253681Y-93396319D01*
X126711819Y-93938181D01*
X126650496Y-93971666D01*
X126624138Y-93974500D01*
X126452230Y-93974500D01*
X126385191Y-93954815D01*
X126364549Y-93938181D01*
X126293657Y-93867289D01*
X126293656Y-93867288D01*
X126176761Y-93795187D01*
X126144336Y-93775187D01*
X126144331Y-93775185D01*
X126142862Y-93774698D01*
X125977797Y-93720001D01*
X125977795Y-93720000D01*
X125875010Y-93709500D01*
X124824998Y-93709500D01*
X124824980Y-93709501D01*
X124722203Y-93720000D01*
X124722200Y-93720001D01*
X124555668Y-93775185D01*
X124555663Y-93775187D01*
X124406343Y-93867288D01*
X124401234Y-93872398D01*
X124339909Y-93905880D01*
X124270218Y-93900892D01*
X124248461Y-93890251D01*
X124094340Y-93795189D01*
X124094335Y-93795187D01*
X124094334Y-93795186D01*
X123927797Y-93740001D01*
X123927795Y-93740000D01*
X123825010Y-93729500D01*
X122774998Y-93729500D01*
X122774980Y-93729501D01*
X122672203Y-93740000D01*
X122672200Y-93740001D01*
X122505668Y-93795185D01*
X122505663Y-93795187D01*
X122356342Y-93887289D01*
X122305451Y-93938181D01*
X122244128Y-93971666D01*
X122217770Y-93974500D01*
X122066512Y-93974500D01*
X122031917Y-93969576D01*
X121912573Y-93934902D01*
X121912567Y-93934901D01*
X121875701Y-93932000D01*
X121875694Y-93932000D01*
X120949500Y-93932000D01*
X120882461Y-93912315D01*
X120836706Y-93859511D01*
X120825500Y-93808000D01*
X120825500Y-91715862D01*
X120845185Y-91648823D01*
X120861819Y-91628181D01*
X120893681Y-91596319D01*
X120955004Y-91562834D01*
X120981362Y-91560000D01*
X121023680Y-91560000D01*
X121090719Y-91579685D01*
X121128674Y-91618029D01*
X121150181Y-91652259D01*
X121150184Y-91652262D01*
X121277738Y-91779816D01*
X121338638Y-91818082D01*
X121428289Y-91874414D01*
X121430478Y-91875789D01*
X121504656Y-91901745D01*
X121600745Y-91935368D01*
X121600750Y-91935369D01*
X121779996Y-91955565D01*
X121780000Y-91955565D01*
X121780004Y-91955565D01*
X121959249Y-91935369D01*
X121959252Y-91935368D01*
X121959255Y-91935368D01*
X122129522Y-91875789D01*
X122129525Y-91875786D01*
X122132376Y-91874414D01*
X122134408Y-91874078D01*
X122136095Y-91873489D01*
X122136198Y-91873784D01*
X122201316Y-91863053D01*
X122249308Y-91879393D01*
X122287102Y-91901744D01*
X122287105Y-91901744D01*
X122287107Y-91901746D01*
X122444926Y-91947597D01*
X122444929Y-91947597D01*
X122444931Y-91947598D01*
X122481806Y-91950500D01*
X122481814Y-91950500D01*
X123788186Y-91950500D01*
X123788194Y-91950500D01*
X123825069Y-91947598D01*
X123825071Y-91947597D01*
X123825073Y-91947597D01*
X123867165Y-91935368D01*
X123982898Y-91901744D01*
X124124365Y-91818081D01*
X124240581Y-91701865D01*
X124324244Y-91560398D01*
X124370098Y-91402569D01*
X124373000Y-91365694D01*
X124373000Y-90934306D01*
X124370098Y-90897431D01*
X124324244Y-90739602D01*
X124240581Y-90598135D01*
X124240579Y-90598133D01*
X124240576Y-90598129D01*
X124206319Y-90563872D01*
X124172834Y-90502549D01*
X124170000Y-90476191D01*
X124170000Y-90431361D01*
X124189685Y-90364322D01*
X124206309Y-90343690D01*
X124332438Y-90217561D01*
X124393755Y-90184080D01*
X124459114Y-90187539D01*
X124579703Y-90227499D01*
X124682491Y-90238000D01*
X125732508Y-90237999D01*
X125732516Y-90237998D01*
X125732519Y-90237998D01*
X125788802Y-90232248D01*
X125835297Y-90227499D01*
X126001834Y-90172314D01*
X126151156Y-90080212D01*
X126195049Y-90036319D01*
X126256372Y-90002834D01*
X126282730Y-90000000D01*
X126808638Y-90000000D01*
X126875677Y-90019685D01*
G37*
G04 #@! TD.AperFunction*
G04 #@! TA.AperFunction,Conductor*
G36*
X119015677Y-80819685D02*
G01*
X119036319Y-80836319D01*
X119152436Y-80952436D01*
X119185921Y-81013759D01*
X119180937Y-81083451D01*
X119179316Y-81087569D01*
X119124496Y-81219916D01*
X119124494Y-81219923D01*
X119114765Y-81268831D01*
X119082378Y-81330741D01*
X119021662Y-81365314D01*
X118958553Y-81363713D01*
X118852494Y-81332900D01*
X118852497Y-81332900D01*
X118850000Y-81332703D01*
X118850000Y-84027295D01*
X118862176Y-84038551D01*
X118898043Y-84098512D01*
X118895798Y-84168346D01*
X118865686Y-84217288D01*
X118319294Y-84763681D01*
X118257971Y-84797166D01*
X118231613Y-84800000D01*
X117865653Y-84800000D01*
X117818201Y-84790561D01*
X117776118Y-84773130D01*
X117776119Y-84773130D01*
X117776111Y-84773127D01*
X117776106Y-84773125D01*
X117776101Y-84773124D01*
X117531151Y-84714317D01*
X117342787Y-84699492D01*
X117280000Y-84694551D01*
X117279999Y-84694551D01*
X117028859Y-84714316D01*
X117028845Y-84714318D01*
X117004008Y-84720280D01*
X116934226Y-84716786D01*
X116887386Y-84687386D01*
X116236319Y-84036319D01*
X116202834Y-83974996D01*
X116200000Y-83948638D01*
X116200000Y-82930000D01*
X117800000Y-82930000D01*
X117800000Y-83445649D01*
X117802899Y-83482489D01*
X117802900Y-83482495D01*
X117848716Y-83640193D01*
X117848717Y-83640196D01*
X117932314Y-83781552D01*
X117932321Y-83781561D01*
X118048438Y-83897678D01*
X118048447Y-83897685D01*
X118189801Y-83981281D01*
X118347514Y-84027100D01*
X118347511Y-84027100D01*
X118349998Y-84027295D01*
X118350000Y-84027295D01*
X118350000Y-82930000D01*
X117800000Y-82930000D01*
X116200000Y-82930000D01*
X116200000Y-82451361D01*
X116206272Y-82430000D01*
X117800000Y-82430000D01*
X118350000Y-82430000D01*
X118350000Y-81332703D01*
X118347503Y-81332900D01*
X118189806Y-81378716D01*
X118189803Y-81378717D01*
X118048447Y-81462314D01*
X118048438Y-81462321D01*
X117932321Y-81578438D01*
X117932314Y-81578447D01*
X117848717Y-81719803D01*
X117848716Y-81719806D01*
X117802900Y-81877504D01*
X117802899Y-81877510D01*
X117800000Y-81914350D01*
X117800000Y-82430000D01*
X116206272Y-82430000D01*
X116219685Y-82384322D01*
X116236314Y-82363685D01*
X117351992Y-81248007D01*
X117374568Y-81230157D01*
X117468345Y-81172315D01*
X117592315Y-81048345D01*
X117650155Y-80954571D01*
X117668010Y-80931989D01*
X117715848Y-80884151D01*
X117763683Y-80836318D01*
X117825006Y-80802834D01*
X117851363Y-80800000D01*
X118948638Y-80800000D01*
X119015677Y-80819685D01*
G37*
G04 #@! TD.AperFunction*
G04 #@! TA.AperFunction,Conductor*
G36*
X145705677Y-82319685D02*
G01*
X145726319Y-82336319D01*
X145983681Y-82593681D01*
X146017166Y-82655004D01*
X146020000Y-82681362D01*
X146020000Y-85178638D01*
X146000315Y-85245677D01*
X145983681Y-85266319D01*
X145286319Y-85963681D01*
X145224996Y-85997166D01*
X145198638Y-86000000D01*
X141459999Y-86000000D01*
X141162500Y-86297499D01*
X141162500Y-83245000D01*
X141012500Y-83095000D01*
X140235000Y-83095000D01*
X140993681Y-82336319D01*
X141055004Y-82302834D01*
X141081362Y-82300000D01*
X145638638Y-82300000D01*
X145705677Y-82319685D01*
G37*
G04 #@! TD.AperFunction*
G04 #@! TA.AperFunction,Conductor*
G36*
X135747667Y-82693006D02*
G01*
X135771855Y-82720921D01*
X135772139Y-82720702D01*
X135776179Y-82725911D01*
X135776732Y-82726548D01*
X135776919Y-82726865D01*
X135776921Y-82726867D01*
X135776923Y-82726870D01*
X135893129Y-82843076D01*
X135893133Y-82843079D01*
X135893135Y-82843081D01*
X136034602Y-82926744D01*
X136076224Y-82938836D01*
X136192426Y-82972597D01*
X136192429Y-82972597D01*
X136192431Y-82972598D01*
X136229306Y-82975500D01*
X136229314Y-82975500D01*
X137385686Y-82975500D01*
X137385694Y-82975500D01*
X137422569Y-82972598D01*
X137422571Y-82972597D01*
X137422573Y-82972597D01*
X137512852Y-82946368D01*
X137580398Y-82926744D01*
X137657120Y-82881371D01*
X137724844Y-82864188D01*
X137791107Y-82886348D01*
X137807922Y-82900422D01*
X138002500Y-83095000D01*
X138031130Y-83095000D01*
X138070130Y-83101293D01*
X138232203Y-83154999D01*
X138334991Y-83165500D01*
X139385008Y-83165499D01*
X139385016Y-83165498D01*
X139385019Y-83165498D01*
X139441302Y-83159748D01*
X139487797Y-83154999D01*
X139649869Y-83101293D01*
X139688870Y-83095000D01*
X141012500Y-83095000D01*
X141162500Y-83245000D01*
X141162500Y-86297499D01*
X141162500Y-86812233D01*
X141142815Y-86879272D01*
X141141447Y-86881355D01*
X140846847Y-87320122D01*
X140793135Y-87364807D01*
X140743900Y-87375000D01*
X138186259Y-87375000D01*
X138119220Y-87355315D01*
X138083174Y-87319916D01*
X137900515Y-87046695D01*
X137885895Y-87016787D01*
X137864814Y-86953166D01*
X137840960Y-86914492D01*
X137822500Y-86849397D01*
X137822500Y-86395602D01*
X137840960Y-86330507D01*
X137864814Y-86291834D01*
X137919999Y-86125297D01*
X137930500Y-86022509D01*
X137930499Y-85397492D01*
X137929987Y-85392483D01*
X137919999Y-85294703D01*
X137919998Y-85294700D01*
X137918342Y-85289703D01*
X137864814Y-85128166D01*
X137840960Y-85089492D01*
X137822500Y-85024397D01*
X137822500Y-84687133D01*
X137839768Y-84624012D01*
X137857439Y-84594132D01*
X137921744Y-84485398D01*
X137967598Y-84327569D01*
X137970500Y-84290694D01*
X137970500Y-83859306D01*
X137967598Y-83822431D01*
X137921744Y-83664602D01*
X137838081Y-83523135D01*
X137838079Y-83523133D01*
X137838076Y-83523129D01*
X137721870Y-83406923D01*
X137721862Y-83406917D01*
X137580396Y-83323255D01*
X137580393Y-83323254D01*
X137422573Y-83277402D01*
X137422567Y-83277401D01*
X137385701Y-83274500D01*
X137385694Y-83274500D01*
X136229306Y-83274500D01*
X136229298Y-83274500D01*
X136192432Y-83277401D01*
X136192426Y-83277402D01*
X136034606Y-83323254D01*
X136034603Y-83323255D01*
X135893137Y-83406917D01*
X135893129Y-83406923D01*
X135776922Y-83523130D01*
X135773921Y-83527000D01*
X135717278Y-83567907D01*
X135675941Y-83575000D01*
X135664059Y-83575000D01*
X135597020Y-83555315D01*
X135566079Y-83527000D01*
X135563077Y-83523130D01*
X135446870Y-83406923D01*
X135446862Y-83406917D01*
X135305396Y-83323255D01*
X135305393Y-83323254D01*
X135147573Y-83277402D01*
X135147567Y-83277401D01*
X135110701Y-83274500D01*
X135110694Y-83274500D01*
X133954306Y-83274500D01*
X133954298Y-83274500D01*
X133917432Y-83277401D01*
X133917426Y-83277402D01*
X133759606Y-83323254D01*
X133759603Y-83323255D01*
X133618137Y-83406917D01*
X133618129Y-83406923D01*
X133501923Y-83523129D01*
X133501917Y-83523137D01*
X133418255Y-83664603D01*
X133418254Y-83664606D01*
X133372402Y-83822426D01*
X133372401Y-83822432D01*
X133369500Y-83859298D01*
X133369500Y-84290701D01*
X133372401Y-84327567D01*
X133372402Y-84327573D01*
X133418253Y-84485392D01*
X133418255Y-84485396D01*
X133418256Y-84485398D01*
X133445233Y-84531013D01*
X133462500Y-84594132D01*
X133462500Y-85011291D01*
X133444039Y-85076387D01*
X133415189Y-85123159D01*
X133415186Y-85123166D01*
X133360001Y-85289703D01*
X133360001Y-85289704D01*
X133360000Y-85289704D01*
X133349500Y-85392483D01*
X133349500Y-86392501D01*
X133349501Y-86392519D01*
X133360000Y-86495296D01*
X133362988Y-86504312D01*
X133403692Y-86627147D01*
X133406094Y-86696974D01*
X133373667Y-86753831D01*
X133333849Y-86793649D01*
X133272526Y-86827134D01*
X133202834Y-86822150D01*
X133181072Y-86811507D01*
X133092931Y-86757141D01*
X133092926Y-86757139D01*
X133092925Y-86757138D01*
X133082945Y-86753831D01*
X132927776Y-86702413D01*
X132825855Y-86692000D01*
X132825848Y-86692000D01*
X132239152Y-86692000D01*
X132239144Y-86692000D01*
X132137223Y-86702413D01*
X131972077Y-86757137D01*
X131972066Y-86757142D01*
X131824000Y-86848471D01*
X131733789Y-86938682D01*
X131672465Y-86972166D01*
X131646108Y-86975000D01*
X128813862Y-86975000D01*
X128746823Y-86955315D01*
X128726181Y-86938681D01*
X128440819Y-86653319D01*
X128407334Y-86591996D01*
X128404500Y-86565638D01*
X128404500Y-83314362D01*
X128424185Y-83247323D01*
X128440819Y-83226681D01*
X128496181Y-83171319D01*
X128557504Y-83137834D01*
X128583862Y-83135000D01*
X129691662Y-83135000D01*
X129730665Y-83141294D01*
X129768715Y-83153902D01*
X129802203Y-83164999D01*
X129904991Y-83175500D01*
X130955008Y-83175499D01*
X130955016Y-83175498D01*
X130955019Y-83175498D01*
X131052892Y-83165500D01*
X131057797Y-83164999D01*
X131129334Y-83141294D01*
X131168338Y-83135000D01*
X131681306Y-83135000D01*
X131720310Y-83141294D01*
X131852203Y-83184999D01*
X131954991Y-83195500D01*
X133005008Y-83195499D01*
X133005016Y-83195498D01*
X133005019Y-83195498D01*
X133061302Y-83189748D01*
X133107797Y-83184999D01*
X133274334Y-83129814D01*
X133423656Y-83037712D01*
X133547712Y-82913656D01*
X133547715Y-82913650D01*
X133550217Y-82911149D01*
X133611540Y-82877664D01*
X133681232Y-82882648D01*
X133701008Y-82892091D01*
X133759602Y-82926744D01*
X133759605Y-82926744D01*
X133759607Y-82926746D01*
X133917426Y-82972597D01*
X133917429Y-82972597D01*
X133917431Y-82972598D01*
X133954306Y-82975500D01*
X133954314Y-82975500D01*
X135110686Y-82975500D01*
X135110694Y-82975500D01*
X135147569Y-82972598D01*
X135147571Y-82972597D01*
X135147573Y-82972597D01*
X135237852Y-82946368D01*
X135305398Y-82926744D01*
X135446865Y-82843081D01*
X135563081Y-82726865D01*
X135563267Y-82726549D01*
X135563477Y-82726353D01*
X135567861Y-82720702D01*
X135568772Y-82721409D01*
X135614336Y-82678866D01*
X135683077Y-82666362D01*
X135747667Y-82693006D01*
G37*
G04 #@! TD.AperFunction*
G04 #@! TA.AperFunction,Conductor*
G36*
X135426177Y-78090185D02*
G01*
X135446819Y-78106819D01*
X135643681Y-78303681D01*
X135677166Y-78365004D01*
X135680000Y-78391362D01*
X135680000Y-81792582D01*
X135675076Y-81827178D01*
X135647402Y-81922429D01*
X135647401Y-81922432D01*
X135644500Y-81959298D01*
X135644500Y-82056104D01*
X135624815Y-82123143D01*
X135572011Y-82168898D01*
X135542696Y-82178101D01*
X135523872Y-82181525D01*
X135523871Y-82181525D01*
X135387428Y-82227154D01*
X135387417Y-82227160D01*
X135269355Y-82309381D01*
X135240785Y-82336058D01*
X135237207Y-82337855D01*
X135215426Y-82359635D01*
X135212376Y-82362582D01*
X135195425Y-82378409D01*
X135189237Y-82385823D01*
X135145657Y-82429402D01*
X135121104Y-82448448D01*
X135116529Y-82451154D01*
X135088013Y-82463498D01*
X135083859Y-82464705D01*
X135082596Y-82465072D01*
X135047987Y-82470000D01*
X134017015Y-82470000D01*
X133982421Y-82465077D01*
X133976986Y-82463498D01*
X133975194Y-82462977D01*
X133951460Y-82453325D01*
X133918825Y-82435927D01*
X133899049Y-82426484D01*
X133899044Y-82426481D01*
X133899038Y-82426479D01*
X133857884Y-82409019D01*
X133717298Y-82378437D01*
X133717292Y-82378436D01*
X133717291Y-82378436D01*
X133694060Y-82376774D01*
X133647601Y-82373452D01*
X133647598Y-82373452D01*
X133504087Y-82383716D01*
X133369281Y-82433997D01*
X133307958Y-82467481D01*
X133192842Y-82553637D01*
X133189941Y-82556539D01*
X133189646Y-82556836D01*
X133118244Y-82628238D01*
X133095659Y-82646096D01*
X133071583Y-82660946D01*
X133045492Y-82673112D01*
X133014238Y-82683469D01*
X132987849Y-82689121D01*
X132987431Y-82689163D01*
X132985557Y-82689355D01*
X132972945Y-82689998D01*
X131987063Y-82689998D01*
X131974507Y-82689361D01*
X131973374Y-82689245D01*
X131972204Y-82689126D01*
X131945761Y-82683470D01*
X131879317Y-82661453D01*
X131879314Y-82661452D01*
X131800840Y-82642250D01*
X131761836Y-82635956D01*
X131761830Y-82635955D01*
X131761819Y-82635954D01*
X131681315Y-82629500D01*
X131681306Y-82629500D01*
X131168338Y-82629500D01*
X131168329Y-82629500D01*
X131087824Y-82635954D01*
X131087811Y-82635955D01*
X131087808Y-82635956D01*
X131087799Y-82635957D01*
X131087795Y-82635958D01*
X131048809Y-82642249D01*
X131048806Y-82642249D01*
X131048804Y-82642250D01*
X131022646Y-82648650D01*
X130970320Y-82661454D01*
X130964221Y-82663475D01*
X130937893Y-82669115D01*
X130935603Y-82669350D01*
X130922945Y-82669998D01*
X129937060Y-82669998D01*
X129924504Y-82669361D01*
X129923866Y-82669296D01*
X129922199Y-82669125D01*
X129895758Y-82663470D01*
X129889664Y-82661450D01*
X129811205Y-82642251D01*
X129811195Y-82642249D01*
X129772206Y-82635958D01*
X129772208Y-82635958D01*
X129772194Y-82635956D01*
X129772188Y-82635955D01*
X129772177Y-82635954D01*
X129691671Y-82629500D01*
X129691662Y-82629500D01*
X128583862Y-82629500D01*
X128583860Y-82629500D01*
X128529811Y-82632397D01*
X128529810Y-82632397D01*
X128503477Y-82635229D01*
X128503474Y-82635229D01*
X128453833Y-82643273D01*
X128384508Y-82634564D01*
X128330897Y-82589758D01*
X128310020Y-82523080D01*
X128310000Y-82520869D01*
X128310000Y-82381362D01*
X128329685Y-82314323D01*
X128346319Y-82293681D01*
X132533181Y-78106819D01*
X132594504Y-78073334D01*
X132620862Y-78070500D01*
X135359138Y-78070500D01*
X135426177Y-78090185D01*
G37*
G04 #@! TD.AperFunction*
M02*
