G04 #@! TF.GenerationSoftware,KiCad,Pcbnew,8.0.0*
G04 #@! TF.CreationDate,2024-10-21T16:28:35+02:00*
G04 #@! TF.ProjectId,BatteryBridge,42617474-6572-4794-9272-696467652e6b,rev?*
G04 #@! TF.SameCoordinates,Original*
G04 #@! TF.FileFunction,Paste,Top*
G04 #@! TF.FilePolarity,Positive*
%FSLAX46Y46*%
G04 Gerber Fmt 4.6, Leading zero omitted, Abs format (unit mm)*
G04 Created by KiCad (PCBNEW 8.0.0) date 2024-10-21 16:28:35*
%MOMM*%
%LPD*%
G01*
G04 APERTURE LIST*
G04 Aperture macros list*
%AMRoundRect*
0 Rectangle with rounded corners*
0 $1 Rounding radius*
0 $2 $3 $4 $5 $6 $7 $8 $9 X,Y pos of 4 corners*
0 Add a 4 corners polygon primitive as box body*
4,1,4,$2,$3,$4,$5,$6,$7,$8,$9,$2,$3,0*
0 Add four circle primitives for the rounded corners*
1,1,$1+$1,$2,$3*
1,1,$1+$1,$4,$5*
1,1,$1+$1,$6,$7*
1,1,$1+$1,$8,$9*
0 Add four rect primitives between the rounded corners*
20,1,$1+$1,$2,$3,$4,$5,0*
20,1,$1+$1,$4,$5,$6,$7,0*
20,1,$1+$1,$6,$7,$8,$9,0*
20,1,$1+$1,$8,$9,$2,$3,0*%
G04 Aperture macros list end*
%ADD10RoundRect,0.250000X-0.475000X0.250000X-0.475000X-0.250000X0.475000X-0.250000X0.475000X0.250000X0*%
%ADD11RoundRect,0.150000X-0.512500X-0.150000X0.512500X-0.150000X0.512500X0.150000X-0.512500X0.150000X0*%
%ADD12R,1.600000X3.500000*%
%ADD13RoundRect,0.250000X0.475000X-0.250000X0.475000X0.250000X-0.475000X0.250000X-0.475000X-0.250000X0*%
%ADD14RoundRect,0.250000X0.250000X0.475000X-0.250000X0.475000X-0.250000X-0.475000X0.250000X-0.475000X0*%
%ADD15RoundRect,0.250000X0.262500X0.450000X-0.262500X0.450000X-0.262500X-0.450000X0.262500X-0.450000X0*%
%ADD16RoundRect,0.250000X-0.450000X0.262500X-0.450000X-0.262500X0.450000X-0.262500X0.450000X0.262500X0*%
%ADD17RoundRect,0.250000X-0.262500X-0.450000X0.262500X-0.450000X0.262500X0.450000X-0.262500X0.450000X0*%
%ADD18RoundRect,0.243750X-0.456250X0.243750X-0.456250X-0.243750X0.456250X-0.243750X0.456250X0.243750X0*%
%ADD19RoundRect,0.100000X-0.900000X-0.100000X0.900000X-0.100000X0.900000X0.100000X-0.900000X0.100000X0*%
%ADD20RoundRect,0.250000X1.400000X1.000000X-1.400000X1.000000X-1.400000X-1.000000X1.400000X-1.000000X0*%
%ADD21R,0.510000X0.700000*%
%ADD22RoundRect,0.250000X1.100000X-0.325000X1.100000X0.325000X-1.100000X0.325000X-1.100000X-0.325000X0*%
%ADD23RoundRect,0.250000X-0.250000X-0.475000X0.250000X-0.475000X0.250000X0.475000X-0.250000X0.475000X0*%
%ADD24RoundRect,0.150000X0.150000X0.700000X-0.150000X0.700000X-0.150000X-0.700000X0.150000X-0.700000X0*%
%ADD25RoundRect,0.250000X0.250000X1.100000X-0.250000X1.100000X-0.250000X-1.100000X0.250000X-1.100000X0*%
%ADD26RoundRect,0.150000X-0.587500X-0.150000X0.587500X-0.150000X0.587500X0.150000X-0.587500X0.150000X0*%
%ADD27RoundRect,0.250000X0.450000X-0.262500X0.450000X0.262500X-0.450000X0.262500X-0.450000X-0.262500X0*%
%ADD28RoundRect,0.150000X0.512500X0.150000X-0.512500X0.150000X-0.512500X-0.150000X0.512500X-0.150000X0*%
%ADD29RoundRect,0.300000X-0.300000X1.000000X-0.300000X-1.000000X0.300000X-1.000000X0.300000X1.000000X0*%
%ADD30RoundRect,0.737500X-1.012500X-0.737500X1.012500X-0.737500X1.012500X0.737500X-1.012500X0.737500X0*%
%ADD31RoundRect,0.150000X0.587500X0.150000X-0.587500X0.150000X-0.587500X-0.150000X0.587500X-0.150000X0*%
%ADD32R,1.390000X1.400000*%
%ADD33R,3.360000X4.860000*%
%ADD34RoundRect,0.243750X0.456250X-0.243750X0.456250X0.243750X-0.456250X0.243750X-0.456250X-0.243750X0*%
G04 APERTURE END LIST*
D10*
X125867200Y-88900000D03*
X125867200Y-90800000D03*
X121884400Y-88550000D03*
X121884400Y-90450000D03*
D11*
X102287500Y-92565000D03*
X102287500Y-93515000D03*
X102287500Y-94465000D03*
X104562500Y-94465000D03*
X104562500Y-93515000D03*
X104562500Y-92565000D03*
D12*
X84200000Y-94195200D03*
X84200000Y-88595200D03*
D13*
X98042500Y-94445000D03*
X98042500Y-92545000D03*
D14*
X140042400Y-88775400D03*
X138142400Y-88775400D03*
D15*
X77562500Y-86050000D03*
X75737500Y-86050000D03*
D16*
X100350000Y-88862500D03*
X100350000Y-90687500D03*
X82600000Y-79437500D03*
X82600000Y-81262500D03*
D15*
X108354500Y-94386400D03*
X106529500Y-94386400D03*
D17*
X133487500Y-83200000D03*
X135312500Y-83200000D03*
D18*
X98320000Y-88857500D03*
X98320000Y-90732500D03*
D14*
X130568000Y-97827200D03*
X128668000Y-97827200D03*
D13*
X143450000Y-86850000D03*
X143450000Y-84950000D03*
X100172500Y-94455000D03*
X100172500Y-92555000D03*
D17*
X75737500Y-84000000D03*
X77562500Y-84000000D03*
D19*
X137600800Y-84928000D03*
X137600800Y-85568000D03*
X137600800Y-86228000D03*
X137600800Y-86868000D03*
X141020800Y-86868000D03*
X141020800Y-86228000D03*
X141020800Y-85568000D03*
X141020800Y-84928000D03*
D10*
X106760000Y-88775000D03*
X106760000Y-90675000D03*
D13*
X113231900Y-94358100D03*
X113231900Y-92458100D03*
D20*
X129200000Y-86150000D03*
X129200000Y-79350000D03*
D21*
X140494400Y-83433000D03*
X141444400Y-83433000D03*
X142394400Y-83433000D03*
X142394400Y-81113000D03*
X141444400Y-81113000D03*
X140494400Y-81113000D03*
D22*
X91150000Y-92525000D03*
X91150000Y-89575000D03*
D23*
X86000000Y-81100000D03*
X87900000Y-81100000D03*
D15*
X136142100Y-88798400D03*
X134317100Y-88798400D03*
D24*
X119420000Y-82710000D03*
X118170000Y-82710000D03*
X116920000Y-82710000D03*
D25*
X121270000Y-79510000D03*
X115070000Y-79510000D03*
D23*
X132260000Y-99918000D03*
X134160000Y-99918000D03*
D14*
X135350000Y-81150000D03*
X133450000Y-81150000D03*
D22*
X94550000Y-92525000D03*
X94550000Y-89575000D03*
D24*
X103900000Y-82930000D03*
X102650000Y-82930000D03*
X101400000Y-82930000D03*
D25*
X105750000Y-79730000D03*
X99550000Y-79730000D03*
D10*
X119700000Y-88550000D03*
X119700000Y-90450000D03*
D15*
X132588000Y-88798400D03*
X130763000Y-88798400D03*
D23*
X132290000Y-97878000D03*
X134190000Y-97878000D03*
D14*
X134250000Y-92145600D03*
X132350000Y-92145600D03*
D19*
X80349200Y-82976800D03*
X80349200Y-83616800D03*
X80349200Y-84276800D03*
X80349200Y-84916800D03*
X83769200Y-84916800D03*
X83769200Y-84276800D03*
X83769200Y-83616800D03*
X83769200Y-82976800D03*
D26*
X115698000Y-92458100D03*
X115698000Y-94358100D03*
X117573000Y-93408100D03*
D27*
X119800000Y-94362500D03*
X119800000Y-92537500D03*
D28*
X117651500Y-90482100D03*
X117651500Y-89532100D03*
X117651500Y-88582100D03*
X115376500Y-88582100D03*
X115376500Y-89532100D03*
X115376500Y-90482100D03*
D23*
X85950000Y-79000000D03*
X87850000Y-79000000D03*
D29*
X136000000Y-95150000D03*
X143300000Y-95150000D03*
D14*
X135350000Y-85250000D03*
X133450000Y-85250000D03*
D13*
X80466400Y-81250000D03*
X80466400Y-79350000D03*
D11*
X130105300Y-93990500D03*
X130105300Y-94940500D03*
X130105300Y-95890500D03*
X132380300Y-95890500D03*
X132380300Y-94940500D03*
X132380300Y-93990500D03*
D17*
X141749200Y-88724600D03*
X143574200Y-88724600D03*
D30*
X148031200Y-87274400D03*
X148031200Y-81824400D03*
D27*
X113231900Y-90459800D03*
X113231900Y-88634800D03*
D31*
X104387500Y-90725000D03*
X104387500Y-88825000D03*
X102512500Y-89775000D03*
D17*
X86037500Y-83200000D03*
X87862500Y-83200000D03*
D32*
X77400000Y-89550000D03*
X75560000Y-89550000D03*
D33*
X76480000Y-93532000D03*
D10*
X127950000Y-88900000D03*
X127950000Y-90800000D03*
D34*
X121817500Y-94367500D03*
X121817500Y-92492500D03*
M02*
