G04 #@! TF.GenerationSoftware,KiCad,Pcbnew,8.0.0*
G04 #@! TF.CreationDate,2024-10-21T16:28:35+02:00*
G04 #@! TF.ProjectId,BatteryBridge,42617474-6572-4794-9272-696467652e6b,rev?*
G04 #@! TF.SameCoordinates,Original*
G04 #@! TF.FileFunction,Copper,L6,Bot*
G04 #@! TF.FilePolarity,Positive*
%FSLAX46Y46*%
G04 Gerber Fmt 4.6, Leading zero omitted, Abs format (unit mm)*
G04 Created by KiCad (PCBNEW 8.0.0) date 2024-10-21 16:28:35*
%MOMM*%
%LPD*%
G01*
G04 APERTURE LIST*
G04 Aperture macros list*
%AMRoundRect*
0 Rectangle with rounded corners*
0 $1 Rounding radius*
0 $2 $3 $4 $5 $6 $7 $8 $9 X,Y pos of 4 corners*
0 Add a 4 corners polygon primitive as box body*
4,1,4,$2,$3,$4,$5,$6,$7,$8,$9,$2,$3,0*
0 Add four circle primitives for the rounded corners*
1,1,$1+$1,$2,$3*
1,1,$1+$1,$4,$5*
1,1,$1+$1,$6,$7*
1,1,$1+$1,$8,$9*
0 Add four rect primitives between the rounded corners*
20,1,$1+$1,$2,$3,$4,$5,0*
20,1,$1+$1,$4,$5,$6,$7,0*
20,1,$1+$1,$6,$7,$8,$9,0*
20,1,$1+$1,$8,$9,$2,$3,0*%
G04 Aperture macros list end*
G04 #@! TA.AperFunction,ComponentPad*
%ADD10C,2.600000*%
G04 #@! TD*
G04 #@! TA.AperFunction,ComponentPad*
%ADD11C,0.800000*%
G04 #@! TD*
G04 #@! TA.AperFunction,ComponentPad*
%ADD12C,6.400000*%
G04 #@! TD*
G04 #@! TA.AperFunction,ComponentPad*
%ADD13R,2.200000X2.200000*%
G04 #@! TD*
G04 #@! TA.AperFunction,ComponentPad*
%ADD14O,2.200000X2.200000*%
G04 #@! TD*
G04 #@! TA.AperFunction,SMDPad,CuDef*
%ADD15RoundRect,0.250000X-0.475000X0.250000X-0.475000X-0.250000X0.475000X-0.250000X0.475000X0.250000X0*%
G04 #@! TD*
G04 #@! TA.AperFunction,SMDPad,CuDef*
%ADD16RoundRect,0.150000X-0.150000X0.512500X-0.150000X-0.512500X0.150000X-0.512500X0.150000X0.512500X0*%
G04 #@! TD*
G04 #@! TA.AperFunction,SMDPad,CuDef*
%ADD17RoundRect,0.150000X0.512500X0.150000X-0.512500X0.150000X-0.512500X-0.150000X0.512500X-0.150000X0*%
G04 #@! TD*
G04 #@! TA.AperFunction,SMDPad,CuDef*
%ADD18RoundRect,0.250000X-0.262500X-0.450000X0.262500X-0.450000X0.262500X0.450000X-0.262500X0.450000X0*%
G04 #@! TD*
G04 #@! TA.AperFunction,SMDPad,CuDef*
%ADD19RoundRect,0.250000X0.262500X0.450000X-0.262500X0.450000X-0.262500X-0.450000X0.262500X-0.450000X0*%
G04 #@! TD*
G04 #@! TA.AperFunction,SMDPad,CuDef*
%ADD20RoundRect,0.250000X-0.450000X0.262500X-0.450000X-0.262500X0.450000X-0.262500X0.450000X0.262500X0*%
G04 #@! TD*
G04 #@! TA.AperFunction,SMDPad,CuDef*
%ADD21RoundRect,0.250000X0.650000X-1.000000X0.650000X1.000000X-0.650000X1.000000X-0.650000X-1.000000X0*%
G04 #@! TD*
G04 #@! TA.AperFunction,SMDPad,CuDef*
%ADD22RoundRect,0.962500X1.787500X0.962500X-1.787500X0.962500X-1.787500X-0.962500X1.787500X-0.962500X0*%
G04 #@! TD*
G04 #@! TA.AperFunction,SMDPad,CuDef*
%ADD23R,0.700000X1.525000*%
G04 #@! TD*
G04 #@! TA.AperFunction,SMDPad,CuDef*
%ADD24RoundRect,0.250000X0.250000X0.475000X-0.250000X0.475000X-0.250000X-0.475000X0.250000X-0.475000X0*%
G04 #@! TD*
G04 #@! TA.AperFunction,SMDPad,CuDef*
%ADD25RoundRect,0.250000X-1.500000X0.250000X-1.500000X-0.250000X1.500000X-0.250000X1.500000X0.250000X0*%
G04 #@! TD*
G04 #@! TA.AperFunction,SMDPad,CuDef*
%ADD26RoundRect,0.250001X-1.449999X0.499999X-1.449999X-0.499999X1.449999X-0.499999X1.449999X0.499999X0*%
G04 #@! TD*
G04 #@! TA.AperFunction,SMDPad,CuDef*
%ADD27RoundRect,0.243750X0.243750X0.456250X-0.243750X0.456250X-0.243750X-0.456250X0.243750X-0.456250X0*%
G04 #@! TD*
G04 #@! TA.AperFunction,ViaPad*
%ADD28C,0.600000*%
G04 #@! TD*
G04 #@! TA.AperFunction,ViaPad*
%ADD29C,0.800000*%
G04 #@! TD*
G04 #@! TA.AperFunction,Conductor*
%ADD30C,0.508000*%
G04 #@! TD*
G04 #@! TA.AperFunction,Conductor*
%ADD31C,0.350000*%
G04 #@! TD*
G04 #@! TA.AperFunction,Conductor*
%ADD32C,0.250000*%
G04 #@! TD*
G04 APERTURE END LIST*
D10*
X110030000Y-80030000D03*
D11*
X145783600Y-92710000D03*
X146486544Y-91012944D03*
X146486544Y-94407056D03*
X148183600Y-90310000D03*
D12*
X148183600Y-92710000D03*
D11*
X148183600Y-95110000D03*
X149880656Y-91012944D03*
X149880656Y-94407056D03*
X150583600Y-92710000D03*
D13*
X99890000Y-86150000D03*
D14*
X107510000Y-86150000D03*
D13*
X120897100Y-85874500D03*
D14*
X113277100Y-85874500D03*
D15*
X139023300Y-83480800D03*
X139023300Y-85380800D03*
D16*
X106593600Y-92791700D03*
X108493600Y-92791700D03*
X107543600Y-95066700D03*
D17*
X136776000Y-83571000D03*
X136776000Y-84521000D03*
X136776000Y-85471000D03*
X134501000Y-85471000D03*
X134501000Y-83571000D03*
D18*
X100306500Y-94268000D03*
X102131500Y-94268000D03*
X132522800Y-81738400D03*
X134347800Y-81738400D03*
D19*
X108481500Y-90678000D03*
X106656500Y-90678000D03*
D20*
X104267000Y-92813500D03*
X104267000Y-94638500D03*
D21*
X127550000Y-86250000D03*
X127550000Y-82250000D03*
D22*
X90600000Y-80125000D03*
X90600000Y-90075000D03*
D23*
X74595000Y-84088000D03*
X75865000Y-84088000D03*
X77135000Y-84088000D03*
X78405000Y-84088000D03*
X78405000Y-89512000D03*
X77135000Y-89512000D03*
X75865000Y-89512000D03*
X74595000Y-89512000D03*
D24*
X83820000Y-84300000D03*
X81920000Y-84300000D03*
D15*
X132470100Y-83582400D03*
X132470100Y-85482400D03*
X130336500Y-83582400D03*
X130336500Y-85482400D03*
D20*
X136584900Y-79809900D03*
X136584900Y-81634900D03*
D25*
X143606400Y-81702400D03*
X143606400Y-83702400D03*
D26*
X149356400Y-79352400D03*
X149356400Y-86052400D03*
D20*
X104267000Y-88749500D03*
X104267000Y-90574500D03*
D27*
X134423600Y-79604800D03*
X132548600Y-79604800D03*
D16*
X100243600Y-89388100D03*
X102143600Y-89388100D03*
X101193600Y-91663100D03*
D28*
X125300000Y-86100000D03*
X118550000Y-87000000D03*
X129100000Y-82400000D03*
X146800000Y-79650000D03*
D29*
X75565000Y-79375000D03*
X133959600Y-87274400D03*
X145440400Y-96621600D03*
X124460000Y-95250000D03*
X130200400Y-91135200D03*
X137795000Y-93980000D03*
X94615000Y-79375000D03*
X139700000Y-93980000D03*
X86360000Y-85725000D03*
D28*
X79600000Y-82250000D03*
D29*
X133553200Y-90373200D03*
X150495000Y-84455000D03*
D28*
X78750000Y-86650000D03*
D29*
X107950000Y-83185000D03*
X84300000Y-81400000D03*
X114935000Y-83185000D03*
X137160000Y-91440000D03*
D28*
X79600000Y-86350000D03*
D29*
X116840000Y-79375000D03*
X147955000Y-84455000D03*
X75565000Y-81280000D03*
D28*
X140716000Y-79756000D03*
D29*
X95885000Y-94615000D03*
D28*
X80450000Y-82250000D03*
D29*
X93345000Y-94615000D03*
X77470000Y-81280000D03*
X110185200Y-92964000D03*
X73660000Y-81280000D03*
X96520000Y-79375000D03*
D28*
X111506000Y-95656400D03*
D29*
X140335000Y-100330000D03*
D28*
X144780000Y-79756000D03*
D29*
X110185200Y-89001600D03*
D28*
X144780000Y-78232000D03*
X129850000Y-99850000D03*
X130200000Y-81350000D03*
D29*
X84300000Y-80250000D03*
X123240800Y-78638400D03*
D28*
X127850000Y-99850000D03*
D29*
X150825200Y-89357200D03*
X124917200Y-78638400D03*
D28*
X142748000Y-79756000D03*
X131200000Y-82400000D03*
X146812000Y-78232000D03*
D29*
X96520000Y-88138000D03*
D28*
X130200000Y-82400000D03*
X117600000Y-87350000D03*
D29*
X137160000Y-100330000D03*
D28*
X131200000Y-81350000D03*
D29*
X73660000Y-79375000D03*
D28*
X113588800Y-95656400D03*
D29*
X93980000Y-88138000D03*
D28*
X123250000Y-88250000D03*
D29*
X127635000Y-92710000D03*
D28*
X120192800Y-95605600D03*
D29*
X112395000Y-83185000D03*
X96520000Y-85725000D03*
X88900000Y-85725000D03*
X91440000Y-85725000D03*
D28*
X115925600Y-95656400D03*
D29*
X94615000Y-82550000D03*
X142875000Y-100330000D03*
X142240000Y-91440000D03*
D28*
X129100000Y-81350000D03*
D29*
X77470000Y-79375000D03*
X119380000Y-79375000D03*
X93980000Y-85725000D03*
X124460000Y-92710000D03*
D28*
X118008400Y-95656400D03*
D29*
X137769600Y-95910400D03*
D28*
X142748000Y-78232000D03*
D29*
X110185200Y-90881200D03*
X90805000Y-94615000D03*
X139700000Y-91440000D03*
X103505000Y-79375000D03*
D28*
X122326400Y-95605600D03*
D29*
X101600000Y-79375000D03*
X96520000Y-82550000D03*
D28*
X140716000Y-78232000D03*
D29*
X111550000Y-94350000D03*
D28*
X127500000Y-96200000D03*
X127450000Y-97650000D03*
X108915200Y-95554800D03*
X106426000Y-95605600D03*
X128500000Y-96200000D03*
X127550000Y-95100000D03*
X91694000Y-83820000D03*
X90424000Y-82804000D03*
X89154000Y-83820000D03*
X85240000Y-84300000D03*
X139230000Y-84720000D03*
X92900000Y-82804000D03*
X90424000Y-83820000D03*
X91694000Y-82804000D03*
X146050000Y-85550000D03*
X89154000Y-82804000D03*
X145250000Y-86150000D03*
X135350000Y-97950000D03*
X128700000Y-94000000D03*
X81788000Y-87884000D03*
X81788000Y-89916000D03*
X80518000Y-89916000D03*
X79248000Y-89916000D03*
X80518000Y-87884000D03*
X79248000Y-87884000D03*
X76350000Y-87650000D03*
X77150000Y-88200000D03*
X74750000Y-87650000D03*
X75550000Y-88200000D03*
X78050000Y-87700000D03*
X83480000Y-85550000D03*
X145970000Y-83830000D03*
X141000000Y-87600000D03*
D29*
X105765600Y-92557600D03*
D30*
X113277100Y-85874500D02*
X111229500Y-85874500D01*
X126695200Y-79604800D02*
X125300000Y-81000000D01*
X108354500Y-88749500D02*
X104267000Y-88749500D01*
X132548600Y-79604800D02*
X126695200Y-79604800D01*
X125300000Y-81000000D02*
X125300000Y-86100000D01*
X111229500Y-85874500D02*
X108354500Y-88749500D01*
X127400000Y-86100000D02*
X127550000Y-86250000D01*
X125300000Y-86100000D02*
X127400000Y-86100000D01*
X120897100Y-85874500D02*
X117575500Y-85874500D01*
X111550000Y-93555000D02*
X111550000Y-94350000D01*
X114427000Y-90678000D02*
X111550000Y-93555000D01*
X114427000Y-89023000D02*
X114427000Y-90678000D01*
X117575500Y-85874500D02*
X114427000Y-89023000D01*
D31*
X100306500Y-95124900D02*
X100306500Y-94268000D01*
X100787200Y-95605600D02*
X100306500Y-95124900D01*
X106426000Y-95605600D02*
X100787200Y-95605600D01*
D32*
X83820000Y-84300000D02*
X85240000Y-84300000D01*
D31*
X133450000Y-96050000D02*
X135350000Y-97950000D01*
X129750000Y-96050000D02*
X133450000Y-96050000D01*
X128700000Y-95000000D02*
X129750000Y-96050000D01*
X128700000Y-94000000D02*
X128700000Y-95000000D01*
D32*
X134423600Y-79604800D02*
X136379800Y-79604800D01*
X136379800Y-79604800D02*
X136584900Y-79809900D01*
X78920000Y-85570000D02*
X78405000Y-85055000D01*
X83480000Y-85550000D02*
X83460000Y-85570000D01*
X83460000Y-85570000D02*
X78920000Y-85570000D01*
X78405000Y-85055000D02*
X78405000Y-84088000D01*
X134347800Y-81738400D02*
X134347800Y-83417800D01*
X134347800Y-83417800D02*
X134501000Y-83571000D01*
X136584900Y-81634900D02*
X136584900Y-83379900D01*
X136584900Y-83379900D02*
X136776000Y-83571000D01*
D31*
X105765600Y-92557600D02*
X106359500Y-92557600D01*
X107106300Y-92791700D02*
X106593600Y-92791700D01*
X107797600Y-90678000D02*
X107594400Y-90881200D01*
X107594400Y-90881200D02*
X107594400Y-92303600D01*
X107594400Y-92303600D02*
X107106300Y-92791700D01*
X108481500Y-90678000D02*
X107797600Y-90678000D01*
X106359500Y-92557600D02*
X106593600Y-92791700D01*
X107171982Y-94029200D02*
X108100800Y-94029200D01*
X104267000Y-92813500D02*
X104751500Y-92813500D01*
X104751500Y-92813500D02*
X105968800Y-94030800D01*
X108102400Y-94030800D02*
X108493600Y-93639600D01*
X105968800Y-94030800D02*
X107170382Y-94030800D01*
X108493600Y-93639600D02*
X108493600Y-92791700D01*
X107170382Y-94030800D02*
X107171982Y-94029200D01*
X108100800Y-94029200D02*
X108102400Y-94030800D01*
X100531300Y-90574500D02*
X104267000Y-90574500D01*
X100243600Y-89388100D02*
X100243600Y-90286800D01*
X100243600Y-90286800D02*
X100531300Y-90574500D01*
X101193600Y-91663100D02*
X101193600Y-92506800D01*
X104267000Y-94638500D02*
X102502000Y-94638500D01*
X102131500Y-93444700D02*
X102131500Y-94268000D01*
X101193600Y-92506800D02*
X102131500Y-93444700D01*
X102502000Y-94638500D02*
X102131500Y-94268000D01*
G04 #@! TA.AperFunction,Conductor*
G36*
X125800000Y-83900000D02*
G01*
X126593151Y-84693151D01*
X126591677Y-84692815D01*
X126545233Y-84682214D01*
X126545229Y-84682213D01*
X126545227Y-84682213D01*
X126500564Y-84677065D01*
X126500539Y-84677063D01*
X126446628Y-84676789D01*
X126446622Y-84676789D01*
X126446598Y-84676789D01*
X126435797Y-84677036D01*
X126435075Y-84677053D01*
X126347068Y-84701921D01*
X126347066Y-84701922D01*
X126285746Y-84735405D01*
X126238917Y-84770460D01*
X126238908Y-84770468D01*
X125966181Y-85043196D01*
X125904858Y-85076681D01*
X125835166Y-85071697D01*
X125779233Y-85029825D01*
X125754816Y-84964361D01*
X125754500Y-84955515D01*
X125754500Y-81239622D01*
X125774185Y-81172583D01*
X125790819Y-81151941D01*
X125800000Y-81142760D01*
X125800000Y-83900000D01*
G37*
G04 #@! TD.AperFunction*
G04 #@! TA.AperFunction,Conductor*
G36*
X135496500Y-84796500D02*
G01*
X135480142Y-84781807D01*
X135480129Y-84781795D01*
X135459502Y-84765174D01*
X135388455Y-84728009D01*
X135321423Y-84708326D01*
X135320774Y-84708232D01*
X135263518Y-84700000D01*
X135400000Y-84700000D01*
X135496500Y-84796500D01*
G37*
G04 #@! TD.AperFunction*
G04 #@! TA.AperFunction,Conductor*
G36*
X87381445Y-77894585D02*
G01*
X87427200Y-77947389D01*
X87437144Y-78016547D01*
X87408119Y-78080103D01*
X87402087Y-78086581D01*
X87255666Y-78233001D01*
X87255638Y-78233031D01*
X87237361Y-78253379D01*
X87220744Y-78274000D01*
X87220740Y-78274005D01*
X87220740Y-78274007D01*
X87179656Y-78352548D01*
X87174534Y-78362340D01*
X87154850Y-78429375D01*
X87154848Y-78429383D01*
X87144500Y-78501360D01*
X87144500Y-83248639D01*
X87145963Y-83275934D01*
X87145967Y-83275988D01*
X87148797Y-83302310D01*
X87148798Y-83302312D01*
X87178586Y-83397441D01*
X87178590Y-83397451D01*
X87212068Y-83458761D01*
X87212073Y-83458769D01*
X87255649Y-83516980D01*
X87255665Y-83516998D01*
X87670371Y-83931703D01*
X88083015Y-84344347D01*
X88103365Y-84362626D01*
X88103371Y-84362631D01*
X88103379Y-84362638D01*
X88124000Y-84379255D01*
X88124002Y-84379256D01*
X88124007Y-84379260D01*
X88212338Y-84425465D01*
X88279377Y-84445150D01*
X88279381Y-84445150D01*
X88279383Y-84445151D01*
X88291014Y-84446823D01*
X88351362Y-84455500D01*
X88351363Y-84455500D01*
X93148639Y-84455500D01*
X93150075Y-84455422D01*
X93175952Y-84454036D01*
X93202310Y-84451202D01*
X93297444Y-84421413D01*
X93358767Y-84387928D01*
X93416985Y-84344347D01*
X94044347Y-83716985D01*
X94062626Y-83696635D01*
X94079260Y-83675993D01*
X94125465Y-83587662D01*
X94145150Y-83520623D01*
X94155500Y-83448638D01*
X94155500Y-80030005D01*
X108524357Y-80030005D01*
X108544890Y-80277812D01*
X108544892Y-80277824D01*
X108605936Y-80518881D01*
X108705826Y-80746606D01*
X108841833Y-80954782D01*
X108874245Y-80989991D01*
X109010256Y-81137738D01*
X109206491Y-81290474D01*
X109425190Y-81408828D01*
X109660386Y-81489571D01*
X109905665Y-81530500D01*
X110154335Y-81530500D01*
X110399614Y-81489571D01*
X110634810Y-81408828D01*
X110853509Y-81290474D01*
X111049744Y-81137738D01*
X111218164Y-80954785D01*
X111354173Y-80746607D01*
X111454063Y-80518881D01*
X111515108Y-80277821D01*
X111525111Y-80157101D01*
X111535643Y-80030005D01*
X111535643Y-80029994D01*
X111515109Y-79782187D01*
X111515107Y-79782175D01*
X111454063Y-79541118D01*
X111354173Y-79313393D01*
X111218166Y-79105217D01*
X111181160Y-79065018D01*
X111049744Y-78922262D01*
X110853509Y-78769526D01*
X110853507Y-78769525D01*
X110853506Y-78769524D01*
X110634811Y-78651172D01*
X110634802Y-78651169D01*
X110399616Y-78570429D01*
X110154335Y-78529500D01*
X109905665Y-78529500D01*
X109660383Y-78570429D01*
X109425197Y-78651169D01*
X109425188Y-78651172D01*
X109206493Y-78769524D01*
X109010257Y-78922261D01*
X108841833Y-79105217D01*
X108705826Y-79313393D01*
X108605936Y-79541118D01*
X108544892Y-79782175D01*
X108544890Y-79782187D01*
X108524357Y-80029994D01*
X108524357Y-80030005D01*
X94155500Y-80030005D01*
X94155500Y-78501362D01*
X94154036Y-78474048D01*
X94151202Y-78447690D01*
X94121413Y-78352556D01*
X94103806Y-78320312D01*
X94087931Y-78291238D01*
X94087926Y-78291230D01*
X94044350Y-78233019D01*
X94044349Y-78233018D01*
X94044347Y-78233015D01*
X94044342Y-78233010D01*
X94044334Y-78233001D01*
X93897914Y-78086581D01*
X93864429Y-78025258D01*
X93869413Y-77955566D01*
X93911285Y-77899633D01*
X93976749Y-77875216D01*
X93985595Y-77874900D01*
X147703500Y-77874900D01*
X147770539Y-77894585D01*
X147816294Y-77947389D01*
X147826238Y-78016547D01*
X147797213Y-78080103D01*
X147742504Y-78116606D01*
X147587281Y-78168041D01*
X147587276Y-78168043D01*
X147438055Y-78260084D01*
X147314084Y-78384055D01*
X147222043Y-78533276D01*
X147222041Y-78533281D01*
X147166894Y-78699703D01*
X147166893Y-78699710D01*
X147156400Y-78802414D01*
X147156400Y-79102400D01*
X149482400Y-79102400D01*
X149549439Y-79122085D01*
X149595194Y-79174889D01*
X149606400Y-79226400D01*
X149606400Y-80602400D01*
X150856373Y-80602400D01*
X150856385Y-80602399D01*
X150959089Y-80591906D01*
X150959096Y-80591905D01*
X151125518Y-80536758D01*
X151125529Y-80536753D01*
X151272003Y-80446407D01*
X151339395Y-80427966D01*
X151406059Y-80448888D01*
X151450829Y-80502530D01*
X151461100Y-80551945D01*
X151461100Y-84852854D01*
X151441415Y-84919893D01*
X151388611Y-84965648D01*
X151319453Y-84975592D01*
X151272003Y-84958393D01*
X151125523Y-84868043D01*
X151125518Y-84868041D01*
X150959096Y-84812894D01*
X150959089Y-84812893D01*
X150856385Y-84802400D01*
X149606400Y-84802400D01*
X149606400Y-87302400D01*
X150856373Y-87302400D01*
X150856385Y-87302399D01*
X150959089Y-87291906D01*
X150959096Y-87291905D01*
X151125518Y-87236758D01*
X151125529Y-87236753D01*
X151272003Y-87146407D01*
X151339395Y-87127966D01*
X151406059Y-87148888D01*
X151450829Y-87202530D01*
X151461100Y-87251945D01*
X151461100Y-91133715D01*
X151441415Y-91200754D01*
X151388611Y-91246509D01*
X151319453Y-91256453D01*
X151255897Y-91227428D01*
X151227545Y-91191798D01*
X151101626Y-90954291D01*
X151101624Y-90954288D01*
X151101622Y-90954284D01*
X150894690Y-90649083D01*
X150655973Y-90368044D01*
X150388270Y-90114462D01*
X150368085Y-90099118D01*
X150341964Y-90079261D01*
X150094719Y-89891310D01*
X149778762Y-89701205D01*
X149778761Y-89701204D01*
X149778757Y-89701202D01*
X149778753Y-89701200D01*
X149444113Y-89546379D01*
X149444108Y-89546377D01*
X149444103Y-89546375D01*
X149273772Y-89488983D01*
X149094665Y-89428635D01*
X148734546Y-89349367D01*
X148367971Y-89309500D01*
X148367970Y-89309500D01*
X147999230Y-89309500D01*
X147999228Y-89309500D01*
X147632653Y-89349367D01*
X147272534Y-89428635D01*
X147002412Y-89519650D01*
X146923097Y-89546375D01*
X146923094Y-89546376D01*
X146923086Y-89546379D01*
X146588446Y-89701200D01*
X146588442Y-89701202D01*
X146456893Y-89780353D01*
X146272481Y-89891310D01*
X146248938Y-89909207D01*
X145978930Y-90114461D01*
X145978930Y-90114462D01*
X145711226Y-90368044D01*
X145472509Y-90649083D01*
X145265579Y-90954282D01*
X145265573Y-90954291D01*
X145092861Y-91280061D01*
X145092855Y-91280073D01*
X144956370Y-91622628D01*
X144956368Y-91622634D01*
X144857728Y-91977905D01*
X144857722Y-91977931D01*
X144798070Y-92341786D01*
X144798069Y-92341803D01*
X144778106Y-92709997D01*
X144778106Y-92710000D01*
X144798069Y-93078196D01*
X144798070Y-93078213D01*
X144857722Y-93442068D01*
X144857728Y-93442094D01*
X144956368Y-93797365D01*
X144956370Y-93797371D01*
X144956372Y-93797377D01*
X144956373Y-93797379D01*
X144973224Y-93839672D01*
X145092855Y-94139926D01*
X145092861Y-94139938D01*
X145265573Y-94465708D01*
X145265579Y-94465717D01*
X145472509Y-94770916D01*
X145534981Y-94844463D01*
X145711227Y-95051956D01*
X145978930Y-95305538D01*
X146272481Y-95528690D01*
X146588438Y-95718795D01*
X146588440Y-95718796D01*
X146588442Y-95718797D01*
X146588446Y-95718799D01*
X146923086Y-95873621D01*
X146923090Y-95873622D01*
X146923091Y-95873622D01*
X146923097Y-95873625D01*
X147189149Y-95963268D01*
X147246394Y-96003328D01*
X147272894Y-96067977D01*
X147260234Y-96136691D01*
X147212435Y-96187652D01*
X147203358Y-96192497D01*
X146957627Y-96310835D01*
X146697956Y-96473998D01*
X146697952Y-96474000D01*
X146697949Y-96474003D01*
X146671113Y-96495404D01*
X146458173Y-96665216D01*
X146241316Y-96882073D01*
X146170537Y-96970828D01*
X146050103Y-97121849D01*
X146050100Y-97121852D01*
X146050098Y-97121856D01*
X145886935Y-97381527D01*
X145753873Y-97657833D01*
X145652584Y-97947298D01*
X145652580Y-97947310D01*
X145584338Y-98246300D01*
X145584336Y-98246316D01*
X145550000Y-98551053D01*
X145550000Y-98700333D01*
X145549735Y-98708443D01*
X145532313Y-98974252D01*
X145530195Y-98990333D01*
X145479025Y-99247581D01*
X145474827Y-99263249D01*
X145390513Y-99511628D01*
X145384306Y-99526613D01*
X145268295Y-99761860D01*
X145260185Y-99775907D01*
X145114461Y-99993999D01*
X145104587Y-100006867D01*
X144931642Y-100204073D01*
X144920173Y-100215542D01*
X144722967Y-100388487D01*
X144710099Y-100398361D01*
X144492007Y-100544085D01*
X144477960Y-100552195D01*
X144242713Y-100668206D01*
X144227728Y-100674413D01*
X143979349Y-100758727D01*
X143963681Y-100762925D01*
X143706433Y-100814095D01*
X143690352Y-100816213D01*
X143424543Y-100833635D01*
X143416433Y-100833900D01*
X128621267Y-100833900D01*
X128613157Y-100833635D01*
X128347347Y-100816213D01*
X128331266Y-100814095D01*
X128074018Y-100762925D01*
X128058350Y-100758727D01*
X127809971Y-100674413D01*
X127794986Y-100668206D01*
X127559739Y-100552195D01*
X127545692Y-100544085D01*
X127327600Y-100398361D01*
X127314732Y-100388487D01*
X127117526Y-100215542D01*
X127106057Y-100204073D01*
X127040977Y-100129864D01*
X126933109Y-100006864D01*
X126923238Y-99993999D01*
X126777514Y-99775907D01*
X126769404Y-99761860D01*
X126764030Y-99750963D01*
X126653390Y-99526606D01*
X126647189Y-99511635D01*
X126562869Y-99263238D01*
X126558677Y-99247593D01*
X126507502Y-98990322D01*
X126505387Y-98974264D01*
X126487965Y-98708443D01*
X126487700Y-98700333D01*
X126487700Y-98551054D01*
X126487699Y-98551053D01*
X126476369Y-98450500D01*
X126453362Y-98246304D01*
X126385119Y-97947310D01*
X126376742Y-97923371D01*
X126336212Y-97807543D01*
X126283828Y-97657837D01*
X126280054Y-97650000D01*
X126944353Y-97650000D01*
X126964834Y-97792456D01*
X127024622Y-97923371D01*
X127024623Y-97923373D01*
X127118872Y-98032143D01*
X127239947Y-98109953D01*
X127239950Y-98109954D01*
X127239949Y-98109954D01*
X127378036Y-98150499D01*
X127378038Y-98150500D01*
X127378039Y-98150500D01*
X127521962Y-98150500D01*
X127521962Y-98150499D01*
X127660053Y-98109953D01*
X127781128Y-98032143D01*
X127875377Y-97923373D01*
X127935165Y-97792457D01*
X127955647Y-97650000D01*
X127935165Y-97507543D01*
X127875377Y-97376627D01*
X127781128Y-97267857D01*
X127660053Y-97190047D01*
X127660051Y-97190046D01*
X127660049Y-97190045D01*
X127660050Y-97190045D01*
X127521963Y-97149500D01*
X127521961Y-97149500D01*
X127378039Y-97149500D01*
X127378036Y-97149500D01*
X127239949Y-97190045D01*
X127118873Y-97267856D01*
X127024623Y-97376626D01*
X127024622Y-97376628D01*
X126964834Y-97507543D01*
X126944353Y-97650000D01*
X126280054Y-97650000D01*
X126150763Y-97381525D01*
X125987597Y-97121849D01*
X125796384Y-96882074D01*
X125579526Y-96665216D01*
X125339751Y-96474003D01*
X125221830Y-96399908D01*
X125080072Y-96310835D01*
X124849921Y-96200000D01*
X126994353Y-96200000D01*
X127014834Y-96342456D01*
X127041073Y-96399910D01*
X127074623Y-96473373D01*
X127168872Y-96582143D01*
X127289947Y-96659953D01*
X127289950Y-96659954D01*
X127289949Y-96659954D01*
X127428036Y-96700499D01*
X127428038Y-96700500D01*
X127428039Y-96700500D01*
X127571962Y-96700500D01*
X127571962Y-96700499D01*
X127692129Y-96665216D01*
X127710050Y-96659954D01*
X127710050Y-96659953D01*
X127710053Y-96659953D01*
X127831128Y-96582143D01*
X127906287Y-96495403D01*
X127965064Y-96457629D01*
X128034934Y-96457629D01*
X128093712Y-96495403D01*
X128093713Y-96495404D01*
X128162597Y-96574902D01*
X128168872Y-96582143D01*
X128289947Y-96659953D01*
X128289950Y-96659954D01*
X128289949Y-96659954D01*
X128428036Y-96700499D01*
X128428038Y-96700500D01*
X128428039Y-96700500D01*
X128571962Y-96700500D01*
X128571962Y-96700499D01*
X128692129Y-96665216D01*
X128710050Y-96659954D01*
X128710050Y-96659953D01*
X128710053Y-96659953D01*
X128831128Y-96582143D01*
X128925377Y-96473373D01*
X128985165Y-96342457D01*
X129005647Y-96200000D01*
X128997659Y-96144442D01*
X129007603Y-96075285D01*
X129053358Y-96022481D01*
X129120397Y-96002796D01*
X129187436Y-96022481D01*
X129208078Y-96039115D01*
X129449525Y-96280562D01*
X129519438Y-96350475D01*
X129605062Y-96399910D01*
X129652142Y-96412525D01*
X129700564Y-96425500D01*
X129700565Y-96425500D01*
X133243101Y-96425500D01*
X133310140Y-96445185D01*
X133330782Y-96461819D01*
X134819432Y-97950470D01*
X134852917Y-98011793D01*
X134854489Y-98020503D01*
X134864834Y-98092453D01*
X134864835Y-98092458D01*
X134892596Y-98153245D01*
X134924623Y-98223373D01*
X135018872Y-98332143D01*
X135139947Y-98409953D01*
X135139950Y-98409954D01*
X135139949Y-98409954D01*
X135278036Y-98450499D01*
X135278038Y-98450500D01*
X135278039Y-98450500D01*
X135421962Y-98450500D01*
X135421962Y-98450499D01*
X135560053Y-98409953D01*
X135681128Y-98332143D01*
X135775377Y-98223373D01*
X135835165Y-98092457D01*
X135855647Y-97950000D01*
X135835165Y-97807543D01*
X135775377Y-97676627D01*
X135681128Y-97567857D01*
X135560053Y-97490047D01*
X135560051Y-97490046D01*
X135560049Y-97490045D01*
X135560050Y-97490045D01*
X135421958Y-97449498D01*
X135414429Y-97448416D01*
X135350874Y-97419390D01*
X135344398Y-97413360D01*
X133680563Y-95749526D01*
X133680562Y-95749525D01*
X133594938Y-95700090D01*
X133547186Y-95687295D01*
X133547184Y-95687294D01*
X133547182Y-95687293D01*
X133499436Y-95674500D01*
X133499435Y-95674500D01*
X129956899Y-95674500D01*
X129889860Y-95654815D01*
X129869218Y-95638181D01*
X129111819Y-94880782D01*
X129078334Y-94819459D01*
X129075500Y-94793101D01*
X129075500Y-94377183D01*
X129095185Y-94310144D01*
X129105783Y-94295985D01*
X129125377Y-94273373D01*
X129185165Y-94142457D01*
X129205647Y-94000000D01*
X129185165Y-93857543D01*
X129125377Y-93726627D01*
X129031128Y-93617857D01*
X128910053Y-93540047D01*
X128910051Y-93540046D01*
X128910049Y-93540045D01*
X128910050Y-93540045D01*
X128771963Y-93499500D01*
X128771961Y-93499500D01*
X128628039Y-93499500D01*
X128628036Y-93499500D01*
X128489949Y-93540045D01*
X128368873Y-93617856D01*
X128274623Y-93726626D01*
X128274622Y-93726628D01*
X128214834Y-93857543D01*
X128194353Y-94000000D01*
X128214834Y-94142456D01*
X128258026Y-94237032D01*
X128274623Y-94273373D01*
X128294212Y-94295980D01*
X128323238Y-94359534D01*
X128324500Y-94377183D01*
X128324500Y-94950564D01*
X128324500Y-95049436D01*
X128331474Y-95075464D01*
X128331475Y-95075467D01*
X128331474Y-95075467D01*
X128350088Y-95144934D01*
X128350089Y-95144937D01*
X128366231Y-95172895D01*
X128399525Y-95230562D01*
X128399526Y-95230563D01*
X128399527Y-95230564D01*
X128656782Y-95487819D01*
X128690267Y-95549142D01*
X128685283Y-95618834D01*
X128643411Y-95674767D01*
X128577947Y-95699184D01*
X128569101Y-95699500D01*
X128428036Y-95699500D01*
X128289949Y-95740045D01*
X128168873Y-95817856D01*
X128168872Y-95817856D01*
X128168872Y-95817857D01*
X128131056Y-95861500D01*
X128093713Y-95904596D01*
X128034935Y-95942370D01*
X127965065Y-95942370D01*
X127906287Y-95904596D01*
X127896441Y-95893233D01*
X127831128Y-95817857D01*
X127757254Y-95770381D01*
X127711500Y-95717578D01*
X127701556Y-95648419D01*
X127730581Y-95584863D01*
X127757255Y-95561750D01*
X127760049Y-95559953D01*
X127760053Y-95559953D01*
X127881128Y-95482143D01*
X127975377Y-95373373D01*
X128035165Y-95242457D01*
X128055647Y-95100000D01*
X128035165Y-94957543D01*
X127975377Y-94826627D01*
X127881128Y-94717857D01*
X127760053Y-94640047D01*
X127760051Y-94640046D01*
X127760049Y-94640045D01*
X127760050Y-94640045D01*
X127621963Y-94599500D01*
X127621961Y-94599500D01*
X127478039Y-94599500D01*
X127478036Y-94599500D01*
X127339949Y-94640045D01*
X127218873Y-94717856D01*
X127124623Y-94826626D01*
X127124622Y-94826628D01*
X127064834Y-94957543D01*
X127044353Y-95100000D01*
X127064834Y-95242456D01*
X127124622Y-95373371D01*
X127124623Y-95373373D01*
X127218872Y-95482143D01*
X127292745Y-95529618D01*
X127338499Y-95582421D01*
X127348443Y-95651579D01*
X127319418Y-95715135D01*
X127292745Y-95738248D01*
X127168874Y-95817855D01*
X127074623Y-95926626D01*
X127074622Y-95926628D01*
X127014834Y-96057543D01*
X126994353Y-96200000D01*
X124849921Y-96200000D01*
X124803766Y-96177773D01*
X124514301Y-96076484D01*
X124514289Y-96076480D01*
X124215299Y-96008238D01*
X124215283Y-96008236D01*
X123910546Y-95973900D01*
X123910542Y-95973900D01*
X123796762Y-95973900D01*
X109967720Y-95973900D01*
X109900681Y-95954215D01*
X109854926Y-95901411D01*
X109844982Y-95832253D01*
X109866879Y-95781962D01*
X109864985Y-95780721D01*
X109868325Y-95775622D01*
X109868327Y-95775620D01*
X109905490Y-95704575D01*
X109920101Y-95654815D01*
X109925173Y-95637543D01*
X109925173Y-95637542D01*
X109925175Y-95637536D01*
X109933500Y-95579638D01*
X109933500Y-94350001D01*
X110944318Y-94350001D01*
X110964955Y-94506760D01*
X110964956Y-94506762D01*
X111020164Y-94640047D01*
X111025464Y-94652841D01*
X111121718Y-94778282D01*
X111247159Y-94874536D01*
X111393238Y-94935044D01*
X111471619Y-94945363D01*
X111549999Y-94955682D01*
X111550000Y-94955682D01*
X111550001Y-94955682D01*
X111602254Y-94948802D01*
X111706762Y-94935044D01*
X111852841Y-94874536D01*
X111978282Y-94778282D01*
X112074536Y-94652841D01*
X112135044Y-94506762D01*
X112155682Y-94350000D01*
X112153823Y-94335882D01*
X112135044Y-94193239D01*
X112135044Y-94193238D01*
X112074536Y-94047159D01*
X112074535Y-94047158D01*
X112074535Y-94047157D01*
X112030124Y-93989279D01*
X112004930Y-93924109D01*
X112004500Y-93913793D01*
X112004500Y-93794621D01*
X112024185Y-93727582D01*
X112040814Y-93706945D01*
X114695860Y-91051898D01*
X114695865Y-91051895D01*
X114706068Y-91041691D01*
X114706070Y-91041691D01*
X114790691Y-90957070D01*
X114850527Y-90853431D01*
X114881500Y-90737836D01*
X114881500Y-89262622D01*
X114901185Y-89195583D01*
X114917819Y-89174941D01*
X117727441Y-86365319D01*
X117788764Y-86331834D01*
X117815122Y-86329000D01*
X119472600Y-86329000D01*
X119539639Y-86348685D01*
X119585394Y-86401489D01*
X119596600Y-86453000D01*
X119596600Y-86994252D01*
X119608231Y-87052729D01*
X119608232Y-87052730D01*
X119652547Y-87119052D01*
X119718869Y-87163367D01*
X119718870Y-87163368D01*
X119777347Y-87174999D01*
X119777350Y-87175000D01*
X119777352Y-87175000D01*
X122016850Y-87175000D01*
X122016851Y-87174999D01*
X122031668Y-87172052D01*
X122075329Y-87163368D01*
X122075329Y-87163367D01*
X122075331Y-87163367D01*
X122141652Y-87119052D01*
X122185967Y-87052731D01*
X122185967Y-87052729D01*
X122185968Y-87052729D01*
X122197599Y-86994252D01*
X122197600Y-86994250D01*
X122197600Y-86100000D01*
X124794353Y-86100000D01*
X124814834Y-86242456D01*
X124863348Y-86348685D01*
X124874623Y-86373373D01*
X124968872Y-86482143D01*
X125089947Y-86559953D01*
X125089950Y-86559954D01*
X125089949Y-86559954D01*
X125138417Y-86574185D01*
X125214402Y-86596496D01*
X125228036Y-86600499D01*
X125228038Y-86600500D01*
X125228039Y-86600500D01*
X125371962Y-86600500D01*
X125371962Y-86600499D01*
X125421713Y-86585891D01*
X125511520Y-86559523D01*
X125546454Y-86554500D01*
X125720500Y-86554500D01*
X125787539Y-86574185D01*
X125833294Y-86626989D01*
X125844500Y-86678500D01*
X125844500Y-87698638D01*
X125845678Y-87720618D01*
X125848511Y-87746965D01*
X125848512Y-87746967D01*
X125872470Y-87823478D01*
X125872471Y-87823483D01*
X125886228Y-87848676D01*
X125905956Y-87884805D01*
X125905958Y-87884808D01*
X125905960Y-87884811D01*
X125940998Y-87931615D01*
X125941002Y-87931619D01*
X125941009Y-87931629D01*
X125941016Y-87931636D01*
X126468365Y-88458986D01*
X126468366Y-88458987D01*
X126484716Y-88473674D01*
X126484730Y-88473686D01*
X126484738Y-88473693D01*
X126493136Y-88480460D01*
X126505379Y-88490327D01*
X126576424Y-88527490D01*
X126643456Y-88547173D01*
X126643458Y-88547173D01*
X126643464Y-88547175D01*
X126701362Y-88555500D01*
X126701366Y-88555500D01*
X128598639Y-88555500D01*
X128601180Y-88555363D01*
X128620607Y-88554322D01*
X128620614Y-88554321D01*
X128620618Y-88554321D01*
X128646965Y-88551488D01*
X128723482Y-88527529D01*
X128784805Y-88494044D01*
X128831629Y-88458991D01*
X129690619Y-87600000D01*
X140494353Y-87600000D01*
X140514834Y-87742456D01*
X140563344Y-87848676D01*
X140574623Y-87873373D01*
X140668872Y-87982143D01*
X140789947Y-88059953D01*
X140789950Y-88059954D01*
X140789949Y-88059954D01*
X140928036Y-88100499D01*
X140928038Y-88100500D01*
X140928039Y-88100500D01*
X141071962Y-88100500D01*
X141071962Y-88100499D01*
X141210053Y-88059953D01*
X141331128Y-87982143D01*
X141425377Y-87873373D01*
X141485165Y-87742457D01*
X141505647Y-87600000D01*
X141485165Y-87457543D01*
X141425377Y-87326627D01*
X141331128Y-87217857D01*
X141210053Y-87140047D01*
X141210051Y-87140046D01*
X141210049Y-87140045D01*
X141210050Y-87140045D01*
X141068479Y-87098477D01*
X141009700Y-87060703D01*
X140999999Y-87039463D01*
X140990300Y-87060703D01*
X140931522Y-87098477D01*
X140931521Y-87098477D01*
X140789949Y-87140045D01*
X140668873Y-87217856D01*
X140574623Y-87326626D01*
X140574622Y-87326628D01*
X140514834Y-87457543D01*
X140494353Y-87600000D01*
X129690619Y-87600000D01*
X130448800Y-86841818D01*
X130510123Y-86808334D01*
X130536481Y-86805500D01*
X135198637Y-86805500D01*
X135198638Y-86805500D01*
X135220606Y-86804322D01*
X135246965Y-86801488D01*
X135323484Y-86777528D01*
X135384804Y-86744044D01*
X135431627Y-86708992D01*
X135612318Y-86528299D01*
X135673641Y-86494815D01*
X135743332Y-86499799D01*
X135787680Y-86528300D01*
X136018365Y-86758986D01*
X136018366Y-86758987D01*
X136034716Y-86773674D01*
X136034730Y-86773686D01*
X136034738Y-86773693D01*
X136043136Y-86780460D01*
X136055379Y-86790327D01*
X136126424Y-86827490D01*
X136193456Y-86847173D01*
X136193458Y-86847173D01*
X136193464Y-86847175D01*
X136251362Y-86855500D01*
X136251366Y-86855500D01*
X140896587Y-86855500D01*
X140963626Y-86875185D01*
X140999999Y-86917162D01*
X141036373Y-86875185D01*
X141103413Y-86855500D01*
X145898639Y-86855500D01*
X145901180Y-86855363D01*
X145920607Y-86854322D01*
X145920614Y-86854321D01*
X145920618Y-86854321D01*
X145946965Y-86851488D01*
X146023482Y-86827529D01*
X146084805Y-86794044D01*
X146131629Y-86758991D01*
X146588220Y-86302400D01*
X147156400Y-86302400D01*
X147156400Y-86602385D01*
X147166893Y-86705089D01*
X147166894Y-86705096D01*
X147222041Y-86871518D01*
X147222043Y-86871523D01*
X147314084Y-87020744D01*
X147438055Y-87144715D01*
X147587276Y-87236756D01*
X147587281Y-87236758D01*
X147753703Y-87291905D01*
X147753710Y-87291906D01*
X147856414Y-87302399D01*
X147856427Y-87302400D01*
X149106400Y-87302400D01*
X149106400Y-86302400D01*
X147156400Y-86302400D01*
X146588220Y-86302400D01*
X147051901Y-85838719D01*
X147113224Y-85805234D01*
X147139582Y-85802400D01*
X149106400Y-85802400D01*
X149106400Y-84802400D01*
X147856414Y-84802400D01*
X147753710Y-84812893D01*
X147753703Y-84812894D01*
X147587281Y-84868041D01*
X147587276Y-84868043D01*
X147544597Y-84894369D01*
X147477204Y-84912809D01*
X147410541Y-84891886D01*
X147365771Y-84838245D01*
X147355500Y-84788830D01*
X147355500Y-84151361D01*
X147354321Y-84129381D01*
X147351488Y-84103034D01*
X147351487Y-84103032D01*
X147327529Y-84026518D01*
X147294044Y-83965195D01*
X147294039Y-83965188D01*
X147259001Y-83918384D01*
X147258998Y-83918381D01*
X147258991Y-83918371D01*
X147057588Y-83716968D01*
X146816502Y-83475881D01*
X146816501Y-83475880D01*
X146800151Y-83461193D01*
X146800137Y-83461181D01*
X146779488Y-83444540D01*
X146708442Y-83407377D01*
X146641413Y-83387695D01*
X146641389Y-83387689D01*
X146616893Y-83382098D01*
X146542302Y-83386669D01*
X146474184Y-83371121D01*
X146425285Y-83321215D01*
X146411034Y-83254057D01*
X146414739Y-83202259D01*
X146414995Y-83177124D01*
X146403553Y-83136632D01*
X146390126Y-83089117D01*
X146390125Y-83089116D01*
X146390125Y-83089114D01*
X146356640Y-83027791D01*
X146351201Y-83020526D01*
X146321597Y-82980980D01*
X146321594Y-82980977D01*
X146321587Y-82980967D01*
X146222609Y-82881989D01*
X146031634Y-82691013D01*
X146031633Y-82691012D01*
X146015283Y-82676325D01*
X146015269Y-82676313D01*
X145994620Y-82659672D01*
X145964751Y-82644048D01*
X146456400Y-82152400D01*
X146456400Y-81000000D01*
X146006400Y-80550000D01*
X139300000Y-80550000D01*
X137850000Y-82000000D01*
X137850000Y-83650000D01*
X137582653Y-83917346D01*
X137629073Y-83822393D01*
X137639000Y-83754260D01*
X137639000Y-83387740D01*
X137638993Y-83387695D01*
X137629073Y-83319608D01*
X137629073Y-83319607D01*
X137577698Y-83214517D01*
X137577696Y-83214515D01*
X137577696Y-83214514D01*
X137494985Y-83131803D01*
X137389891Y-83080426D01*
X137321761Y-83070500D01*
X137321760Y-83070500D01*
X137034400Y-83070500D01*
X136967361Y-83050815D01*
X136921606Y-82998011D01*
X136910400Y-82946500D01*
X136910400Y-82471900D01*
X136930085Y-82404861D01*
X136982889Y-82359106D01*
X137034400Y-82347900D01*
X137089170Y-82347900D01*
X137119599Y-82345046D01*
X137119601Y-82345046D01*
X137183690Y-82322619D01*
X137247782Y-82300193D01*
X137357050Y-82219550D01*
X137437693Y-82110282D01*
X137460119Y-82046190D01*
X137482546Y-81982101D01*
X137482546Y-81982099D01*
X137485400Y-81951669D01*
X137485400Y-81318130D01*
X137482546Y-81287700D01*
X137482546Y-81287698D01*
X137447750Y-81188260D01*
X137437693Y-81159518D01*
X137357050Y-81050250D01*
X137247782Y-80969607D01*
X137247780Y-80969606D01*
X137119600Y-80924753D01*
X137089170Y-80921900D01*
X137089166Y-80921900D01*
X136080634Y-80921900D01*
X136080630Y-80921900D01*
X136050200Y-80924753D01*
X136050198Y-80924753D01*
X135922019Y-80969606D01*
X135922017Y-80969607D01*
X135812750Y-81050250D01*
X135732107Y-81159517D01*
X135732106Y-81159519D01*
X135687253Y-81287698D01*
X135687253Y-81287700D01*
X135684400Y-81318130D01*
X135684400Y-81951669D01*
X135687253Y-81982099D01*
X135687253Y-81982101D01*
X135732106Y-82110280D01*
X135732107Y-82110282D01*
X135812750Y-82219550D01*
X135922018Y-82300193D01*
X135964745Y-82315144D01*
X136050199Y-82345046D01*
X136080630Y-82347900D01*
X136080634Y-82347900D01*
X136135400Y-82347900D01*
X136202439Y-82367585D01*
X136248194Y-82420389D01*
X136259400Y-82471900D01*
X136259400Y-82959009D01*
X136239715Y-83026048D01*
X136186911Y-83071803D01*
X136170971Y-83076499D01*
X136171307Y-83077584D01*
X136162109Y-83080425D01*
X136057014Y-83131803D01*
X135974303Y-83214514D01*
X135922926Y-83319608D01*
X135913000Y-83387739D01*
X135913000Y-83754260D01*
X135922926Y-83822391D01*
X135974303Y-83927485D01*
X136057014Y-84010196D01*
X136057015Y-84010196D01*
X136057017Y-84010198D01*
X136162107Y-84061573D01*
X136196173Y-84066536D01*
X136230239Y-84071500D01*
X136230240Y-84071500D01*
X137321761Y-84071500D01*
X137344471Y-84068191D01*
X137389893Y-84061573D01*
X137484846Y-84015153D01*
X137400000Y-84100000D01*
X133800000Y-84100000D01*
X133500000Y-83800000D01*
X133500000Y-82242669D01*
X133634800Y-82242669D01*
X133637653Y-82273099D01*
X133637653Y-82273101D01*
X133682506Y-82401280D01*
X133682507Y-82401282D01*
X133763150Y-82510550D01*
X133872418Y-82591193D01*
X133939258Y-82614581D01*
X133996031Y-82655301D01*
X134021778Y-82720254D01*
X134022300Y-82731621D01*
X134022300Y-82953487D01*
X134002615Y-83020526D01*
X133949811Y-83066281D01*
X133916178Y-83076191D01*
X133887108Y-83080426D01*
X133782014Y-83131803D01*
X133699303Y-83214514D01*
X133647926Y-83319608D01*
X133638000Y-83387739D01*
X133638000Y-83754260D01*
X133647926Y-83822391D01*
X133699303Y-83927485D01*
X133782014Y-84010196D01*
X133782015Y-84010196D01*
X133782017Y-84010198D01*
X133887107Y-84061573D01*
X133921173Y-84066536D01*
X133955239Y-84071500D01*
X133955240Y-84071500D01*
X135046761Y-84071500D01*
X135069471Y-84068191D01*
X135114893Y-84061573D01*
X135219983Y-84010198D01*
X135302698Y-83927483D01*
X135354073Y-83822393D01*
X135364000Y-83754260D01*
X135364000Y-83387740D01*
X135363993Y-83387695D01*
X135354073Y-83319608D01*
X135354073Y-83319607D01*
X135302698Y-83214517D01*
X135302696Y-83214515D01*
X135302696Y-83214514D01*
X135219985Y-83131803D01*
X135114891Y-83080426D01*
X135046761Y-83070500D01*
X135046760Y-83070500D01*
X134797300Y-83070500D01*
X134730261Y-83050815D01*
X134684506Y-82998011D01*
X134673300Y-82946500D01*
X134673300Y-82731621D01*
X134692985Y-82664582D01*
X134745789Y-82618827D01*
X134756322Y-82614588D01*
X134823182Y-82591193D01*
X134932450Y-82510550D01*
X135013093Y-82401282D01*
X135035519Y-82337190D01*
X135057946Y-82273101D01*
X135057946Y-82273099D01*
X135060800Y-82242669D01*
X135060800Y-81234130D01*
X135057946Y-81203700D01*
X135057946Y-81203698D01*
X135013093Y-81075519D01*
X135013092Y-81075517D01*
X134994444Y-81050250D01*
X134932450Y-80966250D01*
X134823182Y-80885607D01*
X134823180Y-80885606D01*
X134695000Y-80840753D01*
X134664570Y-80837900D01*
X134664566Y-80837900D01*
X134031034Y-80837900D01*
X134031030Y-80837900D01*
X134000600Y-80840753D01*
X134000598Y-80840753D01*
X133872419Y-80885606D01*
X133872417Y-80885607D01*
X133763150Y-80966250D01*
X133682507Y-81075517D01*
X133682506Y-81075519D01*
X133637653Y-81203698D01*
X133637653Y-81203700D01*
X133634800Y-81234130D01*
X133634800Y-82242669D01*
X133500000Y-82242669D01*
X133500000Y-81100000D01*
X133000000Y-80600000D01*
X126342760Y-80600000D01*
X126847141Y-80095619D01*
X126908464Y-80062134D01*
X126934822Y-80059300D01*
X131745592Y-80059300D01*
X131812631Y-80078985D01*
X131858386Y-80131789D01*
X131862633Y-80142345D01*
X131907644Y-80270978D01*
X131907645Y-80270980D01*
X131987169Y-80378730D01*
X132094919Y-80458254D01*
X132094921Y-80458255D01*
X132221318Y-80502484D01*
X132221322Y-80502484D01*
X132221326Y-80502486D01*
X132236331Y-80503893D01*
X132251332Y-80505300D01*
X132251336Y-80505300D01*
X132845868Y-80505300D01*
X132859201Y-80504049D01*
X132875874Y-80502486D01*
X132875878Y-80502484D01*
X132875881Y-80502484D01*
X132953876Y-80475192D01*
X133002279Y-80458255D01*
X133110030Y-80378730D01*
X133189555Y-80270979D01*
X133229403Y-80157101D01*
X133233784Y-80144581D01*
X133233784Y-80144578D01*
X133233786Y-80144574D01*
X133236600Y-80114568D01*
X133735600Y-80114568D01*
X133738413Y-80144569D01*
X133738415Y-80144581D01*
X133782644Y-80270978D01*
X133782645Y-80270980D01*
X133862169Y-80378730D01*
X133969919Y-80458254D01*
X133969921Y-80458255D01*
X134096318Y-80502484D01*
X134096322Y-80502484D01*
X134096326Y-80502486D01*
X134111331Y-80503893D01*
X134126332Y-80505300D01*
X134126336Y-80505300D01*
X134720868Y-80505300D01*
X134734201Y-80504049D01*
X134750874Y-80502486D01*
X134750878Y-80502484D01*
X134750881Y-80502484D01*
X134828876Y-80475192D01*
X134877279Y-80458255D01*
X134985030Y-80378730D01*
X135064555Y-80270979D01*
X135104403Y-80157101D01*
X135108784Y-80144581D01*
X135108784Y-80144578D01*
X135108786Y-80144574D01*
X135111600Y-80114564D01*
X135111600Y-80054300D01*
X135131285Y-79987261D01*
X135184089Y-79941506D01*
X135235600Y-79930300D01*
X135560400Y-79930300D01*
X135627439Y-79949985D01*
X135673194Y-80002789D01*
X135684400Y-80054300D01*
X135684400Y-80126669D01*
X135687253Y-80157099D01*
X135687253Y-80157101D01*
X135729493Y-80277812D01*
X135732107Y-80285282D01*
X135812750Y-80394550D01*
X135922018Y-80475193D01*
X135964745Y-80490144D01*
X136050199Y-80520046D01*
X136080630Y-80522900D01*
X136080634Y-80522900D01*
X137089170Y-80522900D01*
X137119599Y-80520046D01*
X137119601Y-80520046D01*
X137183690Y-80497619D01*
X137247782Y-80475193D01*
X137357050Y-80394550D01*
X137437693Y-80285282D01*
X137477501Y-80171518D01*
X137482546Y-80157101D01*
X137482546Y-80157099D01*
X137485400Y-80126669D01*
X137485400Y-79602400D01*
X147156400Y-79602400D01*
X147156400Y-79902385D01*
X147166893Y-80005089D01*
X147166894Y-80005096D01*
X147222041Y-80171518D01*
X147222043Y-80171523D01*
X147314084Y-80320744D01*
X147438055Y-80444715D01*
X147587276Y-80536756D01*
X147587281Y-80536758D01*
X147753703Y-80591905D01*
X147753710Y-80591906D01*
X147856414Y-80602399D01*
X147856427Y-80602400D01*
X149106400Y-80602400D01*
X149106400Y-79602400D01*
X147156400Y-79602400D01*
X137485400Y-79602400D01*
X137485400Y-79493130D01*
X137482546Y-79462700D01*
X137482546Y-79462698D01*
X137437693Y-79334519D01*
X137437692Y-79334517D01*
X137357050Y-79225250D01*
X137247782Y-79144607D01*
X137247780Y-79144606D01*
X137119600Y-79099753D01*
X137089170Y-79096900D01*
X137089166Y-79096900D01*
X136080634Y-79096900D01*
X136080630Y-79096900D01*
X136050200Y-79099753D01*
X136050198Y-79099753D01*
X135922019Y-79144606D01*
X135922017Y-79144607D01*
X135812750Y-79225250D01*
X135812746Y-79225253D01*
X135810033Y-79228931D01*
X135754387Y-79271183D01*
X135710261Y-79279300D01*
X135235600Y-79279300D01*
X135168561Y-79259615D01*
X135122806Y-79206811D01*
X135111600Y-79155300D01*
X135111600Y-79095031D01*
X135108786Y-79065030D01*
X135108786Y-79065026D01*
X135108784Y-79065022D01*
X135108784Y-79065018D01*
X135064555Y-78938621D01*
X135064554Y-78938619D01*
X134985030Y-78830869D01*
X134877280Y-78751345D01*
X134877278Y-78751344D01*
X134750881Y-78707115D01*
X134750869Y-78707113D01*
X134720868Y-78704300D01*
X134720864Y-78704300D01*
X134126336Y-78704300D01*
X134126332Y-78704300D01*
X134096330Y-78707113D01*
X134096318Y-78707115D01*
X133969921Y-78751344D01*
X133969919Y-78751345D01*
X133862169Y-78830869D01*
X133782645Y-78938619D01*
X133782644Y-78938621D01*
X133738415Y-79065018D01*
X133738413Y-79065030D01*
X133735600Y-79095031D01*
X133735600Y-80114568D01*
X133236600Y-80114568D01*
X133236600Y-80114564D01*
X133236600Y-79095036D01*
X133233786Y-79065026D01*
X133233784Y-79065022D01*
X133233784Y-79065018D01*
X133189555Y-78938621D01*
X133189554Y-78938619D01*
X133110030Y-78830869D01*
X133002280Y-78751345D01*
X133002278Y-78751344D01*
X132875881Y-78707115D01*
X132875869Y-78707113D01*
X132845868Y-78704300D01*
X132845864Y-78704300D01*
X132251336Y-78704300D01*
X132251332Y-78704300D01*
X132221330Y-78707113D01*
X132221318Y-78707115D01*
X132094921Y-78751344D01*
X132094919Y-78751345D01*
X131987169Y-78830869D01*
X131907645Y-78938619D01*
X131907644Y-78938621D01*
X131862633Y-79067255D01*
X131821911Y-79124031D01*
X131756958Y-79149778D01*
X131745592Y-79150300D01*
X126762648Y-79150300D01*
X126762632Y-79150299D01*
X126755036Y-79150299D01*
X126635364Y-79150299D01*
X126544197Y-79174727D01*
X126534718Y-79177266D01*
X126519770Y-79181272D01*
X126519765Y-79181274D01*
X126416133Y-79241106D01*
X126416127Y-79241111D01*
X124936311Y-80720927D01*
X124936307Y-80720933D01*
X124876472Y-80824568D01*
X124876473Y-80824568D01*
X124876473Y-80824569D01*
X124876473Y-80824570D01*
X124849629Y-80924753D01*
X124845499Y-80940165D01*
X124845499Y-81069825D01*
X124845500Y-81069838D01*
X124845500Y-85863422D01*
X124834294Y-85914932D01*
X124814835Y-85957543D01*
X124814834Y-85957543D01*
X124794353Y-86100000D01*
X122197600Y-86100000D01*
X122197600Y-84754749D01*
X122197599Y-84754747D01*
X122185968Y-84696270D01*
X122185967Y-84696269D01*
X122141652Y-84629947D01*
X122075330Y-84585632D01*
X122075329Y-84585631D01*
X122016852Y-84574000D01*
X122016848Y-84574000D01*
X119777352Y-84574000D01*
X119777347Y-84574000D01*
X119718870Y-84585631D01*
X119718869Y-84585632D01*
X119652547Y-84629947D01*
X119608232Y-84696269D01*
X119608231Y-84696270D01*
X119596600Y-84754747D01*
X119596600Y-85296000D01*
X119576915Y-85363039D01*
X119524111Y-85408794D01*
X119472600Y-85420000D01*
X117515664Y-85420000D01*
X117400069Y-85450973D01*
X117400066Y-85450974D01*
X117296433Y-85510807D01*
X117296427Y-85510811D01*
X114063311Y-88743927D01*
X114063307Y-88743933D01*
X114003472Y-88847568D01*
X114003473Y-88847568D01*
X114003473Y-88847569D01*
X114003473Y-88847570D01*
X113987393Y-88907582D01*
X113972499Y-88963165D01*
X113972499Y-89092825D01*
X113972500Y-89092838D01*
X113972500Y-90438377D01*
X113952815Y-90505416D01*
X113936181Y-90526058D01*
X111186311Y-93275927D01*
X111186307Y-93275933D01*
X111126473Y-93379567D01*
X111124446Y-93387134D01*
X111124445Y-93387133D01*
X111095499Y-93495163D01*
X111095499Y-93624825D01*
X111095500Y-93624838D01*
X111095500Y-93913793D01*
X111075815Y-93980832D01*
X111069876Y-93989279D01*
X111025464Y-94047157D01*
X110964956Y-94193237D01*
X110964955Y-94193239D01*
X110944318Y-94349998D01*
X110944318Y-94350001D01*
X109933500Y-94350001D01*
X109933500Y-94285362D01*
X109932322Y-94263393D01*
X109931359Y-94254440D01*
X109929488Y-94237034D01*
X109929487Y-94237032D01*
X109929392Y-94236730D01*
X109905529Y-94160518D01*
X109872044Y-94099195D01*
X109836991Y-94052371D01*
X109757826Y-93973206D01*
X109655634Y-93871013D01*
X109655633Y-93871012D01*
X109639283Y-93856325D01*
X109639269Y-93856313D01*
X109618620Y-93839672D01*
X109547575Y-93802509D01*
X109480543Y-93782826D01*
X109479894Y-93782732D01*
X109422638Y-93774500D01*
X109422634Y-93774500D01*
X108993100Y-93774500D01*
X108926061Y-93754815D01*
X108880306Y-93702011D01*
X108869100Y-93650500D01*
X108869100Y-93625743D01*
X108888785Y-93558704D01*
X108905415Y-93538065D01*
X108932798Y-93510683D01*
X108984173Y-93405593D01*
X108994100Y-93337460D01*
X108994100Y-92245940D01*
X108993761Y-92243616D01*
X108984173Y-92177808D01*
X108984173Y-92177807D01*
X108932798Y-92072717D01*
X108932796Y-92072715D01*
X108932796Y-92072714D01*
X108850085Y-91990003D01*
X108744991Y-91938626D01*
X108676861Y-91928700D01*
X108676860Y-91928700D01*
X108310340Y-91928700D01*
X108310339Y-91928700D01*
X108242207Y-91938626D01*
X108242206Y-91938626D01*
X108148359Y-91984505D01*
X108079486Y-91996263D01*
X108015189Y-91968920D01*
X107975883Y-91911155D01*
X107969900Y-91873104D01*
X107969900Y-91692881D01*
X107989585Y-91625842D01*
X108042389Y-91580087D01*
X108111547Y-91570143D01*
X108132033Y-91575151D01*
X108134300Y-91575646D01*
X108164730Y-91578500D01*
X108164734Y-91578500D01*
X108798270Y-91578500D01*
X108828699Y-91575646D01*
X108828701Y-91575646D01*
X108892790Y-91553219D01*
X108956882Y-91530793D01*
X109066150Y-91450150D01*
X109146793Y-91340882D01*
X109176336Y-91256453D01*
X109191646Y-91212701D01*
X109191646Y-91212699D01*
X109194500Y-91182269D01*
X109194500Y-90173730D01*
X109191646Y-90143300D01*
X109191646Y-90143298D01*
X109155642Y-90040406D01*
X109146793Y-90015118D01*
X109066150Y-89905850D01*
X108956882Y-89825207D01*
X108956880Y-89825206D01*
X108828700Y-89780353D01*
X108798270Y-89777500D01*
X108798266Y-89777500D01*
X108164734Y-89777500D01*
X108164730Y-89777500D01*
X108134300Y-89780353D01*
X108134298Y-89780353D01*
X108006119Y-89825206D01*
X108006117Y-89825207D01*
X107896850Y-89905850D01*
X107816207Y-90015117D01*
X107816206Y-90015119D01*
X107771353Y-90143298D01*
X107771353Y-90143300D01*
X107768500Y-90173730D01*
X107768500Y-90201902D01*
X107748815Y-90268941D01*
X107696011Y-90314696D01*
X107676597Y-90321676D01*
X107652661Y-90328090D01*
X107617070Y-90348639D01*
X107569701Y-90375988D01*
X107567035Y-90377527D01*
X107293926Y-90650636D01*
X107244491Y-90736259D01*
X107244491Y-90736260D01*
X107244490Y-90736262D01*
X107218900Y-90831765D01*
X107218900Y-90831767D01*
X107218900Y-91959456D01*
X107199215Y-92026495D01*
X107146411Y-92072250D01*
X107077253Y-92082194D01*
X107013697Y-92053169D01*
X107007219Y-92047137D01*
X106950085Y-91990003D01*
X106844991Y-91938626D01*
X106776861Y-91928700D01*
X106776860Y-91928700D01*
X106410340Y-91928700D01*
X106410339Y-91928700D01*
X106342208Y-91938626D01*
X106237115Y-91990002D01*
X106215355Y-92011763D01*
X106154031Y-92045247D01*
X106084339Y-92040261D01*
X106073599Y-92035200D01*
X105922362Y-91972556D01*
X105922360Y-91972555D01*
X105765601Y-91951918D01*
X105765599Y-91951918D01*
X105608839Y-91972555D01*
X105608837Y-91972556D01*
X105462760Y-92033063D01*
X105420945Y-92065148D01*
X105337318Y-92129318D01*
X105337317Y-92129319D01*
X105337316Y-92129320D01*
X105248192Y-92245468D01*
X105191764Y-92286670D01*
X105122018Y-92290825D01*
X105061098Y-92256612D01*
X105050048Y-92243616D01*
X105039150Y-92228850D01*
X104929882Y-92148207D01*
X104929880Y-92148206D01*
X104801700Y-92103353D01*
X104771270Y-92100500D01*
X104771266Y-92100500D01*
X103762734Y-92100500D01*
X103762730Y-92100500D01*
X103732300Y-92103353D01*
X103732298Y-92103353D01*
X103604119Y-92148206D01*
X103604117Y-92148207D01*
X103494850Y-92228850D01*
X103414207Y-92338117D01*
X103414206Y-92338119D01*
X103369353Y-92466298D01*
X103369353Y-92466300D01*
X103366500Y-92496730D01*
X103366500Y-93130269D01*
X103369353Y-93160699D01*
X103369353Y-93160701D01*
X103409676Y-93275933D01*
X103414207Y-93288882D01*
X103494850Y-93398150D01*
X103604118Y-93478793D01*
X103636803Y-93490230D01*
X103732299Y-93523646D01*
X103762730Y-93526500D01*
X103762734Y-93526500D01*
X104771270Y-93526500D01*
X104801693Y-93523647D01*
X104801695Y-93523646D01*
X104801699Y-93523646D01*
X104823649Y-93515964D01*
X104893427Y-93512401D01*
X104952287Y-93545324D01*
X105430164Y-94023201D01*
X105463649Y-94084524D01*
X105458665Y-94154216D01*
X105423713Y-94204571D01*
X105422123Y-94205949D01*
X105422110Y-94205961D01*
X105404160Y-94223548D01*
X105404156Y-94223553D01*
X105396615Y-94237035D01*
X105381872Y-94263393D01*
X105376593Y-94272830D01*
X105326686Y-94321728D01*
X105258265Y-94335882D01*
X105193053Y-94310798D01*
X105151755Y-94254440D01*
X105151332Y-94253250D01*
X105125684Y-94179953D01*
X105119793Y-94163118D01*
X105039150Y-94053850D01*
X104929882Y-93973207D01*
X104929880Y-93973206D01*
X104801700Y-93928353D01*
X104771270Y-93925500D01*
X104771266Y-93925500D01*
X103762734Y-93925500D01*
X103762730Y-93925500D01*
X103732300Y-93928353D01*
X103732298Y-93928353D01*
X103604119Y-93973206D01*
X103604117Y-93973207D01*
X103494850Y-94053850D01*
X103414206Y-94163118D01*
X103414205Y-94163120D01*
X103408316Y-94179953D01*
X103367595Y-94236730D01*
X103302642Y-94262478D01*
X103291274Y-94263000D01*
X102968500Y-94263000D01*
X102901461Y-94243315D01*
X102855706Y-94190511D01*
X102844500Y-94139000D01*
X102844500Y-93763730D01*
X102841646Y-93733300D01*
X102841646Y-93733298D01*
X102803689Y-93624825D01*
X102796793Y-93605118D01*
X102716150Y-93495850D01*
X102606882Y-93415207D01*
X102576665Y-93404633D01*
X102564418Y-93400348D01*
X102507643Y-93359625D01*
X102485600Y-93315401D01*
X102481409Y-93299760D01*
X102481408Y-93299759D01*
X102467652Y-93275933D01*
X102431975Y-93214138D01*
X102362062Y-93144225D01*
X101684605Y-92466768D01*
X101651120Y-92405445D01*
X101656104Y-92335753D01*
X101660876Y-92324647D01*
X101684173Y-92276993D01*
X101694100Y-92208860D01*
X101694100Y-91117340D01*
X101690390Y-91091877D01*
X101700202Y-91022702D01*
X101745857Y-90969812D01*
X101812859Y-90950000D01*
X103291274Y-90950000D01*
X103358313Y-90969685D01*
X103404068Y-91022489D01*
X103408316Y-91033047D01*
X103414205Y-91049879D01*
X103414206Y-91049881D01*
X103435332Y-91078506D01*
X103494850Y-91159150D01*
X103604118Y-91239793D01*
X103646845Y-91254744D01*
X103732299Y-91284646D01*
X103762730Y-91287500D01*
X103762734Y-91287500D01*
X104771270Y-91287500D01*
X104801699Y-91284646D01*
X104801701Y-91284646D01*
X104882270Y-91256453D01*
X104929882Y-91239793D01*
X105039150Y-91159150D01*
X105119793Y-91049882D01*
X105147855Y-90969685D01*
X105164646Y-90921701D01*
X105164646Y-90921699D01*
X105167500Y-90891269D01*
X105167500Y-90257730D01*
X105164646Y-90227300D01*
X105164646Y-90227298D01*
X105122580Y-90107083D01*
X105119793Y-90099118D01*
X105039150Y-89989850D01*
X104929882Y-89909207D01*
X104929880Y-89909206D01*
X104801700Y-89864353D01*
X104771270Y-89861500D01*
X104771266Y-89861500D01*
X103762734Y-89861500D01*
X103762730Y-89861500D01*
X103732300Y-89864353D01*
X103732298Y-89864353D01*
X103604119Y-89909206D01*
X103604117Y-89909207D01*
X103494850Y-89989850D01*
X103414206Y-90099118D01*
X103414205Y-90099120D01*
X103408316Y-90115953D01*
X103367595Y-90172730D01*
X103302642Y-90198478D01*
X103291274Y-90199000D01*
X103048936Y-90199000D01*
X102981897Y-90179315D01*
X102936142Y-90126511D01*
X102926198Y-90057353D01*
X102929859Y-90040406D01*
X102940700Y-90003089D01*
X102943599Y-89966249D01*
X102943600Y-89966234D01*
X102943600Y-89638100D01*
X101343600Y-89638100D01*
X101343600Y-89966249D01*
X101346499Y-90003089D01*
X101357341Y-90040406D01*
X101357141Y-90110275D01*
X101319198Y-90168945D01*
X101255560Y-90197788D01*
X101238264Y-90199000D01*
X100836507Y-90199000D01*
X100769468Y-90179315D01*
X100723713Y-90126511D01*
X100713769Y-90057353D01*
X100725106Y-90020541D01*
X100734173Y-90001993D01*
X100734173Y-90001992D01*
X100744100Y-89933860D01*
X100744100Y-89138100D01*
X101343600Y-89138100D01*
X101893600Y-89138100D01*
X101893600Y-88228303D01*
X102393600Y-88228303D01*
X102393600Y-89138100D01*
X102943600Y-89138100D01*
X102943600Y-89066269D01*
X103366500Y-89066269D01*
X103369353Y-89096699D01*
X103369353Y-89096701D01*
X103406900Y-89204000D01*
X103414207Y-89224882D01*
X103494850Y-89334150D01*
X103604118Y-89414793D01*
X103643676Y-89428635D01*
X103732299Y-89459646D01*
X103762730Y-89462500D01*
X103762734Y-89462500D01*
X104771270Y-89462500D01*
X104801699Y-89459646D01*
X104801701Y-89459646D01*
X104865790Y-89437219D01*
X104929882Y-89414793D01*
X105039150Y-89334150D01*
X105098033Y-89254366D01*
X105153681Y-89212116D01*
X105197803Y-89204000D01*
X108287052Y-89204000D01*
X108287068Y-89204001D01*
X108294664Y-89204001D01*
X108414335Y-89204001D01*
X108414336Y-89204001D01*
X108505498Y-89179573D01*
X108505501Y-89179573D01*
X108519605Y-89175793D01*
X108529931Y-89173027D01*
X108633570Y-89113191D01*
X108718191Y-89028570D01*
X108718191Y-89028568D01*
X108728395Y-89018365D01*
X108728398Y-89018360D01*
X111381441Y-86365319D01*
X111442764Y-86331834D01*
X111469122Y-86329000D01*
X111975097Y-86329000D01*
X112042136Y-86348685D01*
X112087479Y-86400595D01*
X112146530Y-86527231D01*
X112146531Y-86527232D01*
X112146532Y-86527234D01*
X112165624Y-86554500D01*
X112277054Y-86713641D01*
X112437958Y-86874545D01*
X112437961Y-86874547D01*
X112624366Y-87005068D01*
X112830604Y-87101239D01*
X113050408Y-87160135D01*
X113212330Y-87174301D01*
X113277098Y-87179968D01*
X113277100Y-87179968D01*
X113277102Y-87179968D01*
X113333896Y-87174999D01*
X113503792Y-87160135D01*
X113723596Y-87101239D01*
X113929834Y-87005068D01*
X114116239Y-86874547D01*
X114277147Y-86713639D01*
X114407668Y-86527234D01*
X114503839Y-86320996D01*
X114562735Y-86101192D01*
X114582568Y-85874500D01*
X114562735Y-85647808D01*
X114509994Y-85450974D01*
X114503841Y-85428011D01*
X114503838Y-85428002D01*
X114467698Y-85350500D01*
X114407668Y-85221766D01*
X114295897Y-85062139D01*
X114277145Y-85035358D01*
X114116241Y-84874454D01*
X113929834Y-84743932D01*
X113929832Y-84743931D01*
X113723597Y-84647761D01*
X113723588Y-84647758D01*
X113503797Y-84588866D01*
X113503793Y-84588865D01*
X113503792Y-84588865D01*
X113503791Y-84588864D01*
X113503786Y-84588864D01*
X113277102Y-84569032D01*
X113277098Y-84569032D01*
X113050413Y-84588864D01*
X113050402Y-84588866D01*
X112830611Y-84647758D01*
X112830602Y-84647761D01*
X112624367Y-84743931D01*
X112624365Y-84743932D01*
X112437958Y-84874454D01*
X112277054Y-85035358D01*
X112146530Y-85221768D01*
X112111916Y-85296000D01*
X112089489Y-85344095D01*
X112087479Y-85348405D01*
X112041307Y-85400844D01*
X111975097Y-85420000D01*
X111296948Y-85420000D01*
X111296932Y-85419999D01*
X111289336Y-85419999D01*
X111169664Y-85419999D01*
X111078746Y-85444361D01*
X111078745Y-85444360D01*
X111054069Y-85450973D01*
X111054066Y-85450974D01*
X110950433Y-85510807D01*
X110950427Y-85510811D01*
X110866619Y-85594620D01*
X110865809Y-85595430D01*
X110865807Y-85595432D01*
X109521704Y-86939536D01*
X108202559Y-88258681D01*
X108141236Y-88292166D01*
X108114878Y-88295000D01*
X105197803Y-88295000D01*
X105130764Y-88275315D01*
X105098033Y-88244634D01*
X105094711Y-88240133D01*
X105039150Y-88164850D01*
X104929882Y-88084207D01*
X104929880Y-88084206D01*
X104801700Y-88039353D01*
X104771270Y-88036500D01*
X104771266Y-88036500D01*
X103762734Y-88036500D01*
X103762730Y-88036500D01*
X103732300Y-88039353D01*
X103732298Y-88039353D01*
X103604119Y-88084206D01*
X103604117Y-88084207D01*
X103494850Y-88164850D01*
X103414207Y-88274117D01*
X103414206Y-88274119D01*
X103369353Y-88402298D01*
X103369353Y-88402300D01*
X103366500Y-88432730D01*
X103366500Y-89066269D01*
X102943600Y-89066269D01*
X102943600Y-88809965D01*
X102943599Y-88809950D01*
X102940700Y-88773110D01*
X102940699Y-88773104D01*
X102894883Y-88615406D01*
X102894882Y-88615403D01*
X102811285Y-88474047D01*
X102811278Y-88474038D01*
X102695161Y-88357921D01*
X102695152Y-88357914D01*
X102553796Y-88274317D01*
X102553793Y-88274316D01*
X102396094Y-88228500D01*
X102396097Y-88228500D01*
X102393600Y-88228303D01*
X101893600Y-88228303D01*
X101891103Y-88228500D01*
X101733406Y-88274316D01*
X101733403Y-88274317D01*
X101592047Y-88357914D01*
X101592038Y-88357921D01*
X101475921Y-88474038D01*
X101475914Y-88474047D01*
X101392317Y-88615403D01*
X101392316Y-88615406D01*
X101346500Y-88773104D01*
X101346499Y-88773110D01*
X101343600Y-88809950D01*
X101343600Y-89138100D01*
X100744100Y-89138100D01*
X100744100Y-88842339D01*
X100734173Y-88774208D01*
X100734173Y-88774207D01*
X100682798Y-88669117D01*
X100682796Y-88669115D01*
X100682796Y-88669114D01*
X100600085Y-88586403D01*
X100494991Y-88535026D01*
X100426861Y-88525100D01*
X100426860Y-88525100D01*
X100060340Y-88525100D01*
X100060339Y-88525100D01*
X99992208Y-88535026D01*
X99887114Y-88586403D01*
X99804403Y-88669114D01*
X99753026Y-88774208D01*
X99743100Y-88842339D01*
X99743100Y-89933860D01*
X99753026Y-90001991D01*
X99753027Y-90001993D01*
X99804402Y-90107083D01*
X99831781Y-90134462D01*
X99865266Y-90195783D01*
X99868100Y-90222143D01*
X99868100Y-90336235D01*
X99893690Y-90431738D01*
X99943125Y-90517362D01*
X99943126Y-90517363D01*
X100230825Y-90805062D01*
X100300738Y-90874975D01*
X100386362Y-90924410D01*
X100409598Y-90930636D01*
X100481864Y-90950000D01*
X100481865Y-90950000D01*
X100574106Y-90950000D01*
X100641145Y-90969685D01*
X100686900Y-91022489D01*
X100696843Y-91091645D01*
X100696810Y-91091879D01*
X100693100Y-91117340D01*
X100693100Y-92208860D01*
X100703026Y-92276991D01*
X100703027Y-92276993D01*
X100754402Y-92382083D01*
X100781781Y-92409462D01*
X100815266Y-92470783D01*
X100818100Y-92497143D01*
X100818100Y-92556236D01*
X100819413Y-92561137D01*
X100833614Y-92614133D01*
X100843690Y-92651738D01*
X100877327Y-92709999D01*
X100877329Y-92710001D01*
X100893125Y-92737362D01*
X101515880Y-93360117D01*
X101549365Y-93421440D01*
X101544381Y-93491132D01*
X101527970Y-93521431D01*
X101466207Y-93605118D01*
X101466206Y-93605119D01*
X101421353Y-93733298D01*
X101421353Y-93733300D01*
X101418500Y-93763730D01*
X101418500Y-94772269D01*
X101421353Y-94802699D01*
X101421353Y-94802701D01*
X101466206Y-94930880D01*
X101466209Y-94930886D01*
X101541179Y-95032467D01*
X101565150Y-95098096D01*
X101549834Y-95166266D01*
X101500094Y-95215334D01*
X101441409Y-95230100D01*
X100996591Y-95230100D01*
X100929552Y-95210415D01*
X100883797Y-95157611D01*
X100873853Y-95088453D01*
X100896821Y-95032467D01*
X100971790Y-94930886D01*
X100971789Y-94930886D01*
X100971793Y-94930882D01*
X101008273Y-94826628D01*
X101016646Y-94802701D01*
X101016646Y-94802699D01*
X101019500Y-94772269D01*
X101019500Y-93763730D01*
X101016646Y-93733300D01*
X101016646Y-93733298D01*
X100978689Y-93624825D01*
X100971793Y-93605118D01*
X100891150Y-93495850D01*
X100781882Y-93415207D01*
X100781880Y-93415206D01*
X100653700Y-93370353D01*
X100623270Y-93367500D01*
X100623266Y-93367500D01*
X99989734Y-93367500D01*
X99989730Y-93367500D01*
X99959300Y-93370353D01*
X99959298Y-93370353D01*
X99831119Y-93415206D01*
X99831117Y-93415207D01*
X99721850Y-93495850D01*
X99641207Y-93605117D01*
X99641206Y-93605119D01*
X99596353Y-93733298D01*
X99596353Y-93733300D01*
X99593500Y-93763730D01*
X99593500Y-94772269D01*
X99596353Y-94802699D01*
X99596353Y-94802701D01*
X99641206Y-94930880D01*
X99641207Y-94930882D01*
X99721850Y-95040150D01*
X99821754Y-95113882D01*
X99831118Y-95120793D01*
X99831120Y-95120794D01*
X99863643Y-95132174D01*
X99920420Y-95172895D01*
X99942465Y-95217122D01*
X99956591Y-95269842D01*
X99956592Y-95269843D01*
X100002090Y-95348646D01*
X100006027Y-95355464D01*
X100006027Y-95355465D01*
X100412782Y-95762219D01*
X100446267Y-95823542D01*
X100441283Y-95893233D01*
X100399412Y-95949167D01*
X100333947Y-95973584D01*
X100325101Y-95973900D01*
X89683965Y-95973900D01*
X89527776Y-96004968D01*
X89527768Y-96004970D01*
X89380630Y-96065917D01*
X89248212Y-96154395D01*
X89248205Y-96154401D01*
X89135601Y-96267005D01*
X89135595Y-96267012D01*
X89047117Y-96399430D01*
X88986170Y-96546568D01*
X88986168Y-96546576D01*
X88955100Y-96702765D01*
X88955100Y-96772642D01*
X88953573Y-96792042D01*
X88948016Y-96827123D01*
X88936028Y-96864017D01*
X88924386Y-96886866D01*
X88901582Y-96918253D01*
X88883453Y-96936382D01*
X88852066Y-96959186D01*
X88829217Y-96970828D01*
X88792324Y-96982816D01*
X88780449Y-96984697D01*
X88757237Y-96988373D01*
X88737843Y-96989900D01*
X72602957Y-96989900D01*
X72583561Y-96988373D01*
X72563544Y-96985202D01*
X72548476Y-96982816D01*
X72511582Y-96970828D01*
X72488733Y-96959186D01*
X72457346Y-96936382D01*
X72439217Y-96918253D01*
X72416413Y-96886866D01*
X72404771Y-96864017D01*
X72392784Y-96827126D01*
X72387229Y-96792059D01*
X72385704Y-96772620D01*
X72388920Y-90348639D01*
X73844500Y-90348639D01*
X73845963Y-90375934D01*
X73845967Y-90375988D01*
X73848797Y-90402310D01*
X73848798Y-90402312D01*
X73878586Y-90497441D01*
X73878590Y-90497451D01*
X73912068Y-90558761D01*
X73912073Y-90558769D01*
X73955649Y-90616980D01*
X73955665Y-90616998D01*
X74074927Y-90736259D01*
X74133015Y-90794347D01*
X74153365Y-90812626D01*
X74153371Y-90812631D01*
X74153379Y-90812638D01*
X74174000Y-90829255D01*
X74174002Y-90829256D01*
X74174007Y-90829260D01*
X74262338Y-90875465D01*
X74329377Y-90895150D01*
X74329381Y-90895150D01*
X74329383Y-90895151D01*
X74341014Y-90896823D01*
X74401362Y-90905500D01*
X85652806Y-90905500D01*
X85719845Y-90925185D01*
X85740487Y-90941819D01*
X87203015Y-92404347D01*
X87223365Y-92422626D01*
X87223371Y-92422631D01*
X87223379Y-92422638D01*
X87244000Y-92439255D01*
X87244002Y-92439256D01*
X87244007Y-92439260D01*
X87332338Y-92485465D01*
X87399377Y-92505150D01*
X87399381Y-92505150D01*
X87399383Y-92505151D01*
X87411014Y-92506823D01*
X87471362Y-92515500D01*
X87471363Y-92515500D01*
X93348639Y-92515500D01*
X93350075Y-92515422D01*
X93375952Y-92514036D01*
X93402310Y-92511202D01*
X93497444Y-92481413D01*
X93558767Y-92447928D01*
X93616985Y-92404347D01*
X94134347Y-91886985D01*
X94152626Y-91866635D01*
X94169260Y-91845993D01*
X94215465Y-91757662D01*
X94235150Y-91690623D01*
X94245500Y-91618638D01*
X94245500Y-88907580D01*
X94244387Y-88883757D01*
X94242231Y-88860735D01*
X94227470Y-88809950D01*
X94215369Y-88768316D01*
X94215368Y-88768315D01*
X94215368Y-88768313D01*
X94199141Y-88736553D01*
X94183579Y-88706092D01*
X94160314Y-88669117D01*
X94159321Y-88667538D01*
X94084609Y-88601535D01*
X94084608Y-88601534D01*
X94024227Y-88566380D01*
X93956817Y-88539107D01*
X93853520Y-88513647D01*
X93825568Y-88503046D01*
X93767295Y-88472461D01*
X93742699Y-88455484D01*
X93693432Y-88411838D01*
X93673613Y-88389466D01*
X93636226Y-88335302D01*
X93622334Y-88308832D01*
X93598998Y-88247299D01*
X93591844Y-88218276D01*
X93583911Y-88152938D01*
X93583911Y-88123059D01*
X93591844Y-88057718D01*
X93598998Y-88028698D01*
X93616654Y-87982143D01*
X93622337Y-87967157D01*
X93636221Y-87940703D01*
X93673614Y-87886529D01*
X93693434Y-87864158D01*
X93710909Y-87848678D01*
X93752153Y-87801994D01*
X93786107Y-87752513D01*
X93803912Y-87722316D01*
X93830286Y-87626176D01*
X93835270Y-87556484D01*
X93834457Y-87510947D01*
X93834456Y-87510945D01*
X93834456Y-87510941D01*
X93815530Y-87450500D01*
X93804668Y-87415811D01*
X93783333Y-87376739D01*
X93771186Y-87354493D01*
X93771181Y-87354485D01*
X93727605Y-87296274D01*
X93727604Y-87296273D01*
X93727602Y-87296270D01*
X93727597Y-87296265D01*
X93727589Y-87296256D01*
X93701085Y-87269752D01*
X98589500Y-87269752D01*
X98601131Y-87328229D01*
X98601132Y-87328230D01*
X98645447Y-87394552D01*
X98711769Y-87438867D01*
X98711770Y-87438868D01*
X98770247Y-87450499D01*
X98770250Y-87450500D01*
X98770252Y-87450500D01*
X101009750Y-87450500D01*
X101009751Y-87450499D01*
X101024568Y-87447552D01*
X101068229Y-87438868D01*
X101068229Y-87438867D01*
X101068231Y-87438867D01*
X101134552Y-87394552D01*
X101178867Y-87328231D01*
X101178867Y-87328229D01*
X101178868Y-87328229D01*
X101190499Y-87269752D01*
X101190500Y-87269750D01*
X101190500Y-86150001D01*
X106204532Y-86150001D01*
X106224364Y-86376686D01*
X106224366Y-86376697D01*
X106283258Y-86596488D01*
X106283261Y-86596497D01*
X106379429Y-86802728D01*
X106379432Y-86802734D01*
X106509954Y-86989141D01*
X106670858Y-87150045D01*
X106706496Y-87174999D01*
X106857266Y-87280568D01*
X107063504Y-87376739D01*
X107283308Y-87435635D01*
X107445230Y-87449801D01*
X107509998Y-87455468D01*
X107510000Y-87455468D01*
X107510002Y-87455468D01*
X107566796Y-87450499D01*
X107736692Y-87435635D01*
X107956496Y-87376739D01*
X108162734Y-87280568D01*
X108349139Y-87150047D01*
X108510047Y-86989139D01*
X108640568Y-86802734D01*
X108641151Y-86801485D01*
X108682114Y-86713639D01*
X108736739Y-86596496D01*
X108795635Y-86376692D01*
X108815468Y-86150000D01*
X108795635Y-85923308D01*
X108736739Y-85703504D01*
X108640568Y-85497266D01*
X108533318Y-85344096D01*
X108510045Y-85310858D01*
X108349141Y-85149954D01*
X108162734Y-85019432D01*
X108162732Y-85019431D01*
X107956497Y-84923261D01*
X107956488Y-84923258D01*
X107736697Y-84864366D01*
X107736693Y-84864365D01*
X107736692Y-84864365D01*
X107736691Y-84864364D01*
X107736686Y-84864364D01*
X107510002Y-84844532D01*
X107509998Y-84844532D01*
X107283313Y-84864364D01*
X107283302Y-84864366D01*
X107063511Y-84923258D01*
X107063502Y-84923261D01*
X106857267Y-85019431D01*
X106857265Y-85019432D01*
X106670858Y-85149954D01*
X106509954Y-85310858D01*
X106379432Y-85497265D01*
X106379431Y-85497267D01*
X106283261Y-85703502D01*
X106283258Y-85703511D01*
X106224366Y-85923302D01*
X106224364Y-85923313D01*
X106204532Y-86149998D01*
X106204532Y-86150001D01*
X101190500Y-86150001D01*
X101190500Y-85030249D01*
X101190499Y-85030247D01*
X101178868Y-84971770D01*
X101178867Y-84971769D01*
X101134552Y-84905447D01*
X101068230Y-84861132D01*
X101068229Y-84861131D01*
X101009752Y-84849500D01*
X101009748Y-84849500D01*
X98770252Y-84849500D01*
X98770247Y-84849500D01*
X98711770Y-84861131D01*
X98711769Y-84861132D01*
X98645447Y-84905447D01*
X98601132Y-84971769D01*
X98601131Y-84971770D01*
X98589500Y-85030247D01*
X98589500Y-87269752D01*
X93701085Y-87269752D01*
X93436998Y-87005666D01*
X93436997Y-87005665D01*
X93436985Y-87005653D01*
X93416635Y-86987374D01*
X93416629Y-86987369D01*
X93416620Y-86987361D01*
X93395999Y-86970744D01*
X93395996Y-86970742D01*
X93395993Y-86970740D01*
X93307662Y-86924535D01*
X93303756Y-86923388D01*
X93240624Y-86904850D01*
X93240616Y-86904848D01*
X93168639Y-86894500D01*
X93168638Y-86894500D01*
X79006083Y-86894500D01*
X78956236Y-86899410D01*
X78956232Y-86899410D01*
X78956229Y-86899411D01*
X78908781Y-86908849D01*
X78860872Y-86923381D01*
X78860852Y-86923388D01*
X78842082Y-86931162D01*
X78810824Y-86939536D01*
X78766184Y-86945413D01*
X78733814Y-86945413D01*
X78689173Y-86939536D01*
X78657910Y-86931160D01*
X78650274Y-86927997D01*
X78639143Y-86923387D01*
X78591216Y-86908849D01*
X78567165Y-86904064D01*
X78543770Y-86899411D01*
X78543768Y-86899410D01*
X78543764Y-86899410D01*
X78493917Y-86894500D01*
X74701362Y-86894500D01*
X74701361Y-86894500D01*
X74674065Y-86895963D01*
X74674060Y-86895963D01*
X74674048Y-86895964D01*
X74674040Y-86895964D01*
X74674011Y-86895967D01*
X74647689Y-86898797D01*
X74647687Y-86898798D01*
X74552558Y-86928586D01*
X74552548Y-86928590D01*
X74491238Y-86962068D01*
X74491230Y-86962073D01*
X74433019Y-87005649D01*
X74433001Y-87005665D01*
X73955666Y-87483001D01*
X73955638Y-87483031D01*
X73937361Y-87503379D01*
X73920744Y-87524000D01*
X73874534Y-87612340D01*
X73854850Y-87679375D01*
X73854848Y-87679383D01*
X73844500Y-87751360D01*
X73844500Y-90348639D01*
X72388920Y-90348639D01*
X72391930Y-84338000D01*
X73745000Y-84338000D01*
X73745000Y-84898344D01*
X73751401Y-84957872D01*
X73751403Y-84957879D01*
X73801645Y-85092586D01*
X73801649Y-85092593D01*
X73887809Y-85207687D01*
X73887812Y-85207690D01*
X74002906Y-85293850D01*
X74002913Y-85293854D01*
X74137620Y-85344096D01*
X74137627Y-85344098D01*
X74197155Y-85350499D01*
X74197172Y-85350500D01*
X74345000Y-85350500D01*
X74345000Y-84338000D01*
X74845000Y-84338000D01*
X74845000Y-85350500D01*
X74992828Y-85350500D01*
X74992844Y-85350499D01*
X75052372Y-85344098D01*
X75052383Y-85344095D01*
X75186666Y-85294010D01*
X75256357Y-85289025D01*
X75273334Y-85294010D01*
X75407616Y-85344095D01*
X75407627Y-85344098D01*
X75467155Y-85350499D01*
X75467172Y-85350500D01*
X75615000Y-85350500D01*
X75615000Y-84338000D01*
X76115000Y-84338000D01*
X76115000Y-85350500D01*
X76262828Y-85350500D01*
X76262844Y-85350499D01*
X76322372Y-85344098D01*
X76322383Y-85344095D01*
X76456666Y-85294010D01*
X76526357Y-85289025D01*
X76543334Y-85294010D01*
X76677616Y-85344095D01*
X76677627Y-85344098D01*
X76737155Y-85350499D01*
X76737172Y-85350500D01*
X76885000Y-85350500D01*
X76885000Y-84338000D01*
X76115000Y-84338000D01*
X75615000Y-84338000D01*
X74845000Y-84338000D01*
X74345000Y-84338000D01*
X73745000Y-84338000D01*
X72391930Y-84338000D01*
X72392180Y-83838000D01*
X73745000Y-83838000D01*
X74345000Y-83838000D01*
X74345000Y-82825500D01*
X74845000Y-82825500D01*
X74845000Y-83838000D01*
X75615000Y-83838000D01*
X75615000Y-82825500D01*
X76115000Y-82825500D01*
X76115000Y-83838000D01*
X76885000Y-83838000D01*
X76885000Y-82825500D01*
X77385000Y-82825500D01*
X77385000Y-85350500D01*
X77532828Y-85350500D01*
X77532844Y-85350499D01*
X77592372Y-85344098D01*
X77592379Y-85344096D01*
X77727086Y-85293854D01*
X77727093Y-85293850D01*
X77842187Y-85207690D01*
X77842188Y-85207689D01*
X77885962Y-85149215D01*
X77941895Y-85107343D01*
X78011587Y-85102359D01*
X78072910Y-85135844D01*
X78099790Y-85176073D01*
X78101679Y-85180634D01*
X78101682Y-85180639D01*
X78144535Y-85254862D01*
X78720138Y-85830465D01*
X78794361Y-85873318D01*
X78877147Y-85895500D01*
X83060491Y-85895500D01*
X83127530Y-85915185D01*
X83141409Y-85927208D01*
X83142167Y-85926334D01*
X83148868Y-85932140D01*
X83148871Y-85932142D01*
X83148872Y-85932143D01*
X83269947Y-86009953D01*
X83269950Y-86009954D01*
X83269949Y-86009954D01*
X83408036Y-86050499D01*
X83408038Y-86050500D01*
X83408039Y-86050500D01*
X83551962Y-86050500D01*
X83551962Y-86050499D01*
X83690053Y-86009953D01*
X83811128Y-85932143D01*
X83905377Y-85823373D01*
X83965165Y-85692457D01*
X83985647Y-85550000D01*
X83965165Y-85407543D01*
X83962183Y-85401013D01*
X83952238Y-85331855D01*
X83981262Y-85268299D01*
X84040039Y-85230523D01*
X84074976Y-85225500D01*
X84124270Y-85225500D01*
X84154699Y-85222646D01*
X84154701Y-85222646D01*
X84218790Y-85200219D01*
X84282882Y-85177793D01*
X84392150Y-85097150D01*
X84472793Y-84987882D01*
X84504124Y-84898344D01*
X84517646Y-84859701D01*
X84517646Y-84859699D01*
X84520500Y-84829269D01*
X84520500Y-84749500D01*
X84540185Y-84682461D01*
X84592989Y-84636706D01*
X84644500Y-84625500D01*
X84803162Y-84625500D01*
X84870201Y-84645185D01*
X84896872Y-84668295D01*
X84908872Y-84682143D01*
X85029947Y-84759953D01*
X85029950Y-84759954D01*
X85029949Y-84759954D01*
X85128294Y-84788830D01*
X85161268Y-84798512D01*
X85168036Y-84800499D01*
X85168038Y-84800500D01*
X85168039Y-84800500D01*
X85311962Y-84800500D01*
X85311962Y-84800499D01*
X85450053Y-84759953D01*
X85571128Y-84682143D01*
X85665377Y-84573373D01*
X85725165Y-84442457D01*
X85745647Y-84300000D01*
X85725165Y-84157543D01*
X85665377Y-84026627D01*
X85571128Y-83917857D01*
X85450053Y-83840047D01*
X85450051Y-83840046D01*
X85450049Y-83840045D01*
X85450050Y-83840045D01*
X85311963Y-83799500D01*
X85311961Y-83799500D01*
X85168039Y-83799500D01*
X85168036Y-83799500D01*
X85029949Y-83840045D01*
X84908873Y-83917856D01*
X84908872Y-83917856D01*
X84908872Y-83917857D01*
X84896873Y-83931703D01*
X84838097Y-83969477D01*
X84803162Y-83974500D01*
X84644500Y-83974500D01*
X84577461Y-83954815D01*
X84531706Y-83902011D01*
X84520500Y-83850500D01*
X84520500Y-83770730D01*
X84517646Y-83740300D01*
X84517646Y-83740298D01*
X84472793Y-83612119D01*
X84472792Y-83612117D01*
X84392150Y-83502850D01*
X84282882Y-83422207D01*
X84282880Y-83422206D01*
X84154700Y-83377353D01*
X84124270Y-83374500D01*
X84124266Y-83374500D01*
X83515734Y-83374500D01*
X83515730Y-83374500D01*
X83485300Y-83377353D01*
X83485298Y-83377353D01*
X83357119Y-83422206D01*
X83357117Y-83422207D01*
X83247850Y-83502850D01*
X83167207Y-83612117D01*
X83144842Y-83676033D01*
X83104120Y-83732808D01*
X83039167Y-83758555D01*
X82970605Y-83745098D01*
X82920203Y-83696711D01*
X82910095Y-83674081D01*
X82854358Y-83505880D01*
X82854356Y-83505875D01*
X82762315Y-83356654D01*
X82638345Y-83232684D01*
X82489124Y-83140643D01*
X82489119Y-83140641D01*
X82322697Y-83085494D01*
X82322690Y-83085493D01*
X82219986Y-83075000D01*
X82170000Y-83075000D01*
X82170000Y-84426000D01*
X82150315Y-84493039D01*
X82097511Y-84538794D01*
X82046000Y-84550000D01*
X80920001Y-84550000D01*
X80920001Y-84824986D01*
X80930493Y-84927695D01*
X80981459Y-85081495D01*
X80983861Y-85151324D01*
X80948130Y-85211366D01*
X80885609Y-85242559D01*
X80863753Y-85244500D01*
X79106189Y-85244500D01*
X79039150Y-85224815D01*
X79018508Y-85208181D01*
X78933789Y-85123462D01*
X78900304Y-85062139D01*
X78905288Y-84992447D01*
X78918364Y-84966896D01*
X78943867Y-84928731D01*
X78943867Y-84928730D01*
X78943868Y-84928729D01*
X78954663Y-84874454D01*
X78955500Y-84870248D01*
X78955500Y-84050000D01*
X80920000Y-84050000D01*
X81670000Y-84050000D01*
X81670000Y-83075000D01*
X81669999Y-83074999D01*
X81620029Y-83075000D01*
X81620011Y-83075001D01*
X81517302Y-83085494D01*
X81350880Y-83140641D01*
X81350875Y-83140643D01*
X81201654Y-83232684D01*
X81077684Y-83356654D01*
X80985643Y-83505875D01*
X80985641Y-83505880D01*
X80930494Y-83672302D01*
X80930493Y-83672309D01*
X80920000Y-83775013D01*
X80920000Y-84050000D01*
X78955500Y-84050000D01*
X78955500Y-83305752D01*
X78955500Y-83305749D01*
X78955499Y-83305747D01*
X78943868Y-83247270D01*
X78943867Y-83247269D01*
X78899552Y-83180947D01*
X78833230Y-83136632D01*
X78833229Y-83136631D01*
X78774752Y-83125000D01*
X78774748Y-83125000D01*
X78035252Y-83125000D01*
X78035249Y-83125000D01*
X78034223Y-83125101D01*
X78033691Y-83125000D01*
X78029160Y-83125000D01*
X78029160Y-83124140D01*
X77965578Y-83112077D01*
X77922812Y-83076008D01*
X77842190Y-82968312D01*
X77842187Y-82968309D01*
X77727093Y-82882149D01*
X77727086Y-82882145D01*
X77592379Y-82831903D01*
X77592372Y-82831901D01*
X77532844Y-82825500D01*
X77385000Y-82825500D01*
X76885000Y-82825500D01*
X76737155Y-82825500D01*
X76677627Y-82831901D01*
X76677620Y-82831903D01*
X76543333Y-82881989D01*
X76473641Y-82886973D01*
X76456667Y-82881989D01*
X76322379Y-82831903D01*
X76322372Y-82831901D01*
X76262844Y-82825500D01*
X76115000Y-82825500D01*
X75615000Y-82825500D01*
X75467155Y-82825500D01*
X75407627Y-82831901D01*
X75407620Y-82831903D01*
X75273333Y-82881989D01*
X75203641Y-82886973D01*
X75186667Y-82881989D01*
X75052379Y-82831903D01*
X75052372Y-82831901D01*
X74992844Y-82825500D01*
X74845000Y-82825500D01*
X74345000Y-82825500D01*
X74197155Y-82825500D01*
X74137627Y-82831901D01*
X74137620Y-82831903D01*
X74002913Y-82882145D01*
X74002906Y-82882149D01*
X73887812Y-82968309D01*
X73887809Y-82968312D01*
X73801649Y-83083406D01*
X73801645Y-83083413D01*
X73751403Y-83218120D01*
X73751401Y-83218127D01*
X73745000Y-83277655D01*
X73745000Y-83838000D01*
X72392180Y-83838000D01*
X72394070Y-80062095D01*
X72394100Y-80061749D01*
X72394100Y-80008466D01*
X72394365Y-80000356D01*
X72395223Y-79987261D01*
X72411787Y-79734533D01*
X72413902Y-79718479D01*
X72465078Y-79461202D01*
X72469267Y-79445565D01*
X72553590Y-79197159D01*
X72559787Y-79182198D01*
X72675807Y-78946933D01*
X72683910Y-78932898D01*
X72829646Y-78714788D01*
X72839503Y-78701942D01*
X73012462Y-78504720D01*
X73023920Y-78493262D01*
X73221142Y-78320303D01*
X73233988Y-78310446D01*
X73452098Y-78164710D01*
X73466133Y-78156607D01*
X73701398Y-78040587D01*
X73716359Y-78034390D01*
X73964765Y-77950067D01*
X73980402Y-77945878D01*
X74237679Y-77894702D01*
X74253735Y-77892587D01*
X74497484Y-77876611D01*
X74519558Y-77875165D01*
X74527667Y-77874900D01*
X74571195Y-77874900D01*
X87314406Y-77874900D01*
X87381445Y-77894585D01*
G37*
G04 #@! TD.AperFunction*
G04 #@! TA.AperFunction,Conductor*
G36*
X109489677Y-93999685D02*
G01*
X109510319Y-94016319D01*
X109691681Y-94197681D01*
X109725166Y-94259004D01*
X109728000Y-94285362D01*
X109728000Y-95579638D01*
X109708315Y-95646677D01*
X109691681Y-95667319D01*
X109421419Y-95937581D01*
X109360096Y-95971066D01*
X109333738Y-95973900D01*
X108420958Y-95973900D01*
X108353919Y-95954215D01*
X108308164Y-95901411D01*
X108298220Y-95832253D01*
X108301882Y-95815305D01*
X108340699Y-95681695D01*
X108340700Y-95681689D01*
X108343599Y-95644849D01*
X108343600Y-95644834D01*
X108343600Y-95316700D01*
X106743600Y-95316700D01*
X106743600Y-95644849D01*
X106746499Y-95681689D01*
X106746500Y-95681695D01*
X106785318Y-95815305D01*
X106785119Y-95885175D01*
X106747177Y-95943844D01*
X106683538Y-95972688D01*
X106666242Y-95973900D01*
X105677262Y-95973900D01*
X105610223Y-95954215D01*
X105589581Y-95937581D01*
X105573319Y-95921319D01*
X105539834Y-95859996D01*
X105537000Y-95833638D01*
X105537000Y-94428306D01*
X105556685Y-94361267D01*
X105609489Y-94315512D01*
X105678647Y-94305568D01*
X105730972Y-94327607D01*
X105731201Y-94327211D01*
X105734357Y-94329033D01*
X105736486Y-94329930D01*
X105738235Y-94331272D01*
X105738238Y-94331275D01*
X105823862Y-94380710D01*
X105871611Y-94393505D01*
X105871612Y-94393505D01*
X105881703Y-94396208D01*
X105919364Y-94406300D01*
X105919365Y-94406300D01*
X105919366Y-94406300D01*
X106619600Y-94406300D01*
X106686639Y-94425985D01*
X106732394Y-94478789D01*
X106743600Y-94530300D01*
X106743600Y-94816700D01*
X108343600Y-94816700D01*
X108343600Y-94488565D01*
X108343599Y-94488550D01*
X108340700Y-94451710D01*
X108340699Y-94451707D01*
X108332305Y-94422814D01*
X108332504Y-94352945D01*
X108363699Y-94300538D01*
X108402875Y-94261363D01*
X108402875Y-94261361D01*
X108413076Y-94251161D01*
X108413079Y-94251156D01*
X108647919Y-94016317D01*
X108709241Y-93982834D01*
X108735599Y-93980000D01*
X109422638Y-93980000D01*
X109489677Y-93999685D01*
G37*
G04 #@! TD.AperFunction*
G04 #@! TA.AperFunction,Conductor*
G36*
X78541369Y-87159439D02*
G01*
X78606291Y-87186330D01*
X78733280Y-87203048D01*
X78749999Y-87205250D01*
X78750000Y-87205250D01*
X78750001Y-87205250D01*
X78764977Y-87203278D01*
X78893709Y-87186330D01*
X78958631Y-87159439D01*
X79006083Y-87150000D01*
X93168638Y-87150000D01*
X93235677Y-87169685D01*
X93256319Y-87186319D01*
X93546936Y-87476936D01*
X93580421Y-87538259D01*
X93575437Y-87607951D01*
X93541483Y-87657432D01*
X93489516Y-87703470D01*
X93399781Y-87833475D01*
X93399780Y-87833476D01*
X93343762Y-87981181D01*
X93324722Y-88137999D01*
X93324722Y-88138000D01*
X93343762Y-88294818D01*
X93399780Y-88442523D01*
X93489517Y-88572530D01*
X93607760Y-88677283D01*
X93607762Y-88677284D01*
X93747634Y-88750696D01*
X93791322Y-88761463D01*
X93895675Y-88787184D01*
X93956055Y-88822338D01*
X93987844Y-88884558D01*
X93990000Y-88907580D01*
X93990000Y-91618638D01*
X93970315Y-91685677D01*
X93953681Y-91706319D01*
X93436319Y-92223681D01*
X93374996Y-92257166D01*
X93348638Y-92260000D01*
X87471362Y-92260000D01*
X87404323Y-92240315D01*
X87383681Y-92223681D01*
X85810000Y-90650000D01*
X74401362Y-90650000D01*
X74334323Y-90630315D01*
X74313681Y-90613681D01*
X74136319Y-90436319D01*
X74102834Y-90374996D01*
X74100000Y-90348638D01*
X74100000Y-87751362D01*
X74119685Y-87684323D01*
X74136319Y-87663681D01*
X74613681Y-87186319D01*
X74675004Y-87152834D01*
X74701362Y-87150000D01*
X78493917Y-87150000D01*
X78541369Y-87159439D01*
G37*
G04 #@! TD.AperFunction*
G04 #@! TA.AperFunction,Conductor*
G36*
X126499503Y-84882561D02*
G01*
X126510834Y-84885147D01*
X126510837Y-84885149D01*
X126600000Y-84905500D01*
X135263518Y-84905500D01*
X135330557Y-84925185D01*
X135351199Y-84941819D01*
X135554686Y-85145307D01*
X135557674Y-85147830D01*
X135596197Y-85206120D01*
X135600415Y-85260220D01*
X135594500Y-85301360D01*
X135594500Y-86198654D01*
X135594544Y-86200296D01*
X135594500Y-86200297D01*
X135594500Y-86200299D01*
X135594432Y-86200299D01*
X135593806Y-86200315D01*
X135578241Y-86265601D01*
X135558292Y-86291707D01*
X135422306Y-86427694D01*
X135286317Y-86563682D01*
X135224997Y-86597166D01*
X135198638Y-86600000D01*
X130399999Y-86600000D01*
X128686319Y-88313681D01*
X128624996Y-88347166D01*
X128598638Y-88350000D01*
X126701362Y-88350000D01*
X126634323Y-88330315D01*
X126613681Y-88313681D01*
X126086319Y-87786319D01*
X126052834Y-87724996D01*
X126050000Y-87698638D01*
X126050000Y-85301362D01*
X126069685Y-85234323D01*
X126086319Y-85213681D01*
X126154693Y-85145307D01*
X126384230Y-84915769D01*
X126445551Y-84882286D01*
X126499503Y-84882561D01*
G37*
G04 #@! TD.AperFunction*
G04 #@! TA.AperFunction,Conductor*
G36*
X146456400Y-81000000D02*
G01*
X146456400Y-82152400D01*
X145964751Y-82644048D01*
X145923575Y-82622509D01*
X145856543Y-82602826D01*
X145855894Y-82602732D01*
X145798638Y-82594500D01*
X141951362Y-82594500D01*
X141951361Y-82594500D01*
X141929381Y-82595678D01*
X141903034Y-82598511D01*
X141903032Y-82598512D01*
X141826521Y-82622470D01*
X141826516Y-82622471D01*
X141765188Y-82655960D01*
X141718384Y-82690998D01*
X141718363Y-82691016D01*
X140201199Y-84208181D01*
X140139876Y-84241666D01*
X140113518Y-84244500D01*
X139404932Y-84244500D01*
X139369997Y-84239477D01*
X139301962Y-84219500D01*
X139301961Y-84219500D01*
X139158039Y-84219500D01*
X139158038Y-84219500D01*
X139090003Y-84239477D01*
X139055068Y-84244500D01*
X138401361Y-84244500D01*
X138379381Y-84245678D01*
X138353034Y-84248511D01*
X138353032Y-84248512D01*
X138276521Y-84272470D01*
X138276516Y-84272471D01*
X138215188Y-84305960D01*
X138168384Y-84340998D01*
X138168363Y-84341016D01*
X137751199Y-84758181D01*
X137689876Y-84791666D01*
X137663518Y-84794500D01*
X137442254Y-84794500D01*
X137395934Y-84799788D01*
X137363158Y-84807369D01*
X137353102Y-84809261D01*
X137315766Y-84814703D01*
X137297881Y-84816000D01*
X136254118Y-84816000D01*
X136236239Y-84814704D01*
X136198905Y-84809264D01*
X136188835Y-84807369D01*
X136156070Y-84799788D01*
X136109746Y-84794500D01*
X136101362Y-84794500D01*
X136101361Y-84794500D01*
X136079381Y-84795678D01*
X136053034Y-84798511D01*
X136053032Y-84798512D01*
X135976521Y-84822470D01*
X135976516Y-84822471D01*
X135915188Y-84855960D01*
X135868384Y-84890998D01*
X135868363Y-84891016D01*
X135759378Y-85000000D01*
X135700000Y-85000000D01*
X135400000Y-84700000D01*
X126600000Y-84700000D01*
X125800000Y-83900000D01*
X125800000Y-81142760D01*
X126342760Y-80600000D01*
X133000000Y-80600000D01*
X133500000Y-81100000D01*
X133500000Y-83800000D01*
X133800000Y-84100000D01*
X137400000Y-84100000D01*
X137484844Y-84015154D01*
X137494983Y-84010198D01*
X137577698Y-83927483D01*
X137582654Y-83917344D01*
X137850000Y-83650000D01*
X137850000Y-82000000D01*
X139300000Y-80550000D01*
X146006400Y-80550000D01*
X146456400Y-81000000D01*
G37*
G04 #@! TD.AperFunction*
G04 #@! TA.AperFunction,Conductor*
G36*
X93340577Y-77894585D02*
G01*
X93361219Y-77911219D01*
X93863681Y-78413681D01*
X93897166Y-78475004D01*
X93900000Y-78501362D01*
X93900000Y-83448638D01*
X93880315Y-83515677D01*
X93863681Y-83536319D01*
X93236319Y-84163681D01*
X93174996Y-84197166D01*
X93148638Y-84200000D01*
X88351362Y-84200000D01*
X88284323Y-84180315D01*
X88263681Y-84163681D01*
X87436319Y-83336319D01*
X87402834Y-83274996D01*
X87400000Y-83248638D01*
X87400000Y-78501362D01*
X87419685Y-78434323D01*
X87436319Y-78413681D01*
X87938781Y-77911219D01*
X88000104Y-77877734D01*
X88026462Y-77874900D01*
X93273538Y-77874900D01*
X93340577Y-77894585D01*
G37*
G04 #@! TD.AperFunction*
G04 #@! TA.AperFunction,Conductor*
G36*
X145865677Y-82819685D02*
G01*
X145886319Y-82836319D01*
X146176277Y-83126277D01*
X146209762Y-83187600D01*
X146204778Y-83257292D01*
X146162906Y-83313225D01*
X146097442Y-83337642D01*
X146053662Y-83332935D01*
X146041964Y-83329500D01*
X146041961Y-83329500D01*
X145898039Y-83329500D01*
X145898036Y-83329500D01*
X145759949Y-83370045D01*
X145638873Y-83447856D01*
X145544623Y-83556626D01*
X145544622Y-83556628D01*
X145484834Y-83687543D01*
X145464353Y-83830000D01*
X145484834Y-83972456D01*
X145502071Y-84010198D01*
X145544623Y-84103373D01*
X145638872Y-84212143D01*
X145759947Y-84289953D01*
X145759950Y-84289954D01*
X145759949Y-84289954D01*
X145898036Y-84330499D01*
X145898038Y-84330500D01*
X145898039Y-84330500D01*
X146041962Y-84330500D01*
X146041962Y-84330499D01*
X146180053Y-84289953D01*
X146301128Y-84212143D01*
X146395377Y-84103373D01*
X146455165Y-83972457D01*
X146475647Y-83830000D01*
X146460768Y-83726514D01*
X146470712Y-83657357D01*
X146516467Y-83604553D01*
X146583506Y-83584868D01*
X146650545Y-83604553D01*
X146671187Y-83621187D01*
X147113681Y-84063681D01*
X147147166Y-84125004D01*
X147150000Y-84151362D01*
X147150000Y-85398638D01*
X147130315Y-85465677D01*
X147113681Y-85486319D01*
X145986319Y-86613681D01*
X145924996Y-86647166D01*
X145898638Y-86650000D01*
X140900000Y-86650000D01*
X136251362Y-86650000D01*
X136184323Y-86630315D01*
X136163681Y-86613681D01*
X135836319Y-86286319D01*
X135802834Y-86224996D01*
X135800000Y-86198638D01*
X135800000Y-85301362D01*
X135819685Y-85234323D01*
X135836319Y-85213681D01*
X136013681Y-85036319D01*
X136075004Y-85002834D01*
X136101362Y-85000000D01*
X136109746Y-85000000D01*
X136152543Y-85009901D01*
X136152905Y-85008730D01*
X136162107Y-85011573D01*
X136230239Y-85021500D01*
X136230240Y-85021500D01*
X137321761Y-85021500D01*
X137355826Y-85016536D01*
X137389893Y-85011573D01*
X137389894Y-85011572D01*
X137399095Y-85008730D01*
X137399456Y-85009901D01*
X137442254Y-85000000D01*
X137800000Y-85000000D01*
X138313681Y-84486319D01*
X138375004Y-84452834D01*
X138401362Y-84450000D01*
X140250000Y-84450000D01*
X141863681Y-82836319D01*
X141925004Y-82802834D01*
X141951362Y-82800000D01*
X145798638Y-82800000D01*
X145865677Y-82819685D01*
G37*
G04 #@! TD.AperFunction*
M02*
