G04 #@! TF.GenerationSoftware,KiCad,Pcbnew,8.0.0*
G04 #@! TF.CreationDate,2024-10-21T16:28:35+02:00*
G04 #@! TF.ProjectId,BatteryBridge,42617474-6572-4794-9272-696467652e6b,rev?*
G04 #@! TF.SameCoordinates,Original*
G04 #@! TF.FileFunction,Copper,L3,Inr*
G04 #@! TF.FilePolarity,Positive*
%FSLAX46Y46*%
G04 Gerber Fmt 4.6, Leading zero omitted, Abs format (unit mm)*
G04 Created by KiCad (PCBNEW 8.0.0) date 2024-10-21 16:28:35*
%MOMM*%
%LPD*%
G01*
G04 APERTURE LIST*
G04 #@! TA.AperFunction,ComponentPad*
%ADD10C,2.600000*%
G04 #@! TD*
G04 #@! TA.AperFunction,ComponentPad*
%ADD11C,0.800000*%
G04 #@! TD*
G04 #@! TA.AperFunction,ComponentPad*
%ADD12C,6.400000*%
G04 #@! TD*
G04 #@! TA.AperFunction,ComponentPad*
%ADD13R,2.200000X2.200000*%
G04 #@! TD*
G04 #@! TA.AperFunction,ComponentPad*
%ADD14O,2.200000X2.200000*%
G04 #@! TD*
G04 #@! TA.AperFunction,ViaPad*
%ADD15C,0.600000*%
G04 #@! TD*
G04 #@! TA.AperFunction,ViaPad*
%ADD16C,0.800000*%
G04 #@! TD*
G04 APERTURE END LIST*
D10*
X110030000Y-80030000D03*
D11*
X145783600Y-92710000D03*
X146486544Y-91012944D03*
X146486544Y-94407056D03*
X148183600Y-90310000D03*
D12*
X148183600Y-92710000D03*
D11*
X148183600Y-95110000D03*
X149880656Y-91012944D03*
X149880656Y-94407056D03*
X150583600Y-92710000D03*
D13*
X99890000Y-86150000D03*
D14*
X107510000Y-86150000D03*
D13*
X120897100Y-85874500D03*
D14*
X113277100Y-85874500D03*
D15*
X125300000Y-86100000D03*
X118550000Y-87000000D03*
X129100000Y-82400000D03*
X146800000Y-79650000D03*
D16*
X75565000Y-79375000D03*
X133959600Y-87274400D03*
X145440400Y-96621600D03*
X124460000Y-95250000D03*
X130200400Y-91135200D03*
X137795000Y-93980000D03*
X94615000Y-79375000D03*
X139700000Y-93980000D03*
X86360000Y-85725000D03*
D15*
X79600000Y-82250000D03*
D16*
X133553200Y-90373200D03*
X150495000Y-84455000D03*
D15*
X78750000Y-86650000D03*
D16*
X107950000Y-83185000D03*
X84300000Y-81400000D03*
X114935000Y-83185000D03*
X137160000Y-91440000D03*
D15*
X79600000Y-86350000D03*
D16*
X116840000Y-79375000D03*
X147955000Y-84455000D03*
X75565000Y-81280000D03*
D15*
X140716000Y-79756000D03*
D16*
X95885000Y-94615000D03*
D15*
X80450000Y-82250000D03*
D16*
X93345000Y-94615000D03*
X77470000Y-81280000D03*
X110185200Y-92964000D03*
X73660000Y-81280000D03*
X96520000Y-79375000D03*
D15*
X111506000Y-95656400D03*
D16*
X140335000Y-100330000D03*
D15*
X144780000Y-79756000D03*
D16*
X110185200Y-89001600D03*
D15*
X144780000Y-78232000D03*
X129850000Y-99850000D03*
X130200000Y-81350000D03*
D16*
X84300000Y-80250000D03*
X123240800Y-78638400D03*
D15*
X127850000Y-99850000D03*
D16*
X150825200Y-89357200D03*
X124917200Y-78638400D03*
D15*
X142748000Y-79756000D03*
X131200000Y-82400000D03*
X146812000Y-78232000D03*
D16*
X96520000Y-88138000D03*
D15*
X130200000Y-82400000D03*
X117600000Y-87350000D03*
D16*
X137160000Y-100330000D03*
D15*
X131200000Y-81350000D03*
D16*
X73660000Y-79375000D03*
D15*
X113588800Y-95656400D03*
D16*
X93980000Y-88138000D03*
D15*
X123250000Y-88250000D03*
D16*
X127635000Y-92710000D03*
D15*
X120192800Y-95605600D03*
D16*
X112395000Y-83185000D03*
X96520000Y-85725000D03*
X88900000Y-85725000D03*
X91440000Y-85725000D03*
D15*
X115925600Y-95656400D03*
D16*
X94615000Y-82550000D03*
X142875000Y-100330000D03*
X142240000Y-91440000D03*
D15*
X129100000Y-81350000D03*
D16*
X77470000Y-79375000D03*
X119380000Y-79375000D03*
X93980000Y-85725000D03*
X124460000Y-92710000D03*
D15*
X118008400Y-95656400D03*
D16*
X137769600Y-95910400D03*
D15*
X142748000Y-78232000D03*
D16*
X110185200Y-90881200D03*
X90805000Y-94615000D03*
X139700000Y-91440000D03*
X103505000Y-79375000D03*
D15*
X122326400Y-95605600D03*
D16*
X101600000Y-79375000D03*
X96520000Y-82550000D03*
D15*
X140716000Y-78232000D03*
D16*
X111550000Y-94350000D03*
D15*
X127500000Y-96200000D03*
X127450000Y-97650000D03*
X108915200Y-95554800D03*
X106426000Y-95605600D03*
X128500000Y-96200000D03*
X127550000Y-95100000D03*
X91694000Y-83820000D03*
X90424000Y-82804000D03*
X89154000Y-83820000D03*
X85240000Y-84300000D03*
X139230000Y-84720000D03*
X92900000Y-82804000D03*
X90424000Y-83820000D03*
X91694000Y-82804000D03*
X146050000Y-85550000D03*
X89154000Y-82804000D03*
X145250000Y-86150000D03*
X135350000Y-97950000D03*
X128700000Y-94000000D03*
X81788000Y-87884000D03*
X81788000Y-89916000D03*
X80518000Y-89916000D03*
X79248000Y-89916000D03*
X80518000Y-87884000D03*
X79248000Y-87884000D03*
X76350000Y-87650000D03*
X77150000Y-88200000D03*
X74750000Y-87650000D03*
X75550000Y-88200000D03*
X78050000Y-87700000D03*
X83480000Y-85550000D03*
X145970000Y-83830000D03*
X141000000Y-87600000D03*
D16*
X105765600Y-92557600D03*
G04 #@! TA.AperFunction,Conductor*
G36*
X122505047Y-77894585D02*
G01*
X122550802Y-77947389D01*
X122560746Y-78016547D01*
X122531721Y-78080103D01*
X122530157Y-78081873D01*
X122508266Y-78106184D01*
X122413621Y-78270115D01*
X122413618Y-78270122D01*
X122357012Y-78444339D01*
X122355126Y-78450144D01*
X122335340Y-78638400D01*
X122355126Y-78826656D01*
X122355127Y-78826659D01*
X122413618Y-79006677D01*
X122413621Y-79006684D01*
X122508267Y-79170616D01*
X122625194Y-79300476D01*
X122634929Y-79311288D01*
X122788065Y-79422548D01*
X122788070Y-79422551D01*
X122960992Y-79499542D01*
X122960997Y-79499544D01*
X123146154Y-79538900D01*
X123146155Y-79538900D01*
X123335444Y-79538900D01*
X123335446Y-79538900D01*
X123520603Y-79499544D01*
X123693530Y-79422551D01*
X123846671Y-79311288D01*
X123973333Y-79170616D01*
X123973334Y-79170612D01*
X123977155Y-79165356D01*
X123978915Y-79166635D01*
X124022167Y-79125386D01*
X124090773Y-79112155D01*
X124155641Y-79138116D01*
X124179862Y-79166069D01*
X124180845Y-79165356D01*
X124184665Y-79170614D01*
X124311329Y-79311288D01*
X124464465Y-79422548D01*
X124464470Y-79422551D01*
X124637392Y-79499542D01*
X124637397Y-79499544D01*
X124822554Y-79538900D01*
X124822555Y-79538900D01*
X125011844Y-79538900D01*
X125011846Y-79538900D01*
X125197003Y-79499544D01*
X125369930Y-79422551D01*
X125523071Y-79311288D01*
X125649733Y-79170616D01*
X125744379Y-79006684D01*
X125802874Y-78826656D01*
X125822660Y-78638400D01*
X125802874Y-78450144D01*
X125744379Y-78270116D01*
X125649733Y-78106184D01*
X125627842Y-78081872D01*
X125597612Y-78018881D01*
X125606237Y-77949546D01*
X125650978Y-77895880D01*
X125717630Y-77874922D01*
X125719992Y-77874900D01*
X139818100Y-77874900D01*
X139885139Y-77894585D01*
X139930894Y-77947389D01*
X139940838Y-78016547D01*
X139935142Y-78039852D01*
X139930634Y-78052735D01*
X139930630Y-78052750D01*
X139910435Y-78231996D01*
X139910435Y-78232003D01*
X139930630Y-78411249D01*
X139930631Y-78411254D01*
X139990211Y-78581523D01*
X140086184Y-78734262D01*
X140213737Y-78861815D01*
X140213740Y-78861817D01*
X140257011Y-78889007D01*
X140303302Y-78941342D01*
X140313949Y-79010395D01*
X140285574Y-79074244D01*
X140257011Y-79098993D01*
X140213740Y-79126182D01*
X140213737Y-79126184D01*
X140086184Y-79253737D01*
X139990211Y-79406476D01*
X139930631Y-79576745D01*
X139930630Y-79576750D01*
X139910435Y-79755996D01*
X139910435Y-79756003D01*
X139930630Y-79935249D01*
X139930631Y-79935254D01*
X139990211Y-80105523D01*
X140023906Y-80159148D01*
X140086184Y-80258262D01*
X140213738Y-80385816D01*
X140366478Y-80481789D01*
X140536745Y-80541368D01*
X140536750Y-80541369D01*
X140715996Y-80561565D01*
X140716000Y-80561565D01*
X140716004Y-80561565D01*
X140895249Y-80541369D01*
X140895252Y-80541368D01*
X140895255Y-80541368D01*
X141065522Y-80481789D01*
X141218262Y-80385816D01*
X141345816Y-80258262D01*
X141441789Y-80105522D01*
X141501368Y-79935255D01*
X141501369Y-79935249D01*
X141521565Y-79756003D01*
X141521565Y-79755996D01*
X141501369Y-79576750D01*
X141501368Y-79576745D01*
X141474354Y-79499544D01*
X141441789Y-79406478D01*
X141430716Y-79388856D01*
X141345815Y-79253737D01*
X141218262Y-79126184D01*
X141195935Y-79112155D01*
X141174988Y-79098993D01*
X141128698Y-79046659D01*
X141118050Y-78977606D01*
X141146425Y-78913757D01*
X141174989Y-78889006D01*
X141218262Y-78861816D01*
X141345816Y-78734262D01*
X141441789Y-78581522D01*
X141501368Y-78411255D01*
X141501369Y-78411249D01*
X141521565Y-78232003D01*
X141521565Y-78231996D01*
X141501369Y-78052750D01*
X141501365Y-78052735D01*
X141496858Y-78039852D01*
X141493297Y-77970074D01*
X141528027Y-77909447D01*
X141590021Y-77877221D01*
X141613900Y-77874900D01*
X141850100Y-77874900D01*
X141917139Y-77894585D01*
X141962894Y-77947389D01*
X141972838Y-78016547D01*
X141967142Y-78039852D01*
X141962634Y-78052735D01*
X141962630Y-78052750D01*
X141942435Y-78231996D01*
X141942435Y-78232003D01*
X141962630Y-78411249D01*
X141962631Y-78411254D01*
X142022211Y-78581523D01*
X142118184Y-78734262D01*
X142245737Y-78861815D01*
X142245740Y-78861817D01*
X142289011Y-78889007D01*
X142335302Y-78941342D01*
X142345949Y-79010395D01*
X142317574Y-79074244D01*
X142289011Y-79098993D01*
X142245740Y-79126182D01*
X142245737Y-79126184D01*
X142118184Y-79253737D01*
X142022211Y-79406476D01*
X141962631Y-79576745D01*
X141962630Y-79576750D01*
X141942435Y-79755996D01*
X141942435Y-79756003D01*
X141962630Y-79935249D01*
X141962631Y-79935254D01*
X142022211Y-80105523D01*
X142055906Y-80159148D01*
X142118184Y-80258262D01*
X142245738Y-80385816D01*
X142398478Y-80481789D01*
X142568745Y-80541368D01*
X142568750Y-80541369D01*
X142747996Y-80561565D01*
X142748000Y-80561565D01*
X142748004Y-80561565D01*
X142927249Y-80541369D01*
X142927252Y-80541368D01*
X142927255Y-80541368D01*
X143097522Y-80481789D01*
X143250262Y-80385816D01*
X143377816Y-80258262D01*
X143473789Y-80105522D01*
X143533368Y-79935255D01*
X143533369Y-79935249D01*
X143553565Y-79756003D01*
X143553565Y-79755996D01*
X143533369Y-79576750D01*
X143533368Y-79576745D01*
X143506354Y-79499544D01*
X143473789Y-79406478D01*
X143462716Y-79388856D01*
X143377815Y-79253737D01*
X143250262Y-79126184D01*
X143227935Y-79112155D01*
X143206988Y-79098993D01*
X143160698Y-79046659D01*
X143150050Y-78977606D01*
X143178425Y-78913757D01*
X143206989Y-78889006D01*
X143250262Y-78861816D01*
X143377816Y-78734262D01*
X143473789Y-78581522D01*
X143533368Y-78411255D01*
X143533369Y-78411249D01*
X143553565Y-78232003D01*
X143553565Y-78231996D01*
X143533369Y-78052750D01*
X143533365Y-78052735D01*
X143528858Y-78039852D01*
X143525297Y-77970074D01*
X143560027Y-77909447D01*
X143622021Y-77877221D01*
X143645900Y-77874900D01*
X143882100Y-77874900D01*
X143949139Y-77894585D01*
X143994894Y-77947389D01*
X144004838Y-78016547D01*
X143999142Y-78039852D01*
X143994634Y-78052735D01*
X143994630Y-78052750D01*
X143974435Y-78231996D01*
X143974435Y-78232003D01*
X143994630Y-78411249D01*
X143994631Y-78411254D01*
X144054211Y-78581523D01*
X144150184Y-78734262D01*
X144277737Y-78861815D01*
X144277740Y-78861817D01*
X144321011Y-78889007D01*
X144367302Y-78941342D01*
X144377949Y-79010395D01*
X144349574Y-79074244D01*
X144321011Y-79098993D01*
X144277740Y-79126182D01*
X144277737Y-79126184D01*
X144150184Y-79253737D01*
X144054211Y-79406476D01*
X143994631Y-79576745D01*
X143994630Y-79576750D01*
X143974435Y-79755996D01*
X143974435Y-79756003D01*
X143994630Y-79935249D01*
X143994631Y-79935254D01*
X144054211Y-80105523D01*
X144087906Y-80159148D01*
X144150184Y-80258262D01*
X144277738Y-80385816D01*
X144430478Y-80481789D01*
X144600745Y-80541368D01*
X144600750Y-80541369D01*
X144779996Y-80561565D01*
X144780000Y-80561565D01*
X144780004Y-80561565D01*
X144959249Y-80541369D01*
X144959252Y-80541368D01*
X144959255Y-80541368D01*
X145129522Y-80481789D01*
X145282262Y-80385816D01*
X145409816Y-80258262D01*
X145505789Y-80105522D01*
X145565368Y-79935255D01*
X145565369Y-79935249D01*
X145585565Y-79756003D01*
X145585565Y-79755996D01*
X145565369Y-79576750D01*
X145565368Y-79576745D01*
X145538354Y-79499544D01*
X145505789Y-79406478D01*
X145494716Y-79388856D01*
X145409815Y-79253737D01*
X145282262Y-79126184D01*
X145259935Y-79112155D01*
X145238988Y-79098993D01*
X145192698Y-79046659D01*
X145182050Y-78977606D01*
X145210425Y-78913757D01*
X145238989Y-78889006D01*
X145282262Y-78861816D01*
X145409816Y-78734262D01*
X145505789Y-78581522D01*
X145565368Y-78411255D01*
X145565369Y-78411249D01*
X145585565Y-78232003D01*
X145585565Y-78231996D01*
X145565369Y-78052750D01*
X145565365Y-78052735D01*
X145560858Y-78039852D01*
X145557297Y-77970074D01*
X145592027Y-77909447D01*
X145654021Y-77877221D01*
X145677900Y-77874900D01*
X145914100Y-77874900D01*
X145981139Y-77894585D01*
X146026894Y-77947389D01*
X146036838Y-78016547D01*
X146031142Y-78039852D01*
X146026634Y-78052735D01*
X146026630Y-78052750D01*
X146006435Y-78231996D01*
X146006435Y-78232003D01*
X146026630Y-78411249D01*
X146026631Y-78411254D01*
X146086211Y-78581523D01*
X146182184Y-78734262D01*
X146295241Y-78847319D01*
X146328726Y-78908642D01*
X146323742Y-78978334D01*
X146295241Y-79022681D01*
X146170184Y-79147737D01*
X146074211Y-79300476D01*
X146014631Y-79470745D01*
X146014630Y-79470750D01*
X145994435Y-79649996D01*
X145994435Y-79650003D01*
X146014630Y-79829249D01*
X146014631Y-79829254D01*
X146074211Y-79999523D01*
X146140815Y-80105522D01*
X146170184Y-80152262D01*
X146297738Y-80279816D01*
X146450478Y-80375789D01*
X146620745Y-80435368D01*
X146620750Y-80435369D01*
X146799996Y-80455565D01*
X146800000Y-80455565D01*
X146800004Y-80455565D01*
X146979249Y-80435369D01*
X146979252Y-80435368D01*
X146979255Y-80435368D01*
X147149522Y-80375789D01*
X147302262Y-80279816D01*
X147429816Y-80152262D01*
X147525789Y-79999522D01*
X147585368Y-79829255D01*
X147593070Y-79760897D01*
X147605565Y-79650003D01*
X147605565Y-79649996D01*
X147585369Y-79470750D01*
X147585368Y-79470745D01*
X147545182Y-79355901D01*
X147525789Y-79300478D01*
X147518011Y-79288100D01*
X147454325Y-79186744D01*
X147429816Y-79147738D01*
X147316759Y-79034681D01*
X147283274Y-78973358D01*
X147288258Y-78903666D01*
X147316759Y-78859319D01*
X147374168Y-78801910D01*
X147441816Y-78734262D01*
X147537789Y-78581522D01*
X147597368Y-78411255D01*
X147597369Y-78411249D01*
X147617565Y-78232003D01*
X147617565Y-78231996D01*
X147597369Y-78052750D01*
X147597365Y-78052735D01*
X147592858Y-78039852D01*
X147589297Y-77970074D01*
X147624027Y-77909447D01*
X147686021Y-77877221D01*
X147709900Y-77874900D01*
X151337100Y-77874900D01*
X151404139Y-77894585D01*
X151449894Y-77947389D01*
X151461100Y-77998900D01*
X151461100Y-83864559D01*
X151441415Y-83931598D01*
X151388611Y-83977353D01*
X151319453Y-83987297D01*
X151255897Y-83958272D01*
X151229714Y-83926561D01*
X151228887Y-83925130D01*
X151227533Y-83922784D01*
X151100871Y-83782112D01*
X151100870Y-83782111D01*
X150947734Y-83670851D01*
X150947729Y-83670848D01*
X150774807Y-83593857D01*
X150774802Y-83593855D01*
X150622348Y-83561451D01*
X150589646Y-83554500D01*
X150400354Y-83554500D01*
X150367897Y-83561398D01*
X150215197Y-83593855D01*
X150215192Y-83593857D01*
X150042270Y-83670848D01*
X150042265Y-83670851D01*
X149889129Y-83782111D01*
X149762466Y-83922785D01*
X149667821Y-84086715D01*
X149667818Y-84086722D01*
X149609327Y-84266740D01*
X149609326Y-84266744D01*
X149589540Y-84455000D01*
X149609326Y-84643256D01*
X149609327Y-84643259D01*
X149667818Y-84823277D01*
X149667821Y-84823284D01*
X149762467Y-84987216D01*
X149820899Y-85052111D01*
X149889129Y-85127888D01*
X150042265Y-85239148D01*
X150042270Y-85239151D01*
X150215192Y-85316142D01*
X150215197Y-85316144D01*
X150400354Y-85355500D01*
X150400355Y-85355500D01*
X150589644Y-85355500D01*
X150589646Y-85355500D01*
X150774803Y-85316144D01*
X150947730Y-85239151D01*
X151100871Y-85127888D01*
X151227533Y-84987216D01*
X151229711Y-84983442D01*
X151280276Y-84935226D01*
X151348883Y-84922001D01*
X151413749Y-84947967D01*
X151454279Y-85004880D01*
X151461100Y-85045440D01*
X151461100Y-88464028D01*
X151441415Y-88531067D01*
X151388611Y-88576822D01*
X151319453Y-88586766D01*
X151284344Y-88574616D01*
X151283866Y-88575692D01*
X151105007Y-88496057D01*
X151105002Y-88496055D01*
X150954322Y-88464028D01*
X150919846Y-88456700D01*
X150730554Y-88456700D01*
X150698097Y-88463598D01*
X150545397Y-88496055D01*
X150545392Y-88496057D01*
X150372470Y-88573048D01*
X150372465Y-88573051D01*
X150219329Y-88684311D01*
X150092666Y-88824985D01*
X149998021Y-88988915D01*
X149998018Y-88988922D01*
X149951974Y-89130632D01*
X149939526Y-89168944D01*
X149937756Y-89185786D01*
X149930195Y-89257725D01*
X149903610Y-89322340D01*
X149846312Y-89362324D01*
X149776493Y-89364984D01*
X149750580Y-89355248D01*
X149690797Y-89324787D01*
X149328694Y-89185788D01*
X149328687Y-89185786D01*
X148954033Y-89085398D01*
X148954029Y-89085397D01*
X148954028Y-89085397D01*
X148570939Y-89024722D01*
X148183601Y-89004422D01*
X148183599Y-89004422D01*
X147796260Y-89024722D01*
X147413172Y-89085397D01*
X147413170Y-89085397D01*
X147038505Y-89185788D01*
X146676402Y-89324787D01*
X146330806Y-89500877D01*
X146005517Y-89712122D01*
X145704088Y-89956215D01*
X145704080Y-89956222D01*
X145429822Y-90230480D01*
X145429815Y-90230488D01*
X145185722Y-90531917D01*
X144974477Y-90857206D01*
X144798387Y-91202802D01*
X144659388Y-91564905D01*
X144558997Y-91939570D01*
X144558997Y-91939572D01*
X144498322Y-92322660D01*
X144478022Y-92709999D01*
X144478022Y-92710000D01*
X144498322Y-93097339D01*
X144553827Y-93447784D01*
X144558998Y-93480433D01*
X144652891Y-93830849D01*
X144659388Y-93855094D01*
X144798387Y-94217197D01*
X144974477Y-94562793D01*
X145185722Y-94888082D01*
X145316261Y-95049284D01*
X145429819Y-95189516D01*
X145704084Y-95463781D01*
X145704088Y-95463784D01*
X145793707Y-95536356D01*
X145833418Y-95593843D01*
X145835746Y-95663674D01*
X145799951Y-95723678D01*
X145737397Y-95754804D01*
X145689891Y-95754013D01*
X145684221Y-95752807D01*
X145535046Y-95721100D01*
X145345754Y-95721100D01*
X145313297Y-95727998D01*
X145160597Y-95760455D01*
X145160592Y-95760457D01*
X144987670Y-95837448D01*
X144987665Y-95837451D01*
X144834529Y-95948711D01*
X144707866Y-96089385D01*
X144613221Y-96253315D01*
X144613218Y-96253322D01*
X144554727Y-96433340D01*
X144554726Y-96433344D01*
X144534940Y-96621600D01*
X144554726Y-96809856D01*
X144554727Y-96809859D01*
X144613218Y-96989877D01*
X144613221Y-96989884D01*
X144707867Y-97153816D01*
X144834529Y-97294488D01*
X144987665Y-97405748D01*
X144987670Y-97405751D01*
X145160592Y-97482742D01*
X145160597Y-97482744D01*
X145345754Y-97522100D01*
X145345755Y-97522100D01*
X145535044Y-97522100D01*
X145535046Y-97522100D01*
X145607138Y-97506776D01*
X145676802Y-97512092D01*
X145732536Y-97554228D01*
X145756642Y-97619808D01*
X145749958Y-97669021D01*
X145652584Y-97947298D01*
X145652580Y-97947310D01*
X145584338Y-98246300D01*
X145584336Y-98246316D01*
X145550000Y-98551053D01*
X145550000Y-98700333D01*
X145549735Y-98708443D01*
X145532313Y-98974252D01*
X145530195Y-98990333D01*
X145479025Y-99247581D01*
X145474827Y-99263249D01*
X145390513Y-99511628D01*
X145384306Y-99526613D01*
X145268295Y-99761860D01*
X145260185Y-99775907D01*
X145114461Y-99993999D01*
X145104587Y-100006867D01*
X144931642Y-100204073D01*
X144920173Y-100215542D01*
X144722967Y-100388487D01*
X144710099Y-100398361D01*
X144492007Y-100544085D01*
X144477960Y-100552195D01*
X144242713Y-100668206D01*
X144227728Y-100674413D01*
X143979349Y-100758727D01*
X143963689Y-100762923D01*
X143869153Y-100781728D01*
X143799562Y-100775500D01*
X143744385Y-100732636D01*
X143721141Y-100666746D01*
X143727031Y-100621797D01*
X143760674Y-100518256D01*
X143780460Y-100330000D01*
X143760674Y-100141744D01*
X143702179Y-99961716D01*
X143607533Y-99797784D01*
X143480871Y-99657112D01*
X143480870Y-99657111D01*
X143327734Y-99545851D01*
X143327729Y-99545848D01*
X143154807Y-99468857D01*
X143154802Y-99468855D01*
X143009001Y-99437865D01*
X142969646Y-99429500D01*
X142780354Y-99429500D01*
X142747897Y-99436398D01*
X142595197Y-99468855D01*
X142595192Y-99468857D01*
X142422270Y-99545848D01*
X142422265Y-99545851D01*
X142269129Y-99657111D01*
X142142466Y-99797785D01*
X142047821Y-99961715D01*
X142047818Y-99961722D01*
X142033150Y-100006867D01*
X141989326Y-100141744D01*
X141969540Y-100330000D01*
X141989326Y-100518256D01*
X141989327Y-100518259D01*
X142039145Y-100671582D01*
X142041140Y-100741423D01*
X142005060Y-100801256D01*
X141942359Y-100832084D01*
X141921214Y-100833900D01*
X141288786Y-100833900D01*
X141221747Y-100814215D01*
X141175992Y-100761411D01*
X141166048Y-100692253D01*
X141170855Y-100671582D01*
X141209646Y-100552195D01*
X141220674Y-100518256D01*
X141240460Y-100330000D01*
X141220674Y-100141744D01*
X141162179Y-99961716D01*
X141067533Y-99797784D01*
X140940871Y-99657112D01*
X140940870Y-99657111D01*
X140787734Y-99545851D01*
X140787729Y-99545848D01*
X140614807Y-99468857D01*
X140614802Y-99468855D01*
X140469001Y-99437865D01*
X140429646Y-99429500D01*
X140240354Y-99429500D01*
X140207897Y-99436398D01*
X140055197Y-99468855D01*
X140055192Y-99468857D01*
X139882270Y-99545848D01*
X139882265Y-99545851D01*
X139729129Y-99657111D01*
X139602466Y-99797785D01*
X139507821Y-99961715D01*
X139507818Y-99961722D01*
X139493150Y-100006867D01*
X139449326Y-100141744D01*
X139429540Y-100330000D01*
X139449326Y-100518256D01*
X139449327Y-100518259D01*
X139499145Y-100671582D01*
X139501140Y-100741423D01*
X139465060Y-100801256D01*
X139402359Y-100832084D01*
X139381214Y-100833900D01*
X138113786Y-100833900D01*
X138046747Y-100814215D01*
X138000992Y-100761411D01*
X137991048Y-100692253D01*
X137995855Y-100671582D01*
X138034646Y-100552195D01*
X138045674Y-100518256D01*
X138065460Y-100330000D01*
X138045674Y-100141744D01*
X137987179Y-99961716D01*
X137892533Y-99797784D01*
X137765871Y-99657112D01*
X137765870Y-99657111D01*
X137612734Y-99545851D01*
X137612729Y-99545848D01*
X137439807Y-99468857D01*
X137439802Y-99468855D01*
X137294001Y-99437865D01*
X137254646Y-99429500D01*
X137065354Y-99429500D01*
X137032897Y-99436398D01*
X136880197Y-99468855D01*
X136880192Y-99468857D01*
X136707270Y-99545848D01*
X136707265Y-99545851D01*
X136554129Y-99657111D01*
X136427466Y-99797785D01*
X136332821Y-99961715D01*
X136332818Y-99961722D01*
X136318150Y-100006867D01*
X136274326Y-100141744D01*
X136254540Y-100330000D01*
X136274326Y-100518256D01*
X136274327Y-100518259D01*
X136324145Y-100671582D01*
X136326140Y-100741423D01*
X136290060Y-100801256D01*
X136227359Y-100832084D01*
X136206214Y-100833900D01*
X133899500Y-100833900D01*
X133832461Y-100814215D01*
X133786706Y-100761411D01*
X133775500Y-100709900D01*
X133775500Y-97950003D01*
X134544435Y-97950003D01*
X134564630Y-98129249D01*
X134564631Y-98129254D01*
X134624211Y-98299523D01*
X134703961Y-98426444D01*
X134720184Y-98452262D01*
X134847738Y-98579816D01*
X135000478Y-98675789D01*
X135070621Y-98700333D01*
X135170745Y-98735368D01*
X135170750Y-98735369D01*
X135349996Y-98755565D01*
X135350000Y-98755565D01*
X135350004Y-98755565D01*
X135529249Y-98735369D01*
X135529252Y-98735368D01*
X135529255Y-98735368D01*
X135699522Y-98675789D01*
X135852262Y-98579816D01*
X135979816Y-98452262D01*
X136075789Y-98299522D01*
X136135368Y-98129255D01*
X136155565Y-97950000D01*
X136135368Y-97770745D01*
X136075789Y-97600478D01*
X135979816Y-97447738D01*
X135852262Y-97320184D01*
X135811367Y-97294488D01*
X135699523Y-97224211D01*
X135529254Y-97164631D01*
X135529249Y-97164630D01*
X135350004Y-97144435D01*
X135349996Y-97144435D01*
X135170750Y-97164630D01*
X135170745Y-97164631D01*
X135000476Y-97224211D01*
X134847737Y-97320184D01*
X134720184Y-97447737D01*
X134624211Y-97600476D01*
X134564631Y-97770745D01*
X134564630Y-97770750D01*
X134544435Y-97949996D01*
X134544435Y-97950003D01*
X133775500Y-97950003D01*
X133775500Y-95910400D01*
X136864140Y-95910400D01*
X136883926Y-96098656D01*
X136883927Y-96098659D01*
X136942418Y-96278677D01*
X136942421Y-96278684D01*
X137037067Y-96442616D01*
X137123400Y-96538498D01*
X137163729Y-96583288D01*
X137316865Y-96694548D01*
X137316870Y-96694551D01*
X137489792Y-96771542D01*
X137489797Y-96771544D01*
X137674954Y-96810900D01*
X137674955Y-96810900D01*
X137864244Y-96810900D01*
X137864246Y-96810900D01*
X138049403Y-96771544D01*
X138222330Y-96694551D01*
X138375471Y-96583288D01*
X138502133Y-96442616D01*
X138596779Y-96278684D01*
X138655274Y-96098656D01*
X138675060Y-95910400D01*
X138655274Y-95722144D01*
X138596779Y-95542116D01*
X138502133Y-95378184D01*
X138375471Y-95237512D01*
X138375470Y-95237511D01*
X138222334Y-95126251D01*
X138222332Y-95126250D01*
X138082818Y-95064133D01*
X138029582Y-95018882D01*
X138009261Y-94952033D01*
X138028307Y-94884810D01*
X138080673Y-94838555D01*
X138082819Y-94837575D01*
X138159893Y-94803259D01*
X138247730Y-94764151D01*
X138400871Y-94652888D01*
X138527533Y-94512216D01*
X138622179Y-94348284D01*
X138629569Y-94325541D01*
X138669006Y-94267865D01*
X138733364Y-94240666D01*
X138802210Y-94252580D01*
X138853687Y-94299824D01*
X138865431Y-94325541D01*
X138872817Y-94348275D01*
X138872821Y-94348284D01*
X138967467Y-94512216D01*
X139094129Y-94652888D01*
X139247265Y-94764148D01*
X139247270Y-94764151D01*
X139420192Y-94841142D01*
X139420197Y-94841144D01*
X139605354Y-94880500D01*
X139605355Y-94880500D01*
X139794644Y-94880500D01*
X139794646Y-94880500D01*
X139979803Y-94841144D01*
X140152730Y-94764151D01*
X140305871Y-94652888D01*
X140432533Y-94512216D01*
X140527179Y-94348284D01*
X140585674Y-94168256D01*
X140605460Y-93980000D01*
X140585674Y-93791744D01*
X140527179Y-93611716D01*
X140432533Y-93447784D01*
X140305871Y-93307112D01*
X140305870Y-93307111D01*
X140152734Y-93195851D01*
X140152729Y-93195848D01*
X139979807Y-93118857D01*
X139979802Y-93118855D01*
X139834001Y-93087865D01*
X139794646Y-93079500D01*
X139605354Y-93079500D01*
X139572897Y-93086398D01*
X139420197Y-93118855D01*
X139420192Y-93118857D01*
X139247270Y-93195848D01*
X139247265Y-93195851D01*
X139094129Y-93307111D01*
X138967466Y-93447785D01*
X138872821Y-93611715D01*
X138872818Y-93611722D01*
X138865431Y-93634459D01*
X138825993Y-93692135D01*
X138761635Y-93719333D01*
X138692789Y-93707418D01*
X138641313Y-93660174D01*
X138629569Y-93634459D01*
X138622181Y-93611722D01*
X138622180Y-93611721D01*
X138622179Y-93611716D01*
X138527533Y-93447784D01*
X138400871Y-93307112D01*
X138400870Y-93307111D01*
X138247734Y-93195851D01*
X138247729Y-93195848D01*
X138074807Y-93118857D01*
X138074802Y-93118855D01*
X137929001Y-93087865D01*
X137889646Y-93079500D01*
X137700354Y-93079500D01*
X137667897Y-93086398D01*
X137515197Y-93118855D01*
X137515192Y-93118857D01*
X137342270Y-93195848D01*
X137342265Y-93195851D01*
X137189129Y-93307111D01*
X137062466Y-93447785D01*
X136967821Y-93611715D01*
X136967818Y-93611722D01*
X136921636Y-93753857D01*
X136909326Y-93791744D01*
X136889540Y-93980000D01*
X136909326Y-94168256D01*
X136909327Y-94168259D01*
X136967818Y-94348277D01*
X136967821Y-94348284D01*
X137062467Y-94512216D01*
X137189129Y-94652888D01*
X137342265Y-94764148D01*
X137342270Y-94764151D01*
X137481780Y-94826266D01*
X137535017Y-94871516D01*
X137555338Y-94938365D01*
X137536292Y-95005589D01*
X137483926Y-95051844D01*
X137481781Y-95052824D01*
X137316867Y-95126250D01*
X137316865Y-95126251D01*
X137163729Y-95237511D01*
X137037066Y-95378185D01*
X136942421Y-95542115D01*
X136942418Y-95542122D01*
X136902924Y-95663674D01*
X136883926Y-95722144D01*
X136864140Y-95910400D01*
X133775500Y-95910400D01*
X133775500Y-91440000D01*
X136254540Y-91440000D01*
X136274326Y-91628256D01*
X136274327Y-91628259D01*
X136332818Y-91808277D01*
X136332821Y-91808284D01*
X136427467Y-91972216D01*
X136554129Y-92112888D01*
X136707265Y-92224148D01*
X136707270Y-92224151D01*
X136880192Y-92301142D01*
X136880197Y-92301144D01*
X137065354Y-92340500D01*
X137065355Y-92340500D01*
X137254644Y-92340500D01*
X137254646Y-92340500D01*
X137439803Y-92301144D01*
X137612730Y-92224151D01*
X137765871Y-92112888D01*
X137892533Y-91972216D01*
X137987179Y-91808284D01*
X138045674Y-91628256D01*
X138065460Y-91440000D01*
X138794540Y-91440000D01*
X138814326Y-91628256D01*
X138814327Y-91628259D01*
X138872818Y-91808277D01*
X138872821Y-91808284D01*
X138967467Y-91972216D01*
X139094129Y-92112888D01*
X139247265Y-92224148D01*
X139247270Y-92224151D01*
X139420192Y-92301142D01*
X139420197Y-92301144D01*
X139605354Y-92340500D01*
X139605355Y-92340500D01*
X139794644Y-92340500D01*
X139794646Y-92340500D01*
X139979803Y-92301144D01*
X140152730Y-92224151D01*
X140305871Y-92112888D01*
X140432533Y-91972216D01*
X140527179Y-91808284D01*
X140585674Y-91628256D01*
X140605460Y-91440000D01*
X141334540Y-91440000D01*
X141354326Y-91628256D01*
X141354327Y-91628259D01*
X141412818Y-91808277D01*
X141412821Y-91808284D01*
X141507467Y-91972216D01*
X141634129Y-92112888D01*
X141787265Y-92224148D01*
X141787270Y-92224151D01*
X141960192Y-92301142D01*
X141960197Y-92301144D01*
X142145354Y-92340500D01*
X142145355Y-92340500D01*
X142334644Y-92340500D01*
X142334646Y-92340500D01*
X142519803Y-92301144D01*
X142692730Y-92224151D01*
X142845871Y-92112888D01*
X142972533Y-91972216D01*
X143067179Y-91808284D01*
X143125674Y-91628256D01*
X143145460Y-91440000D01*
X143125674Y-91251744D01*
X143067179Y-91071716D01*
X142972533Y-90907784D01*
X142845871Y-90767112D01*
X142845870Y-90767111D01*
X142692734Y-90655851D01*
X142692729Y-90655848D01*
X142519807Y-90578857D01*
X142519802Y-90578855D01*
X142374001Y-90547865D01*
X142334646Y-90539500D01*
X142145354Y-90539500D01*
X142115644Y-90545815D01*
X141960197Y-90578855D01*
X141960192Y-90578857D01*
X141787270Y-90655848D01*
X141787265Y-90655851D01*
X141634129Y-90767111D01*
X141507466Y-90907785D01*
X141412821Y-91071715D01*
X141412818Y-91071722D01*
X141356008Y-91246566D01*
X141354326Y-91251744D01*
X141334540Y-91440000D01*
X140605460Y-91440000D01*
X140585674Y-91251744D01*
X140527179Y-91071716D01*
X140432533Y-90907784D01*
X140305871Y-90767112D01*
X140305870Y-90767111D01*
X140152734Y-90655851D01*
X140152729Y-90655848D01*
X139979807Y-90578857D01*
X139979802Y-90578855D01*
X139834001Y-90547865D01*
X139794646Y-90539500D01*
X139605354Y-90539500D01*
X139575644Y-90545815D01*
X139420197Y-90578855D01*
X139420192Y-90578857D01*
X139247270Y-90655848D01*
X139247265Y-90655851D01*
X139094129Y-90767111D01*
X138967466Y-90907785D01*
X138872821Y-91071715D01*
X138872818Y-91071722D01*
X138816008Y-91246566D01*
X138814326Y-91251744D01*
X138794540Y-91440000D01*
X138065460Y-91440000D01*
X138045674Y-91251744D01*
X137987179Y-91071716D01*
X137892533Y-90907784D01*
X137765871Y-90767112D01*
X137765870Y-90767111D01*
X137612734Y-90655851D01*
X137612729Y-90655848D01*
X137439807Y-90578857D01*
X137439802Y-90578855D01*
X137294001Y-90547865D01*
X137254646Y-90539500D01*
X137065354Y-90539500D01*
X137035644Y-90545815D01*
X136880197Y-90578855D01*
X136880192Y-90578857D01*
X136707270Y-90655848D01*
X136707265Y-90655851D01*
X136554129Y-90767111D01*
X136427466Y-90907785D01*
X136332821Y-91071715D01*
X136332818Y-91071722D01*
X136276008Y-91246566D01*
X136274326Y-91251744D01*
X136254540Y-91440000D01*
X133775500Y-91440000D01*
X133775500Y-91340472D01*
X133795185Y-91273433D01*
X133847989Y-91227678D01*
X133849064Y-91227193D01*
X134005930Y-91157351D01*
X134159071Y-91046088D01*
X134285733Y-90905416D01*
X134380379Y-90741484D01*
X134438874Y-90561456D01*
X134458660Y-90373200D01*
X134438874Y-90184944D01*
X134380379Y-90004916D01*
X134285733Y-89840984D01*
X134159071Y-89700312D01*
X134159070Y-89700311D01*
X134005934Y-89589051D01*
X134005929Y-89589048D01*
X133849064Y-89519206D01*
X133795827Y-89473955D01*
X133775506Y-89407106D01*
X133775500Y-89405927D01*
X133775500Y-88298900D01*
X133795185Y-88231861D01*
X133847989Y-88186106D01*
X133899500Y-88174900D01*
X134054244Y-88174900D01*
X134054246Y-88174900D01*
X134239403Y-88135544D01*
X134412330Y-88058551D01*
X134565471Y-87947288D01*
X134692133Y-87806616D01*
X134786779Y-87642684D01*
X134800647Y-87600003D01*
X140194435Y-87600003D01*
X140214630Y-87779249D01*
X140214631Y-87779254D01*
X140274211Y-87949523D01*
X140345674Y-88063255D01*
X140370184Y-88102262D01*
X140497738Y-88229816D01*
X140650478Y-88325789D01*
X140793367Y-88375788D01*
X140820745Y-88385368D01*
X140820750Y-88385369D01*
X140999996Y-88405565D01*
X141000000Y-88405565D01*
X141000004Y-88405565D01*
X141179249Y-88385369D01*
X141179252Y-88385368D01*
X141179255Y-88385368D01*
X141349522Y-88325789D01*
X141502262Y-88229816D01*
X141629816Y-88102262D01*
X141725789Y-87949522D01*
X141785368Y-87779255D01*
X141793763Y-87704750D01*
X141805565Y-87600003D01*
X141805565Y-87599996D01*
X141785369Y-87420750D01*
X141785368Y-87420745D01*
X141771719Y-87381738D01*
X141725789Y-87250478D01*
X141717634Y-87237500D01*
X141661232Y-87147737D01*
X141629816Y-87097738D01*
X141502262Y-86970184D01*
X141466484Y-86947703D01*
X141349523Y-86874211D01*
X141179254Y-86814631D01*
X141179249Y-86814630D01*
X141000004Y-86794435D01*
X140999996Y-86794435D01*
X140820750Y-86814630D01*
X140820745Y-86814631D01*
X140650476Y-86874211D01*
X140497737Y-86970184D01*
X140370184Y-87097737D01*
X140274211Y-87250476D01*
X140214631Y-87420745D01*
X140214630Y-87420750D01*
X140194435Y-87599996D01*
X140194435Y-87600003D01*
X134800647Y-87600003D01*
X134845274Y-87462656D01*
X134865060Y-87274400D01*
X134845274Y-87086144D01*
X134786779Y-86906116D01*
X134692133Y-86742184D01*
X134565471Y-86601512D01*
X134544316Y-86586142D01*
X134412334Y-86490251D01*
X134412329Y-86490248D01*
X134239407Y-86413257D01*
X134239402Y-86413255D01*
X134093601Y-86382265D01*
X134054246Y-86373900D01*
X133899500Y-86373900D01*
X133832461Y-86354215D01*
X133786706Y-86301411D01*
X133775500Y-86249900D01*
X133775500Y-83944010D01*
X133775500Y-83944000D01*
X133763947Y-83836544D01*
X133762524Y-83830003D01*
X145164435Y-83830003D01*
X145184630Y-84009249D01*
X145184631Y-84009254D01*
X145244211Y-84179523D01*
X145299016Y-84266744D01*
X145340184Y-84332262D01*
X145467738Y-84459816D01*
X145558080Y-84516582D01*
X145610470Y-84549501D01*
X145620478Y-84555789D01*
X145764550Y-84606202D01*
X145790745Y-84615368D01*
X145790750Y-84615369D01*
X145969996Y-84635565D01*
X145970000Y-84635565D01*
X145970004Y-84635565D01*
X146149249Y-84615369D01*
X146149252Y-84615368D01*
X146149255Y-84615368D01*
X146319522Y-84555789D01*
X146472262Y-84459816D01*
X146477078Y-84455000D01*
X147049540Y-84455000D01*
X147069326Y-84643256D01*
X147069327Y-84643259D01*
X147127818Y-84823277D01*
X147127821Y-84823284D01*
X147222467Y-84987216D01*
X147280899Y-85052111D01*
X147349129Y-85127888D01*
X147502265Y-85239148D01*
X147502270Y-85239151D01*
X147675192Y-85316142D01*
X147675197Y-85316144D01*
X147860354Y-85355500D01*
X147860355Y-85355500D01*
X148049644Y-85355500D01*
X148049646Y-85355500D01*
X148234803Y-85316144D01*
X148407730Y-85239151D01*
X148560871Y-85127888D01*
X148687533Y-84987216D01*
X148782179Y-84823284D01*
X148840674Y-84643256D01*
X148860460Y-84455000D01*
X148840674Y-84266744D01*
X148782179Y-84086716D01*
X148687533Y-83922784D01*
X148560871Y-83782112D01*
X148560870Y-83782111D01*
X148407734Y-83670851D01*
X148407729Y-83670848D01*
X148234807Y-83593857D01*
X148234802Y-83593855D01*
X148082348Y-83561451D01*
X148049646Y-83554500D01*
X147860354Y-83554500D01*
X147827897Y-83561398D01*
X147675197Y-83593855D01*
X147675192Y-83593857D01*
X147502270Y-83670848D01*
X147502265Y-83670851D01*
X147349129Y-83782111D01*
X147222466Y-83922785D01*
X147127821Y-84086715D01*
X147127818Y-84086722D01*
X147069327Y-84266740D01*
X147069326Y-84266744D01*
X147049540Y-84455000D01*
X146477078Y-84455000D01*
X146599816Y-84332262D01*
X146695789Y-84179522D01*
X146755368Y-84009255D01*
X146757842Y-83987297D01*
X146775565Y-83830003D01*
X146775565Y-83829996D01*
X146755369Y-83650750D01*
X146755368Y-83650745D01*
X146735461Y-83593855D01*
X146695789Y-83480478D01*
X146676117Y-83449171D01*
X146654288Y-83414430D01*
X146599816Y-83327738D01*
X146472262Y-83200184D01*
X146456850Y-83190500D01*
X146319523Y-83104211D01*
X146149254Y-83044631D01*
X146149249Y-83044630D01*
X145970004Y-83024435D01*
X145969996Y-83024435D01*
X145790750Y-83044630D01*
X145790745Y-83044631D01*
X145620476Y-83104211D01*
X145467737Y-83200184D01*
X145340184Y-83327737D01*
X145244211Y-83480476D01*
X145184631Y-83650745D01*
X145184630Y-83650750D01*
X145164435Y-83829996D01*
X145164435Y-83830003D01*
X133762524Y-83830003D01*
X133752741Y-83785033D01*
X133751768Y-83782111D01*
X133718616Y-83682502D01*
X133718613Y-83682496D01*
X133640828Y-83561462D01*
X133640825Y-83561457D01*
X133634797Y-83554500D01*
X133595076Y-83508659D01*
X133595072Y-83508656D01*
X133595070Y-83508653D01*
X133486336Y-83414433D01*
X133486333Y-83414431D01*
X133486331Y-83414430D01*
X133355465Y-83354664D01*
X133355460Y-83354662D01*
X133355459Y-83354662D01*
X133288420Y-83334977D01*
X133288422Y-83334977D01*
X133288417Y-83334976D01*
X133226347Y-83326052D01*
X133146000Y-83314500D01*
X133145998Y-83314500D01*
X131679604Y-83314500D01*
X131612565Y-83294815D01*
X131566810Y-83242011D01*
X131556866Y-83172853D01*
X131585891Y-83109297D01*
X131613632Y-83085506D01*
X131618871Y-83082214D01*
X131702262Y-83029816D01*
X131829816Y-82902262D01*
X131925789Y-82749522D01*
X131985368Y-82579255D01*
X131985369Y-82579249D01*
X132005565Y-82400003D01*
X132005565Y-82399996D01*
X131985369Y-82220750D01*
X131985368Y-82220745D01*
X131925788Y-82050475D01*
X131856982Y-81940973D01*
X131837981Y-81873736D01*
X131856982Y-81809027D01*
X131868763Y-81790279D01*
X131925789Y-81699522D01*
X131985368Y-81529255D01*
X131985369Y-81529249D01*
X132005565Y-81350003D01*
X132005565Y-81349996D01*
X131985369Y-81170750D01*
X131985368Y-81170745D01*
X131936720Y-81031718D01*
X131925789Y-81000478D01*
X131829816Y-80847738D01*
X131702262Y-80720184D01*
X131634027Y-80677309D01*
X131549523Y-80624211D01*
X131379254Y-80564631D01*
X131379249Y-80564630D01*
X131200004Y-80544435D01*
X131199996Y-80544435D01*
X131020750Y-80564630D01*
X131020737Y-80564633D01*
X130850479Y-80624209D01*
X130765971Y-80677309D01*
X130698734Y-80696309D01*
X130634029Y-80677309D01*
X130549520Y-80624209D01*
X130379262Y-80564633D01*
X130379249Y-80564630D01*
X130200004Y-80544435D01*
X130199996Y-80544435D01*
X130020750Y-80564630D01*
X130020745Y-80564631D01*
X129850476Y-80624211D01*
X129715972Y-80708727D01*
X129648736Y-80727727D01*
X129584028Y-80708727D01*
X129449523Y-80624211D01*
X129279254Y-80564631D01*
X129279249Y-80564630D01*
X129100004Y-80544435D01*
X129099996Y-80544435D01*
X128920750Y-80564630D01*
X128920745Y-80564631D01*
X128750476Y-80624211D01*
X128597737Y-80720184D01*
X128470184Y-80847737D01*
X128374211Y-81000476D01*
X128314631Y-81170745D01*
X128314630Y-81170750D01*
X128294435Y-81349996D01*
X128294435Y-81350003D01*
X128314630Y-81529249D01*
X128314631Y-81529254D01*
X128374211Y-81699523D01*
X128443018Y-81809028D01*
X128462018Y-81876265D01*
X128443018Y-81940972D01*
X128374211Y-82050476D01*
X128314631Y-82220745D01*
X128314630Y-82220750D01*
X128294435Y-82399996D01*
X128294435Y-82400003D01*
X128314630Y-82579249D01*
X128314631Y-82579254D01*
X128374211Y-82749523D01*
X128449802Y-82869824D01*
X128470184Y-82902262D01*
X128597738Y-83029816D01*
X128681068Y-83082176D01*
X128686368Y-83085506D01*
X128732659Y-83137841D01*
X128743307Y-83206895D01*
X128714932Y-83270743D01*
X128656542Y-83309115D01*
X128620396Y-83314500D01*
X115964460Y-83314500D01*
X115897421Y-83294815D01*
X115851666Y-83242011D01*
X115840460Y-83190500D01*
X115840460Y-83185002D01*
X115839183Y-83172853D01*
X115820674Y-82996744D01*
X115762179Y-82816716D01*
X115667533Y-82652784D01*
X115540871Y-82512112D01*
X115540870Y-82512111D01*
X115387734Y-82400851D01*
X115387729Y-82400848D01*
X115214807Y-82323857D01*
X115214802Y-82323855D01*
X115069001Y-82292865D01*
X115029646Y-82284500D01*
X114840354Y-82284500D01*
X114807897Y-82291398D01*
X114655197Y-82323855D01*
X114655192Y-82323857D01*
X114482270Y-82400848D01*
X114482265Y-82400851D01*
X114329129Y-82512111D01*
X114202466Y-82652785D01*
X114107821Y-82816715D01*
X114107818Y-82816722D01*
X114054091Y-82982078D01*
X114049326Y-82996744D01*
X114030817Y-83172853D01*
X114029540Y-83185002D01*
X114029540Y-83190500D01*
X114009855Y-83257539D01*
X113957051Y-83303294D01*
X113905540Y-83314500D01*
X113424460Y-83314500D01*
X113357421Y-83294815D01*
X113311666Y-83242011D01*
X113300460Y-83190500D01*
X113300460Y-83185002D01*
X113299183Y-83172853D01*
X113280674Y-82996744D01*
X113222179Y-82816716D01*
X113127533Y-82652784D01*
X113000871Y-82512112D01*
X113000870Y-82512111D01*
X112847734Y-82400851D01*
X112847729Y-82400848D01*
X112674807Y-82323857D01*
X112674802Y-82323855D01*
X112529001Y-82292865D01*
X112489646Y-82284500D01*
X112300354Y-82284500D01*
X112267897Y-82291398D01*
X112115197Y-82323855D01*
X112115192Y-82323857D01*
X111942270Y-82400848D01*
X111942265Y-82400851D01*
X111789129Y-82512111D01*
X111662466Y-82652785D01*
X111567821Y-82816715D01*
X111567818Y-82816722D01*
X111514091Y-82982078D01*
X111509326Y-82996744D01*
X111490817Y-83172853D01*
X111489540Y-83185002D01*
X111489540Y-83190500D01*
X111469855Y-83257539D01*
X111417051Y-83303294D01*
X111365540Y-83314500D01*
X108979460Y-83314500D01*
X108912421Y-83294815D01*
X108866666Y-83242011D01*
X108855460Y-83190500D01*
X108855460Y-83185002D01*
X108854183Y-83172853D01*
X108835674Y-82996744D01*
X108777179Y-82816716D01*
X108682533Y-82652784D01*
X108555871Y-82512112D01*
X108555870Y-82512111D01*
X108402734Y-82400851D01*
X108402729Y-82400848D01*
X108229807Y-82323857D01*
X108229802Y-82323855D01*
X108084001Y-82292865D01*
X108044646Y-82284500D01*
X107855354Y-82284500D01*
X107822897Y-82291398D01*
X107670197Y-82323855D01*
X107670192Y-82323857D01*
X107497270Y-82400848D01*
X107497265Y-82400851D01*
X107344129Y-82512111D01*
X107217466Y-82652785D01*
X107122821Y-82816715D01*
X107122818Y-82816722D01*
X107069091Y-82982078D01*
X107064326Y-82996744D01*
X107045817Y-83172853D01*
X107044540Y-83185002D01*
X107044540Y-83190500D01*
X107024855Y-83257539D01*
X106972051Y-83303294D01*
X106920540Y-83314500D01*
X102994000Y-83314500D01*
X102993991Y-83314500D01*
X102993990Y-83314501D01*
X102886549Y-83326052D01*
X102886537Y-83326054D01*
X102835027Y-83337260D01*
X102732502Y-83371383D01*
X102732496Y-83371386D01*
X102611462Y-83449171D01*
X102611451Y-83449179D01*
X102558659Y-83494923D01*
X102464433Y-83603664D01*
X102464430Y-83603668D01*
X102404664Y-83734534D01*
X102384976Y-83801582D01*
X102379949Y-83836549D01*
X102364502Y-83943990D01*
X102364500Y-83944001D01*
X102364500Y-95849900D01*
X102344815Y-95916939D01*
X102292011Y-95962694D01*
X102240500Y-95973900D01*
X89683965Y-95973900D01*
X89527776Y-96004968D01*
X89527768Y-96004970D01*
X89380630Y-96065917D01*
X89248212Y-96154395D01*
X89248205Y-96154401D01*
X89135601Y-96267005D01*
X89135595Y-96267012D01*
X89047117Y-96399430D01*
X88986170Y-96546568D01*
X88986168Y-96546576D01*
X88955100Y-96702765D01*
X88955100Y-96772642D01*
X88953573Y-96792042D01*
X88948016Y-96827123D01*
X88936028Y-96864017D01*
X88924386Y-96886866D01*
X88901582Y-96918253D01*
X88883453Y-96936382D01*
X88852066Y-96959186D01*
X88829217Y-96970828D01*
X88792324Y-96982816D01*
X88780449Y-96984697D01*
X88757237Y-96988373D01*
X88737843Y-96989900D01*
X72602957Y-96989900D01*
X72583561Y-96988373D01*
X72563544Y-96985202D01*
X72548476Y-96982816D01*
X72511582Y-96970828D01*
X72488733Y-96959186D01*
X72457346Y-96936382D01*
X72439217Y-96918253D01*
X72416413Y-96886866D01*
X72404771Y-96864017D01*
X72392784Y-96827126D01*
X72387229Y-96792059D01*
X72385704Y-96772620D01*
X72386784Y-94615000D01*
X89899540Y-94615000D01*
X89919326Y-94803256D01*
X89919327Y-94803259D01*
X89977818Y-94983277D01*
X89977821Y-94983284D01*
X90072467Y-95147216D01*
X90199129Y-95287888D01*
X90352265Y-95399148D01*
X90352270Y-95399151D01*
X90525192Y-95476142D01*
X90525197Y-95476144D01*
X90710354Y-95515500D01*
X90710355Y-95515500D01*
X90899644Y-95515500D01*
X90899646Y-95515500D01*
X91084803Y-95476144D01*
X91257730Y-95399151D01*
X91410871Y-95287888D01*
X91537533Y-95147216D01*
X91632179Y-94983284D01*
X91690674Y-94803256D01*
X91710460Y-94615000D01*
X92439540Y-94615000D01*
X92459326Y-94803256D01*
X92459327Y-94803259D01*
X92517818Y-94983277D01*
X92517821Y-94983284D01*
X92612467Y-95147216D01*
X92739129Y-95287888D01*
X92892265Y-95399148D01*
X92892270Y-95399151D01*
X93065192Y-95476142D01*
X93065197Y-95476144D01*
X93250354Y-95515500D01*
X93250355Y-95515500D01*
X93439644Y-95515500D01*
X93439646Y-95515500D01*
X93624803Y-95476144D01*
X93797730Y-95399151D01*
X93950871Y-95287888D01*
X94077533Y-95147216D01*
X94172179Y-94983284D01*
X94230674Y-94803256D01*
X94250460Y-94615000D01*
X94979540Y-94615000D01*
X94999326Y-94803256D01*
X94999327Y-94803259D01*
X95057818Y-94983277D01*
X95057821Y-94983284D01*
X95152467Y-95147216D01*
X95279129Y-95287888D01*
X95432265Y-95399148D01*
X95432270Y-95399151D01*
X95605192Y-95476142D01*
X95605197Y-95476144D01*
X95790354Y-95515500D01*
X95790355Y-95515500D01*
X95979644Y-95515500D01*
X95979646Y-95515500D01*
X96164803Y-95476144D01*
X96337730Y-95399151D01*
X96490871Y-95287888D01*
X96617533Y-95147216D01*
X96712179Y-94983284D01*
X96770674Y-94803256D01*
X96790460Y-94615000D01*
X96770674Y-94426744D01*
X96712179Y-94246716D01*
X96617533Y-94082784D01*
X96490871Y-93942112D01*
X96490870Y-93942111D01*
X96337734Y-93830851D01*
X96337729Y-93830848D01*
X96164807Y-93753857D01*
X96164802Y-93753855D01*
X96019001Y-93722865D01*
X95979646Y-93714500D01*
X95790354Y-93714500D01*
X95757897Y-93721398D01*
X95605197Y-93753855D01*
X95605192Y-93753857D01*
X95432270Y-93830848D01*
X95432265Y-93830851D01*
X95279129Y-93942111D01*
X95152466Y-94082785D01*
X95057821Y-94246715D01*
X95057818Y-94246722D01*
X95003834Y-94412870D01*
X94999326Y-94426744D01*
X94979540Y-94615000D01*
X94250460Y-94615000D01*
X94230674Y-94426744D01*
X94172179Y-94246716D01*
X94077533Y-94082784D01*
X93950871Y-93942112D01*
X93950870Y-93942111D01*
X93797734Y-93830851D01*
X93797729Y-93830848D01*
X93624807Y-93753857D01*
X93624802Y-93753855D01*
X93479001Y-93722865D01*
X93439646Y-93714500D01*
X93250354Y-93714500D01*
X93217897Y-93721398D01*
X93065197Y-93753855D01*
X93065192Y-93753857D01*
X92892270Y-93830848D01*
X92892265Y-93830851D01*
X92739129Y-93942111D01*
X92612466Y-94082785D01*
X92517821Y-94246715D01*
X92517818Y-94246722D01*
X92463834Y-94412870D01*
X92459326Y-94426744D01*
X92439540Y-94615000D01*
X91710460Y-94615000D01*
X91690674Y-94426744D01*
X91632179Y-94246716D01*
X91537533Y-94082784D01*
X91410871Y-93942112D01*
X91410870Y-93942111D01*
X91257734Y-93830851D01*
X91257729Y-93830848D01*
X91084807Y-93753857D01*
X91084802Y-93753855D01*
X90939001Y-93722865D01*
X90899646Y-93714500D01*
X90710354Y-93714500D01*
X90677897Y-93721398D01*
X90525197Y-93753855D01*
X90525192Y-93753857D01*
X90352270Y-93830848D01*
X90352265Y-93830851D01*
X90199129Y-93942111D01*
X90072466Y-94082785D01*
X89977821Y-94246715D01*
X89977818Y-94246722D01*
X89923834Y-94412870D01*
X89919326Y-94426744D01*
X89899540Y-94615000D01*
X72386784Y-94615000D01*
X72389137Y-89916003D01*
X78442435Y-89916003D01*
X78462630Y-90095249D01*
X78462631Y-90095254D01*
X78522211Y-90265523D01*
X78613000Y-90410011D01*
X78618184Y-90418262D01*
X78745738Y-90545816D01*
X78898478Y-90641789D01*
X78941023Y-90656676D01*
X79068745Y-90701368D01*
X79068750Y-90701369D01*
X79247996Y-90721565D01*
X79248000Y-90721565D01*
X79248004Y-90721565D01*
X79427249Y-90701369D01*
X79427252Y-90701368D01*
X79427255Y-90701368D01*
X79597522Y-90641789D01*
X79750262Y-90545816D01*
X79795319Y-90500759D01*
X79856642Y-90467274D01*
X79926334Y-90472258D01*
X79970681Y-90500759D01*
X80015738Y-90545816D01*
X80168478Y-90641789D01*
X80211023Y-90656676D01*
X80338745Y-90701368D01*
X80338750Y-90701369D01*
X80517996Y-90721565D01*
X80518000Y-90721565D01*
X80518004Y-90721565D01*
X80697249Y-90701369D01*
X80697252Y-90701368D01*
X80697255Y-90701368D01*
X80867522Y-90641789D01*
X81020262Y-90545816D01*
X81065319Y-90500759D01*
X81126642Y-90467274D01*
X81196334Y-90472258D01*
X81240681Y-90500759D01*
X81285738Y-90545816D01*
X81438478Y-90641789D01*
X81481023Y-90656676D01*
X81608745Y-90701368D01*
X81608750Y-90701369D01*
X81787996Y-90721565D01*
X81788000Y-90721565D01*
X81788004Y-90721565D01*
X81967249Y-90701369D01*
X81967252Y-90701368D01*
X81967255Y-90701368D01*
X82137522Y-90641789D01*
X82290262Y-90545816D01*
X82417816Y-90418262D01*
X82513789Y-90265522D01*
X82573368Y-90095255D01*
X82573369Y-90095249D01*
X82593565Y-89916003D01*
X82593565Y-89915996D01*
X82573369Y-89736750D01*
X82573368Y-89736745D01*
X82564752Y-89712122D01*
X82513789Y-89566478D01*
X82417816Y-89413738D01*
X82290262Y-89286184D01*
X82244970Y-89257725D01*
X82137523Y-89190211D01*
X81967254Y-89130631D01*
X81967249Y-89130630D01*
X81788004Y-89110435D01*
X81787996Y-89110435D01*
X81608750Y-89130630D01*
X81608745Y-89130631D01*
X81438476Y-89190211D01*
X81285737Y-89286184D01*
X81240680Y-89331241D01*
X81179357Y-89364725D01*
X81109665Y-89359740D01*
X81065320Y-89331241D01*
X81020263Y-89286185D01*
X81020262Y-89286184D01*
X80867523Y-89190211D01*
X80697254Y-89130631D01*
X80697249Y-89130630D01*
X80518004Y-89110435D01*
X80517996Y-89110435D01*
X80338750Y-89130630D01*
X80338745Y-89130631D01*
X80168476Y-89190211D01*
X80015737Y-89286184D01*
X79970680Y-89331241D01*
X79909357Y-89364725D01*
X79839665Y-89359740D01*
X79795320Y-89331241D01*
X79750263Y-89286185D01*
X79750262Y-89286184D01*
X79597523Y-89190211D01*
X79427254Y-89130631D01*
X79427249Y-89130630D01*
X79248004Y-89110435D01*
X79247996Y-89110435D01*
X79068750Y-89130630D01*
X79068745Y-89130631D01*
X78898476Y-89190211D01*
X78745737Y-89286184D01*
X78618184Y-89413737D01*
X78522211Y-89566476D01*
X78462631Y-89736745D01*
X78462630Y-89736750D01*
X78442435Y-89915996D01*
X78442435Y-89916003D01*
X72389137Y-89916003D01*
X72390271Y-87650003D01*
X73944435Y-87650003D01*
X73964630Y-87829249D01*
X73964631Y-87829254D01*
X74024211Y-87999523D01*
X74064257Y-88063255D01*
X74120184Y-88152262D01*
X74247738Y-88279816D01*
X74400478Y-88375789D01*
X74485573Y-88405565D01*
X74570745Y-88435368D01*
X74570750Y-88435369D01*
X74715604Y-88451690D01*
X74780018Y-88478756D01*
X74818761Y-88533951D01*
X74824209Y-88549519D01*
X74824211Y-88549522D01*
X74920184Y-88702262D01*
X75047738Y-88829816D01*
X75200478Y-88925789D01*
X75370745Y-88985368D01*
X75370750Y-88985369D01*
X75549996Y-89005565D01*
X75550000Y-89005565D01*
X75550004Y-89005565D01*
X75729249Y-88985369D01*
X75729252Y-88985368D01*
X75729255Y-88985368D01*
X75899522Y-88925789D01*
X76052262Y-88829816D01*
X76179816Y-88702262D01*
X76245006Y-88598511D01*
X76297339Y-88552221D01*
X76366392Y-88541572D01*
X76430241Y-88569947D01*
X76454992Y-88598511D01*
X76520182Y-88702260D01*
X76520184Y-88702262D01*
X76647738Y-88829816D01*
X76800478Y-88925789D01*
X76970745Y-88985368D01*
X76970750Y-88985369D01*
X77149996Y-89005565D01*
X77150000Y-89005565D01*
X77150004Y-89005565D01*
X77329249Y-88985369D01*
X77329252Y-88985368D01*
X77329255Y-88985368D01*
X77499522Y-88925789D01*
X77652262Y-88829816D01*
X77779816Y-88702262D01*
X77871649Y-88556109D01*
X77923981Y-88509821D01*
X77990525Y-88498864D01*
X78049997Y-88505565D01*
X78050000Y-88505565D01*
X78050004Y-88505565D01*
X78229249Y-88485369D01*
X78229252Y-88485368D01*
X78229255Y-88485368D01*
X78399522Y-88425789D01*
X78474354Y-88378768D01*
X78541585Y-88359769D01*
X78608421Y-88380135D01*
X78628004Y-88396082D01*
X78745738Y-88513816D01*
X78898478Y-88609789D01*
X79068745Y-88669368D01*
X79068750Y-88669369D01*
X79247996Y-88689565D01*
X79248000Y-88689565D01*
X79248004Y-88689565D01*
X79427249Y-88669369D01*
X79427252Y-88669368D01*
X79427255Y-88669368D01*
X79597522Y-88609789D01*
X79750262Y-88513816D01*
X79795319Y-88468759D01*
X79856642Y-88435274D01*
X79926334Y-88440258D01*
X79970681Y-88468759D01*
X80015738Y-88513816D01*
X80168478Y-88609789D01*
X80338745Y-88669368D01*
X80338750Y-88669369D01*
X80517996Y-88689565D01*
X80518000Y-88689565D01*
X80518004Y-88689565D01*
X80697249Y-88669369D01*
X80697252Y-88669368D01*
X80697255Y-88669368D01*
X80867522Y-88609789D01*
X81020262Y-88513816D01*
X81065319Y-88468759D01*
X81126642Y-88435274D01*
X81196334Y-88440258D01*
X81240681Y-88468759D01*
X81285738Y-88513816D01*
X81438478Y-88609789D01*
X81608745Y-88669368D01*
X81608750Y-88669369D01*
X81787996Y-88689565D01*
X81788000Y-88689565D01*
X81788004Y-88689565D01*
X81967249Y-88669369D01*
X81967252Y-88669368D01*
X81967255Y-88669368D01*
X82137522Y-88609789D01*
X82290262Y-88513816D01*
X82417816Y-88386262D01*
X82513789Y-88233522D01*
X82547214Y-88138000D01*
X93074540Y-88138000D01*
X93094326Y-88326256D01*
X93094327Y-88326259D01*
X93152818Y-88506277D01*
X93152821Y-88506284D01*
X93247467Y-88670216D01*
X93290188Y-88717662D01*
X93374129Y-88810888D01*
X93527265Y-88922148D01*
X93527270Y-88922151D01*
X93700192Y-88999142D01*
X93700197Y-88999144D01*
X93885354Y-89038500D01*
X93885355Y-89038500D01*
X94074644Y-89038500D01*
X94074646Y-89038500D01*
X94259803Y-88999144D01*
X94432730Y-88922151D01*
X94585871Y-88810888D01*
X94712533Y-88670216D01*
X94807179Y-88506284D01*
X94865674Y-88326256D01*
X94885460Y-88138000D01*
X95614540Y-88138000D01*
X95634326Y-88326256D01*
X95634327Y-88326259D01*
X95692818Y-88506277D01*
X95692821Y-88506284D01*
X95787467Y-88670216D01*
X95830188Y-88717662D01*
X95914129Y-88810888D01*
X96067265Y-88922148D01*
X96067270Y-88922151D01*
X96240192Y-88999142D01*
X96240197Y-88999144D01*
X96425354Y-89038500D01*
X96425355Y-89038500D01*
X96614644Y-89038500D01*
X96614646Y-89038500D01*
X96799803Y-88999144D01*
X96972730Y-88922151D01*
X97125871Y-88810888D01*
X97252533Y-88670216D01*
X97347179Y-88506284D01*
X97405674Y-88326256D01*
X97425460Y-88138000D01*
X97405674Y-87949744D01*
X97347179Y-87769716D01*
X97252533Y-87605784D01*
X97125871Y-87465112D01*
X97064812Y-87420750D01*
X96972734Y-87353851D01*
X96972729Y-87353848D01*
X96847002Y-87297870D01*
X98289500Y-87297870D01*
X98289501Y-87297876D01*
X98295908Y-87357483D01*
X98346202Y-87492328D01*
X98346206Y-87492335D01*
X98432452Y-87607544D01*
X98432455Y-87607547D01*
X98547664Y-87693793D01*
X98547671Y-87693797D01*
X98682517Y-87744091D01*
X98682516Y-87744091D01*
X98689444Y-87744835D01*
X98742127Y-87750500D01*
X101037872Y-87750499D01*
X101097483Y-87744091D01*
X101232331Y-87693796D01*
X101347546Y-87607546D01*
X101433796Y-87492331D01*
X101484091Y-87357483D01*
X101490500Y-87297873D01*
X101490499Y-85002128D01*
X101484091Y-84942517D01*
X101475761Y-84920184D01*
X101433797Y-84807671D01*
X101433793Y-84807664D01*
X101347547Y-84692455D01*
X101347544Y-84692452D01*
X101232335Y-84606206D01*
X101232328Y-84606202D01*
X101097482Y-84555908D01*
X101097483Y-84555908D01*
X101037883Y-84549501D01*
X101037881Y-84549500D01*
X101037873Y-84549500D01*
X101037864Y-84549500D01*
X98742129Y-84549500D01*
X98742123Y-84549501D01*
X98682516Y-84555908D01*
X98547671Y-84606202D01*
X98547664Y-84606206D01*
X98432455Y-84692452D01*
X98432452Y-84692455D01*
X98346206Y-84807664D01*
X98346202Y-84807671D01*
X98295908Y-84942517D01*
X98291103Y-84987214D01*
X98289501Y-85002123D01*
X98289500Y-85002135D01*
X98289500Y-87297870D01*
X96847002Y-87297870D01*
X96799807Y-87276857D01*
X96799802Y-87276855D01*
X96654001Y-87245865D01*
X96614646Y-87237500D01*
X96425354Y-87237500D01*
X96392897Y-87244398D01*
X96240197Y-87276855D01*
X96240192Y-87276857D01*
X96067270Y-87353848D01*
X96067265Y-87353851D01*
X95914129Y-87465111D01*
X95787466Y-87605785D01*
X95692821Y-87769715D01*
X95692818Y-87769722D01*
X95635124Y-87947288D01*
X95634326Y-87949744D01*
X95614540Y-88138000D01*
X94885460Y-88138000D01*
X94865674Y-87949744D01*
X94807179Y-87769716D01*
X94712533Y-87605784D01*
X94585871Y-87465112D01*
X94524812Y-87420750D01*
X94432734Y-87353851D01*
X94432729Y-87353848D01*
X94259807Y-87276857D01*
X94259802Y-87276855D01*
X94114001Y-87245865D01*
X94074646Y-87237500D01*
X93885354Y-87237500D01*
X93852897Y-87244398D01*
X93700197Y-87276855D01*
X93700192Y-87276857D01*
X93527270Y-87353848D01*
X93527265Y-87353851D01*
X93374129Y-87465111D01*
X93247466Y-87605785D01*
X93152821Y-87769715D01*
X93152818Y-87769722D01*
X93095124Y-87947288D01*
X93094326Y-87949744D01*
X93074540Y-88138000D01*
X82547214Y-88138000D01*
X82573368Y-88063255D01*
X82573898Y-88058551D01*
X82593565Y-87884003D01*
X82593565Y-87883996D01*
X82573369Y-87704750D01*
X82573368Y-87704745D01*
X82539357Y-87607547D01*
X82513789Y-87534478D01*
X82417816Y-87381738D01*
X82290262Y-87254184D01*
X82263710Y-87237500D01*
X82137523Y-87158211D01*
X81967254Y-87098631D01*
X81967249Y-87098630D01*
X81788004Y-87078435D01*
X81787996Y-87078435D01*
X81608750Y-87098630D01*
X81608745Y-87098631D01*
X81438476Y-87158211D01*
X81285737Y-87254184D01*
X81240680Y-87299241D01*
X81179357Y-87332725D01*
X81109665Y-87327740D01*
X81065320Y-87299241D01*
X81020263Y-87254185D01*
X81020262Y-87254184D01*
X80867523Y-87158211D01*
X80697254Y-87098631D01*
X80697249Y-87098630D01*
X80518004Y-87078435D01*
X80517996Y-87078435D01*
X80338750Y-87098630D01*
X80338738Y-87098633D01*
X80304993Y-87110441D01*
X80235214Y-87114002D01*
X80174587Y-87079272D01*
X80142361Y-87017278D01*
X80148767Y-86947703D01*
X80176358Y-86905719D01*
X80229816Y-86852262D01*
X80325789Y-86699522D01*
X80385368Y-86529255D01*
X80387633Y-86509151D01*
X80405565Y-86350003D01*
X80405565Y-86349996D01*
X80385369Y-86170750D01*
X80385368Y-86170745D01*
X80380158Y-86155857D01*
X80325789Y-86000478D01*
X80229816Y-85847738D01*
X80102262Y-85720184D01*
X80102260Y-85720183D01*
X79949523Y-85624211D01*
X79779254Y-85564631D01*
X79779249Y-85564630D01*
X79649424Y-85550003D01*
X82674435Y-85550003D01*
X82694630Y-85729249D01*
X82694631Y-85729254D01*
X82754211Y-85899523D01*
X82817646Y-86000478D01*
X82850184Y-86052262D01*
X82977738Y-86179816D01*
X83130478Y-86275789D01*
X83300745Y-86335368D01*
X83300750Y-86335369D01*
X83479996Y-86355565D01*
X83480000Y-86355565D01*
X83480004Y-86355565D01*
X83659249Y-86335369D01*
X83659252Y-86335368D01*
X83659255Y-86335368D01*
X83829522Y-86275789D01*
X83982262Y-86179816D01*
X84109816Y-86052262D01*
X84205789Y-85899522D01*
X84265368Y-85729255D01*
X84265369Y-85729249D01*
X84265848Y-85725000D01*
X85454540Y-85725000D01*
X85474326Y-85913256D01*
X85474327Y-85913259D01*
X85532818Y-86093277D01*
X85532821Y-86093284D01*
X85627467Y-86257216D01*
X85754129Y-86397888D01*
X85907265Y-86509148D01*
X85907270Y-86509151D01*
X86080192Y-86586142D01*
X86080197Y-86586144D01*
X86265354Y-86625500D01*
X86265355Y-86625500D01*
X86454644Y-86625500D01*
X86454646Y-86625500D01*
X86639803Y-86586144D01*
X86812730Y-86509151D01*
X86965871Y-86397888D01*
X87092533Y-86257216D01*
X87187179Y-86093284D01*
X87245674Y-85913256D01*
X87265460Y-85725000D01*
X87994540Y-85725000D01*
X88014326Y-85913256D01*
X88014327Y-85913259D01*
X88072818Y-86093277D01*
X88072821Y-86093284D01*
X88167467Y-86257216D01*
X88294129Y-86397888D01*
X88447265Y-86509148D01*
X88447270Y-86509151D01*
X88620192Y-86586142D01*
X88620197Y-86586144D01*
X88805354Y-86625500D01*
X88805355Y-86625500D01*
X88994644Y-86625500D01*
X88994646Y-86625500D01*
X89179803Y-86586144D01*
X89352730Y-86509151D01*
X89505871Y-86397888D01*
X89632533Y-86257216D01*
X89727179Y-86093284D01*
X89785674Y-85913256D01*
X89805460Y-85725000D01*
X90534540Y-85725000D01*
X90554326Y-85913256D01*
X90554327Y-85913259D01*
X90612818Y-86093277D01*
X90612821Y-86093284D01*
X90707467Y-86257216D01*
X90834129Y-86397888D01*
X90987265Y-86509148D01*
X90987270Y-86509151D01*
X91160192Y-86586142D01*
X91160197Y-86586144D01*
X91345354Y-86625500D01*
X91345355Y-86625500D01*
X91534644Y-86625500D01*
X91534646Y-86625500D01*
X91719803Y-86586144D01*
X91892730Y-86509151D01*
X92045871Y-86397888D01*
X92172533Y-86257216D01*
X92267179Y-86093284D01*
X92325674Y-85913256D01*
X92345460Y-85725000D01*
X93074540Y-85725000D01*
X93094326Y-85913256D01*
X93094327Y-85913259D01*
X93152818Y-86093277D01*
X93152821Y-86093284D01*
X93247467Y-86257216D01*
X93374129Y-86397888D01*
X93527265Y-86509148D01*
X93527270Y-86509151D01*
X93700192Y-86586142D01*
X93700197Y-86586144D01*
X93885354Y-86625500D01*
X93885355Y-86625500D01*
X94074644Y-86625500D01*
X94074646Y-86625500D01*
X94259803Y-86586144D01*
X94432730Y-86509151D01*
X94585871Y-86397888D01*
X94712533Y-86257216D01*
X94807179Y-86093284D01*
X94865674Y-85913256D01*
X94885460Y-85725000D01*
X95614540Y-85725000D01*
X95634326Y-85913256D01*
X95634327Y-85913259D01*
X95692818Y-86093277D01*
X95692821Y-86093284D01*
X95787467Y-86257216D01*
X95914129Y-86397888D01*
X96067265Y-86509148D01*
X96067270Y-86509151D01*
X96240192Y-86586142D01*
X96240197Y-86586144D01*
X96425354Y-86625500D01*
X96425355Y-86625500D01*
X96614644Y-86625500D01*
X96614646Y-86625500D01*
X96799803Y-86586144D01*
X96972730Y-86509151D01*
X97125871Y-86397888D01*
X97252533Y-86257216D01*
X97347179Y-86093284D01*
X97405674Y-85913256D01*
X97425460Y-85725000D01*
X97405674Y-85536744D01*
X97347179Y-85356716D01*
X97252533Y-85192784D01*
X97125871Y-85052112D01*
X97119851Y-85047738D01*
X96972734Y-84940851D01*
X96972729Y-84940848D01*
X96799807Y-84863857D01*
X96799802Y-84863855D01*
X96654001Y-84832865D01*
X96614646Y-84824500D01*
X96425354Y-84824500D01*
X96392897Y-84831398D01*
X96240197Y-84863855D01*
X96240192Y-84863857D01*
X96067270Y-84940848D01*
X96067265Y-84940851D01*
X95914129Y-85052111D01*
X95787466Y-85192785D01*
X95692821Y-85356715D01*
X95692818Y-85356722D01*
X95634327Y-85536740D01*
X95634326Y-85536744D01*
X95614540Y-85725000D01*
X94885460Y-85725000D01*
X94865674Y-85536744D01*
X94807179Y-85356716D01*
X94712533Y-85192784D01*
X94585871Y-85052112D01*
X94579851Y-85047738D01*
X94432734Y-84940851D01*
X94432729Y-84940848D01*
X94259807Y-84863857D01*
X94259802Y-84863855D01*
X94114001Y-84832865D01*
X94074646Y-84824500D01*
X93885354Y-84824500D01*
X93852897Y-84831398D01*
X93700197Y-84863855D01*
X93700192Y-84863857D01*
X93527270Y-84940848D01*
X93527265Y-84940851D01*
X93374129Y-85052111D01*
X93247466Y-85192785D01*
X93152821Y-85356715D01*
X93152818Y-85356722D01*
X93094327Y-85536740D01*
X93094326Y-85536744D01*
X93074540Y-85725000D01*
X92345460Y-85725000D01*
X92325674Y-85536744D01*
X92267179Y-85356716D01*
X92172533Y-85192784D01*
X92045871Y-85052112D01*
X92039851Y-85047738D01*
X91892734Y-84940851D01*
X91892729Y-84940848D01*
X91719807Y-84863857D01*
X91719802Y-84863855D01*
X91574001Y-84832865D01*
X91534646Y-84824500D01*
X91345354Y-84824500D01*
X91312897Y-84831398D01*
X91160197Y-84863855D01*
X91160192Y-84863857D01*
X90987270Y-84940848D01*
X90987265Y-84940851D01*
X90834129Y-85052111D01*
X90707466Y-85192785D01*
X90612821Y-85356715D01*
X90612818Y-85356722D01*
X90554327Y-85536740D01*
X90554326Y-85536744D01*
X90534540Y-85725000D01*
X89805460Y-85725000D01*
X89785674Y-85536744D01*
X89727179Y-85356716D01*
X89632533Y-85192784D01*
X89505871Y-85052112D01*
X89499851Y-85047738D01*
X89352734Y-84940851D01*
X89352729Y-84940848D01*
X89179807Y-84863857D01*
X89179802Y-84863855D01*
X89034001Y-84832865D01*
X88994646Y-84824500D01*
X88805354Y-84824500D01*
X88772897Y-84831398D01*
X88620197Y-84863855D01*
X88620192Y-84863857D01*
X88447270Y-84940848D01*
X88447265Y-84940851D01*
X88294129Y-85052111D01*
X88167466Y-85192785D01*
X88072821Y-85356715D01*
X88072818Y-85356722D01*
X88014327Y-85536740D01*
X88014326Y-85536744D01*
X87994540Y-85725000D01*
X87265460Y-85725000D01*
X87245674Y-85536744D01*
X87187179Y-85356716D01*
X87092533Y-85192784D01*
X86965871Y-85052112D01*
X86959851Y-85047738D01*
X86812734Y-84940851D01*
X86812729Y-84940848D01*
X86639807Y-84863857D01*
X86639802Y-84863855D01*
X86494001Y-84832865D01*
X86454646Y-84824500D01*
X86265354Y-84824500D01*
X86232897Y-84831398D01*
X86080197Y-84863855D01*
X86080192Y-84863857D01*
X85907270Y-84940848D01*
X85907265Y-84940851D01*
X85754129Y-85052111D01*
X85627466Y-85192785D01*
X85532821Y-85356715D01*
X85532818Y-85356722D01*
X85474327Y-85536740D01*
X85474326Y-85536744D01*
X85454540Y-85725000D01*
X84265848Y-85725000D01*
X84285565Y-85550003D01*
X84285565Y-85549996D01*
X84265369Y-85370750D01*
X84265368Y-85370745D01*
X84246262Y-85316144D01*
X84205789Y-85200478D01*
X84109816Y-85047738D01*
X83982262Y-84920184D01*
X83829523Y-84824211D01*
X83659254Y-84764631D01*
X83659249Y-84764630D01*
X83480004Y-84744435D01*
X83479996Y-84744435D01*
X83300750Y-84764630D01*
X83300745Y-84764631D01*
X83130476Y-84824211D01*
X82977737Y-84920184D01*
X82850184Y-85047737D01*
X82754211Y-85200476D01*
X82694631Y-85370745D01*
X82694630Y-85370750D01*
X82674435Y-85549996D01*
X82674435Y-85550003D01*
X79649424Y-85550003D01*
X79600004Y-85544435D01*
X79599996Y-85544435D01*
X79420750Y-85564630D01*
X79420745Y-85564631D01*
X79250476Y-85624211D01*
X79097739Y-85720183D01*
X78993081Y-85824841D01*
X78931758Y-85858325D01*
X78891517Y-85860379D01*
X78750004Y-85844435D01*
X78749996Y-85844435D01*
X78570750Y-85864630D01*
X78570745Y-85864631D01*
X78400476Y-85924211D01*
X78247737Y-86020184D01*
X78120184Y-86147737D01*
X78024211Y-86300476D01*
X77964631Y-86470745D01*
X77964630Y-86470750D01*
X77944435Y-86649996D01*
X77944435Y-86650003D01*
X77959253Y-86781523D01*
X77947198Y-86850345D01*
X77899849Y-86901724D01*
X77876987Y-86912448D01*
X77700478Y-86974210D01*
X77547737Y-87070184D01*
X77420184Y-87197737D01*
X77420182Y-87197740D01*
X77328350Y-87343888D01*
X77276015Y-87390179D01*
X77209473Y-87401135D01*
X77184393Y-87398309D01*
X77119979Y-87371242D01*
X77081235Y-87316042D01*
X77075789Y-87300477D01*
X77011232Y-87197737D01*
X76979816Y-87147738D01*
X76852262Y-87020184D01*
X76788017Y-86979816D01*
X76699523Y-86924211D01*
X76529254Y-86864631D01*
X76529249Y-86864630D01*
X76350004Y-86844435D01*
X76349996Y-86844435D01*
X76170750Y-86864630D01*
X76170745Y-86864631D01*
X76000476Y-86924211D01*
X75847737Y-87020184D01*
X75720184Y-87147737D01*
X75654994Y-87251487D01*
X75602659Y-87297778D01*
X75533605Y-87308426D01*
X75469757Y-87280051D01*
X75445006Y-87251487D01*
X75411232Y-87197737D01*
X75379816Y-87147738D01*
X75252262Y-87020184D01*
X75188017Y-86979816D01*
X75099523Y-86924211D01*
X74929254Y-86864631D01*
X74929249Y-86864630D01*
X74750004Y-86844435D01*
X74749996Y-86844435D01*
X74570750Y-86864630D01*
X74570745Y-86864631D01*
X74400476Y-86924211D01*
X74247737Y-87020184D01*
X74120184Y-87147737D01*
X74024211Y-87300476D01*
X73964631Y-87470745D01*
X73964630Y-87470750D01*
X73944435Y-87649996D01*
X73944435Y-87650003D01*
X72390271Y-87650003D01*
X72392975Y-82250003D01*
X78794435Y-82250003D01*
X78814630Y-82429249D01*
X78814631Y-82429254D01*
X78874211Y-82599523D01*
X78907678Y-82652785D01*
X78970184Y-82752262D01*
X79097738Y-82879816D01*
X79250478Y-82975789D01*
X79404878Y-83029816D01*
X79420745Y-83035368D01*
X79420750Y-83035369D01*
X79599996Y-83055565D01*
X79600000Y-83055565D01*
X79600004Y-83055565D01*
X79779249Y-83035369D01*
X79779251Y-83035368D01*
X79779255Y-83035368D01*
X79779258Y-83035366D01*
X79779262Y-83035366D01*
X79845840Y-83012068D01*
X79949522Y-82975789D01*
X79959028Y-82969815D01*
X80026263Y-82950815D01*
X80090971Y-82969815D01*
X80100478Y-82975789D01*
X80152318Y-82993928D01*
X80270737Y-83035366D01*
X80270743Y-83035367D01*
X80270745Y-83035368D01*
X80270746Y-83035368D01*
X80270750Y-83035369D01*
X80449996Y-83055565D01*
X80450000Y-83055565D01*
X80450004Y-83055565D01*
X80629249Y-83035369D01*
X80629252Y-83035368D01*
X80629255Y-83035368D01*
X80799522Y-82975789D01*
X80952262Y-82879816D01*
X81079816Y-82752262D01*
X81175789Y-82599522D01*
X81193117Y-82550000D01*
X93709540Y-82550000D01*
X93729326Y-82738256D01*
X93729327Y-82738259D01*
X93787818Y-82918277D01*
X93787821Y-82918284D01*
X93882467Y-83082216D01*
X93975016Y-83185002D01*
X94009129Y-83222888D01*
X94162265Y-83334148D01*
X94162270Y-83334151D01*
X94335192Y-83411142D01*
X94335197Y-83411144D01*
X94520354Y-83450500D01*
X94520355Y-83450500D01*
X94709644Y-83450500D01*
X94709646Y-83450500D01*
X94894803Y-83411144D01*
X95067730Y-83334151D01*
X95220871Y-83222888D01*
X95347533Y-83082216D01*
X95442179Y-82918284D01*
X95449569Y-82895541D01*
X95489006Y-82837865D01*
X95553364Y-82810666D01*
X95622210Y-82822580D01*
X95673687Y-82869824D01*
X95685431Y-82895541D01*
X95692817Y-82918275D01*
X95692821Y-82918284D01*
X95787467Y-83082216D01*
X95880016Y-83185002D01*
X95914129Y-83222888D01*
X96067265Y-83334148D01*
X96067270Y-83334151D01*
X96240192Y-83411142D01*
X96240197Y-83411144D01*
X96425354Y-83450500D01*
X96425355Y-83450500D01*
X96614644Y-83450500D01*
X96614646Y-83450500D01*
X96799803Y-83411144D01*
X96972730Y-83334151D01*
X97125871Y-83222888D01*
X97252533Y-83082216D01*
X97347179Y-82918284D01*
X97405674Y-82738256D01*
X97425460Y-82550000D01*
X97405674Y-82361744D01*
X97347179Y-82181716D01*
X97252533Y-82017784D01*
X97125871Y-81877112D01*
X97125870Y-81877111D01*
X96972734Y-81765851D01*
X96972729Y-81765848D01*
X96799807Y-81688857D01*
X96799802Y-81688855D01*
X96654001Y-81657865D01*
X96614646Y-81649500D01*
X96425354Y-81649500D01*
X96392897Y-81656398D01*
X96240197Y-81688855D01*
X96240192Y-81688857D01*
X96067270Y-81765848D01*
X96067265Y-81765851D01*
X95914129Y-81877111D01*
X95787466Y-82017785D01*
X95692821Y-82181715D01*
X95692818Y-82181722D01*
X95685431Y-82204459D01*
X95645993Y-82262135D01*
X95581635Y-82289333D01*
X95512789Y-82277418D01*
X95461313Y-82230174D01*
X95449569Y-82204459D01*
X95442181Y-82181722D01*
X95442180Y-82181721D01*
X95442179Y-82181716D01*
X95347533Y-82017784D01*
X95220871Y-81877112D01*
X95220870Y-81877111D01*
X95067734Y-81765851D01*
X95067729Y-81765848D01*
X94894807Y-81688857D01*
X94894802Y-81688855D01*
X94749001Y-81657865D01*
X94709646Y-81649500D01*
X94520354Y-81649500D01*
X94487897Y-81656398D01*
X94335197Y-81688855D01*
X94335192Y-81688857D01*
X94162270Y-81765848D01*
X94162265Y-81765851D01*
X94009129Y-81877111D01*
X93882466Y-82017785D01*
X93787821Y-82181715D01*
X93787818Y-82181722D01*
X93741636Y-82323857D01*
X93729326Y-82361744D01*
X93709540Y-82550000D01*
X81193117Y-82550000D01*
X81235368Y-82429255D01*
X81235369Y-82429249D01*
X81255565Y-82250003D01*
X81255565Y-82249996D01*
X81235369Y-82070750D01*
X81235368Y-82070745D01*
X81189958Y-81940972D01*
X81175789Y-81900478D01*
X81174067Y-81897738D01*
X81118326Y-81809027D01*
X81079816Y-81747738D01*
X80952262Y-81620184D01*
X80919859Y-81599824D01*
X80799523Y-81524211D01*
X80629254Y-81464631D01*
X80629249Y-81464630D01*
X80450004Y-81444435D01*
X80449996Y-81444435D01*
X80270750Y-81464630D01*
X80270745Y-81464631D01*
X80100474Y-81524212D01*
X80090968Y-81530185D01*
X80023731Y-81549183D01*
X79959032Y-81530185D01*
X79949525Y-81524212D01*
X79779254Y-81464631D01*
X79779249Y-81464630D01*
X79600004Y-81444435D01*
X79599996Y-81444435D01*
X79420750Y-81464630D01*
X79420745Y-81464631D01*
X79250476Y-81524211D01*
X79097737Y-81620184D01*
X78970184Y-81747737D01*
X78874211Y-81900476D01*
X78814631Y-82070745D01*
X78814630Y-82070750D01*
X78794435Y-82249996D01*
X78794435Y-82250003D01*
X72392975Y-82250003D01*
X72394070Y-80062095D01*
X72394100Y-80061749D01*
X72394100Y-80008466D01*
X72394365Y-80000356D01*
X72398632Y-79935249D01*
X72411787Y-79734533D01*
X72413902Y-79718479D01*
X72465078Y-79461202D01*
X72469267Y-79445565D01*
X72514988Y-79310877D01*
X72555177Y-79253724D01*
X72619887Y-79227371D01*
X72688571Y-79240186D01*
X72739424Y-79288100D01*
X72756299Y-79355901D01*
X72755728Y-79363695D01*
X72754540Y-79375000D01*
X72774326Y-79563256D01*
X72774327Y-79563259D01*
X72832818Y-79743277D01*
X72832821Y-79743284D01*
X72927467Y-79907216D01*
X72952713Y-79935254D01*
X73054129Y-80047888D01*
X73207265Y-80159148D01*
X73207270Y-80159151D01*
X73330956Y-80214221D01*
X73384193Y-80259472D01*
X73404514Y-80326321D01*
X73385468Y-80393544D01*
X73333102Y-80439799D01*
X73330956Y-80440779D01*
X73207270Y-80495848D01*
X73207265Y-80495851D01*
X73054129Y-80607111D01*
X72927466Y-80747785D01*
X72832821Y-80911715D01*
X72832818Y-80911722D01*
X72793828Y-81031722D01*
X72774326Y-81091744D01*
X72754540Y-81280000D01*
X72774326Y-81468256D01*
X72774327Y-81468259D01*
X72832818Y-81648277D01*
X72832821Y-81648284D01*
X72927467Y-81812216D01*
X72985899Y-81877111D01*
X73054129Y-81952888D01*
X73207265Y-82064148D01*
X73207270Y-82064151D01*
X73380192Y-82141142D01*
X73380197Y-82141144D01*
X73565354Y-82180500D01*
X73565355Y-82180500D01*
X73754644Y-82180500D01*
X73754646Y-82180500D01*
X73939803Y-82141144D01*
X74112730Y-82064151D01*
X74265871Y-81952888D01*
X74392533Y-81812216D01*
X74487179Y-81648284D01*
X74494569Y-81625541D01*
X74534006Y-81567865D01*
X74598364Y-81540666D01*
X74667210Y-81552580D01*
X74718687Y-81599824D01*
X74730431Y-81625541D01*
X74737817Y-81648275D01*
X74737821Y-81648284D01*
X74832467Y-81812216D01*
X74890899Y-81877111D01*
X74959129Y-81952888D01*
X75112265Y-82064148D01*
X75112270Y-82064151D01*
X75285192Y-82141142D01*
X75285197Y-82141144D01*
X75470354Y-82180500D01*
X75470355Y-82180500D01*
X75659644Y-82180500D01*
X75659646Y-82180500D01*
X75844803Y-82141144D01*
X76017730Y-82064151D01*
X76170871Y-81952888D01*
X76297533Y-81812216D01*
X76392179Y-81648284D01*
X76399569Y-81625541D01*
X76439006Y-81567865D01*
X76503364Y-81540666D01*
X76572210Y-81552580D01*
X76623687Y-81599824D01*
X76635431Y-81625541D01*
X76642817Y-81648275D01*
X76642821Y-81648284D01*
X76737467Y-81812216D01*
X76795899Y-81877111D01*
X76864129Y-81952888D01*
X77017265Y-82064148D01*
X77017270Y-82064151D01*
X77190192Y-82141142D01*
X77190197Y-82141144D01*
X77375354Y-82180500D01*
X77375355Y-82180500D01*
X77564644Y-82180500D01*
X77564646Y-82180500D01*
X77749803Y-82141144D01*
X77922730Y-82064151D01*
X78075871Y-81952888D01*
X78202533Y-81812216D01*
X78297179Y-81648284D01*
X78355674Y-81468256D01*
X78362848Y-81400000D01*
X83394540Y-81400000D01*
X83414326Y-81588256D01*
X83414327Y-81588259D01*
X83472818Y-81768277D01*
X83472821Y-81768284D01*
X83567467Y-81932216D01*
X83644513Y-82017784D01*
X83694129Y-82072888D01*
X83847265Y-82184148D01*
X83847270Y-82184151D01*
X84020192Y-82261142D01*
X84020197Y-82261144D01*
X84205354Y-82300500D01*
X84205355Y-82300500D01*
X84394644Y-82300500D01*
X84394646Y-82300500D01*
X84579803Y-82261144D01*
X84752730Y-82184151D01*
X84905871Y-82072888D01*
X85032533Y-81932216D01*
X85127179Y-81768284D01*
X85185674Y-81588256D01*
X85205460Y-81400000D01*
X85185674Y-81211744D01*
X85127179Y-81031716D01*
X85043626Y-80886998D01*
X85027154Y-80819100D01*
X85043627Y-80763000D01*
X85127179Y-80618284D01*
X85185674Y-80438256D01*
X85205460Y-80250000D01*
X85185674Y-80061744D01*
X85127179Y-79881716D01*
X85032533Y-79717784D01*
X84905871Y-79577112D01*
X84886800Y-79563256D01*
X84752734Y-79465851D01*
X84752729Y-79465848D01*
X84579807Y-79388857D01*
X84579802Y-79388855D01*
X84514617Y-79375000D01*
X93709540Y-79375000D01*
X93729326Y-79563256D01*
X93729327Y-79563259D01*
X93787818Y-79743277D01*
X93787821Y-79743284D01*
X93882467Y-79907216D01*
X93907713Y-79935254D01*
X94009129Y-80047888D01*
X94162265Y-80159148D01*
X94162270Y-80159151D01*
X94335192Y-80236142D01*
X94335197Y-80236144D01*
X94520354Y-80275500D01*
X94520355Y-80275500D01*
X94709644Y-80275500D01*
X94709646Y-80275500D01*
X94894803Y-80236144D01*
X95067730Y-80159151D01*
X95220871Y-80047888D01*
X95347533Y-79907216D01*
X95442179Y-79743284D01*
X95449569Y-79720541D01*
X95489006Y-79662865D01*
X95553364Y-79635666D01*
X95622210Y-79647580D01*
X95673687Y-79694824D01*
X95685431Y-79720541D01*
X95692817Y-79743275D01*
X95692821Y-79743284D01*
X95787467Y-79907216D01*
X95812713Y-79935254D01*
X95914129Y-80047888D01*
X96067265Y-80159148D01*
X96067270Y-80159151D01*
X96240192Y-80236142D01*
X96240197Y-80236144D01*
X96425354Y-80275500D01*
X96425355Y-80275500D01*
X96614644Y-80275500D01*
X96614646Y-80275500D01*
X96799803Y-80236144D01*
X96972730Y-80159151D01*
X97125871Y-80047888D01*
X97252533Y-79907216D01*
X97347179Y-79743284D01*
X97405674Y-79563256D01*
X97425460Y-79375000D01*
X100694540Y-79375000D01*
X100714326Y-79563256D01*
X100714327Y-79563259D01*
X100772818Y-79743277D01*
X100772821Y-79743284D01*
X100867467Y-79907216D01*
X100892713Y-79935254D01*
X100994129Y-80047888D01*
X101147265Y-80159148D01*
X101147270Y-80159151D01*
X101320192Y-80236142D01*
X101320197Y-80236144D01*
X101505354Y-80275500D01*
X101505355Y-80275500D01*
X101694644Y-80275500D01*
X101694646Y-80275500D01*
X101879803Y-80236144D01*
X102052730Y-80159151D01*
X102205871Y-80047888D01*
X102332533Y-79907216D01*
X102427179Y-79743284D01*
X102434569Y-79720541D01*
X102474006Y-79662865D01*
X102538364Y-79635666D01*
X102607210Y-79647580D01*
X102658687Y-79694824D01*
X102670431Y-79720541D01*
X102677817Y-79743275D01*
X102677821Y-79743284D01*
X102772467Y-79907216D01*
X102797713Y-79935254D01*
X102899129Y-80047888D01*
X103052265Y-80159148D01*
X103052270Y-80159151D01*
X103225192Y-80236142D01*
X103225197Y-80236144D01*
X103410354Y-80275500D01*
X103410355Y-80275500D01*
X103599644Y-80275500D01*
X103599646Y-80275500D01*
X103784803Y-80236144D01*
X103957730Y-80159151D01*
X104110871Y-80047888D01*
X104126974Y-80030004D01*
X108224451Y-80030004D01*
X108244616Y-80299101D01*
X108304664Y-80562188D01*
X108304666Y-80562195D01*
X108377505Y-80747785D01*
X108403257Y-80813398D01*
X108538185Y-81047102D01*
X108669480Y-81211740D01*
X108706442Y-81258089D01*
X108805503Y-81350003D01*
X108904259Y-81441635D01*
X109127226Y-81593651D01*
X109370359Y-81710738D01*
X109628228Y-81790280D01*
X109628229Y-81790280D01*
X109628232Y-81790281D01*
X109895063Y-81830499D01*
X109895068Y-81830499D01*
X109895071Y-81830500D01*
X109895072Y-81830500D01*
X110164928Y-81830500D01*
X110164929Y-81830500D01*
X110164936Y-81830499D01*
X110431767Y-81790281D01*
X110431768Y-81790280D01*
X110431772Y-81790280D01*
X110689641Y-81710738D01*
X110932775Y-81593651D01*
X111155741Y-81441635D01*
X111353561Y-81258085D01*
X111521815Y-81047102D01*
X111656743Y-80813398D01*
X111755334Y-80562195D01*
X111815383Y-80299103D01*
X111826387Y-80152262D01*
X111835549Y-80030004D01*
X111835549Y-80029995D01*
X111815383Y-79760898D01*
X111805543Y-79717785D01*
X111755334Y-79497805D01*
X111707136Y-79375000D01*
X115934540Y-79375000D01*
X115954326Y-79563256D01*
X115954327Y-79563259D01*
X116012818Y-79743277D01*
X116012821Y-79743284D01*
X116107467Y-79907216D01*
X116132713Y-79935254D01*
X116234129Y-80047888D01*
X116387265Y-80159148D01*
X116387270Y-80159151D01*
X116560192Y-80236142D01*
X116560197Y-80236144D01*
X116745354Y-80275500D01*
X116745355Y-80275500D01*
X116934644Y-80275500D01*
X116934646Y-80275500D01*
X117119803Y-80236144D01*
X117292730Y-80159151D01*
X117445871Y-80047888D01*
X117572533Y-79907216D01*
X117667179Y-79743284D01*
X117725674Y-79563256D01*
X117745460Y-79375000D01*
X118474540Y-79375000D01*
X118494326Y-79563256D01*
X118494327Y-79563259D01*
X118552818Y-79743277D01*
X118552821Y-79743284D01*
X118647467Y-79907216D01*
X118672713Y-79935254D01*
X118774129Y-80047888D01*
X118927265Y-80159148D01*
X118927270Y-80159151D01*
X119100192Y-80236142D01*
X119100197Y-80236144D01*
X119285354Y-80275500D01*
X119285355Y-80275500D01*
X119474644Y-80275500D01*
X119474646Y-80275500D01*
X119659803Y-80236144D01*
X119832730Y-80159151D01*
X119985871Y-80047888D01*
X120112533Y-79907216D01*
X120207179Y-79743284D01*
X120265674Y-79563256D01*
X120285460Y-79375000D01*
X120265674Y-79186744D01*
X120207179Y-79006716D01*
X120112533Y-78842784D01*
X119985871Y-78702112D01*
X119985870Y-78702111D01*
X119832734Y-78590851D01*
X119832729Y-78590848D01*
X119659807Y-78513857D01*
X119659802Y-78513855D01*
X119514001Y-78482865D01*
X119474646Y-78474500D01*
X119285354Y-78474500D01*
X119252897Y-78481398D01*
X119100197Y-78513855D01*
X119100192Y-78513857D01*
X118927270Y-78590848D01*
X118927265Y-78590851D01*
X118774129Y-78702111D01*
X118647466Y-78842785D01*
X118552821Y-79006715D01*
X118552818Y-79006722D01*
X118499567Y-79170614D01*
X118494326Y-79186744D01*
X118474540Y-79375000D01*
X117745460Y-79375000D01*
X117725674Y-79186744D01*
X117667179Y-79006716D01*
X117572533Y-78842784D01*
X117445871Y-78702112D01*
X117445870Y-78702111D01*
X117292734Y-78590851D01*
X117292729Y-78590848D01*
X117119807Y-78513857D01*
X117119802Y-78513855D01*
X116974001Y-78482865D01*
X116934646Y-78474500D01*
X116745354Y-78474500D01*
X116712897Y-78481398D01*
X116560197Y-78513855D01*
X116560192Y-78513857D01*
X116387270Y-78590848D01*
X116387265Y-78590851D01*
X116234129Y-78702111D01*
X116107466Y-78842785D01*
X116012821Y-79006715D01*
X116012818Y-79006722D01*
X115959567Y-79170614D01*
X115954326Y-79186744D01*
X115934540Y-79375000D01*
X111707136Y-79375000D01*
X111656743Y-79246602D01*
X111521815Y-79012898D01*
X111353561Y-78801915D01*
X111353560Y-78801914D01*
X111353557Y-78801910D01*
X111155741Y-78618365D01*
X111115385Y-78590851D01*
X110932775Y-78466349D01*
X110932769Y-78466346D01*
X110932768Y-78466345D01*
X110932767Y-78466344D01*
X110689643Y-78349263D01*
X110689645Y-78349263D01*
X110431773Y-78269720D01*
X110431767Y-78269718D01*
X110164936Y-78229500D01*
X110164929Y-78229500D01*
X109895071Y-78229500D01*
X109895063Y-78229500D01*
X109628232Y-78269718D01*
X109628226Y-78269720D01*
X109370358Y-78349262D01*
X109127230Y-78466346D01*
X108904258Y-78618365D01*
X108706442Y-78801910D01*
X108538185Y-79012898D01*
X108403258Y-79246599D01*
X108403256Y-79246603D01*
X108304666Y-79497804D01*
X108304664Y-79497811D01*
X108244616Y-79760898D01*
X108224451Y-80029995D01*
X108224451Y-80030004D01*
X104126974Y-80030004D01*
X104237533Y-79907216D01*
X104332179Y-79743284D01*
X104390674Y-79563256D01*
X104410460Y-79375000D01*
X104390674Y-79186744D01*
X104332179Y-79006716D01*
X104237533Y-78842784D01*
X104110871Y-78702112D01*
X104110870Y-78702111D01*
X103957734Y-78590851D01*
X103957729Y-78590848D01*
X103784807Y-78513857D01*
X103784802Y-78513855D01*
X103639001Y-78482865D01*
X103599646Y-78474500D01*
X103410354Y-78474500D01*
X103377897Y-78481398D01*
X103225197Y-78513855D01*
X103225192Y-78513857D01*
X103052270Y-78590848D01*
X103052265Y-78590851D01*
X102899129Y-78702111D01*
X102772466Y-78842785D01*
X102677821Y-79006715D01*
X102677818Y-79006722D01*
X102670431Y-79029459D01*
X102630993Y-79087135D01*
X102566635Y-79114333D01*
X102497789Y-79102418D01*
X102446313Y-79055174D01*
X102434569Y-79029459D01*
X102427181Y-79006722D01*
X102427180Y-79006721D01*
X102427179Y-79006716D01*
X102332533Y-78842784D01*
X102205871Y-78702112D01*
X102205870Y-78702111D01*
X102052734Y-78590851D01*
X102052729Y-78590848D01*
X101879807Y-78513857D01*
X101879802Y-78513855D01*
X101734001Y-78482865D01*
X101694646Y-78474500D01*
X101505354Y-78474500D01*
X101472897Y-78481398D01*
X101320197Y-78513855D01*
X101320192Y-78513857D01*
X101147270Y-78590848D01*
X101147265Y-78590851D01*
X100994129Y-78702111D01*
X100867466Y-78842785D01*
X100772821Y-79006715D01*
X100772818Y-79006722D01*
X100719567Y-79170614D01*
X100714326Y-79186744D01*
X100694540Y-79375000D01*
X97425460Y-79375000D01*
X97405674Y-79186744D01*
X97347179Y-79006716D01*
X97252533Y-78842784D01*
X97125871Y-78702112D01*
X97125870Y-78702111D01*
X96972734Y-78590851D01*
X96972729Y-78590848D01*
X96799807Y-78513857D01*
X96799802Y-78513855D01*
X96654001Y-78482865D01*
X96614646Y-78474500D01*
X96425354Y-78474500D01*
X96392897Y-78481398D01*
X96240197Y-78513855D01*
X96240192Y-78513857D01*
X96067270Y-78590848D01*
X96067265Y-78590851D01*
X95914129Y-78702111D01*
X95787466Y-78842785D01*
X95692821Y-79006715D01*
X95692818Y-79006722D01*
X95685431Y-79029459D01*
X95645993Y-79087135D01*
X95581635Y-79114333D01*
X95512789Y-79102418D01*
X95461313Y-79055174D01*
X95449569Y-79029459D01*
X95442181Y-79006722D01*
X95442180Y-79006721D01*
X95442179Y-79006716D01*
X95347533Y-78842784D01*
X95220871Y-78702112D01*
X95220870Y-78702111D01*
X95067734Y-78590851D01*
X95067729Y-78590848D01*
X94894807Y-78513857D01*
X94894802Y-78513855D01*
X94749001Y-78482865D01*
X94709646Y-78474500D01*
X94520354Y-78474500D01*
X94487897Y-78481398D01*
X94335197Y-78513855D01*
X94335192Y-78513857D01*
X94162270Y-78590848D01*
X94162265Y-78590851D01*
X94009129Y-78702111D01*
X93882466Y-78842785D01*
X93787821Y-79006715D01*
X93787818Y-79006722D01*
X93734567Y-79170614D01*
X93729326Y-79186744D01*
X93709540Y-79375000D01*
X84514617Y-79375000D01*
X84434001Y-79357865D01*
X84394646Y-79349500D01*
X84205354Y-79349500D01*
X84175239Y-79355901D01*
X84020197Y-79388855D01*
X84020192Y-79388857D01*
X83847270Y-79465848D01*
X83847265Y-79465851D01*
X83694129Y-79577111D01*
X83567466Y-79717785D01*
X83472821Y-79881715D01*
X83472818Y-79881722D01*
X83417470Y-80052067D01*
X83414326Y-80061744D01*
X83394540Y-80250000D01*
X83414326Y-80438256D01*
X83414327Y-80438259D01*
X83472818Y-80618277D01*
X83472820Y-80618281D01*
X83472821Y-80618284D01*
X83506899Y-80677309D01*
X83556373Y-80763001D01*
X83572845Y-80830901D01*
X83556373Y-80886999D01*
X83542103Y-80911715D01*
X83486850Y-81007418D01*
X83472820Y-81031718D01*
X83472818Y-81031722D01*
X83414327Y-81211740D01*
X83414326Y-81211744D01*
X83394540Y-81400000D01*
X78362848Y-81400000D01*
X78375460Y-81280000D01*
X78355674Y-81091744D01*
X78297179Y-80911716D01*
X78202533Y-80747784D01*
X78075871Y-80607112D01*
X78075870Y-80607111D01*
X77922734Y-80495851D01*
X77922729Y-80495848D01*
X77799043Y-80440779D01*
X77745806Y-80395529D01*
X77725485Y-80328680D01*
X77744531Y-80261456D01*
X77796897Y-80215201D01*
X77799043Y-80214221D01*
X77851498Y-80190865D01*
X77922730Y-80159151D01*
X78075871Y-80047888D01*
X78202533Y-79907216D01*
X78297179Y-79743284D01*
X78355674Y-79563256D01*
X78375460Y-79375000D01*
X78355674Y-79186744D01*
X78297179Y-79006716D01*
X78202533Y-78842784D01*
X78075871Y-78702112D01*
X78075870Y-78702111D01*
X77922734Y-78590851D01*
X77922729Y-78590848D01*
X77749807Y-78513857D01*
X77749802Y-78513855D01*
X77604001Y-78482865D01*
X77564646Y-78474500D01*
X77375354Y-78474500D01*
X77342897Y-78481398D01*
X77190197Y-78513855D01*
X77190192Y-78513857D01*
X77017270Y-78590848D01*
X77017265Y-78590851D01*
X76864129Y-78702111D01*
X76737466Y-78842785D01*
X76642821Y-79006715D01*
X76642818Y-79006722D01*
X76635431Y-79029459D01*
X76595993Y-79087135D01*
X76531635Y-79114333D01*
X76462789Y-79102418D01*
X76411313Y-79055174D01*
X76399569Y-79029459D01*
X76392181Y-79006722D01*
X76392180Y-79006721D01*
X76392179Y-79006716D01*
X76297533Y-78842784D01*
X76170871Y-78702112D01*
X76170870Y-78702111D01*
X76017734Y-78590851D01*
X76017729Y-78590848D01*
X75844807Y-78513857D01*
X75844802Y-78513855D01*
X75699001Y-78482865D01*
X75659646Y-78474500D01*
X75470354Y-78474500D01*
X75437897Y-78481398D01*
X75285197Y-78513855D01*
X75285192Y-78513857D01*
X75112270Y-78590848D01*
X75112265Y-78590851D01*
X74959129Y-78702111D01*
X74832466Y-78842785D01*
X74737821Y-79006715D01*
X74737818Y-79006722D01*
X74730431Y-79029459D01*
X74690993Y-79087135D01*
X74626635Y-79114333D01*
X74557789Y-79102418D01*
X74506313Y-79055174D01*
X74494569Y-79029459D01*
X74487181Y-79006722D01*
X74487180Y-79006721D01*
X74487179Y-79006716D01*
X74392533Y-78842784D01*
X74265871Y-78702112D01*
X74265870Y-78702111D01*
X74112734Y-78590851D01*
X74112729Y-78590848D01*
X73939807Y-78513857D01*
X73939802Y-78513855D01*
X73794001Y-78482865D01*
X73754646Y-78474500D01*
X73565354Y-78474500D01*
X73532897Y-78481398D01*
X73380197Y-78513855D01*
X73380192Y-78513857D01*
X73357815Y-78523820D01*
X73288564Y-78533104D01*
X73225288Y-78503474D01*
X73188076Y-78444339D01*
X73188742Y-78374472D01*
X73227076Y-78316057D01*
X73238478Y-78307446D01*
X73452098Y-78164710D01*
X73466133Y-78156607D01*
X73701398Y-78040587D01*
X73716359Y-78034390D01*
X73964765Y-77950067D01*
X73980402Y-77945878D01*
X74237679Y-77894702D01*
X74253735Y-77892587D01*
X74497484Y-77876611D01*
X74519558Y-77875165D01*
X74527667Y-77874900D01*
X74571195Y-77874900D01*
X122438008Y-77874900D01*
X122505047Y-77894585D01*
G37*
G04 #@! TD.AperFunction*
G04 #@! TA.AperFunction,Conductor*
G36*
X107822745Y-83823603D02*
G01*
X107871014Y-83835500D01*
X107871015Y-83835500D01*
X108028985Y-83835500D01*
X108077255Y-83823603D01*
X108106929Y-83820000D01*
X112238071Y-83820000D01*
X112267745Y-83823603D01*
X112316014Y-83835500D01*
X112316015Y-83835500D01*
X112473985Y-83835500D01*
X112522255Y-83823603D01*
X112551929Y-83820000D01*
X114778071Y-83820000D01*
X114807745Y-83823603D01*
X114856014Y-83835500D01*
X114856015Y-83835500D01*
X115013985Y-83835500D01*
X115062255Y-83823603D01*
X115091929Y-83820000D01*
X133146000Y-83820000D01*
X133213039Y-83839685D01*
X133258794Y-83892489D01*
X133270000Y-83944000D01*
X133270000Y-89712224D01*
X133250315Y-89779263D01*
X133203629Y-89822019D01*
X133180960Y-89833917D01*
X133062716Y-89938671D01*
X132972981Y-90068675D01*
X132972980Y-90068676D01*
X132916962Y-90216381D01*
X132897922Y-90373199D01*
X132897922Y-90373200D01*
X132916962Y-90530018D01*
X132934658Y-90576677D01*
X132972980Y-90677723D01*
X133062717Y-90807730D01*
X133180960Y-90912483D01*
X133180962Y-90912484D01*
X133203624Y-90924378D01*
X133253837Y-90972962D01*
X133270000Y-91034175D01*
X133270000Y-100709900D01*
X133250315Y-100776939D01*
X133197511Y-100822694D01*
X133146000Y-100833900D01*
X128621267Y-100833900D01*
X128613157Y-100833635D01*
X128347347Y-100816213D01*
X128331266Y-100814095D01*
X128074018Y-100762925D01*
X128058350Y-100758727D01*
X127809971Y-100674413D01*
X127794986Y-100668206D01*
X127721134Y-100631786D01*
X127669714Y-100584481D01*
X127652033Y-100516885D01*
X127673703Y-100450461D01*
X127727845Y-100406297D01*
X127792162Y-100397635D01*
X127850000Y-100405250D01*
X127993709Y-100386330D01*
X128127625Y-100330861D01*
X128242621Y-100242621D01*
X128330861Y-100127625D01*
X128386330Y-99993709D01*
X128405250Y-99850000D01*
X129294750Y-99850000D01*
X129313670Y-99993708D01*
X129313671Y-99993712D01*
X129369137Y-100127622D01*
X129369138Y-100127624D01*
X129369139Y-100127625D01*
X129457379Y-100242621D01*
X129572375Y-100330861D01*
X129706291Y-100386330D01*
X129833280Y-100403048D01*
X129849999Y-100405250D01*
X129850000Y-100405250D01*
X129850001Y-100405250D01*
X129864977Y-100403278D01*
X129993709Y-100386330D01*
X130127625Y-100330861D01*
X130242621Y-100242621D01*
X130330861Y-100127625D01*
X130386330Y-99993709D01*
X130405250Y-99850000D01*
X130386330Y-99706291D01*
X130330861Y-99572375D01*
X130242621Y-99457379D01*
X130127625Y-99369139D01*
X130127624Y-99369138D01*
X130127622Y-99369137D01*
X129993712Y-99313671D01*
X129993710Y-99313670D01*
X129993709Y-99313670D01*
X129921854Y-99304210D01*
X129850001Y-99294750D01*
X129849999Y-99294750D01*
X129706291Y-99313670D01*
X129706287Y-99313671D01*
X129572377Y-99369137D01*
X129457379Y-99457379D01*
X129369137Y-99572377D01*
X129313671Y-99706287D01*
X129313670Y-99706291D01*
X129294750Y-99849999D01*
X129294750Y-99850000D01*
X128405250Y-99850000D01*
X128386330Y-99706291D01*
X128330861Y-99572375D01*
X128242621Y-99457379D01*
X128127625Y-99369139D01*
X128127624Y-99369138D01*
X128127622Y-99369137D01*
X127993712Y-99313671D01*
X127993710Y-99313670D01*
X127993709Y-99313670D01*
X127921854Y-99304210D01*
X127850001Y-99294750D01*
X127849999Y-99294750D01*
X127706291Y-99313670D01*
X127706287Y-99313671D01*
X127572377Y-99369137D01*
X127457379Y-99457379D01*
X127369137Y-99572377D01*
X127313671Y-99706287D01*
X127313670Y-99706291D01*
X127294750Y-99849999D01*
X127294750Y-99850000D01*
X127313670Y-99993708D01*
X127313671Y-99993712D01*
X127366359Y-100120915D01*
X127373828Y-100190385D01*
X127342552Y-100252864D01*
X127282463Y-100288515D01*
X127212638Y-100286021D01*
X127170039Y-100261595D01*
X127117526Y-100215542D01*
X127106057Y-100204073D01*
X127033129Y-100120915D01*
X126933109Y-100006864D01*
X126923238Y-99993999D01*
X126923046Y-99993712D01*
X126777514Y-99775907D01*
X126769404Y-99761860D01*
X126764030Y-99750963D01*
X126653390Y-99526606D01*
X126647189Y-99511635D01*
X126562869Y-99263238D01*
X126558677Y-99247593D01*
X126507502Y-98990322D01*
X126505387Y-98974264D01*
X126487965Y-98708443D01*
X126487700Y-98700333D01*
X126487700Y-98551054D01*
X126487699Y-98551053D01*
X126453363Y-98246316D01*
X126453362Y-98246304D01*
X126385119Y-97947310D01*
X126283828Y-97657837D01*
X126150763Y-97381525D01*
X125987597Y-97121849D01*
X125796384Y-96882074D01*
X125579526Y-96665216D01*
X125339751Y-96474003D01*
X125206681Y-96390389D01*
X125080072Y-96310835D01*
X124803766Y-96177773D01*
X124622883Y-96114479D01*
X124566107Y-96073758D01*
X124540360Y-96008805D01*
X124553816Y-95940243D01*
X124602204Y-95889840D01*
X124634164Y-95877041D01*
X124692365Y-95862696D01*
X124716745Y-95849900D01*
X124832240Y-95789283D01*
X124950483Y-95684530D01*
X125040220Y-95554523D01*
X125096237Y-95406818D01*
X125115278Y-95250000D01*
X125104631Y-95162309D01*
X125096237Y-95093181D01*
X125046750Y-94962696D01*
X125040220Y-94945477D01*
X124950483Y-94815470D01*
X124832240Y-94710717D01*
X124832238Y-94710716D01*
X124832237Y-94710715D01*
X124692365Y-94637303D01*
X124538986Y-94599500D01*
X124538985Y-94599500D01*
X124381015Y-94599500D01*
X124381014Y-94599500D01*
X124227634Y-94637303D01*
X124087762Y-94710715D01*
X123969516Y-94815471D01*
X123879781Y-94945475D01*
X123879780Y-94945476D01*
X123823762Y-95093181D01*
X123804722Y-95249999D01*
X123804722Y-95250000D01*
X123823762Y-95406818D01*
X123863915Y-95512691D01*
X123879780Y-95554523D01*
X123969517Y-95684530D01*
X124058945Y-95763755D01*
X124096072Y-95822945D01*
X124095304Y-95892810D01*
X124056887Y-95951170D01*
X123993016Y-95979495D01*
X123962835Y-95979791D01*
X123910549Y-95973900D01*
X123910542Y-95973900D01*
X123796762Y-95973900D01*
X122955281Y-95973900D01*
X122888242Y-95954215D01*
X122842487Y-95901411D01*
X122832543Y-95832253D01*
X122840719Y-95802449D01*
X122846172Y-95789283D01*
X122862730Y-95749309D01*
X122881650Y-95605600D01*
X122862730Y-95461891D01*
X122807261Y-95327975D01*
X122719021Y-95212979D01*
X122604025Y-95124739D01*
X122604024Y-95124738D01*
X122604022Y-95124737D01*
X122470112Y-95069271D01*
X122470110Y-95069270D01*
X122470109Y-95069270D01*
X122377511Y-95057079D01*
X122326401Y-95050350D01*
X122326399Y-95050350D01*
X122182691Y-95069270D01*
X122182687Y-95069271D01*
X122048777Y-95124737D01*
X121933779Y-95212979D01*
X121845537Y-95327977D01*
X121790071Y-95461887D01*
X121790070Y-95461891D01*
X121771150Y-95605599D01*
X121771150Y-95605600D01*
X121790070Y-95749308D01*
X121812081Y-95802449D01*
X121819549Y-95871918D01*
X121788273Y-95934397D01*
X121728184Y-95970049D01*
X121697519Y-95973900D01*
X120821681Y-95973900D01*
X120754642Y-95954215D01*
X120708887Y-95901411D01*
X120698943Y-95832253D01*
X120707119Y-95802449D01*
X120712572Y-95789283D01*
X120729130Y-95749309D01*
X120748050Y-95605600D01*
X120729130Y-95461891D01*
X120673661Y-95327975D01*
X120585421Y-95212979D01*
X120470425Y-95124739D01*
X120470424Y-95124738D01*
X120470422Y-95124737D01*
X120336512Y-95069271D01*
X120336510Y-95069270D01*
X120336509Y-95069270D01*
X120243911Y-95057079D01*
X120192801Y-95050350D01*
X120192799Y-95050350D01*
X120049091Y-95069270D01*
X120049087Y-95069271D01*
X119915177Y-95124737D01*
X119800179Y-95212979D01*
X119711937Y-95327977D01*
X119656471Y-95461887D01*
X119656470Y-95461891D01*
X119637550Y-95605599D01*
X119637550Y-95605600D01*
X119656470Y-95749308D01*
X119678481Y-95802449D01*
X119685949Y-95871918D01*
X119654673Y-95934397D01*
X119594584Y-95970049D01*
X119563919Y-95973900D01*
X118658322Y-95973900D01*
X118591283Y-95954215D01*
X118545528Y-95901411D01*
X118535584Y-95832253D01*
X118543762Y-95802445D01*
X118544730Y-95800109D01*
X118563650Y-95656400D01*
X118544730Y-95512691D01*
X118489261Y-95378775D01*
X118401021Y-95263779D01*
X118286025Y-95175539D01*
X118286024Y-95175538D01*
X118286022Y-95175537D01*
X118152112Y-95120071D01*
X118152110Y-95120070D01*
X118152109Y-95120070D01*
X118080254Y-95110610D01*
X118008401Y-95101150D01*
X118008399Y-95101150D01*
X117864691Y-95120070D01*
X117864687Y-95120071D01*
X117730777Y-95175537D01*
X117615779Y-95263779D01*
X117527537Y-95378777D01*
X117472071Y-95512687D01*
X117472070Y-95512691D01*
X117453150Y-95656399D01*
X117453150Y-95656400D01*
X117472070Y-95800108D01*
X117472070Y-95800109D01*
X117473038Y-95802445D01*
X117473267Y-95804575D01*
X117474174Y-95807960D01*
X117473646Y-95808101D01*
X117480508Y-95871914D01*
X117449235Y-95934394D01*
X117389146Y-95970048D01*
X117358478Y-95973900D01*
X116575522Y-95973900D01*
X116508483Y-95954215D01*
X116462728Y-95901411D01*
X116452784Y-95832253D01*
X116460962Y-95802445D01*
X116461930Y-95800109D01*
X116480850Y-95656400D01*
X116461930Y-95512691D01*
X116406461Y-95378775D01*
X116318221Y-95263779D01*
X116203225Y-95175539D01*
X116203224Y-95175538D01*
X116203222Y-95175537D01*
X116069312Y-95120071D01*
X116069310Y-95120070D01*
X116069309Y-95120070D01*
X115997454Y-95110610D01*
X115925601Y-95101150D01*
X115925599Y-95101150D01*
X115781891Y-95120070D01*
X115781887Y-95120071D01*
X115647977Y-95175537D01*
X115532979Y-95263779D01*
X115444737Y-95378777D01*
X115389271Y-95512687D01*
X115389270Y-95512691D01*
X115370350Y-95656399D01*
X115370350Y-95656400D01*
X115389270Y-95800108D01*
X115389270Y-95800109D01*
X115390238Y-95802445D01*
X115390467Y-95804575D01*
X115391374Y-95807960D01*
X115390846Y-95808101D01*
X115397708Y-95871914D01*
X115366435Y-95934394D01*
X115306346Y-95970048D01*
X115275678Y-95973900D01*
X114238722Y-95973900D01*
X114171683Y-95954215D01*
X114125928Y-95901411D01*
X114115984Y-95832253D01*
X114124162Y-95802445D01*
X114125130Y-95800109D01*
X114144050Y-95656400D01*
X114125130Y-95512691D01*
X114069661Y-95378775D01*
X113981421Y-95263779D01*
X113866425Y-95175539D01*
X113866424Y-95175538D01*
X113866422Y-95175537D01*
X113732512Y-95120071D01*
X113732510Y-95120070D01*
X113732509Y-95120070D01*
X113660654Y-95110610D01*
X113588801Y-95101150D01*
X113588799Y-95101150D01*
X113445091Y-95120070D01*
X113445087Y-95120071D01*
X113311177Y-95175537D01*
X113196179Y-95263779D01*
X113107937Y-95378777D01*
X113052471Y-95512687D01*
X113052470Y-95512691D01*
X113033550Y-95656399D01*
X113033550Y-95656400D01*
X113052470Y-95800108D01*
X113052470Y-95800109D01*
X113053438Y-95802445D01*
X113053667Y-95804575D01*
X113054574Y-95807960D01*
X113054046Y-95808101D01*
X113060908Y-95871914D01*
X113029635Y-95934394D01*
X112969546Y-95970048D01*
X112938878Y-95973900D01*
X112155922Y-95973900D01*
X112088883Y-95954215D01*
X112043128Y-95901411D01*
X112033184Y-95832253D01*
X112041362Y-95802445D01*
X112042330Y-95800109D01*
X112061250Y-95656400D01*
X112042330Y-95512691D01*
X111986861Y-95378775D01*
X111898621Y-95263779D01*
X111783625Y-95175539D01*
X111783622Y-95175538D01*
X111777177Y-95170592D01*
X111778199Y-95169259D01*
X111736660Y-95125687D01*
X111723442Y-95057079D01*
X111749415Y-94992217D01*
X111789249Y-94959082D01*
X111922240Y-94889283D01*
X112040483Y-94784530D01*
X112130220Y-94654523D01*
X112186237Y-94506818D01*
X112205278Y-94350000D01*
X112186237Y-94193182D01*
X112130220Y-94045477D01*
X112098830Y-94000000D01*
X128144750Y-94000000D01*
X128163670Y-94143708D01*
X128163671Y-94143712D01*
X128219137Y-94277622D01*
X128219138Y-94277624D01*
X128219139Y-94277625D01*
X128307379Y-94392621D01*
X128422375Y-94480861D01*
X128556291Y-94536330D01*
X128683280Y-94553048D01*
X128699999Y-94555250D01*
X128700000Y-94555250D01*
X128700001Y-94555250D01*
X128714977Y-94553278D01*
X128843709Y-94536330D01*
X128977625Y-94480861D01*
X129092621Y-94392621D01*
X129180861Y-94277625D01*
X129236330Y-94143709D01*
X129255250Y-94000000D01*
X129236330Y-93856291D01*
X129180861Y-93722375D01*
X129092621Y-93607379D01*
X128977625Y-93519139D01*
X128977624Y-93519138D01*
X128977622Y-93519137D01*
X128843712Y-93463671D01*
X128843710Y-93463670D01*
X128843709Y-93463670D01*
X128771854Y-93454210D01*
X128700001Y-93444750D01*
X128699999Y-93444750D01*
X128556291Y-93463670D01*
X128556287Y-93463671D01*
X128422377Y-93519137D01*
X128307379Y-93607379D01*
X128219137Y-93722377D01*
X128163671Y-93856287D01*
X128163670Y-93856291D01*
X128144750Y-93999999D01*
X128144750Y-94000000D01*
X112098830Y-94000000D01*
X112040483Y-93915470D01*
X111922240Y-93810717D01*
X111922238Y-93810716D01*
X111922237Y-93810715D01*
X111782365Y-93737303D01*
X111628986Y-93699500D01*
X111628985Y-93699500D01*
X111471015Y-93699500D01*
X111471014Y-93699500D01*
X111317634Y-93737303D01*
X111177762Y-93810715D01*
X111059516Y-93915471D01*
X110969781Y-94045475D01*
X110969780Y-94045476D01*
X110913762Y-94193181D01*
X110894722Y-94349999D01*
X110894722Y-94350000D01*
X110913762Y-94506818D01*
X110963249Y-94637303D01*
X110969780Y-94654523D01*
X111059517Y-94784530D01*
X111177760Y-94889283D01*
X111227922Y-94915610D01*
X111270489Y-94937952D01*
X111320701Y-94986537D01*
X111336675Y-95054556D01*
X111313339Y-95120414D01*
X111260315Y-95162309D01*
X111228376Y-95175538D01*
X111113379Y-95263779D01*
X111025137Y-95378777D01*
X110969671Y-95512687D01*
X110969670Y-95512691D01*
X110950750Y-95656399D01*
X110950750Y-95656400D01*
X110969670Y-95800108D01*
X110969670Y-95800109D01*
X110970638Y-95802445D01*
X110970867Y-95804575D01*
X110971774Y-95807960D01*
X110971246Y-95808101D01*
X110978108Y-95871914D01*
X110946835Y-95934394D01*
X110886746Y-95970048D01*
X110856078Y-95973900D01*
X102994000Y-95973900D01*
X102926961Y-95954215D01*
X102881206Y-95901411D01*
X102870000Y-95849900D01*
X102870000Y-92557600D01*
X105110322Y-92557600D01*
X105129362Y-92714418D01*
X105185380Y-92862123D01*
X105275117Y-92992130D01*
X105393360Y-93096883D01*
X105393362Y-93096884D01*
X105533234Y-93170296D01*
X105686614Y-93208100D01*
X105686615Y-93208100D01*
X105844585Y-93208100D01*
X105997965Y-93170296D01*
X106092236Y-93120818D01*
X106137840Y-93096883D01*
X106256083Y-92992130D01*
X106275500Y-92964000D01*
X109529922Y-92964000D01*
X109548962Y-93120818D01*
X109604980Y-93268523D01*
X109694717Y-93398530D01*
X109812960Y-93503283D01*
X109812962Y-93503284D01*
X109952834Y-93576696D01*
X110106214Y-93614500D01*
X110106215Y-93614500D01*
X110264185Y-93614500D01*
X110417565Y-93576696D01*
X110557440Y-93503283D01*
X110675683Y-93398530D01*
X110765420Y-93268523D01*
X110821437Y-93120818D01*
X110840478Y-92964000D01*
X110821437Y-92807182D01*
X110784581Y-92710000D01*
X123804722Y-92710000D01*
X123823762Y-92866818D01*
X123860619Y-92964000D01*
X123879780Y-93014523D01*
X123969517Y-93144530D01*
X124087760Y-93249283D01*
X124087762Y-93249284D01*
X124227634Y-93322696D01*
X124381014Y-93360500D01*
X124381015Y-93360500D01*
X124538985Y-93360500D01*
X124692365Y-93322696D01*
X124832240Y-93249283D01*
X124950483Y-93144530D01*
X125040220Y-93014523D01*
X125096237Y-92866818D01*
X125115278Y-92710000D01*
X126979722Y-92710000D01*
X126998762Y-92866818D01*
X127035619Y-92964000D01*
X127054780Y-93014523D01*
X127144517Y-93144530D01*
X127262760Y-93249283D01*
X127262762Y-93249284D01*
X127402634Y-93322696D01*
X127556014Y-93360500D01*
X127556015Y-93360500D01*
X127713985Y-93360500D01*
X127867365Y-93322696D01*
X128007240Y-93249283D01*
X128125483Y-93144530D01*
X128215220Y-93014523D01*
X128271237Y-92866818D01*
X128290278Y-92710000D01*
X128284144Y-92659477D01*
X128271237Y-92553181D01*
X128249992Y-92497164D01*
X128215220Y-92405477D01*
X128125483Y-92275470D01*
X128007240Y-92170717D01*
X128007238Y-92170716D01*
X128007237Y-92170715D01*
X127867365Y-92097303D01*
X127713986Y-92059500D01*
X127713985Y-92059500D01*
X127556015Y-92059500D01*
X127556014Y-92059500D01*
X127402634Y-92097303D01*
X127262762Y-92170715D01*
X127144516Y-92275471D01*
X127054781Y-92405475D01*
X127054780Y-92405476D01*
X126998762Y-92553181D01*
X126979722Y-92709999D01*
X126979722Y-92710000D01*
X125115278Y-92710000D01*
X125109144Y-92659477D01*
X125096237Y-92553181D01*
X125074992Y-92497164D01*
X125040220Y-92405477D01*
X124950483Y-92275470D01*
X124832240Y-92170717D01*
X124832238Y-92170716D01*
X124832237Y-92170715D01*
X124692365Y-92097303D01*
X124538986Y-92059500D01*
X124538985Y-92059500D01*
X124381015Y-92059500D01*
X124381014Y-92059500D01*
X124227634Y-92097303D01*
X124087762Y-92170715D01*
X123969516Y-92275471D01*
X123879781Y-92405475D01*
X123879780Y-92405476D01*
X123823762Y-92553181D01*
X123804722Y-92709999D01*
X123804722Y-92710000D01*
X110784581Y-92710000D01*
X110765420Y-92659477D01*
X110675683Y-92529470D01*
X110557440Y-92424717D01*
X110557438Y-92424716D01*
X110557437Y-92424715D01*
X110417565Y-92351303D01*
X110264186Y-92313500D01*
X110264185Y-92313500D01*
X110106215Y-92313500D01*
X110106214Y-92313500D01*
X109952834Y-92351303D01*
X109812962Y-92424715D01*
X109694716Y-92529471D01*
X109604981Y-92659475D01*
X109604980Y-92659476D01*
X109548962Y-92807181D01*
X109529922Y-92963999D01*
X109529922Y-92964000D01*
X106275500Y-92964000D01*
X106345820Y-92862123D01*
X106401837Y-92714418D01*
X106420878Y-92557600D01*
X106420342Y-92553181D01*
X106401837Y-92400781D01*
X106368735Y-92313500D01*
X106345820Y-92253077D01*
X106256083Y-92123070D01*
X106137840Y-92018317D01*
X106137838Y-92018316D01*
X106137837Y-92018315D01*
X105997965Y-91944903D01*
X105844586Y-91907100D01*
X105844585Y-91907100D01*
X105686615Y-91907100D01*
X105686614Y-91907100D01*
X105533234Y-91944903D01*
X105393362Y-92018315D01*
X105275116Y-92123071D01*
X105185381Y-92253075D01*
X105185380Y-92253076D01*
X105129362Y-92400781D01*
X105110322Y-92557599D01*
X105110322Y-92557600D01*
X102870000Y-92557600D01*
X102870000Y-90881200D01*
X109529922Y-90881200D01*
X109548962Y-91038018D01*
X109585819Y-91135200D01*
X109604980Y-91185723D01*
X109694717Y-91315730D01*
X109812960Y-91420483D01*
X109812962Y-91420484D01*
X109952834Y-91493896D01*
X110106214Y-91531700D01*
X110106215Y-91531700D01*
X110264185Y-91531700D01*
X110417565Y-91493896D01*
X110557440Y-91420483D01*
X110675683Y-91315730D01*
X110765420Y-91185723D01*
X110784581Y-91135200D01*
X129545122Y-91135200D01*
X129564162Y-91292018D01*
X129620180Y-91439723D01*
X129709917Y-91569730D01*
X129828160Y-91674483D01*
X129828162Y-91674484D01*
X129968034Y-91747896D01*
X130121414Y-91785700D01*
X130121415Y-91785700D01*
X130279385Y-91785700D01*
X130432765Y-91747896D01*
X130572640Y-91674483D01*
X130690883Y-91569730D01*
X130780620Y-91439723D01*
X130836637Y-91292018D01*
X130855678Y-91135200D01*
X130843412Y-91034175D01*
X130836637Y-90978381D01*
X130799780Y-90881199D01*
X130780620Y-90830677D01*
X130690883Y-90700670D01*
X130572640Y-90595917D01*
X130572638Y-90595916D01*
X130572637Y-90595915D01*
X130432765Y-90522503D01*
X130279386Y-90484700D01*
X130279385Y-90484700D01*
X130121415Y-90484700D01*
X130121414Y-90484700D01*
X129968034Y-90522503D01*
X129828162Y-90595915D01*
X129709916Y-90700671D01*
X129620181Y-90830675D01*
X129620180Y-90830676D01*
X129564162Y-90978381D01*
X129545122Y-91135199D01*
X129545122Y-91135200D01*
X110784581Y-91135200D01*
X110821437Y-91038018D01*
X110840478Y-90881200D01*
X110834344Y-90830677D01*
X110821437Y-90724381D01*
X110800192Y-90668364D01*
X110765420Y-90576677D01*
X110675683Y-90446670D01*
X110557440Y-90341917D01*
X110557438Y-90341916D01*
X110557437Y-90341915D01*
X110417565Y-90268503D01*
X110264186Y-90230700D01*
X110264185Y-90230700D01*
X110106215Y-90230700D01*
X110106214Y-90230700D01*
X109952834Y-90268503D01*
X109812962Y-90341915D01*
X109694716Y-90446671D01*
X109604981Y-90576675D01*
X109604980Y-90576676D01*
X109548962Y-90724381D01*
X109529922Y-90881199D01*
X109529922Y-90881200D01*
X102870000Y-90881200D01*
X102870000Y-89001600D01*
X109529922Y-89001600D01*
X109548962Y-89158418D01*
X109604980Y-89306123D01*
X109694717Y-89436130D01*
X109812960Y-89540883D01*
X109812962Y-89540884D01*
X109952834Y-89614296D01*
X110106214Y-89652100D01*
X110106215Y-89652100D01*
X110264185Y-89652100D01*
X110417565Y-89614296D01*
X110557440Y-89540883D01*
X110675683Y-89436130D01*
X110765420Y-89306123D01*
X110821437Y-89158418D01*
X110840478Y-89001600D01*
X110821437Y-88844782D01*
X110765420Y-88697077D01*
X110675683Y-88567070D01*
X110557440Y-88462317D01*
X110557438Y-88462316D01*
X110557437Y-88462315D01*
X110417565Y-88388903D01*
X110264186Y-88351100D01*
X110264185Y-88351100D01*
X110106215Y-88351100D01*
X110106214Y-88351100D01*
X109952834Y-88388903D01*
X109812962Y-88462315D01*
X109694716Y-88567071D01*
X109604981Y-88697075D01*
X109604980Y-88697076D01*
X109548962Y-88844781D01*
X109529922Y-89001599D01*
X109529922Y-89001600D01*
X102870000Y-89001600D01*
X102870000Y-88250000D01*
X122694750Y-88250000D01*
X122713037Y-88388904D01*
X122713670Y-88393708D01*
X122713671Y-88393712D01*
X122769137Y-88527622D01*
X122769138Y-88527624D01*
X122769139Y-88527625D01*
X122857379Y-88642621D01*
X122972375Y-88730861D01*
X123106291Y-88786330D01*
X123233280Y-88803048D01*
X123249999Y-88805250D01*
X123250000Y-88805250D01*
X123250001Y-88805250D01*
X123264977Y-88803278D01*
X123393709Y-88786330D01*
X123527625Y-88730861D01*
X123642621Y-88642621D01*
X123730861Y-88527625D01*
X123786330Y-88393709D01*
X123805250Y-88250000D01*
X123786330Y-88106291D01*
X123730861Y-87972375D01*
X123642621Y-87857379D01*
X123527625Y-87769139D01*
X123527624Y-87769138D01*
X123527622Y-87769137D01*
X123393712Y-87713671D01*
X123393710Y-87713670D01*
X123393709Y-87713670D01*
X123321854Y-87704210D01*
X123250001Y-87694750D01*
X123249999Y-87694750D01*
X123106291Y-87713670D01*
X123106287Y-87713671D01*
X122972377Y-87769137D01*
X122857379Y-87857379D01*
X122769137Y-87972377D01*
X122713671Y-88106287D01*
X122713670Y-88106291D01*
X122694750Y-88250000D01*
X102870000Y-88250000D01*
X102870000Y-86400000D01*
X105924728Y-86400000D01*
X105924811Y-86401067D01*
X105983603Y-86645956D01*
X106079980Y-86878631D01*
X106211568Y-87093362D01*
X106211571Y-87093367D01*
X106375130Y-87284869D01*
X106566632Y-87448428D01*
X106566637Y-87448431D01*
X106781368Y-87580019D01*
X107014043Y-87676396D01*
X107258932Y-87735188D01*
X107259999Y-87735271D01*
X107260000Y-87735271D01*
X107260000Y-86640747D01*
X107297708Y-86662518D01*
X107437591Y-86700000D01*
X107582409Y-86700000D01*
X107722292Y-86662518D01*
X107760000Y-86640747D01*
X107760000Y-87735271D01*
X107761067Y-87735188D01*
X108005956Y-87676396D01*
X108238631Y-87580019D01*
X108453362Y-87448431D01*
X108453367Y-87448428D01*
X108568611Y-87350000D01*
X117044750Y-87350000D01*
X117061978Y-87480861D01*
X117063670Y-87493708D01*
X117063671Y-87493712D01*
X117119137Y-87627622D01*
X117119138Y-87627624D01*
X117119139Y-87627625D01*
X117207379Y-87742621D01*
X117322375Y-87830861D01*
X117456291Y-87886330D01*
X117583280Y-87903048D01*
X117599999Y-87905250D01*
X117600000Y-87905250D01*
X117600001Y-87905250D01*
X117614977Y-87903278D01*
X117743709Y-87886330D01*
X117877625Y-87830861D01*
X117992621Y-87742621D01*
X118080861Y-87627625D01*
X118113344Y-87549202D01*
X118157183Y-87494801D01*
X118223477Y-87472736D01*
X118275356Y-87482096D01*
X118330243Y-87504830D01*
X118406291Y-87536330D01*
X118533280Y-87553048D01*
X118549999Y-87555250D01*
X118550000Y-87555250D01*
X118550001Y-87555250D01*
X118564977Y-87553278D01*
X118693709Y-87536330D01*
X118827625Y-87480861D01*
X118942621Y-87392621D01*
X119030861Y-87277625D01*
X119086330Y-87143709D01*
X119105250Y-87000000D01*
X119105142Y-86999178D01*
X119546600Y-86999178D01*
X119561132Y-87072235D01*
X119561133Y-87072239D01*
X119575247Y-87093362D01*
X119616499Y-87155101D01*
X119693106Y-87206287D01*
X119699360Y-87210466D01*
X119699364Y-87210467D01*
X119772421Y-87224999D01*
X119772424Y-87225000D01*
X119772426Y-87225000D01*
X122021776Y-87225000D01*
X122021777Y-87224999D01*
X122094840Y-87210466D01*
X122177701Y-87155101D01*
X122233066Y-87072240D01*
X122247600Y-86999174D01*
X122247600Y-86100000D01*
X124744750Y-86100000D01*
X124763670Y-86243708D01*
X124763671Y-86243712D01*
X124819137Y-86377622D01*
X124819138Y-86377624D01*
X124819139Y-86377625D01*
X124907379Y-86492621D01*
X125022375Y-86580861D01*
X125156291Y-86636330D01*
X125283280Y-86653048D01*
X125299999Y-86655250D01*
X125300000Y-86655250D01*
X125300001Y-86655250D01*
X125314977Y-86653278D01*
X125443709Y-86636330D01*
X125577625Y-86580861D01*
X125692621Y-86492621D01*
X125780861Y-86377625D01*
X125836330Y-86243709D01*
X125855250Y-86100000D01*
X125836330Y-85956291D01*
X125780861Y-85822375D01*
X125692621Y-85707379D01*
X125577625Y-85619139D01*
X125577624Y-85619138D01*
X125577622Y-85619137D01*
X125443712Y-85563671D01*
X125443710Y-85563670D01*
X125443709Y-85563670D01*
X125371854Y-85554210D01*
X125300001Y-85544750D01*
X125299999Y-85544750D01*
X125156291Y-85563670D01*
X125156287Y-85563671D01*
X125022377Y-85619137D01*
X124907379Y-85707379D01*
X124819137Y-85822377D01*
X124763671Y-85956287D01*
X124763670Y-85956291D01*
X124744750Y-86099999D01*
X124744750Y-86100000D01*
X122247600Y-86100000D01*
X122247600Y-84749826D01*
X122247600Y-84749823D01*
X122247599Y-84749821D01*
X122233067Y-84676764D01*
X122233066Y-84676760D01*
X122197548Y-84623603D01*
X122177701Y-84593899D01*
X122096193Y-84539438D01*
X122094839Y-84538533D01*
X122094835Y-84538532D01*
X122021777Y-84524000D01*
X122021774Y-84524000D01*
X119772426Y-84524000D01*
X119772423Y-84524000D01*
X119699364Y-84538532D01*
X119699360Y-84538533D01*
X119616499Y-84593899D01*
X119561133Y-84676760D01*
X119561132Y-84676764D01*
X119546600Y-84749821D01*
X119546600Y-86999178D01*
X119105142Y-86999178D01*
X119086330Y-86856291D01*
X119030861Y-86722375D01*
X118942621Y-86607379D01*
X118827625Y-86519139D01*
X118827624Y-86519138D01*
X118827622Y-86519137D01*
X118693712Y-86463671D01*
X118693710Y-86463670D01*
X118693709Y-86463670D01*
X118621854Y-86454210D01*
X118550001Y-86444750D01*
X118549999Y-86444750D01*
X118406291Y-86463670D01*
X118406287Y-86463671D01*
X118272377Y-86519137D01*
X118191938Y-86580861D01*
X118157379Y-86607379D01*
X118069139Y-86722375D01*
X118069138Y-86722376D01*
X118069138Y-86722377D01*
X118036656Y-86800795D01*
X117992815Y-86855198D01*
X117926520Y-86877263D01*
X117874643Y-86867904D01*
X117743709Y-86813670D01*
X117743708Y-86813669D01*
X117743706Y-86813669D01*
X117600001Y-86794750D01*
X117599999Y-86794750D01*
X117456291Y-86813670D01*
X117456287Y-86813671D01*
X117322377Y-86869137D01*
X117207379Y-86957379D01*
X117119137Y-87072377D01*
X117063671Y-87206287D01*
X117063670Y-87206291D01*
X117054279Y-87277625D01*
X117044750Y-87350000D01*
X108568611Y-87350000D01*
X108644869Y-87284869D01*
X108808428Y-87093367D01*
X108808431Y-87093362D01*
X108940019Y-86878631D01*
X109036396Y-86645956D01*
X109095188Y-86401067D01*
X109095272Y-86400000D01*
X108000748Y-86400000D01*
X108022518Y-86362292D01*
X108060000Y-86222409D01*
X108060000Y-86077591D01*
X108022518Y-85937708D01*
X108000748Y-85900000D01*
X109095271Y-85900000D01*
X109095271Y-85899999D01*
X109095188Y-85898932D01*
X109089322Y-85874500D01*
X111921441Y-85874500D01*
X111942036Y-86109903D01*
X111942038Y-86109913D01*
X112003194Y-86338155D01*
X112003196Y-86338159D01*
X112003197Y-86338163D01*
X112061722Y-86463670D01*
X112103065Y-86552330D01*
X112103067Y-86552334D01*
X112206465Y-86700000D01*
X112238605Y-86745901D01*
X112405699Y-86912995D01*
X112469086Y-86957379D01*
X112599265Y-87048532D01*
X112599267Y-87048533D01*
X112599270Y-87048535D01*
X112813437Y-87148403D01*
X112813443Y-87148404D01*
X112813444Y-87148405D01*
X112868385Y-87163126D01*
X113041692Y-87209563D01*
X113218134Y-87225000D01*
X113277099Y-87230159D01*
X113277100Y-87230159D01*
X113277101Y-87230159D01*
X113336066Y-87225000D01*
X113512508Y-87209563D01*
X113740763Y-87148403D01*
X113954930Y-87048535D01*
X114148501Y-86912995D01*
X114315595Y-86745901D01*
X114451135Y-86552330D01*
X114551003Y-86338163D01*
X114612163Y-86109908D01*
X114632759Y-85874500D01*
X114612163Y-85639092D01*
X114551003Y-85410837D01*
X114451135Y-85196671D01*
X114324020Y-85015130D01*
X114315594Y-85003097D01*
X114148502Y-84836006D01*
X114148495Y-84836001D01*
X113954934Y-84700467D01*
X113954930Y-84700465D01*
X113904103Y-84676764D01*
X113740763Y-84600597D01*
X113740759Y-84600596D01*
X113740755Y-84600594D01*
X113512513Y-84539438D01*
X113512503Y-84539436D01*
X113277101Y-84518841D01*
X113277099Y-84518841D01*
X113041696Y-84539436D01*
X113041686Y-84539438D01*
X112813444Y-84600594D01*
X112813435Y-84600598D01*
X112599271Y-84700464D01*
X112599269Y-84700465D01*
X112405697Y-84836005D01*
X112238605Y-85003097D01*
X112103065Y-85196669D01*
X112103064Y-85196671D01*
X112003198Y-85410835D01*
X112003194Y-85410844D01*
X111942038Y-85639086D01*
X111942036Y-85639096D01*
X111921441Y-85874499D01*
X111921441Y-85874500D01*
X109089322Y-85874500D01*
X109036396Y-85654043D01*
X108940019Y-85421368D01*
X108808431Y-85206637D01*
X108808428Y-85206632D01*
X108644869Y-85015130D01*
X108453367Y-84851571D01*
X108453362Y-84851568D01*
X108238631Y-84719980D01*
X108005956Y-84623603D01*
X107761064Y-84564811D01*
X107760000Y-84564726D01*
X107760000Y-85659252D01*
X107722292Y-85637482D01*
X107582409Y-85600000D01*
X107437591Y-85600000D01*
X107297708Y-85637482D01*
X107260000Y-85659252D01*
X107260000Y-84564726D01*
X107258935Y-84564811D01*
X107014043Y-84623603D01*
X106781368Y-84719980D01*
X106566637Y-84851568D01*
X106566632Y-84851571D01*
X106375130Y-85015130D01*
X106211571Y-85206632D01*
X106211568Y-85206637D01*
X106079980Y-85421368D01*
X105983603Y-85654043D01*
X105924811Y-85898932D01*
X105924728Y-85899999D01*
X105924729Y-85900000D01*
X107019252Y-85900000D01*
X106997482Y-85937708D01*
X106960000Y-86077591D01*
X106960000Y-86222409D01*
X106997482Y-86362292D01*
X107019252Y-86400000D01*
X105924728Y-86400000D01*
X102870000Y-86400000D01*
X102870000Y-83944000D01*
X102889685Y-83876961D01*
X102942489Y-83831206D01*
X102994000Y-83820000D01*
X107793071Y-83820000D01*
X107822745Y-83823603D01*
G37*
G04 #@! TD.AperFunction*
M02*
