G04 #@! TF.GenerationSoftware,KiCad,Pcbnew,8.0.0*
G04 #@! TF.CreationDate,2024-10-21T16:28:35+02:00*
G04 #@! TF.ProjectId,BatteryBridge,42617474-6572-4794-9272-696467652e6b,rev?*
G04 #@! TF.SameCoordinates,Original*
G04 #@! TF.FileFunction,Copper,L1,Top*
G04 #@! TF.FilePolarity,Positive*
%FSLAX46Y46*%
G04 Gerber Fmt 4.6, Leading zero omitted, Abs format (unit mm)*
G04 Created by KiCad (PCBNEW 8.0.0) date 2024-10-21 16:28:35*
%MOMM*%
%LPD*%
G01*
G04 APERTURE LIST*
G04 Aperture macros list*
%AMRoundRect*
0 Rectangle with rounded corners*
0 $1 Rounding radius*
0 $2 $3 $4 $5 $6 $7 $8 $9 X,Y pos of 4 corners*
0 Add a 4 corners polygon primitive as box body*
4,1,4,$2,$3,$4,$5,$6,$7,$8,$9,$2,$3,0*
0 Add four circle primitives for the rounded corners*
1,1,$1+$1,$2,$3*
1,1,$1+$1,$4,$5*
1,1,$1+$1,$6,$7*
1,1,$1+$1,$8,$9*
0 Add four rect primitives between the rounded corners*
20,1,$1+$1,$2,$3,$4,$5,0*
20,1,$1+$1,$4,$5,$6,$7,0*
20,1,$1+$1,$6,$7,$8,$9,0*
20,1,$1+$1,$8,$9,$2,$3,0*%
G04 Aperture macros list end*
G04 #@! TA.AperFunction,SMDPad,CuDef*
%ADD10RoundRect,0.250000X-0.475000X0.250000X-0.475000X-0.250000X0.475000X-0.250000X0.475000X0.250000X0*%
G04 #@! TD*
G04 #@! TA.AperFunction,SMDPad,CuDef*
%ADD11RoundRect,0.150000X-0.512500X-0.150000X0.512500X-0.150000X0.512500X0.150000X-0.512500X0.150000X0*%
G04 #@! TD*
G04 #@! TA.AperFunction,SMDPad,CuDef*
%ADD12R,1.600000X3.500000*%
G04 #@! TD*
G04 #@! TA.AperFunction,SMDPad,CuDef*
%ADD13RoundRect,0.250000X0.475000X-0.250000X0.475000X0.250000X-0.475000X0.250000X-0.475000X-0.250000X0*%
G04 #@! TD*
G04 #@! TA.AperFunction,SMDPad,CuDef*
%ADD14RoundRect,0.250000X0.250000X0.475000X-0.250000X0.475000X-0.250000X-0.475000X0.250000X-0.475000X0*%
G04 #@! TD*
G04 #@! TA.AperFunction,SMDPad,CuDef*
%ADD15RoundRect,0.250000X0.262500X0.450000X-0.262500X0.450000X-0.262500X-0.450000X0.262500X-0.450000X0*%
G04 #@! TD*
G04 #@! TA.AperFunction,SMDPad,CuDef*
%ADD16RoundRect,0.250000X-0.450000X0.262500X-0.450000X-0.262500X0.450000X-0.262500X0.450000X0.262500X0*%
G04 #@! TD*
G04 #@! TA.AperFunction,SMDPad,CuDef*
%ADD17RoundRect,0.250000X-0.262500X-0.450000X0.262500X-0.450000X0.262500X0.450000X-0.262500X0.450000X0*%
G04 #@! TD*
G04 #@! TA.AperFunction,SMDPad,CuDef*
%ADD18RoundRect,0.243750X-0.456250X0.243750X-0.456250X-0.243750X0.456250X-0.243750X0.456250X0.243750X0*%
G04 #@! TD*
G04 #@! TA.AperFunction,SMDPad,CuDef*
%ADD19RoundRect,0.100000X-0.900000X-0.100000X0.900000X-0.100000X0.900000X0.100000X-0.900000X0.100000X0*%
G04 #@! TD*
G04 #@! TA.AperFunction,SMDPad,CuDef*
%ADD20RoundRect,0.250000X1.400000X1.000000X-1.400000X1.000000X-1.400000X-1.000000X1.400000X-1.000000X0*%
G04 #@! TD*
G04 #@! TA.AperFunction,SMDPad,CuDef*
%ADD21R,0.510000X0.700000*%
G04 #@! TD*
G04 #@! TA.AperFunction,SMDPad,CuDef*
%ADD22RoundRect,0.250000X1.100000X-0.325000X1.100000X0.325000X-1.100000X0.325000X-1.100000X-0.325000X0*%
G04 #@! TD*
G04 #@! TA.AperFunction,SMDPad,CuDef*
%ADD23RoundRect,0.250000X-0.250000X-0.475000X0.250000X-0.475000X0.250000X0.475000X-0.250000X0.475000X0*%
G04 #@! TD*
G04 #@! TA.AperFunction,SMDPad,CuDef*
%ADD24RoundRect,0.150000X0.150000X0.700000X-0.150000X0.700000X-0.150000X-0.700000X0.150000X-0.700000X0*%
G04 #@! TD*
G04 #@! TA.AperFunction,SMDPad,CuDef*
%ADD25RoundRect,0.250000X0.250000X1.100000X-0.250000X1.100000X-0.250000X-1.100000X0.250000X-1.100000X0*%
G04 #@! TD*
G04 #@! TA.AperFunction,ComponentPad*
%ADD26C,2.600000*%
G04 #@! TD*
G04 #@! TA.AperFunction,ConnectorPad*
%ADD27C,4.400000*%
G04 #@! TD*
G04 #@! TA.AperFunction,SMDPad,CuDef*
%ADD28RoundRect,0.150000X-0.587500X-0.150000X0.587500X-0.150000X0.587500X0.150000X-0.587500X0.150000X0*%
G04 #@! TD*
G04 #@! TA.AperFunction,SMDPad,CuDef*
%ADD29RoundRect,0.250000X0.450000X-0.262500X0.450000X0.262500X-0.450000X0.262500X-0.450000X-0.262500X0*%
G04 #@! TD*
G04 #@! TA.AperFunction,SMDPad,CuDef*
%ADD30RoundRect,0.150000X0.512500X0.150000X-0.512500X0.150000X-0.512500X-0.150000X0.512500X-0.150000X0*%
G04 #@! TD*
G04 #@! TA.AperFunction,SMDPad,CuDef*
%ADD31RoundRect,0.300000X-0.300000X1.000000X-0.300000X-1.000000X0.300000X-1.000000X0.300000X1.000000X0*%
G04 #@! TD*
G04 #@! TA.AperFunction,ComponentPad*
%ADD32C,0.800000*%
G04 #@! TD*
G04 #@! TA.AperFunction,ComponentPad*
%ADD33C,6.400000*%
G04 #@! TD*
G04 #@! TA.AperFunction,SMDPad,CuDef*
%ADD34RoundRect,0.737500X-1.012500X-0.737500X1.012500X-0.737500X1.012500X0.737500X-1.012500X0.737500X0*%
G04 #@! TD*
G04 #@! TA.AperFunction,ComponentPad*
%ADD35R,2.200000X2.200000*%
G04 #@! TD*
G04 #@! TA.AperFunction,ComponentPad*
%ADD36O,2.200000X2.200000*%
G04 #@! TD*
G04 #@! TA.AperFunction,SMDPad,CuDef*
%ADD37RoundRect,0.150000X0.587500X0.150000X-0.587500X0.150000X-0.587500X-0.150000X0.587500X-0.150000X0*%
G04 #@! TD*
G04 #@! TA.AperFunction,SMDPad,CuDef*
%ADD38R,1.390000X1.400000*%
G04 #@! TD*
G04 #@! TA.AperFunction,SMDPad,CuDef*
%ADD39R,3.360000X4.860000*%
G04 #@! TD*
G04 #@! TA.AperFunction,SMDPad,CuDef*
%ADD40RoundRect,0.243750X0.456250X-0.243750X0.456250X0.243750X-0.456250X0.243750X-0.456250X-0.243750X0*%
G04 #@! TD*
G04 #@! TA.AperFunction,ViaPad*
%ADD41C,0.600000*%
G04 #@! TD*
G04 #@! TA.AperFunction,ViaPad*
%ADD42C,0.800000*%
G04 #@! TD*
G04 #@! TA.AperFunction,Conductor*
%ADD43C,0.508000*%
G04 #@! TD*
G04 #@! TA.AperFunction,Conductor*
%ADD44C,0.250000*%
G04 #@! TD*
G04 #@! TA.AperFunction,Conductor*
%ADD45C,0.350000*%
G04 #@! TD*
G04 APERTURE END LIST*
D10*
X125867200Y-88900000D03*
X125867200Y-90800000D03*
X121884400Y-88550000D03*
X121884400Y-90450000D03*
D11*
X102287500Y-92565000D03*
X102287500Y-93515000D03*
X102287500Y-94465000D03*
X104562500Y-94465000D03*
X104562500Y-93515000D03*
X104562500Y-92565000D03*
D12*
X84200000Y-94195200D03*
X84200000Y-88595200D03*
D13*
X98042500Y-94445000D03*
X98042500Y-92545000D03*
D14*
X140042400Y-88775400D03*
X138142400Y-88775400D03*
D15*
X77562500Y-86050000D03*
X75737500Y-86050000D03*
D16*
X100350000Y-88862500D03*
X100350000Y-90687500D03*
X82600000Y-79437500D03*
X82600000Y-81262500D03*
D15*
X108354500Y-94386400D03*
X106529500Y-94386400D03*
D17*
X133487500Y-83200000D03*
X135312500Y-83200000D03*
D18*
X98320000Y-88857500D03*
X98320000Y-90732500D03*
D14*
X130568000Y-97827200D03*
X128668000Y-97827200D03*
D13*
X143450000Y-86850000D03*
X143450000Y-84950000D03*
X100172500Y-94455000D03*
X100172500Y-92555000D03*
D17*
X75737500Y-84000000D03*
X77562500Y-84000000D03*
D19*
X137600800Y-84928000D03*
X137600800Y-85568000D03*
X137600800Y-86228000D03*
X137600800Y-86868000D03*
X141020800Y-86868000D03*
X141020800Y-86228000D03*
X141020800Y-85568000D03*
X141020800Y-84928000D03*
D10*
X106760000Y-88775000D03*
X106760000Y-90675000D03*
D13*
X113231900Y-94358100D03*
X113231900Y-92458100D03*
D20*
X129200000Y-86150000D03*
X129200000Y-79350000D03*
D21*
X140494400Y-83433000D03*
X141444400Y-83433000D03*
X142394400Y-83433000D03*
X142394400Y-81113000D03*
X141444400Y-81113000D03*
X140494400Y-81113000D03*
D22*
X91150000Y-92525000D03*
X91150000Y-89575000D03*
D23*
X86000000Y-81100000D03*
X87900000Y-81100000D03*
D15*
X136142100Y-88798400D03*
X134317100Y-88798400D03*
D24*
X119420000Y-82710000D03*
X118170000Y-82710000D03*
X116920000Y-82710000D03*
D25*
X121270000Y-79510000D03*
X115070000Y-79510000D03*
D26*
X110030000Y-80030000D03*
D27*
X110030000Y-80030000D03*
D23*
X132260000Y-99918000D03*
X134160000Y-99918000D03*
D14*
X135350000Y-81150000D03*
X133450000Y-81150000D03*
D22*
X94550000Y-92525000D03*
X94550000Y-89575000D03*
D24*
X103900000Y-82930000D03*
X102650000Y-82930000D03*
X101400000Y-82930000D03*
D25*
X105750000Y-79730000D03*
X99550000Y-79730000D03*
D10*
X119700000Y-88550000D03*
X119700000Y-90450000D03*
D15*
X132588000Y-88798400D03*
X130763000Y-88798400D03*
D23*
X132290000Y-97878000D03*
X134190000Y-97878000D03*
D14*
X134250000Y-92145600D03*
X132350000Y-92145600D03*
D19*
X80349200Y-82976800D03*
X80349200Y-83616800D03*
X80349200Y-84276800D03*
X80349200Y-84916800D03*
X83769200Y-84916800D03*
X83769200Y-84276800D03*
X83769200Y-83616800D03*
X83769200Y-82976800D03*
D28*
X115698000Y-92458100D03*
X115698000Y-94358100D03*
X117573000Y-93408100D03*
D29*
X119800000Y-94362500D03*
X119800000Y-92537500D03*
D30*
X117651500Y-90482100D03*
X117651500Y-89532100D03*
X117651500Y-88582100D03*
X115376500Y-88582100D03*
X115376500Y-89532100D03*
X115376500Y-90482100D03*
D23*
X85950000Y-79000000D03*
X87850000Y-79000000D03*
D31*
X136000000Y-95150000D03*
X143300000Y-95150000D03*
D14*
X135350000Y-85250000D03*
X133450000Y-85250000D03*
D32*
X145783600Y-92710000D03*
X146486544Y-91012944D03*
X146486544Y-94407056D03*
X148183600Y-90310000D03*
D33*
X148183600Y-92710000D03*
D32*
X148183600Y-95110000D03*
X149880656Y-91012944D03*
X149880656Y-94407056D03*
X150583600Y-92710000D03*
D13*
X80466400Y-81250000D03*
X80466400Y-79350000D03*
D11*
X130105300Y-93990500D03*
X130105300Y-94940500D03*
X130105300Y-95890500D03*
X132380300Y-95890500D03*
X132380300Y-94940500D03*
X132380300Y-93990500D03*
D17*
X141749200Y-88724600D03*
X143574200Y-88724600D03*
D34*
X148031200Y-87274400D03*
X148031200Y-81824400D03*
D35*
X99890000Y-86150000D03*
D36*
X107510000Y-86150000D03*
D35*
X120897100Y-85874500D03*
D36*
X113277100Y-85874500D03*
D29*
X113231900Y-90459800D03*
X113231900Y-88634800D03*
D37*
X104387500Y-90725000D03*
X104387500Y-88825000D03*
X102512500Y-89775000D03*
D17*
X86037500Y-83200000D03*
X87862500Y-83200000D03*
D38*
X77400000Y-89550000D03*
X75560000Y-89550000D03*
D39*
X76480000Y-93532000D03*
D10*
X127950000Y-88900000D03*
X127950000Y-90800000D03*
D40*
X121817500Y-94367500D03*
X121817500Y-92492500D03*
D41*
X125300000Y-86100000D03*
X118550000Y-87000000D03*
X129100000Y-82400000D03*
X146800000Y-79650000D03*
D42*
X75565000Y-79375000D03*
X133959600Y-87274400D03*
X145440400Y-96621600D03*
X124460000Y-95250000D03*
X130200400Y-91135200D03*
X137795000Y-93980000D03*
X94615000Y-79375000D03*
X139700000Y-93980000D03*
X86360000Y-85725000D03*
D41*
X79600000Y-82250000D03*
D42*
X133553200Y-90373200D03*
X150495000Y-84455000D03*
D41*
X78750000Y-86650000D03*
D42*
X107950000Y-83185000D03*
X84300000Y-81400000D03*
X114935000Y-83185000D03*
X137160000Y-91440000D03*
D41*
X79600000Y-86350000D03*
D42*
X116840000Y-79375000D03*
X147955000Y-84455000D03*
X75565000Y-81280000D03*
D41*
X140716000Y-79756000D03*
D42*
X95885000Y-94615000D03*
D41*
X80450000Y-82250000D03*
D42*
X93345000Y-94615000D03*
X77470000Y-81280000D03*
X110185200Y-92964000D03*
X73660000Y-81280000D03*
X96520000Y-79375000D03*
D41*
X111506000Y-95656400D03*
D42*
X140335000Y-100330000D03*
D41*
X144780000Y-79756000D03*
D42*
X110185200Y-89001600D03*
D41*
X144780000Y-78232000D03*
X129850000Y-99850000D03*
X130200000Y-81350000D03*
D42*
X84300000Y-80250000D03*
X123240800Y-78638400D03*
D41*
X127850000Y-99850000D03*
D42*
X150825200Y-89357200D03*
X124917200Y-78638400D03*
D41*
X142748000Y-79756000D03*
X131200000Y-82400000D03*
X146812000Y-78232000D03*
D42*
X96520000Y-88138000D03*
D41*
X130200000Y-82400000D03*
X117600000Y-87350000D03*
D42*
X137160000Y-100330000D03*
D41*
X131200000Y-81350000D03*
D42*
X73660000Y-79375000D03*
D41*
X113588800Y-95656400D03*
D42*
X93980000Y-88138000D03*
D41*
X123250000Y-88250000D03*
D42*
X127635000Y-92710000D03*
D41*
X120192800Y-95605600D03*
D42*
X112395000Y-83185000D03*
X96520000Y-85725000D03*
X88900000Y-85725000D03*
X91440000Y-85725000D03*
D41*
X115925600Y-95656400D03*
D42*
X94615000Y-82550000D03*
X142875000Y-100330000D03*
X142240000Y-91440000D03*
D41*
X129100000Y-81350000D03*
D42*
X77470000Y-79375000D03*
X119380000Y-79375000D03*
X93980000Y-85725000D03*
X124460000Y-92710000D03*
D41*
X118008400Y-95656400D03*
D42*
X137769600Y-95910400D03*
D41*
X142748000Y-78232000D03*
D42*
X110185200Y-90881200D03*
X90805000Y-94615000D03*
X139700000Y-91440000D03*
X103505000Y-79375000D03*
D41*
X122326400Y-95605600D03*
D42*
X101600000Y-79375000D03*
X96520000Y-82550000D03*
D41*
X140716000Y-78232000D03*
D42*
X111550000Y-94350000D03*
D41*
X127500000Y-96200000D03*
X127450000Y-97650000D03*
X108915200Y-95554800D03*
X106426000Y-95605600D03*
X128500000Y-96200000D03*
X127550000Y-95100000D03*
X91694000Y-83820000D03*
X90424000Y-82804000D03*
X89154000Y-83820000D03*
X85240000Y-84300000D03*
X139230000Y-84720000D03*
X92900000Y-82804000D03*
X90424000Y-83820000D03*
X91694000Y-82804000D03*
X146050000Y-85550000D03*
X89154000Y-82804000D03*
X145250000Y-86150000D03*
X135350000Y-97950000D03*
X128700000Y-94000000D03*
X81788000Y-87884000D03*
X81788000Y-89916000D03*
X80518000Y-89916000D03*
X79248000Y-89916000D03*
X80518000Y-87884000D03*
X79248000Y-87884000D03*
X76350000Y-87650000D03*
X77150000Y-88200000D03*
X74750000Y-87650000D03*
X75550000Y-88200000D03*
X78050000Y-87700000D03*
X83480000Y-85550000D03*
X145970000Y-83830000D03*
X141000000Y-87600000D03*
D42*
X105765600Y-92557600D03*
D43*
X112082100Y-90482100D02*
X111750000Y-90150000D01*
X111750000Y-87401600D02*
X113277100Y-85874500D01*
X118400000Y-81200000D02*
X120150000Y-81200000D01*
X118170000Y-82710000D02*
X118170000Y-84430000D01*
X111750000Y-90150000D02*
X111750000Y-87401600D01*
X118170000Y-82710000D02*
X118170000Y-81430000D01*
X116725500Y-85874500D02*
X113277100Y-85874500D01*
X118170000Y-81430000D02*
X118400000Y-81200000D01*
X115376500Y-90482100D02*
X112082100Y-90482100D01*
X118170000Y-84430000D02*
X116725500Y-85874500D01*
X120150000Y-81200000D02*
X125050000Y-86100000D01*
X125050000Y-86100000D02*
X125300000Y-86100000D01*
X120500000Y-84200000D02*
X120897100Y-84597100D01*
X115698000Y-94358100D02*
X119465100Y-94358100D01*
X113223800Y-94350000D02*
X113231900Y-94358100D01*
X119420000Y-83870000D02*
X119750000Y-84200000D01*
X120897100Y-84597100D02*
X120897100Y-85874500D01*
X119420000Y-82710000D02*
X119420000Y-83870000D01*
X119750000Y-84200000D02*
X120500000Y-84200000D01*
X111550000Y-94350000D02*
X113223800Y-94350000D01*
X115698000Y-94358100D02*
X113231900Y-94358100D01*
X107510000Y-86150000D02*
X105350000Y-86150000D01*
X105350000Y-86150000D02*
X103900000Y-84700000D01*
X103900000Y-84700000D02*
X103900000Y-82930000D01*
D44*
X85950000Y-79000000D02*
X84850000Y-79000000D01*
X84850000Y-79000000D02*
X84412500Y-79437500D01*
X84412500Y-79437500D02*
X82600000Y-79437500D01*
X83792400Y-84300000D02*
X83769200Y-84276800D01*
X85240000Y-84300000D02*
X83792400Y-84300000D01*
D45*
X139230000Y-84720000D02*
X139020000Y-84930000D01*
X139020000Y-84930000D02*
X137602800Y-84930000D01*
D44*
X137602800Y-84930000D02*
X137600800Y-84928000D01*
X80349200Y-83616800D02*
X79016800Y-83616800D01*
X79300000Y-81250000D02*
X80466400Y-81250000D01*
X78850000Y-81700000D02*
X79300000Y-81250000D01*
X82562500Y-81250000D02*
X82600000Y-81212500D01*
X78850000Y-83450000D02*
X78850000Y-81700000D01*
X79016800Y-83616800D02*
X78850000Y-83450000D01*
X80466400Y-81250000D02*
X82562500Y-81250000D01*
D45*
X128709500Y-93990500D02*
X128700000Y-94000000D01*
X130105300Y-93990500D02*
X128709500Y-93990500D01*
X132350000Y-93960200D02*
X132380300Y-93990500D01*
X132350000Y-92145600D02*
X132350000Y-93960200D01*
D44*
X84983200Y-83616800D02*
X83769200Y-83616800D01*
X85400000Y-83200000D02*
X84983200Y-83616800D01*
X86000000Y-81100000D02*
X86000000Y-83162500D01*
X86037500Y-83200000D02*
X85400000Y-83200000D01*
X86000000Y-83162500D02*
X86037500Y-83200000D01*
X134200000Y-83200000D02*
X133487500Y-83200000D01*
X134400000Y-81400000D02*
X134400000Y-83000000D01*
X135350000Y-81150000D02*
X134650000Y-81150000D01*
X134650000Y-81150000D02*
X134400000Y-81400000D01*
X134400000Y-83000000D02*
X134200000Y-83200000D01*
X135312500Y-83200000D02*
X135312500Y-85212500D01*
X135312500Y-85212500D02*
X135350000Y-85250000D01*
X135668000Y-85568000D02*
X135350000Y-85250000D01*
X137600800Y-85568000D02*
X135668000Y-85568000D01*
X73750000Y-87350000D02*
X73750000Y-92850000D01*
X73750000Y-92850000D02*
X74432000Y-93532000D01*
X75737500Y-86050000D02*
X75050000Y-86050000D01*
X74432000Y-93532000D02*
X76480000Y-93532000D01*
X75050000Y-86050000D02*
X73750000Y-87350000D01*
X141698400Y-88775400D02*
X141749200Y-88724600D01*
X139600000Y-85700000D02*
X139600000Y-87200000D01*
X140042400Y-88775400D02*
X141698400Y-88775400D01*
X141020800Y-85568000D02*
X139732000Y-85568000D01*
X139600000Y-87200000D02*
X140042400Y-87642400D01*
X139732000Y-85568000D02*
X139600000Y-85700000D01*
X140042400Y-87642400D02*
X140042400Y-88775400D01*
X98320000Y-90732500D02*
X100305000Y-90732500D01*
X100305000Y-90732500D02*
X100350000Y-90687500D01*
X119800000Y-92537500D02*
X121772500Y-92537500D01*
X121772500Y-92537500D02*
X121817500Y-92492500D01*
X83480000Y-85550000D02*
X83769200Y-85260800D01*
X83769200Y-85260800D02*
X83769200Y-84916800D01*
X141020800Y-87579200D02*
X141000000Y-87600000D01*
X145970000Y-83830000D02*
X145950000Y-83850000D01*
X141020800Y-86868000D02*
X141020800Y-87579200D01*
X143500000Y-83850000D02*
X143083000Y-83433000D01*
X143083000Y-83433000D02*
X142394400Y-83433000D01*
X145950000Y-83850000D02*
X143500000Y-83850000D01*
X103450000Y-92125000D02*
X104387500Y-91187500D01*
X104387500Y-91187500D02*
X104387500Y-90725000D01*
X103450000Y-93175000D02*
X103450000Y-92125000D01*
X104562500Y-93515000D02*
X103790000Y-93515000D01*
X103790000Y-93515000D02*
X103450000Y-93175000D01*
X116500000Y-89800000D02*
X116500000Y-90950000D01*
X115376500Y-89532100D02*
X116232100Y-89532100D01*
X116232100Y-89532100D02*
X116500000Y-89800000D01*
X116500000Y-90950000D02*
X115698000Y-91752000D01*
X115698000Y-91752000D02*
X115698000Y-92458100D01*
X77562500Y-84000000D02*
X77562500Y-86050000D01*
X78500000Y-84000000D02*
X77562500Y-84000000D01*
X78776800Y-84276800D02*
X78500000Y-84000000D01*
X80349200Y-84276800D02*
X78776800Y-84276800D01*
X136272000Y-86228000D02*
X134317100Y-88182900D01*
X137600800Y-86228000D02*
X136272000Y-86228000D01*
X134317100Y-88798400D02*
X132588000Y-88798400D01*
X134317100Y-88182900D02*
X134317100Y-88798400D01*
X106529500Y-94488000D02*
X104585500Y-94488000D01*
X104585500Y-94488000D02*
X104562500Y-94465000D01*
X115323800Y-88634800D02*
X115376500Y-88582100D01*
X113231900Y-88634800D02*
X115323800Y-88634800D01*
D45*
X104562500Y-92565000D02*
X105758200Y-92565000D01*
X105758200Y-92565000D02*
X105765600Y-92557600D01*
G04 #@! TA.AperFunction,Conductor*
G36*
X74258936Y-90874466D02*
G01*
X74262337Y-90875464D01*
X74262338Y-90875465D01*
X74329377Y-90895150D01*
X74329381Y-90895150D01*
X74329383Y-90895151D01*
X74341014Y-90896823D01*
X74401362Y-90905500D01*
X74401363Y-90905500D01*
X78904138Y-90905500D01*
X78971177Y-90925185D01*
X78991819Y-90941819D01*
X79700000Y-91650000D01*
X97050000Y-91650000D01*
X96750000Y-91950000D01*
X96750000Y-93200000D01*
X97050000Y-93500000D01*
X89599999Y-93500000D01*
X86486319Y-96613681D01*
X86424996Y-96647166D01*
X86398638Y-96650000D01*
X74551362Y-96650000D01*
X74484323Y-96630315D01*
X74463681Y-96613681D01*
X74136319Y-96286319D01*
X74102834Y-96224996D01*
X74100000Y-96198638D01*
X74100000Y-90993443D01*
X74119685Y-90926404D01*
X74172489Y-90880649D01*
X74241647Y-90870705D01*
X74258936Y-90874466D01*
G37*
G04 #@! TD.AperFunction*
G04 #@! TA.AperFunction,Conductor*
G36*
X84217668Y-82050500D02*
G01*
X84221015Y-82050500D01*
X84382332Y-82050500D01*
X84390604Y-82050000D01*
X84448638Y-82050000D01*
X84515677Y-82069685D01*
X84536319Y-82086319D01*
X85013681Y-82563681D01*
X85047166Y-82625004D01*
X85050000Y-82651362D01*
X85050000Y-82967600D01*
X85030315Y-83034639D01*
X85013681Y-83055282D01*
X84915233Y-83153729D01*
X84853909Y-83187213D01*
X84784218Y-83182229D01*
X84773099Y-83177451D01*
X84770596Y-83176227D01*
X84770592Y-83176226D01*
X84702461Y-83166300D01*
X84702460Y-83166300D01*
X82835940Y-83166300D01*
X82835939Y-83166300D01*
X82767808Y-83176226D01*
X82662714Y-83227603D01*
X82580003Y-83310314D01*
X82528626Y-83415408D01*
X82518700Y-83483539D01*
X82518700Y-83750060D01*
X82528626Y-83818190D01*
X82528626Y-83818191D01*
X82528627Y-83818193D01*
X82537400Y-83836140D01*
X82550000Y-83890599D01*
X82550000Y-84002999D01*
X82537402Y-84057456D01*
X82528628Y-84075404D01*
X82528625Y-84075411D01*
X82518700Y-84143539D01*
X82518700Y-84410060D01*
X82528626Y-84478190D01*
X82528626Y-84478191D01*
X82528627Y-84478193D01*
X82537400Y-84496140D01*
X82550000Y-84550599D01*
X82550000Y-84642999D01*
X82537402Y-84697456D01*
X82528628Y-84715404D01*
X82528625Y-84715411D01*
X82518700Y-84783539D01*
X82518700Y-85050060D01*
X82528626Y-85118190D01*
X82528626Y-85118191D01*
X82528627Y-85118193D01*
X82537400Y-85136140D01*
X82550000Y-85190599D01*
X82550000Y-90248638D01*
X82530315Y-90315677D01*
X82513681Y-90336319D01*
X82236319Y-90613681D01*
X82174996Y-90647166D01*
X82148638Y-90650000D01*
X78700000Y-90650000D01*
X78550000Y-90500000D01*
X78550000Y-87163013D01*
X78606291Y-87186330D01*
X78733280Y-87203048D01*
X78749999Y-87205250D01*
X78750000Y-87205250D01*
X78750001Y-87205250D01*
X78764977Y-87203278D01*
X78893709Y-87186330D01*
X78958631Y-87159439D01*
X79006083Y-87150000D01*
X79450000Y-87150000D01*
X79679353Y-86920646D01*
X79736175Y-86889619D01*
X79735858Y-86888434D01*
X79743705Y-86886330D01*
X79743709Y-86886330D01*
X79877625Y-86830861D01*
X79992621Y-86742621D01*
X80080861Y-86627625D01*
X80136330Y-86493709D01*
X80136330Y-86493705D01*
X80138434Y-86485858D01*
X80141645Y-86486718D01*
X80163636Y-86436974D01*
X80170626Y-86429373D01*
X81196381Y-85403619D01*
X81257704Y-85370134D01*
X81278003Y-85367951D01*
X81277980Y-85367625D01*
X81282459Y-85367300D01*
X81282460Y-85367300D01*
X81350593Y-85357373D01*
X81455683Y-85305998D01*
X81538398Y-85223283D01*
X81589773Y-85118193D01*
X81599700Y-85050060D01*
X81599700Y-84783540D01*
X81589773Y-84715407D01*
X81558413Y-84651260D01*
X81546654Y-84582388D01*
X81558414Y-84542339D01*
X81580152Y-84497873D01*
X81589773Y-84478193D01*
X81599700Y-84410060D01*
X81599700Y-84143540D01*
X81589773Y-84075407D01*
X81553524Y-84001259D01*
X81541765Y-83932388D01*
X81553525Y-83892339D01*
X81581001Y-83836137D01*
X81589773Y-83818193D01*
X81599700Y-83750060D01*
X81599700Y-83483540D01*
X81589773Y-83415407D01*
X81558413Y-83351260D01*
X81546654Y-83282388D01*
X81558414Y-83242339D01*
X81565618Y-83227603D01*
X81589773Y-83178193D01*
X81599700Y-83110060D01*
X81599700Y-82843540D01*
X81589773Y-82775407D01*
X81538398Y-82670317D01*
X81538396Y-82670315D01*
X81538396Y-82670314D01*
X81448418Y-82580336D01*
X81450865Y-82577888D01*
X81418929Y-82537144D01*
X81412398Y-82467580D01*
X81444514Y-82405528D01*
X81446394Y-82403605D01*
X81763681Y-82086319D01*
X81825004Y-82052834D01*
X81851362Y-82050000D01*
X84209396Y-82050000D01*
X84217668Y-82050500D01*
G37*
G04 #@! TD.AperFunction*
G04 #@! TA.AperFunction,Conductor*
G36*
X103265677Y-89269685D02*
G01*
X103286319Y-89286319D01*
X103663681Y-89663681D01*
X103697166Y-89725004D01*
X103700000Y-89751362D01*
X103700000Y-90048638D01*
X103680315Y-90115677D01*
X103663681Y-90136319D01*
X103250000Y-90549999D01*
X103250000Y-91742601D01*
X103230315Y-91809640D01*
X103213681Y-91830282D01*
X103149526Y-91894436D01*
X103100091Y-91980059D01*
X103100091Y-91980060D01*
X103100090Y-91980062D01*
X103074500Y-92075565D01*
X103074500Y-92075567D01*
X103074500Y-92824136D01*
X103054815Y-92891175D01*
X103038181Y-92911817D01*
X103009121Y-92940877D01*
X102947798Y-92974362D01*
X102902042Y-92975669D01*
X102831524Y-92964500D01*
X101743482Y-92964500D01*
X101649695Y-92979354D01*
X101635701Y-92986485D01*
X101579407Y-93000000D01*
X101449999Y-93000000D01*
X100986319Y-93463681D01*
X100924996Y-93497166D01*
X100898638Y-93500000D01*
X97050000Y-93500000D01*
X96750000Y-93200000D01*
X96750000Y-91950000D01*
X97050000Y-91650000D01*
X100950000Y-91650000D01*
X101350000Y-91250000D01*
X101350000Y-89551362D01*
X101369685Y-89484323D01*
X101386319Y-89463681D01*
X101563681Y-89286319D01*
X101625004Y-89252834D01*
X101651362Y-89250000D01*
X103198638Y-89250000D01*
X103265677Y-89269685D01*
G37*
G04 #@! TD.AperFunction*
G04 #@! TA.AperFunction,Conductor*
G36*
X131663681Y-87963681D02*
G01*
X131697166Y-88025004D01*
X131700000Y-88051362D01*
X131700000Y-89348638D01*
X131680315Y-89415677D01*
X131663681Y-89436319D01*
X131286319Y-89813681D01*
X131224996Y-89847166D01*
X131198638Y-89850000D01*
X124849999Y-89850000D01*
X123336319Y-91363681D01*
X123274996Y-91397166D01*
X123248638Y-91400000D01*
X119149999Y-91400000D01*
X118800000Y-91749999D01*
X118800000Y-93598638D01*
X118780315Y-93665677D01*
X118763681Y-93686319D01*
X118632719Y-93817281D01*
X118571396Y-93850766D01*
X118545038Y-93853600D01*
X116724000Y-93853600D01*
X116656961Y-93833915D01*
X116611206Y-93781111D01*
X116600000Y-93729600D01*
X116600000Y-93051362D01*
X116619685Y-92984323D01*
X116636319Y-92963681D01*
X116850000Y-92750000D01*
X116850000Y-91110927D01*
X116854225Y-91078834D01*
X116875500Y-90999435D01*
X116875500Y-90322844D01*
X116895185Y-90255805D01*
X116947989Y-90210050D01*
X116997732Y-90198857D01*
X117049444Y-90198119D01*
X117058864Y-90197985D01*
X117117951Y-90188627D01*
X117137348Y-90187100D01*
X118165656Y-90187100D01*
X118185054Y-90188627D01*
X118189966Y-90189405D01*
X118226848Y-90201386D01*
X118230668Y-90203331D01*
X118232778Y-90204407D01*
X118264178Y-90227217D01*
X118299522Y-90262561D01*
X118312151Y-90277346D01*
X118314561Y-90280663D01*
X118314563Y-90280665D01*
X118314564Y-90280666D01*
X118397454Y-90336051D01*
X118397456Y-90336051D01*
X118397458Y-90336052D01*
X118495225Y-90355499D01*
X118495228Y-90355500D01*
X118495230Y-90355500D01*
X118550002Y-90355500D01*
X118550003Y-90355499D01*
X118647776Y-90336051D01*
X118730666Y-90280666D01*
X118979817Y-90031513D01*
X119041136Y-89998031D01*
X119045466Y-89997169D01*
X119088586Y-89989391D01*
X119141975Y-89969477D01*
X119159832Y-89962818D01*
X119203165Y-89955000D01*
X120196832Y-89955000D01*
X120240165Y-89962818D01*
X120311411Y-89989391D01*
X120400699Y-90005500D01*
X120400705Y-90005500D01*
X121183693Y-90005500D01*
X121183699Y-90005500D01*
X121272986Y-89989391D01*
X121308550Y-89976126D01*
X121344232Y-89962818D01*
X121387565Y-89955000D01*
X122381232Y-89955000D01*
X122424565Y-89962818D01*
X122495811Y-89989391D01*
X122585099Y-90005500D01*
X122585105Y-90005500D01*
X122900002Y-90005500D01*
X122900003Y-90005499D01*
X122997776Y-89986051D01*
X123080666Y-89930666D01*
X123930666Y-89080666D01*
X123986051Y-88997776D01*
X124005500Y-88900000D01*
X124005500Y-88695862D01*
X124025185Y-88628823D01*
X124041819Y-88608181D01*
X125050000Y-87600000D01*
X131300000Y-87600000D01*
X131663681Y-87963681D01*
G37*
G04 #@! TD.AperFunction*
G04 #@! TA.AperFunction,Conductor*
G36*
X149965677Y-85169685D02*
G01*
X149986319Y-85186319D01*
X150313681Y-85513681D01*
X150347166Y-85575004D01*
X150350000Y-85601362D01*
X150350000Y-88498638D01*
X150330315Y-88565677D01*
X150313681Y-88586319D01*
X149986319Y-88913681D01*
X149924996Y-88947166D01*
X149898638Y-88950000D01*
X145699999Y-88950000D01*
X144836319Y-89813681D01*
X144774996Y-89847166D01*
X144748638Y-89850000D01*
X143001362Y-89850000D01*
X142934323Y-89830315D01*
X142913681Y-89813681D01*
X142698019Y-89598019D01*
X142664534Y-89536696D01*
X142661700Y-89510338D01*
X142661700Y-87311700D01*
X142307619Y-86957619D01*
X142274134Y-86896296D01*
X142271300Y-86869938D01*
X142271300Y-86734739D01*
X142261373Y-86666608D01*
X142261373Y-86666607D01*
X142209998Y-86561517D01*
X142209996Y-86561515D01*
X142209996Y-86561514D01*
X142127285Y-86478803D01*
X142022191Y-86427426D01*
X141954061Y-86417500D01*
X141954060Y-86417500D01*
X140099500Y-86417500D01*
X140032461Y-86397815D01*
X139986706Y-86345011D01*
X139975500Y-86293500D01*
X139975500Y-86142500D01*
X139995185Y-86075461D01*
X140047989Y-86029706D01*
X140099500Y-86018500D01*
X141954061Y-86018500D01*
X141976771Y-86015191D01*
X142022193Y-86008573D01*
X142127283Y-85957198D01*
X142209998Y-85874483D01*
X142212414Y-85869541D01*
X142259541Y-85817958D01*
X142323815Y-85800000D01*
X144950000Y-85800000D01*
X145563681Y-85186319D01*
X145625004Y-85152834D01*
X145651362Y-85150000D01*
X149898638Y-85150000D01*
X149965677Y-85169685D01*
G37*
G04 #@! TD.AperFunction*
G04 #@! TA.AperFunction,Conductor*
G36*
X142313681Y-84713681D02*
G01*
X142347166Y-84775004D01*
X142350000Y-84801362D01*
X142350000Y-84898637D01*
X142330315Y-84965676D01*
X142313681Y-84986319D01*
X142185798Y-85114201D01*
X142124475Y-85147685D01*
X142054783Y-85142701D01*
X142043658Y-85137920D01*
X142022193Y-85127426D01*
X141954061Y-85117500D01*
X141954060Y-85117500D01*
X140087540Y-85117500D01*
X140087539Y-85117500D01*
X140019407Y-85127426D01*
X140019406Y-85127426D01*
X139978459Y-85147444D01*
X139909585Y-85159202D01*
X139845289Y-85131858D01*
X139805982Y-85074093D01*
X139800000Y-85036043D01*
X139800000Y-84200000D01*
X141540000Y-84200000D01*
X141700000Y-84200000D01*
X141750000Y-84150000D01*
X142313681Y-84713681D01*
G37*
G04 #@! TD.AperFunction*
G04 #@! TA.AperFunction,Conductor*
G36*
X137690577Y-77894585D02*
G01*
X137711219Y-77911219D01*
X140150000Y-80350000D01*
X141500000Y-80350000D01*
X141750000Y-80600000D01*
X141750000Y-83990000D01*
X141540000Y-84200000D01*
X139437797Y-84200000D01*
X139390346Y-84190561D01*
X139373709Y-84183670D01*
X139301854Y-84174210D01*
X139230001Y-84164750D01*
X139229999Y-84164750D01*
X139111774Y-84180315D01*
X139086291Y-84183670D01*
X139069653Y-84190561D01*
X139022203Y-84200000D01*
X136901362Y-84200000D01*
X136834323Y-84180315D01*
X136813681Y-84163681D01*
X136236319Y-83586319D01*
X136202834Y-83524996D01*
X136200000Y-83498638D01*
X136200000Y-80410000D01*
X135790000Y-80000000D01*
X132000000Y-80000000D01*
X131999999Y-80000000D01*
X131561681Y-80438318D01*
X131500358Y-80471803D01*
X131430666Y-80466819D01*
X131374733Y-80424947D01*
X131350316Y-80359483D01*
X131350000Y-80350637D01*
X131350000Y-79600000D01*
X129074000Y-79600000D01*
X129006961Y-79580315D01*
X128961206Y-79527511D01*
X128950000Y-79476000D01*
X128950000Y-79224000D01*
X128969685Y-79156961D01*
X129022489Y-79111206D01*
X129074000Y-79100000D01*
X131349999Y-79100000D01*
X131349999Y-78300028D01*
X131349998Y-78300013D01*
X131339505Y-78197302D01*
X131286686Y-78037904D01*
X131284284Y-77968076D01*
X131320016Y-77908034D01*
X131382536Y-77876841D01*
X131404392Y-77874900D01*
X137623538Y-77874900D01*
X137690577Y-77894585D01*
G37*
G04 #@! TD.AperFunction*
G04 #@! TA.AperFunction,Conductor*
G36*
X103115677Y-81769685D02*
G01*
X103136319Y-81786319D01*
X103213681Y-81863681D01*
X103247166Y-81925004D01*
X103250000Y-81951362D01*
X103250000Y-84842000D01*
X105154000Y-86746000D01*
X106218811Y-86746000D01*
X106285850Y-86765685D01*
X106331194Y-86817598D01*
X106335963Y-86827827D01*
X106335967Y-86827834D01*
X106444281Y-86982521D01*
X106471505Y-87021401D01*
X106638599Y-87188495D01*
X106735384Y-87256265D01*
X106832165Y-87324032D01*
X106832167Y-87324033D01*
X106832170Y-87324035D01*
X107046337Y-87423903D01*
X107274592Y-87485063D01*
X107462918Y-87501539D01*
X107509999Y-87505659D01*
X107510000Y-87505659D01*
X107510001Y-87505659D01*
X107531943Y-87503739D01*
X107731628Y-87486268D01*
X107800126Y-87500034D01*
X107830115Y-87522115D01*
X108017681Y-87709681D01*
X108051166Y-87771004D01*
X108054000Y-87797362D01*
X108054000Y-89144638D01*
X108034315Y-89211677D01*
X108017681Y-89232319D01*
X107586319Y-89663681D01*
X107524996Y-89697166D01*
X107498638Y-89700000D01*
X104043034Y-89700000D01*
X103975995Y-89680315D01*
X103930240Y-89627511D01*
X103924699Y-89613051D01*
X103921413Y-89602556D01*
X103921409Y-89602548D01*
X103887931Y-89541238D01*
X103887926Y-89541230D01*
X103844350Y-89483019D01*
X103844349Y-89483018D01*
X103844347Y-89483015D01*
X103844342Y-89483010D01*
X103844334Y-89483001D01*
X103466998Y-89105666D01*
X103466997Y-89105665D01*
X103466985Y-89105653D01*
X103446635Y-89087374D01*
X103446629Y-89087369D01*
X103446620Y-89087361D01*
X103425999Y-89070744D01*
X103425996Y-89070742D01*
X103425993Y-89070740D01*
X103337662Y-89024535D01*
X103337659Y-89024534D01*
X103270624Y-89004850D01*
X103270616Y-89004848D01*
X103198639Y-88994500D01*
X103198638Y-88994500D01*
X101651362Y-88994500D01*
X101651361Y-88994500D01*
X101624065Y-88995963D01*
X101624060Y-88995963D01*
X101624048Y-88995964D01*
X101624040Y-88995964D01*
X101624011Y-88995967D01*
X101597689Y-88998797D01*
X101597687Y-88998798D01*
X101502558Y-89028586D01*
X101502548Y-89028590D01*
X101441238Y-89062068D01*
X101441230Y-89062073D01*
X101383019Y-89105649D01*
X101383001Y-89105665D01*
X101205667Y-89283000D01*
X101205638Y-89283031D01*
X101187361Y-89303379D01*
X101170744Y-89324000D01*
X101170740Y-89324005D01*
X101170740Y-89324007D01*
X101124535Y-89412338D01*
X101124534Y-89412340D01*
X101104850Y-89479375D01*
X101104848Y-89479383D01*
X101094500Y-89551360D01*
X101094500Y-89676000D01*
X101074815Y-89743039D01*
X101022011Y-89788794D01*
X100970500Y-89800000D01*
X99651362Y-89800000D01*
X99584323Y-89780315D01*
X99563681Y-89763681D01*
X99386319Y-89586319D01*
X99352834Y-89524996D01*
X99350000Y-89498638D01*
X99350000Y-88100000D01*
X99200000Y-87950000D01*
X98701362Y-87950000D01*
X98634323Y-87930315D01*
X98613681Y-87913681D01*
X98436319Y-87736319D01*
X98402834Y-87674996D01*
X98400000Y-87648638D01*
X98400000Y-85051362D01*
X98419685Y-84984323D01*
X98436319Y-84963681D01*
X98713681Y-84686319D01*
X98775004Y-84652834D01*
X98801362Y-84650000D01*
X101600000Y-84650000D01*
X102100000Y-84150000D01*
X102100000Y-82001362D01*
X102119685Y-81934323D01*
X102136319Y-81913681D01*
X102263681Y-81786319D01*
X102325004Y-81752834D01*
X102351362Y-81750000D01*
X103048638Y-81750000D01*
X103115677Y-81769685D01*
G37*
G04 #@! TD.AperFunction*
G04 #@! TA.AperFunction,Conductor*
G36*
X134915677Y-91119685D02*
G01*
X134936319Y-91136319D01*
X136813681Y-93013681D01*
X136847166Y-93075004D01*
X136850000Y-93101362D01*
X136850000Y-96448638D01*
X136830315Y-96515677D01*
X136813681Y-96536319D01*
X136586319Y-96763681D01*
X136524996Y-96797166D01*
X136498638Y-96800000D01*
X134901362Y-96800000D01*
X134834323Y-96780315D01*
X134813681Y-96763681D01*
X133500000Y-95450000D01*
X133220055Y-95450000D01*
X133153016Y-95430315D01*
X133132374Y-95413681D01*
X133131147Y-95412454D01*
X133131144Y-95412452D01*
X133131142Y-95412450D01*
X133054317Y-95373305D01*
X133018101Y-95354852D01*
X132924324Y-95340000D01*
X131836277Y-95340000D01*
X131836275Y-95340001D01*
X131815560Y-95343281D01*
X131746267Y-95334323D01*
X131708488Y-95308488D01*
X131636319Y-95236319D01*
X131602834Y-95174996D01*
X131600000Y-95148638D01*
X131600000Y-94751361D01*
X131619685Y-94684322D01*
X131636309Y-94663690D01*
X131724895Y-94575104D01*
X131786212Y-94541623D01*
X131831975Y-94540318D01*
X131836281Y-94541000D01*
X132924318Y-94540999D01*
X133018104Y-94526146D01*
X133042894Y-94513515D01*
X133099188Y-94500000D01*
X133100000Y-94500000D01*
X133250000Y-94350000D01*
X133250000Y-94349997D01*
X133250800Y-94348066D01*
X133263515Y-94295107D01*
X133267439Y-94287406D01*
X133278446Y-94265804D01*
X133278446Y-94265802D01*
X133278447Y-94265801D01*
X133293299Y-94172024D01*
X133293300Y-94172019D01*
X133293299Y-93808982D01*
X133278446Y-93715196D01*
X133278445Y-93715194D01*
X133278445Y-93715193D01*
X133263515Y-93685892D01*
X133250000Y-93629597D01*
X133250000Y-91551362D01*
X133269685Y-91484323D01*
X133286319Y-91463681D01*
X133613681Y-91136319D01*
X133675004Y-91102834D01*
X133701362Y-91100000D01*
X134848638Y-91100000D01*
X134915677Y-91119685D01*
G37*
G04 #@! TD.AperFunction*
G04 #@! TA.AperFunction,Conductor*
G36*
X128491369Y-94509439D02*
G01*
X128556291Y-94536330D01*
X128683280Y-94553048D01*
X128699999Y-94555250D01*
X128700000Y-94555250D01*
X128700001Y-94555250D01*
X128714977Y-94553278D01*
X128843709Y-94536330D01*
X128908631Y-94509439D01*
X128956083Y-94500000D01*
X129386412Y-94500000D01*
X129442705Y-94513514D01*
X129454816Y-94519685D01*
X129467498Y-94526147D01*
X129561275Y-94540999D01*
X129561281Y-94541000D01*
X130649318Y-94540999D01*
X130743104Y-94526146D01*
X130767894Y-94513515D01*
X130824188Y-94500000D01*
X130998638Y-94500000D01*
X131065677Y-94519685D01*
X131086319Y-94536319D01*
X131213681Y-94663681D01*
X131247166Y-94725004D01*
X131250000Y-94751362D01*
X131250000Y-96348638D01*
X131230315Y-96415677D01*
X131213681Y-96436319D01*
X130936319Y-96713681D01*
X130874996Y-96747166D01*
X130848638Y-96750000D01*
X129949999Y-96750000D01*
X129600000Y-97099999D01*
X129600000Y-98448638D01*
X129580315Y-98515677D01*
X129563681Y-98536319D01*
X129236319Y-98863681D01*
X129174996Y-98897166D01*
X129148638Y-98900000D01*
X127501362Y-98900000D01*
X127434323Y-98880315D01*
X127413681Y-98863681D01*
X126836319Y-98286319D01*
X126802834Y-98224996D01*
X126800000Y-98198638D01*
X126800000Y-94851362D01*
X126819685Y-94784323D01*
X126836319Y-94763681D01*
X127063681Y-94536319D01*
X127125004Y-94502834D01*
X127151362Y-94500000D01*
X128443917Y-94500000D01*
X128491369Y-94509439D01*
G37*
G04 #@! TD.AperFunction*
G04 #@! TA.AperFunction,Conductor*
G36*
X143965677Y-93469685D02*
G01*
X143986319Y-93486319D01*
X144413681Y-93913681D01*
X144447166Y-93975004D01*
X144450000Y-94001362D01*
X144450000Y-97798638D01*
X144430315Y-97865677D01*
X144413681Y-97886319D01*
X143486319Y-98813681D01*
X143424996Y-98847166D01*
X143398638Y-98850000D01*
X136699999Y-98850000D01*
X134752419Y-100797581D01*
X134691096Y-100831066D01*
X134664738Y-100833900D01*
X133685262Y-100833900D01*
X133618223Y-100814215D01*
X133597581Y-100797581D01*
X133286319Y-100486319D01*
X133252834Y-100424996D01*
X133250000Y-100398638D01*
X133250000Y-97251362D01*
X133269685Y-97184323D01*
X133286319Y-97163681D01*
X133613681Y-96836319D01*
X133675004Y-96802834D01*
X133701362Y-96800000D01*
X134437306Y-96800000D01*
X134504345Y-96819685D01*
X134524987Y-96836319D01*
X134633015Y-96944347D01*
X134653365Y-96962626D01*
X134653371Y-96962631D01*
X134653379Y-96962638D01*
X134674000Y-96979255D01*
X134674002Y-96979256D01*
X134674007Y-96979260D01*
X134762338Y-97025465D01*
X134829377Y-97045150D01*
X134829381Y-97045150D01*
X134829383Y-97045151D01*
X134831491Y-97045454D01*
X134901362Y-97055500D01*
X134901363Y-97055500D01*
X136498639Y-97055500D01*
X136500075Y-97055422D01*
X136525952Y-97054036D01*
X136552310Y-97051202D01*
X136647444Y-97021413D01*
X136708767Y-96987928D01*
X136766985Y-96944347D01*
X136875014Y-96836317D01*
X136936335Y-96802834D01*
X136962694Y-96800000D01*
X139250000Y-96800000D01*
X142563681Y-93486319D01*
X142625004Y-93452834D01*
X142651362Y-93450000D01*
X143898638Y-93450000D01*
X143965677Y-93469685D01*
G37*
G04 #@! TD.AperFunction*
G04 #@! TA.AperFunction,Conductor*
G36*
X119546600Y-86696600D02*
G01*
X119546600Y-86999178D01*
X119561132Y-87072235D01*
X119561133Y-87072239D01*
X119561134Y-87072240D01*
X119616499Y-87155101D01*
X119699360Y-87210466D01*
X119699364Y-87210467D01*
X119703006Y-87211191D01*
X119713223Y-87213223D01*
X119750000Y-87250000D01*
X123200000Y-87250000D01*
X123750000Y-87800000D01*
X123750000Y-88900000D01*
X122900000Y-89750000D01*
X122585099Y-89750000D01*
X122466882Y-89705908D01*
X122466883Y-89705908D01*
X122407283Y-89699501D01*
X122407281Y-89699500D01*
X122407273Y-89699500D01*
X122407264Y-89699500D01*
X121361529Y-89699500D01*
X121361523Y-89699501D01*
X121301916Y-89705908D01*
X121183699Y-89750000D01*
X120400699Y-89750000D01*
X120282482Y-89705908D01*
X120282483Y-89705908D01*
X120222883Y-89699501D01*
X120222881Y-89699500D01*
X120222873Y-89699500D01*
X120222864Y-89699500D01*
X119177129Y-89699500D01*
X119177123Y-89699501D01*
X119117516Y-89705908D01*
X118999299Y-89750000D01*
X118900000Y-89750000D01*
X118550000Y-90100000D01*
X118495230Y-90100000D01*
X118492050Y-90093758D01*
X118492048Y-90093756D01*
X118492045Y-90093752D01*
X118402347Y-90004054D01*
X118402344Y-90004052D01*
X118402342Y-90004050D01*
X118311315Y-89957669D01*
X118289301Y-89946452D01*
X118195524Y-89931600D01*
X117107481Y-89931600D01*
X117018896Y-89945630D01*
X116949603Y-89936674D01*
X116896151Y-89891676D01*
X116875513Y-89824925D01*
X116875500Y-89823156D01*
X116875500Y-89750566D01*
X116875500Y-89750565D01*
X116875500Y-89750564D01*
X116849911Y-89655063D01*
X116800475Y-89569437D01*
X116700000Y-89468962D01*
X116700000Y-87150000D01*
X117700000Y-86150000D01*
X119000000Y-86150000D01*
X119546600Y-86696600D01*
G37*
G04 #@! TD.AperFunction*
G04 #@! TA.AperFunction,Conductor*
G36*
X130615677Y-84319685D02*
G01*
X130636319Y-84336319D01*
X131263681Y-84963681D01*
X131297166Y-85025004D01*
X131300000Y-85051362D01*
X131300000Y-87600000D01*
X125050000Y-87600000D01*
X126400000Y-86250000D01*
X126400000Y-84901362D01*
X126419685Y-84834323D01*
X126436319Y-84813681D01*
X126913681Y-84336319D01*
X126975004Y-84302834D01*
X127001362Y-84300000D01*
X130548638Y-84300000D01*
X130615677Y-84319685D01*
G37*
G04 #@! TD.AperFunction*
G04 #@! TA.AperFunction,Conductor*
G36*
X141750000Y-84150000D02*
G01*
X141700000Y-84200000D01*
X141540000Y-84200000D01*
X141750000Y-83990000D01*
X141750000Y-84150000D01*
G37*
G04 #@! TD.AperFunction*
G04 #@! TA.AperFunction,Conductor*
G36*
X146591369Y-80159439D02*
G01*
X146656291Y-80186330D01*
X146783280Y-80203048D01*
X146799999Y-80205250D01*
X146800000Y-80205250D01*
X146800001Y-80205250D01*
X146814977Y-80203278D01*
X146943709Y-80186330D01*
X147008631Y-80159439D01*
X147056083Y-80150000D01*
X149498638Y-80150000D01*
X149565677Y-80169685D01*
X149586319Y-80186319D01*
X150063681Y-80663681D01*
X150097166Y-80725004D01*
X150100000Y-80751362D01*
X150100000Y-83048638D01*
X150080315Y-83115677D01*
X150063681Y-83136319D01*
X149686319Y-83513681D01*
X149624996Y-83547166D01*
X149598638Y-83550000D01*
X146510189Y-83550000D01*
X146443150Y-83530315D01*
X146411814Y-83501487D01*
X146362624Y-83437382D01*
X146362622Y-83437380D01*
X146362621Y-83437379D01*
X146247625Y-83349139D01*
X146247624Y-83349138D01*
X146247622Y-83349137D01*
X146113712Y-83293671D01*
X146113710Y-83293670D01*
X146113709Y-83293670D01*
X146041854Y-83284210D01*
X145970001Y-83274750D01*
X145969999Y-83274750D01*
X145826291Y-83293670D01*
X145826287Y-83293671D01*
X145692377Y-83349137D01*
X145577374Y-83437383D01*
X145576577Y-83438181D01*
X145575738Y-83438638D01*
X145570932Y-83442327D01*
X145570356Y-83441577D01*
X145515254Y-83471666D01*
X145488896Y-83474500D01*
X143775862Y-83474500D01*
X143708823Y-83454815D01*
X143688181Y-83438181D01*
X143100000Y-82850000D01*
X142774266Y-82850000D01*
X142750075Y-82847617D01*
X142674077Y-82832500D01*
X142674074Y-82832500D01*
X142114726Y-82832500D01*
X142114723Y-82832500D01*
X142038725Y-82847617D01*
X142014534Y-82850000D01*
X141949999Y-82850000D01*
X141750000Y-83049999D01*
X141750000Y-80600000D01*
X141500000Y-80350000D01*
X141598638Y-80350000D01*
X141665677Y-80369685D01*
X141686319Y-80386319D01*
X141723681Y-80423681D01*
X141757166Y-80485004D01*
X141760000Y-80511362D01*
X141760000Y-81500000D01*
X142010000Y-81750000D01*
X144250000Y-81750000D01*
X145813681Y-80186319D01*
X145875004Y-80152834D01*
X145901362Y-80150000D01*
X146543917Y-80150000D01*
X146591369Y-80159439D01*
G37*
G04 #@! TD.AperFunction*
G04 #@! TA.AperFunction,Conductor*
G36*
X93585677Y-82169685D02*
G01*
X93606319Y-82186319D01*
X93873681Y-82453681D01*
X93907166Y-82515004D01*
X93910000Y-82541362D01*
X93910000Y-83438638D01*
X93890315Y-83505677D01*
X93873681Y-83526319D01*
X92836319Y-84563681D01*
X92774996Y-84597166D01*
X92748638Y-84600000D01*
X85386387Y-84600000D01*
X85319348Y-84580315D01*
X85273593Y-84527511D01*
X85266979Y-84483376D01*
X85261212Y-84476800D01*
X84783512Y-84476800D01*
X84765640Y-84475505D01*
X84702460Y-84466300D01*
X83693200Y-84466300D01*
X83626161Y-84446615D01*
X83580406Y-84393811D01*
X83569200Y-84342300D01*
X83569200Y-84200800D01*
X83588885Y-84133761D01*
X83641689Y-84088006D01*
X83693200Y-84076800D01*
X85261210Y-84076800D01*
X85284129Y-84050666D01*
X85343130Y-84013242D01*
X85412999Y-84013658D01*
X85451668Y-84033159D01*
X85532664Y-84093793D01*
X85532671Y-84093797D01*
X85577618Y-84110561D01*
X85667517Y-84144091D01*
X85727127Y-84150500D01*
X86347872Y-84150499D01*
X86407483Y-84144091D01*
X86542331Y-84093796D01*
X86657546Y-84007546D01*
X86726957Y-83914824D01*
X86738516Y-83901483D01*
X86950000Y-83690000D01*
X86950000Y-82461362D01*
X86969685Y-82394323D01*
X86986319Y-82373681D01*
X87173681Y-82186319D01*
X87235004Y-82152834D01*
X87261362Y-82150000D01*
X93518638Y-82150000D01*
X93585677Y-82169685D01*
G37*
G04 #@! TD.AperFunction*
G04 #@! TA.AperFunction,Conductor*
G36*
X131669075Y-95572746D02*
G01*
X131713509Y-95587714D01*
X131782802Y-95596672D01*
X131831942Y-95595972D01*
X131859982Y-95595574D01*
X131859982Y-95595606D01*
X131862452Y-95595500D01*
X132894455Y-95595500D01*
X132913841Y-95597024D01*
X132918763Y-95597803D01*
X132955660Y-95609791D01*
X132982596Y-95623516D01*
X132990606Y-95628163D01*
X132992694Y-95629255D01*
X132992700Y-95629260D01*
X133081031Y-95675465D01*
X133148070Y-95695150D01*
X133148074Y-95695150D01*
X133148076Y-95695151D01*
X133159707Y-95696823D01*
X133220055Y-95705500D01*
X133342806Y-95705500D01*
X133409845Y-95725185D01*
X133430487Y-95741819D01*
X134021487Y-96332819D01*
X134054972Y-96394142D01*
X134049988Y-96463834D01*
X134008116Y-96519767D01*
X133942652Y-96544184D01*
X133933806Y-96544500D01*
X133701361Y-96544500D01*
X133674065Y-96545963D01*
X133674060Y-96545963D01*
X133674048Y-96545964D01*
X133674040Y-96545964D01*
X133674011Y-96545967D01*
X133647689Y-96548797D01*
X133647687Y-96548798D01*
X133552558Y-96578586D01*
X133552548Y-96578590D01*
X133491238Y-96612068D01*
X133491230Y-96612073D01*
X133433019Y-96655649D01*
X133433001Y-96655665D01*
X133105666Y-96983001D01*
X133105638Y-96983031D01*
X133087361Y-97003379D01*
X133070744Y-97024000D01*
X133024534Y-97112340D01*
X133004850Y-97179375D01*
X133004848Y-97179383D01*
X132994500Y-97251360D01*
X132994500Y-100398639D01*
X132995963Y-100425934D01*
X132995967Y-100425988D01*
X132998797Y-100452310D01*
X132998798Y-100452312D01*
X133028586Y-100547441D01*
X133028590Y-100547451D01*
X133062068Y-100608761D01*
X133062073Y-100608769D01*
X133082151Y-100635590D01*
X133106568Y-100701054D01*
X133091716Y-100769327D01*
X133042310Y-100818732D01*
X132982884Y-100833900D01*
X128621267Y-100833900D01*
X128613157Y-100833635D01*
X128347347Y-100816213D01*
X128331266Y-100814095D01*
X128074018Y-100762925D01*
X128058350Y-100758727D01*
X127809971Y-100674413D01*
X127794986Y-100668206D01*
X127559739Y-100552195D01*
X127545692Y-100544085D01*
X127327600Y-100398361D01*
X127314732Y-100388487D01*
X127117526Y-100215542D01*
X127106057Y-100204073D01*
X127040977Y-100129864D01*
X126933109Y-100006864D01*
X126923238Y-99993999D01*
X126777514Y-99775907D01*
X126769404Y-99761860D01*
X126764030Y-99750963D01*
X126653390Y-99526606D01*
X126647189Y-99511635D01*
X126562869Y-99263238D01*
X126558677Y-99247593D01*
X126507502Y-98990322D01*
X126505387Y-98974264D01*
X126487965Y-98708443D01*
X126487700Y-98700333D01*
X126487700Y-98598394D01*
X126507385Y-98531355D01*
X126560189Y-98485600D01*
X126629347Y-98475656D01*
X126692903Y-98504681D01*
X126699381Y-98510713D01*
X127233015Y-99044347D01*
X127253365Y-99062626D01*
X127253371Y-99062631D01*
X127253379Y-99062638D01*
X127274000Y-99079255D01*
X127274002Y-99079256D01*
X127274007Y-99079260D01*
X127362338Y-99125465D01*
X127429377Y-99145150D01*
X127429381Y-99145150D01*
X127429383Y-99145151D01*
X127441014Y-99146823D01*
X127501362Y-99155500D01*
X127501363Y-99155500D01*
X129148639Y-99155500D01*
X129150075Y-99155422D01*
X129175952Y-99154036D01*
X129202310Y-99151202D01*
X129297444Y-99121413D01*
X129358767Y-99087928D01*
X129416985Y-99044347D01*
X129744347Y-98716985D01*
X129762626Y-98696635D01*
X129779260Y-98675993D01*
X129825465Y-98587662D01*
X129845150Y-98520623D01*
X129855500Y-98448638D01*
X129855500Y-97257193D01*
X129875185Y-97190154D01*
X129891819Y-97169512D01*
X130019512Y-97041819D01*
X130080835Y-97008334D01*
X130107193Y-97005500D01*
X130848639Y-97005500D01*
X130850075Y-97005422D01*
X130875952Y-97004036D01*
X130902310Y-97001202D01*
X130997444Y-96971413D01*
X131058767Y-96937928D01*
X131116985Y-96894347D01*
X131394347Y-96616985D01*
X131412626Y-96596635D01*
X131429260Y-96575993D01*
X131475465Y-96487662D01*
X131495150Y-96420623D01*
X131505500Y-96348638D01*
X131505500Y-95690261D01*
X131525185Y-95623222D01*
X131577989Y-95577467D01*
X131647147Y-95567523D01*
X131669075Y-95572746D01*
G37*
G04 #@! TD.AperFunction*
G04 #@! TA.AperFunction,Conductor*
G36*
X85531109Y-77894585D02*
G01*
X85576864Y-77947389D01*
X85586808Y-78016547D01*
X85557783Y-78080103D01*
X85505026Y-78115940D01*
X85497455Y-78118589D01*
X85487117Y-78122207D01*
X85377850Y-78202850D01*
X85297207Y-78312117D01*
X85297206Y-78312119D01*
X85252353Y-78440298D01*
X85252353Y-78440300D01*
X85249500Y-78470730D01*
X85249500Y-78550500D01*
X85229815Y-78617539D01*
X85177011Y-78663294D01*
X85125500Y-78674500D01*
X84807147Y-78674500D01*
X84724362Y-78696682D01*
X84724361Y-78696682D01*
X84724359Y-78696683D01*
X84724358Y-78696683D01*
X84676181Y-78724499D01*
X84676180Y-78724500D01*
X84650139Y-78739534D01*
X84650136Y-78739536D01*
X84313992Y-79075681D01*
X84252669Y-79109166D01*
X84226311Y-79112000D01*
X83593222Y-79112000D01*
X83526183Y-79092315D01*
X83480428Y-79039511D01*
X83476181Y-79028956D01*
X83464805Y-78996447D01*
X83452793Y-78962118D01*
X83372150Y-78852850D01*
X83262882Y-78772207D01*
X83262880Y-78772206D01*
X83134700Y-78727353D01*
X83104270Y-78724500D01*
X83104266Y-78724500D01*
X82095734Y-78724500D01*
X82095730Y-78724500D01*
X82065300Y-78727353D01*
X82065298Y-78727353D01*
X81937119Y-78772206D01*
X81937118Y-78772207D01*
X81822193Y-78857025D01*
X81756564Y-78880995D01*
X81688394Y-78865679D01*
X81639326Y-78815939D01*
X81630854Y-78796258D01*
X81625758Y-78780880D01*
X81625756Y-78780875D01*
X81535463Y-78634488D01*
X81535462Y-78634488D01*
X80819953Y-79349999D01*
X80819953Y-79350000D01*
X81535462Y-80065510D01*
X81535464Y-80065510D01*
X81586807Y-79982270D01*
X81638755Y-79935545D01*
X81707717Y-79924322D01*
X81771800Y-79952165D01*
X81792116Y-79973732D01*
X81827850Y-80022150D01*
X81937118Y-80102793D01*
X81942997Y-80104850D01*
X82065299Y-80147646D01*
X82095730Y-80150500D01*
X82095734Y-80150500D01*
X83104270Y-80150500D01*
X83134699Y-80147646D01*
X83134701Y-80147646D01*
X83200747Y-80124535D01*
X83262882Y-80102793D01*
X83368288Y-80025000D01*
X87178553Y-80025000D01*
X87900000Y-80746447D01*
X88571447Y-80075000D01*
X88476447Y-79980000D01*
X98550001Y-79980000D01*
X98550001Y-80879986D01*
X98560494Y-80982697D01*
X98615641Y-81149119D01*
X98615643Y-81149124D01*
X98707684Y-81298345D01*
X98831654Y-81422315D01*
X98980875Y-81514356D01*
X98980880Y-81514358D01*
X99147302Y-81569505D01*
X99147309Y-81569506D01*
X99250019Y-81579999D01*
X99299999Y-81579998D01*
X99300000Y-81579998D01*
X99300000Y-79980000D01*
X99800000Y-79980000D01*
X99800000Y-81579999D01*
X99849972Y-81579999D01*
X99849986Y-81579998D01*
X99952697Y-81569505D01*
X100119119Y-81514358D01*
X100119124Y-81514356D01*
X100268345Y-81422315D01*
X100392315Y-81298345D01*
X100484356Y-81149124D01*
X100484358Y-81149119D01*
X100539505Y-80982697D01*
X100539506Y-80982690D01*
X100549999Y-80879986D01*
X100550000Y-80879973D01*
X100550000Y-79980000D01*
X104750001Y-79980000D01*
X104750001Y-80879986D01*
X104760494Y-80982697D01*
X104815641Y-81149119D01*
X104815643Y-81149124D01*
X104907684Y-81298345D01*
X105031654Y-81422315D01*
X105180875Y-81514356D01*
X105180880Y-81514358D01*
X105347302Y-81569505D01*
X105347309Y-81569506D01*
X105450019Y-81579999D01*
X105499999Y-81579998D01*
X105500000Y-81579998D01*
X105500000Y-79980000D01*
X106000000Y-79980000D01*
X106000000Y-81579999D01*
X106049972Y-81579999D01*
X106049986Y-81579998D01*
X106152697Y-81569505D01*
X106319119Y-81514358D01*
X106319124Y-81514356D01*
X106468345Y-81422315D01*
X106592315Y-81298345D01*
X106684356Y-81149124D01*
X106684358Y-81149119D01*
X106739505Y-80982697D01*
X106739506Y-80982690D01*
X106749999Y-80879986D01*
X106750000Y-80879973D01*
X106750000Y-79980000D01*
X106000000Y-79980000D01*
X105500000Y-79980000D01*
X104750001Y-79980000D01*
X100550000Y-79980000D01*
X99800000Y-79980000D01*
X99300000Y-79980000D01*
X98550001Y-79980000D01*
X88476447Y-79980000D01*
X87850000Y-79353553D01*
X87178553Y-80025000D01*
X83368288Y-80025000D01*
X83372150Y-80022150D01*
X83452793Y-79912882D01*
X83476181Y-79846044D01*
X83516903Y-79789268D01*
X83581856Y-79763522D01*
X83593222Y-79763000D01*
X84455351Y-79763000D01*
X84455353Y-79763000D01*
X84538139Y-79740818D01*
X84612362Y-79697965D01*
X84948508Y-79361819D01*
X85009831Y-79328334D01*
X85036189Y-79325500D01*
X85125500Y-79325500D01*
X85192539Y-79345185D01*
X85238294Y-79397989D01*
X85249500Y-79449500D01*
X85249500Y-79529269D01*
X85252353Y-79559699D01*
X85252353Y-79559701D01*
X85297206Y-79687880D01*
X85297207Y-79687882D01*
X85377850Y-79797150D01*
X85487118Y-79877793D01*
X85529845Y-79892744D01*
X85615299Y-79922646D01*
X85645730Y-79925500D01*
X85645734Y-79925500D01*
X86254270Y-79925500D01*
X86284699Y-79922646D01*
X86284701Y-79922646D01*
X86360955Y-79895963D01*
X86412882Y-79877793D01*
X86522150Y-79797150D01*
X86602793Y-79687882D01*
X86625158Y-79623964D01*
X86665877Y-79567192D01*
X86730830Y-79541444D01*
X86799392Y-79554900D01*
X86849795Y-79603287D01*
X86859903Y-79625914D01*
X86862548Y-79633896D01*
X86862549Y-79633897D01*
X87496446Y-79000001D01*
X88203553Y-79000001D01*
X88837449Y-79633897D01*
X88839505Y-79627697D01*
X88839505Y-79627695D01*
X88849999Y-79524985D01*
X88849999Y-78475028D01*
X88849998Y-78475010D01*
X88839506Y-78372304D01*
X88837450Y-78366101D01*
X88203553Y-78999999D01*
X88203553Y-79000001D01*
X87496446Y-79000001D01*
X87496447Y-79000000D01*
X86862549Y-78366102D01*
X86862547Y-78366102D01*
X86859904Y-78374081D01*
X86820132Y-78431526D01*
X86755616Y-78458349D01*
X86686840Y-78446034D01*
X86635640Y-78398491D01*
X86625160Y-78376039D01*
X86602793Y-78312118D01*
X86522150Y-78202850D01*
X86412882Y-78122207D01*
X86394973Y-78115940D01*
X86338199Y-78075219D01*
X86312452Y-78010266D01*
X86325909Y-77941704D01*
X86374297Y-77891302D01*
X86435930Y-77874900D01*
X87027091Y-77874900D01*
X87094130Y-77894585D01*
X87114772Y-77911219D01*
X87850000Y-78646447D01*
X87850001Y-78646447D01*
X88585227Y-77911219D01*
X88646550Y-77877734D01*
X88672908Y-77874900D01*
X98695077Y-77874900D01*
X98762116Y-77894585D01*
X98807871Y-77947389D01*
X98817815Y-78016547D01*
X98788790Y-78080103D01*
X98782758Y-78086581D01*
X98707684Y-78161654D01*
X98615643Y-78310875D01*
X98615641Y-78310880D01*
X98560494Y-78477302D01*
X98560493Y-78477309D01*
X98550000Y-78580013D01*
X98550000Y-79480000D01*
X100549999Y-79480000D01*
X100549999Y-78580028D01*
X100549998Y-78580013D01*
X100539505Y-78477302D01*
X100484358Y-78310880D01*
X100484356Y-78310875D01*
X100392315Y-78161654D01*
X100317242Y-78086581D01*
X100283757Y-78025258D01*
X100288741Y-77955566D01*
X100330613Y-77899633D01*
X100396077Y-77875216D01*
X100404923Y-77874900D01*
X104895077Y-77874900D01*
X104962116Y-77894585D01*
X105007871Y-77947389D01*
X105017815Y-78016547D01*
X104988790Y-78080103D01*
X104982758Y-78086581D01*
X104907684Y-78161654D01*
X104815643Y-78310875D01*
X104815641Y-78310880D01*
X104760494Y-78477302D01*
X104760493Y-78477309D01*
X104750000Y-78580013D01*
X104750000Y-79480000D01*
X106749999Y-79480000D01*
X106749999Y-78580028D01*
X106749998Y-78580013D01*
X106739505Y-78477302D01*
X106684358Y-78310880D01*
X106684356Y-78310875D01*
X106592315Y-78161654D01*
X106517242Y-78086581D01*
X106483757Y-78025258D01*
X106488741Y-77955566D01*
X106530613Y-77899633D01*
X106596077Y-77875216D01*
X106604923Y-77874900D01*
X108530633Y-77874900D01*
X108597672Y-77894585D01*
X108643427Y-77947389D01*
X108653371Y-78016547D01*
X108624346Y-78080103D01*
X108603518Y-78099218D01*
X108496846Y-78176719D01*
X108496836Y-78176727D01*
X108276652Y-78383494D01*
X108084111Y-78616236D01*
X107922268Y-78871261D01*
X107922265Y-78871267D01*
X107793661Y-79144563D01*
X107793659Y-79144568D01*
X107700320Y-79431835D01*
X107643719Y-79728546D01*
X107643718Y-79728553D01*
X107624754Y-80029994D01*
X107624754Y-80030005D01*
X107643718Y-80331446D01*
X107643719Y-80331453D01*
X107659106Y-80412116D01*
X107699048Y-80621499D01*
X107700320Y-80628164D01*
X107793659Y-80915431D01*
X107793661Y-80915436D01*
X107922265Y-81188732D01*
X107922268Y-81188738D01*
X108084111Y-81443763D01*
X108084114Y-81443767D01*
X108084115Y-81443768D01*
X108270796Y-81669427D01*
X108276652Y-81676505D01*
X108315391Y-81712883D01*
X108474543Y-81862338D01*
X108496836Y-81883272D01*
X108496846Y-81883280D01*
X108741193Y-82060808D01*
X108741198Y-82060810D01*
X108741205Y-82060816D01*
X109005896Y-82206332D01*
X109005901Y-82206334D01*
X109005903Y-82206335D01*
X109005904Y-82206336D01*
X109286734Y-82317524D01*
X109286737Y-82317525D01*
X109351839Y-82334240D01*
X109579302Y-82392642D01*
X109726039Y-82411179D01*
X109878963Y-82430499D01*
X109878969Y-82430499D01*
X109878973Y-82430500D01*
X109878975Y-82430500D01*
X110181025Y-82430500D01*
X110181027Y-82430500D01*
X110181032Y-82430499D01*
X110181036Y-82430499D01*
X110260591Y-82420448D01*
X110480698Y-82392642D01*
X110773262Y-82317525D01*
X110790508Y-82310697D01*
X111054095Y-82206336D01*
X111054096Y-82206335D01*
X111054094Y-82206335D01*
X111054104Y-82206332D01*
X111318795Y-82060816D01*
X111563162Y-81883274D01*
X111783349Y-81676504D01*
X111975885Y-81443768D01*
X112137733Y-81188736D01*
X112266341Y-80915430D01*
X112359681Y-80628160D01*
X112416280Y-80331457D01*
X112418080Y-80302850D01*
X112435246Y-80030005D01*
X112435246Y-80029994D01*
X112418259Y-79760000D01*
X114070001Y-79760000D01*
X114070001Y-80659986D01*
X114080494Y-80762697D01*
X114135641Y-80929119D01*
X114135643Y-80929124D01*
X114227684Y-81078345D01*
X114351654Y-81202315D01*
X114500875Y-81294356D01*
X114500880Y-81294358D01*
X114667302Y-81349505D01*
X114667309Y-81349506D01*
X114770019Y-81359999D01*
X114819999Y-81359998D01*
X114820000Y-81359998D01*
X114820000Y-79760000D01*
X115320000Y-79760000D01*
X115320000Y-81359999D01*
X115369972Y-81359999D01*
X115369986Y-81359998D01*
X115472697Y-81349505D01*
X115639119Y-81294358D01*
X115639124Y-81294356D01*
X115788345Y-81202315D01*
X115912315Y-81078345D01*
X116004356Y-80929124D01*
X116004358Y-80929119D01*
X116059505Y-80762697D01*
X116059506Y-80762690D01*
X116069999Y-80659986D01*
X116070000Y-80659973D01*
X116070000Y-79760000D01*
X115320000Y-79760000D01*
X114820000Y-79760000D01*
X114070001Y-79760000D01*
X112418259Y-79760000D01*
X112416281Y-79728553D01*
X112416280Y-79728546D01*
X112416280Y-79728543D01*
X112359681Y-79431840D01*
X112266341Y-79144570D01*
X112137733Y-78871264D01*
X112080374Y-78780880D01*
X111975888Y-78616236D01*
X111945922Y-78580013D01*
X111783349Y-78383496D01*
X111747679Y-78350000D01*
X111563163Y-78176727D01*
X111563153Y-78176719D01*
X111456482Y-78099218D01*
X111413816Y-78043888D01*
X111407837Y-77974275D01*
X111440442Y-77912480D01*
X111501281Y-77878123D01*
X111529367Y-77874900D01*
X114046684Y-77874900D01*
X114113723Y-77894585D01*
X114159478Y-77947389D01*
X114169422Y-78016547D01*
X114152222Y-78063997D01*
X114135646Y-78090869D01*
X114135641Y-78090880D01*
X114080494Y-78257302D01*
X114080493Y-78257309D01*
X114070000Y-78360013D01*
X114070000Y-79260000D01*
X116069999Y-79260000D01*
X116069999Y-78360028D01*
X116069998Y-78360013D01*
X116059505Y-78257302D01*
X116004358Y-78090880D01*
X116004353Y-78090869D01*
X115987778Y-78063997D01*
X115969337Y-77996605D01*
X115990259Y-77929941D01*
X116043901Y-77885172D01*
X116093316Y-77874900D01*
X120246684Y-77874900D01*
X120313723Y-77894585D01*
X120359478Y-77947389D01*
X120369422Y-78016547D01*
X120352222Y-78063997D01*
X120335646Y-78090869D01*
X120335641Y-78090880D01*
X120280494Y-78257302D01*
X120280493Y-78257309D01*
X120270000Y-78360013D01*
X120270000Y-79260000D01*
X122269999Y-79260000D01*
X122269999Y-78360028D01*
X122269998Y-78360013D01*
X122259505Y-78257302D01*
X122204358Y-78090880D01*
X122204353Y-78090869D01*
X122187778Y-78063997D01*
X122169337Y-77996605D01*
X122190259Y-77929941D01*
X122243901Y-77885172D01*
X122293316Y-77874900D01*
X127345102Y-77874900D01*
X127412141Y-77894585D01*
X127457896Y-77947389D01*
X127467840Y-78016547D01*
X127444872Y-78072533D01*
X127397209Y-78137113D01*
X127397206Y-78137119D01*
X127352353Y-78265298D01*
X127352353Y-78265300D01*
X127349500Y-78295730D01*
X127349500Y-80404269D01*
X127352353Y-80434699D01*
X127352353Y-80434701D01*
X127397206Y-80562880D01*
X127397207Y-80562882D01*
X127477850Y-80672150D01*
X127587118Y-80752793D01*
X127615402Y-80762690D01*
X127715299Y-80797646D01*
X127745730Y-80800500D01*
X127745734Y-80800500D01*
X130654270Y-80800500D01*
X130684699Y-80797646D01*
X130684701Y-80797646D01*
X130748790Y-80775219D01*
X130812882Y-80752793D01*
X130922150Y-80672150D01*
X130984162Y-80588125D01*
X131039806Y-80545877D01*
X131109462Y-80540418D01*
X131171012Y-80573485D01*
X131176180Y-80578900D01*
X131220426Y-80628160D01*
X131221615Y-80629483D01*
X131277548Y-80671355D01*
X131277551Y-80671357D01*
X131277558Y-80671362D01*
X131305364Y-80688538D01*
X131316301Y-80695294D01*
X131412441Y-80721668D01*
X131482133Y-80726652D01*
X131482140Y-80726651D01*
X131482144Y-80726652D01*
X131515526Y-80726055D01*
X131527670Y-80725839D01*
X131527672Y-80725838D01*
X131527675Y-80725838D01*
X131557268Y-80716571D01*
X131622806Y-80696050D01*
X131684129Y-80662565D01*
X131742347Y-80618984D01*
X132069512Y-80291819D01*
X132130835Y-80258334D01*
X132157193Y-80255500D01*
X134604068Y-80255500D01*
X134671107Y-80275185D01*
X134716862Y-80327989D01*
X134726806Y-80397147D01*
X134703837Y-80453135D01*
X134697208Y-80462116D01*
X134697206Y-80462119D01*
X134652353Y-80590298D01*
X134652353Y-80590300D01*
X134649500Y-80620730D01*
X134649500Y-80718003D01*
X134629815Y-80785042D01*
X134577011Y-80830797D01*
X134557598Y-80837776D01*
X134543873Y-80841454D01*
X134524360Y-80846682D01*
X134524359Y-80846683D01*
X134454532Y-80886998D01*
X134454527Y-80887001D01*
X134450137Y-80889535D01*
X134450135Y-80889536D01*
X134139537Y-81200135D01*
X134139533Y-81200141D01*
X134096683Y-81274359D01*
X134094105Y-81283981D01*
X134074500Y-81357147D01*
X134074500Y-82211502D01*
X134054815Y-82278541D01*
X134002011Y-82324296D01*
X133932853Y-82334240D01*
X133909545Y-82328543D01*
X133834701Y-82302354D01*
X133834699Y-82302353D01*
X133804270Y-82299500D01*
X133804266Y-82299500D01*
X133170734Y-82299500D01*
X133170730Y-82299500D01*
X133140300Y-82302353D01*
X133140298Y-82302353D01*
X133012119Y-82347206D01*
X133012117Y-82347207D01*
X132902850Y-82427850D01*
X132822207Y-82537117D01*
X132822206Y-82537119D01*
X132777353Y-82665298D01*
X132777353Y-82665300D01*
X132774500Y-82695730D01*
X132774500Y-83704269D01*
X132777353Y-83734699D01*
X132777353Y-83734701D01*
X132822206Y-83862880D01*
X132822209Y-83862886D01*
X132876048Y-83935835D01*
X132900019Y-84001463D01*
X132884703Y-84069634D01*
X132841376Y-84115006D01*
X132731656Y-84182682D01*
X132607684Y-84306654D01*
X132515643Y-84455875D01*
X132515641Y-84455880D01*
X132460494Y-84622302D01*
X132460493Y-84622309D01*
X132450000Y-84725013D01*
X132450000Y-85000000D01*
X133576000Y-85000000D01*
X133643039Y-85019685D01*
X133688794Y-85072489D01*
X133700000Y-85124000D01*
X133700000Y-86474999D01*
X133749972Y-86474999D01*
X133749986Y-86474998D01*
X133852697Y-86464505D01*
X134019119Y-86409358D01*
X134019124Y-86409356D01*
X134168345Y-86317315D01*
X134292315Y-86193345D01*
X134384356Y-86044124D01*
X134384359Y-86044117D01*
X134440094Y-85875918D01*
X134479866Y-85818473D01*
X134544382Y-85791649D01*
X134613158Y-85803964D01*
X134664358Y-85851506D01*
X134674841Y-85873965D01*
X134684826Y-85902500D01*
X134697207Y-85937882D01*
X134777850Y-86047150D01*
X134887118Y-86127793D01*
X134929845Y-86142744D01*
X135015299Y-86172646D01*
X135045730Y-86175500D01*
X135564811Y-86175500D01*
X135631850Y-86195185D01*
X135677605Y-86247989D01*
X135687549Y-86317147D01*
X135658524Y-86380703D01*
X135652492Y-86387181D01*
X134178092Y-87861581D01*
X134116769Y-87895066D01*
X134090411Y-87897900D01*
X134000330Y-87897900D01*
X133969900Y-87900753D01*
X133969898Y-87900753D01*
X133841719Y-87945606D01*
X133841717Y-87945607D01*
X133732450Y-88026250D01*
X133651807Y-88135517D01*
X133651806Y-88135519D01*
X133606953Y-88263698D01*
X133606953Y-88263700D01*
X133604100Y-88294130D01*
X133604100Y-88348900D01*
X133584415Y-88415939D01*
X133531611Y-88461694D01*
X133480100Y-88472900D01*
X133425000Y-88472900D01*
X133357961Y-88453215D01*
X133312206Y-88400411D01*
X133301000Y-88348900D01*
X133301000Y-88294130D01*
X133298146Y-88263700D01*
X133298146Y-88263698D01*
X133255877Y-88142903D01*
X133253293Y-88135518D01*
X133172650Y-88026250D01*
X133063382Y-87945607D01*
X133063380Y-87945606D01*
X132935200Y-87900753D01*
X132904770Y-87897900D01*
X132904766Y-87897900D01*
X132271234Y-87897900D01*
X132271230Y-87897900D01*
X132240800Y-87900753D01*
X132240798Y-87900753D01*
X132112619Y-87945606D01*
X132112612Y-87945610D01*
X132107328Y-87949510D01*
X132041698Y-87973478D01*
X131973529Y-87958158D01*
X131924463Y-87908416D01*
X131923378Y-87906153D01*
X131887931Y-87841238D01*
X131887926Y-87841230D01*
X131844350Y-87783019D01*
X131844349Y-87783018D01*
X131844347Y-87783015D01*
X131844342Y-87783010D01*
X131844334Y-87783001D01*
X131591819Y-87530486D01*
X131558334Y-87469163D01*
X131555500Y-87442805D01*
X131555500Y-85500000D01*
X132450001Y-85500000D01*
X132450001Y-85774986D01*
X132460494Y-85877697D01*
X132515641Y-86044119D01*
X132515643Y-86044124D01*
X132607684Y-86193345D01*
X132731654Y-86317315D01*
X132880875Y-86409356D01*
X132880880Y-86409358D01*
X133047302Y-86464505D01*
X133047309Y-86464506D01*
X133150019Y-86474999D01*
X133199999Y-86474998D01*
X133200000Y-86474998D01*
X133200000Y-85500000D01*
X132450001Y-85500000D01*
X131555500Y-85500000D01*
X131555500Y-85051360D01*
X131554990Y-85041846D01*
X131554036Y-85024048D01*
X131552060Y-85005666D01*
X131551202Y-84997689D01*
X131551201Y-84997687D01*
X131546243Y-84981854D01*
X131521413Y-84902556D01*
X131519360Y-84898797D01*
X131487931Y-84841238D01*
X131487926Y-84841230D01*
X131444350Y-84783019D01*
X131444349Y-84783018D01*
X131444347Y-84783015D01*
X131444342Y-84783010D01*
X131444334Y-84783001D01*
X130816998Y-84155666D01*
X130816997Y-84155665D01*
X130816985Y-84155653D01*
X130796635Y-84137374D01*
X130796629Y-84137369D01*
X130796620Y-84137361D01*
X130775999Y-84120744D01*
X130775996Y-84120742D01*
X130775993Y-84120740D01*
X130687662Y-84074535D01*
X130687659Y-84074534D01*
X130620624Y-84054850D01*
X130620616Y-84054848D01*
X130548639Y-84044500D01*
X130548638Y-84044500D01*
X127001362Y-84044500D01*
X127001361Y-84044500D01*
X126974065Y-84045963D01*
X126974060Y-84045963D01*
X126974048Y-84045964D01*
X126974040Y-84045964D01*
X126974011Y-84045967D01*
X126947689Y-84048797D01*
X126947687Y-84048798D01*
X126852558Y-84078586D01*
X126852548Y-84078590D01*
X126791238Y-84112068D01*
X126791230Y-84112073D01*
X126733019Y-84155649D01*
X126733001Y-84155665D01*
X126255666Y-84633001D01*
X126255638Y-84633031D01*
X126237361Y-84653379D01*
X126220744Y-84674000D01*
X126220740Y-84674005D01*
X126220740Y-84674007D01*
X126175783Y-84759953D01*
X126174534Y-84762340D01*
X126154850Y-84829375D01*
X126154848Y-84829383D01*
X126144500Y-84901360D01*
X126144500Y-86092806D01*
X126124815Y-86159845D01*
X126108185Y-86180482D01*
X126050480Y-86238188D01*
X126004769Y-86283899D01*
X125943446Y-86317383D01*
X125873754Y-86312399D01*
X125817821Y-86270527D01*
X125793404Y-86205062D01*
X125794350Y-86178570D01*
X125805647Y-86100000D01*
X125785165Y-85957543D01*
X125725377Y-85826627D01*
X125631128Y-85717857D01*
X125510053Y-85640047D01*
X125510051Y-85640046D01*
X125510049Y-85640045D01*
X125510050Y-85640045D01*
X125371963Y-85599500D01*
X125371961Y-85599500D01*
X125243622Y-85599500D01*
X125176583Y-85579815D01*
X125155941Y-85563181D01*
X121056319Y-81463559D01*
X121022834Y-81402236D01*
X121020000Y-81375878D01*
X121020000Y-79760000D01*
X121520000Y-79760000D01*
X121520000Y-81359999D01*
X121569972Y-81359999D01*
X121569986Y-81359998D01*
X121672697Y-81349505D01*
X121839119Y-81294358D01*
X121839124Y-81294356D01*
X121988345Y-81202315D01*
X122112315Y-81078345D01*
X122204356Y-80929124D01*
X122204358Y-80929119D01*
X122259505Y-80762697D01*
X122259506Y-80762690D01*
X122269999Y-80659986D01*
X122270000Y-80659973D01*
X122270000Y-79760000D01*
X121520000Y-79760000D01*
X121020000Y-79760000D01*
X120270001Y-79760000D01*
X120270001Y-80621499D01*
X120250316Y-80688538D01*
X120197512Y-80734293D01*
X120146001Y-80745499D01*
X120082568Y-80745499D01*
X120082552Y-80745500D01*
X118467448Y-80745500D01*
X118467432Y-80745499D01*
X118459836Y-80745499D01*
X118340164Y-80745499D01*
X118248997Y-80769927D01*
X118239518Y-80772466D01*
X118224570Y-80776472D01*
X118224565Y-80776474D01*
X118120933Y-80836306D01*
X118120927Y-80836311D01*
X117806311Y-81150927D01*
X117806307Y-81150933D01*
X117746472Y-81254568D01*
X117746473Y-81254568D01*
X117746473Y-81254569D01*
X117746473Y-81254570D01*
X117716650Y-81365871D01*
X117715499Y-81370165D01*
X117715499Y-81436897D01*
X117695814Y-81503936D01*
X117643010Y-81549691D01*
X117573852Y-81559635D01*
X117510296Y-81530610D01*
X117503818Y-81524578D01*
X117471561Y-81492321D01*
X117471552Y-81492314D01*
X117330196Y-81408717D01*
X117330193Y-81408716D01*
X117172494Y-81362900D01*
X117172497Y-81362900D01*
X117170000Y-81362703D01*
X117170000Y-84057295D01*
X117170001Y-84057295D01*
X117172486Y-84057100D01*
X117330198Y-84011281D01*
X117471552Y-83927685D01*
X117471561Y-83927678D01*
X117503819Y-83895421D01*
X117565142Y-83861936D01*
X117634834Y-83866920D01*
X117690767Y-83908792D01*
X117715184Y-83974256D01*
X117715500Y-83983102D01*
X117715500Y-84190378D01*
X117695815Y-84257417D01*
X117679181Y-84278059D01*
X116573559Y-85383681D01*
X116512236Y-85417166D01*
X116485878Y-85420000D01*
X114579103Y-85420000D01*
X114512064Y-85400315D01*
X114466721Y-85348405D01*
X114464196Y-85342991D01*
X114417117Y-85242029D01*
X114407669Y-85221768D01*
X114407329Y-85221283D01*
X114281688Y-85041846D01*
X114277145Y-85035358D01*
X114116241Y-84874454D01*
X113929834Y-84743932D01*
X113929832Y-84743931D01*
X113723597Y-84647761D01*
X113723588Y-84647758D01*
X113503797Y-84588866D01*
X113503793Y-84588865D01*
X113503792Y-84588865D01*
X113503791Y-84588864D01*
X113503786Y-84588864D01*
X113277102Y-84569032D01*
X113277098Y-84569032D01*
X113050413Y-84588864D01*
X113050402Y-84588866D01*
X112830611Y-84647758D01*
X112830602Y-84647761D01*
X112624367Y-84743931D01*
X112624365Y-84743932D01*
X112437958Y-84874454D01*
X112277054Y-85035358D01*
X112169079Y-85189565D01*
X112147225Y-85220777D01*
X112146535Y-85221762D01*
X112146531Y-85221767D01*
X112050361Y-85428002D01*
X112050358Y-85428011D01*
X111991466Y-85647802D01*
X111991464Y-85647813D01*
X111971632Y-85874498D01*
X111971632Y-85874501D01*
X111991464Y-86101186D01*
X111991466Y-86101197D01*
X112050358Y-86320988D01*
X112050360Y-86320992D01*
X112050361Y-86320996D01*
X112054094Y-86329001D01*
X112057388Y-86336065D01*
X112067880Y-86405143D01*
X112039360Y-86468927D01*
X112032687Y-86476151D01*
X111470932Y-87037907D01*
X111386311Y-87122527D01*
X111386306Y-87122533D01*
X111326474Y-87226165D01*
X111326473Y-87226169D01*
X111322644Y-87240458D01*
X111295499Y-87341764D01*
X111295499Y-87341766D01*
X111295499Y-87471425D01*
X111295500Y-87471438D01*
X111295500Y-90082551D01*
X111295499Y-90082569D01*
X111295499Y-90090164D01*
X111295499Y-90209836D01*
X111297988Y-90219124D01*
X111318756Y-90296633D01*
X111326473Y-90325431D01*
X111326474Y-90325434D01*
X111386306Y-90429066D01*
X111386311Y-90429072D01*
X111477995Y-90520756D01*
X111478001Y-90520761D01*
X111714068Y-90756828D01*
X111714078Y-90756839D01*
X111718408Y-90761169D01*
X111718409Y-90761170D01*
X111803030Y-90845791D01*
X111906669Y-90905627D01*
X112022264Y-90936600D01*
X112317555Y-90936600D01*
X112384594Y-90956285D01*
X112417325Y-90986966D01*
X112459750Y-91044450D01*
X112569018Y-91125093D01*
X112611745Y-91140044D01*
X112697199Y-91169946D01*
X112727630Y-91172800D01*
X112727634Y-91172800D01*
X113736170Y-91172800D01*
X113766599Y-91169946D01*
X113766601Y-91169946D01*
X113830690Y-91147519D01*
X113894782Y-91125093D01*
X114004050Y-91044450D01*
X114046475Y-90986966D01*
X114102123Y-90944715D01*
X114146245Y-90936600D01*
X114660130Y-90936600D01*
X114714589Y-90949198D01*
X114762607Y-90972673D01*
X114788125Y-90976391D01*
X114830739Y-90982600D01*
X115707710Y-90982600D01*
X115774749Y-91002285D01*
X115820504Y-91055089D01*
X115830448Y-91124247D01*
X115801423Y-91187803D01*
X115795391Y-91194281D01*
X115437537Y-91552135D01*
X115437535Y-91552138D01*
X115394682Y-91626360D01*
X115380984Y-91677484D01*
X115372500Y-91709145D01*
X115372500Y-91833600D01*
X115352815Y-91900639D01*
X115300011Y-91946394D01*
X115248500Y-91957600D01*
X115077239Y-91957600D01*
X115009108Y-91967526D01*
X114904014Y-92018903D01*
X114821303Y-92101614D01*
X114769926Y-92206708D01*
X114760000Y-92274839D01*
X114760000Y-92641360D01*
X114769926Y-92709491D01*
X114821303Y-92814585D01*
X114904014Y-92897296D01*
X114904015Y-92897296D01*
X114904017Y-92897298D01*
X115009107Y-92948673D01*
X115043173Y-92953636D01*
X115077239Y-92958600D01*
X116220500Y-92958600D01*
X116287539Y-92978285D01*
X116333294Y-93031089D01*
X116344500Y-93082600D01*
X116344500Y-93732921D01*
X116342968Y-93732921D01*
X116328255Y-93795022D01*
X116277947Y-93843509D01*
X116220536Y-93857600D01*
X115077239Y-93857600D01*
X115009108Y-93867526D01*
X114961090Y-93891001D01*
X114906630Y-93903600D01*
X114178477Y-93903600D01*
X114111438Y-93883915D01*
X114078707Y-93853233D01*
X114029051Y-93785951D01*
X114024815Y-93782825D01*
X113919782Y-93705307D01*
X113919780Y-93705306D01*
X113855867Y-93682942D01*
X113799091Y-93642220D01*
X113773344Y-93577268D01*
X113786801Y-93508706D01*
X113835188Y-93458303D01*
X113857818Y-93448195D01*
X114026019Y-93392458D01*
X114026024Y-93392456D01*
X114175245Y-93300415D01*
X114299215Y-93176445D01*
X114391256Y-93027224D01*
X114391258Y-93027219D01*
X114446405Y-92860797D01*
X114446406Y-92860790D01*
X114456899Y-92758086D01*
X114456900Y-92758073D01*
X114456900Y-92708100D01*
X112006901Y-92708100D01*
X112006901Y-92758086D01*
X112017394Y-92860797D01*
X112072541Y-93027219D01*
X112072543Y-93027224D01*
X112164584Y-93176445D01*
X112288554Y-93300415D01*
X112437775Y-93392456D01*
X112437782Y-93392459D01*
X112605981Y-93448194D01*
X112663426Y-93487966D01*
X112690250Y-93552482D01*
X112677935Y-93621258D01*
X112630393Y-93672458D01*
X112607935Y-93682941D01*
X112567169Y-93697206D01*
X112544018Y-93705307D01*
X112544017Y-93705307D01*
X112544016Y-93705308D01*
X112434748Y-93785951D01*
X112391071Y-93845133D01*
X112335424Y-93887384D01*
X112291301Y-93895500D01*
X111986206Y-93895500D01*
X111919167Y-93875815D01*
X111910731Y-93869884D01*
X111852841Y-93825464D01*
X111808844Y-93807240D01*
X111706762Y-93764956D01*
X111706760Y-93764955D01*
X111550001Y-93744318D01*
X111549999Y-93744318D01*
X111393239Y-93764955D01*
X111393237Y-93764956D01*
X111247160Y-93825463D01*
X111121718Y-93921718D01*
X111025463Y-94047160D01*
X110964956Y-94193237D01*
X110964955Y-94193239D01*
X110944318Y-94349998D01*
X110944318Y-94350001D01*
X110964955Y-94506760D01*
X110964956Y-94506762D01*
X111013520Y-94624007D01*
X111025464Y-94652841D01*
X111121718Y-94778282D01*
X111247159Y-94874536D01*
X111393238Y-94935044D01*
X111471619Y-94945363D01*
X111549999Y-94955682D01*
X111550000Y-94955682D01*
X111550001Y-94955682D01*
X111614815Y-94947149D01*
X111706762Y-94935044D01*
X111852841Y-94874536D01*
X111910721Y-94830123D01*
X111975889Y-94804930D01*
X111986206Y-94804500D01*
X112279345Y-94804500D01*
X112346384Y-94824185D01*
X112379115Y-94854867D01*
X112434748Y-94930248D01*
X112434749Y-94930248D01*
X112434750Y-94930250D01*
X112544018Y-95010893D01*
X112553252Y-95014124D01*
X112672199Y-95055746D01*
X112702630Y-95058600D01*
X112702634Y-95058600D01*
X113761170Y-95058600D01*
X113791599Y-95055746D01*
X113791601Y-95055746D01*
X113871487Y-95027792D01*
X113919782Y-95010893D01*
X114029050Y-94930250D01*
X114078708Y-94862966D01*
X114134354Y-94820716D01*
X114178477Y-94812600D01*
X114906630Y-94812600D01*
X114961089Y-94825198D01*
X115009107Y-94848673D01*
X115027549Y-94851360D01*
X115077239Y-94858600D01*
X115077240Y-94858600D01*
X116318761Y-94858600D01*
X116344381Y-94854867D01*
X116386893Y-94848673D01*
X116434910Y-94825198D01*
X116489370Y-94812600D01*
X118865950Y-94812600D01*
X118932989Y-94832285D01*
X118965719Y-94862965D01*
X119027850Y-94947150D01*
X119137118Y-95027793D01*
X119179845Y-95042744D01*
X119265299Y-95072646D01*
X119295730Y-95075500D01*
X119295734Y-95075500D01*
X120304270Y-95075500D01*
X120334699Y-95072646D01*
X120334701Y-95072646D01*
X120401464Y-95049284D01*
X120462882Y-95027793D01*
X120547859Y-94965077D01*
X120613486Y-94941107D01*
X120681656Y-94956422D01*
X120727030Y-94999751D01*
X120773870Y-95075691D01*
X120896808Y-95198629D01*
X121044785Y-95289903D01*
X121044790Y-95289905D01*
X121209826Y-95344592D01*
X121311684Y-95354999D01*
X121311697Y-95355000D01*
X121567500Y-95355000D01*
X121567500Y-94617500D01*
X122067500Y-94617500D01*
X122067500Y-95355000D01*
X122323303Y-95355000D01*
X122323315Y-95354999D01*
X122425173Y-95344592D01*
X122590209Y-95289905D01*
X122590214Y-95289903D01*
X122738191Y-95198629D01*
X122861129Y-95075691D01*
X122952403Y-94927714D01*
X122952405Y-94927709D01*
X123007092Y-94762673D01*
X123017499Y-94660815D01*
X123017500Y-94660802D01*
X123017500Y-94617500D01*
X122067500Y-94617500D01*
X121567500Y-94617500D01*
X121567500Y-94241500D01*
X121587185Y-94174461D01*
X121639989Y-94128706D01*
X121691500Y-94117500D01*
X123017500Y-94117500D01*
X123017500Y-94074197D01*
X123017499Y-94074184D01*
X123007092Y-93972326D01*
X122952405Y-93807290D01*
X122952403Y-93807285D01*
X122861129Y-93659308D01*
X122738191Y-93536370D01*
X122590214Y-93445096D01*
X122590209Y-93445094D01*
X122423632Y-93389896D01*
X122366187Y-93350123D01*
X122339364Y-93285607D01*
X122351679Y-93216832D01*
X122399222Y-93165632D01*
X122421676Y-93155150D01*
X122483679Y-93133455D01*
X122591430Y-93053930D01*
X122670955Y-92946179D01*
X122700061Y-92863000D01*
X122715184Y-92819781D01*
X122715184Y-92819778D01*
X122715186Y-92819774D01*
X122718000Y-92789764D01*
X122718000Y-92195236D01*
X122717537Y-92190301D01*
X122715186Y-92165230D01*
X122715186Y-92165226D01*
X122715184Y-92165222D01*
X122715184Y-92165218D01*
X122670955Y-92038821D01*
X122670954Y-92038819D01*
X122591430Y-91931069D01*
X122521245Y-91879270D01*
X122478994Y-91823622D01*
X122473537Y-91753966D01*
X122506604Y-91692416D01*
X122567698Y-91658516D01*
X122594879Y-91655500D01*
X123248639Y-91655500D01*
X123250075Y-91655422D01*
X123275952Y-91654036D01*
X123302310Y-91651202D01*
X123397444Y-91621413D01*
X123458767Y-91587928D01*
X123516985Y-91544347D01*
X124011331Y-91050000D01*
X124642201Y-91050000D01*
X124642201Y-91099986D01*
X124652694Y-91202697D01*
X124707841Y-91369119D01*
X124707843Y-91369124D01*
X124799884Y-91518345D01*
X124923854Y-91642315D01*
X125073075Y-91734356D01*
X125073080Y-91734358D01*
X125239502Y-91789505D01*
X125239509Y-91789506D01*
X125342219Y-91799999D01*
X125617199Y-91799999D01*
X125617200Y-91799998D01*
X125617200Y-91050000D01*
X126117200Y-91050000D01*
X126117200Y-91799999D01*
X126392172Y-91799999D01*
X126392186Y-91799998D01*
X126494897Y-91789505D01*
X126661319Y-91734358D01*
X126661324Y-91734356D01*
X126810545Y-91642315D01*
X126820919Y-91631942D01*
X126882242Y-91598457D01*
X126951934Y-91603441D01*
X126996281Y-91631942D01*
X127006654Y-91642315D01*
X127155875Y-91734356D01*
X127155880Y-91734358D01*
X127322302Y-91789505D01*
X127322309Y-91789506D01*
X127425019Y-91799999D01*
X127699999Y-91799999D01*
X127700000Y-91799998D01*
X127700000Y-91050000D01*
X128200000Y-91050000D01*
X128200000Y-91799999D01*
X128474972Y-91799999D01*
X128474986Y-91799998D01*
X128577697Y-91789505D01*
X128744119Y-91734358D01*
X128744124Y-91734356D01*
X128893345Y-91642315D01*
X129017315Y-91518345D01*
X129109356Y-91369124D01*
X129109358Y-91369119D01*
X129164505Y-91202697D01*
X129164506Y-91202690D01*
X129174999Y-91099986D01*
X129175000Y-91099973D01*
X129175000Y-91050000D01*
X128200000Y-91050000D01*
X127700000Y-91050000D01*
X126117200Y-91050000D01*
X125617200Y-91050000D01*
X124642201Y-91050000D01*
X124011331Y-91050000D01*
X124489086Y-90572244D01*
X124550407Y-90538761D01*
X124620098Y-90543745D01*
X124629831Y-90550000D01*
X129174999Y-90550000D01*
X129174999Y-90500028D01*
X129174998Y-90500013D01*
X129164505Y-90397302D01*
X129121826Y-90268504D01*
X129119424Y-90198676D01*
X129155156Y-90138634D01*
X129217676Y-90107441D01*
X129239532Y-90105500D01*
X131198639Y-90105500D01*
X131200075Y-90105422D01*
X131225952Y-90104036D01*
X131252310Y-90101202D01*
X131347444Y-90071413D01*
X131408767Y-90037928D01*
X131466985Y-89994347D01*
X131844347Y-89616985D01*
X131857550Y-89602285D01*
X131916991Y-89565564D01*
X131986849Y-89566808D01*
X132023435Y-89585374D01*
X132112613Y-89651190D01*
X132112615Y-89651191D01*
X132112618Y-89651193D01*
X132135341Y-89659144D01*
X132240799Y-89696046D01*
X132271230Y-89698900D01*
X132271234Y-89698900D01*
X132904770Y-89698900D01*
X132935199Y-89696046D01*
X132935201Y-89696046D01*
X132999290Y-89673619D01*
X133063382Y-89651193D01*
X133172650Y-89570550D01*
X133253293Y-89461282D01*
X133279117Y-89387480D01*
X133298146Y-89333101D01*
X133298146Y-89333099D01*
X133301000Y-89302669D01*
X133301000Y-89247900D01*
X133320685Y-89180861D01*
X133373489Y-89135106D01*
X133425000Y-89123900D01*
X133480100Y-89123900D01*
X133547139Y-89143585D01*
X133592894Y-89196389D01*
X133604100Y-89247900D01*
X133604100Y-89302669D01*
X133606953Y-89333099D01*
X133606953Y-89333101D01*
X133651806Y-89461280D01*
X133651807Y-89461282D01*
X133732450Y-89570550D01*
X133841718Y-89651193D01*
X133864441Y-89659144D01*
X133969899Y-89696046D01*
X134000330Y-89698900D01*
X134000334Y-89698900D01*
X134633870Y-89698900D01*
X134664299Y-89696046D01*
X134664301Y-89696046D01*
X134728390Y-89673619D01*
X134792482Y-89651193D01*
X134901750Y-89570550D01*
X134982393Y-89461282D01*
X135008217Y-89387480D01*
X135027246Y-89333101D01*
X135027246Y-89333099D01*
X135030100Y-89302669D01*
X135030100Y-88294130D01*
X135027246Y-88263703D01*
X135027246Y-88263701D01*
X134982393Y-88135518D01*
X134978840Y-88130705D01*
X134954872Y-88065078D01*
X134970188Y-87996908D01*
X134990932Y-87969394D01*
X135653179Y-87307147D01*
X136367445Y-86592881D01*
X136428766Y-86559398D01*
X136498458Y-86564382D01*
X136525199Y-86578263D01*
X136528031Y-86580202D01*
X136528035Y-86580206D01*
X136630809Y-86625585D01*
X136655935Y-86628500D01*
X138545664Y-86628499D01*
X138545679Y-86628497D01*
X138545682Y-86628497D01*
X138570787Y-86625586D01*
X138570788Y-86625585D01*
X138570791Y-86625585D01*
X138673565Y-86580206D01*
X138753006Y-86500765D01*
X138798385Y-86397991D01*
X138801300Y-86372865D01*
X138801299Y-86083136D01*
X138801297Y-86083117D01*
X138798386Y-86058012D01*
X138798385Y-86058011D01*
X138798385Y-86058009D01*
X138753006Y-85955235D01*
X138753004Y-85955233D01*
X138749849Y-85948087D01*
X138740777Y-85878808D01*
X138749849Y-85847913D01*
X138753004Y-85840766D01*
X138753006Y-85840765D01*
X138798385Y-85737991D01*
X138801300Y-85712865D01*
X138801299Y-85429499D01*
X138820983Y-85362461D01*
X138873787Y-85316706D01*
X138925299Y-85305500D01*
X139069435Y-85305500D01*
X139069436Y-85305500D01*
X139117186Y-85292705D01*
X139164938Y-85279910D01*
X139239065Y-85237112D01*
X139293299Y-85222580D01*
X139293182Y-85221762D01*
X139300027Y-85220777D01*
X139301064Y-85220500D01*
X139301959Y-85220500D01*
X139301961Y-85220500D01*
X139301962Y-85220499D01*
X139303670Y-85220254D01*
X139305381Y-85220500D01*
X139310830Y-85220500D01*
X139310830Y-85221283D01*
X139372829Y-85230197D01*
X139425633Y-85275952D01*
X139445318Y-85342991D01*
X139425634Y-85410031D01*
X139409000Y-85430673D01*
X139339534Y-85500138D01*
X139296681Y-85574361D01*
X139296681Y-85574362D01*
X139291726Y-85592851D01*
X139291727Y-85592852D01*
X139274500Y-85657145D01*
X139274500Y-85657147D01*
X139274500Y-87157147D01*
X139274500Y-87242853D01*
X139281372Y-87268499D01*
X139296682Y-87325640D01*
X139318108Y-87362750D01*
X139339535Y-87399862D01*
X139339537Y-87399864D01*
X139630921Y-87691248D01*
X139664406Y-87752571D01*
X139659422Y-87822263D01*
X139617550Y-87878196D01*
X139584201Y-87895968D01*
X139582052Y-87896720D01*
X139579517Y-87897607D01*
X139470250Y-87978250D01*
X139389607Y-88087517D01*
X139389606Y-88087519D01*
X139344753Y-88215698D01*
X139344753Y-88215700D01*
X139341900Y-88246130D01*
X139341900Y-89304669D01*
X139344753Y-89335099D01*
X139344753Y-89335101D01*
X139388906Y-89461280D01*
X139389607Y-89463282D01*
X139470250Y-89572550D01*
X139579518Y-89653193D01*
X139622245Y-89668144D01*
X139707699Y-89698046D01*
X139738130Y-89700900D01*
X139738134Y-89700900D01*
X140346670Y-89700900D01*
X140377099Y-89698046D01*
X140377101Y-89698046D01*
X140444790Y-89674360D01*
X140505282Y-89653193D01*
X140614550Y-89572550D01*
X140695193Y-89463282D01*
X140719919Y-89392620D01*
X140740046Y-89335101D01*
X140740046Y-89335099D01*
X140742900Y-89304669D01*
X140742900Y-89224900D01*
X140762585Y-89157861D01*
X140815389Y-89112106D01*
X140866900Y-89100900D01*
X140912200Y-89100900D01*
X140979239Y-89120585D01*
X141024994Y-89173389D01*
X141036200Y-89224900D01*
X141036200Y-89228869D01*
X141039053Y-89259299D01*
X141039053Y-89259301D01*
X141070570Y-89349368D01*
X141083907Y-89387482D01*
X141164550Y-89496750D01*
X141273818Y-89577393D01*
X141316545Y-89592344D01*
X141401999Y-89622246D01*
X141432430Y-89625100D01*
X141432434Y-89625100D01*
X142065970Y-89625100D01*
X142096399Y-89622246D01*
X142096401Y-89622246D01*
X142169591Y-89596635D01*
X142224582Y-89577393D01*
X142239022Y-89566735D01*
X142304649Y-89542765D01*
X142372820Y-89558080D01*
X142421888Y-89607820D01*
X142430989Y-89629451D01*
X142440287Y-89659144D01*
X142440290Y-89659151D01*
X142473768Y-89720461D01*
X142473773Y-89720469D01*
X142517349Y-89778680D01*
X142517365Y-89778698D01*
X142626594Y-89887926D01*
X142733015Y-89994347D01*
X142753365Y-90012626D01*
X142753371Y-90012631D01*
X142753379Y-90012638D01*
X142774000Y-90029255D01*
X142774002Y-90029256D01*
X142774007Y-90029260D01*
X142862338Y-90075465D01*
X142929377Y-90095150D01*
X142929381Y-90095150D01*
X142929383Y-90095151D01*
X142941014Y-90096823D01*
X143001362Y-90105500D01*
X143001363Y-90105500D01*
X144748639Y-90105500D01*
X144750075Y-90105422D01*
X144775952Y-90104036D01*
X144802310Y-90101202D01*
X144897444Y-90071413D01*
X144958767Y-90037928D01*
X145016985Y-89994347D01*
X145769512Y-89241818D01*
X145830835Y-89208334D01*
X145857193Y-89205500D01*
X147178411Y-89205500D01*
X147245450Y-89225185D01*
X147291205Y-89277989D01*
X147301149Y-89347147D01*
X147272124Y-89410703D01*
X147218005Y-89447008D01*
X146923097Y-89546375D01*
X146923094Y-89546376D01*
X146923086Y-89546379D01*
X146588446Y-89701200D01*
X146588442Y-89701202D01*
X146412165Y-89807265D01*
X146272481Y-89891310D01*
X146188041Y-89955500D01*
X145978930Y-90114461D01*
X145978930Y-90114462D01*
X145711226Y-90368044D01*
X145472509Y-90649083D01*
X145265579Y-90954282D01*
X145265573Y-90954291D01*
X145092861Y-91280061D01*
X145092855Y-91280073D01*
X144956370Y-91622628D01*
X144956368Y-91622634D01*
X144857728Y-91977905D01*
X144857722Y-91977931D01*
X144798070Y-92341786D01*
X144798069Y-92341803D01*
X144778134Y-92709491D01*
X144778106Y-92710000D01*
X144792508Y-92975640D01*
X144798069Y-93078196D01*
X144798070Y-93078213D01*
X144857722Y-93442068D01*
X144857728Y-93442094D01*
X144956368Y-93797365D01*
X144956370Y-93797371D01*
X144956372Y-93797377D01*
X144956373Y-93797379D01*
X144973224Y-93839672D01*
X145092855Y-94139926D01*
X145092861Y-94139938D01*
X145265573Y-94465708D01*
X145265576Y-94465713D01*
X145265578Y-94465716D01*
X145293407Y-94506760D01*
X145472509Y-94770916D01*
X145666884Y-94999751D01*
X145711227Y-95051956D01*
X145978930Y-95305538D01*
X146272481Y-95528690D01*
X146588438Y-95718795D01*
X146588440Y-95718796D01*
X146588442Y-95718797D01*
X146588446Y-95718799D01*
X146923086Y-95873621D01*
X146923090Y-95873622D01*
X146923091Y-95873622D01*
X146923097Y-95873625D01*
X147189149Y-95963268D01*
X147246394Y-96003328D01*
X147272894Y-96067977D01*
X147260234Y-96136691D01*
X147212435Y-96187652D01*
X147203358Y-96192497D01*
X146957627Y-96310835D01*
X146697956Y-96473998D01*
X146697952Y-96474000D01*
X146697949Y-96474003D01*
X146596763Y-96554695D01*
X146458173Y-96665216D01*
X146241316Y-96882073D01*
X146175052Y-96965167D01*
X146050103Y-97121849D01*
X146050100Y-97121852D01*
X146050098Y-97121856D01*
X145886935Y-97381527D01*
X145753873Y-97657833D01*
X145652584Y-97947298D01*
X145652580Y-97947310D01*
X145584338Y-98246300D01*
X145584336Y-98246316D01*
X145550000Y-98551053D01*
X145550000Y-98700333D01*
X145549735Y-98708443D01*
X145532313Y-98974252D01*
X145530195Y-98990333D01*
X145479025Y-99247581D01*
X145474827Y-99263249D01*
X145390513Y-99511628D01*
X145384306Y-99526613D01*
X145268295Y-99761860D01*
X145260185Y-99775907D01*
X145114461Y-99993999D01*
X145104587Y-100006867D01*
X144931642Y-100204073D01*
X144920173Y-100215542D01*
X144722967Y-100388487D01*
X144710099Y-100398361D01*
X144492007Y-100544085D01*
X144477960Y-100552195D01*
X144242713Y-100668206D01*
X144227728Y-100674413D01*
X143979349Y-100758727D01*
X143963681Y-100762925D01*
X143706433Y-100814095D01*
X143690352Y-100816213D01*
X143424543Y-100833635D01*
X143416433Y-100833900D01*
X135376794Y-100833900D01*
X135309755Y-100814215D01*
X135264000Y-100761411D01*
X135254056Y-100692253D01*
X135283081Y-100628697D01*
X135289113Y-100622219D01*
X136769512Y-99141819D01*
X136830835Y-99108334D01*
X136857193Y-99105500D01*
X143398639Y-99105500D01*
X143400075Y-99105422D01*
X143425952Y-99104036D01*
X143452310Y-99101202D01*
X143547444Y-99071413D01*
X143608767Y-99037928D01*
X143666985Y-98994347D01*
X144594347Y-98066985D01*
X144612626Y-98046635D01*
X144629260Y-98025993D01*
X144675465Y-97937662D01*
X144695150Y-97870623D01*
X144705500Y-97798638D01*
X144705500Y-94001362D01*
X144704036Y-93974048D01*
X144701202Y-93947690D01*
X144671413Y-93852556D01*
X144670946Y-93851701D01*
X144637931Y-93791238D01*
X144637926Y-93791230D01*
X144594350Y-93733019D01*
X144594349Y-93733018D01*
X144594347Y-93733015D01*
X144594342Y-93733010D01*
X144594334Y-93733001D01*
X144166998Y-93305666D01*
X144166997Y-93305665D01*
X144166985Y-93305653D01*
X144146635Y-93287374D01*
X144146629Y-93287369D01*
X144146620Y-93287361D01*
X144125999Y-93270744D01*
X144125996Y-93270742D01*
X144125993Y-93270740D01*
X144037662Y-93224535D01*
X144011429Y-93216832D01*
X143970624Y-93204850D01*
X143970616Y-93204848D01*
X143898639Y-93194500D01*
X143898638Y-93194500D01*
X142651362Y-93194500D01*
X142651361Y-93194500D01*
X142624065Y-93195963D01*
X142624060Y-93195963D01*
X142624048Y-93195964D01*
X142624040Y-93195964D01*
X142624011Y-93195967D01*
X142597689Y-93198797D01*
X142597687Y-93198798D01*
X142502558Y-93228586D01*
X142502548Y-93228590D01*
X142441238Y-93262068D01*
X142441230Y-93262073D01*
X142383019Y-93305649D01*
X142383001Y-93305665D01*
X139180487Y-96508181D01*
X139119164Y-96541666D01*
X139092806Y-96544500D01*
X137229500Y-96544500D01*
X137162461Y-96524815D01*
X137116706Y-96472011D01*
X137105500Y-96420500D01*
X137105500Y-93101360D01*
X137104494Y-93082600D01*
X137104036Y-93074048D01*
X137101436Y-93049862D01*
X137101202Y-93047689D01*
X137101201Y-93047687D01*
X137096004Y-93031089D01*
X137071413Y-92952556D01*
X137067931Y-92946180D01*
X137037931Y-92891238D01*
X137037926Y-92891230D01*
X136994350Y-92833019D01*
X136994349Y-92833018D01*
X136994347Y-92833015D01*
X136994342Y-92833010D01*
X136994334Y-92833001D01*
X135116998Y-90955666D01*
X135116997Y-90955665D01*
X135116985Y-90955653D01*
X135096635Y-90937374D01*
X135096629Y-90937369D01*
X135096620Y-90937361D01*
X135075999Y-90920744D01*
X135075996Y-90920742D01*
X135075993Y-90920740D01*
X134987662Y-90874535D01*
X134977030Y-90871413D01*
X134920624Y-90854850D01*
X134920616Y-90854848D01*
X134848639Y-90844500D01*
X134848638Y-90844500D01*
X133701362Y-90844500D01*
X133701361Y-90844500D01*
X133674065Y-90845963D01*
X133674060Y-90845963D01*
X133674048Y-90845964D01*
X133674040Y-90845964D01*
X133674011Y-90845967D01*
X133647689Y-90848797D01*
X133647687Y-90848798D01*
X133552558Y-90878586D01*
X133552548Y-90878590D01*
X133491238Y-90912068D01*
X133491230Y-90912073D01*
X133433019Y-90955649D01*
X133433001Y-90955665D01*
X133105666Y-91283001D01*
X133105638Y-91283031D01*
X133087370Y-91303369D01*
X133077537Y-91315571D01*
X133020143Y-91355417D01*
X132950317Y-91357908D01*
X132907357Y-91337532D01*
X132812882Y-91267807D01*
X132812880Y-91267806D01*
X132684700Y-91222953D01*
X132654270Y-91220100D01*
X132654266Y-91220100D01*
X132045734Y-91220100D01*
X132045730Y-91220100D01*
X132015300Y-91222953D01*
X132015298Y-91222953D01*
X131887119Y-91267806D01*
X131887117Y-91267807D01*
X131777850Y-91348450D01*
X131697207Y-91457717D01*
X131697206Y-91457719D01*
X131652353Y-91585898D01*
X131652353Y-91585900D01*
X131649500Y-91616330D01*
X131649500Y-92674869D01*
X131652353Y-92705299D01*
X131652353Y-92705301D01*
X131697045Y-92833019D01*
X131697207Y-92833482D01*
X131777850Y-92942750D01*
X131861110Y-93004198D01*
X131887118Y-93023393D01*
X131887121Y-93023394D01*
X131891452Y-93024910D01*
X131948229Y-93065630D01*
X131973978Y-93130582D01*
X131974500Y-93141952D01*
X131974500Y-93366000D01*
X131954815Y-93433039D01*
X131902011Y-93478794D01*
X131850500Y-93490000D01*
X131834539Y-93490000D01*
X131766408Y-93499926D01*
X131661314Y-93551303D01*
X131578603Y-93634014D01*
X131527226Y-93739108D01*
X131517300Y-93807239D01*
X131517300Y-94173760D01*
X131527226Y-94241891D01*
X131544014Y-94276231D01*
X131555773Y-94345104D01*
X131528429Y-94409401D01*
X131520294Y-94418372D01*
X131512680Y-94425986D01*
X131451357Y-94459471D01*
X131381665Y-94454487D01*
X131337318Y-94425986D01*
X131266998Y-94355666D01*
X131266997Y-94355665D01*
X131266985Y-94355653D01*
X131246635Y-94337374D01*
X131246629Y-94337369D01*
X131246620Y-94337361D01*
X131225999Y-94320744D01*
X131225996Y-94320742D01*
X131225993Y-94320740D01*
X131137662Y-94274535D01*
X131137659Y-94274534D01*
X131070624Y-94254850D01*
X131066293Y-94253908D01*
X131066745Y-94251826D01*
X131011071Y-94226381D01*
X130973313Y-94167592D01*
X130968300Y-94132691D01*
X130968300Y-93807239D01*
X130958373Y-93739108D01*
X130958373Y-93739107D01*
X130906998Y-93634017D01*
X130906996Y-93634015D01*
X130906996Y-93634014D01*
X130824285Y-93551303D01*
X130719191Y-93499926D01*
X130651061Y-93490000D01*
X130651060Y-93490000D01*
X129559540Y-93490000D01*
X129559539Y-93490000D01*
X129491408Y-93499926D01*
X129386314Y-93551303D01*
X129358937Y-93578681D01*
X129297614Y-93612166D01*
X129271256Y-93615000D01*
X129063092Y-93615000D01*
X128996053Y-93595315D01*
X128910055Y-93540047D01*
X128910050Y-93540045D01*
X128771963Y-93499500D01*
X128771961Y-93499500D01*
X128628039Y-93499500D01*
X128628036Y-93499500D01*
X128489949Y-93540045D01*
X128368873Y-93617856D01*
X128274623Y-93726626D01*
X128274622Y-93726628D01*
X128214834Y-93857543D01*
X128198084Y-93974048D01*
X128194353Y-94000000D01*
X128201134Y-94047160D01*
X128209141Y-94102853D01*
X128199197Y-94172012D01*
X128153442Y-94224816D01*
X128086403Y-94244500D01*
X127151361Y-94244500D01*
X127124065Y-94245963D01*
X127124060Y-94245963D01*
X127124048Y-94245964D01*
X127124040Y-94245964D01*
X127124011Y-94245967D01*
X127097689Y-94248797D01*
X127097687Y-94248798D01*
X127002558Y-94278586D01*
X127002548Y-94278590D01*
X126941238Y-94312068D01*
X126941230Y-94312073D01*
X126883019Y-94355649D01*
X126883001Y-94355665D01*
X126655667Y-94583000D01*
X126655638Y-94583031D01*
X126637361Y-94603379D01*
X126620744Y-94624000D01*
X126620740Y-94624005D01*
X126620740Y-94624007D01*
X126605657Y-94652841D01*
X126574534Y-94712340D01*
X126554850Y-94779375D01*
X126554848Y-94779383D01*
X126544500Y-94851360D01*
X126544500Y-97672984D01*
X126524815Y-97740023D01*
X126472011Y-97785778D01*
X126402853Y-97795722D01*
X126339297Y-97766697D01*
X126303459Y-97713939D01*
X126289128Y-97672984D01*
X126283828Y-97657837D01*
X126150763Y-97381525D01*
X125987597Y-97121849D01*
X125796384Y-96882074D01*
X125579526Y-96665216D01*
X125339751Y-96474003D01*
X125254798Y-96420623D01*
X125080072Y-96310835D01*
X124803766Y-96177773D01*
X124514301Y-96076484D01*
X124514289Y-96076480D01*
X124215299Y-96008238D01*
X124215283Y-96008236D01*
X123910546Y-95973900D01*
X123910542Y-95973900D01*
X123796762Y-95973900D01*
X109967720Y-95973900D01*
X109900681Y-95954215D01*
X109854926Y-95901411D01*
X109844982Y-95832253D01*
X109866879Y-95781962D01*
X109864985Y-95780721D01*
X109868325Y-95775622D01*
X109868327Y-95775620D01*
X109905490Y-95704575D01*
X109925175Y-95637536D01*
X109933500Y-95579638D01*
X109933500Y-94285362D01*
X109932322Y-94263393D01*
X109931403Y-94254850D01*
X109929488Y-94237034D01*
X109929487Y-94237032D01*
X109925662Y-94224816D01*
X109905529Y-94160518D01*
X109872044Y-94099195D01*
X109872039Y-94099188D01*
X109837001Y-94052384D01*
X109836998Y-94052381D01*
X109836991Y-94052371D01*
X109748262Y-93963642D01*
X109655634Y-93871013D01*
X109655633Y-93871012D01*
X109639283Y-93856325D01*
X109639269Y-93856313D01*
X109618620Y-93839672D01*
X109547575Y-93802509D01*
X109480543Y-93782826D01*
X109479894Y-93782732D01*
X109422638Y-93774500D01*
X109422634Y-93774500D01*
X109120017Y-93774500D01*
X109052978Y-93754815D01*
X109020247Y-93724133D01*
X108939151Y-93614251D01*
X108939148Y-93614249D01*
X108829882Y-93533607D01*
X108829880Y-93533606D01*
X108701700Y-93488753D01*
X108671270Y-93485900D01*
X108671266Y-93485900D01*
X108037734Y-93485900D01*
X108037730Y-93485900D01*
X108007300Y-93488753D01*
X108007298Y-93488753D01*
X107879119Y-93533606D01*
X107879117Y-93533607D01*
X107769848Y-93614251D01*
X107688753Y-93724133D01*
X107633106Y-93766384D01*
X107588983Y-93774500D01*
X107366492Y-93774500D01*
X107322822Y-93779196D01*
X107319842Y-93779679D01*
X107250517Y-93770966D01*
X107200245Y-93730907D01*
X107194793Y-93723519D01*
X107194793Y-93723518D01*
X107114150Y-93614250D01*
X107111326Y-93612166D01*
X107004882Y-93533607D01*
X107004880Y-93533606D01*
X106876700Y-93488753D01*
X106846270Y-93485900D01*
X106846266Y-93485900D01*
X106212734Y-93485900D01*
X106212730Y-93485900D01*
X106182300Y-93488753D01*
X106182298Y-93488753D01*
X106054119Y-93533606D01*
X106054117Y-93533607D01*
X105944850Y-93614250D01*
X105864207Y-93723517D01*
X105864206Y-93723519D01*
X105819353Y-93851698D01*
X105819353Y-93851700D01*
X105816500Y-93882130D01*
X105816500Y-94038500D01*
X105796815Y-94105539D01*
X105744011Y-94151294D01*
X105692500Y-94162500D01*
X105466569Y-94162500D01*
X105399530Y-94142815D01*
X105365648Y-94110549D01*
X105364199Y-94108520D01*
X105364198Y-94108517D01*
X105364195Y-94108514D01*
X105364193Y-94108511D01*
X105333363Y-94077681D01*
X105299878Y-94016358D01*
X105304862Y-93946666D01*
X105333363Y-93902319D01*
X105364196Y-93871485D01*
X105364198Y-93871483D01*
X105415573Y-93766393D01*
X105425500Y-93698260D01*
X105425500Y-93331740D01*
X105415868Y-93265632D01*
X105425681Y-93196456D01*
X105471336Y-93143566D01*
X105538338Y-93123755D01*
X105586022Y-93133193D01*
X105608838Y-93142644D01*
X105687219Y-93152963D01*
X105765599Y-93163282D01*
X105765600Y-93163282D01*
X105765601Y-93163282D01*
X105817854Y-93156402D01*
X105922362Y-93142644D01*
X106068441Y-93082136D01*
X106193882Y-92985882D01*
X106290136Y-92860441D01*
X106350644Y-92714362D01*
X106371282Y-92557600D01*
X106350644Y-92400838D01*
X106290136Y-92254759D01*
X106254333Y-92208100D01*
X112006900Y-92208100D01*
X112981900Y-92208100D01*
X112981900Y-91458100D01*
X113481900Y-91458100D01*
X113481900Y-92208100D01*
X114456899Y-92208100D01*
X114456899Y-92158128D01*
X114456898Y-92158113D01*
X114446405Y-92055402D01*
X114391258Y-91888980D01*
X114391256Y-91888975D01*
X114299215Y-91739754D01*
X114175245Y-91615784D01*
X114026024Y-91523743D01*
X114026019Y-91523741D01*
X113859597Y-91468594D01*
X113859590Y-91468593D01*
X113756886Y-91458100D01*
X113481900Y-91458100D01*
X112981900Y-91458100D01*
X112706929Y-91458100D01*
X112706912Y-91458101D01*
X112604202Y-91468594D01*
X112437780Y-91523741D01*
X112437775Y-91523743D01*
X112288554Y-91615784D01*
X112164584Y-91739754D01*
X112072543Y-91888975D01*
X112072541Y-91888980D01*
X112017394Y-92055402D01*
X112017393Y-92055409D01*
X112006900Y-92158113D01*
X112006900Y-92208100D01*
X106254333Y-92208100D01*
X106193882Y-92129318D01*
X106068441Y-92033064D01*
X106034253Y-92018903D01*
X105922362Y-91972556D01*
X105922360Y-91972555D01*
X105765601Y-91951918D01*
X105765599Y-91951918D01*
X105608839Y-91972555D01*
X105608837Y-91972556D01*
X105462757Y-92033064D01*
X105379326Y-92097083D01*
X105314156Y-92122277D01*
X105249380Y-92110108D01*
X105176391Y-92074426D01*
X105108261Y-92064500D01*
X105108260Y-92064500D01*
X104270188Y-92064500D01*
X104203149Y-92044815D01*
X104157394Y-91992011D01*
X104147450Y-91922853D01*
X104176475Y-91859297D01*
X104182507Y-91852819D01*
X104300970Y-91734356D01*
X104647965Y-91387362D01*
X104690818Y-91313139D01*
X104690818Y-91313136D01*
X104693926Y-91305635D01*
X104696260Y-91306601D01*
X104726038Y-91257747D01*
X104788884Y-91227217D01*
X104809449Y-91225500D01*
X105008261Y-91225500D01*
X105045322Y-91220100D01*
X105076393Y-91215573D01*
X105181483Y-91164198D01*
X105264198Y-91081483D01*
X105315573Y-90976393D01*
X105325500Y-90908260D01*
X105325500Y-90541740D01*
X105315573Y-90473607D01*
X105264198Y-90368517D01*
X105264196Y-90368515D01*
X105264196Y-90368514D01*
X105181485Y-90285803D01*
X105076391Y-90234426D01*
X105008261Y-90224500D01*
X105008260Y-90224500D01*
X104073319Y-90224500D01*
X104006280Y-90204815D01*
X103960525Y-90152011D01*
X103950581Y-90082855D01*
X103953600Y-90061855D01*
X103982624Y-89998299D01*
X104041401Y-89960523D01*
X104076338Y-89955500D01*
X107498639Y-89955500D01*
X107500075Y-89955422D01*
X107525952Y-89954036D01*
X107552310Y-89951202D01*
X107647444Y-89921413D01*
X107708767Y-89887928D01*
X107766985Y-89844347D01*
X108198347Y-89412985D01*
X108216626Y-89392635D01*
X108233260Y-89371993D01*
X108279465Y-89283662D01*
X108299150Y-89216623D01*
X108309500Y-89144638D01*
X108309500Y-87797362D01*
X108308036Y-87770048D01*
X108305202Y-87743690D01*
X108275413Y-87648556D01*
X108248899Y-87600000D01*
X108241931Y-87587238D01*
X108241926Y-87587230D01*
X108198350Y-87529019D01*
X108198349Y-87529018D01*
X108198347Y-87529015D01*
X108198342Y-87529010D01*
X108198334Y-87529001D01*
X108142047Y-87472714D01*
X108108562Y-87411391D01*
X108113546Y-87341699D01*
X108155418Y-87285766D01*
X108158605Y-87283457D01*
X108162724Y-87280572D01*
X108162734Y-87280568D01*
X108349139Y-87150047D01*
X108510047Y-86989139D01*
X108640568Y-86802734D01*
X108736739Y-86596496D01*
X108795635Y-86376692D01*
X108815468Y-86150000D01*
X108811093Y-86099999D01*
X108806205Y-86044124D01*
X108795635Y-85923308D01*
X108745847Y-85737495D01*
X108736741Y-85703511D01*
X108736738Y-85703502D01*
X108710767Y-85647808D01*
X108640568Y-85497266D01*
X108525559Y-85333015D01*
X108510045Y-85310858D01*
X108349141Y-85149954D01*
X108162734Y-85019432D01*
X108162732Y-85019431D01*
X107956497Y-84923261D01*
X107956488Y-84923258D01*
X107736697Y-84864366D01*
X107736693Y-84864365D01*
X107736692Y-84864365D01*
X107736691Y-84864364D01*
X107736686Y-84864364D01*
X107510002Y-84844532D01*
X107509998Y-84844532D01*
X107283313Y-84864364D01*
X107283302Y-84864366D01*
X107063511Y-84923258D01*
X107063502Y-84923261D01*
X106857267Y-85019431D01*
X106857265Y-85019432D01*
X106670858Y-85149954D01*
X106509954Y-85310858D01*
X106379430Y-85497268D01*
X106320379Y-85623905D01*
X106274207Y-85676344D01*
X106207997Y-85695500D01*
X105589622Y-85695500D01*
X105522583Y-85675815D01*
X105501941Y-85659181D01*
X104390819Y-84548059D01*
X104357334Y-84486736D01*
X104354500Y-84460378D01*
X104354500Y-83833870D01*
X104367099Y-83779410D01*
X104368535Y-83776473D01*
X104390573Y-83731393D01*
X104400500Y-83663260D01*
X104400500Y-82960000D01*
X116120000Y-82960000D01*
X116120000Y-83475649D01*
X116122899Y-83512489D01*
X116122900Y-83512495D01*
X116168716Y-83670193D01*
X116168717Y-83670196D01*
X116252314Y-83811552D01*
X116252321Y-83811561D01*
X116368438Y-83927678D01*
X116368447Y-83927685D01*
X116509801Y-84011281D01*
X116667514Y-84057100D01*
X116667511Y-84057100D01*
X116669998Y-84057295D01*
X116670000Y-84057295D01*
X116670000Y-82960000D01*
X116120000Y-82960000D01*
X104400500Y-82960000D01*
X104400500Y-82460000D01*
X116120000Y-82460000D01*
X116670000Y-82460000D01*
X116670000Y-81362703D01*
X116667503Y-81362900D01*
X116509806Y-81408716D01*
X116509803Y-81408717D01*
X116368447Y-81492314D01*
X116368438Y-81492321D01*
X116252321Y-81608438D01*
X116252314Y-81608447D01*
X116168717Y-81749803D01*
X116168716Y-81749806D01*
X116122900Y-81907504D01*
X116122899Y-81907510D01*
X116120000Y-81944350D01*
X116120000Y-82460000D01*
X104400500Y-82460000D01*
X104400500Y-82196740D01*
X104390573Y-82128607D01*
X104339198Y-82023517D01*
X104339196Y-82023515D01*
X104339196Y-82023514D01*
X104256485Y-81940803D01*
X104151391Y-81889426D01*
X104083261Y-81879500D01*
X104083260Y-81879500D01*
X103716740Y-81879500D01*
X103716739Y-81879500D01*
X103648607Y-81889426D01*
X103648602Y-81889428D01*
X103648181Y-81889634D01*
X103647634Y-81889727D01*
X103639405Y-81892270D01*
X103639070Y-81891188D01*
X103579307Y-81901386D01*
X103515013Y-81874037D01*
X103475711Y-81816269D01*
X103475398Y-81815281D01*
X103471414Y-81802560D01*
X103471413Y-81802556D01*
X103470128Y-81800203D01*
X103437931Y-81741238D01*
X103437926Y-81741230D01*
X103394350Y-81683019D01*
X103394349Y-81683018D01*
X103394347Y-81683015D01*
X103316985Y-81605653D01*
X103296635Y-81587374D01*
X103296629Y-81587369D01*
X103296620Y-81587361D01*
X103275999Y-81570744D01*
X103275996Y-81570742D01*
X103275993Y-81570740D01*
X103187662Y-81524535D01*
X103187659Y-81524534D01*
X103120624Y-81504850D01*
X103120616Y-81504848D01*
X103048639Y-81494500D01*
X103048638Y-81494500D01*
X102351362Y-81494500D01*
X102351361Y-81494500D01*
X102324065Y-81495963D01*
X102324060Y-81495963D01*
X102324048Y-81495964D01*
X102324040Y-81495964D01*
X102324011Y-81495967D01*
X102297689Y-81498797D01*
X102297687Y-81498798D01*
X102202558Y-81528586D01*
X102202548Y-81528590D01*
X102141238Y-81562068D01*
X102141230Y-81562073D01*
X102083019Y-81605649D01*
X102083009Y-81605658D01*
X101955648Y-81733020D01*
X101955638Y-81733031D01*
X101937361Y-81753379D01*
X101920741Y-81774003D01*
X101920740Y-81774004D01*
X101873738Y-81863860D01*
X101825222Y-81914139D01*
X101757225Y-81930207D01*
X101709403Y-81917786D01*
X101651391Y-81889426D01*
X101583261Y-81879500D01*
X101583260Y-81879500D01*
X101216740Y-81879500D01*
X101216739Y-81879500D01*
X101148608Y-81889426D01*
X101043514Y-81940803D01*
X100960803Y-82023514D01*
X100909426Y-82128608D01*
X100899500Y-82196739D01*
X100899500Y-83663260D01*
X100909426Y-83731391D01*
X100960803Y-83836485D01*
X101043514Y-83919196D01*
X101043515Y-83919196D01*
X101043517Y-83919198D01*
X101148607Y-83970573D01*
X101159424Y-83972149D01*
X101216739Y-83980500D01*
X101216740Y-83980500D01*
X101583257Y-83980500D01*
X101583260Y-83980500D01*
X101593751Y-83978971D01*
X101662926Y-83988783D01*
X101715817Y-84034437D01*
X101735630Y-84101438D01*
X101716073Y-84168515D01*
X101699312Y-84189356D01*
X101530485Y-84358182D01*
X101469164Y-84391666D01*
X101442806Y-84394500D01*
X98801361Y-84394500D01*
X98774065Y-84395963D01*
X98774060Y-84395963D01*
X98774048Y-84395964D01*
X98774040Y-84395964D01*
X98774011Y-84395967D01*
X98747689Y-84398797D01*
X98747687Y-84398798D01*
X98652558Y-84428586D01*
X98652548Y-84428590D01*
X98591238Y-84462068D01*
X98591230Y-84462073D01*
X98533019Y-84505649D01*
X98533001Y-84505665D01*
X98255666Y-84783000D01*
X98255638Y-84783031D01*
X98237361Y-84803379D01*
X98220744Y-84824000D01*
X98220740Y-84824005D01*
X98220740Y-84824007D01*
X98179656Y-84902548D01*
X98174534Y-84912340D01*
X98154850Y-84979375D01*
X98154848Y-84979383D01*
X98144500Y-85051360D01*
X98144500Y-87648639D01*
X98145963Y-87675934D01*
X98145967Y-87675988D01*
X98148797Y-87702308D01*
X98150877Y-87708950D01*
X98152122Y-87778809D01*
X98115401Y-87838251D01*
X98052373Y-87868404D01*
X98032541Y-87870000D01*
X97814184Y-87870000D01*
X97712326Y-87880407D01*
X97547290Y-87935094D01*
X97547285Y-87935096D01*
X97399308Y-88026370D01*
X97276370Y-88149308D01*
X97185096Y-88297285D01*
X97185094Y-88297290D01*
X97130407Y-88462326D01*
X97120000Y-88564184D01*
X97120000Y-88607500D01*
X98446000Y-88607500D01*
X98513039Y-88627185D01*
X98558794Y-88679989D01*
X98570000Y-88731500D01*
X98570000Y-88983500D01*
X98550315Y-89050539D01*
X98497511Y-89096294D01*
X98446000Y-89107500D01*
X97120000Y-89107500D01*
X97120000Y-89150815D01*
X97130407Y-89252673D01*
X97185094Y-89417709D01*
X97185096Y-89417714D01*
X97276370Y-89565691D01*
X97399308Y-89688629D01*
X97547285Y-89779903D01*
X97547290Y-89779905D01*
X97713867Y-89835103D01*
X97771312Y-89874875D01*
X97798135Y-89939391D01*
X97785820Y-90008167D01*
X97738277Y-90059367D01*
X97715819Y-90069850D01*
X97653819Y-90091545D01*
X97546069Y-90171069D01*
X97466545Y-90278819D01*
X97466544Y-90278821D01*
X97422315Y-90405218D01*
X97422313Y-90405230D01*
X97419500Y-90435231D01*
X97419500Y-91029768D01*
X97422313Y-91059769D01*
X97422315Y-91059781D01*
X97466544Y-91186178D01*
X97466545Y-91186180D01*
X97474432Y-91196866D01*
X97498403Y-91262495D01*
X97483088Y-91330665D01*
X97433348Y-91379734D01*
X97374662Y-91394500D01*
X79857194Y-91394500D01*
X79790155Y-91374815D01*
X79769513Y-91358181D01*
X79528513Y-91117181D01*
X79495028Y-91055858D01*
X79500012Y-90986166D01*
X79541884Y-90930233D01*
X79607348Y-90905816D01*
X79616194Y-90905500D01*
X82148639Y-90905500D01*
X82150075Y-90905422D01*
X82175952Y-90904036D01*
X82202310Y-90901202D01*
X82297444Y-90871413D01*
X82358767Y-90837928D01*
X82416985Y-90794347D01*
X82694347Y-90516985D01*
X82712626Y-90496635D01*
X82719688Y-90487871D01*
X82777079Y-90448023D01*
X82846904Y-90445527D01*
X82906994Y-90481178D01*
X82932423Y-90522343D01*
X82956645Y-90587286D01*
X82956649Y-90587293D01*
X83042809Y-90702387D01*
X83042812Y-90702390D01*
X83157906Y-90788550D01*
X83157913Y-90788554D01*
X83292620Y-90838796D01*
X83292627Y-90838798D01*
X83352155Y-90845199D01*
X83352172Y-90845200D01*
X83950000Y-90845200D01*
X83950000Y-88845200D01*
X84450000Y-88845200D01*
X84450000Y-90845200D01*
X85047828Y-90845200D01*
X85047844Y-90845199D01*
X85107372Y-90838798D01*
X85107379Y-90838796D01*
X85242086Y-90788554D01*
X85242093Y-90788550D01*
X85357187Y-90702390D01*
X85357190Y-90702387D01*
X85443350Y-90587293D01*
X85443354Y-90587286D01*
X85493596Y-90452579D01*
X85493598Y-90452572D01*
X85499999Y-90393044D01*
X85500000Y-90393027D01*
X85500000Y-89825000D01*
X89300001Y-89825000D01*
X89300001Y-89949986D01*
X89310494Y-90052697D01*
X89365641Y-90219119D01*
X89365643Y-90219124D01*
X89457684Y-90368345D01*
X89581654Y-90492315D01*
X89730875Y-90584356D01*
X89730880Y-90584358D01*
X89897302Y-90639505D01*
X89897309Y-90639506D01*
X90000019Y-90649999D01*
X90899999Y-90649999D01*
X90900000Y-90649998D01*
X90900000Y-89825000D01*
X91400000Y-89825000D01*
X91400000Y-90649999D01*
X92299972Y-90649999D01*
X92299986Y-90649998D01*
X92402697Y-90639505D01*
X92569119Y-90584358D01*
X92569124Y-90584356D01*
X92718345Y-90492315D01*
X92762319Y-90448342D01*
X92823642Y-90414857D01*
X92893334Y-90419841D01*
X92937681Y-90448342D01*
X92981654Y-90492315D01*
X93130875Y-90584356D01*
X93130880Y-90584358D01*
X93297302Y-90639505D01*
X93297309Y-90639506D01*
X93400019Y-90649999D01*
X94299999Y-90649999D01*
X94300000Y-90649998D01*
X94300000Y-89825000D01*
X94800000Y-89825000D01*
X94800000Y-90649999D01*
X95699972Y-90649999D01*
X95699986Y-90649998D01*
X95802697Y-90639505D01*
X95969119Y-90584358D01*
X95969124Y-90584356D01*
X96118345Y-90492315D01*
X96242315Y-90368345D01*
X96334356Y-90219124D01*
X96334358Y-90219119D01*
X96389505Y-90052697D01*
X96389506Y-90052690D01*
X96399999Y-89949986D01*
X96400000Y-89949973D01*
X96400000Y-89825000D01*
X94800000Y-89825000D01*
X94300000Y-89825000D01*
X91400000Y-89825000D01*
X90900000Y-89825000D01*
X89300001Y-89825000D01*
X85500000Y-89825000D01*
X85500000Y-89325000D01*
X89300000Y-89325000D01*
X90900000Y-89325000D01*
X90900000Y-88500000D01*
X91400000Y-88500000D01*
X91400000Y-89325000D01*
X94300000Y-89325000D01*
X94300000Y-88500000D01*
X94800000Y-88500000D01*
X94800000Y-89325000D01*
X96399999Y-89325000D01*
X96399999Y-89200028D01*
X96399998Y-89200013D01*
X96389505Y-89097302D01*
X96334358Y-88930880D01*
X96334356Y-88930875D01*
X96242315Y-88781654D01*
X96118345Y-88657684D01*
X95969124Y-88565643D01*
X95969119Y-88565641D01*
X95802697Y-88510494D01*
X95802690Y-88510493D01*
X95699986Y-88500000D01*
X94800000Y-88500000D01*
X94300000Y-88500000D01*
X93400028Y-88500000D01*
X93400012Y-88500001D01*
X93297302Y-88510494D01*
X93130880Y-88565641D01*
X93130875Y-88565643D01*
X92981654Y-88657684D01*
X92937681Y-88701658D01*
X92876358Y-88735143D01*
X92806666Y-88730159D01*
X92762319Y-88701658D01*
X92718345Y-88657684D01*
X92569124Y-88565643D01*
X92569119Y-88565641D01*
X92402697Y-88510494D01*
X92402690Y-88510493D01*
X92299986Y-88500000D01*
X91400000Y-88500000D01*
X90900000Y-88500000D01*
X90000028Y-88500000D01*
X90000012Y-88500001D01*
X89897302Y-88510494D01*
X89730880Y-88565641D01*
X89730875Y-88565643D01*
X89581654Y-88657684D01*
X89457684Y-88781654D01*
X89365643Y-88930875D01*
X89365641Y-88930880D01*
X89310494Y-89097302D01*
X89310493Y-89097309D01*
X89300000Y-89200013D01*
X89300000Y-89325000D01*
X85500000Y-89325000D01*
X85500000Y-88845200D01*
X84450000Y-88845200D01*
X83950000Y-88845200D01*
X83950000Y-86345200D01*
X84450000Y-86345200D01*
X84450000Y-88345200D01*
X85500000Y-88345200D01*
X85500000Y-86797372D01*
X85499999Y-86797355D01*
X85493598Y-86737827D01*
X85493596Y-86737820D01*
X85443354Y-86603113D01*
X85443350Y-86603106D01*
X85357190Y-86488012D01*
X85357187Y-86488009D01*
X85242093Y-86401849D01*
X85242086Y-86401845D01*
X85107379Y-86351603D01*
X85107372Y-86351601D01*
X85047844Y-86345200D01*
X84450000Y-86345200D01*
X83950000Y-86345200D01*
X83352155Y-86345200D01*
X83292627Y-86351601D01*
X83292620Y-86351603D01*
X83157913Y-86401845D01*
X83157906Y-86401849D01*
X83042812Y-86488009D01*
X83028766Y-86506773D01*
X82972832Y-86548643D01*
X82903141Y-86553627D01*
X82841818Y-86520141D01*
X82808333Y-86458818D01*
X82805500Y-86432461D01*
X82805500Y-85847888D01*
X82825185Y-85780849D01*
X82877989Y-85735094D01*
X82947147Y-85725150D01*
X83010703Y-85754175D01*
X83042292Y-85796374D01*
X83054623Y-85823373D01*
X83148872Y-85932143D01*
X83269947Y-86009953D01*
X83269950Y-86009954D01*
X83269949Y-86009954D01*
X83377107Y-86041417D01*
X83396626Y-86047149D01*
X83408036Y-86050499D01*
X83408038Y-86050500D01*
X83408039Y-86050500D01*
X83551962Y-86050500D01*
X83551962Y-86050499D01*
X83690053Y-86009953D01*
X83811128Y-85932143D01*
X83905377Y-85823373D01*
X83965165Y-85692457D01*
X83985647Y-85550000D01*
X83985646Y-85549999D01*
X83986909Y-85541222D01*
X83989873Y-85541648D01*
X84005332Y-85489003D01*
X84021965Y-85468361D01*
X84029665Y-85460662D01*
X84072518Y-85386438D01*
X84072517Y-85386438D01*
X84076582Y-85379399D01*
X84079717Y-85381209D01*
X84112924Y-85339698D01*
X84179138Y-85317395D01*
X84184010Y-85317299D01*
X84714056Y-85317299D01*
X84714064Y-85317299D01*
X84714079Y-85317297D01*
X84714082Y-85317297D01*
X84739187Y-85314386D01*
X84739188Y-85314385D01*
X84739191Y-85314385D01*
X84841965Y-85269006D01*
X84921406Y-85189565D01*
X84966785Y-85086791D01*
X84969700Y-85061665D01*
X84969699Y-84907906D01*
X84989383Y-84840868D01*
X85042187Y-84795113D01*
X85111345Y-84785169D01*
X85128634Y-84788930D01*
X85168038Y-84800500D01*
X85168039Y-84800500D01*
X85169164Y-84800500D01*
X85170751Y-84800890D01*
X85176816Y-84801762D01*
X85176730Y-84802359D01*
X85226640Y-84814625D01*
X85247363Y-84825465D01*
X85247364Y-84825466D01*
X85297492Y-84840184D01*
X85314402Y-84845150D01*
X85314406Y-84845150D01*
X85314408Y-84845151D01*
X85326039Y-84846823D01*
X85386387Y-84855500D01*
X85386388Y-84855500D01*
X92748639Y-84855500D01*
X92750075Y-84855422D01*
X92775952Y-84854036D01*
X92802310Y-84851202D01*
X92897444Y-84821413D01*
X92958767Y-84787928D01*
X93016985Y-84744347D01*
X94054347Y-83706985D01*
X94072626Y-83686635D01*
X94089260Y-83665993D01*
X94135465Y-83577662D01*
X94155150Y-83510623D01*
X94165500Y-83438638D01*
X94165500Y-82541362D01*
X94164036Y-82514048D01*
X94161202Y-82487690D01*
X94131413Y-82392556D01*
X94126205Y-82383019D01*
X94097931Y-82331238D01*
X94097926Y-82331230D01*
X94054350Y-82273019D01*
X94054349Y-82273018D01*
X94054347Y-82273015D01*
X94054342Y-82273010D01*
X94054334Y-82273001D01*
X93786999Y-82005666D01*
X93786968Y-82005638D01*
X93766635Y-81987374D01*
X93766629Y-81987369D01*
X93766620Y-81987361D01*
X93745999Y-81970744D01*
X93745996Y-81970742D01*
X93745993Y-81970740D01*
X93657662Y-81924535D01*
X93657659Y-81924534D01*
X93590624Y-81904850D01*
X93590616Y-81904848D01*
X93518639Y-81894500D01*
X93518638Y-81894500D01*
X89005952Y-81894500D01*
X88938913Y-81874815D01*
X88893158Y-81822011D01*
X88883214Y-81752853D01*
X88888248Y-81731492D01*
X88889504Y-81727701D01*
X88889506Y-81727690D01*
X88899999Y-81624986D01*
X88899999Y-80575028D01*
X88899998Y-80575010D01*
X88889506Y-80472304D01*
X88887450Y-80466101D01*
X88887449Y-80466101D01*
X87987680Y-81365871D01*
X87926357Y-81399356D01*
X87856665Y-81394372D01*
X87812318Y-81365871D01*
X86912549Y-80466102D01*
X86912547Y-80466102D01*
X86909904Y-80474081D01*
X86870132Y-80531526D01*
X86805616Y-80558349D01*
X86736840Y-80546034D01*
X86685640Y-80498491D01*
X86675160Y-80476039D01*
X86652793Y-80412118D01*
X86572150Y-80302850D01*
X86462882Y-80222207D01*
X86462880Y-80222206D01*
X86334700Y-80177353D01*
X86304270Y-80174500D01*
X86304266Y-80174500D01*
X85695734Y-80174500D01*
X85695730Y-80174500D01*
X85665300Y-80177353D01*
X85665298Y-80177353D01*
X85537119Y-80222206D01*
X85537117Y-80222207D01*
X85427850Y-80302850D01*
X85347207Y-80412117D01*
X85347206Y-80412119D01*
X85302353Y-80540298D01*
X85302353Y-80540300D01*
X85299500Y-80570730D01*
X85299500Y-81629269D01*
X85302353Y-81659699D01*
X85302353Y-81659701D01*
X85347206Y-81787880D01*
X85347207Y-81787882D01*
X85427850Y-81897150D01*
X85537118Y-81977793D01*
X85591456Y-81996806D01*
X85648231Y-82037527D01*
X85673978Y-82102480D01*
X85674500Y-82113847D01*
X85674500Y-82219900D01*
X85654815Y-82286939D01*
X85602011Y-82332694D01*
X85591456Y-82336941D01*
X85562118Y-82347207D01*
X85452848Y-82427851D01*
X85452847Y-82427852D01*
X85440191Y-82445000D01*
X85384542Y-82487249D01*
X85314886Y-82492705D01*
X85253338Y-82459635D01*
X85241018Y-82444450D01*
X85240582Y-82444778D01*
X85194350Y-82383019D01*
X85194349Y-82383018D01*
X85194347Y-82383015D01*
X85194342Y-82383010D01*
X85194334Y-82383001D01*
X84716998Y-81905666D01*
X84716994Y-81905662D01*
X84716985Y-81905653D01*
X84696635Y-81887374D01*
X84696629Y-81887369D01*
X84696620Y-81887361D01*
X84675999Y-81870744D01*
X84675996Y-81870742D01*
X84675993Y-81870740D01*
X84587662Y-81824535D01*
X84579540Y-81822150D01*
X84520624Y-81804850D01*
X84520616Y-81804848D01*
X84448639Y-81794500D01*
X84448638Y-81794500D01*
X84390604Y-81794500D01*
X84375868Y-81794944D01*
X84372161Y-81795000D01*
X84227839Y-81795000D01*
X84224131Y-81794944D01*
X84209396Y-81794500D01*
X84209383Y-81794500D01*
X83607743Y-81794500D01*
X83540704Y-81774815D01*
X83494949Y-81722011D01*
X83485005Y-81652853D01*
X83490702Y-81629544D01*
X83497646Y-81609698D01*
X83500500Y-81579269D01*
X83500500Y-80945730D01*
X83497646Y-80915300D01*
X83497646Y-80915298D01*
X83464006Y-80819163D01*
X83452793Y-80787118D01*
X83372150Y-80677850D01*
X83262882Y-80597207D01*
X83262880Y-80597206D01*
X83134700Y-80552353D01*
X83104270Y-80549500D01*
X83104266Y-80549500D01*
X82095734Y-80549500D01*
X82095730Y-80549500D01*
X82065300Y-80552353D01*
X82065298Y-80552353D01*
X81937119Y-80597206D01*
X81937117Y-80597207D01*
X81827850Y-80677850D01*
X81755063Y-80776474D01*
X81747207Y-80787118D01*
X81728193Y-80841456D01*
X81687473Y-80898231D01*
X81622520Y-80923978D01*
X81611153Y-80924500D01*
X81480247Y-80924500D01*
X81413208Y-80904815D01*
X81367453Y-80852011D01*
X81363212Y-80841471D01*
X81344193Y-80787118D01*
X81263550Y-80677850D01*
X81154282Y-80597207D01*
X81128336Y-80588128D01*
X81090367Y-80574842D01*
X81033592Y-80534120D01*
X81007845Y-80469167D01*
X81021302Y-80400605D01*
X81069689Y-80350203D01*
X81092299Y-80340102D01*
X81100297Y-80337450D01*
X81100297Y-80337449D01*
X80466401Y-79703553D01*
X80466400Y-79703553D01*
X79832501Y-80337449D01*
X79832501Y-80337450D01*
X79840495Y-80340100D01*
X79897935Y-80379880D01*
X79924750Y-80444399D01*
X79912426Y-80513173D01*
X79864877Y-80564367D01*
X79842432Y-80574842D01*
X79778517Y-80597207D01*
X79669250Y-80677850D01*
X79596463Y-80776474D01*
X79588607Y-80787118D01*
X79569593Y-80841456D01*
X79528873Y-80898231D01*
X79463920Y-80923978D01*
X79452553Y-80924500D01*
X79257147Y-80924500D01*
X79174359Y-80946682D01*
X79100138Y-80989535D01*
X79100135Y-80989537D01*
X78589537Y-81500135D01*
X78589535Y-81500138D01*
X78546682Y-81574359D01*
X78543195Y-81587374D01*
X78537214Y-81609698D01*
X78533508Y-81623528D01*
X78524500Y-81657144D01*
X78524500Y-83492854D01*
X78531347Y-83518408D01*
X78529683Y-83588258D01*
X78490520Y-83646120D01*
X78426291Y-83673623D01*
X78411572Y-83674500D01*
X78399500Y-83674500D01*
X78332461Y-83654815D01*
X78286706Y-83602011D01*
X78275500Y-83550500D01*
X78275500Y-83495730D01*
X78272646Y-83465300D01*
X78272646Y-83465298D01*
X78227793Y-83337119D01*
X78227792Y-83337117D01*
X78219029Y-83325243D01*
X78147150Y-83227850D01*
X78037882Y-83147207D01*
X78037880Y-83147206D01*
X77909700Y-83102353D01*
X77879270Y-83099500D01*
X77879266Y-83099500D01*
X77245734Y-83099500D01*
X77245730Y-83099500D01*
X77215300Y-83102353D01*
X77215298Y-83102353D01*
X77087119Y-83147206D01*
X77087117Y-83147207D01*
X76977850Y-83227850D01*
X76916776Y-83310602D01*
X76861128Y-83352853D01*
X76791472Y-83358311D01*
X76729923Y-83325243D01*
X76699300Y-83275972D01*
X76684358Y-83230880D01*
X76684356Y-83230875D01*
X76592315Y-83081654D01*
X76468345Y-82957684D01*
X76319124Y-82865643D01*
X76319119Y-82865641D01*
X76152697Y-82810494D01*
X76152690Y-82810493D01*
X76049986Y-82800000D01*
X75987500Y-82800000D01*
X75987500Y-84126000D01*
X75967815Y-84193039D01*
X75915011Y-84238794D01*
X75863500Y-84250000D01*
X74725001Y-84250000D01*
X74725001Y-84499986D01*
X74735494Y-84602697D01*
X74790641Y-84769119D01*
X74790643Y-84769124D01*
X74882684Y-84918345D01*
X75006654Y-85042315D01*
X75111875Y-85107216D01*
X75158599Y-85159164D01*
X75169822Y-85228127D01*
X75146548Y-85286388D01*
X75072209Y-85387113D01*
X75072206Y-85387119D01*
X75027353Y-85515298D01*
X75027353Y-85515300D01*
X75024500Y-85545730D01*
X75024500Y-85624701D01*
X75004815Y-85691740D01*
X74952011Y-85737495D01*
X74932611Y-85744471D01*
X74927957Y-85745718D01*
X74927303Y-85745894D01*
X74924362Y-85746682D01*
X74924361Y-85746682D01*
X74924359Y-85746683D01*
X74850144Y-85789530D01*
X74850136Y-85789536D01*
X73489537Y-87150135D01*
X73489535Y-87150138D01*
X73446682Y-87224359D01*
X73434855Y-87268497D01*
X73434855Y-87268500D01*
X73424500Y-87307147D01*
X73424500Y-92807147D01*
X73424500Y-92892853D01*
X73425691Y-92897298D01*
X73446682Y-92975640D01*
X73463171Y-93004198D01*
X73489535Y-93049862D01*
X73665930Y-93226257D01*
X73808181Y-93368507D01*
X73841666Y-93429830D01*
X73844500Y-93456188D01*
X73844500Y-96198639D01*
X73845963Y-96225934D01*
X73845967Y-96225988D01*
X73848797Y-96252310D01*
X73848798Y-96252312D01*
X73878586Y-96347441D01*
X73878590Y-96347451D01*
X73912068Y-96408761D01*
X73912073Y-96408769D01*
X73955649Y-96466980D01*
X73955665Y-96466998D01*
X74266887Y-96778219D01*
X74300372Y-96839542D01*
X74295388Y-96909233D01*
X74253517Y-96965167D01*
X74188052Y-96989584D01*
X74179206Y-96989900D01*
X72602957Y-96989900D01*
X72583561Y-96988373D01*
X72563544Y-96985202D01*
X72548476Y-96982816D01*
X72511582Y-96970828D01*
X72488733Y-96959186D01*
X72457346Y-96936382D01*
X72439217Y-96918253D01*
X72416413Y-96886866D01*
X72404771Y-96864017D01*
X72392784Y-96827126D01*
X72387229Y-96792059D01*
X72385704Y-96772620D01*
X72392224Y-83750000D01*
X74725000Y-83750000D01*
X75487500Y-83750000D01*
X75487500Y-82800000D01*
X75487499Y-82799999D01*
X75425028Y-82800000D01*
X75425011Y-82800001D01*
X75322302Y-82810494D01*
X75155880Y-82865641D01*
X75155875Y-82865643D01*
X75006654Y-82957684D01*
X74882684Y-83081654D01*
X74790643Y-83230875D01*
X74790641Y-83230880D01*
X74735494Y-83397302D01*
X74735493Y-83397309D01*
X74725000Y-83500013D01*
X74725000Y-83750000D01*
X72392224Y-83750000D01*
X72394070Y-80062095D01*
X72394100Y-80061749D01*
X72394100Y-80008466D01*
X72394365Y-80000356D01*
X72396874Y-79962072D01*
X72411787Y-79734533D01*
X72413902Y-79718479D01*
X72427529Y-79649971D01*
X79241400Y-79649971D01*
X79241401Y-79649987D01*
X79251894Y-79752697D01*
X79307041Y-79919119D01*
X79307043Y-79919124D01*
X79397335Y-80065510D01*
X80112847Y-79350000D01*
X79397335Y-78634488D01*
X79397334Y-78634488D01*
X79307045Y-78780871D01*
X79307041Y-78780880D01*
X79251894Y-78947302D01*
X79251893Y-78947309D01*
X79241400Y-79050013D01*
X79241400Y-79649971D01*
X72427529Y-79649971D01*
X72465078Y-79461202D01*
X72469267Y-79445565D01*
X72553590Y-79197159D01*
X72559787Y-79182198D01*
X72675807Y-78946933D01*
X72683910Y-78932898D01*
X72829646Y-78714788D01*
X72839503Y-78701942D01*
X73012462Y-78504720D01*
X73023920Y-78493262D01*
X73172970Y-78362549D01*
X79832502Y-78362549D01*
X80466400Y-78996447D01*
X80466401Y-78996447D01*
X81100297Y-78362549D01*
X81100296Y-78362548D01*
X81094095Y-78360493D01*
X81094096Y-78360493D01*
X80991380Y-78350000D01*
X79941428Y-78350000D01*
X79941412Y-78350001D01*
X79838706Y-78360493D01*
X79832502Y-78362549D01*
X73172970Y-78362549D01*
X73221142Y-78320303D01*
X73233988Y-78310446D01*
X73452098Y-78164710D01*
X73466133Y-78156607D01*
X73701398Y-78040587D01*
X73716359Y-78034390D01*
X73964765Y-77950067D01*
X73980402Y-77945878D01*
X74237679Y-77894702D01*
X74253735Y-77892587D01*
X74497484Y-77876611D01*
X74519558Y-77875165D01*
X74527667Y-77874900D01*
X74571195Y-77874900D01*
X85464070Y-77874900D01*
X85531109Y-77894585D01*
G37*
G04 #@! TD.AperFunction*
G04 #@! TA.AperFunction,Conductor*
G36*
X102821059Y-93221527D02*
G01*
X102862073Y-93228023D01*
X102909337Y-93231065D01*
X102909341Y-93231064D01*
X102909344Y-93231065D01*
X102955074Y-93229759D01*
X102955085Y-93229758D01*
X102955093Y-93229758D01*
X102975110Y-93228398D01*
X102992276Y-93223023D01*
X103062135Y-93221775D01*
X103121578Y-93258493D01*
X103143892Y-93293905D01*
X103146679Y-93300634D01*
X103149577Y-93305653D01*
X103189535Y-93374862D01*
X103189536Y-93374863D01*
X103189537Y-93374864D01*
X103525194Y-93710520D01*
X103525204Y-93710531D01*
X103590139Y-93775466D01*
X103604770Y-93783913D01*
X103635014Y-93801374D01*
X103635015Y-93801375D01*
X103664356Y-93818315D01*
X103664358Y-93818316D01*
X103664362Y-93818318D01*
X103693705Y-93826180D01*
X103753365Y-93862545D01*
X103759640Y-93870322D01*
X103791637Y-93902319D01*
X103825122Y-93963642D01*
X103820138Y-94033334D01*
X103791637Y-94077681D01*
X103760803Y-94108514D01*
X103709426Y-94213608D01*
X103699500Y-94281739D01*
X103699500Y-94648260D01*
X103709426Y-94716391D01*
X103760803Y-94821485D01*
X103843514Y-94904196D01*
X103843515Y-94904196D01*
X103843517Y-94904198D01*
X103948607Y-94955573D01*
X103982673Y-94960536D01*
X104016739Y-94965500D01*
X104016740Y-94965500D01*
X105108261Y-94965500D01*
X105185922Y-94954185D01*
X105186340Y-94957057D01*
X105240734Y-94956282D01*
X105300045Y-94993214D01*
X105329974Y-95056349D01*
X105331500Y-95075745D01*
X105331500Y-95833637D01*
X105332016Y-95843259D01*
X105315950Y-95911257D01*
X105265672Y-95959774D01*
X105208194Y-95973900D01*
X89683965Y-95973900D01*
X89527776Y-96004968D01*
X89527768Y-96004970D01*
X89380630Y-96065917D01*
X89248212Y-96154395D01*
X89248205Y-96154401D01*
X89135601Y-96267005D01*
X89135595Y-96267012D01*
X89047117Y-96399430D01*
X88986170Y-96546568D01*
X88986168Y-96546576D01*
X88955100Y-96702765D01*
X88955100Y-96772642D01*
X88953573Y-96792042D01*
X88948016Y-96827123D01*
X88936028Y-96864017D01*
X88924386Y-96886866D01*
X88901582Y-96918253D01*
X88883453Y-96936382D01*
X88852066Y-96959186D01*
X88829217Y-96970828D01*
X88792324Y-96982816D01*
X88780449Y-96984697D01*
X88757237Y-96988373D01*
X88737843Y-96989900D01*
X86770795Y-96989900D01*
X86703756Y-96970215D01*
X86658001Y-96917411D01*
X86648057Y-96848253D01*
X86677082Y-96784697D01*
X86683114Y-96778219D01*
X88766332Y-94695000D01*
X96817501Y-94695000D01*
X96817501Y-94744986D01*
X96827994Y-94847697D01*
X96883141Y-95014119D01*
X96883143Y-95014124D01*
X96975184Y-95163345D01*
X97099154Y-95287315D01*
X97248375Y-95379356D01*
X97248380Y-95379358D01*
X97414802Y-95434505D01*
X97414809Y-95434506D01*
X97517519Y-95444999D01*
X97792499Y-95444999D01*
X97792500Y-95444998D01*
X97792500Y-94695000D01*
X98292500Y-94695000D01*
X98292500Y-95444999D01*
X98567472Y-95444999D01*
X98567486Y-95444998D01*
X98670197Y-95434505D01*
X98836619Y-95379358D01*
X98836624Y-95379356D01*
X98985844Y-95287315D01*
X99014817Y-95258343D01*
X99076140Y-95224857D01*
X99145832Y-95229841D01*
X99190181Y-95258342D01*
X99229154Y-95297315D01*
X99378375Y-95389356D01*
X99378380Y-95389358D01*
X99544802Y-95444505D01*
X99544809Y-95444506D01*
X99647519Y-95454999D01*
X99922499Y-95454999D01*
X99922500Y-95454998D01*
X99922500Y-94705000D01*
X100422500Y-94705000D01*
X100422500Y-95454999D01*
X100697472Y-95454999D01*
X100697486Y-95454998D01*
X100800197Y-95444505D01*
X100966619Y-95389358D01*
X100966624Y-95389356D01*
X101115845Y-95297315D01*
X101239815Y-95173345D01*
X101331856Y-95024124D01*
X101331858Y-95024119D01*
X101387005Y-94857697D01*
X101387006Y-94857690D01*
X101397499Y-94754986D01*
X101397500Y-94754973D01*
X101397500Y-94705000D01*
X100422500Y-94705000D01*
X99922500Y-94705000D01*
X98965862Y-94705000D01*
X98931806Y-94695000D01*
X98292500Y-94695000D01*
X97792500Y-94695000D01*
X96817501Y-94695000D01*
X88766332Y-94695000D01*
X89669512Y-93791819D01*
X89730835Y-93758334D01*
X89757193Y-93755500D01*
X96751312Y-93755500D01*
X96818351Y-93775185D01*
X96864106Y-93827989D01*
X96874050Y-93897147D01*
X96869018Y-93918504D01*
X96827994Y-94042302D01*
X96827993Y-94042309D01*
X96817500Y-94145013D01*
X96817500Y-94195000D01*
X99249138Y-94195000D01*
X99283194Y-94205000D01*
X101397499Y-94205000D01*
X101397499Y-94155028D01*
X101397498Y-94155013D01*
X101387005Y-94052302D01*
X101331858Y-93885880D01*
X101331856Y-93885875D01*
X101239814Y-93736652D01*
X101235343Y-93730998D01*
X101209201Y-93666203D01*
X101222239Y-93597561D01*
X101244921Y-93566410D01*
X101522262Y-93289068D01*
X101583583Y-93255585D01*
X101595350Y-93253613D01*
X101639052Y-93248441D01*
X101695346Y-93234926D01*
X101703446Y-93231937D01*
X101726955Y-93225802D01*
X101753963Y-93221525D01*
X101773348Y-93220000D01*
X102801661Y-93220000D01*
X102821059Y-93221527D01*
G37*
G04 #@! TD.AperFunction*
G04 #@! TA.AperFunction,Conductor*
G36*
X151404139Y-77894585D02*
G01*
X151449894Y-77947389D01*
X151461100Y-77998900D01*
X151461100Y-91133715D01*
X151441415Y-91200754D01*
X151388611Y-91246509D01*
X151319453Y-91256453D01*
X151255897Y-91227428D01*
X151227545Y-91191798D01*
X151101626Y-90954291D01*
X151101624Y-90954288D01*
X151101622Y-90954284D01*
X150894690Y-90649083D01*
X150655973Y-90368044D01*
X150388270Y-90114462D01*
X150376479Y-90105499D01*
X150315794Y-90059367D01*
X150094719Y-89891310D01*
X149778762Y-89701205D01*
X149778761Y-89701204D01*
X149778757Y-89701202D01*
X149778753Y-89701200D01*
X149444113Y-89546379D01*
X149444108Y-89546377D01*
X149444103Y-89546375D01*
X149149194Y-89447008D01*
X149091951Y-89406949D01*
X149065451Y-89342299D01*
X149078111Y-89273586D01*
X149125910Y-89222625D01*
X149188789Y-89205500D01*
X149898639Y-89205500D01*
X149900075Y-89205422D01*
X149925952Y-89204036D01*
X149952310Y-89201202D01*
X150047444Y-89171413D01*
X150108767Y-89137928D01*
X150166985Y-89094347D01*
X150494347Y-88766985D01*
X150512626Y-88746635D01*
X150529260Y-88725993D01*
X150575465Y-88637662D01*
X150595150Y-88570623D01*
X150605500Y-88498638D01*
X150605500Y-85601362D01*
X150604036Y-85574048D01*
X150601202Y-85547690D01*
X150571413Y-85452556D01*
X150558823Y-85429500D01*
X150537931Y-85391238D01*
X150537926Y-85391230D01*
X150494350Y-85333019D01*
X150494349Y-85333018D01*
X150494347Y-85333015D01*
X150494342Y-85333010D01*
X150494334Y-85333001D01*
X150166998Y-85005666D01*
X150166997Y-85005665D01*
X150166985Y-85005653D01*
X150146635Y-84987374D01*
X150146629Y-84987369D01*
X150146620Y-84987361D01*
X150125999Y-84970744D01*
X150125996Y-84970742D01*
X150125993Y-84970740D01*
X150037662Y-84924535D01*
X150037659Y-84924534D01*
X149970624Y-84904850D01*
X149970616Y-84904848D01*
X149898639Y-84894500D01*
X149898638Y-84894500D01*
X145651362Y-84894500D01*
X145651361Y-84894500D01*
X145624065Y-84895963D01*
X145624060Y-84895963D01*
X145624048Y-84895964D01*
X145624040Y-84895964D01*
X145624011Y-84895967D01*
X145597689Y-84898797D01*
X145597687Y-84898798D01*
X145502558Y-84928586D01*
X145502548Y-84928590D01*
X145441238Y-84962068D01*
X145441230Y-84962073D01*
X145383019Y-85005649D01*
X145383001Y-85005665D01*
X144880487Y-85508181D01*
X144819164Y-85541666D01*
X144792806Y-85544500D01*
X142405552Y-85544500D01*
X142338513Y-85524815D01*
X142292758Y-85472011D01*
X142282814Y-85402853D01*
X142311839Y-85339297D01*
X142331243Y-85321232D01*
X142339416Y-85315114D01*
X142366463Y-85294867D01*
X142494346Y-85166985D01*
X142512629Y-85146630D01*
X142529263Y-85125987D01*
X142575465Y-85037661D01*
X142595150Y-84970622D01*
X142605500Y-84898637D01*
X142605500Y-84801362D01*
X142604036Y-84774048D01*
X142602521Y-84759953D01*
X142601202Y-84747689D01*
X142601201Y-84747687D01*
X142592760Y-84720730D01*
X142571413Y-84652556D01*
X142571149Y-84652073D01*
X142537931Y-84591238D01*
X142537926Y-84591230D01*
X142494350Y-84533019D01*
X142494349Y-84533018D01*
X142494347Y-84533015D01*
X142494342Y-84533010D01*
X142494334Y-84533001D01*
X142156513Y-84195181D01*
X142123028Y-84133858D01*
X142128012Y-84064167D01*
X142169883Y-84008233D01*
X142235348Y-83983816D01*
X142244194Y-83983500D01*
X142669150Y-83983500D01*
X142669151Y-83983499D01*
X142691917Y-83978971D01*
X142727629Y-83971868D01*
X142727629Y-83971867D01*
X142727631Y-83971867D01*
X142793952Y-83927552D01*
X142838267Y-83861231D01*
X142838267Y-83861230D01*
X142839494Y-83859394D01*
X142893106Y-83814589D01*
X142962431Y-83805882D01*
X143025458Y-83836036D01*
X143030277Y-83840604D01*
X143300138Y-84110465D01*
X143374361Y-84153318D01*
X143457147Y-84175500D01*
X145550491Y-84175500D01*
X145617530Y-84195185D01*
X145631409Y-84207208D01*
X145632167Y-84206334D01*
X145638868Y-84212140D01*
X145638871Y-84212142D01*
X145638872Y-84212143D01*
X145759947Y-84289953D01*
X145759950Y-84289954D01*
X145759949Y-84289954D01*
X145855573Y-84318031D01*
X145881010Y-84325500D01*
X145898036Y-84330499D01*
X145898038Y-84330500D01*
X145898039Y-84330500D01*
X146041962Y-84330500D01*
X146041962Y-84330499D01*
X146180053Y-84289953D01*
X146301128Y-84212143D01*
X146395377Y-84103373D01*
X146455165Y-83972457D01*
X146463878Y-83911853D01*
X146492902Y-83848298D01*
X146551680Y-83810523D01*
X146586616Y-83805500D01*
X149598639Y-83805500D01*
X149600075Y-83805422D01*
X149625952Y-83804036D01*
X149652310Y-83801202D01*
X149747444Y-83771413D01*
X149808767Y-83737928D01*
X149866985Y-83694347D01*
X150244347Y-83316985D01*
X150262626Y-83296635D01*
X150279260Y-83275993D01*
X150325465Y-83187662D01*
X150345150Y-83120623D01*
X150355500Y-83048638D01*
X150355500Y-80751362D01*
X150354036Y-80724048D01*
X150351202Y-80697690D01*
X150321413Y-80602556D01*
X150318492Y-80597207D01*
X150287931Y-80541238D01*
X150287926Y-80541230D01*
X150244350Y-80483019D01*
X150244349Y-80483018D01*
X150244347Y-80483015D01*
X150244342Y-80483010D01*
X150244334Y-80483001D01*
X149766998Y-80005666D01*
X149766997Y-80005665D01*
X149766985Y-80005653D01*
X149746635Y-79987374D01*
X149746629Y-79987369D01*
X149746620Y-79987361D01*
X149725999Y-79970744D01*
X149725996Y-79970742D01*
X149725993Y-79970740D01*
X149637662Y-79924535D01*
X149633756Y-79923388D01*
X149570624Y-79904850D01*
X149570616Y-79904848D01*
X149498639Y-79894500D01*
X149498638Y-79894500D01*
X147056083Y-79894500D01*
X147006236Y-79899410D01*
X147006232Y-79899410D01*
X147006229Y-79899411D01*
X146958781Y-79908849D01*
X146910872Y-79923381D01*
X146910852Y-79923388D01*
X146892082Y-79931162D01*
X146860824Y-79939536D01*
X146816184Y-79945413D01*
X146783814Y-79945413D01*
X146739173Y-79939536D01*
X146707910Y-79931160D01*
X146694244Y-79925500D01*
X146689143Y-79923387D01*
X146641216Y-79908849D01*
X146617165Y-79904064D01*
X146593770Y-79899411D01*
X146593768Y-79899410D01*
X146593764Y-79899410D01*
X146543917Y-79894500D01*
X145901362Y-79894500D01*
X145901361Y-79894500D01*
X145874065Y-79895963D01*
X145874060Y-79895963D01*
X145874048Y-79895964D01*
X145874040Y-79895964D01*
X145874011Y-79895967D01*
X145847689Y-79898797D01*
X145847687Y-79898798D01*
X145752558Y-79928586D01*
X145752548Y-79928590D01*
X145691238Y-79962068D01*
X145691230Y-79962073D01*
X145633019Y-80005649D01*
X145633001Y-80005665D01*
X144180487Y-81458181D01*
X144119164Y-81491666D01*
X144092806Y-81494500D01*
X142167194Y-81494500D01*
X142100155Y-81474815D01*
X142079513Y-81458181D01*
X142051819Y-81430487D01*
X142018334Y-81369164D01*
X142015500Y-81342806D01*
X142015500Y-80511360D01*
X142014810Y-80498491D01*
X142014036Y-80484048D01*
X142012436Y-80469167D01*
X142011202Y-80457689D01*
X142011201Y-80457687D01*
X142009776Y-80453135D01*
X141981413Y-80362556D01*
X141979885Y-80359758D01*
X141947931Y-80301238D01*
X141947926Y-80301230D01*
X141904350Y-80243019D01*
X141904349Y-80243018D01*
X141904347Y-80243015D01*
X141904342Y-80243010D01*
X141904335Y-80243002D01*
X141866999Y-80205667D01*
X141866985Y-80205653D01*
X141846635Y-80187374D01*
X141846629Y-80187369D01*
X141846620Y-80187361D01*
X141825999Y-80170744D01*
X141825996Y-80170742D01*
X141825993Y-80170740D01*
X141737662Y-80124535D01*
X141737659Y-80124534D01*
X141670624Y-80104850D01*
X141670616Y-80104848D01*
X141598639Y-80094500D01*
X141598638Y-80094500D01*
X141500000Y-80094500D01*
X140307194Y-80094500D01*
X140240155Y-80074815D01*
X140219513Y-80058181D01*
X138247913Y-78086581D01*
X138214428Y-78025258D01*
X138219412Y-77955566D01*
X138261284Y-77899633D01*
X138326748Y-77875216D01*
X138335594Y-77874900D01*
X151337100Y-77874900D01*
X151404139Y-77894585D01*
G37*
G04 #@! TD.AperFunction*
G04 #@! TA.AperFunction,Conductor*
G36*
X118918690Y-89773783D02*
G01*
X118918688Y-89773783D01*
X118918685Y-89773785D01*
X118857372Y-89807264D01*
X118799160Y-89850839D01*
X118900000Y-89750000D01*
X118984219Y-89750000D01*
X118918690Y-89773783D01*
G37*
G04 #@! TD.AperFunction*
G04 #@! TA.AperFunction,Conductor*
G36*
X118922047Y-81674185D02*
G01*
X118967802Y-81726989D01*
X118977746Y-81796147D01*
X118966408Y-81832959D01*
X118965496Y-81834827D01*
X118929426Y-81908607D01*
X118919500Y-81976739D01*
X118919500Y-83443260D01*
X118929426Y-83511391D01*
X118952901Y-83559410D01*
X118965500Y-83613870D01*
X118965500Y-83802551D01*
X118965499Y-83802569D01*
X118965499Y-83810164D01*
X118965499Y-83929836D01*
X118985381Y-84004035D01*
X118985380Y-84004035D01*
X118996471Y-84045426D01*
X118996472Y-84045430D01*
X118996473Y-84045431D01*
X119056309Y-84149070D01*
X119056311Y-84149072D01*
X119147995Y-84240756D01*
X119148001Y-84240761D01*
X119381968Y-84474728D01*
X119381978Y-84474739D01*
X119386308Y-84479069D01*
X119386309Y-84479070D01*
X119470930Y-84563691D01*
X119540791Y-84604025D01*
X119589006Y-84654592D01*
X119602230Y-84723199D01*
X119600409Y-84735602D01*
X119596600Y-84754752D01*
X119596600Y-86746600D01*
X119000000Y-86150000D01*
X117700000Y-86150000D01*
X116700000Y-87150000D01*
X116700000Y-89539673D01*
X116699862Y-89539535D01*
X116699860Y-89539533D01*
X116431962Y-89271635D01*
X116380320Y-89241819D01*
X116357740Y-89228782D01*
X116312334Y-89216616D01*
X116274953Y-89206600D01*
X116274952Y-89206600D01*
X116260544Y-89206600D01*
X116193505Y-89186915D01*
X116172863Y-89170281D01*
X116147363Y-89144781D01*
X116113878Y-89083458D01*
X116118862Y-89013766D01*
X116147363Y-88969419D01*
X116178196Y-88938585D01*
X116178198Y-88938583D01*
X116229573Y-88833493D01*
X116239500Y-88765360D01*
X116239500Y-88398840D01*
X116229573Y-88330707D01*
X116178198Y-88225617D01*
X116178196Y-88225615D01*
X116178196Y-88225614D01*
X116095485Y-88142903D01*
X115990391Y-88091526D01*
X115922261Y-88081600D01*
X115922260Y-88081600D01*
X114830740Y-88081600D01*
X114830739Y-88081600D01*
X114762608Y-88091526D01*
X114657514Y-88142903D01*
X114574802Y-88225615D01*
X114567887Y-88239761D01*
X114520759Y-88291343D01*
X114456487Y-88309300D01*
X114225122Y-88309300D01*
X114158083Y-88289615D01*
X114112328Y-88236811D01*
X114108081Y-88226256D01*
X114090308Y-88175465D01*
X114084693Y-88159418D01*
X114004050Y-88050150D01*
X113894782Y-87969507D01*
X113894780Y-87969506D01*
X113766600Y-87924653D01*
X113736170Y-87921800D01*
X113736166Y-87921800D01*
X112727634Y-87921800D01*
X112727630Y-87921800D01*
X112697200Y-87924653D01*
X112697198Y-87924653D01*
X112569019Y-87969506D01*
X112569017Y-87969507D01*
X112459750Y-88050150D01*
X112428270Y-88092804D01*
X112372622Y-88135055D01*
X112302966Y-88140513D01*
X112241417Y-88107445D01*
X112207516Y-88046351D01*
X112204500Y-88019170D01*
X112204500Y-87641221D01*
X112224185Y-87574182D01*
X112240815Y-87553544D01*
X112675448Y-87118910D01*
X112736769Y-87085427D01*
X112806460Y-87090411D01*
X112815530Y-87094210D01*
X112830604Y-87101239D01*
X113050408Y-87160135D01*
X113212330Y-87174301D01*
X113277098Y-87179968D01*
X113277100Y-87179968D01*
X113277102Y-87179968D01*
X113333896Y-87174999D01*
X113503792Y-87160135D01*
X113723596Y-87101239D01*
X113929834Y-87005068D01*
X114116239Y-86874547D01*
X114277147Y-86713639D01*
X114407668Y-86527234D01*
X114466721Y-86400594D01*
X114512893Y-86348156D01*
X114579103Y-86329000D01*
X116658052Y-86329000D01*
X116658068Y-86329001D01*
X116665664Y-86329001D01*
X116785335Y-86329001D01*
X116785336Y-86329001D01*
X116876498Y-86304573D01*
X116876501Y-86304573D01*
X116890605Y-86300793D01*
X116900931Y-86298027D01*
X117004570Y-86238191D01*
X117089191Y-86153570D01*
X117089191Y-86153568D01*
X117099395Y-86143365D01*
X117099399Y-86143360D01*
X118438860Y-84803899D01*
X118438865Y-84803895D01*
X118449068Y-84793691D01*
X118449070Y-84793691D01*
X118533691Y-84709070D01*
X118593527Y-84605431D01*
X118624500Y-84489836D01*
X118624500Y-83613870D01*
X118637099Y-83559410D01*
X118641455Y-83550500D01*
X118660573Y-83511393D01*
X118670500Y-83443260D01*
X118670500Y-81976740D01*
X118670500Y-81976739D01*
X118660574Y-81908611D01*
X118660573Y-81908609D01*
X118660573Y-81908607D01*
X118637099Y-81860589D01*
X118624500Y-81806130D01*
X118624500Y-81778500D01*
X118644185Y-81711461D01*
X118696989Y-81665706D01*
X118748500Y-81654500D01*
X118855008Y-81654500D01*
X118922047Y-81674185D01*
G37*
G04 #@! TD.AperFunction*
G04 #@! TA.AperFunction,Conductor*
G36*
X120101940Y-81798778D02*
G01*
X120122778Y-81815538D01*
X124681968Y-86374728D01*
X124681978Y-86374739D01*
X124686308Y-86379069D01*
X124686309Y-86379070D01*
X124770930Y-86463691D01*
X124874569Y-86523527D01*
X124990164Y-86554500D01*
X125053546Y-86554500D01*
X125088480Y-86559523D01*
X125208798Y-86594850D01*
X125218649Y-86597743D01*
X125228036Y-86600499D01*
X125228038Y-86600500D01*
X125228039Y-86600500D01*
X125371954Y-86600500D01*
X125371961Y-86600500D01*
X125371967Y-86600498D01*
X125372489Y-86600423D01*
X125373025Y-86600500D01*
X125380830Y-86600500D01*
X125380830Y-86601621D01*
X125441648Y-86610362D01*
X125494455Y-86656113D01*
X125514145Y-86723151D01*
X125494465Y-86790192D01*
X125477826Y-86810841D01*
X124869334Y-87419334D01*
X123861166Y-88427501D01*
X123861138Y-88427531D01*
X123842861Y-88447879D01*
X123826244Y-88468500D01*
X123826240Y-88468505D01*
X123826240Y-88468507D01*
X123809766Y-88500001D01*
X123780034Y-88556840D01*
X123760350Y-88623875D01*
X123760348Y-88623883D01*
X123750000Y-88695860D01*
X123750000Y-87800000D01*
X123200000Y-87250000D01*
X119750000Y-87250000D01*
X119600000Y-87100000D01*
X119600000Y-87011346D01*
X119608231Y-87052729D01*
X119608232Y-87052730D01*
X119652547Y-87119052D01*
X119718869Y-87163367D01*
X119718870Y-87163368D01*
X119777347Y-87174999D01*
X119777350Y-87175000D01*
X119777352Y-87175000D01*
X122016850Y-87175000D01*
X122016851Y-87174999D01*
X122031668Y-87172052D01*
X122075329Y-87163368D01*
X122075329Y-87163367D01*
X122075331Y-87163367D01*
X122141652Y-87119052D01*
X122185967Y-87052731D01*
X122185967Y-87052729D01*
X122185968Y-87052729D01*
X122197599Y-86994252D01*
X122197600Y-86994250D01*
X122197600Y-84754749D01*
X122197599Y-84754747D01*
X122185968Y-84696270D01*
X122185967Y-84696269D01*
X122141652Y-84629947D01*
X122075330Y-84585632D01*
X122075329Y-84585631D01*
X122016852Y-84574000D01*
X122016848Y-84574000D01*
X121456592Y-84574000D01*
X121389553Y-84554315D01*
X121343798Y-84501511D01*
X121336820Y-84482101D01*
X121320627Y-84421669D01*
X121315808Y-84413322D01*
X121315322Y-84412481D01*
X121260793Y-84318033D01*
X121260792Y-84318032D01*
X121260791Y-84318030D01*
X121176170Y-84233409D01*
X121176169Y-84233408D01*
X121171839Y-84229078D01*
X121171828Y-84229068D01*
X120870761Y-83928001D01*
X120870759Y-83927998D01*
X120779072Y-83836311D01*
X120779070Y-83836309D01*
X120675433Y-83776474D01*
X120675432Y-83776473D01*
X120656532Y-83771409D01*
X120640021Y-83766985D01*
X120640019Y-83766984D01*
X120602806Y-83757013D01*
X120559836Y-83745499D01*
X120440164Y-83745499D01*
X120432568Y-83745499D01*
X120432552Y-83745500D01*
X119998500Y-83745500D01*
X119931461Y-83725815D01*
X119885706Y-83673011D01*
X119874500Y-83621500D01*
X119874500Y-83613870D01*
X119887099Y-83559410D01*
X119891455Y-83550500D01*
X119910573Y-83511393D01*
X119920500Y-83443260D01*
X119920500Y-81976740D01*
X119920500Y-81976739D01*
X119912393Y-81921097D01*
X119922206Y-81851920D01*
X119967861Y-81799030D01*
X120034864Y-81779219D01*
X120101940Y-81798778D01*
G37*
G04 #@! TD.AperFunction*
G04 #@! TA.AperFunction,Conductor*
G36*
X78485027Y-84445354D02*
G01*
X78516334Y-84476661D01*
X78516335Y-84476662D01*
X78576938Y-84537265D01*
X78576940Y-84537266D01*
X78576944Y-84537269D01*
X78651155Y-84580114D01*
X78651162Y-84580118D01*
X78733947Y-84602300D01*
X79199051Y-84602300D01*
X79266090Y-84621985D01*
X79269126Y-84623999D01*
X79276431Y-84629002D01*
X79276435Y-84629006D01*
X79379209Y-84674385D01*
X79404335Y-84677300D01*
X81210784Y-84677299D01*
X81277823Y-84696984D01*
X81323578Y-84749787D01*
X81328800Y-84763244D01*
X81328873Y-84763473D01*
X81330205Y-84766198D01*
X81331599Y-84769049D01*
X81344200Y-84823511D01*
X81344200Y-84992479D01*
X81324515Y-85059518D01*
X81271711Y-85105273D01*
X81233468Y-85115767D01*
X81230382Y-85116099D01*
X81135260Y-85145884D01*
X81073933Y-85179371D01*
X81073930Y-85179373D01*
X81015719Y-85222949D01*
X81015701Y-85222965D01*
X79989974Y-86248692D01*
X79982574Y-86256409D01*
X79975569Y-86264025D01*
X79929955Y-86333663D01*
X79929953Y-86333665D01*
X79929953Y-86333667D01*
X79924855Y-86345200D01*
X79922986Y-86349427D01*
X79916231Y-86357415D01*
X79863926Y-86483692D01*
X79847742Y-86511724D01*
X79820334Y-86547444D01*
X79797443Y-86570335D01*
X79761724Y-86597743D01*
X79733690Y-86613928D01*
X79651663Y-86647904D01*
X79644258Y-86648700D01*
X79632856Y-86654926D01*
X79620885Y-86660654D01*
X79620273Y-86660907D01*
X79620156Y-86661053D01*
X79608882Y-86668017D01*
X79556898Y-86696402D01*
X79498700Y-86739969D01*
X79498680Y-86739987D01*
X79380487Y-86858181D01*
X79319164Y-86891666D01*
X79292806Y-86894500D01*
X79006083Y-86894500D01*
X78956236Y-86899410D01*
X78956232Y-86899410D01*
X78956229Y-86899411D01*
X78908781Y-86908849D01*
X78860872Y-86923381D01*
X78860852Y-86923388D01*
X78842082Y-86931162D01*
X78810824Y-86939536D01*
X78766184Y-86945413D01*
X78733814Y-86945413D01*
X78689173Y-86939536D01*
X78657903Y-86931157D01*
X78653828Y-86929469D01*
X78643646Y-86924607D01*
X78642074Y-86924118D01*
X78642031Y-86924260D01*
X78642021Y-86924257D01*
X78641971Y-86924398D01*
X78639124Y-86923379D01*
X78639119Y-86923377D01*
X78639113Y-86923375D01*
X78639107Y-86923373D01*
X78591218Y-86908849D01*
X78591205Y-86908846D01*
X78543772Y-86899411D01*
X78543766Y-86899410D01*
X78543764Y-86899410D01*
X78493917Y-86894500D01*
X78493912Y-86894500D01*
X78337594Y-86894500D01*
X78270555Y-86874815D01*
X78224800Y-86822011D01*
X78214856Y-86752853D01*
X78224975Y-86721740D01*
X78224724Y-86721652D01*
X78233560Y-86696402D01*
X78243492Y-86668017D01*
X78272646Y-86584701D01*
X78272646Y-86584699D01*
X78275500Y-86554269D01*
X78275500Y-85545730D01*
X78272646Y-85515300D01*
X78272646Y-85515298D01*
X78238307Y-85417166D01*
X78227793Y-85387118D01*
X78147150Y-85277850D01*
X78037882Y-85197207D01*
X77971044Y-85173819D01*
X77914268Y-85133097D01*
X77888522Y-85068144D01*
X77888000Y-85056778D01*
X77888000Y-84993221D01*
X77907685Y-84926182D01*
X77960489Y-84880427D01*
X77971022Y-84876188D01*
X78037882Y-84852793D01*
X78147150Y-84772150D01*
X78227793Y-84662882D01*
X78253693Y-84588864D01*
X78272646Y-84534701D01*
X78272646Y-84534698D01*
X78273888Y-84521459D01*
X78299745Y-84456550D01*
X78356589Y-84415924D01*
X78426374Y-84412481D01*
X78485027Y-84445354D01*
G37*
G04 #@! TD.AperFunction*
G04 #@! TA.AperFunction,Conductor*
G36*
X81669443Y-81595185D02*
G01*
X81715198Y-81647989D01*
X81719446Y-81658546D01*
X81731929Y-81694221D01*
X81735490Y-81764000D01*
X81700761Y-81824627D01*
X81674316Y-81844006D01*
X81641238Y-81862068D01*
X81641230Y-81862073D01*
X81583023Y-81905646D01*
X81583005Y-81905662D01*
X81265770Y-82222897D01*
X81263665Y-82225025D01*
X81261815Y-82226917D01*
X81217603Y-82288087D01*
X81217602Y-82288088D01*
X81185488Y-82350137D01*
X81168240Y-82392297D01*
X81168240Y-82392299D01*
X81158017Y-82491460D01*
X81158017Y-82491467D01*
X81159058Y-82502556D01*
X81164548Y-82561027D01*
X81171328Y-82597690D01*
X81172830Y-82605814D01*
X81217836Y-82694757D01*
X81253250Y-82739938D01*
X81258757Y-82747540D01*
X81267754Y-82761005D01*
X81267756Y-82761006D01*
X81307880Y-82801130D01*
X81341366Y-82862453D01*
X81344200Y-82888812D01*
X81344200Y-83070088D01*
X81331602Y-83124546D01*
X81328874Y-83130126D01*
X81326140Y-83137170D01*
X81283531Y-83192544D01*
X81217748Y-83216090D01*
X81210543Y-83216300D01*
X79404343Y-83216300D01*
X79404317Y-83216302D01*
X79379212Y-83219213D01*
X79379210Y-83219214D01*
X79349585Y-83232295D01*
X79280307Y-83241366D01*
X79217122Y-83211541D01*
X79180092Y-83152292D01*
X79175500Y-83118860D01*
X79175500Y-81886189D01*
X79195185Y-81819150D01*
X79211813Y-81798513D01*
X79373593Y-81636733D01*
X79434913Y-81603251D01*
X79504604Y-81608235D01*
X79560538Y-81650106D01*
X79578311Y-81683459D01*
X79588607Y-81712882D01*
X79669250Y-81822150D01*
X79778518Y-81902793D01*
X79821245Y-81917744D01*
X79906699Y-81947646D01*
X79937130Y-81950500D01*
X79937134Y-81950500D01*
X80995670Y-81950500D01*
X81026099Y-81947646D01*
X81026101Y-81947646D01*
X81092147Y-81924535D01*
X81154282Y-81902793D01*
X81263550Y-81822150D01*
X81344193Y-81712882D01*
X81363206Y-81658543D01*
X81403927Y-81601769D01*
X81468880Y-81576022D01*
X81480247Y-81575500D01*
X81602404Y-81575500D01*
X81669443Y-81595185D01*
G37*
G04 #@! TD.AperFunction*
G04 #@! TA.AperFunction,Conductor*
G36*
X78541369Y-87159439D02*
G01*
X78550000Y-87163013D01*
X78550000Y-90500000D01*
X78700000Y-90650000D01*
X74401362Y-90650000D01*
X74334323Y-90630315D01*
X74313681Y-90613681D01*
X74161819Y-90461819D01*
X74128334Y-90400496D01*
X74125500Y-90374138D01*
X74125500Y-87725862D01*
X74145185Y-87658823D01*
X74161819Y-87638181D01*
X74613681Y-87186319D01*
X74675004Y-87152834D01*
X74701362Y-87150000D01*
X78493917Y-87150000D01*
X78541369Y-87159439D01*
G37*
G04 #@! TD.AperFunction*
G04 #@! TA.AperFunction,Conductor*
G36*
X109489677Y-93999685D02*
G01*
X109510319Y-94016319D01*
X109691681Y-94197681D01*
X109725166Y-94259004D01*
X109728000Y-94285362D01*
X109728000Y-95579638D01*
X109708315Y-95646677D01*
X109691681Y-95667319D01*
X109421419Y-95937581D01*
X109360096Y-95971066D01*
X109333738Y-95973900D01*
X105677262Y-95973900D01*
X105610223Y-95954215D01*
X105589581Y-95937581D01*
X105573319Y-95921319D01*
X105539834Y-95859996D01*
X105537000Y-95833638D01*
X105537000Y-94937500D01*
X105556685Y-94870461D01*
X105609489Y-94824706D01*
X105661000Y-94813500D01*
X105696348Y-94813500D01*
X105763387Y-94833185D01*
X105809142Y-94885989D01*
X105816615Y-94913976D01*
X105817744Y-94913730D01*
X105819353Y-94921101D01*
X105864206Y-95049280D01*
X105864207Y-95049282D01*
X105944850Y-95158550D01*
X106054118Y-95239193D01*
X106096845Y-95254144D01*
X106182299Y-95284046D01*
X106212730Y-95286900D01*
X106212734Y-95286900D01*
X106846270Y-95286900D01*
X106876699Y-95284046D01*
X106876701Y-95284046D01*
X106940790Y-95261619D01*
X107004882Y-95239193D01*
X107114150Y-95158550D01*
X107194793Y-95049282D01*
X107217219Y-94985190D01*
X107239646Y-94921101D01*
X107239646Y-94921099D01*
X107242500Y-94890669D01*
X107242500Y-94104000D01*
X107262185Y-94036961D01*
X107314989Y-93991206D01*
X107366500Y-93980000D01*
X109422638Y-93980000D01*
X109489677Y-93999685D01*
G37*
G04 #@! TD.AperFunction*
M02*
