M48
; DRILL file {KiCad 8.0.0} date 2024-10-21T16:29:04+0200
; FORMAT={-:-/ absolute / metric / decimal}
; #@! TF.CreationDate,2024-10-21T16:29:04+02:00
; #@! TF.GenerationSoftware,Kicad,Pcbnew,8.0.0
; #@! TF.FileFunction,Plated,1,6,PTH
FMAT,2
METRIC
; #@! TA.AperFunction,Plated,PTH,ViaDrill
T1C0.300
; #@! TA.AperFunction,Plated,PTH,ViaDrill
T2C0.400
; #@! TA.AperFunction,Plated,PTH,ComponentDrill
T3C0.500
; #@! TA.AperFunction,Plated,PTH,ComponentDrill
T4C1.100
; #@! TA.AperFunction,Plated,PTH,ComponentDrill
T5C2.200
; #@! TA.AperFunction,Plated,PTH,ComponentDrill
T6C3.200
%
G90
G05
T1
X74.75Y-87.65
X75.55Y-88.2
X76.35Y-87.65
X77.15Y-88.2
X78.05Y-87.7
X78.75Y-86.65
X79.248Y-87.884
X79.248Y-89.916
X79.6Y-82.25
X79.6Y-86.35
X80.45Y-82.25
X80.518Y-87.884
X80.518Y-89.916
X81.788Y-87.884
X81.788Y-89.916
X83.48Y-85.55
X85.24Y-84.3
X89.154Y-82.804
X89.154Y-83.82
X90.424Y-82.804
X90.424Y-83.82
X91.694Y-82.804
X91.694Y-83.82
X92.9Y-82.804
X106.426Y-95.606
X108.915Y-95.555
X111.506Y-95.656
X113.589Y-95.656
X115.926Y-95.656
X117.6Y-87.35
X118.008Y-95.656
X118.55Y-87.0
X120.193Y-95.606
X122.326Y-95.606
X123.25Y-88.25
X125.3Y-86.1
X127.45Y-97.65
X127.5Y-96.2
X127.55Y-95.1
X127.85Y-99.85
X128.5Y-96.2
X128.7Y-94.0
X129.1Y-81.35
X129.1Y-82.4
X129.85Y-99.85
X130.2Y-81.35
X130.2Y-82.4
X131.2Y-81.35
X131.2Y-82.4
X135.35Y-97.95
X139.23Y-84.72
X140.716Y-78.232
X140.716Y-79.756
X141.0Y-87.6
X142.748Y-78.232
X142.748Y-79.756
X144.78Y-78.232
X144.78Y-79.756
X145.25Y-86.15
X145.97Y-83.83
X146.05Y-85.55
X146.8Y-79.65
X146.812Y-78.232
T2
X73.66Y-79.375
X73.66Y-81.28
X75.565Y-79.375
X75.565Y-81.28
X77.47Y-79.375
X77.47Y-81.28
X84.3Y-80.25
X84.3Y-81.4
X86.36Y-85.725
X88.9Y-85.725
X90.805Y-94.615
X91.44Y-85.725
X93.345Y-94.615
X93.98Y-85.725
X93.98Y-88.138
X94.615Y-79.375
X94.615Y-82.55
X95.885Y-94.615
X96.52Y-79.375
X96.52Y-82.55
X96.52Y-85.725
X96.52Y-88.138
X101.6Y-79.375
X103.505Y-79.375
X105.766Y-92.558
X107.95Y-83.185
X110.185Y-89.002
X110.185Y-90.881
X110.185Y-92.964
X111.55Y-94.35
X112.395Y-83.185
X114.935Y-83.185
X116.84Y-79.375
X119.38Y-79.375
X123.241Y-78.638
X124.46Y-92.71
X124.46Y-95.25
X124.917Y-78.638
X127.635Y-92.71
X130.2Y-91.135
X133.553Y-90.373
X133.96Y-87.274
X137.16Y-91.44
X137.16Y-100.33
X137.77Y-95.91
X137.795Y-93.98
X139.7Y-91.44
X139.7Y-93.98
X140.335Y-100.33
X142.24Y-91.44
X142.875Y-100.33
X145.44Y-96.622
X147.955Y-84.455
X150.495Y-84.455
X150.825Y-89.357
T3
X145.784Y-92.71
X146.487Y-91.013
X146.487Y-94.407
X148.184Y-90.31
X148.184Y-95.11
X149.881Y-91.013
X149.881Y-94.407
X150.584Y-92.71
T4
X99.89Y-86.15
X107.51Y-86.15
X113.277Y-85.874
X120.897Y-85.874
T5
X110.03Y-80.03
T6
X148.184Y-92.71
M30
