G04 #@! TF.GenerationSoftware,KiCad,Pcbnew,8.0.0*
G04 #@! TF.CreationDate,2024-10-21T16:28:35+02:00*
G04 #@! TF.ProjectId,BatteryBridge,42617474-6572-4794-9272-696467652e6b,rev?*
G04 #@! TF.SameCoordinates,Original*
G04 #@! TF.FileFunction,Soldermask,Bot*
G04 #@! TF.FilePolarity,Negative*
%FSLAX46Y46*%
G04 Gerber Fmt 4.6, Leading zero omitted, Abs format (unit mm)*
G04 Created by KiCad (PCBNEW 8.0.0) date 2024-10-21 16:28:35*
%MOMM*%
%LPD*%
G01*
G04 APERTURE LIST*
G04 Aperture macros list*
%AMRoundRect*
0 Rectangle with rounded corners*
0 $1 Rounding radius*
0 $2 $3 $4 $5 $6 $7 $8 $9 X,Y pos of 4 corners*
0 Add a 4 corners polygon primitive as box body*
4,1,4,$2,$3,$4,$5,$6,$7,$8,$9,$2,$3,0*
0 Add four circle primitives for the rounded corners*
1,1,$1+$1,$2,$3*
1,1,$1+$1,$4,$5*
1,1,$1+$1,$6,$7*
1,1,$1+$1,$8,$9*
0 Add four rect primitives between the rounded corners*
20,1,$1+$1,$2,$3,$4,$5,0*
20,1,$1+$1,$4,$5,$6,$7,0*
20,1,$1+$1,$6,$7,$8,$9,0*
20,1,$1+$1,$8,$9,$2,$3,0*%
G04 Aperture macros list end*
%ADD10C,2.600000*%
%ADD11C,0.800000*%
%ADD12C,6.400000*%
%ADD13R,2.200000X2.200000*%
%ADD14O,2.200000X2.200000*%
%ADD15RoundRect,0.250000X-0.475000X0.250000X-0.475000X-0.250000X0.475000X-0.250000X0.475000X0.250000X0*%
%ADD16RoundRect,0.150000X-0.150000X0.512500X-0.150000X-0.512500X0.150000X-0.512500X0.150000X0.512500X0*%
%ADD17RoundRect,0.150000X0.512500X0.150000X-0.512500X0.150000X-0.512500X-0.150000X0.512500X-0.150000X0*%
%ADD18RoundRect,0.250000X-0.262500X-0.450000X0.262500X-0.450000X0.262500X0.450000X-0.262500X0.450000X0*%
%ADD19RoundRect,0.250000X0.262500X0.450000X-0.262500X0.450000X-0.262500X-0.450000X0.262500X-0.450000X0*%
%ADD20RoundRect,0.250000X-0.450000X0.262500X-0.450000X-0.262500X0.450000X-0.262500X0.450000X0.262500X0*%
%ADD21RoundRect,0.250000X0.650000X-1.000000X0.650000X1.000000X-0.650000X1.000000X-0.650000X-1.000000X0*%
%ADD22RoundRect,0.962500X1.787500X0.962500X-1.787500X0.962500X-1.787500X-0.962500X1.787500X-0.962500X0*%
%ADD23R,0.700000X1.525000*%
%ADD24RoundRect,0.250000X0.250000X0.475000X-0.250000X0.475000X-0.250000X-0.475000X0.250000X-0.475000X0*%
%ADD25RoundRect,0.250000X-1.500000X0.250000X-1.500000X-0.250000X1.500000X-0.250000X1.500000X0.250000X0*%
%ADD26RoundRect,0.250001X-1.449999X0.499999X-1.449999X-0.499999X1.449999X-0.499999X1.449999X0.499999X0*%
%ADD27RoundRect,0.243750X0.243750X0.456250X-0.243750X0.456250X-0.243750X-0.456250X0.243750X-0.456250X0*%
G04 APERTURE END LIST*
D10*
X110030000Y-80030000D03*
D11*
X145783600Y-92710000D03*
X146486544Y-91012944D03*
X146486544Y-94407056D03*
X148183600Y-90310000D03*
D12*
X148183600Y-92710000D03*
D11*
X148183600Y-95110000D03*
X149880656Y-91012944D03*
X149880656Y-94407056D03*
X150583600Y-92710000D03*
D13*
X99890000Y-86150000D03*
D14*
X107510000Y-86150000D03*
D13*
X120897100Y-85874500D03*
D14*
X113277100Y-85874500D03*
D15*
X139023300Y-83480800D03*
X139023300Y-85380800D03*
D16*
X106593600Y-92791700D03*
X108493600Y-92791700D03*
X107543600Y-95066700D03*
D17*
X136776000Y-83571000D03*
X136776000Y-84521000D03*
X136776000Y-85471000D03*
X134501000Y-85471000D03*
X134501000Y-83571000D03*
D18*
X100306500Y-94268000D03*
X102131500Y-94268000D03*
X132522800Y-81738400D03*
X134347800Y-81738400D03*
D19*
X108481500Y-90678000D03*
X106656500Y-90678000D03*
D20*
X104267000Y-92813500D03*
X104267000Y-94638500D03*
D21*
X127550000Y-86250000D03*
X127550000Y-82250000D03*
D22*
X90600000Y-80125000D03*
X90600000Y-90075000D03*
D23*
X74595000Y-84088000D03*
X75865000Y-84088000D03*
X77135000Y-84088000D03*
X78405000Y-84088000D03*
X78405000Y-89512000D03*
X77135000Y-89512000D03*
X75865000Y-89512000D03*
X74595000Y-89512000D03*
D24*
X83820000Y-84300000D03*
X81920000Y-84300000D03*
D15*
X132470100Y-83582400D03*
X132470100Y-85482400D03*
X130336500Y-83582400D03*
X130336500Y-85482400D03*
D20*
X136584900Y-79809900D03*
X136584900Y-81634900D03*
D25*
X143606400Y-81702400D03*
X143606400Y-83702400D03*
D26*
X149356400Y-79352400D03*
X149356400Y-86052400D03*
D20*
X104267000Y-88749500D03*
X104267000Y-90574500D03*
D27*
X134423600Y-79604800D03*
X132548600Y-79604800D03*
D16*
X100243600Y-89388100D03*
X102143600Y-89388100D03*
X101193600Y-91663100D03*
M02*
