G04 #@! TF.GenerationSoftware,KiCad,Pcbnew,8.0.0*
G04 #@! TF.CreationDate,2024-10-21T16:28:35+02:00*
G04 #@! TF.ProjectId,BatteryBridge,42617474-6572-4794-9272-696467652e6b,rev?*
G04 #@! TF.SameCoordinates,Original*
G04 #@! TF.FileFunction,Legend,Top*
G04 #@! TF.FilePolarity,Positive*
%FSLAX46Y46*%
G04 Gerber Fmt 4.6, Leading zero omitted, Abs format (unit mm)*
G04 Created by KiCad (PCBNEW 8.0.0) date 2024-10-21 16:28:35*
%MOMM*%
%LPD*%
G01*
G04 APERTURE LIST*
G04 Aperture macros list*
%AMRoundRect*
0 Rectangle with rounded corners*
0 $1 Rounding radius*
0 $2 $3 $4 $5 $6 $7 $8 $9 X,Y pos of 4 corners*
0 Add a 4 corners polygon primitive as box body*
4,1,4,$2,$3,$4,$5,$6,$7,$8,$9,$2,$3,0*
0 Add four circle primitives for the rounded corners*
1,1,$1+$1,$2,$3*
1,1,$1+$1,$4,$5*
1,1,$1+$1,$6,$7*
1,1,$1+$1,$8,$9*
0 Add four rect primitives between the rounded corners*
20,1,$1+$1,$2,$3,$4,$5,0*
20,1,$1+$1,$4,$5,$6,$7,0*
20,1,$1+$1,$6,$7,$8,$9,0*
20,1,$1+$1,$8,$9,$2,$3,0*%
G04 Aperture macros list end*
%ADD10C,0.100000*%
%ADD11C,0.150000*%
%ADD12C,0.120000*%
%ADD13C,0.200000*%
%ADD14C,0.000000*%
%ADD15RoundRect,0.250000X-0.475000X0.250000X-0.475000X-0.250000X0.475000X-0.250000X0.475000X0.250000X0*%
%ADD16RoundRect,0.150000X-0.512500X-0.150000X0.512500X-0.150000X0.512500X0.150000X-0.512500X0.150000X0*%
%ADD17R,1.600000X3.500000*%
%ADD18RoundRect,0.250000X0.475000X-0.250000X0.475000X0.250000X-0.475000X0.250000X-0.475000X-0.250000X0*%
%ADD19RoundRect,0.250000X0.250000X0.475000X-0.250000X0.475000X-0.250000X-0.475000X0.250000X-0.475000X0*%
%ADD20RoundRect,0.250000X0.262500X0.450000X-0.262500X0.450000X-0.262500X-0.450000X0.262500X-0.450000X0*%
%ADD21RoundRect,0.250000X-0.450000X0.262500X-0.450000X-0.262500X0.450000X-0.262500X0.450000X0.262500X0*%
%ADD22RoundRect,0.250000X-0.262500X-0.450000X0.262500X-0.450000X0.262500X0.450000X-0.262500X0.450000X0*%
%ADD23RoundRect,0.243750X-0.456250X0.243750X-0.456250X-0.243750X0.456250X-0.243750X0.456250X0.243750X0*%
%ADD24RoundRect,0.100000X-0.900000X-0.100000X0.900000X-0.100000X0.900000X0.100000X-0.900000X0.100000X0*%
%ADD25RoundRect,0.250000X1.400000X1.000000X-1.400000X1.000000X-1.400000X-1.000000X1.400000X-1.000000X0*%
%ADD26R,0.510000X0.700000*%
%ADD27RoundRect,0.250000X1.100000X-0.325000X1.100000X0.325000X-1.100000X0.325000X-1.100000X-0.325000X0*%
%ADD28RoundRect,0.250000X-0.250000X-0.475000X0.250000X-0.475000X0.250000X0.475000X-0.250000X0.475000X0*%
%ADD29RoundRect,0.150000X0.150000X0.700000X-0.150000X0.700000X-0.150000X-0.700000X0.150000X-0.700000X0*%
%ADD30RoundRect,0.250000X0.250000X1.100000X-0.250000X1.100000X-0.250000X-1.100000X0.250000X-1.100000X0*%
%ADD31C,2.600000*%
%ADD32C,4.400000*%
%ADD33RoundRect,0.150000X-0.587500X-0.150000X0.587500X-0.150000X0.587500X0.150000X-0.587500X0.150000X0*%
%ADD34RoundRect,0.250000X0.450000X-0.262500X0.450000X0.262500X-0.450000X0.262500X-0.450000X-0.262500X0*%
%ADD35RoundRect,0.150000X0.512500X0.150000X-0.512500X0.150000X-0.512500X-0.150000X0.512500X-0.150000X0*%
%ADD36RoundRect,0.300000X-0.300000X1.000000X-0.300000X-1.000000X0.300000X-1.000000X0.300000X1.000000X0*%
%ADD37C,0.800000*%
%ADD38C,6.400000*%
%ADD39RoundRect,0.737500X-1.012500X-0.737500X1.012500X-0.737500X1.012500X0.737500X-1.012500X0.737500X0*%
%ADD40R,2.200000X2.200000*%
%ADD41O,2.200000X2.200000*%
%ADD42RoundRect,0.150000X0.587500X0.150000X-0.587500X0.150000X-0.587500X-0.150000X0.587500X-0.150000X0*%
%ADD43R,1.390000X1.400000*%
%ADD44R,3.360000X4.860000*%
%ADD45RoundRect,0.243750X0.456250X-0.243750X0.456250X0.243750X-0.456250X0.243750X-0.456250X-0.243750X0*%
G04 APERTURE END LIST*
D10*
X98255827Y-83200419D02*
X98589160Y-84200419D01*
X98589160Y-84200419D02*
X98922493Y-83200419D01*
X99255827Y-84200419D02*
X99255827Y-83200419D01*
X99255827Y-83200419D02*
X99493922Y-83200419D01*
X99493922Y-83200419D02*
X99636779Y-83248038D01*
X99636779Y-83248038D02*
X99732017Y-83343276D01*
X99732017Y-83343276D02*
X99779636Y-83438514D01*
X99779636Y-83438514D02*
X99827255Y-83628990D01*
X99827255Y-83628990D02*
X99827255Y-83771847D01*
X99827255Y-83771847D02*
X99779636Y-83962323D01*
X99779636Y-83962323D02*
X99732017Y-84057561D01*
X99732017Y-84057561D02*
X99636779Y-84152800D01*
X99636779Y-84152800D02*
X99493922Y-84200419D01*
X99493922Y-84200419D02*
X99255827Y-84200419D01*
X100255827Y-84200419D02*
X100255827Y-83200419D01*
X100255827Y-83200419D02*
X100493922Y-83200419D01*
X100493922Y-83200419D02*
X100636779Y-83248038D01*
X100636779Y-83248038D02*
X100732017Y-83343276D01*
X100732017Y-83343276D02*
X100779636Y-83438514D01*
X100779636Y-83438514D02*
X100827255Y-83628990D01*
X100827255Y-83628990D02*
X100827255Y-83771847D01*
X100827255Y-83771847D02*
X100779636Y-83962323D01*
X100779636Y-83962323D02*
X100732017Y-84057561D01*
X100732017Y-84057561D02*
X100636779Y-84152800D01*
X100636779Y-84152800D02*
X100493922Y-84200419D01*
X100493922Y-84200419D02*
X100255827Y-84200419D01*
X124704019Y-82656569D02*
X125704019Y-82323236D01*
X125704019Y-82323236D02*
X124704019Y-81989903D01*
X125608780Y-81085141D02*
X125656400Y-81132760D01*
X125656400Y-81132760D02*
X125704019Y-81275617D01*
X125704019Y-81275617D02*
X125704019Y-81370855D01*
X125704019Y-81370855D02*
X125656400Y-81513712D01*
X125656400Y-81513712D02*
X125561161Y-81608950D01*
X125561161Y-81608950D02*
X125465923Y-81656569D01*
X125465923Y-81656569D02*
X125275447Y-81704188D01*
X125275447Y-81704188D02*
X125132590Y-81704188D01*
X125132590Y-81704188D02*
X124942114Y-81656569D01*
X124942114Y-81656569D02*
X124846876Y-81608950D01*
X124846876Y-81608950D02*
X124751638Y-81513712D01*
X124751638Y-81513712D02*
X124704019Y-81370855D01*
X124704019Y-81370855D02*
X124704019Y-81275617D01*
X124704019Y-81275617D02*
X124751638Y-81132760D01*
X124751638Y-81132760D02*
X124799257Y-81085141D01*
X124704019Y-80466093D02*
X124704019Y-80275617D01*
X124704019Y-80275617D02*
X124751638Y-80180379D01*
X124751638Y-80180379D02*
X124846876Y-80085141D01*
X124846876Y-80085141D02*
X125037352Y-80037522D01*
X125037352Y-80037522D02*
X125370685Y-80037522D01*
X125370685Y-80037522D02*
X125561161Y-80085141D01*
X125561161Y-80085141D02*
X125656400Y-80180379D01*
X125656400Y-80180379D02*
X125704019Y-80275617D01*
X125704019Y-80275617D02*
X125704019Y-80466093D01*
X125704019Y-80466093D02*
X125656400Y-80561331D01*
X125656400Y-80561331D02*
X125561161Y-80656569D01*
X125561161Y-80656569D02*
X125370685Y-80704188D01*
X125370685Y-80704188D02*
X125037352Y-80704188D01*
X125037352Y-80704188D02*
X124846876Y-80656569D01*
X124846876Y-80656569D02*
X124751638Y-80561331D01*
X124751638Y-80561331D02*
X124704019Y-80466093D01*
X125704019Y-79608950D02*
X124704019Y-79608950D01*
X124704019Y-79608950D02*
X125418304Y-79275617D01*
X125418304Y-79275617D02*
X124704019Y-78942284D01*
X124704019Y-78942284D02*
X125704019Y-78942284D01*
X73031390Y-81128018D02*
X72983771Y-81270875D01*
X72983771Y-81270875D02*
X72936152Y-81318494D01*
X72936152Y-81318494D02*
X72840914Y-81366113D01*
X72840914Y-81366113D02*
X72698057Y-81366113D01*
X72698057Y-81366113D02*
X72602819Y-81318494D01*
X72602819Y-81318494D02*
X72555200Y-81270875D01*
X72555200Y-81270875D02*
X72507580Y-81175637D01*
X72507580Y-81175637D02*
X72507580Y-80794685D01*
X72507580Y-80794685D02*
X73507580Y-80794685D01*
X73507580Y-80794685D02*
X73507580Y-81128018D01*
X73507580Y-81128018D02*
X73459961Y-81223256D01*
X73459961Y-81223256D02*
X73412342Y-81270875D01*
X73412342Y-81270875D02*
X73317104Y-81318494D01*
X73317104Y-81318494D02*
X73221866Y-81318494D01*
X73221866Y-81318494D02*
X73126628Y-81270875D01*
X73126628Y-81270875D02*
X73079009Y-81223256D01*
X73079009Y-81223256D02*
X73031390Y-81128018D01*
X73031390Y-81128018D02*
X73031390Y-80794685D01*
X72507580Y-82223256D02*
X73031390Y-82223256D01*
X73031390Y-82223256D02*
X73126628Y-82175637D01*
X73126628Y-82175637D02*
X73174247Y-82080399D01*
X73174247Y-82080399D02*
X73174247Y-81889923D01*
X73174247Y-81889923D02*
X73126628Y-81794685D01*
X72555200Y-82223256D02*
X72507580Y-82128018D01*
X72507580Y-82128018D02*
X72507580Y-81889923D01*
X72507580Y-81889923D02*
X72555200Y-81794685D01*
X72555200Y-81794685D02*
X72650438Y-81747066D01*
X72650438Y-81747066D02*
X72745676Y-81747066D01*
X72745676Y-81747066D02*
X72840914Y-81794685D01*
X72840914Y-81794685D02*
X72888533Y-81889923D01*
X72888533Y-81889923D02*
X72888533Y-82128018D01*
X72888533Y-82128018D02*
X72936152Y-82223256D01*
X73174247Y-82556590D02*
X73174247Y-82937542D01*
X73507580Y-82699447D02*
X72650438Y-82699447D01*
X72650438Y-82699447D02*
X72555200Y-82747066D01*
X72555200Y-82747066D02*
X72507580Y-82842304D01*
X72507580Y-82842304D02*
X72507580Y-82937542D01*
X73174247Y-83128019D02*
X73174247Y-83508971D01*
X73507580Y-83270876D02*
X72650438Y-83270876D01*
X72650438Y-83270876D02*
X72555200Y-83318495D01*
X72555200Y-83318495D02*
X72507580Y-83413733D01*
X72507580Y-83413733D02*
X72507580Y-83508971D01*
X72555200Y-84223257D02*
X72507580Y-84128019D01*
X72507580Y-84128019D02*
X72507580Y-83937543D01*
X72507580Y-83937543D02*
X72555200Y-83842305D01*
X72555200Y-83842305D02*
X72650438Y-83794686D01*
X72650438Y-83794686D02*
X73031390Y-83794686D01*
X73031390Y-83794686D02*
X73126628Y-83842305D01*
X73126628Y-83842305D02*
X73174247Y-83937543D01*
X73174247Y-83937543D02*
X73174247Y-84128019D01*
X73174247Y-84128019D02*
X73126628Y-84223257D01*
X73126628Y-84223257D02*
X73031390Y-84270876D01*
X73031390Y-84270876D02*
X72936152Y-84270876D01*
X72936152Y-84270876D02*
X72840914Y-83794686D01*
X72507580Y-84699448D02*
X73174247Y-84699448D01*
X72983771Y-84699448D02*
X73079009Y-84747067D01*
X73079009Y-84747067D02*
X73126628Y-84794686D01*
X73126628Y-84794686D02*
X73174247Y-84889924D01*
X73174247Y-84889924D02*
X73174247Y-84985162D01*
X73174247Y-85223258D02*
X72507580Y-85461353D01*
X73174247Y-85699448D02*
X72507580Y-85461353D01*
X72507580Y-85461353D02*
X72269485Y-85366115D01*
X72269485Y-85366115D02*
X72221866Y-85318496D01*
X72221866Y-85318496D02*
X72174247Y-85223258D01*
X73031390Y-86413734D02*
X72983771Y-86556591D01*
X72983771Y-86556591D02*
X72936152Y-86604210D01*
X72936152Y-86604210D02*
X72840914Y-86651829D01*
X72840914Y-86651829D02*
X72698057Y-86651829D01*
X72698057Y-86651829D02*
X72602819Y-86604210D01*
X72602819Y-86604210D02*
X72555200Y-86556591D01*
X72555200Y-86556591D02*
X72507580Y-86461353D01*
X72507580Y-86461353D02*
X72507580Y-86080401D01*
X72507580Y-86080401D02*
X73507580Y-86080401D01*
X73507580Y-86080401D02*
X73507580Y-86413734D01*
X73507580Y-86413734D02*
X73459961Y-86508972D01*
X73459961Y-86508972D02*
X73412342Y-86556591D01*
X73412342Y-86556591D02*
X73317104Y-86604210D01*
X73317104Y-86604210D02*
X73221866Y-86604210D01*
X73221866Y-86604210D02*
X73126628Y-86556591D01*
X73126628Y-86556591D02*
X73079009Y-86508972D01*
X73079009Y-86508972D02*
X73031390Y-86413734D01*
X73031390Y-86413734D02*
X73031390Y-86080401D01*
X72507580Y-87080401D02*
X73174247Y-87080401D01*
X72983771Y-87080401D02*
X73079009Y-87128020D01*
X73079009Y-87128020D02*
X73126628Y-87175639D01*
X73126628Y-87175639D02*
X73174247Y-87270877D01*
X73174247Y-87270877D02*
X73174247Y-87366115D01*
X72507580Y-87699449D02*
X73174247Y-87699449D01*
X73507580Y-87699449D02*
X73459961Y-87651830D01*
X73459961Y-87651830D02*
X73412342Y-87699449D01*
X73412342Y-87699449D02*
X73459961Y-87747068D01*
X73459961Y-87747068D02*
X73507580Y-87699449D01*
X73507580Y-87699449D02*
X73412342Y-87699449D01*
X72507580Y-88604210D02*
X73507580Y-88604210D01*
X72555200Y-88604210D02*
X72507580Y-88508972D01*
X72507580Y-88508972D02*
X72507580Y-88318496D01*
X72507580Y-88318496D02*
X72555200Y-88223258D01*
X72555200Y-88223258D02*
X72602819Y-88175639D01*
X72602819Y-88175639D02*
X72698057Y-88128020D01*
X72698057Y-88128020D02*
X72983771Y-88128020D01*
X72983771Y-88128020D02*
X73079009Y-88175639D01*
X73079009Y-88175639D02*
X73126628Y-88223258D01*
X73126628Y-88223258D02*
X73174247Y-88318496D01*
X73174247Y-88318496D02*
X73174247Y-88508972D01*
X73174247Y-88508972D02*
X73126628Y-88604210D01*
X73174247Y-89508972D02*
X72364723Y-89508972D01*
X72364723Y-89508972D02*
X72269485Y-89461353D01*
X72269485Y-89461353D02*
X72221866Y-89413734D01*
X72221866Y-89413734D02*
X72174247Y-89318496D01*
X72174247Y-89318496D02*
X72174247Y-89175639D01*
X72174247Y-89175639D02*
X72221866Y-89080401D01*
X72555200Y-89508972D02*
X72507580Y-89413734D01*
X72507580Y-89413734D02*
X72507580Y-89223258D01*
X72507580Y-89223258D02*
X72555200Y-89128020D01*
X72555200Y-89128020D02*
X72602819Y-89080401D01*
X72602819Y-89080401D02*
X72698057Y-89032782D01*
X72698057Y-89032782D02*
X72983771Y-89032782D01*
X72983771Y-89032782D02*
X73079009Y-89080401D01*
X73079009Y-89080401D02*
X73126628Y-89128020D01*
X73126628Y-89128020D02*
X73174247Y-89223258D01*
X73174247Y-89223258D02*
X73174247Y-89413734D01*
X73174247Y-89413734D02*
X73126628Y-89508972D01*
X72555200Y-90366115D02*
X72507580Y-90270877D01*
X72507580Y-90270877D02*
X72507580Y-90080401D01*
X72507580Y-90080401D02*
X72555200Y-89985163D01*
X72555200Y-89985163D02*
X72650438Y-89937544D01*
X72650438Y-89937544D02*
X73031390Y-89937544D01*
X73031390Y-89937544D02*
X73126628Y-89985163D01*
X73126628Y-89985163D02*
X73174247Y-90080401D01*
X73174247Y-90080401D02*
X73174247Y-90270877D01*
X73174247Y-90270877D02*
X73126628Y-90366115D01*
X73126628Y-90366115D02*
X73031390Y-90413734D01*
X73031390Y-90413734D02*
X72936152Y-90413734D01*
X72936152Y-90413734D02*
X72840914Y-89937544D01*
X73507580Y-91461354D02*
X72507580Y-91794687D01*
X72507580Y-91794687D02*
X73507580Y-92128020D01*
X72507580Y-92985163D02*
X72507580Y-92413735D01*
X72507580Y-92699449D02*
X73507580Y-92699449D01*
X73507580Y-92699449D02*
X73364723Y-92604211D01*
X73364723Y-92604211D02*
X73269485Y-92508973D01*
X73269485Y-92508973D02*
X73221866Y-92413735D01*
X72602819Y-93413735D02*
X72555200Y-93461354D01*
X72555200Y-93461354D02*
X72507580Y-93413735D01*
X72507580Y-93413735D02*
X72555200Y-93366116D01*
X72555200Y-93366116D02*
X72602819Y-93413735D01*
X72602819Y-93413735D02*
X72507580Y-93413735D01*
X73412342Y-93842306D02*
X73459961Y-93889925D01*
X73459961Y-93889925D02*
X73507580Y-93985163D01*
X73507580Y-93985163D02*
X73507580Y-94223258D01*
X73507580Y-94223258D02*
X73459961Y-94318496D01*
X73459961Y-94318496D02*
X73412342Y-94366115D01*
X73412342Y-94366115D02*
X73317104Y-94413734D01*
X73317104Y-94413734D02*
X73221866Y-94413734D01*
X73221866Y-94413734D02*
X73079009Y-94366115D01*
X73079009Y-94366115D02*
X72507580Y-93794687D01*
X72507580Y-93794687D02*
X72507580Y-94413734D01*
X134922003Y-99558795D02*
X135255336Y-100558795D01*
X135255336Y-100558795D02*
X135588669Y-99558795D01*
X136493431Y-100558795D02*
X136160098Y-100082604D01*
X135922003Y-100558795D02*
X135922003Y-99558795D01*
X135922003Y-99558795D02*
X136302955Y-99558795D01*
X136302955Y-99558795D02*
X136398193Y-99606414D01*
X136398193Y-99606414D02*
X136445812Y-99654033D01*
X136445812Y-99654033D02*
X136493431Y-99749271D01*
X136493431Y-99749271D02*
X136493431Y-99892128D01*
X136493431Y-99892128D02*
X136445812Y-99987366D01*
X136445812Y-99987366D02*
X136398193Y-100034985D01*
X136398193Y-100034985D02*
X136302955Y-100082604D01*
X136302955Y-100082604D02*
X135922003Y-100082604D01*
X136922003Y-100034985D02*
X137255336Y-100034985D01*
X137398193Y-100558795D02*
X136922003Y-100558795D01*
X136922003Y-100558795D02*
X136922003Y-99558795D01*
X136922003Y-99558795D02*
X137398193Y-99558795D01*
X138160098Y-100034985D02*
X137826765Y-100034985D01*
X137826765Y-100558795D02*
X137826765Y-99558795D01*
X137826765Y-99558795D02*
X138302955Y-99558795D01*
X123383219Y-82074725D02*
X123383219Y-82550915D01*
X123383219Y-82550915D02*
X123859409Y-82598534D01*
X123859409Y-82598534D02*
X123811790Y-82550915D01*
X123811790Y-82550915D02*
X123764171Y-82455677D01*
X123764171Y-82455677D02*
X123764171Y-82217582D01*
X123764171Y-82217582D02*
X123811790Y-82122344D01*
X123811790Y-82122344D02*
X123859409Y-82074725D01*
X123859409Y-82074725D02*
X123954647Y-82027106D01*
X123954647Y-82027106D02*
X124192742Y-82027106D01*
X124192742Y-82027106D02*
X124287980Y-82074725D01*
X124287980Y-82074725D02*
X124335600Y-82122344D01*
X124335600Y-82122344D02*
X124383219Y-82217582D01*
X124383219Y-82217582D02*
X124383219Y-82455677D01*
X124383219Y-82455677D02*
X124335600Y-82550915D01*
X124335600Y-82550915D02*
X124287980Y-82598534D01*
X123383219Y-81741391D02*
X124383219Y-81408058D01*
X124383219Y-81408058D02*
X123383219Y-81074725D01*
X122008438Y-82128706D02*
X121960819Y-82223944D01*
X121960819Y-82223944D02*
X121960819Y-82366801D01*
X121960819Y-82366801D02*
X122008438Y-82509658D01*
X122008438Y-82509658D02*
X122103676Y-82604896D01*
X122103676Y-82604896D02*
X122198914Y-82652515D01*
X122198914Y-82652515D02*
X122389390Y-82700134D01*
X122389390Y-82700134D02*
X122532247Y-82700134D01*
X122532247Y-82700134D02*
X122722723Y-82652515D01*
X122722723Y-82652515D02*
X122817961Y-82604896D01*
X122817961Y-82604896D02*
X122913200Y-82509658D01*
X122913200Y-82509658D02*
X122960819Y-82366801D01*
X122960819Y-82366801D02*
X122960819Y-82271563D01*
X122960819Y-82271563D02*
X122913200Y-82128706D01*
X122913200Y-82128706D02*
X122865580Y-82081087D01*
X122865580Y-82081087D02*
X122532247Y-82081087D01*
X122532247Y-82081087D02*
X122532247Y-82271563D01*
X122960819Y-81652515D02*
X121960819Y-81652515D01*
X121960819Y-81652515D02*
X122960819Y-81081087D01*
X122960819Y-81081087D02*
X121960819Y-81081087D01*
X122960819Y-80604896D02*
X121960819Y-80604896D01*
X121960819Y-80604896D02*
X121960819Y-80366801D01*
X121960819Y-80366801D02*
X122008438Y-80223944D01*
X122008438Y-80223944D02*
X122103676Y-80128706D01*
X122103676Y-80128706D02*
X122198914Y-80081087D01*
X122198914Y-80081087D02*
X122389390Y-80033468D01*
X122389390Y-80033468D02*
X122532247Y-80033468D01*
X122532247Y-80033468D02*
X122722723Y-80081087D01*
X122722723Y-80081087D02*
X122817961Y-80128706D01*
X122817961Y-80128706D02*
X122913200Y-80223944D01*
X122913200Y-80223944D02*
X122960819Y-80366801D01*
X122960819Y-80366801D02*
X122960819Y-80604896D01*
X105424893Y-84149619D02*
X104853465Y-84149619D01*
X105139179Y-84149619D02*
X105139179Y-83149619D01*
X105139179Y-83149619D02*
X105043941Y-83292476D01*
X105043941Y-83292476D02*
X104948703Y-83387714D01*
X104948703Y-83387714D02*
X104853465Y-83435333D01*
X105805846Y-83244857D02*
X105853465Y-83197238D01*
X105853465Y-83197238D02*
X105948703Y-83149619D01*
X105948703Y-83149619D02*
X106186798Y-83149619D01*
X106186798Y-83149619D02*
X106282036Y-83197238D01*
X106282036Y-83197238D02*
X106329655Y-83244857D01*
X106329655Y-83244857D02*
X106377274Y-83340095D01*
X106377274Y-83340095D02*
X106377274Y-83435333D01*
X106377274Y-83435333D02*
X106329655Y-83578190D01*
X106329655Y-83578190D02*
X105758227Y-84149619D01*
X105758227Y-84149619D02*
X106377274Y-84149619D01*
X106662989Y-83149619D02*
X106996322Y-84149619D01*
X106996322Y-84149619D02*
X107329655Y-83149619D01*
D11*
X97782095Y-86611619D02*
X97782095Y-85611619D01*
X98353523Y-86611619D02*
X97924952Y-86040190D01*
X98353523Y-85611619D02*
X97782095Y-86183047D01*
X122470895Y-86306819D02*
X122470895Y-85306819D01*
X123042323Y-86306819D02*
X122613752Y-85735390D01*
X123042323Y-85306819D02*
X122470895Y-85878247D01*
D12*
X125132200Y-89588748D02*
X125132200Y-90111252D01*
X126602200Y-89588748D02*
X126602200Y-90111252D01*
X121149400Y-89238748D02*
X121149400Y-89761252D01*
X122619400Y-89238748D02*
X122619400Y-89761252D01*
X103425000Y-91955000D02*
X102625000Y-91955000D01*
X103425000Y-91955000D02*
X104225000Y-91955000D01*
X103425000Y-95075000D02*
X102625000Y-95075000D01*
X103425000Y-95075000D02*
X104225000Y-95075000D01*
X102125000Y-92005000D02*
X101885000Y-91675000D01*
X102365000Y-91675000D01*
X102125000Y-92005000D01*
G36*
X102125000Y-92005000D02*
G01*
X101885000Y-91675000D01*
X102365000Y-91675000D01*
X102125000Y-92005000D01*
G37*
D13*
X80900000Y-88095200D02*
X80900000Y-93195200D01*
X80900000Y-93195200D02*
X82400000Y-94695200D01*
X82400000Y-94695200D02*
X82700000Y-94695200D01*
X82700000Y-88095200D02*
X80900000Y-88095200D01*
X84200000Y-96495200D02*
X84200000Y-96495200D01*
X84200000Y-96495200D02*
X84200000Y-96495200D01*
X84200000Y-96595200D02*
X84200000Y-96595200D01*
X85700000Y-94695200D02*
X86000000Y-94695200D01*
X86000000Y-94695200D02*
X87500000Y-93195200D01*
X87500000Y-88095200D02*
X85700000Y-88095200D01*
X87500000Y-93195200D02*
X87500000Y-88095200D01*
X84200000Y-96495200D02*
G75*
G02*
X84200000Y-96595200I0J-50000D01*
G01*
X84200000Y-96595200D02*
G75*
G02*
X84200000Y-96495200I0J50000D01*
G01*
X84200000Y-96595200D02*
G75*
G02*
X84200000Y-96495200I0J50000D01*
G01*
D12*
X97307500Y-93756252D02*
X97307500Y-93233748D01*
X98777500Y-93756252D02*
X98777500Y-93233748D01*
X139353652Y-88040400D02*
X138831148Y-88040400D01*
X139353652Y-89510400D02*
X138831148Y-89510400D01*
X76877064Y-85315000D02*
X76422936Y-85315000D01*
X76877064Y-86785000D02*
X76422936Y-86785000D01*
X99615000Y-89547936D02*
X99615000Y-90002064D01*
X101085000Y-89547936D02*
X101085000Y-90002064D01*
X81865000Y-80122936D02*
X81865000Y-80577064D01*
X83335000Y-80122936D02*
X83335000Y-80577064D01*
X107669064Y-93651400D02*
X107214936Y-93651400D01*
X107669064Y-95121400D02*
X107214936Y-95121400D01*
X134172936Y-82465000D02*
X134627064Y-82465000D01*
X134172936Y-83935000D02*
X134627064Y-83935000D01*
X97360000Y-88110000D02*
X97360000Y-90795000D01*
X99280000Y-88110000D02*
X97360000Y-88110000D01*
X99280000Y-90795000D02*
X99280000Y-88110000D01*
X129879252Y-97092200D02*
X129356748Y-97092200D01*
X129879252Y-98562200D02*
X129356748Y-98562200D01*
X142715000Y-86161252D02*
X142715000Y-85638748D01*
X144185000Y-86161252D02*
X144185000Y-85638748D01*
D14*
G36*
X94450585Y-80162200D02*
G01*
X94659475Y-80185363D01*
X94866686Y-80219986D01*
X95071575Y-80265982D01*
X95273501Y-80323263D01*
X95471823Y-80391743D01*
X95665900Y-80471335D01*
X95834517Y-80551436D01*
X96022350Y-80653456D01*
X96203524Y-80765521D01*
X96377654Y-80887248D01*
X96544355Y-81018255D01*
X96703241Y-81158161D01*
X96853928Y-81306584D01*
X96996031Y-81463142D01*
X97129164Y-81627452D01*
X97252942Y-81799134D01*
X97366981Y-81977805D01*
X97470894Y-82163083D01*
X97482860Y-82186121D01*
X97503284Y-82226521D01*
X97525113Y-82270988D01*
X97547256Y-82317180D01*
X97568620Y-82362756D01*
X97588111Y-82405372D01*
X97604637Y-82442688D01*
X97617105Y-82472361D01*
X97620602Y-82481279D01*
X97621353Y-82485248D01*
X97619680Y-82489283D01*
X97614410Y-82493969D01*
X97604371Y-82499890D01*
X97588387Y-82507629D01*
X97565285Y-82517771D01*
X97533893Y-82530900D01*
X97493035Y-82547601D01*
X97462383Y-82560026D01*
X97420292Y-82577056D01*
X97381767Y-82592635D01*
X97348302Y-82606159D01*
X97321391Y-82617025D01*
X97302527Y-82624630D01*
X97293204Y-82628371D01*
X97292611Y-82628604D01*
X97286877Y-82624914D01*
X97279440Y-82612656D01*
X97274773Y-82601843D01*
X97268345Y-82586129D01*
X97257915Y-82562024D01*
X97244671Y-82532214D01*
X97229800Y-82499384D01*
X97221240Y-82480759D01*
X97131690Y-82301501D01*
X97031417Y-82127808D01*
X96920837Y-81960193D01*
X96800367Y-81799167D01*
X96670424Y-81645243D01*
X96531425Y-81498935D01*
X96383787Y-81360753D01*
X96227926Y-81231212D01*
X96167842Y-81185264D01*
X96003115Y-81069754D01*
X95831772Y-80964357D01*
X95654451Y-80869338D01*
X95471789Y-80784962D01*
X95284424Y-80711493D01*
X95092995Y-80649197D01*
X94898139Y-80598336D01*
X94700493Y-80559176D01*
X94632711Y-80548566D01*
X94573585Y-80540276D01*
X94519566Y-80533550D01*
X94468290Y-80528238D01*
X94417396Y-80524191D01*
X94364521Y-80521259D01*
X94307304Y-80519292D01*
X94243381Y-80518143D01*
X94170391Y-80517660D01*
X94143426Y-80517622D01*
X94072119Y-80517759D01*
X94010745Y-80518329D01*
X93957008Y-80519476D01*
X93908613Y-80521346D01*
X93863263Y-80524083D01*
X93818664Y-80527831D01*
X93772519Y-80532736D01*
X93722533Y-80538942D01*
X93666410Y-80546594D01*
X93652382Y-80548575D01*
X93455460Y-80582628D01*
X93261840Y-80628253D01*
X93071972Y-80685126D01*
X92886305Y-80752925D01*
X92705287Y-80831327D01*
X92529369Y-80920008D01*
X92359000Y-81018645D01*
X92194628Y-81126916D01*
X92036703Y-81244498D01*
X91885675Y-81371066D01*
X91741992Y-81506299D01*
X91606103Y-81649874D01*
X91478459Y-81801466D01*
X91359508Y-81960754D01*
X91249699Y-82127413D01*
X91149481Y-82301122D01*
X91110014Y-82376786D01*
X91024877Y-82557611D01*
X90951408Y-82740475D01*
X90889262Y-82926466D01*
X90838090Y-83116667D01*
X90797546Y-83312166D01*
X90783067Y-83399602D01*
X90774101Y-83460372D01*
X90766802Y-83515737D01*
X90761014Y-83568047D01*
X90756579Y-83619656D01*
X90753338Y-83672916D01*
X90751135Y-83730178D01*
X90749812Y-83793796D01*
X90749210Y-83866122D01*
X90749131Y-83905801D01*
X90749268Y-83977108D01*
X90749838Y-84038482D01*
X90750985Y-84092219D01*
X90752855Y-84140614D01*
X90755592Y-84185963D01*
X90759340Y-84230563D01*
X90764245Y-84276707D01*
X90770451Y-84326694D01*
X90778103Y-84382817D01*
X90780084Y-84396844D01*
X90814137Y-84593767D01*
X90859762Y-84787386D01*
X90916635Y-84977255D01*
X90984434Y-85162922D01*
X91062836Y-85343939D01*
X91151517Y-85519857D01*
X91250154Y-85690227D01*
X91358425Y-85854599D01*
X91476007Y-86012523D01*
X91602575Y-86163552D01*
X91737808Y-86307235D01*
X91881383Y-86443123D01*
X92032975Y-86570768D01*
X92192263Y-86689719D01*
X92358922Y-86799528D01*
X92532631Y-86899745D01*
X92608295Y-86939213D01*
X92785044Y-87022587D01*
X92963685Y-87094793D01*
X93145303Y-87156148D01*
X93330978Y-87206968D01*
X93521794Y-87247567D01*
X93718833Y-87278264D01*
X93803984Y-87288309D01*
X93851260Y-87292452D01*
X93908060Y-87295925D01*
X93971696Y-87298681D01*
X94039476Y-87300675D01*
X94108708Y-87301860D01*
X94176704Y-87302189D01*
X94240771Y-87301616D01*
X94298220Y-87300095D01*
X94345256Y-87297657D01*
X94538809Y-87278525D01*
X94727267Y-87248472D01*
X94911463Y-87207277D01*
X95092229Y-87154720D01*
X95270396Y-87090582D01*
X95446797Y-87014640D01*
X95488959Y-86994635D01*
X95660502Y-86905036D01*
X95826212Y-86804930D01*
X95985739Y-86694749D01*
X96138731Y-86574921D01*
X96284835Y-86445875D01*
X96423700Y-86308043D01*
X96554975Y-86161853D01*
X96678308Y-86007736D01*
X96793347Y-85846120D01*
X96899741Y-85677436D01*
X96997137Y-85502113D01*
X97085184Y-85320582D01*
X97163531Y-85133271D01*
X97231826Y-84940610D01*
X97268511Y-84820254D01*
X97302143Y-84693694D01*
X97332004Y-84562891D01*
X97357589Y-84430733D01*
X97378392Y-84300110D01*
X97393908Y-84173909D01*
X97403631Y-84055021D01*
X97404199Y-84044878D01*
X97408224Y-83970019D01*
X96503002Y-83970019D01*
X95597779Y-83970019D01*
X95584324Y-84041482D01*
X95558453Y-84150628D01*
X95523362Y-84251876D01*
X95478897Y-84345539D01*
X95424902Y-84431932D01*
X95361222Y-84511369D01*
X95343323Y-84530648D01*
X95281557Y-84589857D01*
X95217042Y-84640388D01*
X95146044Y-84685007D01*
X95106406Y-84706241D01*
X95004140Y-84751663D01*
X94896661Y-84786298D01*
X94783544Y-84810267D01*
X94710042Y-84819861D01*
X94692307Y-84820998D01*
X94662855Y-84822038D01*
X94622200Y-84822977D01*
X94570856Y-84823808D01*
X94509338Y-84824528D01*
X94438161Y-84825130D01*
X94357838Y-84825610D01*
X94268885Y-84825963D01*
X94171815Y-84826184D01*
X94067144Y-84826267D01*
X94057153Y-84826268D01*
X93467601Y-84826268D01*
X93467601Y-84612206D01*
X93467601Y-84398144D01*
X93085347Y-84398144D01*
X92703094Y-84398144D01*
X92703094Y-84214662D01*
X92703094Y-84031180D01*
X93085347Y-84031180D01*
X93467601Y-84031180D01*
X93467601Y-83847698D01*
X93467601Y-83664216D01*
X93085347Y-83664216D01*
X92703094Y-83664216D01*
X92703094Y-83480735D01*
X92703094Y-83297253D01*
X93085347Y-83297253D01*
X93467601Y-83297253D01*
X93467601Y-83067612D01*
X93467601Y-82837971D01*
X94105200Y-82840260D01*
X94207589Y-82840633D01*
X94298514Y-82840987D01*
X94378740Y-82841337D01*
X94449037Y-82841700D01*
X94510170Y-82842093D01*
X94562908Y-82842533D01*
X94608018Y-82843036D01*
X94646266Y-82843619D01*
X94678420Y-82844298D01*
X94705248Y-82845090D01*
X94727516Y-82846012D01*
X94745993Y-82847080D01*
X94761445Y-82848311D01*
X94774639Y-82849721D01*
X94786343Y-82851328D01*
X94797324Y-82853147D01*
X94808349Y-82855196D01*
X94810076Y-82855528D01*
X94925790Y-82882938D01*
X95032700Y-82918819D01*
X95130796Y-82963163D01*
X95220072Y-83015968D01*
X95300520Y-83077227D01*
X95372130Y-83146936D01*
X95434895Y-83225090D01*
X95453313Y-83252192D01*
X95501913Y-83337253D01*
X95541531Y-83428830D01*
X95570951Y-83523983D01*
X95577214Y-83550959D01*
X95587764Y-83599998D01*
X96683594Y-83601543D01*
X97779424Y-83603089D01*
X97779365Y-83733039D01*
X97773674Y-83965713D01*
X97756780Y-84193545D01*
X97728632Y-84416713D01*
X97689182Y-84635396D01*
X97638378Y-84849775D01*
X97576172Y-85060027D01*
X97502514Y-85266332D01*
X97417354Y-85468870D01*
X97320642Y-85667819D01*
X97212329Y-85863359D01*
X97166883Y-85938813D01*
X97056784Y-86107215D01*
X96938030Y-86268806D01*
X96809640Y-86424824D01*
X96670631Y-86576506D01*
X96620430Y-86627655D01*
X96466026Y-86774092D01*
X96306004Y-86909719D01*
X96140500Y-87034472D01*
X95969650Y-87148286D01*
X95793590Y-87251097D01*
X95612457Y-87342840D01*
X95426385Y-87423451D01*
X95235511Y-87492866D01*
X95039970Y-87551020D01*
X94839899Y-87597849D01*
X94635434Y-87633288D01*
X94452287Y-87654973D01*
X94405429Y-87658582D01*
X94349470Y-87661645D01*
X94287117Y-87664115D01*
X94221078Y-87665943D01*
X94154060Y-87667081D01*
X94088768Y-87667482D01*
X94027912Y-87667098D01*
X93974197Y-87665881D01*
X93935480Y-87664113D01*
X93716973Y-87644810D01*
X93502239Y-87613959D01*
X93291467Y-87571629D01*
X93084848Y-87517889D01*
X92882575Y-87452811D01*
X92684837Y-87376462D01*
X92491825Y-87288914D01*
X92303732Y-87190235D01*
X92120747Y-87080497D01*
X91943062Y-86959767D01*
X91879026Y-86912571D01*
X91710970Y-86778447D01*
X91551615Y-86635768D01*
X91401156Y-86484768D01*
X91259787Y-86325682D01*
X91127702Y-86158744D01*
X91005097Y-85984189D01*
X90892166Y-85802252D01*
X90789104Y-85613167D01*
X90770174Y-85575485D01*
X90726532Y-85485250D01*
X90688280Y-85401124D01*
X90653804Y-85319191D01*
X90621487Y-85235535D01*
X90589713Y-85146239D01*
X90574601Y-85101491D01*
X90512621Y-84896156D01*
X90462565Y-84688851D01*
X90424402Y-84480049D01*
X90398096Y-84270227D01*
X90383615Y-84059859D01*
X90380924Y-83849421D01*
X90389990Y-83639389D01*
X90410778Y-83430237D01*
X90443255Y-83222442D01*
X90487387Y-83016477D01*
X90543140Y-82812819D01*
X90610480Y-82611943D01*
X90689374Y-82414324D01*
X90779647Y-82220718D01*
X90878538Y-82036912D01*
X90988165Y-81858451D01*
X91107984Y-81685944D01*
X91237452Y-81520003D01*
X91376026Y-81361237D01*
X91523163Y-81210255D01*
X91678320Y-81067669D01*
X91840953Y-80934087D01*
X92010520Y-80810121D01*
X92073139Y-80767976D01*
X92199988Y-80688366D01*
X92333901Y-80611522D01*
X92471159Y-80539420D01*
X92608042Y-80474038D01*
X92706152Y-80431457D01*
X92813646Y-80389505D01*
X92929917Y-80348801D01*
X93051510Y-80310387D01*
X93174970Y-80275303D01*
X93296843Y-80244590D01*
X93403383Y-80221332D01*
X93611051Y-80185889D01*
X93820247Y-80162342D01*
X94030329Y-80150602D01*
X94240655Y-80150584D01*
X94450585Y-80162200D01*
G37*
D12*
X99437500Y-93766252D02*
X99437500Y-93243748D01*
X100907500Y-93766252D02*
X100907500Y-93243748D01*
X76422936Y-83265000D02*
X76877064Y-83265000D01*
X76422936Y-84735000D02*
X76877064Y-84735000D01*
X138430800Y-87458000D02*
X140190800Y-87458000D01*
X139390800Y-84388000D02*
X138590800Y-84388000D01*
X139390800Y-84388000D02*
X140190800Y-84388000D01*
X138090800Y-84463000D02*
X137850800Y-84133000D01*
X138330800Y-84133000D01*
X138090800Y-84463000D01*
G36*
X138090800Y-84463000D02*
G01*
X137850800Y-84133000D01*
X138330800Y-84133000D01*
X138090800Y-84463000D01*
G37*
X106025000Y-89463748D02*
X106025000Y-89986252D01*
X107495000Y-89463748D02*
X107495000Y-89986252D01*
X112496900Y-93669352D02*
X112496900Y-93146848D01*
X113966900Y-93669352D02*
X113966900Y-93146848D01*
X125950000Y-87660000D02*
X125950000Y-79150000D01*
X132450000Y-87660000D02*
X125950000Y-87660000D01*
X132450000Y-87660000D02*
X132450000Y-79150000D01*
X139844400Y-83073000D02*
X139844400Y-81473000D01*
X143044400Y-83073000D02*
X143044400Y-81473000D01*
X139994400Y-83523000D02*
X139664400Y-83763000D01*
X139664400Y-83283000D01*
X139994400Y-83523000D01*
G36*
X139994400Y-83523000D02*
G01*
X139664400Y-83763000D01*
X139664400Y-83283000D01*
X139994400Y-83523000D01*
G37*
X89790000Y-91761252D02*
X89790000Y-90338748D01*
X92510000Y-91761252D02*
X92510000Y-90338748D01*
X86688748Y-80365000D02*
X87211252Y-80365000D01*
X86688748Y-81835000D02*
X87211252Y-81835000D01*
X135456664Y-88063400D02*
X135002536Y-88063400D01*
X135456664Y-89533400D02*
X135002536Y-89533400D01*
X114560000Y-81120000D02*
X114560000Y-82570000D01*
X114560000Y-82570000D02*
X116360000Y-82570000D01*
X119980000Y-82570000D02*
X119980000Y-83560000D01*
X120510000Y-78300000D02*
X115830000Y-78300000D01*
X121780000Y-81120000D02*
X121780000Y-82570000D01*
X121780000Y-82570000D02*
X119980000Y-82570000D01*
X132948748Y-99183000D02*
X133471252Y-99183000D01*
X132948748Y-100653000D02*
X133471252Y-100653000D01*
X134661252Y-80415000D02*
X134138748Y-80415000D01*
X134661252Y-81885000D02*
X134138748Y-81885000D01*
X93190000Y-91761252D02*
X93190000Y-90338748D01*
X95910000Y-91761252D02*
X95910000Y-90338748D01*
X99040000Y-81340000D02*
X99040000Y-82790000D01*
X99040000Y-82790000D02*
X100840000Y-82790000D01*
X104460000Y-82790000D02*
X104460000Y-83780000D01*
X104990000Y-78520000D02*
X100310000Y-78520000D01*
X106260000Y-81340000D02*
X106260000Y-82790000D01*
X106260000Y-82790000D02*
X104460000Y-82790000D01*
X118965000Y-89238748D02*
X118965000Y-89761252D01*
X120435000Y-89238748D02*
X120435000Y-89761252D01*
X131902564Y-88063400D02*
X131448436Y-88063400D01*
X131902564Y-89533400D02*
X131448436Y-89533400D01*
X132978748Y-97143000D02*
X133501252Y-97143000D01*
X132978748Y-98613000D02*
X133501252Y-98613000D01*
X133561252Y-91410600D02*
X133038748Y-91410600D01*
X133561252Y-92880600D02*
X133038748Y-92880600D01*
X81179200Y-85506800D02*
X82939200Y-85506800D01*
X82139200Y-82436800D02*
X81339200Y-82436800D01*
X82139200Y-82436800D02*
X82939200Y-82436800D01*
X80839200Y-82511800D02*
X80599200Y-82181800D01*
X81079200Y-82181800D01*
X80839200Y-82511800D01*
G36*
X80839200Y-82511800D02*
G01*
X80599200Y-82181800D01*
X81079200Y-82181800D01*
X80839200Y-82511800D01*
G37*
X116635500Y-91848100D02*
X115985500Y-91848100D01*
X116635500Y-91848100D02*
X117285500Y-91848100D01*
X116635500Y-94968100D02*
X115985500Y-94968100D01*
X116635500Y-94968100D02*
X117285500Y-94968100D01*
X115473000Y-91898100D02*
X115233000Y-91568100D01*
X115713000Y-91568100D01*
X115473000Y-91898100D01*
G36*
X115473000Y-91898100D02*
G01*
X115233000Y-91568100D01*
X115713000Y-91568100D01*
X115473000Y-91898100D01*
G37*
X119065000Y-93677064D02*
X119065000Y-93222936D01*
X120535000Y-93677064D02*
X120535000Y-93222936D01*
X116514000Y-87972100D02*
X115714000Y-87972100D01*
X116514000Y-87972100D02*
X117314000Y-87972100D01*
X116514000Y-91092100D02*
X115714000Y-91092100D01*
X116514000Y-91092100D02*
X117314000Y-91092100D01*
X118054000Y-91372100D02*
X117574000Y-91372100D01*
X117814000Y-91042100D01*
X118054000Y-91372100D01*
G36*
X118054000Y-91372100D02*
G01*
X117574000Y-91372100D01*
X117814000Y-91042100D01*
X118054000Y-91372100D01*
G37*
X86638748Y-78265000D02*
X87161252Y-78265000D01*
X86638748Y-79735000D02*
X87161252Y-79735000D01*
D10*
X135600000Y-93800000D02*
X135600000Y-91150000D01*
X135600000Y-99150000D02*
X135600000Y-96500000D01*
X135600000Y-99150000D02*
X143700000Y-99150000D01*
X143700000Y-91150000D02*
X135600000Y-91150000D01*
X143700000Y-93800000D02*
X143700000Y-91150000D01*
X143700000Y-99150000D02*
X143700000Y-96500000D01*
D12*
X134661252Y-84515000D02*
X134138748Y-84515000D01*
X134661252Y-85985000D02*
X134138748Y-85985000D01*
X79731400Y-80561252D02*
X79731400Y-80038748D01*
X81201400Y-80561252D02*
X81201400Y-80038748D01*
X131242800Y-93380500D02*
X130442800Y-93380500D01*
X131242800Y-93380500D02*
X132042800Y-93380500D01*
X131242800Y-96500500D02*
X130442800Y-96500500D01*
X131242800Y-96500500D02*
X132042800Y-96500500D01*
X129942800Y-93430500D02*
X129702800Y-93100500D01*
X130182800Y-93100500D01*
X129942800Y-93430500D01*
G36*
X129942800Y-93430500D02*
G01*
X129702800Y-93100500D01*
X130182800Y-93100500D01*
X129942800Y-93430500D01*
G37*
X142434636Y-87989600D02*
X142888764Y-87989600D01*
X142434636Y-89459600D02*
X142888764Y-89459600D01*
D10*
X144581200Y-88349400D02*
X144581200Y-80749400D01*
X146251200Y-80749400D02*
X144581200Y-80749400D01*
X146251200Y-88349400D02*
X144581200Y-88349400D01*
X151481200Y-80749400D02*
X149811200Y-80749400D01*
X151481200Y-80749400D02*
X151481200Y-88349400D01*
X151481200Y-88349400D02*
X149811200Y-88349400D01*
D12*
X100980000Y-84680000D02*
X106420000Y-84680000D01*
X100980000Y-84810000D02*
X100980000Y-84680000D01*
X100980000Y-87490000D02*
X100980000Y-87620000D01*
X100980000Y-87620000D02*
X106420000Y-87620000D01*
X101760000Y-84680000D02*
X101760000Y-87620000D01*
X101880000Y-84680000D02*
X101880000Y-87620000D01*
X102000000Y-84680000D02*
X102000000Y-87620000D01*
X106420000Y-84680000D02*
X106420000Y-84810000D01*
X106420000Y-87620000D02*
X106420000Y-87490000D01*
X114367100Y-84404500D02*
X114367100Y-84534500D01*
X114367100Y-87344500D02*
X114367100Y-87214500D01*
X118787100Y-87344500D02*
X118787100Y-84404500D01*
X118907100Y-87344500D02*
X118907100Y-84404500D01*
X119027100Y-87344500D02*
X119027100Y-84404500D01*
X119807100Y-84404500D02*
X114367100Y-84404500D01*
X119807100Y-84534500D02*
X119807100Y-84404500D01*
X119807100Y-87214500D02*
X119807100Y-87344500D01*
X119807100Y-87344500D02*
X114367100Y-87344500D01*
X112496900Y-89774364D02*
X112496900Y-89320236D01*
X113966900Y-89774364D02*
X113966900Y-89320236D01*
X103450000Y-88215000D02*
X102800000Y-88215000D01*
X103450000Y-88215000D02*
X104100000Y-88215000D01*
X103450000Y-91335000D02*
X102800000Y-91335000D01*
X103450000Y-91335000D02*
X104100000Y-91335000D01*
X104852500Y-91615000D02*
X104372500Y-91615000D01*
X104612500Y-91285000D01*
X104852500Y-91615000D01*
G36*
X104852500Y-91615000D02*
G01*
X104372500Y-91615000D01*
X104612500Y-91285000D01*
X104852500Y-91615000D01*
G37*
X86722936Y-82465000D02*
X87177064Y-82465000D01*
X86722936Y-83935000D02*
X87177064Y-83935000D01*
D10*
X77400000Y-88306000D02*
X77400000Y-88306000D01*
X77400000Y-88406000D02*
X77400000Y-88406000D01*
X77400000Y-88306000D02*
G75*
G02*
X77400000Y-88406000I0J-50000D01*
G01*
X77400000Y-88406000D02*
G75*
G02*
X77400000Y-88306000I0J50000D01*
G01*
D12*
X127215000Y-89588748D02*
X127215000Y-90111252D01*
X128685000Y-89588748D02*
X128685000Y-90111252D01*
X120857500Y-92430000D02*
X120857500Y-95115000D01*
X120857500Y-95115000D02*
X122777500Y-95115000D01*
X122777500Y-95115000D02*
X122777500Y-92430000D01*
%LPC*%
D15*
X125867200Y-88900000D03*
X125867200Y-90800000D03*
X121884400Y-88550000D03*
X121884400Y-90450000D03*
D16*
X102287500Y-92565000D03*
X102287500Y-93515000D03*
X102287500Y-94465000D03*
X104562500Y-94465000D03*
X104562500Y-93515000D03*
X104562500Y-92565000D03*
D17*
X84200000Y-94195200D03*
X84200000Y-88595200D03*
D18*
X98042500Y-94445000D03*
X98042500Y-92545000D03*
D19*
X140042400Y-88775400D03*
X138142400Y-88775400D03*
D20*
X77562500Y-86050000D03*
X75737500Y-86050000D03*
D21*
X100350000Y-88862500D03*
X100350000Y-90687500D03*
X82600000Y-79437500D03*
X82600000Y-81262500D03*
D20*
X108354500Y-94386400D03*
X106529500Y-94386400D03*
D22*
X133487500Y-83200000D03*
X135312500Y-83200000D03*
D23*
X98320000Y-88857500D03*
X98320000Y-90732500D03*
D19*
X130568000Y-97827200D03*
X128668000Y-97827200D03*
D18*
X143450000Y-86850000D03*
X143450000Y-84950000D03*
X100172500Y-94455000D03*
X100172500Y-92555000D03*
D22*
X75737500Y-84000000D03*
X77562500Y-84000000D03*
D24*
X137600800Y-84928000D03*
X137600800Y-85568000D03*
X137600800Y-86228000D03*
X137600800Y-86868000D03*
X141020800Y-86868000D03*
X141020800Y-86228000D03*
X141020800Y-85568000D03*
X141020800Y-84928000D03*
D15*
X106760000Y-88775000D03*
X106760000Y-90675000D03*
D18*
X113231900Y-94358100D03*
X113231900Y-92458100D03*
D25*
X129200000Y-86150000D03*
X129200000Y-79350000D03*
D26*
X140494400Y-83433000D03*
X141444400Y-83433000D03*
X142394400Y-83433000D03*
X142394400Y-81113000D03*
X141444400Y-81113000D03*
X140494400Y-81113000D03*
D27*
X91150000Y-92525000D03*
X91150000Y-89575000D03*
D28*
X86000000Y-81100000D03*
X87900000Y-81100000D03*
D20*
X136142100Y-88798400D03*
X134317100Y-88798400D03*
D29*
X119420000Y-82710000D03*
X118170000Y-82710000D03*
X116920000Y-82710000D03*
D30*
X121270000Y-79510000D03*
X115070000Y-79510000D03*
D31*
X110030000Y-80030000D03*
D32*
X110030000Y-80030000D03*
D28*
X132260000Y-99918000D03*
X134160000Y-99918000D03*
D19*
X135350000Y-81150000D03*
X133450000Y-81150000D03*
D27*
X94550000Y-92525000D03*
X94550000Y-89575000D03*
D29*
X103900000Y-82930000D03*
X102650000Y-82930000D03*
X101400000Y-82930000D03*
D30*
X105750000Y-79730000D03*
X99550000Y-79730000D03*
D15*
X119700000Y-88550000D03*
X119700000Y-90450000D03*
D20*
X132588000Y-88798400D03*
X130763000Y-88798400D03*
D28*
X132290000Y-97878000D03*
X134190000Y-97878000D03*
D19*
X134250000Y-92145600D03*
X132350000Y-92145600D03*
D24*
X80349200Y-82976800D03*
X80349200Y-83616800D03*
X80349200Y-84276800D03*
X80349200Y-84916800D03*
X83769200Y-84916800D03*
X83769200Y-84276800D03*
X83769200Y-83616800D03*
X83769200Y-82976800D03*
D33*
X115698000Y-92458100D03*
X115698000Y-94358100D03*
X117573000Y-93408100D03*
D34*
X119800000Y-94362500D03*
X119800000Y-92537500D03*
D35*
X117651500Y-90482100D03*
X117651500Y-89532100D03*
X117651500Y-88582100D03*
X115376500Y-88582100D03*
X115376500Y-89532100D03*
X115376500Y-90482100D03*
D28*
X85950000Y-79000000D03*
X87850000Y-79000000D03*
D36*
X136000000Y-95150000D03*
X143300000Y-95150000D03*
D19*
X135350000Y-85250000D03*
X133450000Y-85250000D03*
D37*
X145783600Y-92710000D03*
X146486544Y-91012944D03*
X146486544Y-94407056D03*
X148183600Y-90310000D03*
D38*
X148183600Y-92710000D03*
D37*
X148183600Y-95110000D03*
X149880656Y-91012944D03*
X149880656Y-94407056D03*
X150583600Y-92710000D03*
D18*
X80466400Y-81250000D03*
X80466400Y-79350000D03*
D16*
X130105300Y-93990500D03*
X130105300Y-94940500D03*
X130105300Y-95890500D03*
X132380300Y-95890500D03*
X132380300Y-94940500D03*
X132380300Y-93990500D03*
D22*
X141749200Y-88724600D03*
X143574200Y-88724600D03*
D39*
X148031200Y-87274400D03*
X148031200Y-81824400D03*
D40*
X99890000Y-86150000D03*
D41*
X107510000Y-86150000D03*
D40*
X120897100Y-85874500D03*
D41*
X113277100Y-85874500D03*
D34*
X113231900Y-90459800D03*
X113231900Y-88634800D03*
D42*
X104387500Y-90725000D03*
X104387500Y-88825000D03*
X102512500Y-89775000D03*
D22*
X86037500Y-83200000D03*
X87862500Y-83200000D03*
D43*
X77400000Y-89550000D03*
X75560000Y-89550000D03*
D44*
X76480000Y-93532000D03*
D15*
X127950000Y-88900000D03*
X127950000Y-90800000D03*
D45*
X121817500Y-94367500D03*
X121817500Y-92492500D03*
%LPD*%
M02*
